G04 #@! TF.GenerationSoftware,KiCad,Pcbnew,(5.1.5)-3*
G04 #@! TF.CreationDate,2020-02-22T08:37:43-08:00*
G04 #@! TF.ProjectId,voltages,766f6c74-6167-4657-932e-6b696361645f,rev?*
G04 #@! TF.SameCoordinates,Original*
G04 #@! TF.FileFunction,Legend,Top*
G04 #@! TF.FilePolarity,Positive*
%FSLAX46Y46*%
G04 Gerber Fmt 4.6, Leading zero omitted, Abs format (unit mm)*
G04 Created by KiCad (PCBNEW (5.1.5)-3) date 2020-02-22 08:37:43*
%MOMM*%
%LPD*%
G04 APERTURE LIST*
%ADD10C,0.150000*%
%ADD11C,0.120000*%
%ADD12C,0.010000*%
G04 APERTURE END LIST*
D10*
X129422190Y-81161380D02*
X129422190Y-80161380D01*
X129993619Y-81161380D01*
X129993619Y-80161380D01*
X130469809Y-80637571D02*
X130803142Y-80637571D01*
X130946000Y-81161380D02*
X130469809Y-81161380D01*
X130469809Y-80161380D01*
X130946000Y-80161380D01*
X131898380Y-80209000D02*
X131803142Y-80161380D01*
X131660285Y-80161380D01*
X131517428Y-80209000D01*
X131422190Y-80304238D01*
X131374571Y-80399476D01*
X131326952Y-80589952D01*
X131326952Y-80732809D01*
X131374571Y-80923285D01*
X131422190Y-81018523D01*
X131517428Y-81113761D01*
X131660285Y-81161380D01*
X131755523Y-81161380D01*
X131898380Y-81113761D01*
X131946000Y-81066142D01*
X131946000Y-80732809D01*
X131755523Y-80732809D01*
X132326952Y-80875666D02*
X132803142Y-80875666D01*
X132231714Y-81161380D02*
X132565047Y-80161380D01*
X132898380Y-81161380D01*
X133088857Y-80161380D02*
X133660285Y-80161380D01*
X133374571Y-81161380D02*
X133374571Y-80161380D01*
X133993619Y-81161380D02*
X133993619Y-80161380D01*
X134326952Y-80161380D02*
X134660285Y-81161380D01*
X134993619Y-80161380D01*
X135326952Y-80637571D02*
X135660285Y-80637571D01*
X135803142Y-81161380D02*
X135326952Y-81161380D01*
X135326952Y-80161380D01*
X135803142Y-80161380D01*
X136850761Y-80161380D02*
X137184095Y-81161380D01*
X137517428Y-80161380D01*
X138041238Y-80161380D02*
X138231714Y-80161380D01*
X138326952Y-80209000D01*
X138422190Y-80304238D01*
X138469809Y-80494714D01*
X138469809Y-80828047D01*
X138422190Y-81018523D01*
X138326952Y-81113761D01*
X138231714Y-81161380D01*
X138041238Y-81161380D01*
X137946000Y-81113761D01*
X137850761Y-81018523D01*
X137803142Y-80828047D01*
X137803142Y-80494714D01*
X137850761Y-80304238D01*
X137946000Y-80209000D01*
X138041238Y-80161380D01*
X139374571Y-81161380D02*
X138898380Y-81161380D01*
X138898380Y-80161380D01*
X139565047Y-80161380D02*
X140136476Y-80161380D01*
X139850761Y-81161380D02*
X139850761Y-80161380D01*
X140422190Y-80875666D02*
X140898380Y-80875666D01*
X140326952Y-81161380D02*
X140660285Y-80161380D01*
X140993619Y-81161380D01*
X141850761Y-80209000D02*
X141755523Y-80161380D01*
X141612666Y-80161380D01*
X141469809Y-80209000D01*
X141374571Y-80304238D01*
X141326952Y-80399476D01*
X141279333Y-80589952D01*
X141279333Y-80732809D01*
X141326952Y-80923285D01*
X141374571Y-81018523D01*
X141469809Y-81113761D01*
X141612666Y-81161380D01*
X141707904Y-81161380D01*
X141850761Y-81113761D01*
X141898380Y-81066142D01*
X141898380Y-80732809D01*
X141707904Y-80732809D01*
X142326952Y-80637571D02*
X142660285Y-80637571D01*
X142803142Y-81161380D02*
X142326952Y-81161380D01*
X142326952Y-80161380D01*
X142803142Y-80161380D01*
X143946000Y-81113761D02*
X144088857Y-81161380D01*
X144326952Y-81161380D01*
X144422190Y-81113761D01*
X144469809Y-81066142D01*
X144517428Y-80970904D01*
X144517428Y-80875666D01*
X144469809Y-80780428D01*
X144422190Y-80732809D01*
X144326952Y-80685190D01*
X144136476Y-80637571D01*
X144041238Y-80589952D01*
X143993619Y-80542333D01*
X143946000Y-80447095D01*
X143946000Y-80351857D01*
X143993619Y-80256619D01*
X144041238Y-80209000D01*
X144136476Y-80161380D01*
X144374571Y-80161380D01*
X144517428Y-80209000D01*
X145136476Y-80161380D02*
X145326952Y-80161380D01*
X145422190Y-80209000D01*
X145517428Y-80304238D01*
X145565047Y-80494714D01*
X145565047Y-80828047D01*
X145517428Y-81018523D01*
X145422190Y-81113761D01*
X145326952Y-81161380D01*
X145136476Y-81161380D01*
X145041238Y-81113761D01*
X144946000Y-81018523D01*
X144898380Y-80828047D01*
X144898380Y-80494714D01*
X144946000Y-80304238D01*
X145041238Y-80209000D01*
X145136476Y-80161380D01*
X145993619Y-80161380D02*
X145993619Y-80970904D01*
X146041238Y-81066142D01*
X146088857Y-81113761D01*
X146184095Y-81161380D01*
X146374571Y-81161380D01*
X146469809Y-81113761D01*
X146517428Y-81066142D01*
X146565047Y-80970904D01*
X146565047Y-80161380D01*
X147612666Y-81161380D02*
X147279333Y-80685190D01*
X147041238Y-81161380D02*
X147041238Y-80161380D01*
X147422190Y-80161380D01*
X147517428Y-80209000D01*
X147565047Y-80256619D01*
X147612666Y-80351857D01*
X147612666Y-80494714D01*
X147565047Y-80589952D01*
X147517428Y-80637571D01*
X147422190Y-80685190D01*
X147041238Y-80685190D01*
X148612666Y-81066142D02*
X148565047Y-81113761D01*
X148422190Y-81161380D01*
X148326952Y-81161380D01*
X148184095Y-81113761D01*
X148088857Y-81018523D01*
X148041238Y-80923285D01*
X147993619Y-80732809D01*
X147993619Y-80589952D01*
X148041238Y-80399476D01*
X148088857Y-80304238D01*
X148184095Y-80209000D01*
X148326952Y-80161380D01*
X148422190Y-80161380D01*
X148565047Y-80209000D01*
X148612666Y-80256619D01*
X149041238Y-80637571D02*
X149374571Y-80637571D01*
X149517428Y-81161380D02*
X149041238Y-81161380D01*
X149041238Y-80161380D01*
X149517428Y-80161380D01*
X132303142Y-82811380D02*
X131969809Y-82335190D01*
X131731714Y-82811380D02*
X131731714Y-81811380D01*
X132112666Y-81811380D01*
X132207904Y-81859000D01*
X132255523Y-81906619D01*
X132303142Y-82001857D01*
X132303142Y-82144714D01*
X132255523Y-82239952D01*
X132207904Y-82287571D01*
X132112666Y-82335190D01*
X131731714Y-82335190D01*
X132731714Y-82287571D02*
X133065047Y-82287571D01*
X133207904Y-82811380D02*
X132731714Y-82811380D01*
X132731714Y-81811380D01*
X133207904Y-81811380D01*
X133493619Y-81811380D02*
X133826952Y-82811380D01*
X134160285Y-81811380D01*
X135207904Y-82525666D02*
X135684095Y-82525666D01*
X135112666Y-82811380D02*
X135446000Y-81811380D01*
X135779333Y-82811380D01*
X137588857Y-81906619D02*
X137636476Y-81859000D01*
X137731714Y-81811380D01*
X137969809Y-81811380D01*
X138065047Y-81859000D01*
X138112666Y-81906619D01*
X138160285Y-82001857D01*
X138160285Y-82097095D01*
X138112666Y-82239952D01*
X137541238Y-82811380D01*
X138160285Y-82811380D01*
X138541238Y-81906619D02*
X138588857Y-81859000D01*
X138684095Y-81811380D01*
X138922190Y-81811380D01*
X139017428Y-81859000D01*
X139065047Y-81906619D01*
X139112666Y-82001857D01*
X139112666Y-82097095D01*
X139065047Y-82239952D01*
X138493619Y-82811380D01*
X139112666Y-82811380D01*
X140636476Y-82287571D02*
X140303142Y-82287571D01*
X140303142Y-82811380D02*
X140303142Y-81811380D01*
X140779333Y-81811380D01*
X141160285Y-82287571D02*
X141493619Y-82287571D01*
X141636476Y-82811380D02*
X141160285Y-82811380D01*
X141160285Y-81811380D01*
X141636476Y-81811380D01*
X142398380Y-82287571D02*
X142541238Y-82335190D01*
X142588857Y-82382809D01*
X142636476Y-82478047D01*
X142636476Y-82620904D01*
X142588857Y-82716142D01*
X142541238Y-82763761D01*
X142446000Y-82811380D01*
X142065047Y-82811380D01*
X142065047Y-81811380D01*
X142398380Y-81811380D01*
X142493619Y-81859000D01*
X142541238Y-81906619D01*
X142588857Y-82001857D01*
X142588857Y-82097095D01*
X142541238Y-82192333D01*
X142493619Y-82239952D01*
X142398380Y-82287571D01*
X142065047Y-82287571D01*
X143779333Y-81906619D02*
X143826952Y-81859000D01*
X143922190Y-81811380D01*
X144160285Y-81811380D01*
X144255523Y-81859000D01*
X144303142Y-81906619D01*
X144350761Y-82001857D01*
X144350761Y-82097095D01*
X144303142Y-82239952D01*
X143731714Y-82811380D01*
X144350761Y-82811380D01*
X144969809Y-81811380D02*
X145065047Y-81811380D01*
X145160285Y-81859000D01*
X145207904Y-81906619D01*
X145255523Y-82001857D01*
X145303142Y-82192333D01*
X145303142Y-82430428D01*
X145255523Y-82620904D01*
X145207904Y-82716142D01*
X145160285Y-82763761D01*
X145065047Y-82811380D01*
X144969809Y-82811380D01*
X144874571Y-82763761D01*
X144826952Y-82716142D01*
X144779333Y-82620904D01*
X144731714Y-82430428D01*
X144731714Y-82192333D01*
X144779333Y-82001857D01*
X144826952Y-81906619D01*
X144874571Y-81859000D01*
X144969809Y-81811380D01*
X145684095Y-81906619D02*
X145731714Y-81859000D01*
X145826952Y-81811380D01*
X146065047Y-81811380D01*
X146160285Y-81859000D01*
X146207904Y-81906619D01*
X146255523Y-82001857D01*
X146255523Y-82097095D01*
X146207904Y-82239952D01*
X145636476Y-82811380D01*
X146255523Y-82811380D01*
X146874571Y-81811380D02*
X146969809Y-81811380D01*
X147065047Y-81859000D01*
X147112666Y-81906619D01*
X147160285Y-82001857D01*
X147207904Y-82192333D01*
X147207904Y-82430428D01*
X147160285Y-82620904D01*
X147112666Y-82716142D01*
X147065047Y-82763761D01*
X146969809Y-82811380D01*
X146874571Y-82811380D01*
X146779333Y-82763761D01*
X146731714Y-82716142D01*
X146684095Y-82620904D01*
X146636476Y-82430428D01*
X146636476Y-82192333D01*
X146684095Y-82001857D01*
X146731714Y-81906619D01*
X146779333Y-81859000D01*
X146874571Y-81811380D01*
X78319523Y-53284380D02*
X77843333Y-53284380D01*
X77843333Y-52284380D01*
X78652857Y-53284380D02*
X78652857Y-52284380D01*
X78986190Y-52998666D01*
X79319523Y-52284380D01*
X79319523Y-53284380D01*
X79700476Y-52284380D02*
X80319523Y-52284380D01*
X79986190Y-52665333D01*
X80129047Y-52665333D01*
X80224285Y-52712952D01*
X80271904Y-52760571D01*
X80319523Y-52855809D01*
X80319523Y-53093904D01*
X80271904Y-53189142D01*
X80224285Y-53236761D01*
X80129047Y-53284380D01*
X79843333Y-53284380D01*
X79748095Y-53236761D01*
X79700476Y-53189142D01*
X80652857Y-52284380D02*
X81271904Y-52284380D01*
X80938571Y-52665333D01*
X81081428Y-52665333D01*
X81176666Y-52712952D01*
X81224285Y-52760571D01*
X81271904Y-52855809D01*
X81271904Y-53093904D01*
X81224285Y-53189142D01*
X81176666Y-53236761D01*
X81081428Y-53284380D01*
X80795714Y-53284380D01*
X80700476Y-53236761D01*
X80652857Y-53189142D01*
X81605238Y-52284380D02*
X82271904Y-52284380D01*
X81843333Y-53284380D01*
X102893904Y-79716380D02*
X103512952Y-79716380D01*
X103179619Y-80097333D01*
X103322476Y-80097333D01*
X103417714Y-80144952D01*
X103465333Y-80192571D01*
X103512952Y-80287809D01*
X103512952Y-80525904D01*
X103465333Y-80621142D01*
X103417714Y-80668761D01*
X103322476Y-80716380D01*
X103036761Y-80716380D01*
X102941523Y-80668761D01*
X102893904Y-80621142D01*
X103941523Y-80716380D02*
X103941523Y-79716380D01*
X104036761Y-80335428D02*
X104322476Y-80716380D01*
X104322476Y-80049714D02*
X103941523Y-80430666D01*
X104243333Y-67365619D02*
X104290952Y-67318000D01*
X104386190Y-67270380D01*
X104624285Y-67270380D01*
X104719523Y-67318000D01*
X104767142Y-67365619D01*
X104814761Y-67460857D01*
X104814761Y-67556095D01*
X104767142Y-67698952D01*
X104195714Y-68270380D01*
X104814761Y-68270380D01*
X105243333Y-68270380D02*
X105243333Y-67270380D01*
X105338571Y-67889428D02*
X105624285Y-68270380D01*
X105624285Y-67603714D02*
X105243333Y-67984666D01*
X105957619Y-67270380D02*
X106624285Y-67270380D01*
X106195714Y-68270380D01*
X99623714Y-65238380D02*
X100290380Y-65238380D01*
X99861809Y-66238380D01*
X100671333Y-66238380D02*
X100671333Y-65238380D01*
X100766571Y-65857428D02*
X101052285Y-66238380D01*
X101052285Y-65571714D02*
X100671333Y-65952666D01*
X101433238Y-65333619D02*
X101480857Y-65286000D01*
X101576095Y-65238380D01*
X101814190Y-65238380D01*
X101909428Y-65286000D01*
X101957047Y-65333619D01*
X102004666Y-65428857D01*
X102004666Y-65524095D01*
X101957047Y-65666952D01*
X101385619Y-66238380D01*
X102004666Y-66238380D01*
X93670380Y-75033047D02*
X93670380Y-75604476D01*
X93670380Y-75318761D02*
X92670380Y-75318761D01*
X92813238Y-75414000D01*
X92908476Y-75509238D01*
X92956095Y-75604476D01*
X92670380Y-74414000D02*
X92670380Y-74318761D01*
X92718000Y-74223523D01*
X92765619Y-74175904D01*
X92860857Y-74128285D01*
X93051333Y-74080666D01*
X93289428Y-74080666D01*
X93479904Y-74128285D01*
X93575142Y-74175904D01*
X93622761Y-74223523D01*
X93670380Y-74318761D01*
X93670380Y-74414000D01*
X93622761Y-74509238D01*
X93575142Y-74556857D01*
X93479904Y-74604476D01*
X93289428Y-74652095D01*
X93051333Y-74652095D01*
X92860857Y-74604476D01*
X92765619Y-74556857D01*
X92718000Y-74509238D01*
X92670380Y-74414000D01*
X92670380Y-73461619D02*
X92670380Y-73366380D01*
X92718000Y-73271142D01*
X92765619Y-73223523D01*
X92860857Y-73175904D01*
X93051333Y-73128285D01*
X93289428Y-73128285D01*
X93479904Y-73175904D01*
X93575142Y-73223523D01*
X93622761Y-73271142D01*
X93670380Y-73366380D01*
X93670380Y-73461619D01*
X93622761Y-73556857D01*
X93575142Y-73604476D01*
X93479904Y-73652095D01*
X93289428Y-73699714D01*
X93051333Y-73699714D01*
X92860857Y-73652095D01*
X92765619Y-73604476D01*
X92718000Y-73556857D01*
X92670380Y-73461619D01*
X93003714Y-72699714D02*
X93670380Y-72699714D01*
X93098952Y-72699714D02*
X93051333Y-72652095D01*
X93003714Y-72556857D01*
X93003714Y-72414000D01*
X93051333Y-72318761D01*
X93146571Y-72271142D01*
X93670380Y-72271142D01*
X76144380Y-76303047D02*
X76144380Y-76874476D01*
X76144380Y-76588761D02*
X75144380Y-76588761D01*
X75287238Y-76684000D01*
X75382476Y-76779238D01*
X75430095Y-76874476D01*
X75144380Y-75684000D02*
X75144380Y-75588761D01*
X75192000Y-75493523D01*
X75239619Y-75445904D01*
X75334857Y-75398285D01*
X75525333Y-75350666D01*
X75763428Y-75350666D01*
X75953904Y-75398285D01*
X76049142Y-75445904D01*
X76096761Y-75493523D01*
X76144380Y-75588761D01*
X76144380Y-75684000D01*
X76096761Y-75779238D01*
X76049142Y-75826857D01*
X75953904Y-75874476D01*
X75763428Y-75922095D01*
X75525333Y-75922095D01*
X75334857Y-75874476D01*
X75239619Y-75826857D01*
X75192000Y-75779238D01*
X75144380Y-75684000D01*
X75144380Y-74731619D02*
X75144380Y-74636380D01*
X75192000Y-74541142D01*
X75239619Y-74493523D01*
X75334857Y-74445904D01*
X75525333Y-74398285D01*
X75763428Y-74398285D01*
X75953904Y-74445904D01*
X76049142Y-74493523D01*
X76096761Y-74541142D01*
X76144380Y-74636380D01*
X76144380Y-74731619D01*
X76096761Y-74826857D01*
X76049142Y-74874476D01*
X75953904Y-74922095D01*
X75763428Y-74969714D01*
X75525333Y-74969714D01*
X75334857Y-74922095D01*
X75239619Y-74874476D01*
X75192000Y-74826857D01*
X75144380Y-74731619D01*
X75477714Y-73969714D02*
X76144380Y-73969714D01*
X75572952Y-73969714D02*
X75525333Y-73922095D01*
X75477714Y-73826857D01*
X75477714Y-73684000D01*
X75525333Y-73588761D01*
X75620571Y-73541142D01*
X76144380Y-73541142D01*
X78176380Y-62650666D02*
X78176380Y-63222095D01*
X78176380Y-62936380D02*
X77176380Y-62936380D01*
X77319238Y-63031619D01*
X77414476Y-63126857D01*
X77462095Y-63222095D01*
X77509714Y-61793523D02*
X78176380Y-61793523D01*
X77509714Y-62222095D02*
X78033523Y-62222095D01*
X78128761Y-62174476D01*
X78176380Y-62079238D01*
X78176380Y-61936380D01*
X78128761Y-61841142D01*
X78081142Y-61793523D01*
X91384380Y-62110857D02*
X91384380Y-62682285D01*
X91384380Y-62396571D02*
X90384380Y-62396571D01*
X90527238Y-62491809D01*
X90622476Y-62587047D01*
X90670095Y-62682285D01*
X90384380Y-61491809D02*
X90384380Y-61396571D01*
X90432000Y-61301333D01*
X90479619Y-61253714D01*
X90574857Y-61206095D01*
X90765333Y-61158476D01*
X91003428Y-61158476D01*
X91193904Y-61206095D01*
X91289142Y-61253714D01*
X91336761Y-61301333D01*
X91384380Y-61396571D01*
X91384380Y-61491809D01*
X91336761Y-61587047D01*
X91289142Y-61634666D01*
X91193904Y-61682285D01*
X91003428Y-61729904D01*
X90765333Y-61729904D01*
X90574857Y-61682285D01*
X90479619Y-61634666D01*
X90432000Y-61587047D01*
X90384380Y-61491809D01*
X90717714Y-60301333D02*
X91384380Y-60301333D01*
X90717714Y-60729904D02*
X91241523Y-60729904D01*
X91336761Y-60682285D01*
X91384380Y-60587047D01*
X91384380Y-60444190D01*
X91336761Y-60348952D01*
X91289142Y-60301333D01*
X93273619Y-64968285D02*
X93226000Y-64920666D01*
X93178380Y-64825428D01*
X93178380Y-64587333D01*
X93226000Y-64492095D01*
X93273619Y-64444476D01*
X93368857Y-64396857D01*
X93464095Y-64396857D01*
X93606952Y-64444476D01*
X94178380Y-65015904D01*
X94178380Y-64396857D01*
X93273619Y-64015904D02*
X93226000Y-63968285D01*
X93178380Y-63873047D01*
X93178380Y-63634952D01*
X93226000Y-63539714D01*
X93273619Y-63492095D01*
X93368857Y-63444476D01*
X93464095Y-63444476D01*
X93606952Y-63492095D01*
X94178380Y-64063523D01*
X94178380Y-63444476D01*
X93511714Y-62587333D02*
X94178380Y-62587333D01*
X93511714Y-63015904D02*
X94035523Y-63015904D01*
X94130761Y-62968285D01*
X94178380Y-62873047D01*
X94178380Y-62730190D01*
X94130761Y-62634952D01*
X94083142Y-62587333D01*
X70159714Y-65841619D02*
X70207333Y-65794000D01*
X70302571Y-65746380D01*
X70540666Y-65746380D01*
X70635904Y-65794000D01*
X70683523Y-65841619D01*
X70731142Y-65936857D01*
X70731142Y-66032095D01*
X70683523Y-66174952D01*
X70112095Y-66746380D01*
X70731142Y-66746380D01*
X71112095Y-65841619D02*
X71159714Y-65794000D01*
X71254952Y-65746380D01*
X71493047Y-65746380D01*
X71588285Y-65794000D01*
X71635904Y-65841619D01*
X71683523Y-65936857D01*
X71683523Y-66032095D01*
X71635904Y-66174952D01*
X71064476Y-66746380D01*
X71683523Y-66746380D01*
X72540666Y-66079714D02*
X72540666Y-66746380D01*
X72112095Y-66079714D02*
X72112095Y-66603523D01*
X72159714Y-66698761D01*
X72254952Y-66746380D01*
X72397809Y-66746380D01*
X72493047Y-66698761D01*
X72540666Y-66651142D01*
X87431714Y-51014380D02*
X86955523Y-51014380D01*
X86907904Y-51490571D01*
X86955523Y-51442952D01*
X87050761Y-51395333D01*
X87288857Y-51395333D01*
X87384095Y-51442952D01*
X87431714Y-51490571D01*
X87479333Y-51585809D01*
X87479333Y-51823904D01*
X87431714Y-51919142D01*
X87384095Y-51966761D01*
X87288857Y-52014380D01*
X87050761Y-52014380D01*
X86955523Y-51966761D01*
X86907904Y-51919142D01*
X88336476Y-51014380D02*
X88146000Y-51014380D01*
X88050761Y-51062000D01*
X88003142Y-51109619D01*
X87907904Y-51252476D01*
X87860285Y-51442952D01*
X87860285Y-51823904D01*
X87907904Y-51919142D01*
X87955523Y-51966761D01*
X88050761Y-52014380D01*
X88241238Y-52014380D01*
X88336476Y-51966761D01*
X88384095Y-51919142D01*
X88431714Y-51823904D01*
X88431714Y-51585809D01*
X88384095Y-51490571D01*
X88336476Y-51442952D01*
X88241238Y-51395333D01*
X88050761Y-51395333D01*
X87955523Y-51442952D01*
X87907904Y-51490571D01*
X87860285Y-51585809D01*
X88812666Y-51109619D02*
X88860285Y-51062000D01*
X88955523Y-51014380D01*
X89193619Y-51014380D01*
X89288857Y-51062000D01*
X89336476Y-51109619D01*
X89384095Y-51204857D01*
X89384095Y-51300095D01*
X89336476Y-51442952D01*
X88765047Y-52014380D01*
X89384095Y-52014380D01*
X90384095Y-52014380D02*
X90050761Y-51538190D01*
X89812666Y-52014380D02*
X89812666Y-51014380D01*
X90193619Y-51014380D01*
X90288857Y-51062000D01*
X90336476Y-51109619D01*
X90384095Y-51204857D01*
X90384095Y-51347714D01*
X90336476Y-51442952D01*
X90288857Y-51490571D01*
X90193619Y-51538190D01*
X89812666Y-51538190D01*
X101100095Y-63460380D02*
X100909619Y-63460380D01*
X100814380Y-63508000D01*
X100766761Y-63555619D01*
X100671523Y-63698476D01*
X100623904Y-63888952D01*
X100623904Y-64269904D01*
X100671523Y-64365142D01*
X100719142Y-64412761D01*
X100814380Y-64460380D01*
X101004857Y-64460380D01*
X101100095Y-64412761D01*
X101147714Y-64365142D01*
X101195333Y-64269904D01*
X101195333Y-64031809D01*
X101147714Y-63936571D01*
X101100095Y-63888952D01*
X101004857Y-63841333D01*
X100814380Y-63841333D01*
X100719142Y-63888952D01*
X100671523Y-63936571D01*
X100623904Y-64031809D01*
X102147714Y-64460380D02*
X101576285Y-64460380D01*
X101862000Y-64460380D02*
X101862000Y-63460380D01*
X101766761Y-63603238D01*
X101671523Y-63698476D01*
X101576285Y-63746095D01*
X103147714Y-64460380D02*
X102814380Y-63984190D01*
X102576285Y-64460380D02*
X102576285Y-63460380D01*
X102957238Y-63460380D01*
X103052476Y-63508000D01*
X103100095Y-63555619D01*
X103147714Y-63650857D01*
X103147714Y-63793714D01*
X103100095Y-63888952D01*
X103052476Y-63936571D01*
X102957238Y-63984190D01*
X102576285Y-63984190D01*
X103623904Y-64460380D02*
X103814380Y-64460380D01*
X103909619Y-64412761D01*
X103957238Y-64365142D01*
X104052476Y-64222285D01*
X104100095Y-64031809D01*
X104100095Y-63650857D01*
X104052476Y-63555619D01*
X104004857Y-63508000D01*
X103909619Y-63460380D01*
X103719142Y-63460380D01*
X103623904Y-63508000D01*
X103576285Y-63555619D01*
X103528666Y-63650857D01*
X103528666Y-63888952D01*
X103576285Y-63984190D01*
X103623904Y-64031809D01*
X103719142Y-64079428D01*
X103909619Y-64079428D01*
X104004857Y-64031809D01*
X104052476Y-63984190D01*
X104100095Y-63888952D01*
X107545333Y-64460380D02*
X106973904Y-64460380D01*
X107259619Y-64460380D02*
X107259619Y-63460380D01*
X107164380Y-63603238D01*
X107069142Y-63698476D01*
X106973904Y-63746095D01*
X107926285Y-63555619D02*
X107973904Y-63508000D01*
X108069142Y-63460380D01*
X108307238Y-63460380D01*
X108402476Y-63508000D01*
X108450095Y-63555619D01*
X108497714Y-63650857D01*
X108497714Y-63746095D01*
X108450095Y-63888952D01*
X107878666Y-64460380D01*
X108497714Y-64460380D01*
X109354857Y-63793714D02*
X109354857Y-64460380D01*
X109116761Y-63412761D02*
X108878666Y-64127047D01*
X109497714Y-64127047D01*
X110450095Y-64460380D02*
X110116761Y-63984190D01*
X109878666Y-64460380D02*
X109878666Y-63460380D01*
X110259619Y-63460380D01*
X110354857Y-63508000D01*
X110402476Y-63555619D01*
X110450095Y-63650857D01*
X110450095Y-63793714D01*
X110402476Y-63888952D01*
X110354857Y-63936571D01*
X110259619Y-63984190D01*
X109878666Y-63984190D01*
X113323904Y-63301619D02*
X113371523Y-63254000D01*
X113466761Y-63206380D01*
X113704857Y-63206380D01*
X113800095Y-63254000D01*
X113847714Y-63301619D01*
X113895333Y-63396857D01*
X113895333Y-63492095D01*
X113847714Y-63634952D01*
X113276285Y-64206380D01*
X113895333Y-64206380D01*
X114752476Y-63539714D02*
X114752476Y-64206380D01*
X114514380Y-63158761D02*
X114276285Y-63873047D01*
X114895333Y-63873047D01*
X115323904Y-64206380D02*
X115514380Y-64206380D01*
X115609619Y-64158761D01*
X115657238Y-64111142D01*
X115752476Y-63968285D01*
X115800095Y-63777809D01*
X115800095Y-63396857D01*
X115752476Y-63301619D01*
X115704857Y-63254000D01*
X115609619Y-63206380D01*
X115419142Y-63206380D01*
X115323904Y-63254000D01*
X115276285Y-63301619D01*
X115228666Y-63396857D01*
X115228666Y-63634952D01*
X115276285Y-63730190D01*
X115323904Y-63777809D01*
X115419142Y-63825428D01*
X115609619Y-63825428D01*
X115704857Y-63777809D01*
X115752476Y-63730190D01*
X115800095Y-63634952D01*
X116800095Y-64206380D02*
X116466761Y-63730190D01*
X116228666Y-64206380D02*
X116228666Y-63206380D01*
X116609619Y-63206380D01*
X116704857Y-63254000D01*
X116752476Y-63301619D01*
X116800095Y-63396857D01*
X116800095Y-63539714D01*
X116752476Y-63634952D01*
X116704857Y-63682571D01*
X116609619Y-63730190D01*
X116228666Y-63730190D01*
X119134095Y-63793714D02*
X119134095Y-64460380D01*
X118896000Y-63412761D02*
X118657904Y-64127047D01*
X119276952Y-64127047D01*
X119705523Y-64460380D02*
X119896000Y-64460380D01*
X119991238Y-64412761D01*
X120038857Y-64365142D01*
X120134095Y-64222285D01*
X120181714Y-64031809D01*
X120181714Y-63650857D01*
X120134095Y-63555619D01*
X120086476Y-63508000D01*
X119991238Y-63460380D01*
X119800761Y-63460380D01*
X119705523Y-63508000D01*
X119657904Y-63555619D01*
X119610285Y-63650857D01*
X119610285Y-63888952D01*
X119657904Y-63984190D01*
X119705523Y-64031809D01*
X119800761Y-64079428D01*
X119991238Y-64079428D01*
X120086476Y-64031809D01*
X120134095Y-63984190D01*
X120181714Y-63888952D01*
X120657904Y-64460380D02*
X120848380Y-64460380D01*
X120943619Y-64412761D01*
X120991238Y-64365142D01*
X121086476Y-64222285D01*
X121134095Y-64031809D01*
X121134095Y-63650857D01*
X121086476Y-63555619D01*
X121038857Y-63508000D01*
X120943619Y-63460380D01*
X120753142Y-63460380D01*
X120657904Y-63508000D01*
X120610285Y-63555619D01*
X120562666Y-63650857D01*
X120562666Y-63888952D01*
X120610285Y-63984190D01*
X120657904Y-64031809D01*
X120753142Y-64079428D01*
X120943619Y-64079428D01*
X121038857Y-64031809D01*
X121086476Y-63984190D01*
X121134095Y-63888952D01*
X122134095Y-64460380D02*
X121800761Y-63984190D01*
X121562666Y-64460380D02*
X121562666Y-63460380D01*
X121943619Y-63460380D01*
X122038857Y-63508000D01*
X122086476Y-63555619D01*
X122134095Y-63650857D01*
X122134095Y-63793714D01*
X122086476Y-63888952D01*
X122038857Y-63936571D01*
X121943619Y-63984190D01*
X121562666Y-63984190D01*
X127452571Y-64206380D02*
X126881142Y-64206380D01*
X127166857Y-64206380D02*
X127166857Y-63206380D01*
X127071619Y-63349238D01*
X126976380Y-63444476D01*
X126881142Y-63492095D01*
X127881142Y-64206380D02*
X127881142Y-63206380D01*
X127976380Y-63825428D02*
X128262095Y-64206380D01*
X128262095Y-63539714D02*
X127881142Y-63920666D01*
X128881142Y-63206380D02*
X128976380Y-63206380D01*
X129071619Y-63254000D01*
X129119238Y-63301619D01*
X129166857Y-63396857D01*
X129214476Y-63587333D01*
X129214476Y-63825428D01*
X129166857Y-64015904D01*
X129119238Y-64111142D01*
X129071619Y-64158761D01*
X128976380Y-64206380D01*
X128881142Y-64206380D01*
X128785904Y-64158761D01*
X128738285Y-64111142D01*
X128690666Y-64015904D01*
X128643047Y-63825428D01*
X128643047Y-63587333D01*
X128690666Y-63396857D01*
X128738285Y-63301619D01*
X128785904Y-63254000D01*
X128881142Y-63206380D01*
X129833523Y-63206380D02*
X129928761Y-63206380D01*
X130024000Y-63254000D01*
X130071619Y-63301619D01*
X130119238Y-63396857D01*
X130166857Y-63587333D01*
X130166857Y-63825428D01*
X130119238Y-64015904D01*
X130071619Y-64111142D01*
X130024000Y-64158761D01*
X129928761Y-64206380D01*
X129833523Y-64206380D01*
X129738285Y-64158761D01*
X129690666Y-64111142D01*
X129643047Y-64015904D01*
X129595428Y-63825428D01*
X129595428Y-63587333D01*
X129643047Y-63396857D01*
X129690666Y-63301619D01*
X129738285Y-63254000D01*
X129833523Y-63206380D01*
X132469142Y-63301619D02*
X132516761Y-63254000D01*
X132612000Y-63206380D01*
X132850095Y-63206380D01*
X132945333Y-63254000D01*
X132992952Y-63301619D01*
X133040571Y-63396857D01*
X133040571Y-63492095D01*
X132992952Y-63634952D01*
X132421523Y-64206380D01*
X133040571Y-64206380D01*
X133469142Y-64206380D02*
X133469142Y-63206380D01*
X133564380Y-63825428D02*
X133850095Y-64206380D01*
X133850095Y-63539714D02*
X133469142Y-63920666D01*
X134469142Y-63206380D02*
X134564380Y-63206380D01*
X134659619Y-63254000D01*
X134707238Y-63301619D01*
X134754857Y-63396857D01*
X134802476Y-63587333D01*
X134802476Y-63825428D01*
X134754857Y-64015904D01*
X134707238Y-64111142D01*
X134659619Y-64158761D01*
X134564380Y-64206380D01*
X134469142Y-64206380D01*
X134373904Y-64158761D01*
X134326285Y-64111142D01*
X134278666Y-64015904D01*
X134231047Y-63825428D01*
X134231047Y-63587333D01*
X134278666Y-63396857D01*
X134326285Y-63301619D01*
X134373904Y-63254000D01*
X134469142Y-63206380D01*
X135421523Y-63206380D02*
X135516761Y-63206380D01*
X135612000Y-63254000D01*
X135659619Y-63301619D01*
X135707238Y-63396857D01*
X135754857Y-63587333D01*
X135754857Y-63825428D01*
X135707238Y-64015904D01*
X135659619Y-64111142D01*
X135612000Y-64158761D01*
X135516761Y-64206380D01*
X135421523Y-64206380D01*
X135326285Y-64158761D01*
X135278666Y-64111142D01*
X135231047Y-64015904D01*
X135183428Y-63825428D01*
X135183428Y-63587333D01*
X135231047Y-63396857D01*
X135278666Y-63301619D01*
X135326285Y-63254000D01*
X135421523Y-63206380D01*
X139295333Y-63539714D02*
X139295333Y-64206380D01*
X139057238Y-63158761D02*
X138819142Y-63873047D01*
X139438190Y-63873047D01*
X139819142Y-64206380D02*
X139819142Y-63206380D01*
X139914380Y-63825428D02*
X140200095Y-64206380D01*
X140200095Y-63539714D02*
X139819142Y-63920666D01*
X140819142Y-63206380D02*
X140914380Y-63206380D01*
X141009619Y-63254000D01*
X141057238Y-63301619D01*
X141104857Y-63396857D01*
X141152476Y-63587333D01*
X141152476Y-63825428D01*
X141104857Y-64015904D01*
X141057238Y-64111142D01*
X141009619Y-64158761D01*
X140914380Y-64206380D01*
X140819142Y-64206380D01*
X140723904Y-64158761D01*
X140676285Y-64111142D01*
X140628666Y-64015904D01*
X140581047Y-63825428D01*
X140581047Y-63587333D01*
X140628666Y-63396857D01*
X140676285Y-63301619D01*
X140723904Y-63254000D01*
X140819142Y-63206380D01*
X141533428Y-63301619D02*
X141581047Y-63254000D01*
X141676285Y-63206380D01*
X141914380Y-63206380D01*
X142009619Y-63254000D01*
X142057238Y-63301619D01*
X142104857Y-63396857D01*
X142104857Y-63492095D01*
X142057238Y-63634952D01*
X141485809Y-64206380D01*
X142104857Y-64206380D01*
X124301714Y-72080380D02*
X124301714Y-71080380D01*
X124635047Y-71794666D01*
X124968380Y-71080380D01*
X124968380Y-72080380D01*
X126016000Y-71985142D02*
X125968380Y-72032761D01*
X125825523Y-72080380D01*
X125730285Y-72080380D01*
X125587428Y-72032761D01*
X125492190Y-71937523D01*
X125444571Y-71842285D01*
X125396952Y-71651809D01*
X125396952Y-71508952D01*
X125444571Y-71318476D01*
X125492190Y-71223238D01*
X125587428Y-71128000D01*
X125730285Y-71080380D01*
X125825523Y-71080380D01*
X125968380Y-71128000D01*
X126016000Y-71175619D01*
X126444571Y-72080380D02*
X126444571Y-71080380D01*
X126825523Y-71080380D01*
X126920761Y-71128000D01*
X126968380Y-71175619D01*
X127016000Y-71270857D01*
X127016000Y-71413714D01*
X126968380Y-71508952D01*
X126920761Y-71556571D01*
X126825523Y-71604190D01*
X126444571Y-71604190D01*
X127396952Y-71175619D02*
X127444571Y-71128000D01*
X127539809Y-71080380D01*
X127777904Y-71080380D01*
X127873142Y-71128000D01*
X127920761Y-71175619D01*
X127968380Y-71270857D01*
X127968380Y-71366095D01*
X127920761Y-71508952D01*
X127349333Y-72080380D01*
X127968380Y-72080380D01*
X128301714Y-71080380D02*
X128920761Y-71080380D01*
X128587428Y-71461333D01*
X128730285Y-71461333D01*
X128825523Y-71508952D01*
X128873142Y-71556571D01*
X128920761Y-71651809D01*
X128920761Y-71889904D01*
X128873142Y-71985142D01*
X128825523Y-72032761D01*
X128730285Y-72080380D01*
X128444571Y-72080380D01*
X128349333Y-72032761D01*
X128301714Y-71985142D01*
X129301714Y-72032761D02*
X129444571Y-72080380D01*
X129682666Y-72080380D01*
X129777904Y-72032761D01*
X129825523Y-71985142D01*
X129873142Y-71889904D01*
X129873142Y-71794666D01*
X129825523Y-71699428D01*
X129777904Y-71651809D01*
X129682666Y-71604190D01*
X129492190Y-71556571D01*
X129396952Y-71508952D01*
X129349333Y-71461333D01*
X129301714Y-71366095D01*
X129301714Y-71270857D01*
X129349333Y-71175619D01*
X129396952Y-71128000D01*
X129492190Y-71080380D01*
X129730285Y-71080380D01*
X129873142Y-71128000D01*
X130492190Y-71080380D02*
X130587428Y-71080380D01*
X130682666Y-71128000D01*
X130730285Y-71175619D01*
X130777904Y-71270857D01*
X130825523Y-71461333D01*
X130825523Y-71699428D01*
X130777904Y-71889904D01*
X130730285Y-71985142D01*
X130682666Y-72032761D01*
X130587428Y-72080380D01*
X130492190Y-72080380D01*
X130396952Y-72032761D01*
X130349333Y-71985142D01*
X130301714Y-71889904D01*
X130254095Y-71699428D01*
X130254095Y-71461333D01*
X130301714Y-71270857D01*
X130349333Y-71175619D01*
X130396952Y-71128000D01*
X130492190Y-71080380D01*
X131396952Y-71508952D02*
X131301714Y-71461333D01*
X131254095Y-71413714D01*
X131206476Y-71318476D01*
X131206476Y-71270857D01*
X131254095Y-71175619D01*
X131301714Y-71128000D01*
X131396952Y-71080380D01*
X131587428Y-71080380D01*
X131682666Y-71128000D01*
X131730285Y-71175619D01*
X131777904Y-71270857D01*
X131777904Y-71318476D01*
X131730285Y-71413714D01*
X131682666Y-71461333D01*
X131587428Y-71508952D01*
X131396952Y-71508952D01*
X131301714Y-71556571D01*
X131254095Y-71604190D01*
X131206476Y-71699428D01*
X131206476Y-71889904D01*
X131254095Y-71985142D01*
X131301714Y-72032761D01*
X131396952Y-72080380D01*
X131587428Y-72080380D01*
X131682666Y-72032761D01*
X131730285Y-71985142D01*
X131777904Y-71889904D01*
X131777904Y-71699428D01*
X131730285Y-71604190D01*
X131682666Y-71556571D01*
X131587428Y-71508952D01*
X115530380Y-74747047D02*
X116339904Y-74747047D01*
X116435142Y-74699428D01*
X116482761Y-74651809D01*
X116530380Y-74556571D01*
X116530380Y-74366095D01*
X116482761Y-74270857D01*
X116435142Y-74223238D01*
X116339904Y-74175619D01*
X115530380Y-74175619D01*
X116530380Y-73223238D02*
X116530380Y-73699428D01*
X115530380Y-73699428D01*
X116530380Y-72889904D02*
X115530380Y-72889904D01*
X116530380Y-72318476D01*
X115530380Y-72318476D01*
X115625619Y-71889904D02*
X115578000Y-71842285D01*
X115530380Y-71747047D01*
X115530380Y-71508952D01*
X115578000Y-71413714D01*
X115625619Y-71366095D01*
X115720857Y-71318476D01*
X115816095Y-71318476D01*
X115958952Y-71366095D01*
X116530380Y-71937523D01*
X116530380Y-71318476D01*
X115530380Y-70699428D02*
X115530380Y-70604190D01*
X115578000Y-70508952D01*
X115625619Y-70461333D01*
X115720857Y-70413714D01*
X115911333Y-70366095D01*
X116149428Y-70366095D01*
X116339904Y-70413714D01*
X116435142Y-70461333D01*
X116482761Y-70508952D01*
X116530380Y-70604190D01*
X116530380Y-70699428D01*
X116482761Y-70794666D01*
X116435142Y-70842285D01*
X116339904Y-70889904D01*
X116149428Y-70937523D01*
X115911333Y-70937523D01*
X115720857Y-70889904D01*
X115625619Y-70842285D01*
X115578000Y-70794666D01*
X115530380Y-70699428D01*
X115530380Y-69747047D02*
X115530380Y-69651809D01*
X115578000Y-69556571D01*
X115625619Y-69508952D01*
X115720857Y-69461333D01*
X115911333Y-69413714D01*
X116149428Y-69413714D01*
X116339904Y-69461333D01*
X116435142Y-69508952D01*
X116482761Y-69556571D01*
X116530380Y-69651809D01*
X116530380Y-69747047D01*
X116482761Y-69842285D01*
X116435142Y-69889904D01*
X116339904Y-69937523D01*
X116149428Y-69985142D01*
X115911333Y-69985142D01*
X115720857Y-69937523D01*
X115625619Y-69889904D01*
X115578000Y-69842285D01*
X115530380Y-69747047D01*
X115530380Y-69080380D02*
X115530380Y-68461333D01*
X115911333Y-68794666D01*
X115911333Y-68651809D01*
X115958952Y-68556571D01*
X116006571Y-68508952D01*
X116101809Y-68461333D01*
X116339904Y-68461333D01*
X116435142Y-68508952D01*
X116482761Y-68556571D01*
X116530380Y-68651809D01*
X116530380Y-68937523D01*
X116482761Y-69032761D01*
X116435142Y-69080380D01*
D11*
X119380000Y-77470000D02*
G75*
G03X119380000Y-77470000I-254000J0D01*
G01*
X122174000Y-77978000D02*
G75*
G03X122174000Y-77978000I-254000J0D01*
G01*
D12*
G36*
X138279910Y-65822348D02*
G01*
X138358454Y-65822778D01*
X138415298Y-65823942D01*
X138454105Y-65826207D01*
X138478538Y-65829940D01*
X138492262Y-65835506D01*
X138498940Y-65843273D01*
X138502236Y-65853605D01*
X138502556Y-65854943D01*
X138507562Y-65879079D01*
X138516829Y-65926701D01*
X138529392Y-65992741D01*
X138544287Y-66072128D01*
X138560551Y-66159796D01*
X138561119Y-66162875D01*
X138577410Y-66248789D01*
X138592652Y-66324696D01*
X138605861Y-66386045D01*
X138616054Y-66428282D01*
X138622248Y-66446855D01*
X138622543Y-66447184D01*
X138640788Y-66456253D01*
X138678405Y-66471367D01*
X138727271Y-66489262D01*
X138727543Y-66489358D01*
X138789093Y-66512493D01*
X138861657Y-66541965D01*
X138930057Y-66571597D01*
X138933294Y-66573062D01*
X139044702Y-66623626D01*
X139291399Y-66455160D01*
X139367077Y-66403803D01*
X139435631Y-66357889D01*
X139493088Y-66320030D01*
X139535476Y-66292837D01*
X139558825Y-66278921D01*
X139561042Y-66277889D01*
X139578010Y-66282484D01*
X139609701Y-66304655D01*
X139657352Y-66345447D01*
X139722198Y-66405905D01*
X139788397Y-66470227D01*
X139852214Y-66533612D01*
X139909329Y-66591451D01*
X139956305Y-66640175D01*
X139989703Y-66676210D01*
X140006085Y-66695984D01*
X140006694Y-66697002D01*
X140008505Y-66710572D01*
X140001683Y-66732733D01*
X139984540Y-66766478D01*
X139955393Y-66814800D01*
X139912555Y-66880692D01*
X139855448Y-66965517D01*
X139804766Y-67040177D01*
X139759461Y-67107140D01*
X139722150Y-67162516D01*
X139695452Y-67202420D01*
X139681985Y-67222962D01*
X139681137Y-67224356D01*
X139682781Y-67244038D01*
X139695245Y-67282293D01*
X139716048Y-67331889D01*
X139723462Y-67347728D01*
X139755814Y-67418290D01*
X139790328Y-67498353D01*
X139818365Y-67567629D01*
X139838568Y-67619045D01*
X139854615Y-67658119D01*
X139863888Y-67678541D01*
X139865041Y-67680114D01*
X139882096Y-67682721D01*
X139922298Y-67689863D01*
X139980302Y-67700523D01*
X140050763Y-67713685D01*
X140128335Y-67728333D01*
X140207672Y-67743449D01*
X140283431Y-67758018D01*
X140350264Y-67771022D01*
X140402828Y-67781445D01*
X140435776Y-67788270D01*
X140443857Y-67790199D01*
X140452205Y-67794962D01*
X140458506Y-67805718D01*
X140463045Y-67826098D01*
X140466104Y-67859734D01*
X140467967Y-67910255D01*
X140468918Y-67981292D01*
X140469240Y-68076476D01*
X140469257Y-68115492D01*
X140469257Y-68432799D01*
X140393057Y-68447839D01*
X140350663Y-68455995D01*
X140287400Y-68467899D01*
X140210962Y-68482116D01*
X140129043Y-68497210D01*
X140106400Y-68501355D01*
X140030806Y-68516053D01*
X139964953Y-68530505D01*
X139914366Y-68543375D01*
X139884574Y-68553322D01*
X139879612Y-68556287D01*
X139867426Y-68577283D01*
X139849953Y-68617967D01*
X139830577Y-68670322D01*
X139826734Y-68681600D01*
X139801339Y-68751523D01*
X139769817Y-68830418D01*
X139738969Y-68901266D01*
X139738817Y-68901595D01*
X139687447Y-69012733D01*
X139856399Y-69261253D01*
X140025352Y-69509772D01*
X139808429Y-69727058D01*
X139742819Y-69791726D01*
X139682979Y-69848733D01*
X139632267Y-69895033D01*
X139594046Y-69927584D01*
X139571675Y-69943343D01*
X139568466Y-69944343D01*
X139549626Y-69936469D01*
X139511180Y-69914578D01*
X139457330Y-69881267D01*
X139392276Y-69839131D01*
X139321940Y-69791943D01*
X139250555Y-69743810D01*
X139186908Y-69701928D01*
X139135041Y-69668871D01*
X139098995Y-69647218D01*
X139082867Y-69639543D01*
X139063189Y-69646037D01*
X139025875Y-69663150D01*
X138978621Y-69687326D01*
X138973612Y-69690013D01*
X138909977Y-69721927D01*
X138866341Y-69737579D01*
X138839202Y-69737745D01*
X138825057Y-69723204D01*
X138824975Y-69723000D01*
X138817905Y-69705779D01*
X138801042Y-69664899D01*
X138775695Y-69603525D01*
X138743171Y-69524819D01*
X138704778Y-69431947D01*
X138661822Y-69328072D01*
X138620222Y-69227502D01*
X138574504Y-69116516D01*
X138532526Y-69013703D01*
X138495548Y-68922215D01*
X138464827Y-68845201D01*
X138441622Y-68785815D01*
X138427190Y-68747209D01*
X138422743Y-68732800D01*
X138433896Y-68716272D01*
X138463069Y-68689930D01*
X138501971Y-68660887D01*
X138612757Y-68569039D01*
X138699351Y-68463759D01*
X138760716Y-68347266D01*
X138795815Y-68221776D01*
X138803608Y-68089507D01*
X138797943Y-68028457D01*
X138767078Y-67901795D01*
X138713920Y-67789941D01*
X138641767Y-67694001D01*
X138553917Y-67615076D01*
X138453665Y-67554270D01*
X138344310Y-67512687D01*
X138229147Y-67491428D01*
X138111475Y-67491599D01*
X137994590Y-67514301D01*
X137881789Y-67560638D01*
X137776369Y-67631713D01*
X137732368Y-67671911D01*
X137647979Y-67775129D01*
X137589222Y-67887925D01*
X137555704Y-68007010D01*
X137547035Y-68129095D01*
X137562823Y-68250893D01*
X137602678Y-68369116D01*
X137666207Y-68480475D01*
X137753021Y-68581684D01*
X137850029Y-68660887D01*
X137890437Y-68691162D01*
X137918982Y-68717219D01*
X137929257Y-68732825D01*
X137923877Y-68749843D01*
X137908575Y-68790500D01*
X137884612Y-68851642D01*
X137853244Y-68930119D01*
X137815732Y-69022780D01*
X137773333Y-69126472D01*
X137731663Y-69227526D01*
X137685690Y-69338607D01*
X137643107Y-69441541D01*
X137605221Y-69533165D01*
X137573340Y-69610316D01*
X137548771Y-69669831D01*
X137532820Y-69708544D01*
X137526910Y-69723000D01*
X137512948Y-69737685D01*
X137485940Y-69737642D01*
X137442413Y-69722099D01*
X137378890Y-69690284D01*
X137378388Y-69690013D01*
X137330560Y-69665323D01*
X137291897Y-69647338D01*
X137270095Y-69639614D01*
X137269133Y-69639543D01*
X137252721Y-69647378D01*
X137216487Y-69669165D01*
X137164474Y-69702328D01*
X137100725Y-69744291D01*
X137030060Y-69791943D01*
X136958116Y-69840191D01*
X136893274Y-69882151D01*
X136839735Y-69915227D01*
X136801697Y-69936821D01*
X136783533Y-69944343D01*
X136766808Y-69934457D01*
X136733180Y-69906826D01*
X136686010Y-69864495D01*
X136628658Y-69810505D01*
X136564484Y-69747899D01*
X136543497Y-69726983D01*
X136326499Y-69509623D01*
X136491668Y-69267220D01*
X136541864Y-69192781D01*
X136585919Y-69125972D01*
X136621362Y-69070665D01*
X136645719Y-69030729D01*
X136656522Y-69010036D01*
X136656838Y-69008563D01*
X136651143Y-68989058D01*
X136635826Y-68949822D01*
X136613537Y-68897430D01*
X136597893Y-68862355D01*
X136568641Y-68795201D01*
X136541094Y-68727358D01*
X136519737Y-68670034D01*
X136513935Y-68652572D01*
X136497452Y-68605938D01*
X136481340Y-68569905D01*
X136472490Y-68556287D01*
X136452960Y-68547952D01*
X136410334Y-68536137D01*
X136350145Y-68522181D01*
X136277922Y-68507422D01*
X136245600Y-68501355D01*
X136163522Y-68486273D01*
X136084795Y-68471669D01*
X136017109Y-68458980D01*
X135968160Y-68449642D01*
X135958943Y-68447839D01*
X135882743Y-68432799D01*
X135882743Y-68115492D01*
X135882914Y-68011154D01*
X135883616Y-67932213D01*
X135885134Y-67875038D01*
X135887749Y-67835999D01*
X135891746Y-67811465D01*
X135897409Y-67797805D01*
X135905020Y-67791389D01*
X135908143Y-67790199D01*
X135926978Y-67785980D01*
X135968588Y-67777562D01*
X136027630Y-67765961D01*
X136098757Y-67752195D01*
X136176625Y-67737280D01*
X136255887Y-67722232D01*
X136331198Y-67708069D01*
X136397213Y-67695806D01*
X136448587Y-67686461D01*
X136479975Y-67681050D01*
X136486959Y-67680114D01*
X136493285Y-67667596D01*
X136507290Y-67634246D01*
X136526355Y-67586377D01*
X136533634Y-67567629D01*
X136562996Y-67495195D01*
X136597571Y-67415170D01*
X136628537Y-67347728D01*
X136651323Y-67296159D01*
X136666482Y-67253785D01*
X136671542Y-67227834D01*
X136670736Y-67224356D01*
X136660041Y-67207936D01*
X136635620Y-67171417D01*
X136600095Y-67118687D01*
X136556087Y-67053635D01*
X136506217Y-66980151D01*
X136496356Y-66965645D01*
X136438492Y-66879704D01*
X136395956Y-66814261D01*
X136367054Y-66766304D01*
X136350090Y-66732820D01*
X136343367Y-66710795D01*
X136345190Y-66697217D01*
X136345236Y-66697131D01*
X136359586Y-66679297D01*
X136391323Y-66644817D01*
X136437010Y-66597268D01*
X136493204Y-66540222D01*
X136556468Y-66477255D01*
X136563602Y-66470227D01*
X136643330Y-66393020D01*
X136704857Y-66336330D01*
X136749421Y-66299110D01*
X136778257Y-66280315D01*
X136790958Y-66277889D01*
X136809494Y-66288471D01*
X136847961Y-66312916D01*
X136902386Y-66348612D01*
X136968798Y-66392947D01*
X137043225Y-66443311D01*
X137060601Y-66455160D01*
X137307297Y-66623626D01*
X137418706Y-66573062D01*
X137486457Y-66543595D01*
X137559183Y-66513959D01*
X137621703Y-66490330D01*
X137624457Y-66489358D01*
X137673360Y-66471457D01*
X137711057Y-66456320D01*
X137729425Y-66447210D01*
X137729456Y-66447184D01*
X137735285Y-66430717D01*
X137745192Y-66390219D01*
X137758195Y-66330242D01*
X137773309Y-66255340D01*
X137789552Y-66170064D01*
X137790881Y-66162875D01*
X137807175Y-66075014D01*
X137822133Y-65995260D01*
X137834791Y-65928681D01*
X137844186Y-65880347D01*
X137849354Y-65855325D01*
X137849444Y-65854943D01*
X137852589Y-65844299D01*
X137858704Y-65836262D01*
X137871453Y-65830467D01*
X137894500Y-65826547D01*
X137931509Y-65824135D01*
X137986144Y-65822865D01*
X138062067Y-65822371D01*
X138162944Y-65822286D01*
X138176000Y-65822286D01*
X138279910Y-65822348D01*
G37*
X138279910Y-65822348D02*
X138358454Y-65822778D01*
X138415298Y-65823942D01*
X138454105Y-65826207D01*
X138478538Y-65829940D01*
X138492262Y-65835506D01*
X138498940Y-65843273D01*
X138502236Y-65853605D01*
X138502556Y-65854943D01*
X138507562Y-65879079D01*
X138516829Y-65926701D01*
X138529392Y-65992741D01*
X138544287Y-66072128D01*
X138560551Y-66159796D01*
X138561119Y-66162875D01*
X138577410Y-66248789D01*
X138592652Y-66324696D01*
X138605861Y-66386045D01*
X138616054Y-66428282D01*
X138622248Y-66446855D01*
X138622543Y-66447184D01*
X138640788Y-66456253D01*
X138678405Y-66471367D01*
X138727271Y-66489262D01*
X138727543Y-66489358D01*
X138789093Y-66512493D01*
X138861657Y-66541965D01*
X138930057Y-66571597D01*
X138933294Y-66573062D01*
X139044702Y-66623626D01*
X139291399Y-66455160D01*
X139367077Y-66403803D01*
X139435631Y-66357889D01*
X139493088Y-66320030D01*
X139535476Y-66292837D01*
X139558825Y-66278921D01*
X139561042Y-66277889D01*
X139578010Y-66282484D01*
X139609701Y-66304655D01*
X139657352Y-66345447D01*
X139722198Y-66405905D01*
X139788397Y-66470227D01*
X139852214Y-66533612D01*
X139909329Y-66591451D01*
X139956305Y-66640175D01*
X139989703Y-66676210D01*
X140006085Y-66695984D01*
X140006694Y-66697002D01*
X140008505Y-66710572D01*
X140001683Y-66732733D01*
X139984540Y-66766478D01*
X139955393Y-66814800D01*
X139912555Y-66880692D01*
X139855448Y-66965517D01*
X139804766Y-67040177D01*
X139759461Y-67107140D01*
X139722150Y-67162516D01*
X139695452Y-67202420D01*
X139681985Y-67222962D01*
X139681137Y-67224356D01*
X139682781Y-67244038D01*
X139695245Y-67282293D01*
X139716048Y-67331889D01*
X139723462Y-67347728D01*
X139755814Y-67418290D01*
X139790328Y-67498353D01*
X139818365Y-67567629D01*
X139838568Y-67619045D01*
X139854615Y-67658119D01*
X139863888Y-67678541D01*
X139865041Y-67680114D01*
X139882096Y-67682721D01*
X139922298Y-67689863D01*
X139980302Y-67700523D01*
X140050763Y-67713685D01*
X140128335Y-67728333D01*
X140207672Y-67743449D01*
X140283431Y-67758018D01*
X140350264Y-67771022D01*
X140402828Y-67781445D01*
X140435776Y-67788270D01*
X140443857Y-67790199D01*
X140452205Y-67794962D01*
X140458506Y-67805718D01*
X140463045Y-67826098D01*
X140466104Y-67859734D01*
X140467967Y-67910255D01*
X140468918Y-67981292D01*
X140469240Y-68076476D01*
X140469257Y-68115492D01*
X140469257Y-68432799D01*
X140393057Y-68447839D01*
X140350663Y-68455995D01*
X140287400Y-68467899D01*
X140210962Y-68482116D01*
X140129043Y-68497210D01*
X140106400Y-68501355D01*
X140030806Y-68516053D01*
X139964953Y-68530505D01*
X139914366Y-68543375D01*
X139884574Y-68553322D01*
X139879612Y-68556287D01*
X139867426Y-68577283D01*
X139849953Y-68617967D01*
X139830577Y-68670322D01*
X139826734Y-68681600D01*
X139801339Y-68751523D01*
X139769817Y-68830418D01*
X139738969Y-68901266D01*
X139738817Y-68901595D01*
X139687447Y-69012733D01*
X139856399Y-69261253D01*
X140025352Y-69509772D01*
X139808429Y-69727058D01*
X139742819Y-69791726D01*
X139682979Y-69848733D01*
X139632267Y-69895033D01*
X139594046Y-69927584D01*
X139571675Y-69943343D01*
X139568466Y-69944343D01*
X139549626Y-69936469D01*
X139511180Y-69914578D01*
X139457330Y-69881267D01*
X139392276Y-69839131D01*
X139321940Y-69791943D01*
X139250555Y-69743810D01*
X139186908Y-69701928D01*
X139135041Y-69668871D01*
X139098995Y-69647218D01*
X139082867Y-69639543D01*
X139063189Y-69646037D01*
X139025875Y-69663150D01*
X138978621Y-69687326D01*
X138973612Y-69690013D01*
X138909977Y-69721927D01*
X138866341Y-69737579D01*
X138839202Y-69737745D01*
X138825057Y-69723204D01*
X138824975Y-69723000D01*
X138817905Y-69705779D01*
X138801042Y-69664899D01*
X138775695Y-69603525D01*
X138743171Y-69524819D01*
X138704778Y-69431947D01*
X138661822Y-69328072D01*
X138620222Y-69227502D01*
X138574504Y-69116516D01*
X138532526Y-69013703D01*
X138495548Y-68922215D01*
X138464827Y-68845201D01*
X138441622Y-68785815D01*
X138427190Y-68747209D01*
X138422743Y-68732800D01*
X138433896Y-68716272D01*
X138463069Y-68689930D01*
X138501971Y-68660887D01*
X138612757Y-68569039D01*
X138699351Y-68463759D01*
X138760716Y-68347266D01*
X138795815Y-68221776D01*
X138803608Y-68089507D01*
X138797943Y-68028457D01*
X138767078Y-67901795D01*
X138713920Y-67789941D01*
X138641767Y-67694001D01*
X138553917Y-67615076D01*
X138453665Y-67554270D01*
X138344310Y-67512687D01*
X138229147Y-67491428D01*
X138111475Y-67491599D01*
X137994590Y-67514301D01*
X137881789Y-67560638D01*
X137776369Y-67631713D01*
X137732368Y-67671911D01*
X137647979Y-67775129D01*
X137589222Y-67887925D01*
X137555704Y-68007010D01*
X137547035Y-68129095D01*
X137562823Y-68250893D01*
X137602678Y-68369116D01*
X137666207Y-68480475D01*
X137753021Y-68581684D01*
X137850029Y-68660887D01*
X137890437Y-68691162D01*
X137918982Y-68717219D01*
X137929257Y-68732825D01*
X137923877Y-68749843D01*
X137908575Y-68790500D01*
X137884612Y-68851642D01*
X137853244Y-68930119D01*
X137815732Y-69022780D01*
X137773333Y-69126472D01*
X137731663Y-69227526D01*
X137685690Y-69338607D01*
X137643107Y-69441541D01*
X137605221Y-69533165D01*
X137573340Y-69610316D01*
X137548771Y-69669831D01*
X137532820Y-69708544D01*
X137526910Y-69723000D01*
X137512948Y-69737685D01*
X137485940Y-69737642D01*
X137442413Y-69722099D01*
X137378890Y-69690284D01*
X137378388Y-69690013D01*
X137330560Y-69665323D01*
X137291897Y-69647338D01*
X137270095Y-69639614D01*
X137269133Y-69639543D01*
X137252721Y-69647378D01*
X137216487Y-69669165D01*
X137164474Y-69702328D01*
X137100725Y-69744291D01*
X137030060Y-69791943D01*
X136958116Y-69840191D01*
X136893274Y-69882151D01*
X136839735Y-69915227D01*
X136801697Y-69936821D01*
X136783533Y-69944343D01*
X136766808Y-69934457D01*
X136733180Y-69906826D01*
X136686010Y-69864495D01*
X136628658Y-69810505D01*
X136564484Y-69747899D01*
X136543497Y-69726983D01*
X136326499Y-69509623D01*
X136491668Y-69267220D01*
X136541864Y-69192781D01*
X136585919Y-69125972D01*
X136621362Y-69070665D01*
X136645719Y-69030729D01*
X136656522Y-69010036D01*
X136656838Y-69008563D01*
X136651143Y-68989058D01*
X136635826Y-68949822D01*
X136613537Y-68897430D01*
X136597893Y-68862355D01*
X136568641Y-68795201D01*
X136541094Y-68727358D01*
X136519737Y-68670034D01*
X136513935Y-68652572D01*
X136497452Y-68605938D01*
X136481340Y-68569905D01*
X136472490Y-68556287D01*
X136452960Y-68547952D01*
X136410334Y-68536137D01*
X136350145Y-68522181D01*
X136277922Y-68507422D01*
X136245600Y-68501355D01*
X136163522Y-68486273D01*
X136084795Y-68471669D01*
X136017109Y-68458980D01*
X135968160Y-68449642D01*
X135958943Y-68447839D01*
X135882743Y-68432799D01*
X135882743Y-68115492D01*
X135882914Y-68011154D01*
X135883616Y-67932213D01*
X135885134Y-67875038D01*
X135887749Y-67835999D01*
X135891746Y-67811465D01*
X135897409Y-67797805D01*
X135905020Y-67791389D01*
X135908143Y-67790199D01*
X135926978Y-67785980D01*
X135968588Y-67777562D01*
X136027630Y-67765961D01*
X136098757Y-67752195D01*
X136176625Y-67737280D01*
X136255887Y-67722232D01*
X136331198Y-67708069D01*
X136397213Y-67695806D01*
X136448587Y-67686461D01*
X136479975Y-67681050D01*
X136486959Y-67680114D01*
X136493285Y-67667596D01*
X136507290Y-67634246D01*
X136526355Y-67586377D01*
X136533634Y-67567629D01*
X136562996Y-67495195D01*
X136597571Y-67415170D01*
X136628537Y-67347728D01*
X136651323Y-67296159D01*
X136666482Y-67253785D01*
X136671542Y-67227834D01*
X136670736Y-67224356D01*
X136660041Y-67207936D01*
X136635620Y-67171417D01*
X136600095Y-67118687D01*
X136556087Y-67053635D01*
X136506217Y-66980151D01*
X136496356Y-66965645D01*
X136438492Y-66879704D01*
X136395956Y-66814261D01*
X136367054Y-66766304D01*
X136350090Y-66732820D01*
X136343367Y-66710795D01*
X136345190Y-66697217D01*
X136345236Y-66697131D01*
X136359586Y-66679297D01*
X136391323Y-66644817D01*
X136437010Y-66597268D01*
X136493204Y-66540222D01*
X136556468Y-66477255D01*
X136563602Y-66470227D01*
X136643330Y-66393020D01*
X136704857Y-66336330D01*
X136749421Y-66299110D01*
X136778257Y-66280315D01*
X136790958Y-66277889D01*
X136809494Y-66288471D01*
X136847961Y-66312916D01*
X136902386Y-66348612D01*
X136968798Y-66392947D01*
X137043225Y-66443311D01*
X137060601Y-66455160D01*
X137307297Y-66623626D01*
X137418706Y-66573062D01*
X137486457Y-66543595D01*
X137559183Y-66513959D01*
X137621703Y-66490330D01*
X137624457Y-66489358D01*
X137673360Y-66471457D01*
X137711057Y-66456320D01*
X137729425Y-66447210D01*
X137729456Y-66447184D01*
X137735285Y-66430717D01*
X137745192Y-66390219D01*
X137758195Y-66330242D01*
X137773309Y-66255340D01*
X137789552Y-66170064D01*
X137790881Y-66162875D01*
X137807175Y-66075014D01*
X137822133Y-65995260D01*
X137834791Y-65928681D01*
X137844186Y-65880347D01*
X137849354Y-65855325D01*
X137849444Y-65854943D01*
X137852589Y-65844299D01*
X137858704Y-65836262D01*
X137871453Y-65830467D01*
X137894500Y-65826547D01*
X137931509Y-65824135D01*
X137986144Y-65822865D01*
X138062067Y-65822371D01*
X138162944Y-65822286D01*
X138176000Y-65822286D01*
X138279910Y-65822348D01*
G36*
X141329595Y-70546966D02*
G01*
X141387021Y-70584497D01*
X141414719Y-70618096D01*
X141436662Y-70679064D01*
X141438405Y-70727308D01*
X141434457Y-70791816D01*
X141285686Y-70856934D01*
X141213349Y-70890202D01*
X141166084Y-70916964D01*
X141141507Y-70940144D01*
X141137237Y-70962667D01*
X141150889Y-70987455D01*
X141165943Y-71003886D01*
X141209746Y-71030235D01*
X141257389Y-71032081D01*
X141301145Y-71011546D01*
X141333289Y-70970752D01*
X141339038Y-70956347D01*
X141366576Y-70911356D01*
X141398258Y-70892182D01*
X141441714Y-70875779D01*
X141441714Y-70937966D01*
X141437872Y-70980283D01*
X141422823Y-71015969D01*
X141391280Y-71056943D01*
X141386592Y-71062267D01*
X141351506Y-71098720D01*
X141321347Y-71118283D01*
X141283615Y-71127283D01*
X141252335Y-71130230D01*
X141196385Y-71130965D01*
X141156555Y-71121660D01*
X141131708Y-71107846D01*
X141092656Y-71077467D01*
X141065625Y-71044613D01*
X141048517Y-71003294D01*
X141039238Y-70947521D01*
X141035693Y-70871305D01*
X141035410Y-70832622D01*
X141036372Y-70786247D01*
X141124007Y-70786247D01*
X141125023Y-70811126D01*
X141127556Y-70815200D01*
X141144274Y-70809665D01*
X141180249Y-70795017D01*
X141228331Y-70774190D01*
X141238386Y-70769714D01*
X141299152Y-70738814D01*
X141332632Y-70711657D01*
X141339990Y-70686220D01*
X141322391Y-70660481D01*
X141307856Y-70649109D01*
X141255410Y-70626364D01*
X141206322Y-70630122D01*
X141165227Y-70657884D01*
X141136758Y-70707152D01*
X141127631Y-70746257D01*
X141124007Y-70786247D01*
X141036372Y-70786247D01*
X141037285Y-70742249D01*
X141044196Y-70675384D01*
X141057884Y-70626695D01*
X141080096Y-70590849D01*
X141112574Y-70562513D01*
X141126733Y-70553355D01*
X141191053Y-70529507D01*
X141261473Y-70528006D01*
X141329595Y-70546966D01*
G37*
X141329595Y-70546966D02*
X141387021Y-70584497D01*
X141414719Y-70618096D01*
X141436662Y-70679064D01*
X141438405Y-70727308D01*
X141434457Y-70791816D01*
X141285686Y-70856934D01*
X141213349Y-70890202D01*
X141166084Y-70916964D01*
X141141507Y-70940144D01*
X141137237Y-70962667D01*
X141150889Y-70987455D01*
X141165943Y-71003886D01*
X141209746Y-71030235D01*
X141257389Y-71032081D01*
X141301145Y-71011546D01*
X141333289Y-70970752D01*
X141339038Y-70956347D01*
X141366576Y-70911356D01*
X141398258Y-70892182D01*
X141441714Y-70875779D01*
X141441714Y-70937966D01*
X141437872Y-70980283D01*
X141422823Y-71015969D01*
X141391280Y-71056943D01*
X141386592Y-71062267D01*
X141351506Y-71098720D01*
X141321347Y-71118283D01*
X141283615Y-71127283D01*
X141252335Y-71130230D01*
X141196385Y-71130965D01*
X141156555Y-71121660D01*
X141131708Y-71107846D01*
X141092656Y-71077467D01*
X141065625Y-71044613D01*
X141048517Y-71003294D01*
X141039238Y-70947521D01*
X141035693Y-70871305D01*
X141035410Y-70832622D01*
X141036372Y-70786247D01*
X141124007Y-70786247D01*
X141125023Y-70811126D01*
X141127556Y-70815200D01*
X141144274Y-70809665D01*
X141180249Y-70795017D01*
X141228331Y-70774190D01*
X141238386Y-70769714D01*
X141299152Y-70738814D01*
X141332632Y-70711657D01*
X141339990Y-70686220D01*
X141322391Y-70660481D01*
X141307856Y-70649109D01*
X141255410Y-70626364D01*
X141206322Y-70630122D01*
X141165227Y-70657884D01*
X141136758Y-70707152D01*
X141127631Y-70746257D01*
X141124007Y-70786247D01*
X141036372Y-70786247D01*
X141037285Y-70742249D01*
X141044196Y-70675384D01*
X141057884Y-70626695D01*
X141080096Y-70590849D01*
X141112574Y-70562513D01*
X141126733Y-70553355D01*
X141191053Y-70529507D01*
X141261473Y-70528006D01*
X141329595Y-70546966D01*
G36*
X140828600Y-70538752D02*
G01*
X140845948Y-70546334D01*
X140887356Y-70579128D01*
X140922765Y-70626547D01*
X140944664Y-70677151D01*
X140948229Y-70702098D01*
X140936279Y-70736927D01*
X140910067Y-70755357D01*
X140881964Y-70766516D01*
X140869095Y-70768572D01*
X140862829Y-70753649D01*
X140850456Y-70721175D01*
X140845028Y-70706502D01*
X140814590Y-70655744D01*
X140770520Y-70630427D01*
X140714010Y-70631206D01*
X140709825Y-70632203D01*
X140679655Y-70646507D01*
X140657476Y-70674393D01*
X140642327Y-70719287D01*
X140633250Y-70784615D01*
X140629286Y-70873804D01*
X140628914Y-70921261D01*
X140628730Y-70996071D01*
X140627522Y-71047069D01*
X140624309Y-71079471D01*
X140618109Y-71098495D01*
X140607940Y-71109356D01*
X140592819Y-71117272D01*
X140591946Y-71117670D01*
X140562828Y-71129981D01*
X140548403Y-71134514D01*
X140546186Y-71120809D01*
X140544289Y-71082925D01*
X140542847Y-71025715D01*
X140541998Y-70954027D01*
X140541829Y-70901565D01*
X140542692Y-70800047D01*
X140546070Y-70723032D01*
X140553142Y-70666023D01*
X140565088Y-70624526D01*
X140583090Y-70594043D01*
X140608327Y-70570080D01*
X140633247Y-70553355D01*
X140693171Y-70531097D01*
X140762911Y-70526076D01*
X140828600Y-70538752D01*
G37*
X140828600Y-70538752D02*
X140845948Y-70546334D01*
X140887356Y-70579128D01*
X140922765Y-70626547D01*
X140944664Y-70677151D01*
X140948229Y-70702098D01*
X140936279Y-70736927D01*
X140910067Y-70755357D01*
X140881964Y-70766516D01*
X140869095Y-70768572D01*
X140862829Y-70753649D01*
X140850456Y-70721175D01*
X140845028Y-70706502D01*
X140814590Y-70655744D01*
X140770520Y-70630427D01*
X140714010Y-70631206D01*
X140709825Y-70632203D01*
X140679655Y-70646507D01*
X140657476Y-70674393D01*
X140642327Y-70719287D01*
X140633250Y-70784615D01*
X140629286Y-70873804D01*
X140628914Y-70921261D01*
X140628730Y-70996071D01*
X140627522Y-71047069D01*
X140624309Y-71079471D01*
X140618109Y-71098495D01*
X140607940Y-71109356D01*
X140592819Y-71117272D01*
X140591946Y-71117670D01*
X140562828Y-71129981D01*
X140548403Y-71134514D01*
X140546186Y-71120809D01*
X140544289Y-71082925D01*
X140542847Y-71025715D01*
X140541998Y-70954027D01*
X140541829Y-70901565D01*
X140542692Y-70800047D01*
X140546070Y-70723032D01*
X140553142Y-70666023D01*
X140565088Y-70624526D01*
X140583090Y-70594043D01*
X140608327Y-70570080D01*
X140633247Y-70553355D01*
X140693171Y-70531097D01*
X140762911Y-70526076D01*
X140828600Y-70538752D01*
G36*
X140320876Y-70536335D02*
G01*
X140362667Y-70555344D01*
X140395469Y-70578378D01*
X140419503Y-70604133D01*
X140436097Y-70637358D01*
X140446577Y-70682800D01*
X140452271Y-70745207D01*
X140454507Y-70829327D01*
X140454743Y-70884721D01*
X140454743Y-71100826D01*
X140417774Y-71117670D01*
X140388656Y-71129981D01*
X140374231Y-71134514D01*
X140371472Y-71121025D01*
X140369282Y-71084653D01*
X140367942Y-71031542D01*
X140367657Y-70989372D01*
X140366434Y-70928447D01*
X140363136Y-70880115D01*
X140358321Y-70850518D01*
X140354496Y-70844229D01*
X140328783Y-70850652D01*
X140288418Y-70867125D01*
X140241679Y-70889458D01*
X140196845Y-70913457D01*
X140162193Y-70934930D01*
X140146002Y-70949685D01*
X140145938Y-70949845D01*
X140147330Y-70977152D01*
X140159818Y-71003219D01*
X140181743Y-71024392D01*
X140213743Y-71031474D01*
X140241092Y-71030649D01*
X140279826Y-71030042D01*
X140300158Y-71039116D01*
X140312369Y-71063092D01*
X140313909Y-71067613D01*
X140319203Y-71101806D01*
X140305047Y-71122568D01*
X140268148Y-71132462D01*
X140228289Y-71134292D01*
X140156562Y-71120727D01*
X140119432Y-71101355D01*
X140073576Y-71055845D01*
X140049256Y-70999983D01*
X140047073Y-70940957D01*
X140067629Y-70885953D01*
X140098549Y-70851486D01*
X140129420Y-70832189D01*
X140177942Y-70807759D01*
X140234485Y-70782985D01*
X140243910Y-70779199D01*
X140306019Y-70751791D01*
X140341822Y-70727634D01*
X140353337Y-70703619D01*
X140342580Y-70676635D01*
X140324114Y-70655543D01*
X140280469Y-70629572D01*
X140232446Y-70627624D01*
X140188406Y-70647637D01*
X140156709Y-70687551D01*
X140152549Y-70697848D01*
X140128327Y-70735724D01*
X140092965Y-70763842D01*
X140048343Y-70786917D01*
X140048343Y-70721485D01*
X140050969Y-70681506D01*
X140062230Y-70649997D01*
X140087199Y-70616378D01*
X140111169Y-70590484D01*
X140148441Y-70553817D01*
X140177401Y-70534121D01*
X140208505Y-70526220D01*
X140243713Y-70524914D01*
X140320876Y-70536335D01*
G37*
X140320876Y-70536335D02*
X140362667Y-70555344D01*
X140395469Y-70578378D01*
X140419503Y-70604133D01*
X140436097Y-70637358D01*
X140446577Y-70682800D01*
X140452271Y-70745207D01*
X140454507Y-70829327D01*
X140454743Y-70884721D01*
X140454743Y-71100826D01*
X140417774Y-71117670D01*
X140388656Y-71129981D01*
X140374231Y-71134514D01*
X140371472Y-71121025D01*
X140369282Y-71084653D01*
X140367942Y-71031542D01*
X140367657Y-70989372D01*
X140366434Y-70928447D01*
X140363136Y-70880115D01*
X140358321Y-70850518D01*
X140354496Y-70844229D01*
X140328783Y-70850652D01*
X140288418Y-70867125D01*
X140241679Y-70889458D01*
X140196845Y-70913457D01*
X140162193Y-70934930D01*
X140146002Y-70949685D01*
X140145938Y-70949845D01*
X140147330Y-70977152D01*
X140159818Y-71003219D01*
X140181743Y-71024392D01*
X140213743Y-71031474D01*
X140241092Y-71030649D01*
X140279826Y-71030042D01*
X140300158Y-71039116D01*
X140312369Y-71063092D01*
X140313909Y-71067613D01*
X140319203Y-71101806D01*
X140305047Y-71122568D01*
X140268148Y-71132462D01*
X140228289Y-71134292D01*
X140156562Y-71120727D01*
X140119432Y-71101355D01*
X140073576Y-71055845D01*
X140049256Y-70999983D01*
X140047073Y-70940957D01*
X140067629Y-70885953D01*
X140098549Y-70851486D01*
X140129420Y-70832189D01*
X140177942Y-70807759D01*
X140234485Y-70782985D01*
X140243910Y-70779199D01*
X140306019Y-70751791D01*
X140341822Y-70727634D01*
X140353337Y-70703619D01*
X140342580Y-70676635D01*
X140324114Y-70655543D01*
X140280469Y-70629572D01*
X140232446Y-70627624D01*
X140188406Y-70647637D01*
X140156709Y-70687551D01*
X140152549Y-70697848D01*
X140128327Y-70735724D01*
X140092965Y-70763842D01*
X140048343Y-70786917D01*
X140048343Y-70721485D01*
X140050969Y-70681506D01*
X140062230Y-70649997D01*
X140087199Y-70616378D01*
X140111169Y-70590484D01*
X140148441Y-70553817D01*
X140177401Y-70534121D01*
X140208505Y-70526220D01*
X140243713Y-70524914D01*
X140320876Y-70536335D01*
G36*
X139955833Y-70538663D02*
G01*
X139958048Y-70576850D01*
X139959784Y-70634886D01*
X139960899Y-70708180D01*
X139961257Y-70785055D01*
X139961257Y-71045196D01*
X139915326Y-71091127D01*
X139883675Y-71119429D01*
X139855890Y-71130893D01*
X139817915Y-71130168D01*
X139802840Y-71128321D01*
X139755726Y-71122948D01*
X139716756Y-71119869D01*
X139707257Y-71119585D01*
X139675233Y-71121445D01*
X139629432Y-71126114D01*
X139611674Y-71128321D01*
X139568057Y-71131735D01*
X139538745Y-71124320D01*
X139509680Y-71101427D01*
X139499188Y-71091127D01*
X139453257Y-71045196D01*
X139453257Y-70558602D01*
X139490226Y-70541758D01*
X139522059Y-70529282D01*
X139540683Y-70524914D01*
X139545458Y-70538718D01*
X139549921Y-70577286D01*
X139553775Y-70636356D01*
X139556722Y-70711663D01*
X139558143Y-70775286D01*
X139562114Y-71025657D01*
X139596759Y-71030556D01*
X139628268Y-71027131D01*
X139643708Y-71016041D01*
X139648023Y-70995308D01*
X139651708Y-70951145D01*
X139654469Y-70889146D01*
X139656012Y-70814909D01*
X139656235Y-70776706D01*
X139656457Y-70556783D01*
X139702166Y-70540849D01*
X139734518Y-70530015D01*
X139752115Y-70524962D01*
X139752623Y-70524914D01*
X139754388Y-70538648D01*
X139756329Y-70576730D01*
X139758282Y-70634482D01*
X139760084Y-70707227D01*
X139761343Y-70775286D01*
X139765314Y-71025657D01*
X139852400Y-71025657D01*
X139856396Y-70797240D01*
X139860392Y-70568822D01*
X139902847Y-70546868D01*
X139934192Y-70531793D01*
X139952744Y-70524951D01*
X139953279Y-70524914D01*
X139955833Y-70538663D01*
G37*
X139955833Y-70538663D02*
X139958048Y-70576850D01*
X139959784Y-70634886D01*
X139960899Y-70708180D01*
X139961257Y-70785055D01*
X139961257Y-71045196D01*
X139915326Y-71091127D01*
X139883675Y-71119429D01*
X139855890Y-71130893D01*
X139817915Y-71130168D01*
X139802840Y-71128321D01*
X139755726Y-71122948D01*
X139716756Y-71119869D01*
X139707257Y-71119585D01*
X139675233Y-71121445D01*
X139629432Y-71126114D01*
X139611674Y-71128321D01*
X139568057Y-71131735D01*
X139538745Y-71124320D01*
X139509680Y-71101427D01*
X139499188Y-71091127D01*
X139453257Y-71045196D01*
X139453257Y-70558602D01*
X139490226Y-70541758D01*
X139522059Y-70529282D01*
X139540683Y-70524914D01*
X139545458Y-70538718D01*
X139549921Y-70577286D01*
X139553775Y-70636356D01*
X139556722Y-70711663D01*
X139558143Y-70775286D01*
X139562114Y-71025657D01*
X139596759Y-71030556D01*
X139628268Y-71027131D01*
X139643708Y-71016041D01*
X139648023Y-70995308D01*
X139651708Y-70951145D01*
X139654469Y-70889146D01*
X139656012Y-70814909D01*
X139656235Y-70776706D01*
X139656457Y-70556783D01*
X139702166Y-70540849D01*
X139734518Y-70530015D01*
X139752115Y-70524962D01*
X139752623Y-70524914D01*
X139754388Y-70538648D01*
X139756329Y-70576730D01*
X139758282Y-70634482D01*
X139760084Y-70707227D01*
X139761343Y-70775286D01*
X139765314Y-71025657D01*
X139852400Y-71025657D01*
X139856396Y-70797240D01*
X139860392Y-70568822D01*
X139902847Y-70546868D01*
X139934192Y-70531793D01*
X139952744Y-70524951D01*
X139953279Y-70524914D01*
X139955833Y-70538663D01*
G36*
X139366117Y-70645358D02*
G01*
X139365933Y-70753837D01*
X139365219Y-70837287D01*
X139363675Y-70899704D01*
X139361001Y-70945085D01*
X139356894Y-70977429D01*
X139351055Y-71000733D01*
X139343182Y-71018995D01*
X139337221Y-71029418D01*
X139287855Y-71085945D01*
X139225264Y-71121377D01*
X139156013Y-71134090D01*
X139086668Y-71122463D01*
X139045375Y-71101568D01*
X139002025Y-71065422D01*
X138972481Y-71021276D01*
X138954655Y-70963462D01*
X138946463Y-70886313D01*
X138945302Y-70829714D01*
X138945458Y-70825647D01*
X139046857Y-70825647D01*
X139047476Y-70890550D01*
X139050314Y-70933514D01*
X139056840Y-70961622D01*
X139068523Y-70981953D01*
X139082483Y-70997288D01*
X139129365Y-71026890D01*
X139179701Y-71029419D01*
X139227276Y-71004705D01*
X139230979Y-71001356D01*
X139246783Y-70983935D01*
X139256693Y-70963209D01*
X139262058Y-70932362D01*
X139264228Y-70884577D01*
X139264571Y-70831748D01*
X139263827Y-70765381D01*
X139260748Y-70721106D01*
X139254061Y-70692009D01*
X139242496Y-70671173D01*
X139233013Y-70660107D01*
X139188960Y-70632198D01*
X139138224Y-70628843D01*
X139089796Y-70650159D01*
X139080450Y-70658073D01*
X139064540Y-70675647D01*
X139054610Y-70696587D01*
X139049278Y-70727782D01*
X139047163Y-70776122D01*
X139046857Y-70825647D01*
X138945458Y-70825647D01*
X138948810Y-70738568D01*
X138960726Y-70670086D01*
X138983135Y-70618600D01*
X139018124Y-70578443D01*
X139045375Y-70557861D01*
X139094907Y-70535625D01*
X139152316Y-70525304D01*
X139205682Y-70528067D01*
X139235543Y-70539212D01*
X139247261Y-70542383D01*
X139255037Y-70530557D01*
X139260465Y-70498866D01*
X139264571Y-70450593D01*
X139269067Y-70396829D01*
X139275313Y-70364482D01*
X139286676Y-70345985D01*
X139306528Y-70333770D01*
X139319000Y-70328362D01*
X139366171Y-70308601D01*
X139366117Y-70645358D01*
G37*
X139366117Y-70645358D02*
X139365933Y-70753837D01*
X139365219Y-70837287D01*
X139363675Y-70899704D01*
X139361001Y-70945085D01*
X139356894Y-70977429D01*
X139351055Y-71000733D01*
X139343182Y-71018995D01*
X139337221Y-71029418D01*
X139287855Y-71085945D01*
X139225264Y-71121377D01*
X139156013Y-71134090D01*
X139086668Y-71122463D01*
X139045375Y-71101568D01*
X139002025Y-71065422D01*
X138972481Y-71021276D01*
X138954655Y-70963462D01*
X138946463Y-70886313D01*
X138945302Y-70829714D01*
X138945458Y-70825647D01*
X139046857Y-70825647D01*
X139047476Y-70890550D01*
X139050314Y-70933514D01*
X139056840Y-70961622D01*
X139068523Y-70981953D01*
X139082483Y-70997288D01*
X139129365Y-71026890D01*
X139179701Y-71029419D01*
X139227276Y-71004705D01*
X139230979Y-71001356D01*
X139246783Y-70983935D01*
X139256693Y-70963209D01*
X139262058Y-70932362D01*
X139264228Y-70884577D01*
X139264571Y-70831748D01*
X139263827Y-70765381D01*
X139260748Y-70721106D01*
X139254061Y-70692009D01*
X139242496Y-70671173D01*
X139233013Y-70660107D01*
X139188960Y-70632198D01*
X139138224Y-70628843D01*
X139089796Y-70650159D01*
X139080450Y-70658073D01*
X139064540Y-70675647D01*
X139054610Y-70696587D01*
X139049278Y-70727782D01*
X139047163Y-70776122D01*
X139046857Y-70825647D01*
X138945458Y-70825647D01*
X138948810Y-70738568D01*
X138960726Y-70670086D01*
X138983135Y-70618600D01*
X139018124Y-70578443D01*
X139045375Y-70557861D01*
X139094907Y-70535625D01*
X139152316Y-70525304D01*
X139205682Y-70528067D01*
X139235543Y-70539212D01*
X139247261Y-70542383D01*
X139255037Y-70530557D01*
X139260465Y-70498866D01*
X139264571Y-70450593D01*
X139269067Y-70396829D01*
X139275313Y-70364482D01*
X139286676Y-70345985D01*
X139306528Y-70333770D01*
X139319000Y-70328362D01*
X139366171Y-70308601D01*
X139366117Y-70645358D01*
G36*
X138705926Y-70529755D02*
G01*
X138771858Y-70554084D01*
X138825273Y-70597117D01*
X138846164Y-70627409D01*
X138868939Y-70682994D01*
X138868466Y-70723186D01*
X138844562Y-70750217D01*
X138835717Y-70754813D01*
X138797530Y-70769144D01*
X138778028Y-70765472D01*
X138771422Y-70741407D01*
X138771086Y-70728114D01*
X138758992Y-70679210D01*
X138727471Y-70644999D01*
X138683659Y-70628476D01*
X138634695Y-70632634D01*
X138594894Y-70654227D01*
X138581450Y-70666544D01*
X138571921Y-70681487D01*
X138565485Y-70704075D01*
X138561317Y-70739328D01*
X138558597Y-70792266D01*
X138556502Y-70867907D01*
X138555960Y-70891857D01*
X138553981Y-70973790D01*
X138551731Y-71031455D01*
X138548357Y-71069608D01*
X138543006Y-71093004D01*
X138534824Y-71106398D01*
X138522959Y-71114545D01*
X138515362Y-71118144D01*
X138483102Y-71130452D01*
X138464111Y-71134514D01*
X138457836Y-71120948D01*
X138454006Y-71079934D01*
X138452600Y-71010999D01*
X138453598Y-70913669D01*
X138453908Y-70898657D01*
X138456101Y-70809859D01*
X138458693Y-70745019D01*
X138462382Y-70699067D01*
X138467864Y-70666935D01*
X138475835Y-70643553D01*
X138486993Y-70623852D01*
X138492830Y-70615410D01*
X138526296Y-70578057D01*
X138563727Y-70549003D01*
X138568309Y-70546467D01*
X138635426Y-70526443D01*
X138705926Y-70529755D01*
G37*
X138705926Y-70529755D02*
X138771858Y-70554084D01*
X138825273Y-70597117D01*
X138846164Y-70627409D01*
X138868939Y-70682994D01*
X138868466Y-70723186D01*
X138844562Y-70750217D01*
X138835717Y-70754813D01*
X138797530Y-70769144D01*
X138778028Y-70765472D01*
X138771422Y-70741407D01*
X138771086Y-70728114D01*
X138758992Y-70679210D01*
X138727471Y-70644999D01*
X138683659Y-70628476D01*
X138634695Y-70632634D01*
X138594894Y-70654227D01*
X138581450Y-70666544D01*
X138571921Y-70681487D01*
X138565485Y-70704075D01*
X138561317Y-70739328D01*
X138558597Y-70792266D01*
X138556502Y-70867907D01*
X138555960Y-70891857D01*
X138553981Y-70973790D01*
X138551731Y-71031455D01*
X138548357Y-71069608D01*
X138543006Y-71093004D01*
X138534824Y-71106398D01*
X138522959Y-71114545D01*
X138515362Y-71118144D01*
X138483102Y-71130452D01*
X138464111Y-71134514D01*
X138457836Y-71120948D01*
X138454006Y-71079934D01*
X138452600Y-71010999D01*
X138453598Y-70913669D01*
X138453908Y-70898657D01*
X138456101Y-70809859D01*
X138458693Y-70745019D01*
X138462382Y-70699067D01*
X138467864Y-70666935D01*
X138475835Y-70643553D01*
X138486993Y-70623852D01*
X138492830Y-70615410D01*
X138526296Y-70578057D01*
X138563727Y-70549003D01*
X138568309Y-70546467D01*
X138635426Y-70526443D01*
X138705926Y-70529755D01*
G36*
X138215744Y-70530968D02*
G01*
X138272616Y-70552087D01*
X138273267Y-70552493D01*
X138308440Y-70578380D01*
X138334407Y-70608633D01*
X138352670Y-70648058D01*
X138364732Y-70701462D01*
X138372096Y-70773651D01*
X138376264Y-70869432D01*
X138376629Y-70883078D01*
X138381876Y-71088842D01*
X138337716Y-71111678D01*
X138305763Y-71127110D01*
X138286470Y-71134423D01*
X138285578Y-71134514D01*
X138282239Y-71121022D01*
X138279587Y-71084626D01*
X138277956Y-71031452D01*
X138277600Y-70988393D01*
X138277592Y-70918641D01*
X138274403Y-70874837D01*
X138263288Y-70853944D01*
X138239501Y-70852925D01*
X138198296Y-70868741D01*
X138136086Y-70897815D01*
X138090341Y-70921963D01*
X138066813Y-70942913D01*
X138059896Y-70965747D01*
X138059886Y-70966877D01*
X138071299Y-71006212D01*
X138105092Y-71027462D01*
X138156809Y-71030539D01*
X138194061Y-71030006D01*
X138213703Y-71040735D01*
X138225952Y-71066505D01*
X138233002Y-71099337D01*
X138222842Y-71117966D01*
X138219017Y-71120632D01*
X138183001Y-71131340D01*
X138132566Y-71132856D01*
X138080626Y-71125759D01*
X138043822Y-71112788D01*
X137992938Y-71069585D01*
X137964014Y-71009446D01*
X137958286Y-70962462D01*
X137962657Y-70920082D01*
X137978475Y-70885488D01*
X138009797Y-70854763D01*
X138060678Y-70823990D01*
X138135176Y-70789252D01*
X138139714Y-70787288D01*
X138206821Y-70756287D01*
X138248232Y-70730862D01*
X138265981Y-70708014D01*
X138262107Y-70684745D01*
X138238643Y-70658056D01*
X138231627Y-70651914D01*
X138184630Y-70628100D01*
X138135933Y-70629103D01*
X138093522Y-70652451D01*
X138065384Y-70695675D01*
X138062769Y-70704160D01*
X138037308Y-70745308D01*
X138005001Y-70765128D01*
X137958286Y-70784770D01*
X137958286Y-70733950D01*
X137972496Y-70660082D01*
X138014675Y-70592327D01*
X138036624Y-70569661D01*
X138086517Y-70540569D01*
X138149967Y-70527400D01*
X138215744Y-70530968D01*
G37*
X138215744Y-70530968D02*
X138272616Y-70552087D01*
X138273267Y-70552493D01*
X138308440Y-70578380D01*
X138334407Y-70608633D01*
X138352670Y-70648058D01*
X138364732Y-70701462D01*
X138372096Y-70773651D01*
X138376264Y-70869432D01*
X138376629Y-70883078D01*
X138381876Y-71088842D01*
X138337716Y-71111678D01*
X138305763Y-71127110D01*
X138286470Y-71134423D01*
X138285578Y-71134514D01*
X138282239Y-71121022D01*
X138279587Y-71084626D01*
X138277956Y-71031452D01*
X138277600Y-70988393D01*
X138277592Y-70918641D01*
X138274403Y-70874837D01*
X138263288Y-70853944D01*
X138239501Y-70852925D01*
X138198296Y-70868741D01*
X138136086Y-70897815D01*
X138090341Y-70921963D01*
X138066813Y-70942913D01*
X138059896Y-70965747D01*
X138059886Y-70966877D01*
X138071299Y-71006212D01*
X138105092Y-71027462D01*
X138156809Y-71030539D01*
X138194061Y-71030006D01*
X138213703Y-71040735D01*
X138225952Y-71066505D01*
X138233002Y-71099337D01*
X138222842Y-71117966D01*
X138219017Y-71120632D01*
X138183001Y-71131340D01*
X138132566Y-71132856D01*
X138080626Y-71125759D01*
X138043822Y-71112788D01*
X137992938Y-71069585D01*
X137964014Y-71009446D01*
X137958286Y-70962462D01*
X137962657Y-70920082D01*
X137978475Y-70885488D01*
X138009797Y-70854763D01*
X138060678Y-70823990D01*
X138135176Y-70789252D01*
X138139714Y-70787288D01*
X138206821Y-70756287D01*
X138248232Y-70730862D01*
X138265981Y-70708014D01*
X138262107Y-70684745D01*
X138238643Y-70658056D01*
X138231627Y-70651914D01*
X138184630Y-70628100D01*
X138135933Y-70629103D01*
X138093522Y-70652451D01*
X138065384Y-70695675D01*
X138062769Y-70704160D01*
X138037308Y-70745308D01*
X138005001Y-70765128D01*
X137958286Y-70784770D01*
X137958286Y-70733950D01*
X137972496Y-70660082D01*
X138014675Y-70592327D01*
X138036624Y-70569661D01*
X138086517Y-70540569D01*
X138149967Y-70527400D01*
X138215744Y-70530968D01*
G36*
X137551886Y-70431289D02*
G01*
X137556139Y-70490613D01*
X137561025Y-70525572D01*
X137567795Y-70540820D01*
X137577702Y-70541015D01*
X137580914Y-70539195D01*
X137623644Y-70526015D01*
X137679227Y-70526785D01*
X137735737Y-70540333D01*
X137771082Y-70557861D01*
X137807321Y-70585861D01*
X137833813Y-70617549D01*
X137851999Y-70657813D01*
X137863322Y-70711543D01*
X137869222Y-70783626D01*
X137871143Y-70878951D01*
X137871177Y-70897237D01*
X137871200Y-71102646D01*
X137825491Y-71118580D01*
X137793027Y-71129420D01*
X137775215Y-71134468D01*
X137774691Y-71134514D01*
X137772937Y-71120828D01*
X137771444Y-71083076D01*
X137770326Y-71026224D01*
X137769697Y-70955234D01*
X137769600Y-70912073D01*
X137769398Y-70826973D01*
X137768358Y-70765981D01*
X137765831Y-70724177D01*
X137761164Y-70696642D01*
X137753707Y-70678456D01*
X137742811Y-70664698D01*
X137736007Y-70658073D01*
X137689272Y-70631375D01*
X137638272Y-70629375D01*
X137592001Y-70651955D01*
X137583444Y-70660107D01*
X137570893Y-70675436D01*
X137562188Y-70693618D01*
X137556631Y-70719909D01*
X137553526Y-70759562D01*
X137552176Y-70817832D01*
X137551886Y-70898173D01*
X137551886Y-71102646D01*
X137506177Y-71118580D01*
X137473713Y-71129420D01*
X137455901Y-71134468D01*
X137455377Y-71134514D01*
X137454037Y-71120623D01*
X137452828Y-71081439D01*
X137451801Y-71020700D01*
X137451002Y-70942141D01*
X137450481Y-70849498D01*
X137450286Y-70746509D01*
X137450286Y-70349342D01*
X137497457Y-70329444D01*
X137544629Y-70309547D01*
X137551886Y-70431289D01*
G37*
X137551886Y-70431289D02*
X137556139Y-70490613D01*
X137561025Y-70525572D01*
X137567795Y-70540820D01*
X137577702Y-70541015D01*
X137580914Y-70539195D01*
X137623644Y-70526015D01*
X137679227Y-70526785D01*
X137735737Y-70540333D01*
X137771082Y-70557861D01*
X137807321Y-70585861D01*
X137833813Y-70617549D01*
X137851999Y-70657813D01*
X137863322Y-70711543D01*
X137869222Y-70783626D01*
X137871143Y-70878951D01*
X137871177Y-70897237D01*
X137871200Y-71102646D01*
X137825491Y-71118580D01*
X137793027Y-71129420D01*
X137775215Y-71134468D01*
X137774691Y-71134514D01*
X137772937Y-71120828D01*
X137771444Y-71083076D01*
X137770326Y-71026224D01*
X137769697Y-70955234D01*
X137769600Y-70912073D01*
X137769398Y-70826973D01*
X137768358Y-70765981D01*
X137765831Y-70724177D01*
X137761164Y-70696642D01*
X137753707Y-70678456D01*
X137742811Y-70664698D01*
X137736007Y-70658073D01*
X137689272Y-70631375D01*
X137638272Y-70629375D01*
X137592001Y-70651955D01*
X137583444Y-70660107D01*
X137570893Y-70675436D01*
X137562188Y-70693618D01*
X137556631Y-70719909D01*
X137553526Y-70759562D01*
X137552176Y-70817832D01*
X137551886Y-70898173D01*
X137551886Y-71102646D01*
X137506177Y-71118580D01*
X137473713Y-71129420D01*
X137455901Y-71134468D01*
X137455377Y-71134514D01*
X137454037Y-71120623D01*
X137452828Y-71081439D01*
X137451801Y-71020700D01*
X137451002Y-70942141D01*
X137450481Y-70849498D01*
X137450286Y-70746509D01*
X137450286Y-70349342D01*
X137497457Y-70329444D01*
X137544629Y-70309547D01*
X137551886Y-70431289D01*
G36*
X136344303Y-70511239D02*
G01*
X136401527Y-70549735D01*
X136445749Y-70605335D01*
X136472167Y-70676086D01*
X136477510Y-70728162D01*
X136476903Y-70749893D01*
X136471822Y-70766531D01*
X136457855Y-70781437D01*
X136430589Y-70797973D01*
X136385612Y-70819498D01*
X136318511Y-70849374D01*
X136318171Y-70849524D01*
X136256407Y-70877813D01*
X136205759Y-70902933D01*
X136171404Y-70922179D01*
X136158518Y-70932848D01*
X136158514Y-70932934D01*
X136169872Y-70956166D01*
X136196431Y-70981774D01*
X136226923Y-71000221D01*
X136242370Y-71003886D01*
X136284515Y-70991212D01*
X136320808Y-70959471D01*
X136338517Y-70924572D01*
X136355552Y-70898845D01*
X136388922Y-70869546D01*
X136428149Y-70844235D01*
X136462756Y-70830471D01*
X136469993Y-70829714D01*
X136478139Y-70842160D01*
X136478630Y-70873972D01*
X136472643Y-70916866D01*
X136461357Y-70962558D01*
X136445950Y-71002761D01*
X136445171Y-71004322D01*
X136398804Y-71069062D01*
X136338711Y-71113097D01*
X136270465Y-71134711D01*
X136199638Y-71132185D01*
X136131804Y-71103804D01*
X136128788Y-71101808D01*
X136075427Y-71053448D01*
X136040340Y-70990352D01*
X136020922Y-70907387D01*
X136018316Y-70884078D01*
X136013701Y-70774055D01*
X136019233Y-70722748D01*
X136158514Y-70722748D01*
X136160324Y-70754753D01*
X136170222Y-70764093D01*
X136194898Y-70757105D01*
X136233795Y-70740587D01*
X136277275Y-70719881D01*
X136278356Y-70719333D01*
X136315209Y-70699949D01*
X136330000Y-70687013D01*
X136326353Y-70673451D01*
X136310995Y-70655632D01*
X136271923Y-70629845D01*
X136229846Y-70627950D01*
X136192103Y-70646717D01*
X136166034Y-70682915D01*
X136158514Y-70722748D01*
X136019233Y-70722748D01*
X136023194Y-70686027D01*
X136047550Y-70616212D01*
X136081456Y-70567302D01*
X136142653Y-70517878D01*
X136210063Y-70493359D01*
X136278880Y-70491797D01*
X136344303Y-70511239D01*
G37*
X136344303Y-70511239D02*
X136401527Y-70549735D01*
X136445749Y-70605335D01*
X136472167Y-70676086D01*
X136477510Y-70728162D01*
X136476903Y-70749893D01*
X136471822Y-70766531D01*
X136457855Y-70781437D01*
X136430589Y-70797973D01*
X136385612Y-70819498D01*
X136318511Y-70849374D01*
X136318171Y-70849524D01*
X136256407Y-70877813D01*
X136205759Y-70902933D01*
X136171404Y-70922179D01*
X136158518Y-70932848D01*
X136158514Y-70932934D01*
X136169872Y-70956166D01*
X136196431Y-70981774D01*
X136226923Y-71000221D01*
X136242370Y-71003886D01*
X136284515Y-70991212D01*
X136320808Y-70959471D01*
X136338517Y-70924572D01*
X136355552Y-70898845D01*
X136388922Y-70869546D01*
X136428149Y-70844235D01*
X136462756Y-70830471D01*
X136469993Y-70829714D01*
X136478139Y-70842160D01*
X136478630Y-70873972D01*
X136472643Y-70916866D01*
X136461357Y-70962558D01*
X136445950Y-71002761D01*
X136445171Y-71004322D01*
X136398804Y-71069062D01*
X136338711Y-71113097D01*
X136270465Y-71134711D01*
X136199638Y-71132185D01*
X136131804Y-71103804D01*
X136128788Y-71101808D01*
X136075427Y-71053448D01*
X136040340Y-70990352D01*
X136020922Y-70907387D01*
X136018316Y-70884078D01*
X136013701Y-70774055D01*
X136019233Y-70722748D01*
X136158514Y-70722748D01*
X136160324Y-70754753D01*
X136170222Y-70764093D01*
X136194898Y-70757105D01*
X136233795Y-70740587D01*
X136277275Y-70719881D01*
X136278356Y-70719333D01*
X136315209Y-70699949D01*
X136330000Y-70687013D01*
X136326353Y-70673451D01*
X136310995Y-70655632D01*
X136271923Y-70629845D01*
X136229846Y-70627950D01*
X136192103Y-70646717D01*
X136166034Y-70682915D01*
X136158514Y-70722748D01*
X136019233Y-70722748D01*
X136023194Y-70686027D01*
X136047550Y-70616212D01*
X136081456Y-70567302D01*
X136142653Y-70517878D01*
X136210063Y-70493359D01*
X136278880Y-70491797D01*
X136344303Y-70511239D01*
G36*
X135217115Y-70501962D02*
G01*
X135285145Y-70537733D01*
X135335351Y-70595301D01*
X135353185Y-70632312D01*
X135367063Y-70687882D01*
X135374167Y-70758096D01*
X135374840Y-70834727D01*
X135369427Y-70909552D01*
X135358270Y-70974342D01*
X135341714Y-71020873D01*
X135336626Y-71028887D01*
X135276355Y-71088707D01*
X135204769Y-71124535D01*
X135127092Y-71135020D01*
X135048548Y-71118810D01*
X135026689Y-71109092D01*
X134984122Y-71079143D01*
X134946763Y-71039433D01*
X134943232Y-71034397D01*
X134928881Y-71010124D01*
X134919394Y-70984178D01*
X134913790Y-70950022D01*
X134911086Y-70901119D01*
X134910299Y-70830935D01*
X134910286Y-70815200D01*
X134910322Y-70810192D01*
X135055429Y-70810192D01*
X135056273Y-70876430D01*
X135059596Y-70920386D01*
X135066583Y-70948779D01*
X135078416Y-70968325D01*
X135084457Y-70974857D01*
X135119186Y-70999680D01*
X135152903Y-70998548D01*
X135186995Y-70977016D01*
X135207329Y-70954029D01*
X135219371Y-70920478D01*
X135226134Y-70867569D01*
X135226598Y-70861399D01*
X135227752Y-70765513D01*
X135215688Y-70694299D01*
X135190570Y-70648194D01*
X135152560Y-70627635D01*
X135138992Y-70626514D01*
X135103364Y-70632152D01*
X135078994Y-70651686D01*
X135064093Y-70689042D01*
X135056875Y-70748150D01*
X135055429Y-70810192D01*
X134910322Y-70810192D01*
X134910826Y-70740413D01*
X134913096Y-70688159D01*
X134918068Y-70651949D01*
X134926713Y-70625299D01*
X134940005Y-70601722D01*
X134942943Y-70597338D01*
X134992313Y-70538249D01*
X135046109Y-70503947D01*
X135111602Y-70490331D01*
X135133842Y-70489665D01*
X135217115Y-70501962D01*
G37*
X135217115Y-70501962D02*
X135285145Y-70537733D01*
X135335351Y-70595301D01*
X135353185Y-70632312D01*
X135367063Y-70687882D01*
X135374167Y-70758096D01*
X135374840Y-70834727D01*
X135369427Y-70909552D01*
X135358270Y-70974342D01*
X135341714Y-71020873D01*
X135336626Y-71028887D01*
X135276355Y-71088707D01*
X135204769Y-71124535D01*
X135127092Y-71135020D01*
X135048548Y-71118810D01*
X135026689Y-71109092D01*
X134984122Y-71079143D01*
X134946763Y-71039433D01*
X134943232Y-71034397D01*
X134928881Y-71010124D01*
X134919394Y-70984178D01*
X134913790Y-70950022D01*
X134911086Y-70901119D01*
X134910299Y-70830935D01*
X134910286Y-70815200D01*
X134910322Y-70810192D01*
X135055429Y-70810192D01*
X135056273Y-70876430D01*
X135059596Y-70920386D01*
X135066583Y-70948779D01*
X135078416Y-70968325D01*
X135084457Y-70974857D01*
X135119186Y-70999680D01*
X135152903Y-70998548D01*
X135186995Y-70977016D01*
X135207329Y-70954029D01*
X135219371Y-70920478D01*
X135226134Y-70867569D01*
X135226598Y-70861399D01*
X135227752Y-70765513D01*
X135215688Y-70694299D01*
X135190570Y-70648194D01*
X135152560Y-70627635D01*
X135138992Y-70626514D01*
X135103364Y-70632152D01*
X135078994Y-70651686D01*
X135064093Y-70689042D01*
X135056875Y-70748150D01*
X135055429Y-70810192D01*
X134910322Y-70810192D01*
X134910826Y-70740413D01*
X134913096Y-70688159D01*
X134918068Y-70651949D01*
X134926713Y-70625299D01*
X134940005Y-70601722D01*
X134942943Y-70597338D01*
X134992313Y-70538249D01*
X135046109Y-70503947D01*
X135111602Y-70490331D01*
X135133842Y-70489665D01*
X135217115Y-70501962D01*
G36*
X136892093Y-70507780D02*
G01*
X136938672Y-70534723D01*
X136971057Y-70561466D01*
X136994742Y-70589484D01*
X137011059Y-70623748D01*
X137021339Y-70669227D01*
X137026914Y-70730892D01*
X137029116Y-70813711D01*
X137029371Y-70873246D01*
X137029371Y-71092391D01*
X136967686Y-71120044D01*
X136906000Y-71147697D01*
X136898743Y-70907670D01*
X136895744Y-70818028D01*
X136892598Y-70752962D01*
X136888701Y-70708026D01*
X136883447Y-70678770D01*
X136876231Y-70660748D01*
X136866450Y-70649511D01*
X136863312Y-70647079D01*
X136815761Y-70628083D01*
X136767697Y-70635600D01*
X136739086Y-70655543D01*
X136727447Y-70669675D01*
X136719391Y-70688220D01*
X136714271Y-70716334D01*
X136711441Y-70759173D01*
X136710256Y-70821895D01*
X136710057Y-70887261D01*
X136710018Y-70969268D01*
X136708614Y-71027316D01*
X136703914Y-71066465D01*
X136693987Y-71091780D01*
X136676903Y-71108323D01*
X136650732Y-71121156D01*
X136615775Y-71134491D01*
X136577596Y-71149007D01*
X136582141Y-70891389D01*
X136583971Y-70798519D01*
X136586112Y-70729889D01*
X136589181Y-70680711D01*
X136593794Y-70646198D01*
X136600568Y-70621562D01*
X136610119Y-70602016D01*
X136621634Y-70584770D01*
X136677190Y-70529680D01*
X136744980Y-70497822D01*
X136818713Y-70490191D01*
X136892093Y-70507780D01*
G37*
X136892093Y-70507780D02*
X136938672Y-70534723D01*
X136971057Y-70561466D01*
X136994742Y-70589484D01*
X137011059Y-70623748D01*
X137021339Y-70669227D01*
X137026914Y-70730892D01*
X137029116Y-70813711D01*
X137029371Y-70873246D01*
X137029371Y-71092391D01*
X136967686Y-71120044D01*
X136906000Y-71147697D01*
X136898743Y-70907670D01*
X136895744Y-70818028D01*
X136892598Y-70752962D01*
X136888701Y-70708026D01*
X136883447Y-70678770D01*
X136876231Y-70660748D01*
X136866450Y-70649511D01*
X136863312Y-70647079D01*
X136815761Y-70628083D01*
X136767697Y-70635600D01*
X136739086Y-70655543D01*
X136727447Y-70669675D01*
X136719391Y-70688220D01*
X136714271Y-70716334D01*
X136711441Y-70759173D01*
X136710256Y-70821895D01*
X136710057Y-70887261D01*
X136710018Y-70969268D01*
X136708614Y-71027316D01*
X136703914Y-71066465D01*
X136693987Y-71091780D01*
X136676903Y-71108323D01*
X136650732Y-71121156D01*
X136615775Y-71134491D01*
X136577596Y-71149007D01*
X136582141Y-70891389D01*
X136583971Y-70798519D01*
X136586112Y-70729889D01*
X136589181Y-70680711D01*
X136593794Y-70646198D01*
X136600568Y-70621562D01*
X136610119Y-70602016D01*
X136621634Y-70584770D01*
X136677190Y-70529680D01*
X136744980Y-70497822D01*
X136818713Y-70490191D01*
X136892093Y-70507780D01*
G36*
X135775744Y-70499918D02*
G01*
X135831201Y-70527568D01*
X135880148Y-70578480D01*
X135893629Y-70597338D01*
X135908314Y-70622015D01*
X135917842Y-70648816D01*
X135923293Y-70684587D01*
X135925747Y-70736169D01*
X135926286Y-70804267D01*
X135923852Y-70897588D01*
X135915394Y-70967657D01*
X135899174Y-71019931D01*
X135873454Y-71059869D01*
X135836497Y-71092929D01*
X135833782Y-71094886D01*
X135797360Y-71114908D01*
X135753502Y-71124815D01*
X135697724Y-71127257D01*
X135607048Y-71127257D01*
X135607010Y-71215283D01*
X135606166Y-71264308D01*
X135601024Y-71293065D01*
X135587587Y-71310311D01*
X135561858Y-71324808D01*
X135555679Y-71327769D01*
X135526764Y-71341648D01*
X135504376Y-71350414D01*
X135487729Y-71351171D01*
X135476036Y-71341023D01*
X135468510Y-71317073D01*
X135464366Y-71276426D01*
X135462815Y-71216186D01*
X135463071Y-71133455D01*
X135464349Y-71025339D01*
X135464748Y-70993000D01*
X135466185Y-70881524D01*
X135467472Y-70808603D01*
X135606971Y-70808603D01*
X135607755Y-70870499D01*
X135611240Y-70910997D01*
X135619124Y-70937708D01*
X135633105Y-70958244D01*
X135642597Y-70968260D01*
X135681404Y-70997567D01*
X135715763Y-70999952D01*
X135751216Y-70975750D01*
X135752114Y-70974857D01*
X135766539Y-70956153D01*
X135775313Y-70930732D01*
X135779739Y-70891584D01*
X135781118Y-70831697D01*
X135781143Y-70818430D01*
X135777812Y-70735901D01*
X135766969Y-70678691D01*
X135747340Y-70643766D01*
X135717650Y-70628094D01*
X135700491Y-70626514D01*
X135659766Y-70633926D01*
X135631832Y-70658330D01*
X135615017Y-70702980D01*
X135607650Y-70771130D01*
X135606971Y-70808603D01*
X135467472Y-70808603D01*
X135467708Y-70795245D01*
X135469677Y-70730333D01*
X135472450Y-70682958D01*
X135476388Y-70649290D01*
X135481849Y-70625498D01*
X135489192Y-70607753D01*
X135498777Y-70592224D01*
X135502887Y-70586381D01*
X135557405Y-70531185D01*
X135626336Y-70499890D01*
X135706072Y-70491165D01*
X135775744Y-70499918D01*
G37*
X135775744Y-70499918D02*
X135831201Y-70527568D01*
X135880148Y-70578480D01*
X135893629Y-70597338D01*
X135908314Y-70622015D01*
X135917842Y-70648816D01*
X135923293Y-70684587D01*
X135925747Y-70736169D01*
X135926286Y-70804267D01*
X135923852Y-70897588D01*
X135915394Y-70967657D01*
X135899174Y-71019931D01*
X135873454Y-71059869D01*
X135836497Y-71092929D01*
X135833782Y-71094886D01*
X135797360Y-71114908D01*
X135753502Y-71124815D01*
X135697724Y-71127257D01*
X135607048Y-71127257D01*
X135607010Y-71215283D01*
X135606166Y-71264308D01*
X135601024Y-71293065D01*
X135587587Y-71310311D01*
X135561858Y-71324808D01*
X135555679Y-71327769D01*
X135526764Y-71341648D01*
X135504376Y-71350414D01*
X135487729Y-71351171D01*
X135476036Y-71341023D01*
X135468510Y-71317073D01*
X135464366Y-71276426D01*
X135462815Y-71216186D01*
X135463071Y-71133455D01*
X135464349Y-71025339D01*
X135464748Y-70993000D01*
X135466185Y-70881524D01*
X135467472Y-70808603D01*
X135606971Y-70808603D01*
X135607755Y-70870499D01*
X135611240Y-70910997D01*
X135619124Y-70937708D01*
X135633105Y-70958244D01*
X135642597Y-70968260D01*
X135681404Y-70997567D01*
X135715763Y-70999952D01*
X135751216Y-70975750D01*
X135752114Y-70974857D01*
X135766539Y-70956153D01*
X135775313Y-70930732D01*
X135779739Y-70891584D01*
X135781118Y-70831697D01*
X135781143Y-70818430D01*
X135777812Y-70735901D01*
X135766969Y-70678691D01*
X135747340Y-70643766D01*
X135717650Y-70628094D01*
X135700491Y-70626514D01*
X135659766Y-70633926D01*
X135631832Y-70658330D01*
X135615017Y-70702980D01*
X135607650Y-70771130D01*
X135606971Y-70808603D01*
X135467472Y-70808603D01*
X135467708Y-70795245D01*
X135469677Y-70730333D01*
X135472450Y-70682958D01*
X135476388Y-70649290D01*
X135481849Y-70625498D01*
X135489192Y-70607753D01*
X135498777Y-70592224D01*
X135502887Y-70586381D01*
X135557405Y-70531185D01*
X135626336Y-70499890D01*
X135706072Y-70491165D01*
X135775744Y-70499918D01*
D11*
X97408000Y-72672000D02*
X97408000Y-78072000D01*
X94108000Y-72672000D02*
X94108000Y-78072000D01*
X97408000Y-72672000D02*
X94108000Y-72672000D01*
X85532000Y-56008000D02*
X90932000Y-56008000D01*
X85532000Y-59308000D02*
X90932000Y-59308000D01*
X85532000Y-56008000D02*
X85532000Y-59308000D01*
X85410000Y-64896000D02*
X80010000Y-64896000D01*
X85410000Y-61596000D02*
X80010000Y-61596000D01*
X85410000Y-64896000D02*
X85410000Y-61596000D01*
X100141721Y-69090000D02*
X100467279Y-69090000D01*
X100141721Y-68070000D02*
X100467279Y-68070000D01*
X88646000Y-70841000D02*
X89662000Y-70841000D01*
X89662000Y-72746000D02*
X89662000Y-70841000D01*
X88646000Y-72746000D02*
X89662000Y-72746000D01*
X88646000Y-70841000D02*
X88646000Y-72746000D01*
X89154000Y-70206000D02*
X89154000Y-70841000D01*
X88519000Y-70206000D02*
X89154000Y-70206000D01*
X89154000Y-73406000D02*
X89154000Y-72746000D01*
X88519000Y-73406000D02*
X89154000Y-73406000D01*
X88646000Y-71222000D02*
X89662000Y-71857000D01*
X77470000Y-76708000D02*
X77470000Y-66548000D01*
X92202000Y-76708000D02*
X77470000Y-76708000D01*
X92202000Y-66548000D02*
X92202000Y-76708000D01*
X77470000Y-66548000D02*
X92202000Y-66548000D01*
X99004000Y-72404000D02*
X99004000Y-70944000D01*
X102164000Y-72404000D02*
X102164000Y-70244000D01*
X102164000Y-72404000D02*
X101234000Y-72404000D01*
X99004000Y-72404000D02*
X99934000Y-72404000D01*
X99586000Y-74178000D02*
X101046000Y-74178000D01*
X99586000Y-77338000D02*
X101746000Y-77338000D01*
X99586000Y-77338000D02*
X99586000Y-76408000D01*
X99586000Y-74178000D02*
X99586000Y-75108000D01*
X100395721Y-79250000D02*
X100721279Y-79250000D01*
X100395721Y-78230000D02*
X100721279Y-78230000D01*
X82550000Y-54880000D02*
X82550000Y-57420000D01*
X80010000Y-54880000D02*
X80010000Y-57420000D01*
X77470000Y-54880000D02*
X77470000Y-57420000D01*
X85130000Y-38990000D02*
X85130000Y-54880000D01*
X74890000Y-38990000D02*
X74890000Y-54880000D01*
X74890000Y-38990000D02*
X85130000Y-38990000D01*
X74890000Y-54880000D02*
X85130000Y-54880000D01*
D10*
X75010000Y-25110000D02*
X75010000Y-50110000D01*
X85010000Y-25110000D02*
X85010000Y-50110000D01*
X69010000Y-50110000D02*
X80010000Y-50110000D01*
X69010000Y-25110000D02*
X69010000Y-50110000D01*
X91010000Y-25110000D02*
X69010000Y-25110000D01*
X91010000Y-50110000D02*
X91010000Y-25110000D01*
X80010000Y-50110000D02*
X91010000Y-50110000D01*
X81798854Y-41910000D02*
G75*
G03X81798854Y-41910000I-1788854J0D01*
G01*
D11*
X117360000Y-66360000D02*
X112560000Y-66360000D01*
X117360000Y-77160000D02*
X112560000Y-77160000D01*
X117360000Y-76760000D02*
X118760000Y-76760000D01*
X117360000Y-77160000D02*
X117360000Y-76760000D01*
X122630000Y-75410000D02*
X122630000Y-77225000D01*
X122385000Y-75410000D02*
X122630000Y-75410000D01*
X122385000Y-71550000D02*
X122385000Y-75410000D01*
X122385000Y-67690000D02*
X122630000Y-67690000D01*
X122385000Y-71550000D02*
X122385000Y-67690000D01*
X134155000Y-75410000D02*
X133910000Y-75410000D01*
X134155000Y-71550000D02*
X134155000Y-75410000D01*
X134155000Y-67690000D02*
X133910000Y-67690000D01*
X134155000Y-71550000D02*
X134155000Y-67690000D01*
X101600000Y-38240000D02*
X101600000Y-38999000D01*
X102900000Y-39759000D02*
X100300000Y-39759000D01*
X102900000Y-38240000D02*
X100300000Y-38240000D01*
X100300000Y-38240000D02*
X100300000Y-39759000D01*
X102900000Y-38240000D02*
X102900000Y-39759000D01*
X104120000Y-59000000D02*
X99080000Y-59000000D01*
X104120000Y-39760000D02*
X99080000Y-39760000D01*
X99080000Y-39760000D02*
X99080000Y-59000000D01*
X104120000Y-39760000D02*
X104120000Y-59000000D01*
X95250000Y-38240000D02*
X95250000Y-38999000D01*
X96550000Y-39759000D02*
X93950000Y-39759000D01*
X96550000Y-38240000D02*
X93950000Y-38240000D01*
X93950000Y-38240000D02*
X93950000Y-39759000D01*
X96550000Y-38240000D02*
X96550000Y-39759000D01*
X97770000Y-59000000D02*
X92730000Y-59000000D01*
X97770000Y-39760000D02*
X92730000Y-39760000D01*
X92730000Y-39760000D02*
X92730000Y-59000000D01*
X97770000Y-39760000D02*
X97770000Y-59000000D01*
X105272721Y-71122000D02*
X105598279Y-71122000D01*
X105272721Y-70102000D02*
X105598279Y-70102000D01*
X140324721Y-61470000D02*
X140650279Y-61470000D01*
X140324721Y-60450000D02*
X140650279Y-60450000D01*
X133974721Y-61470000D02*
X134300279Y-61470000D01*
X133974721Y-60450000D02*
X134300279Y-60450000D01*
X127624721Y-61470000D02*
X127950279Y-61470000D01*
X127624721Y-60450000D02*
X127950279Y-60450000D01*
X121274721Y-61470000D02*
X121600279Y-61470000D01*
X121274721Y-60450000D02*
X121600279Y-60450000D01*
X114924721Y-61470000D02*
X115250279Y-61470000D01*
X114924721Y-60450000D02*
X115250279Y-60450000D01*
X108574721Y-61470000D02*
X108900279Y-61470000D01*
X108574721Y-60450000D02*
X108900279Y-60450000D01*
X102224721Y-61470000D02*
X102550279Y-61470000D01*
X102224721Y-60450000D02*
X102550279Y-60450000D01*
X88834279Y-54100000D02*
X88508721Y-54100000D01*
X88834279Y-55120000D02*
X88508721Y-55120000D01*
X143450000Y-59500000D02*
X143450000Y-39600000D01*
X143450000Y-39600000D02*
X148650000Y-39600000D01*
X148650000Y-39600000D02*
X148650000Y-59500000D01*
X148650000Y-59500000D02*
X143450000Y-59500000D01*
X148850000Y-58600000D02*
X148850000Y-59700000D01*
X148850000Y-59700000D02*
X147850000Y-59700000D01*
X137100000Y-59500000D02*
X137100000Y-39600000D01*
X137100000Y-39600000D02*
X142300000Y-39600000D01*
X142300000Y-39600000D02*
X142300000Y-59500000D01*
X142300000Y-59500000D02*
X137100000Y-59500000D01*
X142500000Y-58600000D02*
X142500000Y-59700000D01*
X142500000Y-59700000D02*
X141500000Y-59700000D01*
X130750000Y-59500000D02*
X130750000Y-39600000D01*
X130750000Y-39600000D02*
X135950000Y-39600000D01*
X135950000Y-39600000D02*
X135950000Y-59500000D01*
X135950000Y-59500000D02*
X130750000Y-59500000D01*
X136150000Y-58600000D02*
X136150000Y-59700000D01*
X136150000Y-59700000D02*
X135150000Y-59700000D01*
X124400000Y-59500000D02*
X124400000Y-39600000D01*
X124400000Y-39600000D02*
X129600000Y-39600000D01*
X129600000Y-39600000D02*
X129600000Y-59500000D01*
X129600000Y-59500000D02*
X124400000Y-59500000D01*
X129800000Y-58600000D02*
X129800000Y-59700000D01*
X129800000Y-59700000D02*
X128800000Y-59700000D01*
X118050000Y-59500000D02*
X118050000Y-39600000D01*
X118050000Y-39600000D02*
X123250000Y-39600000D01*
X123250000Y-39600000D02*
X123250000Y-59500000D01*
X123250000Y-59500000D02*
X118050000Y-59500000D01*
X123450000Y-58600000D02*
X123450000Y-59700000D01*
X123450000Y-59700000D02*
X122450000Y-59700000D01*
X111700000Y-59500000D02*
X111700000Y-39600000D01*
X111700000Y-39600000D02*
X116900000Y-39600000D01*
X116900000Y-39600000D02*
X116900000Y-59500000D01*
X116900000Y-59500000D02*
X111700000Y-59500000D01*
X117100000Y-58600000D02*
X117100000Y-59700000D01*
X117100000Y-59700000D02*
X116100000Y-59700000D01*
X105350000Y-59500000D02*
X105350000Y-39600000D01*
X105350000Y-39600000D02*
X110550000Y-39600000D01*
X110550000Y-39600000D02*
X110550000Y-59500000D01*
X110550000Y-59500000D02*
X105350000Y-59500000D01*
X110750000Y-58600000D02*
X110750000Y-59700000D01*
X110750000Y-59700000D02*
X109750000Y-59700000D01*
X123868922Y-64464000D02*
X124386078Y-64464000D01*
X123868922Y-63044000D02*
X124386078Y-63044000D01*
X76656000Y-62664078D02*
X76656000Y-62146922D01*
X75236000Y-62664078D02*
X75236000Y-62146922D01*
X72717922Y-75386000D02*
X73235078Y-75386000D01*
X72717922Y-73966000D02*
X73235078Y-73966000D01*
X67170250Y-66338750D02*
X67170250Y-67126250D01*
X66776500Y-66732500D02*
X67564000Y-66732500D01*
X67804000Y-70925563D02*
X68868437Y-71990000D01*
X67804000Y-66234437D02*
X68868437Y-65170000D01*
X67804000Y-66234437D02*
X67804000Y-67520000D01*
X67804000Y-70925563D02*
X67804000Y-69640000D01*
X68868437Y-71990000D02*
X74624000Y-71990000D01*
X68868437Y-65170000D02*
X74624000Y-65170000D01*
X74624000Y-65170000D02*
X74624000Y-67520000D01*
X74624000Y-71990000D02*
X74624000Y-69640000D01*
X95430078Y-70156000D02*
X94912922Y-70156000D01*
X95430078Y-71576000D02*
X94912922Y-71576000D01*
X89810000Y-63216064D02*
X89810000Y-62011936D01*
X87990000Y-63216064D02*
X87990000Y-62011936D01*
X93516750Y-67957750D02*
X94304250Y-67957750D01*
X93910500Y-68351500D02*
X93910500Y-67564000D01*
X98103563Y-67324000D02*
X99168000Y-66259563D01*
X93412437Y-67324000D02*
X92348000Y-66259563D01*
X93412437Y-67324000D02*
X94698000Y-67324000D01*
X98103563Y-67324000D02*
X96818000Y-67324000D01*
X99168000Y-66259563D02*
X99168000Y-60504000D01*
X92348000Y-66259563D02*
X92348000Y-60504000D01*
X92348000Y-60504000D02*
X94698000Y-60504000D01*
X99168000Y-60504000D02*
X96818000Y-60504000D01*
D10*
X95019904Y-81224380D02*
X95019904Y-80224380D01*
X95258000Y-80224380D01*
X95400857Y-80272000D01*
X95496095Y-80367238D01*
X95543714Y-80462476D01*
X95591333Y-80652952D01*
X95591333Y-80795809D01*
X95543714Y-80986285D01*
X95496095Y-81081523D01*
X95400857Y-81176761D01*
X95258000Y-81224380D01*
X95019904Y-81224380D01*
X95924666Y-80224380D02*
X96543714Y-80224380D01*
X96210380Y-80605333D01*
X96353238Y-80605333D01*
X96448476Y-80652952D01*
X96496095Y-80700571D01*
X96543714Y-80795809D01*
X96543714Y-81033904D01*
X96496095Y-81129142D01*
X96448476Y-81176761D01*
X96353238Y-81224380D01*
X96067523Y-81224380D01*
X95972285Y-81176761D01*
X95924666Y-81129142D01*
X85875904Y-60650380D02*
X85875904Y-59650380D01*
X86114000Y-59650380D01*
X86256857Y-59698000D01*
X86352095Y-59793238D01*
X86399714Y-59888476D01*
X86447333Y-60078952D01*
X86447333Y-60221809D01*
X86399714Y-60412285D01*
X86352095Y-60507523D01*
X86256857Y-60602761D01*
X86114000Y-60650380D01*
X85875904Y-60650380D01*
X86828285Y-59745619D02*
X86875904Y-59698000D01*
X86971142Y-59650380D01*
X87209238Y-59650380D01*
X87304476Y-59698000D01*
X87352095Y-59745619D01*
X87399714Y-59840857D01*
X87399714Y-59936095D01*
X87352095Y-60078952D01*
X86780666Y-60650380D01*
X87399714Y-60650380D01*
X81271904Y-66198380D02*
X81271904Y-65198380D01*
X81510000Y-65198380D01*
X81652857Y-65246000D01*
X81748095Y-65341238D01*
X81795714Y-65436476D01*
X81843333Y-65626952D01*
X81843333Y-65769809D01*
X81795714Y-65960285D01*
X81748095Y-66055523D01*
X81652857Y-66150761D01*
X81510000Y-66198380D01*
X81271904Y-66198380D01*
X82795714Y-66198380D02*
X82224285Y-66198380D01*
X82510000Y-66198380D02*
X82510000Y-65198380D01*
X82414761Y-65341238D01*
X82319523Y-65436476D01*
X82224285Y-65484095D01*
X99661642Y-67602380D02*
X99328309Y-67126190D01*
X99090214Y-67602380D02*
X99090214Y-66602380D01*
X99471166Y-66602380D01*
X99566404Y-66650000D01*
X99614023Y-66697619D01*
X99661642Y-66792857D01*
X99661642Y-66935714D01*
X99614023Y-67030952D01*
X99566404Y-67078571D01*
X99471166Y-67126190D01*
X99090214Y-67126190D01*
X100614023Y-67602380D02*
X100042595Y-67602380D01*
X100328309Y-67602380D02*
X100328309Y-66602380D01*
X100233071Y-66745238D01*
X100137833Y-66840476D01*
X100042595Y-66888095D01*
X101233071Y-66602380D02*
X101328309Y-66602380D01*
X101423547Y-66650000D01*
X101471166Y-66697619D01*
X101518785Y-66792857D01*
X101566404Y-66983333D01*
X101566404Y-67221428D01*
X101518785Y-67411904D01*
X101471166Y-67507142D01*
X101423547Y-67554761D01*
X101328309Y-67602380D01*
X101233071Y-67602380D01*
X101137833Y-67554761D01*
X101090214Y-67507142D01*
X101042595Y-67411904D01*
X100994976Y-67221428D01*
X100994976Y-66983333D01*
X101042595Y-66792857D01*
X101090214Y-66697619D01*
X101137833Y-66650000D01*
X101233071Y-66602380D01*
X76906380Y-72620095D02*
X75906380Y-72620095D01*
X76906380Y-72048666D02*
X76334952Y-72477238D01*
X75906380Y-72048666D02*
X76477809Y-72620095D01*
X76334952Y-71477238D02*
X76287333Y-71572476D01*
X76239714Y-71620095D01*
X76144476Y-71667714D01*
X76096857Y-71667714D01*
X76001619Y-71620095D01*
X75954000Y-71572476D01*
X75906380Y-71477238D01*
X75906380Y-71286761D01*
X75954000Y-71191523D01*
X76001619Y-71143904D01*
X76096857Y-71096285D01*
X76144476Y-71096285D01*
X76239714Y-71143904D01*
X76287333Y-71191523D01*
X76334952Y-71286761D01*
X76334952Y-71477238D01*
X76382571Y-71572476D01*
X76430190Y-71620095D01*
X76525428Y-71667714D01*
X76715904Y-71667714D01*
X76811142Y-71620095D01*
X76858761Y-71572476D01*
X76906380Y-71477238D01*
X76906380Y-71286761D01*
X76858761Y-71191523D01*
X76811142Y-71143904D01*
X76715904Y-71096285D01*
X76525428Y-71096285D01*
X76430190Y-71143904D01*
X76382571Y-71191523D01*
X76334952Y-71286761D01*
X103631619Y-71739238D02*
X103584000Y-71834476D01*
X103488761Y-71929714D01*
X103345904Y-72072571D01*
X103298285Y-72167809D01*
X103298285Y-72263047D01*
X103536380Y-72215428D02*
X103488761Y-72310666D01*
X103393523Y-72405904D01*
X103203047Y-72453523D01*
X102869714Y-72453523D01*
X102679238Y-72405904D01*
X102584000Y-72310666D01*
X102536380Y-72215428D01*
X102536380Y-72024952D01*
X102584000Y-71929714D01*
X102679238Y-71834476D01*
X102869714Y-71786857D01*
X103203047Y-71786857D01*
X103393523Y-71834476D01*
X103488761Y-71929714D01*
X103536380Y-72024952D01*
X103536380Y-72215428D01*
X103536380Y-70834476D02*
X103536380Y-71405904D01*
X103536380Y-71120190D02*
X102536380Y-71120190D01*
X102679238Y-71215428D01*
X102774476Y-71310666D01*
X102822095Y-71405904D01*
X103417619Y-76041238D02*
X103370000Y-76136476D01*
X103274761Y-76231714D01*
X103131904Y-76374571D01*
X103084285Y-76469809D01*
X103084285Y-76565047D01*
X103322380Y-76517428D02*
X103274761Y-76612666D01*
X103179523Y-76707904D01*
X102989047Y-76755523D01*
X102655714Y-76755523D01*
X102465238Y-76707904D01*
X102370000Y-76612666D01*
X102322380Y-76517428D01*
X102322380Y-76326952D01*
X102370000Y-76231714D01*
X102465238Y-76136476D01*
X102655714Y-76088857D01*
X102989047Y-76088857D01*
X103179523Y-76136476D01*
X103274761Y-76231714D01*
X103322380Y-76326952D01*
X103322380Y-76517428D01*
X102417619Y-75707904D02*
X102370000Y-75660285D01*
X102322380Y-75565047D01*
X102322380Y-75326952D01*
X102370000Y-75231714D01*
X102417619Y-75184095D01*
X102512857Y-75136476D01*
X102608095Y-75136476D01*
X102750952Y-75184095D01*
X103322380Y-75755523D01*
X103322380Y-75136476D01*
X102989142Y-79192380D02*
X102655809Y-78716190D01*
X102417714Y-79192380D02*
X102417714Y-78192380D01*
X102798666Y-78192380D01*
X102893904Y-78240000D01*
X102941523Y-78287619D01*
X102989142Y-78382857D01*
X102989142Y-78525714D01*
X102941523Y-78620952D01*
X102893904Y-78668571D01*
X102798666Y-78716190D01*
X102417714Y-78716190D01*
X103941523Y-79192380D02*
X103370095Y-79192380D01*
X103655809Y-79192380D02*
X103655809Y-78192380D01*
X103560571Y-78335238D01*
X103465333Y-78430476D01*
X103370095Y-78478095D01*
X104893904Y-79192380D02*
X104322476Y-79192380D01*
X104608190Y-79192380D02*
X104608190Y-78192380D01*
X104512952Y-78335238D01*
X104417714Y-78430476D01*
X104322476Y-78478095D01*
X73366380Y-53339904D02*
X74175904Y-53339904D01*
X74271142Y-53292285D01*
X74318761Y-53244666D01*
X74366380Y-53149428D01*
X74366380Y-52958952D01*
X74318761Y-52863714D01*
X74271142Y-52816095D01*
X74175904Y-52768476D01*
X73366380Y-52768476D01*
X74366380Y-51768476D02*
X74366380Y-52339904D01*
X74366380Y-52054190D02*
X73366380Y-52054190D01*
X73509238Y-52149428D01*
X73604476Y-52244666D01*
X73652095Y-52339904D01*
X78771904Y-48182380D02*
X78771904Y-47182380D01*
X78771904Y-47658571D02*
X79343333Y-47658571D01*
X79343333Y-48182380D02*
X79343333Y-47182380D01*
X79771904Y-48134761D02*
X79914761Y-48182380D01*
X80152857Y-48182380D01*
X80248095Y-48134761D01*
X80295714Y-48087142D01*
X80343333Y-47991904D01*
X80343333Y-47896666D01*
X80295714Y-47801428D01*
X80248095Y-47753809D01*
X80152857Y-47706190D01*
X79962380Y-47658571D01*
X79867142Y-47610952D01*
X79819523Y-47563333D01*
X79771904Y-47468095D01*
X79771904Y-47372857D01*
X79819523Y-47277619D01*
X79867142Y-47230000D01*
X79962380Y-47182380D01*
X80200476Y-47182380D01*
X80343333Y-47230000D01*
X81295714Y-48182380D02*
X80724285Y-48182380D01*
X81010000Y-48182380D02*
X81010000Y-47182380D01*
X80914761Y-47325238D01*
X80819523Y-47420476D01*
X80724285Y-47468095D01*
X114198095Y-77412380D02*
X114198095Y-78221904D01*
X114245714Y-78317142D01*
X114293333Y-78364761D01*
X114388571Y-78412380D01*
X114579047Y-78412380D01*
X114674285Y-78364761D01*
X114721904Y-78317142D01*
X114769523Y-78221904D01*
X114769523Y-77412380D01*
X115150476Y-77412380D02*
X115769523Y-77412380D01*
X115436190Y-77793333D01*
X115579047Y-77793333D01*
X115674285Y-77840952D01*
X115721904Y-77888571D01*
X115769523Y-77983809D01*
X115769523Y-78221904D01*
X115721904Y-78317142D01*
X115674285Y-78364761D01*
X115579047Y-78412380D01*
X115293333Y-78412380D01*
X115198095Y-78364761D01*
X115150476Y-78317142D01*
X121002380Y-72311904D02*
X121811904Y-72311904D01*
X121907142Y-72264285D01*
X121954761Y-72216666D01*
X122002380Y-72121428D01*
X122002380Y-71930952D01*
X121954761Y-71835714D01*
X121907142Y-71788095D01*
X121811904Y-71740476D01*
X121002380Y-71740476D01*
X121097619Y-71311904D02*
X121050000Y-71264285D01*
X121002380Y-71169047D01*
X121002380Y-70930952D01*
X121050000Y-70835714D01*
X121097619Y-70788095D01*
X121192857Y-70740476D01*
X121288095Y-70740476D01*
X121430952Y-70788095D01*
X122002380Y-71359523D01*
X122002380Y-70740476D01*
X101004761Y-38298380D02*
X100671428Y-37822190D01*
X100433333Y-38298380D02*
X100433333Y-37298380D01*
X100814285Y-37298380D01*
X100909523Y-37346000D01*
X100957142Y-37393619D01*
X101004761Y-37488857D01*
X101004761Y-37631714D01*
X100957142Y-37726952D01*
X100909523Y-37774571D01*
X100814285Y-37822190D01*
X100433333Y-37822190D01*
X101290476Y-37298380D02*
X101623809Y-38298380D01*
X101957142Y-37298380D01*
X102242857Y-37393619D02*
X102290476Y-37346000D01*
X102385714Y-37298380D01*
X102623809Y-37298380D01*
X102719047Y-37346000D01*
X102766666Y-37393619D01*
X102814285Y-37488857D01*
X102814285Y-37584095D01*
X102766666Y-37726952D01*
X102195238Y-38298380D01*
X102814285Y-38298380D01*
X94654761Y-38298380D02*
X94321428Y-37822190D01*
X94083333Y-38298380D02*
X94083333Y-37298380D01*
X94464285Y-37298380D01*
X94559523Y-37346000D01*
X94607142Y-37393619D01*
X94654761Y-37488857D01*
X94654761Y-37631714D01*
X94607142Y-37726952D01*
X94559523Y-37774571D01*
X94464285Y-37822190D01*
X94083333Y-37822190D01*
X94940476Y-37298380D02*
X95273809Y-38298380D01*
X95607142Y-37298380D01*
X96464285Y-38298380D02*
X95892857Y-38298380D01*
X96178571Y-38298380D02*
X96178571Y-37298380D01*
X96083333Y-37441238D01*
X95988095Y-37536476D01*
X95892857Y-37584095D01*
X105268833Y-69634380D02*
X104935500Y-69158190D01*
X104697404Y-69634380D02*
X104697404Y-68634380D01*
X105078357Y-68634380D01*
X105173595Y-68682000D01*
X105221214Y-68729619D01*
X105268833Y-68824857D01*
X105268833Y-68967714D01*
X105221214Y-69062952D01*
X105173595Y-69110571D01*
X105078357Y-69158190D01*
X104697404Y-69158190D01*
X105745023Y-69634380D02*
X105935500Y-69634380D01*
X106030738Y-69586761D01*
X106078357Y-69539142D01*
X106173595Y-69396285D01*
X106221214Y-69205809D01*
X106221214Y-68824857D01*
X106173595Y-68729619D01*
X106125976Y-68682000D01*
X106030738Y-68634380D01*
X105840261Y-68634380D01*
X105745023Y-68682000D01*
X105697404Y-68729619D01*
X105649785Y-68824857D01*
X105649785Y-69062952D01*
X105697404Y-69158190D01*
X105745023Y-69205809D01*
X105840261Y-69253428D01*
X106030738Y-69253428D01*
X106125976Y-69205809D01*
X106173595Y-69158190D01*
X106221214Y-69062952D01*
X140320833Y-62936380D02*
X139987500Y-62460190D01*
X139749404Y-62936380D02*
X139749404Y-61936380D01*
X140130357Y-61936380D01*
X140225595Y-61984000D01*
X140273214Y-62031619D01*
X140320833Y-62126857D01*
X140320833Y-62269714D01*
X140273214Y-62364952D01*
X140225595Y-62412571D01*
X140130357Y-62460190D01*
X139749404Y-62460190D01*
X140892261Y-62364952D02*
X140797023Y-62317333D01*
X140749404Y-62269714D01*
X140701785Y-62174476D01*
X140701785Y-62126857D01*
X140749404Y-62031619D01*
X140797023Y-61984000D01*
X140892261Y-61936380D01*
X141082738Y-61936380D01*
X141177976Y-61984000D01*
X141225595Y-62031619D01*
X141273214Y-62126857D01*
X141273214Y-62174476D01*
X141225595Y-62269714D01*
X141177976Y-62317333D01*
X141082738Y-62364952D01*
X140892261Y-62364952D01*
X140797023Y-62412571D01*
X140749404Y-62460190D01*
X140701785Y-62555428D01*
X140701785Y-62745904D01*
X140749404Y-62841142D01*
X140797023Y-62888761D01*
X140892261Y-62936380D01*
X141082738Y-62936380D01*
X141177976Y-62888761D01*
X141225595Y-62841142D01*
X141273214Y-62745904D01*
X141273214Y-62555428D01*
X141225595Y-62460190D01*
X141177976Y-62412571D01*
X141082738Y-62364952D01*
X133970833Y-62936380D02*
X133637500Y-62460190D01*
X133399404Y-62936380D02*
X133399404Y-61936380D01*
X133780357Y-61936380D01*
X133875595Y-61984000D01*
X133923214Y-62031619D01*
X133970833Y-62126857D01*
X133970833Y-62269714D01*
X133923214Y-62364952D01*
X133875595Y-62412571D01*
X133780357Y-62460190D01*
X133399404Y-62460190D01*
X134304166Y-61936380D02*
X134970833Y-61936380D01*
X134542261Y-62936380D01*
X127620833Y-62936380D02*
X127287500Y-62460190D01*
X127049404Y-62936380D02*
X127049404Y-61936380D01*
X127430357Y-61936380D01*
X127525595Y-61984000D01*
X127573214Y-62031619D01*
X127620833Y-62126857D01*
X127620833Y-62269714D01*
X127573214Y-62364952D01*
X127525595Y-62412571D01*
X127430357Y-62460190D01*
X127049404Y-62460190D01*
X128477976Y-61936380D02*
X128287500Y-61936380D01*
X128192261Y-61984000D01*
X128144642Y-62031619D01*
X128049404Y-62174476D01*
X128001785Y-62364952D01*
X128001785Y-62745904D01*
X128049404Y-62841142D01*
X128097023Y-62888761D01*
X128192261Y-62936380D01*
X128382738Y-62936380D01*
X128477976Y-62888761D01*
X128525595Y-62841142D01*
X128573214Y-62745904D01*
X128573214Y-62507809D01*
X128525595Y-62412571D01*
X128477976Y-62364952D01*
X128382738Y-62317333D01*
X128192261Y-62317333D01*
X128097023Y-62364952D01*
X128049404Y-62412571D01*
X128001785Y-62507809D01*
X121270833Y-62936380D02*
X120937500Y-62460190D01*
X120699404Y-62936380D02*
X120699404Y-61936380D01*
X121080357Y-61936380D01*
X121175595Y-61984000D01*
X121223214Y-62031619D01*
X121270833Y-62126857D01*
X121270833Y-62269714D01*
X121223214Y-62364952D01*
X121175595Y-62412571D01*
X121080357Y-62460190D01*
X120699404Y-62460190D01*
X122175595Y-61936380D02*
X121699404Y-61936380D01*
X121651785Y-62412571D01*
X121699404Y-62364952D01*
X121794642Y-62317333D01*
X122032738Y-62317333D01*
X122127976Y-62364952D01*
X122175595Y-62412571D01*
X122223214Y-62507809D01*
X122223214Y-62745904D01*
X122175595Y-62841142D01*
X122127976Y-62888761D01*
X122032738Y-62936380D01*
X121794642Y-62936380D01*
X121699404Y-62888761D01*
X121651785Y-62841142D01*
X114920833Y-62936380D02*
X114587500Y-62460190D01*
X114349404Y-62936380D02*
X114349404Y-61936380D01*
X114730357Y-61936380D01*
X114825595Y-61984000D01*
X114873214Y-62031619D01*
X114920833Y-62126857D01*
X114920833Y-62269714D01*
X114873214Y-62364952D01*
X114825595Y-62412571D01*
X114730357Y-62460190D01*
X114349404Y-62460190D01*
X115777976Y-62269714D02*
X115777976Y-62936380D01*
X115539880Y-61888761D02*
X115301785Y-62603047D01*
X115920833Y-62603047D01*
X108570833Y-62936380D02*
X108237500Y-62460190D01*
X107999404Y-62936380D02*
X107999404Y-61936380D01*
X108380357Y-61936380D01*
X108475595Y-61984000D01*
X108523214Y-62031619D01*
X108570833Y-62126857D01*
X108570833Y-62269714D01*
X108523214Y-62364952D01*
X108475595Y-62412571D01*
X108380357Y-62460190D01*
X107999404Y-62460190D01*
X108904166Y-61936380D02*
X109523214Y-61936380D01*
X109189880Y-62317333D01*
X109332738Y-62317333D01*
X109427976Y-62364952D01*
X109475595Y-62412571D01*
X109523214Y-62507809D01*
X109523214Y-62745904D01*
X109475595Y-62841142D01*
X109427976Y-62888761D01*
X109332738Y-62936380D01*
X109047023Y-62936380D01*
X108951785Y-62888761D01*
X108904166Y-62841142D01*
X102220833Y-62936380D02*
X101887500Y-62460190D01*
X101649404Y-62936380D02*
X101649404Y-61936380D01*
X102030357Y-61936380D01*
X102125595Y-61984000D01*
X102173214Y-62031619D01*
X102220833Y-62126857D01*
X102220833Y-62269714D01*
X102173214Y-62364952D01*
X102125595Y-62412571D01*
X102030357Y-62460190D01*
X101649404Y-62460190D01*
X102601785Y-62031619D02*
X102649404Y-61984000D01*
X102744642Y-61936380D01*
X102982738Y-61936380D01*
X103077976Y-61984000D01*
X103125595Y-62031619D01*
X103173214Y-62126857D01*
X103173214Y-62222095D01*
X103125595Y-62364952D01*
X102554166Y-62936380D01*
X103173214Y-62936380D01*
X88479333Y-53538380D02*
X88146000Y-53062190D01*
X87907904Y-53538380D02*
X87907904Y-52538380D01*
X88288857Y-52538380D01*
X88384095Y-52586000D01*
X88431714Y-52633619D01*
X88479333Y-52728857D01*
X88479333Y-52871714D01*
X88431714Y-52966952D01*
X88384095Y-53014571D01*
X88288857Y-53062190D01*
X87907904Y-53062190D01*
X89431714Y-53538380D02*
X88860285Y-53538380D01*
X89146000Y-53538380D02*
X89146000Y-52538380D01*
X89050761Y-52681238D01*
X88955523Y-52776476D01*
X88860285Y-52824095D01*
X145311904Y-39060380D02*
X145311904Y-38060380D01*
X145883333Y-39060380D02*
X145454761Y-38488952D01*
X145883333Y-38060380D02*
X145311904Y-38631809D01*
X146216666Y-38060380D02*
X146883333Y-38060380D01*
X146454761Y-39060380D01*
X138961904Y-39060380D02*
X138961904Y-38060380D01*
X139533333Y-39060380D02*
X139104761Y-38488952D01*
X139533333Y-38060380D02*
X138961904Y-38631809D01*
X140390476Y-38060380D02*
X140200000Y-38060380D01*
X140104761Y-38108000D01*
X140057142Y-38155619D01*
X139961904Y-38298476D01*
X139914285Y-38488952D01*
X139914285Y-38869904D01*
X139961904Y-38965142D01*
X140009523Y-39012761D01*
X140104761Y-39060380D01*
X140295238Y-39060380D01*
X140390476Y-39012761D01*
X140438095Y-38965142D01*
X140485714Y-38869904D01*
X140485714Y-38631809D01*
X140438095Y-38536571D01*
X140390476Y-38488952D01*
X140295238Y-38441333D01*
X140104761Y-38441333D01*
X140009523Y-38488952D01*
X139961904Y-38536571D01*
X139914285Y-38631809D01*
X132611904Y-39060380D02*
X132611904Y-38060380D01*
X133183333Y-39060380D02*
X132754761Y-38488952D01*
X133183333Y-38060380D02*
X132611904Y-38631809D01*
X134088095Y-38060380D02*
X133611904Y-38060380D01*
X133564285Y-38536571D01*
X133611904Y-38488952D01*
X133707142Y-38441333D01*
X133945238Y-38441333D01*
X134040476Y-38488952D01*
X134088095Y-38536571D01*
X134135714Y-38631809D01*
X134135714Y-38869904D01*
X134088095Y-38965142D01*
X134040476Y-39012761D01*
X133945238Y-39060380D01*
X133707142Y-39060380D01*
X133611904Y-39012761D01*
X133564285Y-38965142D01*
X126261904Y-39060380D02*
X126261904Y-38060380D01*
X126833333Y-39060380D02*
X126404761Y-38488952D01*
X126833333Y-38060380D02*
X126261904Y-38631809D01*
X127690476Y-38393714D02*
X127690476Y-39060380D01*
X127452380Y-38012761D02*
X127214285Y-38727047D01*
X127833333Y-38727047D01*
X119911904Y-39060380D02*
X119911904Y-38060380D01*
X120483333Y-39060380D02*
X120054761Y-38488952D01*
X120483333Y-38060380D02*
X119911904Y-38631809D01*
X120816666Y-38060380D02*
X121435714Y-38060380D01*
X121102380Y-38441333D01*
X121245238Y-38441333D01*
X121340476Y-38488952D01*
X121388095Y-38536571D01*
X121435714Y-38631809D01*
X121435714Y-38869904D01*
X121388095Y-38965142D01*
X121340476Y-39012761D01*
X121245238Y-39060380D01*
X120959523Y-39060380D01*
X120864285Y-39012761D01*
X120816666Y-38965142D01*
X113561904Y-39060380D02*
X113561904Y-38060380D01*
X114133333Y-39060380D02*
X113704761Y-38488952D01*
X114133333Y-38060380D02*
X113561904Y-38631809D01*
X114514285Y-38155619D02*
X114561904Y-38108000D01*
X114657142Y-38060380D01*
X114895238Y-38060380D01*
X114990476Y-38108000D01*
X115038095Y-38155619D01*
X115085714Y-38250857D01*
X115085714Y-38346095D01*
X115038095Y-38488952D01*
X114466666Y-39060380D01*
X115085714Y-39060380D01*
X107211904Y-39060380D02*
X107211904Y-38060380D01*
X107783333Y-39060380D02*
X107354761Y-38488952D01*
X107783333Y-38060380D02*
X107211904Y-38631809D01*
X108735714Y-39060380D02*
X108164285Y-39060380D01*
X108450000Y-39060380D02*
X108450000Y-38060380D01*
X108354761Y-38203238D01*
X108259523Y-38298476D01*
X108164285Y-38346095D01*
X103716506Y-85898860D02*
X103716506Y-86613146D01*
X103668887Y-86756003D01*
X103573649Y-86851241D01*
X103430792Y-86898860D01*
X103335554Y-86898860D01*
X104716506Y-86898860D02*
X104145078Y-86898860D01*
X104430792Y-86898860D02*
X104430792Y-85898860D01*
X104335554Y-86041718D01*
X104240316Y-86136956D01*
X104145078Y-86184575D01*
X124039333Y-62461142D02*
X123991714Y-62508761D01*
X123848857Y-62556380D01*
X123753619Y-62556380D01*
X123610761Y-62508761D01*
X123515523Y-62413523D01*
X123467904Y-62318285D01*
X123420285Y-62127809D01*
X123420285Y-61984952D01*
X123467904Y-61794476D01*
X123515523Y-61699238D01*
X123610761Y-61604000D01*
X123753619Y-61556380D01*
X123848857Y-61556380D01*
X123991714Y-61604000D01*
X124039333Y-61651619D01*
X124372666Y-61556380D02*
X125039333Y-61556380D01*
X124610761Y-62556380D01*
X74653142Y-62572166D02*
X74700761Y-62619785D01*
X74748380Y-62762642D01*
X74748380Y-62857880D01*
X74700761Y-63000738D01*
X74605523Y-63095976D01*
X74510285Y-63143595D01*
X74319809Y-63191214D01*
X74176952Y-63191214D01*
X73986476Y-63143595D01*
X73891238Y-63095976D01*
X73796000Y-63000738D01*
X73748380Y-62857880D01*
X73748380Y-62762642D01*
X73796000Y-62619785D01*
X73843619Y-62572166D01*
X73748380Y-61715023D02*
X73748380Y-61905500D01*
X73796000Y-62000738D01*
X73843619Y-62048357D01*
X73986476Y-62143595D01*
X74176952Y-62191214D01*
X74557904Y-62191214D01*
X74653142Y-62143595D01*
X74700761Y-62095976D01*
X74748380Y-62000738D01*
X74748380Y-61810261D01*
X74700761Y-61715023D01*
X74653142Y-61667404D01*
X74557904Y-61619785D01*
X74319809Y-61619785D01*
X74224571Y-61667404D01*
X74176952Y-61715023D01*
X74129333Y-61810261D01*
X74129333Y-62000738D01*
X74176952Y-62095976D01*
X74224571Y-62143595D01*
X74319809Y-62191214D01*
X72809833Y-73383142D02*
X72762214Y-73430761D01*
X72619357Y-73478380D01*
X72524119Y-73478380D01*
X72381261Y-73430761D01*
X72286023Y-73335523D01*
X72238404Y-73240285D01*
X72190785Y-73049809D01*
X72190785Y-72906952D01*
X72238404Y-72716476D01*
X72286023Y-72621238D01*
X72381261Y-72526000D01*
X72524119Y-72478380D01*
X72619357Y-72478380D01*
X72762214Y-72526000D01*
X72809833Y-72573619D01*
X73714595Y-72478380D02*
X73238404Y-72478380D01*
X73190785Y-72954571D01*
X73238404Y-72906952D01*
X73333642Y-72859333D01*
X73571738Y-72859333D01*
X73666976Y-72906952D01*
X73714595Y-72954571D01*
X73762214Y-73049809D01*
X73762214Y-73287904D01*
X73714595Y-73383142D01*
X73666976Y-73430761D01*
X73571738Y-73478380D01*
X73333642Y-73478380D01*
X73238404Y-73430761D01*
X73190785Y-73383142D01*
X71047333Y-64587142D02*
X70999714Y-64634761D01*
X70856857Y-64682380D01*
X70761619Y-64682380D01*
X70618761Y-64634761D01*
X70523523Y-64539523D01*
X70475904Y-64444285D01*
X70428285Y-64253809D01*
X70428285Y-64110952D01*
X70475904Y-63920476D01*
X70523523Y-63825238D01*
X70618761Y-63730000D01*
X70761619Y-63682380D01*
X70856857Y-63682380D01*
X70999714Y-63730000D01*
X71047333Y-63777619D01*
X71904476Y-64015714D02*
X71904476Y-64682380D01*
X71666380Y-63634761D02*
X71428285Y-64349047D01*
X72047333Y-64349047D01*
X97623333Y-70207142D02*
X97575714Y-70254761D01*
X97432857Y-70302380D01*
X97337619Y-70302380D01*
X97194761Y-70254761D01*
X97099523Y-70159523D01*
X97051904Y-70064285D01*
X97004285Y-69873809D01*
X97004285Y-69730952D01*
X97051904Y-69540476D01*
X97099523Y-69445238D01*
X97194761Y-69350000D01*
X97337619Y-69302380D01*
X97432857Y-69302380D01*
X97575714Y-69350000D01*
X97623333Y-69397619D01*
X97956666Y-69302380D02*
X98575714Y-69302380D01*
X98242380Y-69683333D01*
X98385238Y-69683333D01*
X98480476Y-69730952D01*
X98528095Y-69778571D01*
X98575714Y-69873809D01*
X98575714Y-70111904D01*
X98528095Y-70207142D01*
X98480476Y-70254761D01*
X98385238Y-70302380D01*
X98099523Y-70302380D01*
X98004285Y-70254761D01*
X97956666Y-70207142D01*
X87437142Y-62780666D02*
X87484761Y-62828285D01*
X87532380Y-62971142D01*
X87532380Y-63066380D01*
X87484761Y-63209238D01*
X87389523Y-63304476D01*
X87294285Y-63352095D01*
X87103809Y-63399714D01*
X86960952Y-63399714D01*
X86770476Y-63352095D01*
X86675238Y-63304476D01*
X86580000Y-63209238D01*
X86532380Y-63066380D01*
X86532380Y-62971142D01*
X86580000Y-62828285D01*
X86627619Y-62780666D01*
X86627619Y-62399714D02*
X86580000Y-62352095D01*
X86532380Y-62256857D01*
X86532380Y-62018761D01*
X86580000Y-61923523D01*
X86627619Y-61875904D01*
X86722857Y-61828285D01*
X86818095Y-61828285D01*
X86960952Y-61875904D01*
X87532380Y-62447333D01*
X87532380Y-61828285D01*
X91765142Y-64080666D02*
X91812761Y-64128285D01*
X91860380Y-64271142D01*
X91860380Y-64366380D01*
X91812761Y-64509238D01*
X91717523Y-64604476D01*
X91622285Y-64652095D01*
X91431809Y-64699714D01*
X91288952Y-64699714D01*
X91098476Y-64652095D01*
X91003238Y-64604476D01*
X90908000Y-64509238D01*
X90860380Y-64366380D01*
X90860380Y-64271142D01*
X90908000Y-64128285D01*
X90955619Y-64080666D01*
X91860380Y-63128285D02*
X91860380Y-63699714D01*
X91860380Y-63414000D02*
X90860380Y-63414000D01*
X91003238Y-63509238D01*
X91098476Y-63604476D01*
X91146095Y-63699714D01*
M02*
