G04 #@! TF.GenerationSoftware,KiCad,Pcbnew,(5.1.5)-3*
G04 #@! TF.CreationDate,2020-02-22T15:11:55-08:00*
G04 #@! TF.ProjectId,voltages,766f6c74-6167-4657-932e-6b696361645f,rev?*
G04 #@! TF.SameCoordinates,Original*
G04 #@! TF.FileFunction,Soldermask,Top*
G04 #@! TF.FilePolarity,Negative*
%FSLAX46Y46*%
G04 Gerber Fmt 4.6, Leading zero omitted, Abs format (unit mm)*
G04 Created by KiCad (PCBNEW (5.1.5)-3) date 2020-02-22 15:11:55*
%MOMM*%
%LPD*%
G04 APERTURE LIST*
%ADD10C,0.100000*%
G04 APERTURE END LIST*
D10*
G36*
X118450840Y-92147480D02*
G01*
X117648840Y-92147480D01*
X117648840Y-91172479D01*
X117646438Y-91148093D01*
X117639325Y-91124644D01*
X117627774Y-91103033D01*
X117612229Y-91084091D01*
X117593287Y-91068546D01*
X117571676Y-91056995D01*
X117548227Y-91049882D01*
X117523841Y-91047480D01*
X116575839Y-91047480D01*
X116551453Y-91049882D01*
X116528004Y-91056995D01*
X116506393Y-91068546D01*
X116487451Y-91084091D01*
X116471906Y-91103033D01*
X116460355Y-91124644D01*
X116453242Y-91148093D01*
X116450840Y-91172479D01*
X116450840Y-92147480D01*
X111648840Y-92147480D01*
X111648840Y-87745480D01*
X118450840Y-87745480D01*
X118450840Y-92147480D01*
G37*
G36*
X109450840Y-92147480D02*
G01*
X98648840Y-92147480D01*
X98648840Y-87745480D01*
X109450840Y-87745480D01*
X109450840Y-92147480D01*
G37*
G36*
X96709000Y-79373000D02*
G01*
X94807000Y-79373000D01*
X94807000Y-76771000D01*
X96709000Y-76771000D01*
X96709000Y-79373000D01*
G37*
G36*
X101688091Y-78218085D02*
G01*
X101722069Y-78228393D01*
X101753390Y-78245134D01*
X101780839Y-78267661D01*
X101803366Y-78295110D01*
X101820107Y-78326431D01*
X101830415Y-78360409D01*
X101834500Y-78401890D01*
X101834500Y-79078110D01*
X101830415Y-79119591D01*
X101820107Y-79153569D01*
X101803366Y-79184890D01*
X101780839Y-79212339D01*
X101753390Y-79234866D01*
X101722069Y-79251607D01*
X101688091Y-79261915D01*
X101646610Y-79266000D01*
X101045390Y-79266000D01*
X101003909Y-79261915D01*
X100969931Y-79251607D01*
X100938610Y-79234866D01*
X100911161Y-79212339D01*
X100888634Y-79184890D01*
X100871893Y-79153569D01*
X100861585Y-79119591D01*
X100857500Y-79078110D01*
X100857500Y-78401890D01*
X100861585Y-78360409D01*
X100871893Y-78326431D01*
X100888634Y-78295110D01*
X100911161Y-78267661D01*
X100938610Y-78245134D01*
X100969931Y-78228393D01*
X101003909Y-78218085D01*
X101045390Y-78214000D01*
X101646610Y-78214000D01*
X101688091Y-78218085D01*
G37*
G36*
X100113091Y-78218085D02*
G01*
X100147069Y-78228393D01*
X100178390Y-78245134D01*
X100205839Y-78267661D01*
X100228366Y-78295110D01*
X100245107Y-78326431D01*
X100255415Y-78360409D01*
X100259500Y-78401890D01*
X100259500Y-79078110D01*
X100255415Y-79119591D01*
X100245107Y-79153569D01*
X100228366Y-79184890D01*
X100205839Y-79212339D01*
X100178390Y-79234866D01*
X100147069Y-79251607D01*
X100113091Y-79261915D01*
X100071610Y-79266000D01*
X99470390Y-79266000D01*
X99428909Y-79261915D01*
X99394931Y-79251607D01*
X99363610Y-79234866D01*
X99336161Y-79212339D01*
X99313634Y-79184890D01*
X99296893Y-79153569D01*
X99286585Y-79119591D01*
X99282500Y-79078110D01*
X99282500Y-78401890D01*
X99286585Y-78360409D01*
X99296893Y-78326431D01*
X99313634Y-78295110D01*
X99336161Y-78267661D01*
X99363610Y-78245134D01*
X99394931Y-78228393D01*
X99428909Y-78218085D01*
X99470390Y-78214000D01*
X100071610Y-78214000D01*
X100113091Y-78218085D01*
G37*
G36*
X132339928Y-75126764D02*
G01*
X132361009Y-75133160D01*
X132380445Y-75143548D01*
X132397476Y-75157524D01*
X132411452Y-75174555D01*
X132421840Y-75193991D01*
X132428236Y-75215072D01*
X132431000Y-75243140D01*
X132431000Y-77156860D01*
X132428236Y-77184928D01*
X132421840Y-77206009D01*
X132411452Y-77225445D01*
X132397476Y-77242476D01*
X132380445Y-77256452D01*
X132361009Y-77266840D01*
X132339928Y-77273236D01*
X132311860Y-77276000D01*
X131848140Y-77276000D01*
X131820072Y-77273236D01*
X131798991Y-77266840D01*
X131779555Y-77256452D01*
X131762524Y-77242476D01*
X131748548Y-77225445D01*
X131738160Y-77206009D01*
X131731764Y-77184928D01*
X131729000Y-77156860D01*
X131729000Y-75243140D01*
X131731764Y-75215072D01*
X131738160Y-75193991D01*
X131748548Y-75174555D01*
X131762524Y-75157524D01*
X131779555Y-75143548D01*
X131798991Y-75133160D01*
X131820072Y-75126764D01*
X131848140Y-75124000D01*
X132311860Y-75124000D01*
X132339928Y-75126764D01*
G37*
G36*
X131069928Y-75126764D02*
G01*
X131091009Y-75133160D01*
X131110445Y-75143548D01*
X131127476Y-75157524D01*
X131141452Y-75174555D01*
X131151840Y-75193991D01*
X131158236Y-75215072D01*
X131161000Y-75243140D01*
X131161000Y-77156860D01*
X131158236Y-77184928D01*
X131151840Y-77206009D01*
X131141452Y-77225445D01*
X131127476Y-77242476D01*
X131110445Y-77256452D01*
X131091009Y-77266840D01*
X131069928Y-77273236D01*
X131041860Y-77276000D01*
X130578140Y-77276000D01*
X130550072Y-77273236D01*
X130528991Y-77266840D01*
X130509555Y-77256452D01*
X130492524Y-77242476D01*
X130478548Y-77225445D01*
X130468160Y-77206009D01*
X130461764Y-77184928D01*
X130459000Y-77156860D01*
X130459000Y-75243140D01*
X130461764Y-75215072D01*
X130468160Y-75193991D01*
X130478548Y-75174555D01*
X130492524Y-75157524D01*
X130509555Y-75143548D01*
X130528991Y-75133160D01*
X130550072Y-75126764D01*
X130578140Y-75124000D01*
X131041860Y-75124000D01*
X131069928Y-75126764D01*
G37*
G36*
X129799928Y-75126764D02*
G01*
X129821009Y-75133160D01*
X129840445Y-75143548D01*
X129857476Y-75157524D01*
X129871452Y-75174555D01*
X129881840Y-75193991D01*
X129888236Y-75215072D01*
X129891000Y-75243140D01*
X129891000Y-77156860D01*
X129888236Y-77184928D01*
X129881840Y-77206009D01*
X129871452Y-77225445D01*
X129857476Y-77242476D01*
X129840445Y-77256452D01*
X129821009Y-77266840D01*
X129799928Y-77273236D01*
X129771860Y-77276000D01*
X129308140Y-77276000D01*
X129280072Y-77273236D01*
X129258991Y-77266840D01*
X129239555Y-77256452D01*
X129222524Y-77242476D01*
X129208548Y-77225445D01*
X129198160Y-77206009D01*
X129191764Y-77184928D01*
X129189000Y-77156860D01*
X129189000Y-75243140D01*
X129191764Y-75215072D01*
X129198160Y-75193991D01*
X129208548Y-75174555D01*
X129222524Y-75157524D01*
X129239555Y-75143548D01*
X129258991Y-75133160D01*
X129280072Y-75126764D01*
X129308140Y-75124000D01*
X129771860Y-75124000D01*
X129799928Y-75126764D01*
G37*
G36*
X128529928Y-75126764D02*
G01*
X128551009Y-75133160D01*
X128570445Y-75143548D01*
X128587476Y-75157524D01*
X128601452Y-75174555D01*
X128611840Y-75193991D01*
X128618236Y-75215072D01*
X128621000Y-75243140D01*
X128621000Y-77156860D01*
X128618236Y-77184928D01*
X128611840Y-77206009D01*
X128601452Y-77225445D01*
X128587476Y-77242476D01*
X128570445Y-77256452D01*
X128551009Y-77266840D01*
X128529928Y-77273236D01*
X128501860Y-77276000D01*
X128038140Y-77276000D01*
X128010072Y-77273236D01*
X127988991Y-77266840D01*
X127969555Y-77256452D01*
X127952524Y-77242476D01*
X127938548Y-77225445D01*
X127928160Y-77206009D01*
X127921764Y-77184928D01*
X127919000Y-77156860D01*
X127919000Y-75243140D01*
X127921764Y-75215072D01*
X127928160Y-75193991D01*
X127938548Y-75174555D01*
X127952524Y-75157524D01*
X127969555Y-75143548D01*
X127988991Y-75133160D01*
X128010072Y-75126764D01*
X128038140Y-75124000D01*
X128501860Y-75124000D01*
X128529928Y-75126764D01*
G37*
G36*
X127259928Y-75126764D02*
G01*
X127281009Y-75133160D01*
X127300445Y-75143548D01*
X127317476Y-75157524D01*
X127331452Y-75174555D01*
X127341840Y-75193991D01*
X127348236Y-75215072D01*
X127351000Y-75243140D01*
X127351000Y-77156860D01*
X127348236Y-77184928D01*
X127341840Y-77206009D01*
X127331452Y-77225445D01*
X127317476Y-77242476D01*
X127300445Y-77256452D01*
X127281009Y-77266840D01*
X127259928Y-77273236D01*
X127231860Y-77276000D01*
X126768140Y-77276000D01*
X126740072Y-77273236D01*
X126718991Y-77266840D01*
X126699555Y-77256452D01*
X126682524Y-77242476D01*
X126668548Y-77225445D01*
X126658160Y-77206009D01*
X126651764Y-77184928D01*
X126649000Y-77156860D01*
X126649000Y-75243140D01*
X126651764Y-75215072D01*
X126658160Y-75193991D01*
X126668548Y-75174555D01*
X126682524Y-75157524D01*
X126699555Y-75143548D01*
X126718991Y-75133160D01*
X126740072Y-75126764D01*
X126768140Y-75124000D01*
X127231860Y-75124000D01*
X127259928Y-75126764D01*
G37*
G36*
X125989928Y-75126764D02*
G01*
X126011009Y-75133160D01*
X126030445Y-75143548D01*
X126047476Y-75157524D01*
X126061452Y-75174555D01*
X126071840Y-75193991D01*
X126078236Y-75215072D01*
X126081000Y-75243140D01*
X126081000Y-77156860D01*
X126078236Y-77184928D01*
X126071840Y-77206009D01*
X126061452Y-77225445D01*
X126047476Y-77242476D01*
X126030445Y-77256452D01*
X126011009Y-77266840D01*
X125989928Y-77273236D01*
X125961860Y-77276000D01*
X125498140Y-77276000D01*
X125470072Y-77273236D01*
X125448991Y-77266840D01*
X125429555Y-77256452D01*
X125412524Y-77242476D01*
X125398548Y-77225445D01*
X125388160Y-77206009D01*
X125381764Y-77184928D01*
X125379000Y-77156860D01*
X125379000Y-75243140D01*
X125381764Y-75215072D01*
X125388160Y-75193991D01*
X125398548Y-75174555D01*
X125412524Y-75157524D01*
X125429555Y-75143548D01*
X125448991Y-75133160D01*
X125470072Y-75126764D01*
X125498140Y-75124000D01*
X125961860Y-75124000D01*
X125989928Y-75126764D01*
G37*
G36*
X124719928Y-75126764D02*
G01*
X124741009Y-75133160D01*
X124760445Y-75143548D01*
X124777476Y-75157524D01*
X124791452Y-75174555D01*
X124801840Y-75193991D01*
X124808236Y-75215072D01*
X124811000Y-75243140D01*
X124811000Y-77156860D01*
X124808236Y-77184928D01*
X124801840Y-77206009D01*
X124791452Y-77225445D01*
X124777476Y-77242476D01*
X124760445Y-77256452D01*
X124741009Y-77266840D01*
X124719928Y-77273236D01*
X124691860Y-77276000D01*
X124228140Y-77276000D01*
X124200072Y-77273236D01*
X124178991Y-77266840D01*
X124159555Y-77256452D01*
X124142524Y-77242476D01*
X124128548Y-77225445D01*
X124118160Y-77206009D01*
X124111764Y-77184928D01*
X124109000Y-77156860D01*
X124109000Y-75243140D01*
X124111764Y-75215072D01*
X124118160Y-75193991D01*
X124128548Y-75174555D01*
X124142524Y-75157524D01*
X124159555Y-75143548D01*
X124178991Y-75133160D01*
X124200072Y-75126764D01*
X124228140Y-75124000D01*
X124691860Y-75124000D01*
X124719928Y-75126764D01*
G37*
G36*
X133609928Y-75126764D02*
G01*
X133631009Y-75133160D01*
X133650445Y-75143548D01*
X133667476Y-75157524D01*
X133681452Y-75174555D01*
X133691840Y-75193991D01*
X133698236Y-75215072D01*
X133701000Y-75243140D01*
X133701000Y-77156860D01*
X133698236Y-77184928D01*
X133691840Y-77206009D01*
X133681452Y-77225445D01*
X133667476Y-77242476D01*
X133650445Y-77256452D01*
X133631009Y-77266840D01*
X133609928Y-77273236D01*
X133581860Y-77276000D01*
X133118140Y-77276000D01*
X133090072Y-77273236D01*
X133068991Y-77266840D01*
X133049555Y-77256452D01*
X133032524Y-77242476D01*
X133018548Y-77225445D01*
X133008160Y-77206009D01*
X133001764Y-77184928D01*
X132999000Y-77156860D01*
X132999000Y-75243140D01*
X133001764Y-75215072D01*
X133008160Y-75193991D01*
X133018548Y-75174555D01*
X133032524Y-75157524D01*
X133049555Y-75143548D01*
X133068991Y-75133160D01*
X133090072Y-75126764D01*
X133118140Y-75124000D01*
X133581860Y-75124000D01*
X133609928Y-75126764D01*
G37*
G36*
X123449928Y-75126764D02*
G01*
X123471009Y-75133160D01*
X123490445Y-75143548D01*
X123507476Y-75157524D01*
X123521452Y-75174555D01*
X123531840Y-75193991D01*
X123538236Y-75215072D01*
X123541000Y-75243140D01*
X123541000Y-77156860D01*
X123538236Y-77184928D01*
X123531840Y-77206009D01*
X123521452Y-77225445D01*
X123507476Y-77242476D01*
X123490445Y-77256452D01*
X123471009Y-77266840D01*
X123449928Y-77273236D01*
X123421860Y-77276000D01*
X122958140Y-77276000D01*
X122930072Y-77273236D01*
X122908991Y-77266840D01*
X122889555Y-77256452D01*
X122872524Y-77242476D01*
X122858548Y-77225445D01*
X122848160Y-77206009D01*
X122841764Y-77184928D01*
X122839000Y-77156860D01*
X122839000Y-75243140D01*
X122841764Y-75215072D01*
X122848160Y-75193991D01*
X122858548Y-75174555D01*
X122872524Y-75157524D01*
X122889555Y-75143548D01*
X122908991Y-75133160D01*
X122930072Y-75126764D01*
X122958140Y-75124000D01*
X123421860Y-75124000D01*
X123449928Y-75126764D01*
G37*
G36*
X101847000Y-77159000D02*
G01*
X100845000Y-77159000D01*
X100845000Y-76257000D01*
X101847000Y-76257000D01*
X101847000Y-77159000D01*
G37*
G36*
X112511000Y-76661000D02*
G01*
X111109000Y-76661000D01*
X111109000Y-75759000D01*
X112511000Y-75759000D01*
X112511000Y-76661000D01*
G37*
G36*
X118811000Y-76661000D02*
G01*
X117409000Y-76661000D01*
X117409000Y-75759000D01*
X118811000Y-75759000D01*
X118811000Y-76661000D01*
G37*
G36*
X88812822Y-74249313D02*
G01*
X88973241Y-74297976D01*
X89121077Y-74376995D01*
X89250659Y-74483341D01*
X89357004Y-74612922D01*
X89357005Y-74612924D01*
X89436024Y-74760758D01*
X89484687Y-74921177D01*
X89497000Y-75046196D01*
X89497000Y-75829803D01*
X89484687Y-75954822D01*
X89436024Y-76115242D01*
X89385909Y-76209000D01*
X89357004Y-76263078D01*
X89250659Y-76392659D01*
X89121078Y-76499004D01*
X89121076Y-76499005D01*
X88973242Y-76578024D01*
X88812823Y-76626687D01*
X88646000Y-76643117D01*
X88479178Y-76626687D01*
X88318759Y-76578024D01*
X88170925Y-76499005D01*
X88170923Y-76499004D01*
X88041342Y-76392659D01*
X87934997Y-76263078D01*
X87906092Y-76209000D01*
X87855975Y-76115239D01*
X87807313Y-75954826D01*
X87795000Y-75829804D01*
X87795000Y-75046197D01*
X87807313Y-74921178D01*
X87855976Y-74760759D01*
X87934995Y-74612923D01*
X88041341Y-74483341D01*
X88170922Y-74376996D01*
X88208332Y-74357000D01*
X88318758Y-74297976D01*
X88479177Y-74249313D01*
X88646000Y-74232883D01*
X88812822Y-74249313D01*
G37*
G36*
X91352822Y-74249313D02*
G01*
X91513241Y-74297976D01*
X91661077Y-74376995D01*
X91790659Y-74483341D01*
X91897004Y-74612922D01*
X91897005Y-74612924D01*
X91976024Y-74760758D01*
X92024687Y-74921177D01*
X92037000Y-75046196D01*
X92037000Y-75829803D01*
X92024687Y-75954822D01*
X91976024Y-76115242D01*
X91925909Y-76209000D01*
X91897004Y-76263078D01*
X91790659Y-76392659D01*
X91661078Y-76499004D01*
X91661076Y-76499005D01*
X91513242Y-76578024D01*
X91352823Y-76626687D01*
X91186000Y-76643117D01*
X91019178Y-76626687D01*
X90858759Y-76578024D01*
X90710925Y-76499005D01*
X90710923Y-76499004D01*
X90581342Y-76392659D01*
X90474997Y-76263078D01*
X90446092Y-76209000D01*
X90395975Y-76115239D01*
X90347313Y-75954826D01*
X90335000Y-75829804D01*
X90335000Y-75046197D01*
X90347313Y-74921178D01*
X90395976Y-74760759D01*
X90474995Y-74612923D01*
X90581341Y-74483341D01*
X90710922Y-74376996D01*
X90748332Y-74357000D01*
X90858758Y-74297976D01*
X91019177Y-74249313D01*
X91186000Y-74232883D01*
X91352822Y-74249313D01*
G37*
G36*
X78652822Y-74249313D02*
G01*
X78813241Y-74297976D01*
X78961077Y-74376995D01*
X79090659Y-74483341D01*
X79197004Y-74612922D01*
X79197005Y-74612924D01*
X79276024Y-74760758D01*
X79324687Y-74921177D01*
X79337000Y-75046196D01*
X79337000Y-75829803D01*
X79324687Y-75954822D01*
X79276024Y-76115242D01*
X79225909Y-76209000D01*
X79197004Y-76263078D01*
X79090659Y-76392659D01*
X78961078Y-76499004D01*
X78961076Y-76499005D01*
X78813242Y-76578024D01*
X78652823Y-76626687D01*
X78486000Y-76643117D01*
X78319178Y-76626687D01*
X78158759Y-76578024D01*
X78010925Y-76499005D01*
X78010923Y-76499004D01*
X77881342Y-76392659D01*
X77774997Y-76263078D01*
X77746092Y-76209000D01*
X77695975Y-76115239D01*
X77647313Y-75954826D01*
X77635000Y-75829804D01*
X77635000Y-75046197D01*
X77647313Y-74921178D01*
X77695976Y-74760759D01*
X77774995Y-74612923D01*
X77881341Y-74483341D01*
X78010922Y-74376996D01*
X78048332Y-74357000D01*
X78158758Y-74297976D01*
X78319177Y-74249313D01*
X78486000Y-74232883D01*
X78652822Y-74249313D01*
G37*
G36*
X99847000Y-76209000D02*
G01*
X98845000Y-76209000D01*
X98845000Y-75307000D01*
X99847000Y-75307000D01*
X99847000Y-76209000D01*
G37*
G36*
X72410968Y-73929565D02*
G01*
X72449638Y-73941296D01*
X72485277Y-73960346D01*
X72516517Y-73985983D01*
X72542154Y-74017223D01*
X72561204Y-74052862D01*
X72572935Y-74091532D01*
X72577500Y-74137888D01*
X72577500Y-75214112D01*
X72572935Y-75260468D01*
X72561204Y-75299138D01*
X72542154Y-75334777D01*
X72516517Y-75366017D01*
X72485277Y-75391654D01*
X72449638Y-75410704D01*
X72410968Y-75422435D01*
X72364612Y-75427000D01*
X71713388Y-75427000D01*
X71667032Y-75422435D01*
X71628362Y-75410704D01*
X71592723Y-75391654D01*
X71561483Y-75366017D01*
X71535846Y-75334777D01*
X71516796Y-75299138D01*
X71505065Y-75260468D01*
X71500500Y-75214112D01*
X71500500Y-74137888D01*
X71505065Y-74091532D01*
X71516796Y-74052862D01*
X71535846Y-74017223D01*
X71561483Y-73985983D01*
X71592723Y-73960346D01*
X71628362Y-73941296D01*
X71667032Y-73929565D01*
X71713388Y-73925000D01*
X72364612Y-73925000D01*
X72410968Y-73929565D01*
G37*
G36*
X74285968Y-73929565D02*
G01*
X74324638Y-73941296D01*
X74360277Y-73960346D01*
X74391517Y-73985983D01*
X74417154Y-74017223D01*
X74436204Y-74052862D01*
X74447935Y-74091532D01*
X74452500Y-74137888D01*
X74452500Y-75214112D01*
X74447935Y-75260468D01*
X74436204Y-75299138D01*
X74417154Y-75334777D01*
X74391517Y-75366017D01*
X74360277Y-75391654D01*
X74324638Y-75410704D01*
X74285968Y-75422435D01*
X74239612Y-75427000D01*
X73588388Y-75427000D01*
X73542032Y-75422435D01*
X73503362Y-75410704D01*
X73467723Y-75391654D01*
X73436483Y-75366017D01*
X73410846Y-75334777D01*
X73391796Y-75299138D01*
X73380065Y-75260468D01*
X73375500Y-75214112D01*
X73375500Y-74137888D01*
X73380065Y-74091532D01*
X73391796Y-74052862D01*
X73410846Y-74017223D01*
X73436483Y-73985983D01*
X73467723Y-73960346D01*
X73503362Y-73941296D01*
X73542032Y-73929565D01*
X73588388Y-73925000D01*
X74239612Y-73925000D01*
X74285968Y-73929565D01*
G37*
G36*
X118811000Y-75381000D02*
G01*
X117409000Y-75381000D01*
X117409000Y-74479000D01*
X118811000Y-74479000D01*
X118811000Y-75381000D01*
G37*
G36*
X112511000Y-75381000D02*
G01*
X111109000Y-75381000D01*
X111109000Y-74479000D01*
X112511000Y-74479000D01*
X112511000Y-75381000D01*
G37*
G36*
X96709000Y-75373000D02*
G01*
X94807000Y-75373000D01*
X94807000Y-72771000D01*
X96709000Y-72771000D01*
X96709000Y-75373000D01*
G37*
G36*
X101847000Y-75259000D02*
G01*
X100845000Y-75259000D01*
X100845000Y-74357000D01*
X101847000Y-74357000D01*
X101847000Y-75259000D01*
G37*
G36*
X118811000Y-74121000D02*
G01*
X117409000Y-74121000D01*
X117409000Y-73219000D01*
X118811000Y-73219000D01*
X118811000Y-74121000D01*
G37*
G36*
X112511000Y-74121000D02*
G01*
X111109000Y-74121000D01*
X111109000Y-73219000D01*
X112511000Y-73219000D01*
X112511000Y-74121000D01*
G37*
G36*
X101035000Y-73145000D02*
G01*
X100133000Y-73145000D01*
X100133000Y-72143000D01*
X101035000Y-72143000D01*
X101035000Y-73145000D01*
G37*
G36*
X112511000Y-72851000D02*
G01*
X111109000Y-72851000D01*
X111109000Y-71949000D01*
X112511000Y-71949000D01*
X112511000Y-72851000D01*
G37*
G36*
X118811000Y-72851000D02*
G01*
X117409000Y-72851000D01*
X117409000Y-71949000D01*
X118811000Y-71949000D01*
X118811000Y-72851000D01*
G37*
G36*
X94605968Y-70119565D02*
G01*
X94644638Y-70131296D01*
X94680277Y-70150346D01*
X94711517Y-70175983D01*
X94737154Y-70207223D01*
X94756204Y-70242862D01*
X94767935Y-70281532D01*
X94772500Y-70327888D01*
X94772500Y-71404112D01*
X94767935Y-71450468D01*
X94756204Y-71489138D01*
X94737154Y-71524777D01*
X94711517Y-71556017D01*
X94680277Y-71581654D01*
X94644638Y-71600704D01*
X94605968Y-71612435D01*
X94559612Y-71617000D01*
X93908388Y-71617000D01*
X93862032Y-71612435D01*
X93823362Y-71600704D01*
X93787723Y-71581654D01*
X93756483Y-71556017D01*
X93730846Y-71524777D01*
X93711796Y-71489138D01*
X93700065Y-71450468D01*
X93695500Y-71404112D01*
X93695500Y-70327888D01*
X93700065Y-70281532D01*
X93711796Y-70242862D01*
X93730846Y-70207223D01*
X93756483Y-70175983D01*
X93787723Y-70150346D01*
X93823362Y-70131296D01*
X93862032Y-70119565D01*
X93908388Y-70115000D01*
X94559612Y-70115000D01*
X94605968Y-70119565D01*
G37*
G36*
X96480968Y-70119565D02*
G01*
X96519638Y-70131296D01*
X96555277Y-70150346D01*
X96586517Y-70175983D01*
X96612154Y-70207223D01*
X96631204Y-70242862D01*
X96642935Y-70281532D01*
X96647500Y-70327888D01*
X96647500Y-71404112D01*
X96642935Y-71450468D01*
X96631204Y-71489138D01*
X96612154Y-71524777D01*
X96586517Y-71556017D01*
X96555277Y-71581654D01*
X96519638Y-71600704D01*
X96480968Y-71612435D01*
X96434612Y-71617000D01*
X95783388Y-71617000D01*
X95737032Y-71612435D01*
X95698362Y-71600704D01*
X95662723Y-71581654D01*
X95631483Y-71556017D01*
X95605846Y-71524777D01*
X95586796Y-71489138D01*
X95575065Y-71450468D01*
X95570500Y-71404112D01*
X95570500Y-70327888D01*
X95575065Y-70281532D01*
X95586796Y-70242862D01*
X95605846Y-70207223D01*
X95631483Y-70175983D01*
X95662723Y-70150346D01*
X95698362Y-70131296D01*
X95737032Y-70119565D01*
X95783388Y-70115000D01*
X96434612Y-70115000D01*
X96480968Y-70119565D01*
G37*
G36*
X118811000Y-71571000D02*
G01*
X117409000Y-71571000D01*
X117409000Y-70669000D01*
X118811000Y-70669000D01*
X118811000Y-71571000D01*
G37*
G36*
X112511000Y-71571000D02*
G01*
X111109000Y-71571000D01*
X111109000Y-70669000D01*
X112511000Y-70669000D01*
X112511000Y-71571000D01*
G37*
G36*
X101985000Y-71145000D02*
G01*
X101083000Y-71145000D01*
X101083000Y-70143000D01*
X101985000Y-70143000D01*
X101985000Y-71145000D01*
G37*
G36*
X100085000Y-71145000D02*
G01*
X99183000Y-71145000D01*
X99183000Y-70143000D01*
X100085000Y-70143000D01*
X100085000Y-71145000D01*
G37*
G36*
X106565091Y-70090085D02*
G01*
X106599069Y-70100393D01*
X106630390Y-70117134D01*
X106657839Y-70139661D01*
X106680366Y-70167110D01*
X106697107Y-70198431D01*
X106707415Y-70232409D01*
X106711500Y-70273890D01*
X106711500Y-70950110D01*
X106707415Y-70991591D01*
X106697107Y-71025569D01*
X106680366Y-71056890D01*
X106657839Y-71084339D01*
X106630390Y-71106866D01*
X106599069Y-71123607D01*
X106565091Y-71133915D01*
X106523610Y-71138000D01*
X105922390Y-71138000D01*
X105880909Y-71133915D01*
X105846931Y-71123607D01*
X105815610Y-71106866D01*
X105788161Y-71084339D01*
X105765634Y-71056890D01*
X105748893Y-71025569D01*
X105738585Y-70991591D01*
X105734500Y-70950110D01*
X105734500Y-70273890D01*
X105738585Y-70232409D01*
X105748893Y-70198431D01*
X105765634Y-70167110D01*
X105788161Y-70139661D01*
X105815610Y-70117134D01*
X105846931Y-70100393D01*
X105880909Y-70090085D01*
X105922390Y-70086000D01*
X106523610Y-70086000D01*
X106565091Y-70090085D01*
G37*
G36*
X104990091Y-70090085D02*
G01*
X105024069Y-70100393D01*
X105055390Y-70117134D01*
X105082839Y-70139661D01*
X105105366Y-70167110D01*
X105122107Y-70198431D01*
X105132415Y-70232409D01*
X105136500Y-70273890D01*
X105136500Y-70950110D01*
X105132415Y-70991591D01*
X105122107Y-71025569D01*
X105105366Y-71056890D01*
X105082839Y-71084339D01*
X105055390Y-71106866D01*
X105024069Y-71123607D01*
X104990091Y-71133915D01*
X104948610Y-71138000D01*
X104347390Y-71138000D01*
X104305909Y-71133915D01*
X104271931Y-71123607D01*
X104240610Y-71106866D01*
X104213161Y-71084339D01*
X104190634Y-71056890D01*
X104173893Y-71025569D01*
X104163585Y-70991591D01*
X104159500Y-70950110D01*
X104159500Y-70273890D01*
X104163585Y-70232409D01*
X104173893Y-70198431D01*
X104190634Y-70167110D01*
X104213161Y-70139661D01*
X104240610Y-70117134D01*
X104271931Y-70100393D01*
X104305909Y-70090085D01*
X104347390Y-70086000D01*
X104948610Y-70086000D01*
X104990091Y-70090085D01*
G37*
G36*
X118811000Y-70301000D02*
G01*
X117409000Y-70301000D01*
X117409000Y-69399000D01*
X118811000Y-69399000D01*
X118811000Y-70301000D01*
G37*
G36*
X112511000Y-70301000D02*
G01*
X111109000Y-70301000D01*
X111109000Y-69399000D01*
X112511000Y-69399000D01*
X112511000Y-70301000D01*
G37*
G36*
X70169997Y-67733051D02*
G01*
X70203652Y-67743261D01*
X70234665Y-67759838D01*
X70261851Y-67782149D01*
X70284162Y-67809335D01*
X70300739Y-67840348D01*
X70310949Y-67874003D01*
X70315000Y-67915138D01*
X70315000Y-69244862D01*
X70310949Y-69285997D01*
X70300739Y-69319652D01*
X70284162Y-69350665D01*
X70261851Y-69377851D01*
X70234665Y-69400162D01*
X70203652Y-69416739D01*
X70169997Y-69426949D01*
X70128862Y-69431000D01*
X66899138Y-69431000D01*
X66858003Y-69426949D01*
X66824348Y-69416739D01*
X66793335Y-69400162D01*
X66766149Y-69377851D01*
X66743838Y-69350665D01*
X66727261Y-69319652D01*
X66717051Y-69285997D01*
X66713000Y-69244862D01*
X66713000Y-67915138D01*
X66717051Y-67874003D01*
X66727261Y-67840348D01*
X66743838Y-67809335D01*
X66766149Y-67782149D01*
X66793335Y-67759838D01*
X66824348Y-67743261D01*
X66858003Y-67733051D01*
X66899138Y-67729000D01*
X70128862Y-67729000D01*
X70169997Y-67733051D01*
G37*
G36*
X75569997Y-67733051D02*
G01*
X75603652Y-67743261D01*
X75634665Y-67759838D01*
X75661851Y-67782149D01*
X75684162Y-67809335D01*
X75700739Y-67840348D01*
X75710949Y-67874003D01*
X75715000Y-67915138D01*
X75715000Y-69244862D01*
X75710949Y-69285997D01*
X75700739Y-69319652D01*
X75684162Y-69350665D01*
X75661851Y-69377851D01*
X75634665Y-69400162D01*
X75603652Y-69416739D01*
X75569997Y-69426949D01*
X75528862Y-69431000D01*
X72299138Y-69431000D01*
X72258003Y-69426949D01*
X72224348Y-69416739D01*
X72193335Y-69400162D01*
X72166149Y-69377851D01*
X72143838Y-69350665D01*
X72127261Y-69319652D01*
X72117051Y-69285997D01*
X72113000Y-69244862D01*
X72113000Y-67915138D01*
X72117051Y-67874003D01*
X72127261Y-67840348D01*
X72143838Y-67809335D01*
X72166149Y-67782149D01*
X72193335Y-67759838D01*
X72224348Y-67743261D01*
X72258003Y-67733051D01*
X72299138Y-67729000D01*
X75528862Y-67729000D01*
X75569997Y-67733051D01*
G37*
G36*
X99859091Y-68058085D02*
G01*
X99893069Y-68068393D01*
X99924390Y-68085134D01*
X99951839Y-68107661D01*
X99974366Y-68135110D01*
X99991107Y-68166431D01*
X100001415Y-68200409D01*
X100005500Y-68241890D01*
X100005500Y-68918110D01*
X100001415Y-68959591D01*
X99991107Y-68993569D01*
X99974366Y-69024890D01*
X99951839Y-69052339D01*
X99924390Y-69074866D01*
X99893069Y-69091607D01*
X99859091Y-69101915D01*
X99817610Y-69106000D01*
X99216390Y-69106000D01*
X99174909Y-69101915D01*
X99140931Y-69091607D01*
X99109610Y-69074866D01*
X99082161Y-69052339D01*
X99059634Y-69024890D01*
X99042893Y-68993569D01*
X99032585Y-68959591D01*
X99028500Y-68918110D01*
X99028500Y-68241890D01*
X99032585Y-68200409D01*
X99042893Y-68166431D01*
X99059634Y-68135110D01*
X99082161Y-68107661D01*
X99109610Y-68085134D01*
X99140931Y-68068393D01*
X99174909Y-68058085D01*
X99216390Y-68054000D01*
X99817610Y-68054000D01*
X99859091Y-68058085D01*
G37*
G36*
X101434091Y-68058085D02*
G01*
X101468069Y-68068393D01*
X101499390Y-68085134D01*
X101526839Y-68107661D01*
X101549366Y-68135110D01*
X101566107Y-68166431D01*
X101576415Y-68200409D01*
X101580500Y-68241890D01*
X101580500Y-68918110D01*
X101576415Y-68959591D01*
X101566107Y-68993569D01*
X101549366Y-69024890D01*
X101526839Y-69052339D01*
X101499390Y-69074866D01*
X101468069Y-69091607D01*
X101434091Y-69101915D01*
X101392610Y-69106000D01*
X100791390Y-69106000D01*
X100749909Y-69101915D01*
X100715931Y-69091607D01*
X100684610Y-69074866D01*
X100657161Y-69052339D01*
X100634634Y-69024890D01*
X100617893Y-68993569D01*
X100607585Y-68959591D01*
X100603500Y-68918110D01*
X100603500Y-68241890D01*
X100607585Y-68200409D01*
X100617893Y-68166431D01*
X100634634Y-68135110D01*
X100657161Y-68107661D01*
X100684610Y-68085134D01*
X100715931Y-68068393D01*
X100749909Y-68058085D01*
X100791390Y-68054000D01*
X101392610Y-68054000D01*
X101434091Y-68058085D01*
G37*
G36*
X118811000Y-69041000D02*
G01*
X117409000Y-69041000D01*
X117409000Y-68139000D01*
X118811000Y-68139000D01*
X118811000Y-69041000D01*
G37*
G36*
X112511000Y-69041000D02*
G01*
X111109000Y-69041000D01*
X111109000Y-68139000D01*
X112511000Y-68139000D01*
X112511000Y-69041000D01*
G37*
G36*
X88812822Y-66629313D02*
G01*
X88973241Y-66677976D01*
X89121077Y-66756995D01*
X89250659Y-66863341D01*
X89357004Y-66992922D01*
X89357005Y-66992924D01*
X89436024Y-67140758D01*
X89484687Y-67301177D01*
X89497000Y-67426196D01*
X89497000Y-68209803D01*
X89484687Y-68334822D01*
X89436024Y-68495242D01*
X89430835Y-68504949D01*
X89357004Y-68643078D01*
X89250659Y-68772659D01*
X89121078Y-68879004D01*
X89121076Y-68879005D01*
X88973242Y-68958024D01*
X88973239Y-68958025D01*
X88943380Y-68967083D01*
X88812823Y-69006687D01*
X88646000Y-69023117D01*
X88479178Y-69006687D01*
X88348621Y-68967083D01*
X88318762Y-68958025D01*
X88318759Y-68958024D01*
X88170925Y-68879005D01*
X88170923Y-68879004D01*
X88041342Y-68772659D01*
X87934997Y-68643078D01*
X87929894Y-68633532D01*
X87855975Y-68495239D01*
X87807313Y-68334826D01*
X87795000Y-68209804D01*
X87795000Y-67426197D01*
X87807313Y-67301178D01*
X87855976Y-67140759D01*
X87934995Y-66992923D01*
X88041341Y-66863341D01*
X88170922Y-66756996D01*
X88186094Y-66748886D01*
X88318758Y-66677976D01*
X88479177Y-66629313D01*
X88646000Y-66612883D01*
X88812822Y-66629313D01*
G37*
G36*
X91352822Y-66629313D02*
G01*
X91513241Y-66677976D01*
X91661077Y-66756995D01*
X91790659Y-66863341D01*
X91897004Y-66992922D01*
X91897005Y-66992924D01*
X91976024Y-67140758D01*
X92024687Y-67301177D01*
X92037000Y-67426196D01*
X92037000Y-68209803D01*
X92024687Y-68334822D01*
X91976024Y-68495242D01*
X91970835Y-68504949D01*
X91897004Y-68643078D01*
X91790659Y-68772659D01*
X91661078Y-68879004D01*
X91661076Y-68879005D01*
X91513242Y-68958024D01*
X91513239Y-68958025D01*
X91483380Y-68967083D01*
X91352823Y-69006687D01*
X91186000Y-69023117D01*
X91019178Y-69006687D01*
X90888621Y-68967083D01*
X90858762Y-68958025D01*
X90858759Y-68958024D01*
X90710925Y-68879005D01*
X90710923Y-68879004D01*
X90581342Y-68772659D01*
X90474997Y-68643078D01*
X90469894Y-68633532D01*
X90395975Y-68495239D01*
X90347313Y-68334826D01*
X90335000Y-68209804D01*
X90335000Y-67426197D01*
X90347313Y-67301178D01*
X90395976Y-67140759D01*
X90474995Y-66992923D01*
X90581341Y-66863341D01*
X90710922Y-66756996D01*
X90726094Y-66748886D01*
X90858758Y-66677976D01*
X91019177Y-66629313D01*
X91186000Y-66612883D01*
X91352822Y-66629313D01*
G37*
G36*
X78652822Y-66629313D02*
G01*
X78813241Y-66677976D01*
X78961077Y-66756995D01*
X79090659Y-66863341D01*
X79197004Y-66992922D01*
X79197005Y-66992924D01*
X79276024Y-67140758D01*
X79324687Y-67301177D01*
X79337000Y-67426196D01*
X79337000Y-68209803D01*
X79324687Y-68334822D01*
X79276024Y-68495242D01*
X79270835Y-68504949D01*
X79197004Y-68643078D01*
X79090659Y-68772659D01*
X78961078Y-68879004D01*
X78961076Y-68879005D01*
X78813242Y-68958024D01*
X78813239Y-68958025D01*
X78783380Y-68967083D01*
X78652823Y-69006687D01*
X78486000Y-69023117D01*
X78319178Y-69006687D01*
X78188621Y-68967083D01*
X78158762Y-68958025D01*
X78158759Y-68958024D01*
X78010925Y-68879005D01*
X78010923Y-68879004D01*
X77881342Y-68772659D01*
X77774997Y-68643078D01*
X77769894Y-68633532D01*
X77695975Y-68495239D01*
X77647313Y-68334826D01*
X77635000Y-68209804D01*
X77635000Y-67426197D01*
X77647313Y-67301178D01*
X77695976Y-67140759D01*
X77774995Y-66992923D01*
X77881341Y-66863341D01*
X78010922Y-66756996D01*
X78026094Y-66748886D01*
X78158758Y-66677976D01*
X78319177Y-66629313D01*
X78486000Y-66612883D01*
X78652822Y-66629313D01*
G37*
G36*
X96971997Y-64911051D02*
G01*
X97005652Y-64921261D01*
X97036665Y-64937838D01*
X97063851Y-64960149D01*
X97086162Y-64987335D01*
X97102739Y-65018348D01*
X97112949Y-65052003D01*
X97117000Y-65093138D01*
X97117000Y-68322862D01*
X97112949Y-68363997D01*
X97102739Y-68397652D01*
X97086162Y-68428665D01*
X97063851Y-68455851D01*
X97036665Y-68478162D01*
X97005652Y-68494739D01*
X96971997Y-68504949D01*
X96930862Y-68509000D01*
X95601138Y-68509000D01*
X95560003Y-68504949D01*
X95526348Y-68494739D01*
X95495335Y-68478162D01*
X95468149Y-68455851D01*
X95445838Y-68428665D01*
X95429261Y-68397652D01*
X95419051Y-68363997D01*
X95415000Y-68322862D01*
X95415000Y-65093138D01*
X95419051Y-65052003D01*
X95429261Y-65018348D01*
X95445838Y-64987335D01*
X95468149Y-64960149D01*
X95495335Y-64937838D01*
X95526348Y-64921261D01*
X95560003Y-64911051D01*
X95601138Y-64907000D01*
X96930862Y-64907000D01*
X96971997Y-64911051D01*
G37*
G36*
X132339928Y-65826764D02*
G01*
X132361009Y-65833160D01*
X132380445Y-65843548D01*
X132397476Y-65857524D01*
X132411452Y-65874555D01*
X132421840Y-65893991D01*
X132428236Y-65915072D01*
X132431000Y-65943140D01*
X132431000Y-67856860D01*
X132428236Y-67884928D01*
X132421840Y-67906009D01*
X132411452Y-67925445D01*
X132397476Y-67942476D01*
X132380445Y-67956452D01*
X132361009Y-67966840D01*
X132339928Y-67973236D01*
X132311860Y-67976000D01*
X131848140Y-67976000D01*
X131820072Y-67973236D01*
X131798991Y-67966840D01*
X131779555Y-67956452D01*
X131762524Y-67942476D01*
X131748548Y-67925445D01*
X131738160Y-67906009D01*
X131731764Y-67884928D01*
X131729000Y-67856860D01*
X131729000Y-65943140D01*
X131731764Y-65915072D01*
X131738160Y-65893991D01*
X131748548Y-65874555D01*
X131762524Y-65857524D01*
X131779555Y-65843548D01*
X131798991Y-65833160D01*
X131820072Y-65826764D01*
X131848140Y-65824000D01*
X132311860Y-65824000D01*
X132339928Y-65826764D01*
G37*
G36*
X131069928Y-65826764D02*
G01*
X131091009Y-65833160D01*
X131110445Y-65843548D01*
X131127476Y-65857524D01*
X131141452Y-65874555D01*
X131151840Y-65893991D01*
X131158236Y-65915072D01*
X131161000Y-65943140D01*
X131161000Y-67856860D01*
X131158236Y-67884928D01*
X131151840Y-67906009D01*
X131141452Y-67925445D01*
X131127476Y-67942476D01*
X131110445Y-67956452D01*
X131091009Y-67966840D01*
X131069928Y-67973236D01*
X131041860Y-67976000D01*
X130578140Y-67976000D01*
X130550072Y-67973236D01*
X130528991Y-67966840D01*
X130509555Y-67956452D01*
X130492524Y-67942476D01*
X130478548Y-67925445D01*
X130468160Y-67906009D01*
X130461764Y-67884928D01*
X130459000Y-67856860D01*
X130459000Y-65943140D01*
X130461764Y-65915072D01*
X130468160Y-65893991D01*
X130478548Y-65874555D01*
X130492524Y-65857524D01*
X130509555Y-65843548D01*
X130528991Y-65833160D01*
X130550072Y-65826764D01*
X130578140Y-65824000D01*
X131041860Y-65824000D01*
X131069928Y-65826764D01*
G37*
G36*
X129799928Y-65826764D02*
G01*
X129821009Y-65833160D01*
X129840445Y-65843548D01*
X129857476Y-65857524D01*
X129871452Y-65874555D01*
X129881840Y-65893991D01*
X129888236Y-65915072D01*
X129891000Y-65943140D01*
X129891000Y-67856860D01*
X129888236Y-67884928D01*
X129881840Y-67906009D01*
X129871452Y-67925445D01*
X129857476Y-67942476D01*
X129840445Y-67956452D01*
X129821009Y-67966840D01*
X129799928Y-67973236D01*
X129771860Y-67976000D01*
X129308140Y-67976000D01*
X129280072Y-67973236D01*
X129258991Y-67966840D01*
X129239555Y-67956452D01*
X129222524Y-67942476D01*
X129208548Y-67925445D01*
X129198160Y-67906009D01*
X129191764Y-67884928D01*
X129189000Y-67856860D01*
X129189000Y-65943140D01*
X129191764Y-65915072D01*
X129198160Y-65893991D01*
X129208548Y-65874555D01*
X129222524Y-65857524D01*
X129239555Y-65843548D01*
X129258991Y-65833160D01*
X129280072Y-65826764D01*
X129308140Y-65824000D01*
X129771860Y-65824000D01*
X129799928Y-65826764D01*
G37*
G36*
X128529928Y-65826764D02*
G01*
X128551009Y-65833160D01*
X128570445Y-65843548D01*
X128587476Y-65857524D01*
X128601452Y-65874555D01*
X128611840Y-65893991D01*
X128618236Y-65915072D01*
X128621000Y-65943140D01*
X128621000Y-67856860D01*
X128618236Y-67884928D01*
X128611840Y-67906009D01*
X128601452Y-67925445D01*
X128587476Y-67942476D01*
X128570445Y-67956452D01*
X128551009Y-67966840D01*
X128529928Y-67973236D01*
X128501860Y-67976000D01*
X128038140Y-67976000D01*
X128010072Y-67973236D01*
X127988991Y-67966840D01*
X127969555Y-67956452D01*
X127952524Y-67942476D01*
X127938548Y-67925445D01*
X127928160Y-67906009D01*
X127921764Y-67884928D01*
X127919000Y-67856860D01*
X127919000Y-65943140D01*
X127921764Y-65915072D01*
X127928160Y-65893991D01*
X127938548Y-65874555D01*
X127952524Y-65857524D01*
X127969555Y-65843548D01*
X127988991Y-65833160D01*
X128010072Y-65826764D01*
X128038140Y-65824000D01*
X128501860Y-65824000D01*
X128529928Y-65826764D01*
G37*
G36*
X127259928Y-65826764D02*
G01*
X127281009Y-65833160D01*
X127300445Y-65843548D01*
X127317476Y-65857524D01*
X127331452Y-65874555D01*
X127341840Y-65893991D01*
X127348236Y-65915072D01*
X127351000Y-65943140D01*
X127351000Y-67856860D01*
X127348236Y-67884928D01*
X127341840Y-67906009D01*
X127331452Y-67925445D01*
X127317476Y-67942476D01*
X127300445Y-67956452D01*
X127281009Y-67966840D01*
X127259928Y-67973236D01*
X127231860Y-67976000D01*
X126768140Y-67976000D01*
X126740072Y-67973236D01*
X126718991Y-67966840D01*
X126699555Y-67956452D01*
X126682524Y-67942476D01*
X126668548Y-67925445D01*
X126658160Y-67906009D01*
X126651764Y-67884928D01*
X126649000Y-67856860D01*
X126649000Y-65943140D01*
X126651764Y-65915072D01*
X126658160Y-65893991D01*
X126668548Y-65874555D01*
X126682524Y-65857524D01*
X126699555Y-65843548D01*
X126718991Y-65833160D01*
X126740072Y-65826764D01*
X126768140Y-65824000D01*
X127231860Y-65824000D01*
X127259928Y-65826764D01*
G37*
G36*
X125989928Y-65826764D02*
G01*
X126011009Y-65833160D01*
X126030445Y-65843548D01*
X126047476Y-65857524D01*
X126061452Y-65874555D01*
X126071840Y-65893991D01*
X126078236Y-65915072D01*
X126081000Y-65943140D01*
X126081000Y-67856860D01*
X126078236Y-67884928D01*
X126071840Y-67906009D01*
X126061452Y-67925445D01*
X126047476Y-67942476D01*
X126030445Y-67956452D01*
X126011009Y-67966840D01*
X125989928Y-67973236D01*
X125961860Y-67976000D01*
X125498140Y-67976000D01*
X125470072Y-67973236D01*
X125448991Y-67966840D01*
X125429555Y-67956452D01*
X125412524Y-67942476D01*
X125398548Y-67925445D01*
X125388160Y-67906009D01*
X125381764Y-67884928D01*
X125379000Y-67856860D01*
X125379000Y-65943140D01*
X125381764Y-65915072D01*
X125388160Y-65893991D01*
X125398548Y-65874555D01*
X125412524Y-65857524D01*
X125429555Y-65843548D01*
X125448991Y-65833160D01*
X125470072Y-65826764D01*
X125498140Y-65824000D01*
X125961860Y-65824000D01*
X125989928Y-65826764D01*
G37*
G36*
X124719928Y-65826764D02*
G01*
X124741009Y-65833160D01*
X124760445Y-65843548D01*
X124777476Y-65857524D01*
X124791452Y-65874555D01*
X124801840Y-65893991D01*
X124808236Y-65915072D01*
X124811000Y-65943140D01*
X124811000Y-67856860D01*
X124808236Y-67884928D01*
X124801840Y-67906009D01*
X124791452Y-67925445D01*
X124777476Y-67942476D01*
X124760445Y-67956452D01*
X124741009Y-67966840D01*
X124719928Y-67973236D01*
X124691860Y-67976000D01*
X124228140Y-67976000D01*
X124200072Y-67973236D01*
X124178991Y-67966840D01*
X124159555Y-67956452D01*
X124142524Y-67942476D01*
X124128548Y-67925445D01*
X124118160Y-67906009D01*
X124111764Y-67884928D01*
X124109000Y-67856860D01*
X124109000Y-65943140D01*
X124111764Y-65915072D01*
X124118160Y-65893991D01*
X124128548Y-65874555D01*
X124142524Y-65857524D01*
X124159555Y-65843548D01*
X124178991Y-65833160D01*
X124200072Y-65826764D01*
X124228140Y-65824000D01*
X124691860Y-65824000D01*
X124719928Y-65826764D01*
G37*
G36*
X123449928Y-65826764D02*
G01*
X123471009Y-65833160D01*
X123490445Y-65843548D01*
X123507476Y-65857524D01*
X123521452Y-65874555D01*
X123531840Y-65893991D01*
X123538236Y-65915072D01*
X123541000Y-65943140D01*
X123541000Y-67856860D01*
X123538236Y-67884928D01*
X123531840Y-67906009D01*
X123521452Y-67925445D01*
X123507476Y-67942476D01*
X123490445Y-67956452D01*
X123471009Y-67966840D01*
X123449928Y-67973236D01*
X123421860Y-67976000D01*
X122958140Y-67976000D01*
X122930072Y-67973236D01*
X122908991Y-67966840D01*
X122889555Y-67956452D01*
X122872524Y-67942476D01*
X122858548Y-67925445D01*
X122848160Y-67906009D01*
X122841764Y-67884928D01*
X122839000Y-67856860D01*
X122839000Y-65943140D01*
X122841764Y-65915072D01*
X122848160Y-65893991D01*
X122858548Y-65874555D01*
X122872524Y-65857524D01*
X122889555Y-65843548D01*
X122908991Y-65833160D01*
X122930072Y-65826764D01*
X122958140Y-65824000D01*
X123421860Y-65824000D01*
X123449928Y-65826764D01*
G37*
G36*
X133609928Y-65826764D02*
G01*
X133631009Y-65833160D01*
X133650445Y-65843548D01*
X133667476Y-65857524D01*
X133681452Y-65874555D01*
X133691840Y-65893991D01*
X133698236Y-65915072D01*
X133701000Y-65943140D01*
X133701000Y-67856860D01*
X133698236Y-67884928D01*
X133691840Y-67906009D01*
X133681452Y-67925445D01*
X133667476Y-67942476D01*
X133650445Y-67956452D01*
X133631009Y-67966840D01*
X133609928Y-67973236D01*
X133581860Y-67976000D01*
X133118140Y-67976000D01*
X133090072Y-67973236D01*
X133068991Y-67966840D01*
X133049555Y-67956452D01*
X133032524Y-67942476D01*
X133018548Y-67925445D01*
X133008160Y-67906009D01*
X133001764Y-67884928D01*
X132999000Y-67856860D01*
X132999000Y-65943140D01*
X133001764Y-65915072D01*
X133008160Y-65893991D01*
X133018548Y-65874555D01*
X133032524Y-65857524D01*
X133049555Y-65843548D01*
X133068991Y-65833160D01*
X133090072Y-65826764D01*
X133118140Y-65824000D01*
X133581860Y-65824000D01*
X133609928Y-65826764D01*
G37*
G36*
X112511000Y-67761000D02*
G01*
X111109000Y-67761000D01*
X111109000Y-66859000D01*
X112511000Y-66859000D01*
X112511000Y-67761000D01*
G37*
G36*
X118811000Y-67761000D02*
G01*
X117409000Y-67761000D01*
X117409000Y-66859000D01*
X118811000Y-66859000D01*
X118811000Y-67761000D01*
G37*
G36*
X89668604Y-63342347D02*
G01*
X89705144Y-63353432D01*
X89738821Y-63371433D01*
X89768341Y-63395659D01*
X89792567Y-63425179D01*
X89810568Y-63458856D01*
X89821653Y-63495396D01*
X89826000Y-63539538D01*
X89826000Y-64488462D01*
X89821653Y-64532604D01*
X89810568Y-64569144D01*
X89792567Y-64602821D01*
X89768341Y-64632341D01*
X89738821Y-64656567D01*
X89705144Y-64674568D01*
X89668604Y-64685653D01*
X89624462Y-64690000D01*
X88175538Y-64690000D01*
X88131396Y-64685653D01*
X88094856Y-64674568D01*
X88061179Y-64656567D01*
X88031659Y-64632341D01*
X88007433Y-64602821D01*
X87989432Y-64569144D01*
X87978347Y-64532604D01*
X87974000Y-64488462D01*
X87974000Y-63539538D01*
X87978347Y-63495396D01*
X87989432Y-63458856D01*
X88007433Y-63425179D01*
X88031659Y-63395659D01*
X88061179Y-63371433D01*
X88094856Y-63353432D01*
X88131396Y-63342347D01*
X88175538Y-63338000D01*
X89624462Y-63338000D01*
X89668604Y-63342347D01*
G37*
G36*
X123561968Y-63007565D02*
G01*
X123600638Y-63019296D01*
X123636277Y-63038346D01*
X123667517Y-63063983D01*
X123693154Y-63095223D01*
X123712204Y-63130862D01*
X123723935Y-63169532D01*
X123728500Y-63215888D01*
X123728500Y-64292112D01*
X123723935Y-64338468D01*
X123712204Y-64377138D01*
X123693154Y-64412777D01*
X123667517Y-64444017D01*
X123636277Y-64469654D01*
X123600638Y-64488704D01*
X123561968Y-64500435D01*
X123515612Y-64505000D01*
X122864388Y-64505000D01*
X122818032Y-64500435D01*
X122779362Y-64488704D01*
X122743723Y-64469654D01*
X122712483Y-64444017D01*
X122686846Y-64412777D01*
X122667796Y-64377138D01*
X122656065Y-64338468D01*
X122651500Y-64292112D01*
X122651500Y-63215888D01*
X122656065Y-63169532D01*
X122667796Y-63130862D01*
X122686846Y-63095223D01*
X122712483Y-63063983D01*
X122743723Y-63038346D01*
X122779362Y-63019296D01*
X122818032Y-63007565D01*
X122864388Y-63003000D01*
X123515612Y-63003000D01*
X123561968Y-63007565D01*
G37*
G36*
X125436968Y-63007565D02*
G01*
X125475638Y-63019296D01*
X125511277Y-63038346D01*
X125542517Y-63063983D01*
X125568154Y-63095223D01*
X125587204Y-63130862D01*
X125598935Y-63169532D01*
X125603500Y-63215888D01*
X125603500Y-64292112D01*
X125598935Y-64338468D01*
X125587204Y-64377138D01*
X125568154Y-64412777D01*
X125542517Y-64444017D01*
X125511277Y-64469654D01*
X125475638Y-64488704D01*
X125436968Y-64500435D01*
X125390612Y-64505000D01*
X124739388Y-64505000D01*
X124693032Y-64500435D01*
X124654362Y-64488704D01*
X124618723Y-64469654D01*
X124587483Y-64444017D01*
X124561846Y-64412777D01*
X124542796Y-64377138D01*
X124531065Y-64338468D01*
X124526500Y-64292112D01*
X124526500Y-63215888D01*
X124531065Y-63169532D01*
X124542796Y-63130862D01*
X124561846Y-63095223D01*
X124587483Y-63063983D01*
X124618723Y-63038346D01*
X124654362Y-63019296D01*
X124693032Y-63007565D01*
X124739388Y-63003000D01*
X125390612Y-63003000D01*
X125436968Y-63007565D01*
G37*
G36*
X81851000Y-63435000D02*
G01*
X79249000Y-63435000D01*
X79249000Y-61533000D01*
X81851000Y-61533000D01*
X81851000Y-63435000D01*
G37*
G36*
X74485000Y-63435000D02*
G01*
X71883000Y-63435000D01*
X71883000Y-61533000D01*
X74485000Y-61533000D01*
X74485000Y-63435000D01*
G37*
G36*
X78485000Y-63435000D02*
G01*
X75883000Y-63435000D01*
X75883000Y-61533000D01*
X78485000Y-61533000D01*
X78485000Y-63435000D01*
G37*
G36*
X85851000Y-63435000D02*
G01*
X83249000Y-63435000D01*
X83249000Y-61533000D01*
X85851000Y-61533000D01*
X85851000Y-63435000D01*
G37*
G36*
X96971997Y-59511051D02*
G01*
X97005652Y-59521261D01*
X97036665Y-59537838D01*
X97063851Y-59560149D01*
X97086162Y-59587335D01*
X97102739Y-59618348D01*
X97112949Y-59652003D01*
X97117000Y-59693138D01*
X97117000Y-62922862D01*
X97112949Y-62963997D01*
X97102739Y-62997652D01*
X97086162Y-63028665D01*
X97063851Y-63055851D01*
X97036665Y-63078162D01*
X97005652Y-63094739D01*
X96971997Y-63104949D01*
X96930862Y-63109000D01*
X95601138Y-63109000D01*
X95560003Y-63104949D01*
X95526348Y-63094739D01*
X95495335Y-63078162D01*
X95468149Y-63055851D01*
X95445838Y-63028665D01*
X95429261Y-62997652D01*
X95419051Y-62963997D01*
X95415000Y-62922862D01*
X95415000Y-59693138D01*
X95419051Y-59652003D01*
X95429261Y-59618348D01*
X95445838Y-59587335D01*
X95468149Y-59560149D01*
X95495335Y-59537838D01*
X95526348Y-59521261D01*
X95560003Y-59511051D01*
X95601138Y-59507000D01*
X96930862Y-59507000D01*
X96971997Y-59511051D01*
G37*
G36*
X89668604Y-60542347D02*
G01*
X89705144Y-60553432D01*
X89738821Y-60571433D01*
X89768341Y-60595659D01*
X89792567Y-60625179D01*
X89810568Y-60658856D01*
X89821653Y-60695396D01*
X89826000Y-60739538D01*
X89826000Y-61688462D01*
X89821653Y-61732604D01*
X89810568Y-61769144D01*
X89792567Y-61802821D01*
X89768341Y-61832341D01*
X89738821Y-61856567D01*
X89705144Y-61874568D01*
X89668604Y-61885653D01*
X89624462Y-61890000D01*
X88175538Y-61890000D01*
X88131396Y-61885653D01*
X88094856Y-61874568D01*
X88061179Y-61856567D01*
X88031659Y-61832341D01*
X88007433Y-61802821D01*
X87989432Y-61769144D01*
X87978347Y-61732604D01*
X87974000Y-61688462D01*
X87974000Y-60739538D01*
X87978347Y-60695396D01*
X87989432Y-60658856D01*
X88007433Y-60625179D01*
X88031659Y-60595659D01*
X88061179Y-60571433D01*
X88094856Y-60553432D01*
X88131396Y-60542347D01*
X88175538Y-60538000D01*
X89624462Y-60538000D01*
X89668604Y-60542347D01*
G37*
G36*
X122567091Y-60438085D02*
G01*
X122601069Y-60448393D01*
X122632390Y-60465134D01*
X122659839Y-60487661D01*
X122682366Y-60515110D01*
X122699107Y-60546431D01*
X122709415Y-60580409D01*
X122713500Y-60621890D01*
X122713500Y-61298110D01*
X122709415Y-61339591D01*
X122699107Y-61373569D01*
X122682366Y-61404890D01*
X122659839Y-61432339D01*
X122632390Y-61454866D01*
X122601069Y-61471607D01*
X122567091Y-61481915D01*
X122525610Y-61486000D01*
X121924390Y-61486000D01*
X121882909Y-61481915D01*
X121848931Y-61471607D01*
X121817610Y-61454866D01*
X121790161Y-61432339D01*
X121767634Y-61404890D01*
X121750893Y-61373569D01*
X121740585Y-61339591D01*
X121736500Y-61298110D01*
X121736500Y-60621890D01*
X121740585Y-60580409D01*
X121750893Y-60546431D01*
X121767634Y-60515110D01*
X121790161Y-60487661D01*
X121817610Y-60465134D01*
X121848931Y-60448393D01*
X121882909Y-60438085D01*
X121924390Y-60434000D01*
X122525610Y-60434000D01*
X122567091Y-60438085D01*
G37*
G36*
X101942091Y-60438085D02*
G01*
X101976069Y-60448393D01*
X102007390Y-60465134D01*
X102034839Y-60487661D01*
X102057366Y-60515110D01*
X102074107Y-60546431D01*
X102084415Y-60580409D01*
X102088500Y-60621890D01*
X102088500Y-61298110D01*
X102084415Y-61339591D01*
X102074107Y-61373569D01*
X102057366Y-61404890D01*
X102034839Y-61432339D01*
X102007390Y-61454866D01*
X101976069Y-61471607D01*
X101942091Y-61481915D01*
X101900610Y-61486000D01*
X101299390Y-61486000D01*
X101257909Y-61481915D01*
X101223931Y-61471607D01*
X101192610Y-61454866D01*
X101165161Y-61432339D01*
X101142634Y-61404890D01*
X101125893Y-61373569D01*
X101115585Y-61339591D01*
X101111500Y-61298110D01*
X101111500Y-60621890D01*
X101115585Y-60580409D01*
X101125893Y-60546431D01*
X101142634Y-60515110D01*
X101165161Y-60487661D01*
X101192610Y-60465134D01*
X101223931Y-60448393D01*
X101257909Y-60438085D01*
X101299390Y-60434000D01*
X101900610Y-60434000D01*
X101942091Y-60438085D01*
G37*
G36*
X103517091Y-60438085D02*
G01*
X103551069Y-60448393D01*
X103582390Y-60465134D01*
X103609839Y-60487661D01*
X103632366Y-60515110D01*
X103649107Y-60546431D01*
X103659415Y-60580409D01*
X103663500Y-60621890D01*
X103663500Y-61298110D01*
X103659415Y-61339591D01*
X103649107Y-61373569D01*
X103632366Y-61404890D01*
X103609839Y-61432339D01*
X103582390Y-61454866D01*
X103551069Y-61471607D01*
X103517091Y-61481915D01*
X103475610Y-61486000D01*
X102874390Y-61486000D01*
X102832909Y-61481915D01*
X102798931Y-61471607D01*
X102767610Y-61454866D01*
X102740161Y-61432339D01*
X102717634Y-61404890D01*
X102700893Y-61373569D01*
X102690585Y-61339591D01*
X102686500Y-61298110D01*
X102686500Y-60621890D01*
X102690585Y-60580409D01*
X102700893Y-60546431D01*
X102717634Y-60515110D01*
X102740161Y-60487661D01*
X102767610Y-60465134D01*
X102798931Y-60448393D01*
X102832909Y-60438085D01*
X102874390Y-60434000D01*
X103475610Y-60434000D01*
X103517091Y-60438085D01*
G37*
G36*
X108292091Y-60438085D02*
G01*
X108326069Y-60448393D01*
X108357390Y-60465134D01*
X108384839Y-60487661D01*
X108407366Y-60515110D01*
X108424107Y-60546431D01*
X108434415Y-60580409D01*
X108438500Y-60621890D01*
X108438500Y-61298110D01*
X108434415Y-61339591D01*
X108424107Y-61373569D01*
X108407366Y-61404890D01*
X108384839Y-61432339D01*
X108357390Y-61454866D01*
X108326069Y-61471607D01*
X108292091Y-61481915D01*
X108250610Y-61486000D01*
X107649390Y-61486000D01*
X107607909Y-61481915D01*
X107573931Y-61471607D01*
X107542610Y-61454866D01*
X107515161Y-61432339D01*
X107492634Y-61404890D01*
X107475893Y-61373569D01*
X107465585Y-61339591D01*
X107461500Y-61298110D01*
X107461500Y-60621890D01*
X107465585Y-60580409D01*
X107475893Y-60546431D01*
X107492634Y-60515110D01*
X107515161Y-60487661D01*
X107542610Y-60465134D01*
X107573931Y-60448393D01*
X107607909Y-60438085D01*
X107649390Y-60434000D01*
X108250610Y-60434000D01*
X108292091Y-60438085D01*
G37*
G36*
X109867091Y-60438085D02*
G01*
X109901069Y-60448393D01*
X109932390Y-60465134D01*
X109959839Y-60487661D01*
X109982366Y-60515110D01*
X109999107Y-60546431D01*
X110009415Y-60580409D01*
X110013500Y-60621890D01*
X110013500Y-61298110D01*
X110009415Y-61339591D01*
X109999107Y-61373569D01*
X109982366Y-61404890D01*
X109959839Y-61432339D01*
X109932390Y-61454866D01*
X109901069Y-61471607D01*
X109867091Y-61481915D01*
X109825610Y-61486000D01*
X109224390Y-61486000D01*
X109182909Y-61481915D01*
X109148931Y-61471607D01*
X109117610Y-61454866D01*
X109090161Y-61432339D01*
X109067634Y-61404890D01*
X109050893Y-61373569D01*
X109040585Y-61339591D01*
X109036500Y-61298110D01*
X109036500Y-60621890D01*
X109040585Y-60580409D01*
X109050893Y-60546431D01*
X109067634Y-60515110D01*
X109090161Y-60487661D01*
X109117610Y-60465134D01*
X109148931Y-60448393D01*
X109182909Y-60438085D01*
X109224390Y-60434000D01*
X109825610Y-60434000D01*
X109867091Y-60438085D01*
G37*
G36*
X114642091Y-60438085D02*
G01*
X114676069Y-60448393D01*
X114707390Y-60465134D01*
X114734839Y-60487661D01*
X114757366Y-60515110D01*
X114774107Y-60546431D01*
X114784415Y-60580409D01*
X114788500Y-60621890D01*
X114788500Y-61298110D01*
X114784415Y-61339591D01*
X114774107Y-61373569D01*
X114757366Y-61404890D01*
X114734839Y-61432339D01*
X114707390Y-61454866D01*
X114676069Y-61471607D01*
X114642091Y-61481915D01*
X114600610Y-61486000D01*
X113999390Y-61486000D01*
X113957909Y-61481915D01*
X113923931Y-61471607D01*
X113892610Y-61454866D01*
X113865161Y-61432339D01*
X113842634Y-61404890D01*
X113825893Y-61373569D01*
X113815585Y-61339591D01*
X113811500Y-61298110D01*
X113811500Y-60621890D01*
X113815585Y-60580409D01*
X113825893Y-60546431D01*
X113842634Y-60515110D01*
X113865161Y-60487661D01*
X113892610Y-60465134D01*
X113923931Y-60448393D01*
X113957909Y-60438085D01*
X113999390Y-60434000D01*
X114600610Y-60434000D01*
X114642091Y-60438085D01*
G37*
G36*
X116217091Y-60438085D02*
G01*
X116251069Y-60448393D01*
X116282390Y-60465134D01*
X116309839Y-60487661D01*
X116332366Y-60515110D01*
X116349107Y-60546431D01*
X116359415Y-60580409D01*
X116363500Y-60621890D01*
X116363500Y-61298110D01*
X116359415Y-61339591D01*
X116349107Y-61373569D01*
X116332366Y-61404890D01*
X116309839Y-61432339D01*
X116282390Y-61454866D01*
X116251069Y-61471607D01*
X116217091Y-61481915D01*
X116175610Y-61486000D01*
X115574390Y-61486000D01*
X115532909Y-61481915D01*
X115498931Y-61471607D01*
X115467610Y-61454866D01*
X115440161Y-61432339D01*
X115417634Y-61404890D01*
X115400893Y-61373569D01*
X115390585Y-61339591D01*
X115386500Y-61298110D01*
X115386500Y-60621890D01*
X115390585Y-60580409D01*
X115400893Y-60546431D01*
X115417634Y-60515110D01*
X115440161Y-60487661D01*
X115467610Y-60465134D01*
X115498931Y-60448393D01*
X115532909Y-60438085D01*
X115574390Y-60434000D01*
X116175610Y-60434000D01*
X116217091Y-60438085D01*
G37*
G36*
X120992091Y-60438085D02*
G01*
X121026069Y-60448393D01*
X121057390Y-60465134D01*
X121084839Y-60487661D01*
X121107366Y-60515110D01*
X121124107Y-60546431D01*
X121134415Y-60580409D01*
X121138500Y-60621890D01*
X121138500Y-61298110D01*
X121134415Y-61339591D01*
X121124107Y-61373569D01*
X121107366Y-61404890D01*
X121084839Y-61432339D01*
X121057390Y-61454866D01*
X121026069Y-61471607D01*
X120992091Y-61481915D01*
X120950610Y-61486000D01*
X120349390Y-61486000D01*
X120307909Y-61481915D01*
X120273931Y-61471607D01*
X120242610Y-61454866D01*
X120215161Y-61432339D01*
X120192634Y-61404890D01*
X120175893Y-61373569D01*
X120165585Y-61339591D01*
X120161500Y-61298110D01*
X120161500Y-60621890D01*
X120165585Y-60580409D01*
X120175893Y-60546431D01*
X120192634Y-60515110D01*
X120215161Y-60487661D01*
X120242610Y-60465134D01*
X120273931Y-60448393D01*
X120307909Y-60438085D01*
X120349390Y-60434000D01*
X120950610Y-60434000D01*
X120992091Y-60438085D01*
G37*
G36*
X127342091Y-60438085D02*
G01*
X127376069Y-60448393D01*
X127407390Y-60465134D01*
X127434839Y-60487661D01*
X127457366Y-60515110D01*
X127474107Y-60546431D01*
X127484415Y-60580409D01*
X127488500Y-60621890D01*
X127488500Y-61298110D01*
X127484415Y-61339591D01*
X127474107Y-61373569D01*
X127457366Y-61404890D01*
X127434839Y-61432339D01*
X127407390Y-61454866D01*
X127376069Y-61471607D01*
X127342091Y-61481915D01*
X127300610Y-61486000D01*
X126699390Y-61486000D01*
X126657909Y-61481915D01*
X126623931Y-61471607D01*
X126592610Y-61454866D01*
X126565161Y-61432339D01*
X126542634Y-61404890D01*
X126525893Y-61373569D01*
X126515585Y-61339591D01*
X126511500Y-61298110D01*
X126511500Y-60621890D01*
X126515585Y-60580409D01*
X126525893Y-60546431D01*
X126542634Y-60515110D01*
X126565161Y-60487661D01*
X126592610Y-60465134D01*
X126623931Y-60448393D01*
X126657909Y-60438085D01*
X126699390Y-60434000D01*
X127300610Y-60434000D01*
X127342091Y-60438085D01*
G37*
G36*
X128917091Y-60438085D02*
G01*
X128951069Y-60448393D01*
X128982390Y-60465134D01*
X129009839Y-60487661D01*
X129032366Y-60515110D01*
X129049107Y-60546431D01*
X129059415Y-60580409D01*
X129063500Y-60621890D01*
X129063500Y-61298110D01*
X129059415Y-61339591D01*
X129049107Y-61373569D01*
X129032366Y-61404890D01*
X129009839Y-61432339D01*
X128982390Y-61454866D01*
X128951069Y-61471607D01*
X128917091Y-61481915D01*
X128875610Y-61486000D01*
X128274390Y-61486000D01*
X128232909Y-61481915D01*
X128198931Y-61471607D01*
X128167610Y-61454866D01*
X128140161Y-61432339D01*
X128117634Y-61404890D01*
X128100893Y-61373569D01*
X128090585Y-61339591D01*
X128086500Y-61298110D01*
X128086500Y-60621890D01*
X128090585Y-60580409D01*
X128100893Y-60546431D01*
X128117634Y-60515110D01*
X128140161Y-60487661D01*
X128167610Y-60465134D01*
X128198931Y-60448393D01*
X128232909Y-60438085D01*
X128274390Y-60434000D01*
X128875610Y-60434000D01*
X128917091Y-60438085D01*
G37*
G36*
X133692091Y-60438085D02*
G01*
X133726069Y-60448393D01*
X133757390Y-60465134D01*
X133784839Y-60487661D01*
X133807366Y-60515110D01*
X133824107Y-60546431D01*
X133834415Y-60580409D01*
X133838500Y-60621890D01*
X133838500Y-61298110D01*
X133834415Y-61339591D01*
X133824107Y-61373569D01*
X133807366Y-61404890D01*
X133784839Y-61432339D01*
X133757390Y-61454866D01*
X133726069Y-61471607D01*
X133692091Y-61481915D01*
X133650610Y-61486000D01*
X133049390Y-61486000D01*
X133007909Y-61481915D01*
X132973931Y-61471607D01*
X132942610Y-61454866D01*
X132915161Y-61432339D01*
X132892634Y-61404890D01*
X132875893Y-61373569D01*
X132865585Y-61339591D01*
X132861500Y-61298110D01*
X132861500Y-60621890D01*
X132865585Y-60580409D01*
X132875893Y-60546431D01*
X132892634Y-60515110D01*
X132915161Y-60487661D01*
X132942610Y-60465134D01*
X132973931Y-60448393D01*
X133007909Y-60438085D01*
X133049390Y-60434000D01*
X133650610Y-60434000D01*
X133692091Y-60438085D01*
G37*
G36*
X135267091Y-60438085D02*
G01*
X135301069Y-60448393D01*
X135332390Y-60465134D01*
X135359839Y-60487661D01*
X135382366Y-60515110D01*
X135399107Y-60546431D01*
X135409415Y-60580409D01*
X135413500Y-60621890D01*
X135413500Y-61298110D01*
X135409415Y-61339591D01*
X135399107Y-61373569D01*
X135382366Y-61404890D01*
X135359839Y-61432339D01*
X135332390Y-61454866D01*
X135301069Y-61471607D01*
X135267091Y-61481915D01*
X135225610Y-61486000D01*
X134624390Y-61486000D01*
X134582909Y-61481915D01*
X134548931Y-61471607D01*
X134517610Y-61454866D01*
X134490161Y-61432339D01*
X134467634Y-61404890D01*
X134450893Y-61373569D01*
X134440585Y-61339591D01*
X134436500Y-61298110D01*
X134436500Y-60621890D01*
X134440585Y-60580409D01*
X134450893Y-60546431D01*
X134467634Y-60515110D01*
X134490161Y-60487661D01*
X134517610Y-60465134D01*
X134548931Y-60448393D01*
X134582909Y-60438085D01*
X134624390Y-60434000D01*
X135225610Y-60434000D01*
X135267091Y-60438085D01*
G37*
G36*
X140042091Y-60438085D02*
G01*
X140076069Y-60448393D01*
X140107390Y-60465134D01*
X140134839Y-60487661D01*
X140157366Y-60515110D01*
X140174107Y-60546431D01*
X140184415Y-60580409D01*
X140188500Y-60621890D01*
X140188500Y-61298110D01*
X140184415Y-61339591D01*
X140174107Y-61373569D01*
X140157366Y-61404890D01*
X140134839Y-61432339D01*
X140107390Y-61454866D01*
X140076069Y-61471607D01*
X140042091Y-61481915D01*
X140000610Y-61486000D01*
X139399390Y-61486000D01*
X139357909Y-61481915D01*
X139323931Y-61471607D01*
X139292610Y-61454866D01*
X139265161Y-61432339D01*
X139242634Y-61404890D01*
X139225893Y-61373569D01*
X139215585Y-61339591D01*
X139211500Y-61298110D01*
X139211500Y-60621890D01*
X139215585Y-60580409D01*
X139225893Y-60546431D01*
X139242634Y-60515110D01*
X139265161Y-60487661D01*
X139292610Y-60465134D01*
X139323931Y-60448393D01*
X139357909Y-60438085D01*
X139399390Y-60434000D01*
X140000610Y-60434000D01*
X140042091Y-60438085D01*
G37*
G36*
X141617091Y-60438085D02*
G01*
X141651069Y-60448393D01*
X141682390Y-60465134D01*
X141709839Y-60487661D01*
X141732366Y-60515110D01*
X141749107Y-60546431D01*
X141759415Y-60580409D01*
X141763500Y-60621890D01*
X141763500Y-61298110D01*
X141759415Y-61339591D01*
X141749107Y-61373569D01*
X141732366Y-61404890D01*
X141709839Y-61432339D01*
X141682390Y-61454866D01*
X141651069Y-61471607D01*
X141617091Y-61481915D01*
X141575610Y-61486000D01*
X140974390Y-61486000D01*
X140932909Y-61481915D01*
X140898931Y-61471607D01*
X140867610Y-61454866D01*
X140840161Y-61432339D01*
X140817634Y-61404890D01*
X140800893Y-61373569D01*
X140790585Y-61339591D01*
X140786500Y-61298110D01*
X140786500Y-60621890D01*
X140790585Y-60580409D01*
X140800893Y-60546431D01*
X140817634Y-60515110D01*
X140840161Y-60487661D01*
X140867610Y-60465134D01*
X140898931Y-60448393D01*
X140932909Y-60438085D01*
X140974390Y-60434000D01*
X141575610Y-60434000D01*
X141617091Y-60438085D01*
G37*
G36*
X82746719Y-57533520D02*
G01*
X82935880Y-57590901D01*
X82935883Y-57590902D01*
X83028333Y-57640318D01*
X83110212Y-57684083D01*
X83263015Y-57809485D01*
X83388417Y-57962288D01*
X83481599Y-58136619D01*
X83538980Y-58325780D01*
X83553500Y-58473206D01*
X83553500Y-58666793D01*
X83538980Y-58814219D01*
X83481599Y-59003380D01*
X83481598Y-59003383D01*
X83432182Y-59095833D01*
X83388417Y-59177712D01*
X83263015Y-59330515D01*
X83110212Y-59455917D01*
X82935881Y-59549099D01*
X82746720Y-59606480D01*
X82550000Y-59625855D01*
X82353281Y-59606480D01*
X82164120Y-59549099D01*
X81989788Y-59455917D01*
X81836985Y-59330515D01*
X81711583Y-59177712D01*
X81618401Y-59003381D01*
X81561020Y-58814220D01*
X81546500Y-58666794D01*
X81546500Y-58473207D01*
X81561020Y-58325781D01*
X81618401Y-58136620D01*
X81618402Y-58136617D01*
X81667818Y-58044167D01*
X81711583Y-57962288D01*
X81836985Y-57809485D01*
X81989788Y-57684083D01*
X82164119Y-57590901D01*
X82353280Y-57533520D01*
X82550000Y-57514145D01*
X82746719Y-57533520D01*
G37*
G36*
X80206719Y-57533520D02*
G01*
X80395880Y-57590901D01*
X80395883Y-57590902D01*
X80488333Y-57640318D01*
X80570212Y-57684083D01*
X80723015Y-57809485D01*
X80848417Y-57962288D01*
X80941599Y-58136619D01*
X80998980Y-58325780D01*
X81013500Y-58473206D01*
X81013500Y-58666793D01*
X80998980Y-58814219D01*
X80941599Y-59003380D01*
X80941598Y-59003383D01*
X80892182Y-59095833D01*
X80848417Y-59177712D01*
X80723015Y-59330515D01*
X80570212Y-59455917D01*
X80395881Y-59549099D01*
X80206720Y-59606480D01*
X80010000Y-59625855D01*
X79813281Y-59606480D01*
X79624120Y-59549099D01*
X79449788Y-59455917D01*
X79296985Y-59330515D01*
X79171583Y-59177712D01*
X79078401Y-59003381D01*
X79021020Y-58814220D01*
X79006500Y-58666794D01*
X79006500Y-58473207D01*
X79021020Y-58325781D01*
X79078401Y-58136620D01*
X79078402Y-58136617D01*
X79127818Y-58044167D01*
X79171583Y-57962288D01*
X79296985Y-57809485D01*
X79449788Y-57684083D01*
X79624119Y-57590901D01*
X79813280Y-57533520D01*
X80010000Y-57514145D01*
X80206719Y-57533520D01*
G37*
G36*
X78473500Y-59621000D02*
G01*
X76466500Y-59621000D01*
X76466500Y-57519000D01*
X78473500Y-57519000D01*
X78473500Y-59621000D01*
G37*
G36*
X91008468Y-58315565D02*
G01*
X91047138Y-58327296D01*
X91082777Y-58346346D01*
X91114017Y-58371983D01*
X91139654Y-58403223D01*
X91158704Y-58438862D01*
X91170435Y-58477532D01*
X91175000Y-58523888D01*
X91175000Y-59175112D01*
X91170435Y-59221468D01*
X91158704Y-59260138D01*
X91139654Y-59295777D01*
X91114017Y-59327017D01*
X91082777Y-59352654D01*
X91047138Y-59371704D01*
X91008468Y-59383435D01*
X90962112Y-59388000D01*
X89885888Y-59388000D01*
X89839532Y-59383435D01*
X89800862Y-59371704D01*
X89765223Y-59352654D01*
X89733983Y-59327017D01*
X89708346Y-59295777D01*
X89689296Y-59260138D01*
X89677565Y-59221468D01*
X89673000Y-59175112D01*
X89673000Y-58523888D01*
X89677565Y-58477532D01*
X89689296Y-58438862D01*
X89708346Y-58403223D01*
X89733983Y-58371983D01*
X89765223Y-58346346D01*
X89800862Y-58327296D01*
X89839532Y-58315565D01*
X89885888Y-58311000D01*
X90962112Y-58311000D01*
X91008468Y-58315565D01*
G37*
G36*
X140451000Y-57901000D02*
G01*
X138949000Y-57901000D01*
X138949000Y-56399000D01*
X140451000Y-56399000D01*
X140451000Y-57901000D01*
G37*
G36*
X134101000Y-57901000D02*
G01*
X132599000Y-57901000D01*
X132599000Y-56399000D01*
X134101000Y-56399000D01*
X134101000Y-57901000D01*
G37*
G36*
X127751000Y-57901000D02*
G01*
X126249000Y-57901000D01*
X126249000Y-56399000D01*
X127751000Y-56399000D01*
X127751000Y-57901000D01*
G37*
G36*
X115051000Y-57901000D02*
G01*
X113549000Y-57901000D01*
X113549000Y-56399000D01*
X115051000Y-56399000D01*
X115051000Y-57901000D01*
G37*
G36*
X121401000Y-57901000D02*
G01*
X119899000Y-57901000D01*
X119899000Y-56399000D01*
X121401000Y-56399000D01*
X121401000Y-57901000D01*
G37*
G36*
X146801000Y-57901000D02*
G01*
X145299000Y-57901000D01*
X145299000Y-56399000D01*
X146801000Y-56399000D01*
X146801000Y-57901000D01*
G37*
G36*
X108701000Y-57901000D02*
G01*
X107199000Y-57901000D01*
X107199000Y-56399000D01*
X108701000Y-56399000D01*
X108701000Y-57901000D01*
G37*
G36*
X91008468Y-56440565D02*
G01*
X91047138Y-56452296D01*
X91082777Y-56471346D01*
X91114017Y-56496983D01*
X91139654Y-56528223D01*
X91158704Y-56563862D01*
X91170435Y-56602532D01*
X91175000Y-56648888D01*
X91175000Y-57300112D01*
X91170435Y-57346468D01*
X91158704Y-57385138D01*
X91139654Y-57420777D01*
X91114017Y-57452017D01*
X91082777Y-57477654D01*
X91047138Y-57496704D01*
X91008468Y-57508435D01*
X90962112Y-57513000D01*
X89885888Y-57513000D01*
X89839532Y-57508435D01*
X89800862Y-57496704D01*
X89765223Y-57477654D01*
X89733983Y-57452017D01*
X89708346Y-57420777D01*
X89689296Y-57385138D01*
X89677565Y-57346468D01*
X89673000Y-57300112D01*
X89673000Y-56648888D01*
X89677565Y-56602532D01*
X89689296Y-56563862D01*
X89708346Y-56528223D01*
X89733983Y-56496983D01*
X89765223Y-56471346D01*
X89800862Y-56452296D01*
X89839532Y-56440565D01*
X89885888Y-56436000D01*
X90962112Y-56436000D01*
X91008468Y-56440565D01*
G37*
G36*
X100607395Y-54965546D02*
G01*
X100780466Y-55037234D01*
X100780467Y-55037235D01*
X100936227Y-55141310D01*
X101068690Y-55273773D01*
X101068691Y-55273775D01*
X101172766Y-55429534D01*
X101244454Y-55602605D01*
X101281000Y-55786333D01*
X101281000Y-55973667D01*
X101244454Y-56157395D01*
X101172766Y-56330466D01*
X101172765Y-56330467D01*
X101068690Y-56486227D01*
X100936227Y-56618690D01*
X100891032Y-56648888D01*
X100780466Y-56722766D01*
X100607395Y-56794454D01*
X100423667Y-56831000D01*
X100236333Y-56831000D01*
X100052605Y-56794454D01*
X99879534Y-56722766D01*
X99768968Y-56648888D01*
X99723773Y-56618690D01*
X99591310Y-56486227D01*
X99487235Y-56330467D01*
X99487234Y-56330466D01*
X99415546Y-56157395D01*
X99379000Y-55973667D01*
X99379000Y-55786333D01*
X99415546Y-55602605D01*
X99487234Y-55429534D01*
X99591309Y-55273775D01*
X99591310Y-55273773D01*
X99723773Y-55141310D01*
X99879533Y-55037235D01*
X99879534Y-55037234D01*
X100052605Y-54965546D01*
X100236333Y-54929000D01*
X100423667Y-54929000D01*
X100607395Y-54965546D01*
G37*
G36*
X94257395Y-54965546D02*
G01*
X94430466Y-55037234D01*
X94430467Y-55037235D01*
X94586227Y-55141310D01*
X94718690Y-55273773D01*
X94718691Y-55273775D01*
X94822766Y-55429534D01*
X94894454Y-55602605D01*
X94931000Y-55786333D01*
X94931000Y-55973667D01*
X94894454Y-56157395D01*
X94822766Y-56330466D01*
X94822765Y-56330467D01*
X94718690Y-56486227D01*
X94586227Y-56618690D01*
X94541032Y-56648888D01*
X94430466Y-56722766D01*
X94257395Y-56794454D01*
X94073667Y-56831000D01*
X93886333Y-56831000D01*
X93702605Y-56794454D01*
X93529534Y-56722766D01*
X93418968Y-56648888D01*
X93373773Y-56618690D01*
X93241310Y-56486227D01*
X93137235Y-56330467D01*
X93137234Y-56330466D01*
X93065546Y-56157395D01*
X93029000Y-55973667D01*
X93029000Y-55786333D01*
X93065546Y-55602605D01*
X93137234Y-55429534D01*
X93241309Y-55273775D01*
X93241310Y-55273773D01*
X93373773Y-55141310D01*
X93529533Y-55037235D01*
X93529534Y-55037234D01*
X93702605Y-54965546D01*
X93886333Y-54929000D01*
X94073667Y-54929000D01*
X94257395Y-54965546D01*
G37*
G36*
X88226091Y-54088085D02*
G01*
X88260069Y-54098393D01*
X88291390Y-54115134D01*
X88318839Y-54137661D01*
X88341366Y-54165110D01*
X88358107Y-54196431D01*
X88368415Y-54230409D01*
X88372500Y-54271890D01*
X88372500Y-54948110D01*
X88368415Y-54989591D01*
X88358107Y-55023569D01*
X88341366Y-55054890D01*
X88318839Y-55082339D01*
X88291390Y-55104866D01*
X88260069Y-55121607D01*
X88226091Y-55131915D01*
X88184610Y-55136000D01*
X87583390Y-55136000D01*
X87541909Y-55131915D01*
X87507931Y-55121607D01*
X87476610Y-55104866D01*
X87449161Y-55082339D01*
X87426634Y-55054890D01*
X87409893Y-55023569D01*
X87399585Y-54989591D01*
X87395500Y-54948110D01*
X87395500Y-54271890D01*
X87399585Y-54230409D01*
X87409893Y-54196431D01*
X87426634Y-54165110D01*
X87449161Y-54137661D01*
X87476610Y-54115134D01*
X87507931Y-54098393D01*
X87541909Y-54088085D01*
X87583390Y-54084000D01*
X88184610Y-54084000D01*
X88226091Y-54088085D01*
G37*
G36*
X89801091Y-54088085D02*
G01*
X89835069Y-54098393D01*
X89866390Y-54115134D01*
X89893839Y-54137661D01*
X89916366Y-54165110D01*
X89933107Y-54196431D01*
X89943415Y-54230409D01*
X89947500Y-54271890D01*
X89947500Y-54948110D01*
X89943415Y-54989591D01*
X89933107Y-55023569D01*
X89916366Y-55054890D01*
X89893839Y-55082339D01*
X89866390Y-55104866D01*
X89835069Y-55121607D01*
X89801091Y-55131915D01*
X89759610Y-55136000D01*
X89158390Y-55136000D01*
X89116909Y-55131915D01*
X89082931Y-55121607D01*
X89051610Y-55104866D01*
X89024161Y-55082339D01*
X89001634Y-55054890D01*
X88984893Y-55023569D01*
X88974585Y-54989591D01*
X88970500Y-54948110D01*
X88970500Y-54271890D01*
X88974585Y-54230409D01*
X88984893Y-54196431D01*
X89001634Y-54165110D01*
X89024161Y-54137661D01*
X89051610Y-54115134D01*
X89082931Y-54098393D01*
X89116909Y-54088085D01*
X89158390Y-54084000D01*
X89759610Y-54084000D01*
X89801091Y-54088085D01*
G37*
G36*
X114519059Y-51347860D02*
G01*
X114655732Y-51404472D01*
X114778735Y-51486660D01*
X114883340Y-51591265D01*
X114965528Y-51714268D01*
X115022140Y-51850941D01*
X115051000Y-51996033D01*
X115051000Y-52143967D01*
X115022140Y-52289059D01*
X114965528Y-52425732D01*
X114883340Y-52548735D01*
X114778735Y-52653340D01*
X114655732Y-52735528D01*
X114655731Y-52735529D01*
X114655730Y-52735529D01*
X114519059Y-52792140D01*
X114373968Y-52821000D01*
X114226032Y-52821000D01*
X114080941Y-52792140D01*
X113944270Y-52735529D01*
X113944269Y-52735529D01*
X113944268Y-52735528D01*
X113821265Y-52653340D01*
X113716660Y-52548735D01*
X113634472Y-52425732D01*
X113577860Y-52289059D01*
X113549000Y-52143967D01*
X113549000Y-51996033D01*
X113577860Y-51850941D01*
X113634472Y-51714268D01*
X113716660Y-51591265D01*
X113821265Y-51486660D01*
X113944268Y-51404472D01*
X114080941Y-51347860D01*
X114226032Y-51319000D01*
X114373968Y-51319000D01*
X114519059Y-51347860D01*
G37*
G36*
X108169059Y-51347860D02*
G01*
X108305732Y-51404472D01*
X108428735Y-51486660D01*
X108533340Y-51591265D01*
X108615528Y-51714268D01*
X108672140Y-51850941D01*
X108701000Y-51996033D01*
X108701000Y-52143967D01*
X108672140Y-52289059D01*
X108615528Y-52425732D01*
X108533340Y-52548735D01*
X108428735Y-52653340D01*
X108305732Y-52735528D01*
X108305731Y-52735529D01*
X108305730Y-52735529D01*
X108169059Y-52792140D01*
X108023968Y-52821000D01*
X107876032Y-52821000D01*
X107730941Y-52792140D01*
X107594270Y-52735529D01*
X107594269Y-52735529D01*
X107594268Y-52735528D01*
X107471265Y-52653340D01*
X107366660Y-52548735D01*
X107284472Y-52425732D01*
X107227860Y-52289059D01*
X107199000Y-52143967D01*
X107199000Y-51996033D01*
X107227860Y-51850941D01*
X107284472Y-51714268D01*
X107366660Y-51591265D01*
X107471265Y-51486660D01*
X107594268Y-51404472D01*
X107730941Y-51347860D01*
X107876032Y-51319000D01*
X108023968Y-51319000D01*
X108169059Y-51347860D01*
G37*
G36*
X146269059Y-51347860D02*
G01*
X146405732Y-51404472D01*
X146528735Y-51486660D01*
X146633340Y-51591265D01*
X146715528Y-51714268D01*
X146772140Y-51850941D01*
X146801000Y-51996033D01*
X146801000Y-52143967D01*
X146772140Y-52289059D01*
X146715528Y-52425732D01*
X146633340Y-52548735D01*
X146528735Y-52653340D01*
X146405732Y-52735528D01*
X146405731Y-52735529D01*
X146405730Y-52735529D01*
X146269059Y-52792140D01*
X146123968Y-52821000D01*
X145976032Y-52821000D01*
X145830941Y-52792140D01*
X145694270Y-52735529D01*
X145694269Y-52735529D01*
X145694268Y-52735528D01*
X145571265Y-52653340D01*
X145466660Y-52548735D01*
X145384472Y-52425732D01*
X145327860Y-52289059D01*
X145299000Y-52143967D01*
X145299000Y-51996033D01*
X145327860Y-51850941D01*
X145384472Y-51714268D01*
X145466660Y-51591265D01*
X145571265Y-51486660D01*
X145694268Y-51404472D01*
X145830941Y-51347860D01*
X145976032Y-51319000D01*
X146123968Y-51319000D01*
X146269059Y-51347860D01*
G37*
G36*
X133569059Y-51347860D02*
G01*
X133705732Y-51404472D01*
X133828735Y-51486660D01*
X133933340Y-51591265D01*
X134015528Y-51714268D01*
X134072140Y-51850941D01*
X134101000Y-51996033D01*
X134101000Y-52143967D01*
X134072140Y-52289059D01*
X134015528Y-52425732D01*
X133933340Y-52548735D01*
X133828735Y-52653340D01*
X133705732Y-52735528D01*
X133705731Y-52735529D01*
X133705730Y-52735529D01*
X133569059Y-52792140D01*
X133423968Y-52821000D01*
X133276032Y-52821000D01*
X133130941Y-52792140D01*
X132994270Y-52735529D01*
X132994269Y-52735529D01*
X132994268Y-52735528D01*
X132871265Y-52653340D01*
X132766660Y-52548735D01*
X132684472Y-52425732D01*
X132627860Y-52289059D01*
X132599000Y-52143967D01*
X132599000Y-51996033D01*
X132627860Y-51850941D01*
X132684472Y-51714268D01*
X132766660Y-51591265D01*
X132871265Y-51486660D01*
X132994268Y-51404472D01*
X133130941Y-51347860D01*
X133276032Y-51319000D01*
X133423968Y-51319000D01*
X133569059Y-51347860D01*
G37*
G36*
X127219059Y-51347860D02*
G01*
X127355732Y-51404472D01*
X127478735Y-51486660D01*
X127583340Y-51591265D01*
X127665528Y-51714268D01*
X127722140Y-51850941D01*
X127751000Y-51996033D01*
X127751000Y-52143967D01*
X127722140Y-52289059D01*
X127665528Y-52425732D01*
X127583340Y-52548735D01*
X127478735Y-52653340D01*
X127355732Y-52735528D01*
X127355731Y-52735529D01*
X127355730Y-52735529D01*
X127219059Y-52792140D01*
X127073968Y-52821000D01*
X126926032Y-52821000D01*
X126780941Y-52792140D01*
X126644270Y-52735529D01*
X126644269Y-52735529D01*
X126644268Y-52735528D01*
X126521265Y-52653340D01*
X126416660Y-52548735D01*
X126334472Y-52425732D01*
X126277860Y-52289059D01*
X126249000Y-52143967D01*
X126249000Y-51996033D01*
X126277860Y-51850941D01*
X126334472Y-51714268D01*
X126416660Y-51591265D01*
X126521265Y-51486660D01*
X126644268Y-51404472D01*
X126780941Y-51347860D01*
X126926032Y-51319000D01*
X127073968Y-51319000D01*
X127219059Y-51347860D01*
G37*
G36*
X120869059Y-51347860D02*
G01*
X121005732Y-51404472D01*
X121128735Y-51486660D01*
X121233340Y-51591265D01*
X121315528Y-51714268D01*
X121372140Y-51850941D01*
X121401000Y-51996033D01*
X121401000Y-52143967D01*
X121372140Y-52289059D01*
X121315528Y-52425732D01*
X121233340Y-52548735D01*
X121128735Y-52653340D01*
X121005732Y-52735528D01*
X121005731Y-52735529D01*
X121005730Y-52735529D01*
X120869059Y-52792140D01*
X120723968Y-52821000D01*
X120576032Y-52821000D01*
X120430941Y-52792140D01*
X120294270Y-52735529D01*
X120294269Y-52735529D01*
X120294268Y-52735528D01*
X120171265Y-52653340D01*
X120066660Y-52548735D01*
X119984472Y-52425732D01*
X119927860Y-52289059D01*
X119899000Y-52143967D01*
X119899000Y-51996033D01*
X119927860Y-51850941D01*
X119984472Y-51714268D01*
X120066660Y-51591265D01*
X120171265Y-51486660D01*
X120294268Y-51404472D01*
X120430941Y-51347860D01*
X120576032Y-51319000D01*
X120723968Y-51319000D01*
X120869059Y-51347860D01*
G37*
G36*
X139919059Y-51347860D02*
G01*
X140055732Y-51404472D01*
X140178735Y-51486660D01*
X140283340Y-51591265D01*
X140365528Y-51714268D01*
X140422140Y-51850941D01*
X140451000Y-51996033D01*
X140451000Y-52143967D01*
X140422140Y-52289059D01*
X140365528Y-52425732D01*
X140283340Y-52548735D01*
X140178735Y-52653340D01*
X140055732Y-52735528D01*
X140055731Y-52735529D01*
X140055730Y-52735529D01*
X139919059Y-52792140D01*
X139773968Y-52821000D01*
X139626032Y-52821000D01*
X139480941Y-52792140D01*
X139344270Y-52735529D01*
X139344269Y-52735529D01*
X139344268Y-52735528D01*
X139221265Y-52653340D01*
X139116660Y-52548735D01*
X139034472Y-52425732D01*
X138977860Y-52289059D01*
X138949000Y-52143967D01*
X138949000Y-51996033D01*
X138977860Y-51850941D01*
X139034472Y-51714268D01*
X139116660Y-51591265D01*
X139221265Y-51486660D01*
X139344268Y-51404472D01*
X139480941Y-51347860D01*
X139626032Y-51319000D01*
X139773968Y-51319000D01*
X139919059Y-51347860D01*
G37*
G36*
X103147395Y-47345546D02*
G01*
X103320466Y-47417234D01*
X103320467Y-47417235D01*
X103476227Y-47521310D01*
X103608690Y-47653773D01*
X103609863Y-47655529D01*
X103712766Y-47809534D01*
X103784454Y-47982605D01*
X103821000Y-48166333D01*
X103821000Y-48353667D01*
X103784454Y-48537395D01*
X103712766Y-48710466D01*
X103712765Y-48710467D01*
X103608690Y-48866227D01*
X103476227Y-48998690D01*
X103397818Y-49051081D01*
X103320466Y-49102766D01*
X103147395Y-49174454D01*
X102963667Y-49211000D01*
X102776333Y-49211000D01*
X102592605Y-49174454D01*
X102419534Y-49102766D01*
X102342182Y-49051081D01*
X102263773Y-48998690D01*
X102131310Y-48866227D01*
X102027235Y-48710467D01*
X102027234Y-48710466D01*
X101955546Y-48537395D01*
X101919000Y-48353667D01*
X101919000Y-48166333D01*
X101955546Y-47982605D01*
X102027234Y-47809534D01*
X102130137Y-47655529D01*
X102131310Y-47653773D01*
X102263773Y-47521310D01*
X102419533Y-47417235D01*
X102419534Y-47417234D01*
X102592605Y-47345546D01*
X102776333Y-47309000D01*
X102963667Y-47309000D01*
X103147395Y-47345546D01*
G37*
G36*
X96797395Y-47345546D02*
G01*
X96970466Y-47417234D01*
X96970467Y-47417235D01*
X97126227Y-47521310D01*
X97258690Y-47653773D01*
X97259863Y-47655529D01*
X97362766Y-47809534D01*
X97434454Y-47982605D01*
X97471000Y-48166333D01*
X97471000Y-48353667D01*
X97434454Y-48537395D01*
X97362766Y-48710466D01*
X97362765Y-48710467D01*
X97258690Y-48866227D01*
X97126227Y-48998690D01*
X97047818Y-49051081D01*
X96970466Y-49102766D01*
X96797395Y-49174454D01*
X96613667Y-49211000D01*
X96426333Y-49211000D01*
X96242605Y-49174454D01*
X96069534Y-49102766D01*
X95992182Y-49051081D01*
X95913773Y-48998690D01*
X95781310Y-48866227D01*
X95677235Y-48710467D01*
X95677234Y-48710466D01*
X95605546Y-48537395D01*
X95569000Y-48353667D01*
X95569000Y-48166333D01*
X95605546Y-47982605D01*
X95677234Y-47809534D01*
X95780137Y-47655529D01*
X95781310Y-47653773D01*
X95913773Y-47521310D01*
X96069533Y-47417235D01*
X96069534Y-47417234D01*
X96242605Y-47345546D01*
X96426333Y-47309000D01*
X96613667Y-47309000D01*
X96797395Y-47345546D01*
G37*
G36*
X108169059Y-46267860D02*
G01*
X108305732Y-46324472D01*
X108428735Y-46406660D01*
X108533340Y-46511265D01*
X108615528Y-46634268D01*
X108672140Y-46770941D01*
X108701000Y-46916033D01*
X108701000Y-47063967D01*
X108672140Y-47209059D01*
X108615528Y-47345732D01*
X108533340Y-47468735D01*
X108428735Y-47573340D01*
X108305732Y-47655528D01*
X108305731Y-47655529D01*
X108305730Y-47655529D01*
X108169059Y-47712140D01*
X108023968Y-47741000D01*
X107876032Y-47741000D01*
X107730941Y-47712140D01*
X107594270Y-47655529D01*
X107594269Y-47655529D01*
X107594268Y-47655528D01*
X107471265Y-47573340D01*
X107366660Y-47468735D01*
X107284472Y-47345732D01*
X107227860Y-47209059D01*
X107199000Y-47063967D01*
X107199000Y-46916033D01*
X107227860Y-46770941D01*
X107284472Y-46634268D01*
X107366660Y-46511265D01*
X107471265Y-46406660D01*
X107594268Y-46324472D01*
X107730941Y-46267860D01*
X107876032Y-46239000D01*
X108023968Y-46239000D01*
X108169059Y-46267860D01*
G37*
G36*
X146269059Y-46267860D02*
G01*
X146405732Y-46324472D01*
X146528735Y-46406660D01*
X146633340Y-46511265D01*
X146715528Y-46634268D01*
X146772140Y-46770941D01*
X146801000Y-46916033D01*
X146801000Y-47063967D01*
X146772140Y-47209059D01*
X146715528Y-47345732D01*
X146633340Y-47468735D01*
X146528735Y-47573340D01*
X146405732Y-47655528D01*
X146405731Y-47655529D01*
X146405730Y-47655529D01*
X146269059Y-47712140D01*
X146123968Y-47741000D01*
X145976032Y-47741000D01*
X145830941Y-47712140D01*
X145694270Y-47655529D01*
X145694269Y-47655529D01*
X145694268Y-47655528D01*
X145571265Y-47573340D01*
X145466660Y-47468735D01*
X145384472Y-47345732D01*
X145327860Y-47209059D01*
X145299000Y-47063967D01*
X145299000Y-46916033D01*
X145327860Y-46770941D01*
X145384472Y-46634268D01*
X145466660Y-46511265D01*
X145571265Y-46406660D01*
X145694268Y-46324472D01*
X145830941Y-46267860D01*
X145976032Y-46239000D01*
X146123968Y-46239000D01*
X146269059Y-46267860D01*
G37*
G36*
X120869059Y-46267860D02*
G01*
X121005732Y-46324472D01*
X121128735Y-46406660D01*
X121233340Y-46511265D01*
X121315528Y-46634268D01*
X121372140Y-46770941D01*
X121401000Y-46916033D01*
X121401000Y-47063967D01*
X121372140Y-47209059D01*
X121315528Y-47345732D01*
X121233340Y-47468735D01*
X121128735Y-47573340D01*
X121005732Y-47655528D01*
X121005731Y-47655529D01*
X121005730Y-47655529D01*
X120869059Y-47712140D01*
X120723968Y-47741000D01*
X120576032Y-47741000D01*
X120430941Y-47712140D01*
X120294270Y-47655529D01*
X120294269Y-47655529D01*
X120294268Y-47655528D01*
X120171265Y-47573340D01*
X120066660Y-47468735D01*
X119984472Y-47345732D01*
X119927860Y-47209059D01*
X119899000Y-47063967D01*
X119899000Y-46916033D01*
X119927860Y-46770941D01*
X119984472Y-46634268D01*
X120066660Y-46511265D01*
X120171265Y-46406660D01*
X120294268Y-46324472D01*
X120430941Y-46267860D01*
X120576032Y-46239000D01*
X120723968Y-46239000D01*
X120869059Y-46267860D01*
G37*
G36*
X127219059Y-46267860D02*
G01*
X127355732Y-46324472D01*
X127478735Y-46406660D01*
X127583340Y-46511265D01*
X127665528Y-46634268D01*
X127722140Y-46770941D01*
X127751000Y-46916033D01*
X127751000Y-47063967D01*
X127722140Y-47209059D01*
X127665528Y-47345732D01*
X127583340Y-47468735D01*
X127478735Y-47573340D01*
X127355732Y-47655528D01*
X127355731Y-47655529D01*
X127355730Y-47655529D01*
X127219059Y-47712140D01*
X127073968Y-47741000D01*
X126926032Y-47741000D01*
X126780941Y-47712140D01*
X126644270Y-47655529D01*
X126644269Y-47655529D01*
X126644268Y-47655528D01*
X126521265Y-47573340D01*
X126416660Y-47468735D01*
X126334472Y-47345732D01*
X126277860Y-47209059D01*
X126249000Y-47063967D01*
X126249000Y-46916033D01*
X126277860Y-46770941D01*
X126334472Y-46634268D01*
X126416660Y-46511265D01*
X126521265Y-46406660D01*
X126644268Y-46324472D01*
X126780941Y-46267860D01*
X126926032Y-46239000D01*
X127073968Y-46239000D01*
X127219059Y-46267860D01*
G37*
G36*
X133569059Y-46267860D02*
G01*
X133705732Y-46324472D01*
X133828735Y-46406660D01*
X133933340Y-46511265D01*
X134015528Y-46634268D01*
X134072140Y-46770941D01*
X134101000Y-46916033D01*
X134101000Y-47063967D01*
X134072140Y-47209059D01*
X134015528Y-47345732D01*
X133933340Y-47468735D01*
X133828735Y-47573340D01*
X133705732Y-47655528D01*
X133705731Y-47655529D01*
X133705730Y-47655529D01*
X133569059Y-47712140D01*
X133423968Y-47741000D01*
X133276032Y-47741000D01*
X133130941Y-47712140D01*
X132994270Y-47655529D01*
X132994269Y-47655529D01*
X132994268Y-47655528D01*
X132871265Y-47573340D01*
X132766660Y-47468735D01*
X132684472Y-47345732D01*
X132627860Y-47209059D01*
X132599000Y-47063967D01*
X132599000Y-46916033D01*
X132627860Y-46770941D01*
X132684472Y-46634268D01*
X132766660Y-46511265D01*
X132871265Y-46406660D01*
X132994268Y-46324472D01*
X133130941Y-46267860D01*
X133276032Y-46239000D01*
X133423968Y-46239000D01*
X133569059Y-46267860D01*
G37*
G36*
X139919059Y-46267860D02*
G01*
X140055732Y-46324472D01*
X140178735Y-46406660D01*
X140283340Y-46511265D01*
X140365528Y-46634268D01*
X140422140Y-46770941D01*
X140451000Y-46916033D01*
X140451000Y-47063967D01*
X140422140Y-47209059D01*
X140365528Y-47345732D01*
X140283340Y-47468735D01*
X140178735Y-47573340D01*
X140055732Y-47655528D01*
X140055731Y-47655529D01*
X140055730Y-47655529D01*
X139919059Y-47712140D01*
X139773968Y-47741000D01*
X139626032Y-47741000D01*
X139480941Y-47712140D01*
X139344270Y-47655529D01*
X139344269Y-47655529D01*
X139344268Y-47655528D01*
X139221265Y-47573340D01*
X139116660Y-47468735D01*
X139034472Y-47345732D01*
X138977860Y-47209059D01*
X138949000Y-47063967D01*
X138949000Y-46916033D01*
X138977860Y-46770941D01*
X139034472Y-46634268D01*
X139116660Y-46511265D01*
X139221265Y-46406660D01*
X139344268Y-46324472D01*
X139480941Y-46267860D01*
X139626032Y-46239000D01*
X139773968Y-46239000D01*
X139919059Y-46267860D01*
G37*
G36*
X114519059Y-46267860D02*
G01*
X114655732Y-46324472D01*
X114778735Y-46406660D01*
X114883340Y-46511265D01*
X114965528Y-46634268D01*
X115022140Y-46770941D01*
X115051000Y-46916033D01*
X115051000Y-47063967D01*
X115022140Y-47209059D01*
X114965528Y-47345732D01*
X114883340Y-47468735D01*
X114778735Y-47573340D01*
X114655732Y-47655528D01*
X114655731Y-47655529D01*
X114655730Y-47655529D01*
X114519059Y-47712140D01*
X114373968Y-47741000D01*
X114226032Y-47741000D01*
X114080941Y-47712140D01*
X113944270Y-47655529D01*
X113944269Y-47655529D01*
X113944268Y-47655528D01*
X113821265Y-47573340D01*
X113716660Y-47468735D01*
X113634472Y-47345732D01*
X113577860Y-47209059D01*
X113549000Y-47063967D01*
X113549000Y-46916033D01*
X113577860Y-46770941D01*
X113634472Y-46634268D01*
X113716660Y-46511265D01*
X113821265Y-46406660D01*
X113944268Y-46324472D01*
X114080941Y-46267860D01*
X114226032Y-46239000D01*
X114373968Y-46239000D01*
X114519059Y-46267860D01*
G37*
G36*
X100607395Y-42265546D02*
G01*
X100780466Y-42337234D01*
X100780467Y-42337235D01*
X100936227Y-42441310D01*
X101068690Y-42573773D01*
X101069863Y-42575529D01*
X101172766Y-42729534D01*
X101244454Y-42902605D01*
X101281000Y-43086333D01*
X101281000Y-43273667D01*
X101244454Y-43457395D01*
X101172766Y-43630466D01*
X101172765Y-43630467D01*
X101068690Y-43786227D01*
X100936227Y-43918690D01*
X100857818Y-43971081D01*
X100780466Y-44022766D01*
X100607395Y-44094454D01*
X100423667Y-44131000D01*
X100236333Y-44131000D01*
X100052605Y-44094454D01*
X99879534Y-44022766D01*
X99802182Y-43971081D01*
X99723773Y-43918690D01*
X99591310Y-43786227D01*
X99487235Y-43630467D01*
X99487234Y-43630466D01*
X99415546Y-43457395D01*
X99379000Y-43273667D01*
X99379000Y-43086333D01*
X99415546Y-42902605D01*
X99487234Y-42729534D01*
X99590137Y-42575529D01*
X99591310Y-42573773D01*
X99723773Y-42441310D01*
X99879533Y-42337235D01*
X99879534Y-42337234D01*
X100052605Y-42265546D01*
X100236333Y-42229000D01*
X100423667Y-42229000D01*
X100607395Y-42265546D01*
G37*
G36*
X94257395Y-42265546D02*
G01*
X94430466Y-42337234D01*
X94430467Y-42337235D01*
X94586227Y-42441310D01*
X94718690Y-42573773D01*
X94719863Y-42575529D01*
X94822766Y-42729534D01*
X94894454Y-42902605D01*
X94931000Y-43086333D01*
X94931000Y-43273667D01*
X94894454Y-43457395D01*
X94822766Y-43630466D01*
X94822765Y-43630467D01*
X94718690Y-43786227D01*
X94586227Y-43918690D01*
X94507818Y-43971081D01*
X94430466Y-44022766D01*
X94257395Y-44094454D01*
X94073667Y-44131000D01*
X93886333Y-44131000D01*
X93702605Y-44094454D01*
X93529534Y-44022766D01*
X93452182Y-43971081D01*
X93373773Y-43918690D01*
X93241310Y-43786227D01*
X93137235Y-43630467D01*
X93137234Y-43630466D01*
X93065546Y-43457395D01*
X93029000Y-43273667D01*
X93029000Y-43086333D01*
X93065546Y-42902605D01*
X93137234Y-42729534D01*
X93240137Y-42575529D01*
X93241310Y-42573773D01*
X93373773Y-42441310D01*
X93529533Y-42337235D01*
X93529534Y-42337234D01*
X93702605Y-42265546D01*
X93886333Y-42229000D01*
X94073667Y-42229000D01*
X94257395Y-42265546D01*
G37*
G36*
X80535331Y-40178211D02*
G01*
X80863092Y-40313974D01*
X81158070Y-40511072D01*
X81408928Y-40761930D01*
X81606026Y-41056908D01*
X81741789Y-41384669D01*
X81811000Y-41732616D01*
X81811000Y-42087384D01*
X81741789Y-42435331D01*
X81606026Y-42763092D01*
X81408928Y-43058070D01*
X81158070Y-43308928D01*
X80863092Y-43506026D01*
X80535331Y-43641789D01*
X80187384Y-43711000D01*
X79832616Y-43711000D01*
X79484669Y-43641789D01*
X79156908Y-43506026D01*
X78861930Y-43308928D01*
X78611072Y-43058070D01*
X78413974Y-42763092D01*
X78278211Y-42435331D01*
X78209000Y-42087384D01*
X78209000Y-41732616D01*
X78278211Y-41384669D01*
X78413974Y-41056908D01*
X78611072Y-40761930D01*
X78861930Y-40511072D01*
X79156908Y-40313974D01*
X79484669Y-40178211D01*
X79832616Y-40109000D01*
X80187384Y-40109000D01*
X80535331Y-40178211D01*
G37*
G36*
X127219059Y-41187860D02*
G01*
X127355732Y-41244472D01*
X127478735Y-41326660D01*
X127583340Y-41431265D01*
X127665528Y-41554268D01*
X127722140Y-41690941D01*
X127751000Y-41836033D01*
X127751000Y-41983967D01*
X127722140Y-42129059D01*
X127665528Y-42265732D01*
X127583340Y-42388735D01*
X127478735Y-42493340D01*
X127355732Y-42575528D01*
X127355731Y-42575529D01*
X127355730Y-42575529D01*
X127219059Y-42632140D01*
X127073968Y-42661000D01*
X126926032Y-42661000D01*
X126780941Y-42632140D01*
X126644270Y-42575529D01*
X126644269Y-42575529D01*
X126644268Y-42575528D01*
X126521265Y-42493340D01*
X126416660Y-42388735D01*
X126334472Y-42265732D01*
X126277860Y-42129059D01*
X126249000Y-41983967D01*
X126249000Y-41836033D01*
X126277860Y-41690941D01*
X126334472Y-41554268D01*
X126416660Y-41431265D01*
X126521265Y-41326660D01*
X126644268Y-41244472D01*
X126780941Y-41187860D01*
X126926032Y-41159000D01*
X127073968Y-41159000D01*
X127219059Y-41187860D01*
G37*
G36*
X108169059Y-41187860D02*
G01*
X108305732Y-41244472D01*
X108428735Y-41326660D01*
X108533340Y-41431265D01*
X108615528Y-41554268D01*
X108672140Y-41690941D01*
X108701000Y-41836033D01*
X108701000Y-41983967D01*
X108672140Y-42129059D01*
X108615528Y-42265732D01*
X108533340Y-42388735D01*
X108428735Y-42493340D01*
X108305732Y-42575528D01*
X108305731Y-42575529D01*
X108305730Y-42575529D01*
X108169059Y-42632140D01*
X108023968Y-42661000D01*
X107876032Y-42661000D01*
X107730941Y-42632140D01*
X107594270Y-42575529D01*
X107594269Y-42575529D01*
X107594268Y-42575528D01*
X107471265Y-42493340D01*
X107366660Y-42388735D01*
X107284472Y-42265732D01*
X107227860Y-42129059D01*
X107199000Y-41983967D01*
X107199000Y-41836033D01*
X107227860Y-41690941D01*
X107284472Y-41554268D01*
X107366660Y-41431265D01*
X107471265Y-41326660D01*
X107594268Y-41244472D01*
X107730941Y-41187860D01*
X107876032Y-41159000D01*
X108023968Y-41159000D01*
X108169059Y-41187860D01*
G37*
G36*
X120869059Y-41187860D02*
G01*
X121005732Y-41244472D01*
X121128735Y-41326660D01*
X121233340Y-41431265D01*
X121315528Y-41554268D01*
X121372140Y-41690941D01*
X121401000Y-41836033D01*
X121401000Y-41983967D01*
X121372140Y-42129059D01*
X121315528Y-42265732D01*
X121233340Y-42388735D01*
X121128735Y-42493340D01*
X121005732Y-42575528D01*
X121005731Y-42575529D01*
X121005730Y-42575529D01*
X120869059Y-42632140D01*
X120723968Y-42661000D01*
X120576032Y-42661000D01*
X120430941Y-42632140D01*
X120294270Y-42575529D01*
X120294269Y-42575529D01*
X120294268Y-42575528D01*
X120171265Y-42493340D01*
X120066660Y-42388735D01*
X119984472Y-42265732D01*
X119927860Y-42129059D01*
X119899000Y-41983967D01*
X119899000Y-41836033D01*
X119927860Y-41690941D01*
X119984472Y-41554268D01*
X120066660Y-41431265D01*
X120171265Y-41326660D01*
X120294268Y-41244472D01*
X120430941Y-41187860D01*
X120576032Y-41159000D01*
X120723968Y-41159000D01*
X120869059Y-41187860D01*
G37*
G36*
X139919059Y-41187860D02*
G01*
X140055732Y-41244472D01*
X140178735Y-41326660D01*
X140283340Y-41431265D01*
X140365528Y-41554268D01*
X140422140Y-41690941D01*
X140451000Y-41836033D01*
X140451000Y-41983967D01*
X140422140Y-42129059D01*
X140365528Y-42265732D01*
X140283340Y-42388735D01*
X140178735Y-42493340D01*
X140055732Y-42575528D01*
X140055731Y-42575529D01*
X140055730Y-42575529D01*
X139919059Y-42632140D01*
X139773968Y-42661000D01*
X139626032Y-42661000D01*
X139480941Y-42632140D01*
X139344270Y-42575529D01*
X139344269Y-42575529D01*
X139344268Y-42575528D01*
X139221265Y-42493340D01*
X139116660Y-42388735D01*
X139034472Y-42265732D01*
X138977860Y-42129059D01*
X138949000Y-41983967D01*
X138949000Y-41836033D01*
X138977860Y-41690941D01*
X139034472Y-41554268D01*
X139116660Y-41431265D01*
X139221265Y-41326660D01*
X139344268Y-41244472D01*
X139480941Y-41187860D01*
X139626032Y-41159000D01*
X139773968Y-41159000D01*
X139919059Y-41187860D01*
G37*
G36*
X114519059Y-41187860D02*
G01*
X114655732Y-41244472D01*
X114778735Y-41326660D01*
X114883340Y-41431265D01*
X114965528Y-41554268D01*
X115022140Y-41690941D01*
X115051000Y-41836033D01*
X115051000Y-41983967D01*
X115022140Y-42129059D01*
X114965528Y-42265732D01*
X114883340Y-42388735D01*
X114778735Y-42493340D01*
X114655732Y-42575528D01*
X114655731Y-42575529D01*
X114655730Y-42575529D01*
X114519059Y-42632140D01*
X114373968Y-42661000D01*
X114226032Y-42661000D01*
X114080941Y-42632140D01*
X113944270Y-42575529D01*
X113944269Y-42575529D01*
X113944268Y-42575528D01*
X113821265Y-42493340D01*
X113716660Y-42388735D01*
X113634472Y-42265732D01*
X113577860Y-42129059D01*
X113549000Y-41983967D01*
X113549000Y-41836033D01*
X113577860Y-41690941D01*
X113634472Y-41554268D01*
X113716660Y-41431265D01*
X113821265Y-41326660D01*
X113944268Y-41244472D01*
X114080941Y-41187860D01*
X114226032Y-41159000D01*
X114373968Y-41159000D01*
X114519059Y-41187860D01*
G37*
G36*
X133569059Y-41187860D02*
G01*
X133705732Y-41244472D01*
X133828735Y-41326660D01*
X133933340Y-41431265D01*
X134015528Y-41554268D01*
X134072140Y-41690941D01*
X134101000Y-41836033D01*
X134101000Y-41983967D01*
X134072140Y-42129059D01*
X134015528Y-42265732D01*
X133933340Y-42388735D01*
X133828735Y-42493340D01*
X133705732Y-42575528D01*
X133705731Y-42575529D01*
X133705730Y-42575529D01*
X133569059Y-42632140D01*
X133423968Y-42661000D01*
X133276032Y-42661000D01*
X133130941Y-42632140D01*
X132994270Y-42575529D01*
X132994269Y-42575529D01*
X132994268Y-42575528D01*
X132871265Y-42493340D01*
X132766660Y-42388735D01*
X132684472Y-42265732D01*
X132627860Y-42129059D01*
X132599000Y-41983967D01*
X132599000Y-41836033D01*
X132627860Y-41690941D01*
X132684472Y-41554268D01*
X132766660Y-41431265D01*
X132871265Y-41326660D01*
X132994268Y-41244472D01*
X133130941Y-41187860D01*
X133276032Y-41159000D01*
X133423968Y-41159000D01*
X133569059Y-41187860D01*
G37*
G36*
X146269059Y-41187860D02*
G01*
X146405732Y-41244472D01*
X146528735Y-41326660D01*
X146633340Y-41431265D01*
X146715528Y-41554268D01*
X146772140Y-41690941D01*
X146801000Y-41836033D01*
X146801000Y-41983967D01*
X146772140Y-42129059D01*
X146715528Y-42265732D01*
X146633340Y-42388735D01*
X146528735Y-42493340D01*
X146405732Y-42575528D01*
X146405731Y-42575529D01*
X146405730Y-42575529D01*
X146269059Y-42632140D01*
X146123968Y-42661000D01*
X145976032Y-42661000D01*
X145830941Y-42632140D01*
X145694270Y-42575529D01*
X145694269Y-42575529D01*
X145694268Y-42575528D01*
X145571265Y-42493340D01*
X145466660Y-42388735D01*
X145384472Y-42265732D01*
X145327860Y-42129059D01*
X145299000Y-41983967D01*
X145299000Y-41836033D01*
X145327860Y-41690941D01*
X145384472Y-41554268D01*
X145466660Y-41431265D01*
X145571265Y-41326660D01*
X145694268Y-41244472D01*
X145830941Y-41187860D01*
X145976032Y-41159000D01*
X146123968Y-41159000D01*
X146269059Y-41187860D01*
G37*
M02*
