G04 #@! TF.GenerationSoftware,KiCad,Pcbnew,(5.1.5)-3*
G04 #@! TF.CreationDate,2020-02-22T15:11:54-08:00*
G04 #@! TF.ProjectId,voltages,766f6c74-6167-4657-932e-6b696361645f,rev?*
G04 #@! TF.SameCoordinates,Original*
G04 #@! TF.FileFunction,Copper,L3,Inr*
G04 #@! TF.FilePolarity,Positive*
%FSLAX46Y46*%
G04 Gerber Fmt 4.6, Leading zero omitted, Abs format (unit mm)*
G04 Created by KiCad (PCBNEW (5.1.5)-3) date 2020-02-22 15:11:54*
%MOMM*%
%LPD*%
G04 APERTURE LIST*
%ADD10O,1.600000X2.300000*%
%ADD11O,1.905000X2.000000*%
%ADD12R,1.905000X2.000000*%
%ADD13C,3.200000*%
%ADD14C,1.800000*%
%ADD15R,1.400000X1.400000*%
%ADD16C,1.400000*%
%ADD17C,0.800000*%
%ADD18C,0.254000*%
G04 APERTURE END LIST*
D10*
X91186000Y-75438000D03*
X91186000Y-67818000D03*
X88646000Y-75438000D03*
X78486000Y-75438000D03*
X88646000Y-67818000D03*
X78486000Y-67818000D03*
D11*
X82550000Y-58570000D03*
X80010000Y-58570000D03*
D12*
X77470000Y-58570000D03*
D13*
X80010000Y-41910000D03*
D14*
X100330000Y-43180000D03*
X102870000Y-48260000D03*
X100330000Y-55880000D03*
X93980000Y-43180000D03*
X96520000Y-48260000D03*
X93980000Y-55880000D03*
D15*
X146050000Y-57150000D03*
D16*
X146050000Y-52070000D03*
X146050000Y-46990000D03*
X146050000Y-41910000D03*
D15*
X139700000Y-57150000D03*
D16*
X139700000Y-52070000D03*
X139700000Y-46990000D03*
X139700000Y-41910000D03*
D15*
X133350000Y-57150000D03*
D16*
X133350000Y-52070000D03*
X133350000Y-46990000D03*
X133350000Y-41910000D03*
D15*
X127000000Y-57150000D03*
D16*
X127000000Y-52070000D03*
X127000000Y-46990000D03*
X127000000Y-41910000D03*
D15*
X120650000Y-57150000D03*
D16*
X120650000Y-52070000D03*
X120650000Y-46990000D03*
X120650000Y-41910000D03*
D15*
X114300000Y-57150000D03*
D16*
X114300000Y-52070000D03*
X114300000Y-46990000D03*
X114300000Y-41910000D03*
D15*
X107950000Y-57150000D03*
D16*
X107950000Y-52070000D03*
X107950000Y-46990000D03*
X107950000Y-41910000D03*
D17*
X65786000Y-68580000D03*
X87122000Y-64008000D03*
X70866000Y-74676000D03*
X97536000Y-70866000D03*
X95758000Y-69342000D03*
X98552000Y-78740000D03*
X133350000Y-78232000D03*
X126238000Y-63754000D03*
X116124579Y-86360000D03*
X114543567Y-86550944D03*
X113030000Y-85852000D03*
X106426000Y-85090000D03*
X105410000Y-85598000D03*
X91948000Y-58674000D03*
X72390000Y-76708000D03*
X73406000Y-78994000D03*
X74676000Y-76708000D03*
X75692000Y-78994000D03*
X115062000Y-80010000D03*
X119888000Y-62738000D03*
X128270000Y-77978000D03*
X130810000Y-78232000D03*
X103813180Y-86178820D03*
X110236000Y-67310000D03*
X100330000Y-83820000D03*
X100584000Y-85090000D03*
X99822000Y-82804000D03*
X100584000Y-86106000D03*
X108204000Y-76200000D03*
X110490000Y-74930000D03*
X108458000Y-73660000D03*
X110236000Y-72390000D03*
X108204000Y-71120000D03*
X114808000Y-70358000D03*
X113538000Y-68580000D03*
X86868000Y-56642000D03*
D18*
G36*
X149613547Y-83315000D02*
G01*
X119666353Y-83315000D01*
X119639533Y-83317642D01*
X119636807Y-83317613D01*
X119627285Y-83318513D01*
X119433119Y-83338236D01*
X119372260Y-83350507D01*
X119311234Y-83361928D01*
X119302068Y-83364660D01*
X119115430Y-83421721D01*
X119058108Y-83445582D01*
X119000470Y-83468636D01*
X118992009Y-83473096D01*
X118820009Y-83565321D01*
X118768388Y-83599879D01*
X118716349Y-83633673D01*
X118708916Y-83639692D01*
X118558103Y-83763570D01*
X118514181Y-83807492D01*
X118469692Y-83850756D01*
X118463569Y-83858104D01*
X118339693Y-84008915D01*
X118305174Y-84060478D01*
X118269902Y-84111608D01*
X118265324Y-84120005D01*
X118173098Y-84292006D01*
X118149239Y-84349323D01*
X118124582Y-84406303D01*
X118121721Y-84415429D01*
X118064660Y-84602067D01*
X118052385Y-84662946D01*
X118039269Y-84723609D01*
X118038236Y-84733118D01*
X118025312Y-84860352D01*
X118024752Y-84862198D01*
X118014840Y-84962834D01*
X118014841Y-89789000D01*
X112184840Y-89789000D01*
X112184840Y-86450079D01*
X112226063Y-86511774D01*
X112370226Y-86655937D01*
X112539744Y-86769205D01*
X112728102Y-86847226D01*
X112928061Y-86887000D01*
X113131939Y-86887000D01*
X113331898Y-86847226D01*
X113520256Y-86769205D01*
X113530362Y-86762453D01*
X113548341Y-86852842D01*
X113626362Y-87041200D01*
X113739630Y-87210718D01*
X113883793Y-87354881D01*
X114053311Y-87468149D01*
X114241669Y-87546170D01*
X114441628Y-87585944D01*
X114645506Y-87585944D01*
X114845465Y-87546170D01*
X115033823Y-87468149D01*
X115203341Y-87354881D01*
X115347504Y-87210718D01*
X115413226Y-87112358D01*
X115464805Y-87163937D01*
X115634323Y-87277205D01*
X115822681Y-87355226D01*
X116022640Y-87395000D01*
X116226518Y-87395000D01*
X116426477Y-87355226D01*
X116614835Y-87277205D01*
X116784353Y-87163937D01*
X116928516Y-87019774D01*
X117041784Y-86850256D01*
X117119805Y-86661898D01*
X117159579Y-86461939D01*
X117159579Y-86258061D01*
X117119805Y-86058102D01*
X117041784Y-85869744D01*
X116928516Y-85700226D01*
X116784353Y-85556063D01*
X116614835Y-85442795D01*
X116426477Y-85364774D01*
X116226518Y-85325000D01*
X116022640Y-85325000D01*
X115822681Y-85364774D01*
X115634323Y-85442795D01*
X115464805Y-85556063D01*
X115320642Y-85700226D01*
X115254920Y-85798586D01*
X115203341Y-85747007D01*
X115033823Y-85633739D01*
X114845465Y-85555718D01*
X114645506Y-85515944D01*
X114441628Y-85515944D01*
X114241669Y-85555718D01*
X114053311Y-85633739D01*
X114043205Y-85640491D01*
X114025226Y-85550102D01*
X113947205Y-85361744D01*
X113833937Y-85192226D01*
X113689774Y-85048063D01*
X113520256Y-84934795D01*
X113331898Y-84856774D01*
X113131939Y-84817000D01*
X112928061Y-84817000D01*
X112728102Y-84856774D01*
X112539744Y-84934795D01*
X112370226Y-85048063D01*
X112226063Y-85192226D01*
X112112795Y-85361744D01*
X112091327Y-85413572D01*
X112075955Y-85365114D01*
X112051507Y-85308072D01*
X112027838Y-85250647D01*
X112023289Y-85242233D01*
X111933968Y-85079759D01*
X111898877Y-85028511D01*
X111864533Y-84976819D01*
X111858437Y-84969450D01*
X111739259Y-84827420D01*
X111694902Y-84783982D01*
X111651155Y-84739929D01*
X111643743Y-84733884D01*
X111499249Y-84617708D01*
X111447339Y-84583739D01*
X111395828Y-84548995D01*
X111387384Y-84544505D01*
X111223075Y-84458606D01*
X111165520Y-84435352D01*
X111108275Y-84411289D01*
X111099123Y-84408526D01*
X111099117Y-84408524D01*
X110921255Y-84356177D01*
X110860248Y-84344539D01*
X110799454Y-84332060D01*
X110789936Y-84331126D01*
X110605292Y-84314322D01*
X110543202Y-84314756D01*
X110481123Y-84314323D01*
X110471604Y-84315256D01*
X110287212Y-84334637D01*
X110226409Y-84347118D01*
X110165414Y-84358753D01*
X110156258Y-84361518D01*
X110156253Y-84361519D01*
X110156248Y-84361521D01*
X109979142Y-84416344D01*
X109921897Y-84440407D01*
X109864342Y-84463661D01*
X109855903Y-84468148D01*
X109855899Y-84468150D01*
X109855898Y-84468151D01*
X109692805Y-84556335D01*
X109641348Y-84591043D01*
X109589382Y-84625049D01*
X109581970Y-84631094D01*
X109439111Y-84749278D01*
X109395366Y-84793330D01*
X109351008Y-84836768D01*
X109344912Y-84844137D01*
X109344909Y-84844140D01*
X109344907Y-84844144D01*
X109227729Y-84987817D01*
X109193375Y-85039524D01*
X109158296Y-85090755D01*
X109153747Y-85099168D01*
X109066703Y-85262874D01*
X109043053Y-85320252D01*
X109018585Y-85377342D01*
X109015757Y-85386478D01*
X108962169Y-85563972D01*
X108950114Y-85624853D01*
X108937202Y-85685599D01*
X108936202Y-85695111D01*
X108918109Y-85879634D01*
X108918109Y-85879639D01*
X108914840Y-85912834D01*
X108914841Y-89789000D01*
X99084840Y-89789000D01*
X99084840Y-86076881D01*
X102778180Y-86076881D01*
X102778180Y-86280759D01*
X102817954Y-86480718D01*
X102895975Y-86669076D01*
X103009243Y-86838594D01*
X103153406Y-86982757D01*
X103322924Y-87096025D01*
X103511282Y-87174046D01*
X103711241Y-87213820D01*
X103915119Y-87213820D01*
X104115078Y-87174046D01*
X104303436Y-87096025D01*
X104472954Y-86982757D01*
X104617117Y-86838594D01*
X104730385Y-86669076D01*
X104808406Y-86480718D01*
X104815413Y-86445493D01*
X104919744Y-86515205D01*
X105108102Y-86593226D01*
X105308061Y-86633000D01*
X105511939Y-86633000D01*
X105711898Y-86593226D01*
X105900256Y-86515205D01*
X106069774Y-86401937D01*
X106213937Y-86257774D01*
X106305165Y-86121241D01*
X106324061Y-86125000D01*
X106527939Y-86125000D01*
X106727898Y-86085226D01*
X106916256Y-86007205D01*
X107085774Y-85893937D01*
X107229937Y-85749774D01*
X107343205Y-85580256D01*
X107421226Y-85391898D01*
X107461000Y-85191939D01*
X107461000Y-84988061D01*
X107421226Y-84788102D01*
X107343205Y-84599744D01*
X107229937Y-84430226D01*
X107085774Y-84286063D01*
X106916256Y-84172795D01*
X106727898Y-84094774D01*
X106527939Y-84055000D01*
X106324061Y-84055000D01*
X106124102Y-84094774D01*
X105935744Y-84172795D01*
X105766226Y-84286063D01*
X105622063Y-84430226D01*
X105530835Y-84566759D01*
X105511939Y-84563000D01*
X105308061Y-84563000D01*
X105108102Y-84602774D01*
X104919744Y-84680795D01*
X104750226Y-84794063D01*
X104606063Y-84938226D01*
X104492795Y-85107744D01*
X104414774Y-85296102D01*
X104407767Y-85331327D01*
X104303436Y-85261615D01*
X104115078Y-85183594D01*
X103915119Y-85143820D01*
X103711241Y-85143820D01*
X103511282Y-85183594D01*
X103322924Y-85261615D01*
X103153406Y-85374883D01*
X103009243Y-85519046D01*
X102895975Y-85688564D01*
X102817954Y-85876922D01*
X102778180Y-86076881D01*
X99084840Y-86076881D01*
X99084840Y-85009364D01*
X99084948Y-85008386D01*
X99084999Y-84998822D01*
X99084993Y-84995332D01*
X99084840Y-84993799D01*
X99084840Y-84962833D01*
X99082376Y-84937820D01*
X99082387Y-84936807D01*
X99081487Y-84927285D01*
X99076605Y-84879221D01*
X99074928Y-84862197D01*
X99074849Y-84861937D01*
X99061764Y-84733119D01*
X99049493Y-84672260D01*
X99038072Y-84611234D01*
X99035340Y-84602068D01*
X98978279Y-84415430D01*
X98954418Y-84358108D01*
X98931364Y-84300470D01*
X98926904Y-84292009D01*
X98834679Y-84120009D01*
X98800121Y-84068388D01*
X98766327Y-84016349D01*
X98760308Y-84008916D01*
X98636430Y-83858103D01*
X98592508Y-83814181D01*
X98549244Y-83769692D01*
X98541896Y-83763569D01*
X98391085Y-83639693D01*
X98339522Y-83605174D01*
X98288392Y-83569902D01*
X98279995Y-83565324D01*
X98107994Y-83473098D01*
X98050677Y-83449239D01*
X97993697Y-83424582D01*
X97984571Y-83421721D01*
X97797933Y-83364660D01*
X97737054Y-83352385D01*
X97676391Y-83339269D01*
X97666882Y-83338236D01*
X97538783Y-83325224D01*
X97537774Y-83324918D01*
X97437138Y-83315006D01*
X63985000Y-83315006D01*
X63985000Y-78892061D01*
X72371000Y-78892061D01*
X72371000Y-79095939D01*
X72410774Y-79295898D01*
X72488795Y-79484256D01*
X72602063Y-79653774D01*
X72746226Y-79797937D01*
X72915744Y-79911205D01*
X73104102Y-79989226D01*
X73304061Y-80029000D01*
X73507939Y-80029000D01*
X73707898Y-79989226D01*
X73896256Y-79911205D01*
X74065774Y-79797937D01*
X74209937Y-79653774D01*
X74323205Y-79484256D01*
X74401226Y-79295898D01*
X74441000Y-79095939D01*
X74441000Y-78892061D01*
X74657000Y-78892061D01*
X74657000Y-79095939D01*
X74696774Y-79295898D01*
X74774795Y-79484256D01*
X74888063Y-79653774D01*
X75032226Y-79797937D01*
X75201744Y-79911205D01*
X75390102Y-79989226D01*
X75590061Y-80029000D01*
X75793939Y-80029000D01*
X75993898Y-79989226D01*
X76182256Y-79911205D01*
X76186961Y-79908061D01*
X114027000Y-79908061D01*
X114027000Y-80111939D01*
X114066774Y-80311898D01*
X114144795Y-80500256D01*
X114258063Y-80669774D01*
X114402226Y-80813937D01*
X114571744Y-80927205D01*
X114760102Y-81005226D01*
X114960061Y-81045000D01*
X115163939Y-81045000D01*
X115363898Y-81005226D01*
X115552256Y-80927205D01*
X115721774Y-80813937D01*
X115865937Y-80669774D01*
X115979205Y-80500256D01*
X116057226Y-80311898D01*
X116097000Y-80111939D01*
X116097000Y-79908061D01*
X116057226Y-79708102D01*
X115979205Y-79519744D01*
X115865937Y-79350226D01*
X115721774Y-79206063D01*
X115552256Y-79092795D01*
X115363898Y-79014774D01*
X115163939Y-78975000D01*
X114960061Y-78975000D01*
X114760102Y-79014774D01*
X114571744Y-79092795D01*
X114402226Y-79206063D01*
X114258063Y-79350226D01*
X114144795Y-79519744D01*
X114066774Y-79708102D01*
X114027000Y-79908061D01*
X76186961Y-79908061D01*
X76351774Y-79797937D01*
X76495937Y-79653774D01*
X76609205Y-79484256D01*
X76687226Y-79295898D01*
X76727000Y-79095939D01*
X76727000Y-78892061D01*
X76687226Y-78692102D01*
X76664842Y-78638061D01*
X97517000Y-78638061D01*
X97517000Y-78841939D01*
X97556774Y-79041898D01*
X97634795Y-79230256D01*
X97748063Y-79399774D01*
X97892226Y-79543937D01*
X98061744Y-79657205D01*
X98250102Y-79735226D01*
X98450061Y-79775000D01*
X98653939Y-79775000D01*
X98853898Y-79735226D01*
X99042256Y-79657205D01*
X99211774Y-79543937D01*
X99355937Y-79399774D01*
X99469205Y-79230256D01*
X99547226Y-79041898D01*
X99587000Y-78841939D01*
X99587000Y-78638061D01*
X99547226Y-78438102D01*
X99469205Y-78249744D01*
X99355937Y-78080226D01*
X99211774Y-77936063D01*
X99121975Y-77876061D01*
X127235000Y-77876061D01*
X127235000Y-78079939D01*
X127274774Y-78279898D01*
X127352795Y-78468256D01*
X127466063Y-78637774D01*
X127610226Y-78781937D01*
X127779744Y-78895205D01*
X127968102Y-78973226D01*
X128168061Y-79013000D01*
X128371939Y-79013000D01*
X128571898Y-78973226D01*
X128760256Y-78895205D01*
X128929774Y-78781937D01*
X129073937Y-78637774D01*
X129187205Y-78468256D01*
X129265226Y-78279898D01*
X129295030Y-78130061D01*
X129775000Y-78130061D01*
X129775000Y-78333939D01*
X129814774Y-78533898D01*
X129892795Y-78722256D01*
X130006063Y-78891774D01*
X130150226Y-79035937D01*
X130319744Y-79149205D01*
X130508102Y-79227226D01*
X130708061Y-79267000D01*
X130911939Y-79267000D01*
X131111898Y-79227226D01*
X131300256Y-79149205D01*
X131469774Y-79035937D01*
X131613937Y-78891774D01*
X131727205Y-78722256D01*
X131805226Y-78533898D01*
X131845000Y-78333939D01*
X131845000Y-78130061D01*
X132315000Y-78130061D01*
X132315000Y-78333939D01*
X132354774Y-78533898D01*
X132432795Y-78722256D01*
X132546063Y-78891774D01*
X132690226Y-79035937D01*
X132859744Y-79149205D01*
X133048102Y-79227226D01*
X133248061Y-79267000D01*
X133451939Y-79267000D01*
X133651898Y-79227226D01*
X133840256Y-79149205D01*
X134009774Y-79035937D01*
X134153937Y-78891774D01*
X134267205Y-78722256D01*
X134345226Y-78533898D01*
X134385000Y-78333939D01*
X134385000Y-78130061D01*
X134345226Y-77930102D01*
X134267205Y-77741744D01*
X134153937Y-77572226D01*
X134009774Y-77428063D01*
X133840256Y-77314795D01*
X133651898Y-77236774D01*
X133451939Y-77197000D01*
X133248061Y-77197000D01*
X133048102Y-77236774D01*
X132859744Y-77314795D01*
X132690226Y-77428063D01*
X132546063Y-77572226D01*
X132432795Y-77741744D01*
X132354774Y-77930102D01*
X132315000Y-78130061D01*
X131845000Y-78130061D01*
X131805226Y-77930102D01*
X131727205Y-77741744D01*
X131613937Y-77572226D01*
X131469774Y-77428063D01*
X131300256Y-77314795D01*
X131111898Y-77236774D01*
X130911939Y-77197000D01*
X130708061Y-77197000D01*
X130508102Y-77236774D01*
X130319744Y-77314795D01*
X130150226Y-77428063D01*
X130006063Y-77572226D01*
X129892795Y-77741744D01*
X129814774Y-77930102D01*
X129775000Y-78130061D01*
X129295030Y-78130061D01*
X129305000Y-78079939D01*
X129305000Y-77876061D01*
X129265226Y-77676102D01*
X129187205Y-77487744D01*
X129073937Y-77318226D01*
X128929774Y-77174063D01*
X128760256Y-77060795D01*
X128571898Y-76982774D01*
X128371939Y-76943000D01*
X128168061Y-76943000D01*
X127968102Y-76982774D01*
X127779744Y-77060795D01*
X127610226Y-77174063D01*
X127466063Y-77318226D01*
X127352795Y-77487744D01*
X127274774Y-77676102D01*
X127235000Y-77876061D01*
X99121975Y-77876061D01*
X99042256Y-77822795D01*
X98853898Y-77744774D01*
X98653939Y-77705000D01*
X98450061Y-77705000D01*
X98250102Y-77744774D01*
X98061744Y-77822795D01*
X97892226Y-77936063D01*
X97748063Y-78080226D01*
X97634795Y-78249744D01*
X97556774Y-78438102D01*
X97517000Y-78638061D01*
X76664842Y-78638061D01*
X76609205Y-78503744D01*
X76495937Y-78334226D01*
X76351774Y-78190063D01*
X76182256Y-78076795D01*
X75993898Y-77998774D01*
X75793939Y-77959000D01*
X75590061Y-77959000D01*
X75390102Y-77998774D01*
X75201744Y-78076795D01*
X75032226Y-78190063D01*
X74888063Y-78334226D01*
X74774795Y-78503744D01*
X74696774Y-78692102D01*
X74657000Y-78892061D01*
X74441000Y-78892061D01*
X74401226Y-78692102D01*
X74323205Y-78503744D01*
X74209937Y-78334226D01*
X74065774Y-78190063D01*
X73896256Y-78076795D01*
X73707898Y-77998774D01*
X73507939Y-77959000D01*
X73304061Y-77959000D01*
X73104102Y-77998774D01*
X72915744Y-78076795D01*
X72746226Y-78190063D01*
X72602063Y-78334226D01*
X72488795Y-78503744D01*
X72410774Y-78692102D01*
X72371000Y-78892061D01*
X63985000Y-78892061D01*
X63985000Y-76606061D01*
X71355000Y-76606061D01*
X71355000Y-76809939D01*
X71394774Y-77009898D01*
X71472795Y-77198256D01*
X71586063Y-77367774D01*
X71730226Y-77511937D01*
X71899744Y-77625205D01*
X72088102Y-77703226D01*
X72288061Y-77743000D01*
X72491939Y-77743000D01*
X72691898Y-77703226D01*
X72880256Y-77625205D01*
X73049774Y-77511937D01*
X73193937Y-77367774D01*
X73307205Y-77198256D01*
X73385226Y-77009898D01*
X73425000Y-76809939D01*
X73425000Y-76606061D01*
X73641000Y-76606061D01*
X73641000Y-76809939D01*
X73680774Y-77009898D01*
X73758795Y-77198256D01*
X73872063Y-77367774D01*
X74016226Y-77511937D01*
X74185744Y-77625205D01*
X74374102Y-77703226D01*
X74574061Y-77743000D01*
X74777939Y-77743000D01*
X74977898Y-77703226D01*
X75166256Y-77625205D01*
X75335774Y-77511937D01*
X75479937Y-77367774D01*
X75593205Y-77198256D01*
X75671226Y-77009898D01*
X75711000Y-76809939D01*
X75711000Y-76606061D01*
X75671226Y-76406102D01*
X75593205Y-76217744D01*
X75479937Y-76048226D01*
X75335774Y-75904063D01*
X75166256Y-75790795D01*
X74977898Y-75712774D01*
X74777939Y-75673000D01*
X74574061Y-75673000D01*
X74374102Y-75712774D01*
X74185744Y-75790795D01*
X74016226Y-75904063D01*
X73872063Y-76048226D01*
X73758795Y-76217744D01*
X73680774Y-76406102D01*
X73641000Y-76606061D01*
X73425000Y-76606061D01*
X73385226Y-76406102D01*
X73307205Y-76217744D01*
X73193937Y-76048226D01*
X73049774Y-75904063D01*
X72880256Y-75790795D01*
X72691898Y-75712774D01*
X72491939Y-75673000D01*
X72288061Y-75673000D01*
X72088102Y-75712774D01*
X71899744Y-75790795D01*
X71730226Y-75904063D01*
X71586063Y-76048226D01*
X71472795Y-76217744D01*
X71394774Y-76406102D01*
X71355000Y-76606061D01*
X63985000Y-76606061D01*
X63985000Y-74574061D01*
X69831000Y-74574061D01*
X69831000Y-74777939D01*
X69870774Y-74977898D01*
X69948795Y-75166256D01*
X70062063Y-75335774D01*
X70206226Y-75479937D01*
X70375744Y-75593205D01*
X70564102Y-75671226D01*
X70764061Y-75711000D01*
X70967939Y-75711000D01*
X71167898Y-75671226D01*
X71356256Y-75593205D01*
X71525774Y-75479937D01*
X71669937Y-75335774D01*
X71783205Y-75166256D01*
X71844818Y-75017509D01*
X77051000Y-75017509D01*
X77051000Y-75858492D01*
X77071764Y-76069309D01*
X77153818Y-76339808D01*
X77287068Y-76589101D01*
X77466393Y-76807608D01*
X77684900Y-76986932D01*
X77934193Y-77120182D01*
X78204692Y-77202236D01*
X78486000Y-77229943D01*
X78767309Y-77202236D01*
X79037808Y-77120182D01*
X79287101Y-76986932D01*
X79505608Y-76807608D01*
X79684932Y-76589101D01*
X79818182Y-76339808D01*
X79900236Y-76069308D01*
X79921000Y-75858491D01*
X79921000Y-75017509D01*
X87211000Y-75017509D01*
X87211000Y-75858492D01*
X87231764Y-76069309D01*
X87313818Y-76339808D01*
X87447068Y-76589101D01*
X87626393Y-76807608D01*
X87844900Y-76986932D01*
X88094193Y-77120182D01*
X88364692Y-77202236D01*
X88646000Y-77229943D01*
X88927309Y-77202236D01*
X89197808Y-77120182D01*
X89447101Y-76986932D01*
X89665608Y-76807608D01*
X89844932Y-76589101D01*
X89916000Y-76456142D01*
X89987068Y-76589101D01*
X90166393Y-76807608D01*
X90384900Y-76986932D01*
X90634193Y-77120182D01*
X90904692Y-77202236D01*
X91186000Y-77229943D01*
X91467309Y-77202236D01*
X91737808Y-77120182D01*
X91987101Y-76986932D01*
X92205608Y-76807608D01*
X92384932Y-76589101D01*
X92518182Y-76339808D01*
X92591514Y-76098061D01*
X107169000Y-76098061D01*
X107169000Y-76301939D01*
X107208774Y-76501898D01*
X107286795Y-76690256D01*
X107400063Y-76859774D01*
X107544226Y-77003937D01*
X107713744Y-77117205D01*
X107902102Y-77195226D01*
X108102061Y-77235000D01*
X108305939Y-77235000D01*
X108505898Y-77195226D01*
X108694256Y-77117205D01*
X108863774Y-77003937D01*
X109007937Y-76859774D01*
X109121205Y-76690256D01*
X109199226Y-76501898D01*
X109239000Y-76301939D01*
X109239000Y-76098061D01*
X109199226Y-75898102D01*
X109121205Y-75709744D01*
X109007937Y-75540226D01*
X108863774Y-75396063D01*
X108694256Y-75282795D01*
X108505898Y-75204774D01*
X108305939Y-75165000D01*
X108102061Y-75165000D01*
X107902102Y-75204774D01*
X107713744Y-75282795D01*
X107544226Y-75396063D01*
X107400063Y-75540226D01*
X107286795Y-75709744D01*
X107208774Y-75898102D01*
X107169000Y-76098061D01*
X92591514Y-76098061D01*
X92600236Y-76069308D01*
X92621000Y-75858491D01*
X92621000Y-75017508D01*
X92602341Y-74828061D01*
X109455000Y-74828061D01*
X109455000Y-75031939D01*
X109494774Y-75231898D01*
X109572795Y-75420256D01*
X109686063Y-75589774D01*
X109830226Y-75733937D01*
X109999744Y-75847205D01*
X110188102Y-75925226D01*
X110388061Y-75965000D01*
X110591939Y-75965000D01*
X110791898Y-75925226D01*
X110980256Y-75847205D01*
X111149774Y-75733937D01*
X111293937Y-75589774D01*
X111407205Y-75420256D01*
X111485226Y-75231898D01*
X111525000Y-75031939D01*
X111525000Y-74828061D01*
X111485226Y-74628102D01*
X111407205Y-74439744D01*
X111293937Y-74270226D01*
X111149774Y-74126063D01*
X110980256Y-74012795D01*
X110791898Y-73934774D01*
X110591939Y-73895000D01*
X110388061Y-73895000D01*
X110188102Y-73934774D01*
X109999744Y-74012795D01*
X109830226Y-74126063D01*
X109686063Y-74270226D01*
X109572795Y-74439744D01*
X109494774Y-74628102D01*
X109455000Y-74828061D01*
X92602341Y-74828061D01*
X92600236Y-74806691D01*
X92518182Y-74536192D01*
X92384932Y-74286899D01*
X92205607Y-74068392D01*
X91987100Y-73889068D01*
X91737807Y-73755818D01*
X91467308Y-73673764D01*
X91186000Y-73646057D01*
X90904691Y-73673764D01*
X90634192Y-73755818D01*
X90384899Y-73889068D01*
X90166392Y-74068393D01*
X89987068Y-74286900D01*
X89916000Y-74419858D01*
X89844932Y-74286899D01*
X89665607Y-74068392D01*
X89447100Y-73889068D01*
X89197807Y-73755818D01*
X88927308Y-73673764D01*
X88646000Y-73646057D01*
X88364691Y-73673764D01*
X88094192Y-73755818D01*
X87844899Y-73889068D01*
X87626392Y-74068393D01*
X87447068Y-74286900D01*
X87313818Y-74536193D01*
X87231764Y-74806692D01*
X87211000Y-75017509D01*
X79921000Y-75017509D01*
X79921000Y-75017508D01*
X79900236Y-74806691D01*
X79818182Y-74536192D01*
X79684932Y-74286899D01*
X79505607Y-74068392D01*
X79287100Y-73889068D01*
X79037807Y-73755818D01*
X78767308Y-73673764D01*
X78486000Y-73646057D01*
X78204691Y-73673764D01*
X77934192Y-73755818D01*
X77684899Y-73889068D01*
X77466392Y-74068393D01*
X77287068Y-74286900D01*
X77153818Y-74536193D01*
X77071764Y-74806692D01*
X77051000Y-75017509D01*
X71844818Y-75017509D01*
X71861226Y-74977898D01*
X71901000Y-74777939D01*
X71901000Y-74574061D01*
X71861226Y-74374102D01*
X71783205Y-74185744D01*
X71669937Y-74016226D01*
X71525774Y-73872063D01*
X71356256Y-73758795D01*
X71167898Y-73680774D01*
X70967939Y-73641000D01*
X70764061Y-73641000D01*
X70564102Y-73680774D01*
X70375744Y-73758795D01*
X70206226Y-73872063D01*
X70062063Y-74016226D01*
X69948795Y-74185744D01*
X69870774Y-74374102D01*
X69831000Y-74574061D01*
X63985000Y-74574061D01*
X63985000Y-73558061D01*
X107423000Y-73558061D01*
X107423000Y-73761939D01*
X107462774Y-73961898D01*
X107540795Y-74150256D01*
X107654063Y-74319774D01*
X107798226Y-74463937D01*
X107967744Y-74577205D01*
X108156102Y-74655226D01*
X108356061Y-74695000D01*
X108559939Y-74695000D01*
X108759898Y-74655226D01*
X108948256Y-74577205D01*
X109117774Y-74463937D01*
X109261937Y-74319774D01*
X109375205Y-74150256D01*
X109453226Y-73961898D01*
X109493000Y-73761939D01*
X109493000Y-73558061D01*
X109453226Y-73358102D01*
X109375205Y-73169744D01*
X109261937Y-73000226D01*
X109117774Y-72856063D01*
X108948256Y-72742795D01*
X108759898Y-72664774D01*
X108559939Y-72625000D01*
X108356061Y-72625000D01*
X108156102Y-72664774D01*
X107967744Y-72742795D01*
X107798226Y-72856063D01*
X107654063Y-73000226D01*
X107540795Y-73169744D01*
X107462774Y-73358102D01*
X107423000Y-73558061D01*
X63985000Y-73558061D01*
X63985000Y-72288061D01*
X109201000Y-72288061D01*
X109201000Y-72491939D01*
X109240774Y-72691898D01*
X109318795Y-72880256D01*
X109432063Y-73049774D01*
X109576226Y-73193937D01*
X109745744Y-73307205D01*
X109934102Y-73385226D01*
X110134061Y-73425000D01*
X110337939Y-73425000D01*
X110537898Y-73385226D01*
X110726256Y-73307205D01*
X110895774Y-73193937D01*
X111039937Y-73049774D01*
X111153205Y-72880256D01*
X111231226Y-72691898D01*
X111271000Y-72491939D01*
X111271000Y-72288061D01*
X111231226Y-72088102D01*
X111153205Y-71899744D01*
X111039937Y-71730226D01*
X110895774Y-71586063D01*
X110726256Y-71472795D01*
X110537898Y-71394774D01*
X110337939Y-71355000D01*
X110134061Y-71355000D01*
X109934102Y-71394774D01*
X109745744Y-71472795D01*
X109576226Y-71586063D01*
X109432063Y-71730226D01*
X109318795Y-71899744D01*
X109240774Y-72088102D01*
X109201000Y-72288061D01*
X63985000Y-72288061D01*
X63985000Y-70764061D01*
X96501000Y-70764061D01*
X96501000Y-70967939D01*
X96540774Y-71167898D01*
X96618795Y-71356256D01*
X96732063Y-71525774D01*
X96876226Y-71669937D01*
X97045744Y-71783205D01*
X97234102Y-71861226D01*
X97434061Y-71901000D01*
X97637939Y-71901000D01*
X97837898Y-71861226D01*
X98026256Y-71783205D01*
X98195774Y-71669937D01*
X98339937Y-71525774D01*
X98453205Y-71356256D01*
X98531226Y-71167898D01*
X98561030Y-71018061D01*
X107169000Y-71018061D01*
X107169000Y-71221939D01*
X107208774Y-71421898D01*
X107286795Y-71610256D01*
X107400063Y-71779774D01*
X107544226Y-71923937D01*
X107713744Y-72037205D01*
X107902102Y-72115226D01*
X108102061Y-72155000D01*
X108305939Y-72155000D01*
X108505898Y-72115226D01*
X108694256Y-72037205D01*
X108863774Y-71923937D01*
X109007937Y-71779774D01*
X109121205Y-71610256D01*
X109199226Y-71421898D01*
X109239000Y-71221939D01*
X109239000Y-71018061D01*
X109199226Y-70818102D01*
X109121205Y-70629744D01*
X109007937Y-70460226D01*
X108863774Y-70316063D01*
X108773975Y-70256061D01*
X113773000Y-70256061D01*
X113773000Y-70459939D01*
X113812774Y-70659898D01*
X113890795Y-70848256D01*
X114004063Y-71017774D01*
X114148226Y-71161937D01*
X114317744Y-71275205D01*
X114506102Y-71353226D01*
X114706061Y-71393000D01*
X114909939Y-71393000D01*
X115109898Y-71353226D01*
X115298256Y-71275205D01*
X115467774Y-71161937D01*
X115611937Y-71017774D01*
X115725205Y-70848256D01*
X115803226Y-70659898D01*
X115843000Y-70459939D01*
X115843000Y-70256061D01*
X115803226Y-70056102D01*
X115725205Y-69867744D01*
X115611937Y-69698226D01*
X115467774Y-69554063D01*
X115298256Y-69440795D01*
X115109898Y-69362774D01*
X114909939Y-69323000D01*
X114706061Y-69323000D01*
X114506102Y-69362774D01*
X114317744Y-69440795D01*
X114148226Y-69554063D01*
X114004063Y-69698226D01*
X113890795Y-69867744D01*
X113812774Y-70056102D01*
X113773000Y-70256061D01*
X108773975Y-70256061D01*
X108694256Y-70202795D01*
X108505898Y-70124774D01*
X108305939Y-70085000D01*
X108102061Y-70085000D01*
X107902102Y-70124774D01*
X107713744Y-70202795D01*
X107544226Y-70316063D01*
X107400063Y-70460226D01*
X107286795Y-70629744D01*
X107208774Y-70818102D01*
X107169000Y-71018061D01*
X98561030Y-71018061D01*
X98571000Y-70967939D01*
X98571000Y-70764061D01*
X98531226Y-70564102D01*
X98453205Y-70375744D01*
X98339937Y-70206226D01*
X98195774Y-70062063D01*
X98026256Y-69948795D01*
X97837898Y-69870774D01*
X97637939Y-69831000D01*
X97434061Y-69831000D01*
X97234102Y-69870774D01*
X97045744Y-69948795D01*
X96876226Y-70062063D01*
X96732063Y-70206226D01*
X96618795Y-70375744D01*
X96540774Y-70564102D01*
X96501000Y-70764061D01*
X63985000Y-70764061D01*
X63985000Y-68478061D01*
X64751000Y-68478061D01*
X64751000Y-68681939D01*
X64790774Y-68881898D01*
X64868795Y-69070256D01*
X64982063Y-69239774D01*
X65126226Y-69383937D01*
X65295744Y-69497205D01*
X65484102Y-69575226D01*
X65684061Y-69615000D01*
X65887939Y-69615000D01*
X66087898Y-69575226D01*
X66276256Y-69497205D01*
X66445774Y-69383937D01*
X66589937Y-69239774D01*
X66703205Y-69070256D01*
X66781226Y-68881898D01*
X66821000Y-68681939D01*
X66821000Y-68478061D01*
X66781226Y-68278102D01*
X66703205Y-68089744D01*
X66589937Y-67920226D01*
X66445774Y-67776063D01*
X66276256Y-67662795D01*
X66087898Y-67584774D01*
X65887939Y-67545000D01*
X65684061Y-67545000D01*
X65484102Y-67584774D01*
X65295744Y-67662795D01*
X65126226Y-67776063D01*
X64982063Y-67920226D01*
X64868795Y-68089744D01*
X64790774Y-68278102D01*
X64751000Y-68478061D01*
X63985000Y-68478061D01*
X63985000Y-67397509D01*
X77051000Y-67397509D01*
X77051000Y-68238492D01*
X77071764Y-68449309D01*
X77153818Y-68719808D01*
X77287068Y-68969101D01*
X77466393Y-69187608D01*
X77684900Y-69366932D01*
X77934193Y-69500182D01*
X78204692Y-69582236D01*
X78486000Y-69609943D01*
X78767309Y-69582236D01*
X79037808Y-69500182D01*
X79287101Y-69366932D01*
X79505608Y-69187608D01*
X79684932Y-68969101D01*
X79818182Y-68719808D01*
X79900236Y-68449308D01*
X79921000Y-68238491D01*
X79921000Y-67945000D01*
X87211000Y-67945000D01*
X87211000Y-68295000D01*
X87263350Y-68572514D01*
X87368834Y-68834483D01*
X87523399Y-69070839D01*
X87721105Y-69272500D01*
X87954354Y-69431715D01*
X88214182Y-69542367D01*
X88296961Y-69559904D01*
X88519000Y-69437915D01*
X88519000Y-67945000D01*
X87211000Y-67945000D01*
X79921000Y-67945000D01*
X79921000Y-67397508D01*
X79915435Y-67341000D01*
X87211000Y-67341000D01*
X87211000Y-67691000D01*
X88519000Y-67691000D01*
X88519000Y-66198085D01*
X88773000Y-66198085D01*
X88773000Y-67691000D01*
X88793000Y-67691000D01*
X88793000Y-67945000D01*
X88773000Y-67945000D01*
X88773000Y-69437915D01*
X88995039Y-69559904D01*
X89077818Y-69542367D01*
X89337646Y-69431715D01*
X89570895Y-69272500D01*
X89768601Y-69070839D01*
X89918735Y-68841259D01*
X89987068Y-68969101D01*
X90166393Y-69187608D01*
X90384900Y-69366932D01*
X90634193Y-69500182D01*
X90904692Y-69582236D01*
X91186000Y-69609943D01*
X91467309Y-69582236D01*
X91737808Y-69500182D01*
X91987101Y-69366932D01*
X92141693Y-69240061D01*
X94723000Y-69240061D01*
X94723000Y-69443939D01*
X94762774Y-69643898D01*
X94840795Y-69832256D01*
X94954063Y-70001774D01*
X95098226Y-70145937D01*
X95267744Y-70259205D01*
X95456102Y-70337226D01*
X95656061Y-70377000D01*
X95859939Y-70377000D01*
X96059898Y-70337226D01*
X96248256Y-70259205D01*
X96417774Y-70145937D01*
X96561937Y-70001774D01*
X96675205Y-69832256D01*
X96753226Y-69643898D01*
X96793000Y-69443939D01*
X96793000Y-69240061D01*
X96753226Y-69040102D01*
X96675205Y-68851744D01*
X96561937Y-68682226D01*
X96417774Y-68538063D01*
X96327975Y-68478061D01*
X112503000Y-68478061D01*
X112503000Y-68681939D01*
X112542774Y-68881898D01*
X112620795Y-69070256D01*
X112734063Y-69239774D01*
X112878226Y-69383937D01*
X113047744Y-69497205D01*
X113236102Y-69575226D01*
X113436061Y-69615000D01*
X113639939Y-69615000D01*
X113839898Y-69575226D01*
X114028256Y-69497205D01*
X114197774Y-69383937D01*
X114341937Y-69239774D01*
X114455205Y-69070256D01*
X114533226Y-68881898D01*
X114573000Y-68681939D01*
X114573000Y-68478061D01*
X114533226Y-68278102D01*
X114455205Y-68089744D01*
X114341937Y-67920226D01*
X114197774Y-67776063D01*
X114028256Y-67662795D01*
X113839898Y-67584774D01*
X113639939Y-67545000D01*
X113436061Y-67545000D01*
X113236102Y-67584774D01*
X113047744Y-67662795D01*
X112878226Y-67776063D01*
X112734063Y-67920226D01*
X112620795Y-68089744D01*
X112542774Y-68278102D01*
X112503000Y-68478061D01*
X96327975Y-68478061D01*
X96248256Y-68424795D01*
X96059898Y-68346774D01*
X95859939Y-68307000D01*
X95656061Y-68307000D01*
X95456102Y-68346774D01*
X95267744Y-68424795D01*
X95098226Y-68538063D01*
X94954063Y-68682226D01*
X94840795Y-68851744D01*
X94762774Y-69040102D01*
X94723000Y-69240061D01*
X92141693Y-69240061D01*
X92205608Y-69187608D01*
X92384932Y-68969101D01*
X92518182Y-68719808D01*
X92600236Y-68449308D01*
X92621000Y-68238491D01*
X92621000Y-67397508D01*
X92600236Y-67186691D01*
X92518182Y-66916192D01*
X92384932Y-66666899D01*
X92205607Y-66448392D01*
X91987100Y-66269068D01*
X91737807Y-66135818D01*
X91467308Y-66053764D01*
X91186000Y-66026057D01*
X90904691Y-66053764D01*
X90634192Y-66135818D01*
X90384899Y-66269068D01*
X90166392Y-66448393D01*
X89987068Y-66666900D01*
X89918735Y-66794742D01*
X89768601Y-66565161D01*
X89570895Y-66363500D01*
X89337646Y-66204285D01*
X89077818Y-66093633D01*
X88995039Y-66076096D01*
X88773000Y-66198085D01*
X88519000Y-66198085D01*
X88296961Y-66076096D01*
X88214182Y-66093633D01*
X87954354Y-66204285D01*
X87721105Y-66363500D01*
X87523399Y-66565161D01*
X87368834Y-66801517D01*
X87263350Y-67063486D01*
X87211000Y-67341000D01*
X79915435Y-67341000D01*
X79900236Y-67186691D01*
X79818182Y-66916192D01*
X79684932Y-66666899D01*
X79505607Y-66448392D01*
X79287100Y-66269068D01*
X79037807Y-66135818D01*
X78767308Y-66053764D01*
X78486000Y-66026057D01*
X78204691Y-66053764D01*
X77934192Y-66135818D01*
X77684899Y-66269068D01*
X77466392Y-66448393D01*
X77287068Y-66666900D01*
X77153818Y-66916193D01*
X77071764Y-67186692D01*
X77051000Y-67397509D01*
X63985000Y-67397509D01*
X63985000Y-63906061D01*
X86087000Y-63906061D01*
X86087000Y-64109939D01*
X86126774Y-64309898D01*
X86204795Y-64498256D01*
X86318063Y-64667774D01*
X86462226Y-64811937D01*
X86631744Y-64925205D01*
X86820102Y-65003226D01*
X87020061Y-65043000D01*
X87223939Y-65043000D01*
X87423898Y-65003226D01*
X87612256Y-64925205D01*
X87781774Y-64811937D01*
X87925937Y-64667774D01*
X88039205Y-64498256D01*
X88117226Y-64309898D01*
X88157000Y-64109939D01*
X88157000Y-63906061D01*
X88117226Y-63706102D01*
X88039205Y-63517744D01*
X87925937Y-63348226D01*
X87781774Y-63204063D01*
X87612256Y-63090795D01*
X87423898Y-63012774D01*
X87223939Y-62973000D01*
X87020061Y-62973000D01*
X86820102Y-63012774D01*
X86631744Y-63090795D01*
X86462226Y-63204063D01*
X86318063Y-63348226D01*
X86204795Y-63517744D01*
X86126774Y-63706102D01*
X86087000Y-63906061D01*
X63985000Y-63906061D01*
X63985000Y-62636061D01*
X118853000Y-62636061D01*
X118853000Y-62839939D01*
X118892774Y-63039898D01*
X118970795Y-63228256D01*
X119084063Y-63397774D01*
X119228226Y-63541937D01*
X119397744Y-63655205D01*
X119586102Y-63733226D01*
X119786061Y-63773000D01*
X119989939Y-63773000D01*
X120189898Y-63733226D01*
X120378256Y-63655205D01*
X120382961Y-63652061D01*
X125203000Y-63652061D01*
X125203000Y-63855939D01*
X125242774Y-64055898D01*
X125320795Y-64244256D01*
X125434063Y-64413774D01*
X125578226Y-64557937D01*
X125747744Y-64671205D01*
X125936102Y-64749226D01*
X126136061Y-64789000D01*
X126339939Y-64789000D01*
X126539898Y-64749226D01*
X126728256Y-64671205D01*
X126897774Y-64557937D01*
X127041937Y-64413774D01*
X127155205Y-64244256D01*
X127233226Y-64055898D01*
X127273000Y-63855939D01*
X127273000Y-63652061D01*
X127233226Y-63452102D01*
X127155205Y-63263744D01*
X127041937Y-63094226D01*
X126897774Y-62950063D01*
X126728256Y-62836795D01*
X126539898Y-62758774D01*
X126339939Y-62719000D01*
X126136061Y-62719000D01*
X125936102Y-62758774D01*
X125747744Y-62836795D01*
X125578226Y-62950063D01*
X125434063Y-63094226D01*
X125320795Y-63263744D01*
X125242774Y-63452102D01*
X125203000Y-63652061D01*
X120382961Y-63652061D01*
X120547774Y-63541937D01*
X120691937Y-63397774D01*
X120805205Y-63228256D01*
X120883226Y-63039898D01*
X120923000Y-62839939D01*
X120923000Y-62636061D01*
X120883226Y-62436102D01*
X120805205Y-62247744D01*
X120691937Y-62078226D01*
X120547774Y-61934063D01*
X120378256Y-61820795D01*
X120189898Y-61742774D01*
X119989939Y-61703000D01*
X119786061Y-61703000D01*
X119586102Y-61742774D01*
X119397744Y-61820795D01*
X119228226Y-61934063D01*
X119084063Y-62078226D01*
X118970795Y-62247744D01*
X118892774Y-62436102D01*
X118853000Y-62636061D01*
X63985000Y-62636061D01*
X63985000Y-57570000D01*
X75879428Y-57570000D01*
X75879428Y-59570000D01*
X75891688Y-59694482D01*
X75927998Y-59814180D01*
X75986963Y-59924494D01*
X76066315Y-60021185D01*
X76163006Y-60100537D01*
X76273320Y-60159502D01*
X76393018Y-60195812D01*
X76517500Y-60208072D01*
X78422500Y-60208072D01*
X78546982Y-60195812D01*
X78666680Y-60159502D01*
X78776994Y-60100537D01*
X78873685Y-60021185D01*
X78953037Y-59924494D01*
X78997905Y-59840553D01*
X79123766Y-59943845D01*
X79399552Y-60091255D01*
X79698797Y-60182030D01*
X80010000Y-60212681D01*
X80321204Y-60182030D01*
X80620449Y-60091255D01*
X80896235Y-59943845D01*
X81137963Y-59745463D01*
X81280000Y-59572391D01*
X81422037Y-59745463D01*
X81663766Y-59943845D01*
X81939552Y-60091255D01*
X82238797Y-60182030D01*
X82550000Y-60212681D01*
X82861204Y-60182030D01*
X83160449Y-60091255D01*
X83436235Y-59943845D01*
X83677963Y-59745463D01*
X83876345Y-59503734D01*
X84023755Y-59227948D01*
X84114530Y-58928703D01*
X84137500Y-58695485D01*
X84137500Y-58572061D01*
X90913000Y-58572061D01*
X90913000Y-58775939D01*
X90952774Y-58975898D01*
X91030795Y-59164256D01*
X91144063Y-59333774D01*
X91288226Y-59477937D01*
X91457744Y-59591205D01*
X91646102Y-59669226D01*
X91846061Y-59709000D01*
X92049939Y-59709000D01*
X92249898Y-59669226D01*
X92438256Y-59591205D01*
X92607774Y-59477937D01*
X92751937Y-59333774D01*
X92865205Y-59164256D01*
X92943226Y-58975898D01*
X92983000Y-58775939D01*
X92983000Y-58572061D01*
X92943226Y-58372102D01*
X92865205Y-58183744D01*
X92751937Y-58014226D01*
X92607774Y-57870063D01*
X92438256Y-57756795D01*
X92249898Y-57678774D01*
X92049939Y-57639000D01*
X91846061Y-57639000D01*
X91646102Y-57678774D01*
X91457744Y-57756795D01*
X91288226Y-57870063D01*
X91144063Y-58014226D01*
X91030795Y-58183744D01*
X90952774Y-58372102D01*
X90913000Y-58572061D01*
X84137500Y-58572061D01*
X84137500Y-58444514D01*
X84114530Y-58211296D01*
X84023755Y-57912051D01*
X83876345Y-57636265D01*
X83677963Y-57394537D01*
X83436234Y-57196155D01*
X83160448Y-57048745D01*
X82861203Y-56957970D01*
X82550000Y-56927319D01*
X82238796Y-56957970D01*
X81939551Y-57048745D01*
X81663765Y-57196155D01*
X81422037Y-57394537D01*
X81280000Y-57567609D01*
X81137963Y-57394537D01*
X80896234Y-57196155D01*
X80620448Y-57048745D01*
X80321203Y-56957970D01*
X80010000Y-56927319D01*
X79698796Y-56957970D01*
X79399551Y-57048745D01*
X79123765Y-57196155D01*
X78997905Y-57299446D01*
X78953037Y-57215506D01*
X78873685Y-57118815D01*
X78776994Y-57039463D01*
X78666680Y-56980498D01*
X78546982Y-56944188D01*
X78422500Y-56931928D01*
X76517500Y-56931928D01*
X76393018Y-56944188D01*
X76273320Y-56980498D01*
X76163006Y-57039463D01*
X76066315Y-57118815D01*
X75986963Y-57215506D01*
X75927998Y-57325820D01*
X75891688Y-57445518D01*
X75879428Y-57570000D01*
X63985000Y-57570000D01*
X63985000Y-56540061D01*
X85833000Y-56540061D01*
X85833000Y-56743939D01*
X85872774Y-56943898D01*
X85950795Y-57132256D01*
X86064063Y-57301774D01*
X86208226Y-57445937D01*
X86377744Y-57559205D01*
X86566102Y-57637226D01*
X86766061Y-57677000D01*
X86969939Y-57677000D01*
X87169898Y-57637226D01*
X87358256Y-57559205D01*
X87527774Y-57445937D01*
X87671937Y-57301774D01*
X87785205Y-57132256D01*
X87863226Y-56943898D01*
X87903000Y-56743939D01*
X87903000Y-56540061D01*
X87863226Y-56340102D01*
X87785205Y-56151744D01*
X87671937Y-55982226D01*
X87527774Y-55838063D01*
X87364274Y-55728816D01*
X92445000Y-55728816D01*
X92445000Y-56031184D01*
X92503989Y-56327743D01*
X92619701Y-56607095D01*
X92787688Y-56858505D01*
X93001495Y-57072312D01*
X93252905Y-57240299D01*
X93532257Y-57356011D01*
X93828816Y-57415000D01*
X94131184Y-57415000D01*
X94427743Y-57356011D01*
X94707095Y-57240299D01*
X94958505Y-57072312D01*
X95172312Y-56858505D01*
X95340299Y-56607095D01*
X95456011Y-56327743D01*
X95515000Y-56031184D01*
X95515000Y-55728816D01*
X98795000Y-55728816D01*
X98795000Y-56031184D01*
X98853989Y-56327743D01*
X98969701Y-56607095D01*
X99137688Y-56858505D01*
X99351495Y-57072312D01*
X99602905Y-57240299D01*
X99882257Y-57356011D01*
X100178816Y-57415000D01*
X100481184Y-57415000D01*
X100777743Y-57356011D01*
X101057095Y-57240299D01*
X101308505Y-57072312D01*
X101522312Y-56858505D01*
X101690299Y-56607095D01*
X101755370Y-56450000D01*
X106611928Y-56450000D01*
X106611928Y-57850000D01*
X106624188Y-57974482D01*
X106660498Y-58094180D01*
X106719463Y-58204494D01*
X106798815Y-58301185D01*
X106895506Y-58380537D01*
X107005820Y-58439502D01*
X107125518Y-58475812D01*
X107250000Y-58488072D01*
X108650000Y-58488072D01*
X108774482Y-58475812D01*
X108894180Y-58439502D01*
X109004494Y-58380537D01*
X109101185Y-58301185D01*
X109180537Y-58204494D01*
X109239502Y-58094180D01*
X109275812Y-57974482D01*
X109288072Y-57850000D01*
X109288072Y-56450000D01*
X112961928Y-56450000D01*
X112961928Y-57850000D01*
X112974188Y-57974482D01*
X113010498Y-58094180D01*
X113069463Y-58204494D01*
X113148815Y-58301185D01*
X113245506Y-58380537D01*
X113355820Y-58439502D01*
X113475518Y-58475812D01*
X113600000Y-58488072D01*
X115000000Y-58488072D01*
X115124482Y-58475812D01*
X115244180Y-58439502D01*
X115354494Y-58380537D01*
X115451185Y-58301185D01*
X115530537Y-58204494D01*
X115589502Y-58094180D01*
X115625812Y-57974482D01*
X115638072Y-57850000D01*
X115638072Y-56450000D01*
X119311928Y-56450000D01*
X119311928Y-57850000D01*
X119324188Y-57974482D01*
X119360498Y-58094180D01*
X119419463Y-58204494D01*
X119498815Y-58301185D01*
X119595506Y-58380537D01*
X119705820Y-58439502D01*
X119825518Y-58475812D01*
X119950000Y-58488072D01*
X121350000Y-58488072D01*
X121474482Y-58475812D01*
X121594180Y-58439502D01*
X121704494Y-58380537D01*
X121801185Y-58301185D01*
X121880537Y-58204494D01*
X121939502Y-58094180D01*
X121975812Y-57974482D01*
X121988072Y-57850000D01*
X121988072Y-56450000D01*
X125661928Y-56450000D01*
X125661928Y-57850000D01*
X125674188Y-57974482D01*
X125710498Y-58094180D01*
X125769463Y-58204494D01*
X125848815Y-58301185D01*
X125945506Y-58380537D01*
X126055820Y-58439502D01*
X126175518Y-58475812D01*
X126300000Y-58488072D01*
X127700000Y-58488072D01*
X127824482Y-58475812D01*
X127944180Y-58439502D01*
X128054494Y-58380537D01*
X128151185Y-58301185D01*
X128230537Y-58204494D01*
X128289502Y-58094180D01*
X128325812Y-57974482D01*
X128338072Y-57850000D01*
X128338072Y-56450000D01*
X132011928Y-56450000D01*
X132011928Y-57850000D01*
X132024188Y-57974482D01*
X132060498Y-58094180D01*
X132119463Y-58204494D01*
X132198815Y-58301185D01*
X132295506Y-58380537D01*
X132405820Y-58439502D01*
X132525518Y-58475812D01*
X132650000Y-58488072D01*
X134050000Y-58488072D01*
X134174482Y-58475812D01*
X134294180Y-58439502D01*
X134404494Y-58380537D01*
X134501185Y-58301185D01*
X134580537Y-58204494D01*
X134639502Y-58094180D01*
X134675812Y-57974482D01*
X134688072Y-57850000D01*
X134688072Y-56450000D01*
X138361928Y-56450000D01*
X138361928Y-57850000D01*
X138374188Y-57974482D01*
X138410498Y-58094180D01*
X138469463Y-58204494D01*
X138548815Y-58301185D01*
X138645506Y-58380537D01*
X138755820Y-58439502D01*
X138875518Y-58475812D01*
X139000000Y-58488072D01*
X140400000Y-58488072D01*
X140524482Y-58475812D01*
X140644180Y-58439502D01*
X140754494Y-58380537D01*
X140851185Y-58301185D01*
X140930537Y-58204494D01*
X140989502Y-58094180D01*
X141025812Y-57974482D01*
X141038072Y-57850000D01*
X141038072Y-56450000D01*
X144711928Y-56450000D01*
X144711928Y-57850000D01*
X144724188Y-57974482D01*
X144760498Y-58094180D01*
X144819463Y-58204494D01*
X144898815Y-58301185D01*
X144995506Y-58380537D01*
X145105820Y-58439502D01*
X145225518Y-58475812D01*
X145350000Y-58488072D01*
X146750000Y-58488072D01*
X146874482Y-58475812D01*
X146994180Y-58439502D01*
X147104494Y-58380537D01*
X147201185Y-58301185D01*
X147280537Y-58204494D01*
X147339502Y-58094180D01*
X147375812Y-57974482D01*
X147388072Y-57850000D01*
X147388072Y-56450000D01*
X147375812Y-56325518D01*
X147339502Y-56205820D01*
X147280537Y-56095506D01*
X147201185Y-55998815D01*
X147104494Y-55919463D01*
X146994180Y-55860498D01*
X146874482Y-55824188D01*
X146750000Y-55811928D01*
X145350000Y-55811928D01*
X145225518Y-55824188D01*
X145105820Y-55860498D01*
X144995506Y-55919463D01*
X144898815Y-55998815D01*
X144819463Y-56095506D01*
X144760498Y-56205820D01*
X144724188Y-56325518D01*
X144711928Y-56450000D01*
X141038072Y-56450000D01*
X141025812Y-56325518D01*
X140989502Y-56205820D01*
X140930537Y-56095506D01*
X140851185Y-55998815D01*
X140754494Y-55919463D01*
X140644180Y-55860498D01*
X140524482Y-55824188D01*
X140400000Y-55811928D01*
X139000000Y-55811928D01*
X138875518Y-55824188D01*
X138755820Y-55860498D01*
X138645506Y-55919463D01*
X138548815Y-55998815D01*
X138469463Y-56095506D01*
X138410498Y-56205820D01*
X138374188Y-56325518D01*
X138361928Y-56450000D01*
X134688072Y-56450000D01*
X134675812Y-56325518D01*
X134639502Y-56205820D01*
X134580537Y-56095506D01*
X134501185Y-55998815D01*
X134404494Y-55919463D01*
X134294180Y-55860498D01*
X134174482Y-55824188D01*
X134050000Y-55811928D01*
X132650000Y-55811928D01*
X132525518Y-55824188D01*
X132405820Y-55860498D01*
X132295506Y-55919463D01*
X132198815Y-55998815D01*
X132119463Y-56095506D01*
X132060498Y-56205820D01*
X132024188Y-56325518D01*
X132011928Y-56450000D01*
X128338072Y-56450000D01*
X128325812Y-56325518D01*
X128289502Y-56205820D01*
X128230537Y-56095506D01*
X128151185Y-55998815D01*
X128054494Y-55919463D01*
X127944180Y-55860498D01*
X127824482Y-55824188D01*
X127700000Y-55811928D01*
X126300000Y-55811928D01*
X126175518Y-55824188D01*
X126055820Y-55860498D01*
X125945506Y-55919463D01*
X125848815Y-55998815D01*
X125769463Y-56095506D01*
X125710498Y-56205820D01*
X125674188Y-56325518D01*
X125661928Y-56450000D01*
X121988072Y-56450000D01*
X121975812Y-56325518D01*
X121939502Y-56205820D01*
X121880537Y-56095506D01*
X121801185Y-55998815D01*
X121704494Y-55919463D01*
X121594180Y-55860498D01*
X121474482Y-55824188D01*
X121350000Y-55811928D01*
X119950000Y-55811928D01*
X119825518Y-55824188D01*
X119705820Y-55860498D01*
X119595506Y-55919463D01*
X119498815Y-55998815D01*
X119419463Y-56095506D01*
X119360498Y-56205820D01*
X119324188Y-56325518D01*
X119311928Y-56450000D01*
X115638072Y-56450000D01*
X115625812Y-56325518D01*
X115589502Y-56205820D01*
X115530537Y-56095506D01*
X115451185Y-55998815D01*
X115354494Y-55919463D01*
X115244180Y-55860498D01*
X115124482Y-55824188D01*
X115000000Y-55811928D01*
X113600000Y-55811928D01*
X113475518Y-55824188D01*
X113355820Y-55860498D01*
X113245506Y-55919463D01*
X113148815Y-55998815D01*
X113069463Y-56095506D01*
X113010498Y-56205820D01*
X112974188Y-56325518D01*
X112961928Y-56450000D01*
X109288072Y-56450000D01*
X109275812Y-56325518D01*
X109239502Y-56205820D01*
X109180537Y-56095506D01*
X109101185Y-55998815D01*
X109004494Y-55919463D01*
X108894180Y-55860498D01*
X108774482Y-55824188D01*
X108650000Y-55811928D01*
X107250000Y-55811928D01*
X107125518Y-55824188D01*
X107005820Y-55860498D01*
X106895506Y-55919463D01*
X106798815Y-55998815D01*
X106719463Y-56095506D01*
X106660498Y-56205820D01*
X106624188Y-56325518D01*
X106611928Y-56450000D01*
X101755370Y-56450000D01*
X101806011Y-56327743D01*
X101865000Y-56031184D01*
X101865000Y-55728816D01*
X101806011Y-55432257D01*
X101690299Y-55152905D01*
X101522312Y-54901495D01*
X101308505Y-54687688D01*
X101057095Y-54519701D01*
X100777743Y-54403989D01*
X100481184Y-54345000D01*
X100178816Y-54345000D01*
X99882257Y-54403989D01*
X99602905Y-54519701D01*
X99351495Y-54687688D01*
X99137688Y-54901495D01*
X98969701Y-55152905D01*
X98853989Y-55432257D01*
X98795000Y-55728816D01*
X95515000Y-55728816D01*
X95456011Y-55432257D01*
X95340299Y-55152905D01*
X95172312Y-54901495D01*
X94958505Y-54687688D01*
X94707095Y-54519701D01*
X94427743Y-54403989D01*
X94131184Y-54345000D01*
X93828816Y-54345000D01*
X93532257Y-54403989D01*
X93252905Y-54519701D01*
X93001495Y-54687688D01*
X92787688Y-54901495D01*
X92619701Y-55152905D01*
X92503989Y-55432257D01*
X92445000Y-55728816D01*
X87364274Y-55728816D01*
X87358256Y-55724795D01*
X87169898Y-55646774D01*
X86969939Y-55607000D01*
X86766061Y-55607000D01*
X86566102Y-55646774D01*
X86377744Y-55724795D01*
X86208226Y-55838063D01*
X86064063Y-55982226D01*
X85950795Y-56151744D01*
X85872774Y-56340102D01*
X85833000Y-56540061D01*
X63985000Y-56540061D01*
X63985000Y-52991269D01*
X107208336Y-52991269D01*
X107267797Y-53225037D01*
X107506242Y-53335934D01*
X107761740Y-53398183D01*
X108024473Y-53409390D01*
X108284344Y-53369125D01*
X108531366Y-53278935D01*
X108632203Y-53225037D01*
X108691664Y-52991269D01*
X113558336Y-52991269D01*
X113617797Y-53225037D01*
X113856242Y-53335934D01*
X114111740Y-53398183D01*
X114374473Y-53409390D01*
X114634344Y-53369125D01*
X114881366Y-53278935D01*
X114982203Y-53225037D01*
X115041664Y-52991269D01*
X119908336Y-52991269D01*
X119967797Y-53225037D01*
X120206242Y-53335934D01*
X120461740Y-53398183D01*
X120724473Y-53409390D01*
X120984344Y-53369125D01*
X121231366Y-53278935D01*
X121332203Y-53225037D01*
X121391664Y-52991269D01*
X126258336Y-52991269D01*
X126317797Y-53225037D01*
X126556242Y-53335934D01*
X126811740Y-53398183D01*
X127074473Y-53409390D01*
X127334344Y-53369125D01*
X127581366Y-53278935D01*
X127682203Y-53225037D01*
X127741664Y-52991269D01*
X132608336Y-52991269D01*
X132667797Y-53225037D01*
X132906242Y-53335934D01*
X133161740Y-53398183D01*
X133424473Y-53409390D01*
X133684344Y-53369125D01*
X133931366Y-53278935D01*
X134032203Y-53225037D01*
X134091664Y-52991269D01*
X138958336Y-52991269D01*
X139017797Y-53225037D01*
X139256242Y-53335934D01*
X139511740Y-53398183D01*
X139774473Y-53409390D01*
X140034344Y-53369125D01*
X140281366Y-53278935D01*
X140382203Y-53225037D01*
X140441664Y-52991269D01*
X145308336Y-52991269D01*
X145367797Y-53225037D01*
X145606242Y-53335934D01*
X145861740Y-53398183D01*
X146124473Y-53409390D01*
X146384344Y-53369125D01*
X146631366Y-53278935D01*
X146732203Y-53225037D01*
X146791664Y-52991269D01*
X146050000Y-52249605D01*
X145308336Y-52991269D01*
X140441664Y-52991269D01*
X139700000Y-52249605D01*
X138958336Y-52991269D01*
X134091664Y-52991269D01*
X133350000Y-52249605D01*
X132608336Y-52991269D01*
X127741664Y-52991269D01*
X127000000Y-52249605D01*
X126258336Y-52991269D01*
X121391664Y-52991269D01*
X120650000Y-52249605D01*
X119908336Y-52991269D01*
X115041664Y-52991269D01*
X114300000Y-52249605D01*
X113558336Y-52991269D01*
X108691664Y-52991269D01*
X107950000Y-52249605D01*
X107208336Y-52991269D01*
X63985000Y-52991269D01*
X63985000Y-52144473D01*
X106610610Y-52144473D01*
X106650875Y-52404344D01*
X106741065Y-52651366D01*
X106794963Y-52752203D01*
X107028731Y-52811664D01*
X107770395Y-52070000D01*
X108129605Y-52070000D01*
X108871269Y-52811664D01*
X109105037Y-52752203D01*
X109215934Y-52513758D01*
X109278183Y-52258260D01*
X109283036Y-52144473D01*
X112960610Y-52144473D01*
X113000875Y-52404344D01*
X113091065Y-52651366D01*
X113144963Y-52752203D01*
X113378731Y-52811664D01*
X114120395Y-52070000D01*
X114479605Y-52070000D01*
X115221269Y-52811664D01*
X115455037Y-52752203D01*
X115565934Y-52513758D01*
X115628183Y-52258260D01*
X115633036Y-52144473D01*
X119310610Y-52144473D01*
X119350875Y-52404344D01*
X119441065Y-52651366D01*
X119494963Y-52752203D01*
X119728731Y-52811664D01*
X120470395Y-52070000D01*
X120829605Y-52070000D01*
X121571269Y-52811664D01*
X121805037Y-52752203D01*
X121915934Y-52513758D01*
X121978183Y-52258260D01*
X121983036Y-52144473D01*
X125660610Y-52144473D01*
X125700875Y-52404344D01*
X125791065Y-52651366D01*
X125844963Y-52752203D01*
X126078731Y-52811664D01*
X126820395Y-52070000D01*
X127179605Y-52070000D01*
X127921269Y-52811664D01*
X128155037Y-52752203D01*
X128265934Y-52513758D01*
X128328183Y-52258260D01*
X128333036Y-52144473D01*
X132010610Y-52144473D01*
X132050875Y-52404344D01*
X132141065Y-52651366D01*
X132194963Y-52752203D01*
X132428731Y-52811664D01*
X133170395Y-52070000D01*
X133529605Y-52070000D01*
X134271269Y-52811664D01*
X134505037Y-52752203D01*
X134615934Y-52513758D01*
X134678183Y-52258260D01*
X134683036Y-52144473D01*
X138360610Y-52144473D01*
X138400875Y-52404344D01*
X138491065Y-52651366D01*
X138544963Y-52752203D01*
X138778731Y-52811664D01*
X139520395Y-52070000D01*
X139879605Y-52070000D01*
X140621269Y-52811664D01*
X140855037Y-52752203D01*
X140965934Y-52513758D01*
X141028183Y-52258260D01*
X141033036Y-52144473D01*
X144710610Y-52144473D01*
X144750875Y-52404344D01*
X144841065Y-52651366D01*
X144894963Y-52752203D01*
X145128731Y-52811664D01*
X145870395Y-52070000D01*
X146229605Y-52070000D01*
X146971269Y-52811664D01*
X147205037Y-52752203D01*
X147315934Y-52513758D01*
X147378183Y-52258260D01*
X147389390Y-51995527D01*
X147349125Y-51735656D01*
X147258935Y-51488634D01*
X147205037Y-51387797D01*
X146971269Y-51328336D01*
X146229605Y-52070000D01*
X145870395Y-52070000D01*
X145128731Y-51328336D01*
X144894963Y-51387797D01*
X144784066Y-51626242D01*
X144721817Y-51881740D01*
X144710610Y-52144473D01*
X141033036Y-52144473D01*
X141039390Y-51995527D01*
X140999125Y-51735656D01*
X140908935Y-51488634D01*
X140855037Y-51387797D01*
X140621269Y-51328336D01*
X139879605Y-52070000D01*
X139520395Y-52070000D01*
X138778731Y-51328336D01*
X138544963Y-51387797D01*
X138434066Y-51626242D01*
X138371817Y-51881740D01*
X138360610Y-52144473D01*
X134683036Y-52144473D01*
X134689390Y-51995527D01*
X134649125Y-51735656D01*
X134558935Y-51488634D01*
X134505037Y-51387797D01*
X134271269Y-51328336D01*
X133529605Y-52070000D01*
X133170395Y-52070000D01*
X132428731Y-51328336D01*
X132194963Y-51387797D01*
X132084066Y-51626242D01*
X132021817Y-51881740D01*
X132010610Y-52144473D01*
X128333036Y-52144473D01*
X128339390Y-51995527D01*
X128299125Y-51735656D01*
X128208935Y-51488634D01*
X128155037Y-51387797D01*
X127921269Y-51328336D01*
X127179605Y-52070000D01*
X126820395Y-52070000D01*
X126078731Y-51328336D01*
X125844963Y-51387797D01*
X125734066Y-51626242D01*
X125671817Y-51881740D01*
X125660610Y-52144473D01*
X121983036Y-52144473D01*
X121989390Y-51995527D01*
X121949125Y-51735656D01*
X121858935Y-51488634D01*
X121805037Y-51387797D01*
X121571269Y-51328336D01*
X120829605Y-52070000D01*
X120470395Y-52070000D01*
X119728731Y-51328336D01*
X119494963Y-51387797D01*
X119384066Y-51626242D01*
X119321817Y-51881740D01*
X119310610Y-52144473D01*
X115633036Y-52144473D01*
X115639390Y-51995527D01*
X115599125Y-51735656D01*
X115508935Y-51488634D01*
X115455037Y-51387797D01*
X115221269Y-51328336D01*
X114479605Y-52070000D01*
X114120395Y-52070000D01*
X113378731Y-51328336D01*
X113144963Y-51387797D01*
X113034066Y-51626242D01*
X112971817Y-51881740D01*
X112960610Y-52144473D01*
X109283036Y-52144473D01*
X109289390Y-51995527D01*
X109249125Y-51735656D01*
X109158935Y-51488634D01*
X109105037Y-51387797D01*
X108871269Y-51328336D01*
X108129605Y-52070000D01*
X107770395Y-52070000D01*
X107028731Y-51328336D01*
X106794963Y-51387797D01*
X106684066Y-51626242D01*
X106621817Y-51881740D01*
X106610610Y-52144473D01*
X63985000Y-52144473D01*
X63985000Y-51148731D01*
X107208336Y-51148731D01*
X107950000Y-51890395D01*
X108691664Y-51148731D01*
X113558336Y-51148731D01*
X114300000Y-51890395D01*
X115041664Y-51148731D01*
X119908336Y-51148731D01*
X120650000Y-51890395D01*
X121391664Y-51148731D01*
X126258336Y-51148731D01*
X127000000Y-51890395D01*
X127741664Y-51148731D01*
X132608336Y-51148731D01*
X133350000Y-51890395D01*
X134091664Y-51148731D01*
X138958336Y-51148731D01*
X139700000Y-51890395D01*
X140441664Y-51148731D01*
X145308336Y-51148731D01*
X146050000Y-51890395D01*
X146791664Y-51148731D01*
X146732203Y-50914963D01*
X146493758Y-50804066D01*
X146238260Y-50741817D01*
X145975527Y-50730610D01*
X145715656Y-50770875D01*
X145468634Y-50861065D01*
X145367797Y-50914963D01*
X145308336Y-51148731D01*
X140441664Y-51148731D01*
X140382203Y-50914963D01*
X140143758Y-50804066D01*
X139888260Y-50741817D01*
X139625527Y-50730610D01*
X139365656Y-50770875D01*
X139118634Y-50861065D01*
X139017797Y-50914963D01*
X138958336Y-51148731D01*
X134091664Y-51148731D01*
X134032203Y-50914963D01*
X133793758Y-50804066D01*
X133538260Y-50741817D01*
X133275527Y-50730610D01*
X133015656Y-50770875D01*
X132768634Y-50861065D01*
X132667797Y-50914963D01*
X132608336Y-51148731D01*
X127741664Y-51148731D01*
X127682203Y-50914963D01*
X127443758Y-50804066D01*
X127188260Y-50741817D01*
X126925527Y-50730610D01*
X126665656Y-50770875D01*
X126418634Y-50861065D01*
X126317797Y-50914963D01*
X126258336Y-51148731D01*
X121391664Y-51148731D01*
X121332203Y-50914963D01*
X121093758Y-50804066D01*
X120838260Y-50741817D01*
X120575527Y-50730610D01*
X120315656Y-50770875D01*
X120068634Y-50861065D01*
X119967797Y-50914963D01*
X119908336Y-51148731D01*
X115041664Y-51148731D01*
X114982203Y-50914963D01*
X114743758Y-50804066D01*
X114488260Y-50741817D01*
X114225527Y-50730610D01*
X113965656Y-50770875D01*
X113718634Y-50861065D01*
X113617797Y-50914963D01*
X113558336Y-51148731D01*
X108691664Y-51148731D01*
X108632203Y-50914963D01*
X108393758Y-50804066D01*
X108138260Y-50741817D01*
X107875527Y-50730610D01*
X107615656Y-50770875D01*
X107368634Y-50861065D01*
X107267797Y-50914963D01*
X107208336Y-51148731D01*
X63985000Y-51148731D01*
X63985000Y-48108816D01*
X94985000Y-48108816D01*
X94985000Y-48411184D01*
X95043989Y-48707743D01*
X95159701Y-48987095D01*
X95327688Y-49238505D01*
X95541495Y-49452312D01*
X95792905Y-49620299D01*
X96072257Y-49736011D01*
X96368816Y-49795000D01*
X96671184Y-49795000D01*
X96967743Y-49736011D01*
X97247095Y-49620299D01*
X97498505Y-49452312D01*
X97712312Y-49238505D01*
X97880299Y-48987095D01*
X97996011Y-48707743D01*
X98055000Y-48411184D01*
X98055000Y-48108816D01*
X101335000Y-48108816D01*
X101335000Y-48411184D01*
X101393989Y-48707743D01*
X101509701Y-48987095D01*
X101677688Y-49238505D01*
X101891495Y-49452312D01*
X102142905Y-49620299D01*
X102422257Y-49736011D01*
X102718816Y-49795000D01*
X103021184Y-49795000D01*
X103317743Y-49736011D01*
X103597095Y-49620299D01*
X103848505Y-49452312D01*
X104062312Y-49238505D01*
X104230299Y-48987095D01*
X104346011Y-48707743D01*
X104405000Y-48411184D01*
X104405000Y-48108816D01*
X104346011Y-47812257D01*
X104230299Y-47532905D01*
X104062312Y-47281495D01*
X103848505Y-47067688D01*
X103597095Y-46899701D01*
X103497662Y-46858514D01*
X106615000Y-46858514D01*
X106615000Y-47121486D01*
X106666304Y-47379405D01*
X106766939Y-47622359D01*
X106913038Y-47841013D01*
X107098987Y-48026962D01*
X107317641Y-48173061D01*
X107560595Y-48273696D01*
X107818514Y-48325000D01*
X108081486Y-48325000D01*
X108339405Y-48273696D01*
X108582359Y-48173061D01*
X108801013Y-48026962D01*
X108986962Y-47841013D01*
X109133061Y-47622359D01*
X109233696Y-47379405D01*
X109285000Y-47121486D01*
X109285000Y-46858514D01*
X112965000Y-46858514D01*
X112965000Y-47121486D01*
X113016304Y-47379405D01*
X113116939Y-47622359D01*
X113263038Y-47841013D01*
X113448987Y-48026962D01*
X113667641Y-48173061D01*
X113910595Y-48273696D01*
X114168514Y-48325000D01*
X114431486Y-48325000D01*
X114689405Y-48273696D01*
X114932359Y-48173061D01*
X115151013Y-48026962D01*
X115336962Y-47841013D01*
X115483061Y-47622359D01*
X115583696Y-47379405D01*
X115635000Y-47121486D01*
X115635000Y-46858514D01*
X119315000Y-46858514D01*
X119315000Y-47121486D01*
X119366304Y-47379405D01*
X119466939Y-47622359D01*
X119613038Y-47841013D01*
X119798987Y-48026962D01*
X120017641Y-48173061D01*
X120260595Y-48273696D01*
X120518514Y-48325000D01*
X120781486Y-48325000D01*
X121039405Y-48273696D01*
X121282359Y-48173061D01*
X121501013Y-48026962D01*
X121686962Y-47841013D01*
X121833061Y-47622359D01*
X121933696Y-47379405D01*
X121985000Y-47121486D01*
X121985000Y-46858514D01*
X125665000Y-46858514D01*
X125665000Y-47121486D01*
X125716304Y-47379405D01*
X125816939Y-47622359D01*
X125963038Y-47841013D01*
X126148987Y-48026962D01*
X126367641Y-48173061D01*
X126610595Y-48273696D01*
X126868514Y-48325000D01*
X127131486Y-48325000D01*
X127389405Y-48273696D01*
X127632359Y-48173061D01*
X127851013Y-48026962D01*
X128036962Y-47841013D01*
X128183061Y-47622359D01*
X128283696Y-47379405D01*
X128335000Y-47121486D01*
X128335000Y-46858514D01*
X132015000Y-46858514D01*
X132015000Y-47121486D01*
X132066304Y-47379405D01*
X132166939Y-47622359D01*
X132313038Y-47841013D01*
X132498987Y-48026962D01*
X132717641Y-48173061D01*
X132960595Y-48273696D01*
X133218514Y-48325000D01*
X133481486Y-48325000D01*
X133739405Y-48273696D01*
X133982359Y-48173061D01*
X134201013Y-48026962D01*
X134386962Y-47841013D01*
X134533061Y-47622359D01*
X134633696Y-47379405D01*
X134685000Y-47121486D01*
X134685000Y-46858514D01*
X138365000Y-46858514D01*
X138365000Y-47121486D01*
X138416304Y-47379405D01*
X138516939Y-47622359D01*
X138663038Y-47841013D01*
X138848987Y-48026962D01*
X139067641Y-48173061D01*
X139310595Y-48273696D01*
X139568514Y-48325000D01*
X139831486Y-48325000D01*
X140089405Y-48273696D01*
X140332359Y-48173061D01*
X140551013Y-48026962D01*
X140736962Y-47841013D01*
X140883061Y-47622359D01*
X140983696Y-47379405D01*
X141035000Y-47121486D01*
X141035000Y-46858514D01*
X144715000Y-46858514D01*
X144715000Y-47121486D01*
X144766304Y-47379405D01*
X144866939Y-47622359D01*
X145013038Y-47841013D01*
X145198987Y-48026962D01*
X145417641Y-48173061D01*
X145660595Y-48273696D01*
X145918514Y-48325000D01*
X146181486Y-48325000D01*
X146439405Y-48273696D01*
X146682359Y-48173061D01*
X146901013Y-48026962D01*
X147086962Y-47841013D01*
X147233061Y-47622359D01*
X147333696Y-47379405D01*
X147385000Y-47121486D01*
X147385000Y-46858514D01*
X147333696Y-46600595D01*
X147233061Y-46357641D01*
X147086962Y-46138987D01*
X146901013Y-45953038D01*
X146682359Y-45806939D01*
X146439405Y-45706304D01*
X146181486Y-45655000D01*
X145918514Y-45655000D01*
X145660595Y-45706304D01*
X145417641Y-45806939D01*
X145198987Y-45953038D01*
X145013038Y-46138987D01*
X144866939Y-46357641D01*
X144766304Y-46600595D01*
X144715000Y-46858514D01*
X141035000Y-46858514D01*
X140983696Y-46600595D01*
X140883061Y-46357641D01*
X140736962Y-46138987D01*
X140551013Y-45953038D01*
X140332359Y-45806939D01*
X140089405Y-45706304D01*
X139831486Y-45655000D01*
X139568514Y-45655000D01*
X139310595Y-45706304D01*
X139067641Y-45806939D01*
X138848987Y-45953038D01*
X138663038Y-46138987D01*
X138516939Y-46357641D01*
X138416304Y-46600595D01*
X138365000Y-46858514D01*
X134685000Y-46858514D01*
X134633696Y-46600595D01*
X134533061Y-46357641D01*
X134386962Y-46138987D01*
X134201013Y-45953038D01*
X133982359Y-45806939D01*
X133739405Y-45706304D01*
X133481486Y-45655000D01*
X133218514Y-45655000D01*
X132960595Y-45706304D01*
X132717641Y-45806939D01*
X132498987Y-45953038D01*
X132313038Y-46138987D01*
X132166939Y-46357641D01*
X132066304Y-46600595D01*
X132015000Y-46858514D01*
X128335000Y-46858514D01*
X128283696Y-46600595D01*
X128183061Y-46357641D01*
X128036962Y-46138987D01*
X127851013Y-45953038D01*
X127632359Y-45806939D01*
X127389405Y-45706304D01*
X127131486Y-45655000D01*
X126868514Y-45655000D01*
X126610595Y-45706304D01*
X126367641Y-45806939D01*
X126148987Y-45953038D01*
X125963038Y-46138987D01*
X125816939Y-46357641D01*
X125716304Y-46600595D01*
X125665000Y-46858514D01*
X121985000Y-46858514D01*
X121933696Y-46600595D01*
X121833061Y-46357641D01*
X121686962Y-46138987D01*
X121501013Y-45953038D01*
X121282359Y-45806939D01*
X121039405Y-45706304D01*
X120781486Y-45655000D01*
X120518514Y-45655000D01*
X120260595Y-45706304D01*
X120017641Y-45806939D01*
X119798987Y-45953038D01*
X119613038Y-46138987D01*
X119466939Y-46357641D01*
X119366304Y-46600595D01*
X119315000Y-46858514D01*
X115635000Y-46858514D01*
X115583696Y-46600595D01*
X115483061Y-46357641D01*
X115336962Y-46138987D01*
X115151013Y-45953038D01*
X114932359Y-45806939D01*
X114689405Y-45706304D01*
X114431486Y-45655000D01*
X114168514Y-45655000D01*
X113910595Y-45706304D01*
X113667641Y-45806939D01*
X113448987Y-45953038D01*
X113263038Y-46138987D01*
X113116939Y-46357641D01*
X113016304Y-46600595D01*
X112965000Y-46858514D01*
X109285000Y-46858514D01*
X109233696Y-46600595D01*
X109133061Y-46357641D01*
X108986962Y-46138987D01*
X108801013Y-45953038D01*
X108582359Y-45806939D01*
X108339405Y-45706304D01*
X108081486Y-45655000D01*
X107818514Y-45655000D01*
X107560595Y-45706304D01*
X107317641Y-45806939D01*
X107098987Y-45953038D01*
X106913038Y-46138987D01*
X106766939Y-46357641D01*
X106666304Y-46600595D01*
X106615000Y-46858514D01*
X103497662Y-46858514D01*
X103317743Y-46783989D01*
X103021184Y-46725000D01*
X102718816Y-46725000D01*
X102422257Y-46783989D01*
X102142905Y-46899701D01*
X101891495Y-47067688D01*
X101677688Y-47281495D01*
X101509701Y-47532905D01*
X101393989Y-47812257D01*
X101335000Y-48108816D01*
X98055000Y-48108816D01*
X97996011Y-47812257D01*
X97880299Y-47532905D01*
X97712312Y-47281495D01*
X97498505Y-47067688D01*
X97247095Y-46899701D01*
X96967743Y-46783989D01*
X96671184Y-46725000D01*
X96368816Y-46725000D01*
X96072257Y-46783989D01*
X95792905Y-46899701D01*
X95541495Y-47067688D01*
X95327688Y-47281495D01*
X95159701Y-47532905D01*
X95043989Y-47812257D01*
X94985000Y-48108816D01*
X63985000Y-48108816D01*
X63985000Y-41675098D01*
X77625000Y-41675098D01*
X77625000Y-42144902D01*
X77716654Y-42605679D01*
X77896440Y-43039721D01*
X78157450Y-43430349D01*
X78489651Y-43762550D01*
X78880279Y-44023560D01*
X79314321Y-44203346D01*
X79775098Y-44295000D01*
X80244902Y-44295000D01*
X80705679Y-44203346D01*
X81139721Y-44023560D01*
X81530349Y-43762550D01*
X81862550Y-43430349D01*
X82123560Y-43039721D01*
X82128076Y-43028816D01*
X92445000Y-43028816D01*
X92445000Y-43331184D01*
X92503989Y-43627743D01*
X92619701Y-43907095D01*
X92787688Y-44158505D01*
X93001495Y-44372312D01*
X93252905Y-44540299D01*
X93532257Y-44656011D01*
X93828816Y-44715000D01*
X94131184Y-44715000D01*
X94427743Y-44656011D01*
X94707095Y-44540299D01*
X94958505Y-44372312D01*
X95172312Y-44158505D01*
X95340299Y-43907095D01*
X95456011Y-43627743D01*
X95515000Y-43331184D01*
X95515000Y-43028816D01*
X98795000Y-43028816D01*
X98795000Y-43331184D01*
X98853989Y-43627743D01*
X98969701Y-43907095D01*
X99137688Y-44158505D01*
X99351495Y-44372312D01*
X99602905Y-44540299D01*
X99882257Y-44656011D01*
X100178816Y-44715000D01*
X100481184Y-44715000D01*
X100777743Y-44656011D01*
X101057095Y-44540299D01*
X101308505Y-44372312D01*
X101522312Y-44158505D01*
X101690299Y-43907095D01*
X101806011Y-43627743D01*
X101865000Y-43331184D01*
X101865000Y-43028816D01*
X101806011Y-42732257D01*
X101690299Y-42452905D01*
X101522312Y-42201495D01*
X101308505Y-41987688D01*
X101057095Y-41819701D01*
X100957662Y-41778514D01*
X106615000Y-41778514D01*
X106615000Y-42041486D01*
X106666304Y-42299405D01*
X106766939Y-42542359D01*
X106913038Y-42761013D01*
X107098987Y-42946962D01*
X107317641Y-43093061D01*
X107560595Y-43193696D01*
X107818514Y-43245000D01*
X108081486Y-43245000D01*
X108339405Y-43193696D01*
X108582359Y-43093061D01*
X108801013Y-42946962D01*
X108986962Y-42761013D01*
X109133061Y-42542359D01*
X109233696Y-42299405D01*
X109285000Y-42041486D01*
X109285000Y-41778514D01*
X112965000Y-41778514D01*
X112965000Y-42041486D01*
X113016304Y-42299405D01*
X113116939Y-42542359D01*
X113263038Y-42761013D01*
X113448987Y-42946962D01*
X113667641Y-43093061D01*
X113910595Y-43193696D01*
X114168514Y-43245000D01*
X114431486Y-43245000D01*
X114689405Y-43193696D01*
X114932359Y-43093061D01*
X115151013Y-42946962D01*
X115336962Y-42761013D01*
X115483061Y-42542359D01*
X115583696Y-42299405D01*
X115635000Y-42041486D01*
X115635000Y-41778514D01*
X119315000Y-41778514D01*
X119315000Y-42041486D01*
X119366304Y-42299405D01*
X119466939Y-42542359D01*
X119613038Y-42761013D01*
X119798987Y-42946962D01*
X120017641Y-43093061D01*
X120260595Y-43193696D01*
X120518514Y-43245000D01*
X120781486Y-43245000D01*
X121039405Y-43193696D01*
X121282359Y-43093061D01*
X121501013Y-42946962D01*
X121686962Y-42761013D01*
X121833061Y-42542359D01*
X121933696Y-42299405D01*
X121985000Y-42041486D01*
X121985000Y-41778514D01*
X125665000Y-41778514D01*
X125665000Y-42041486D01*
X125716304Y-42299405D01*
X125816939Y-42542359D01*
X125963038Y-42761013D01*
X126148987Y-42946962D01*
X126367641Y-43093061D01*
X126610595Y-43193696D01*
X126868514Y-43245000D01*
X127131486Y-43245000D01*
X127389405Y-43193696D01*
X127632359Y-43093061D01*
X127851013Y-42946962D01*
X128036962Y-42761013D01*
X128183061Y-42542359D01*
X128283696Y-42299405D01*
X128335000Y-42041486D01*
X128335000Y-41778514D01*
X132015000Y-41778514D01*
X132015000Y-42041486D01*
X132066304Y-42299405D01*
X132166939Y-42542359D01*
X132313038Y-42761013D01*
X132498987Y-42946962D01*
X132717641Y-43093061D01*
X132960595Y-43193696D01*
X133218514Y-43245000D01*
X133481486Y-43245000D01*
X133739405Y-43193696D01*
X133982359Y-43093061D01*
X134201013Y-42946962D01*
X134386962Y-42761013D01*
X134533061Y-42542359D01*
X134633696Y-42299405D01*
X134685000Y-42041486D01*
X134685000Y-41778514D01*
X138365000Y-41778514D01*
X138365000Y-42041486D01*
X138416304Y-42299405D01*
X138516939Y-42542359D01*
X138663038Y-42761013D01*
X138848987Y-42946962D01*
X139067641Y-43093061D01*
X139310595Y-43193696D01*
X139568514Y-43245000D01*
X139831486Y-43245000D01*
X140089405Y-43193696D01*
X140332359Y-43093061D01*
X140551013Y-42946962D01*
X140736962Y-42761013D01*
X140883061Y-42542359D01*
X140983696Y-42299405D01*
X141035000Y-42041486D01*
X141035000Y-41778514D01*
X144715000Y-41778514D01*
X144715000Y-42041486D01*
X144766304Y-42299405D01*
X144866939Y-42542359D01*
X145013038Y-42761013D01*
X145198987Y-42946962D01*
X145417641Y-43093061D01*
X145660595Y-43193696D01*
X145918514Y-43245000D01*
X146181486Y-43245000D01*
X146439405Y-43193696D01*
X146682359Y-43093061D01*
X146901013Y-42946962D01*
X147086962Y-42761013D01*
X147233061Y-42542359D01*
X147333696Y-42299405D01*
X147385000Y-42041486D01*
X147385000Y-41778514D01*
X147333696Y-41520595D01*
X147233061Y-41277641D01*
X147086962Y-41058987D01*
X146901013Y-40873038D01*
X146682359Y-40726939D01*
X146439405Y-40626304D01*
X146181486Y-40575000D01*
X145918514Y-40575000D01*
X145660595Y-40626304D01*
X145417641Y-40726939D01*
X145198987Y-40873038D01*
X145013038Y-41058987D01*
X144866939Y-41277641D01*
X144766304Y-41520595D01*
X144715000Y-41778514D01*
X141035000Y-41778514D01*
X140983696Y-41520595D01*
X140883061Y-41277641D01*
X140736962Y-41058987D01*
X140551013Y-40873038D01*
X140332359Y-40726939D01*
X140089405Y-40626304D01*
X139831486Y-40575000D01*
X139568514Y-40575000D01*
X139310595Y-40626304D01*
X139067641Y-40726939D01*
X138848987Y-40873038D01*
X138663038Y-41058987D01*
X138516939Y-41277641D01*
X138416304Y-41520595D01*
X138365000Y-41778514D01*
X134685000Y-41778514D01*
X134633696Y-41520595D01*
X134533061Y-41277641D01*
X134386962Y-41058987D01*
X134201013Y-40873038D01*
X133982359Y-40726939D01*
X133739405Y-40626304D01*
X133481486Y-40575000D01*
X133218514Y-40575000D01*
X132960595Y-40626304D01*
X132717641Y-40726939D01*
X132498987Y-40873038D01*
X132313038Y-41058987D01*
X132166939Y-41277641D01*
X132066304Y-41520595D01*
X132015000Y-41778514D01*
X128335000Y-41778514D01*
X128283696Y-41520595D01*
X128183061Y-41277641D01*
X128036962Y-41058987D01*
X127851013Y-40873038D01*
X127632359Y-40726939D01*
X127389405Y-40626304D01*
X127131486Y-40575000D01*
X126868514Y-40575000D01*
X126610595Y-40626304D01*
X126367641Y-40726939D01*
X126148987Y-40873038D01*
X125963038Y-41058987D01*
X125816939Y-41277641D01*
X125716304Y-41520595D01*
X125665000Y-41778514D01*
X121985000Y-41778514D01*
X121933696Y-41520595D01*
X121833061Y-41277641D01*
X121686962Y-41058987D01*
X121501013Y-40873038D01*
X121282359Y-40726939D01*
X121039405Y-40626304D01*
X120781486Y-40575000D01*
X120518514Y-40575000D01*
X120260595Y-40626304D01*
X120017641Y-40726939D01*
X119798987Y-40873038D01*
X119613038Y-41058987D01*
X119466939Y-41277641D01*
X119366304Y-41520595D01*
X119315000Y-41778514D01*
X115635000Y-41778514D01*
X115583696Y-41520595D01*
X115483061Y-41277641D01*
X115336962Y-41058987D01*
X115151013Y-40873038D01*
X114932359Y-40726939D01*
X114689405Y-40626304D01*
X114431486Y-40575000D01*
X114168514Y-40575000D01*
X113910595Y-40626304D01*
X113667641Y-40726939D01*
X113448987Y-40873038D01*
X113263038Y-41058987D01*
X113116939Y-41277641D01*
X113016304Y-41520595D01*
X112965000Y-41778514D01*
X109285000Y-41778514D01*
X109233696Y-41520595D01*
X109133061Y-41277641D01*
X108986962Y-41058987D01*
X108801013Y-40873038D01*
X108582359Y-40726939D01*
X108339405Y-40626304D01*
X108081486Y-40575000D01*
X107818514Y-40575000D01*
X107560595Y-40626304D01*
X107317641Y-40726939D01*
X107098987Y-40873038D01*
X106913038Y-41058987D01*
X106766939Y-41277641D01*
X106666304Y-41520595D01*
X106615000Y-41778514D01*
X100957662Y-41778514D01*
X100777743Y-41703989D01*
X100481184Y-41645000D01*
X100178816Y-41645000D01*
X99882257Y-41703989D01*
X99602905Y-41819701D01*
X99351495Y-41987688D01*
X99137688Y-42201495D01*
X98969701Y-42452905D01*
X98853989Y-42732257D01*
X98795000Y-43028816D01*
X95515000Y-43028816D01*
X95456011Y-42732257D01*
X95340299Y-42452905D01*
X95172312Y-42201495D01*
X94958505Y-41987688D01*
X94707095Y-41819701D01*
X94427743Y-41703989D01*
X94131184Y-41645000D01*
X93828816Y-41645000D01*
X93532257Y-41703989D01*
X93252905Y-41819701D01*
X93001495Y-41987688D01*
X92787688Y-42201495D01*
X92619701Y-42452905D01*
X92503989Y-42732257D01*
X92445000Y-43028816D01*
X82128076Y-43028816D01*
X82303346Y-42605679D01*
X82395000Y-42144902D01*
X82395000Y-41675098D01*
X82303346Y-41214321D01*
X82123560Y-40780279D01*
X81862550Y-40389651D01*
X81530349Y-40057450D01*
X81139721Y-39796440D01*
X80705679Y-39616654D01*
X80244902Y-39525000D01*
X79775098Y-39525000D01*
X79314321Y-39616654D01*
X78880279Y-39796440D01*
X78489651Y-40057450D01*
X78157450Y-40389651D01*
X77896440Y-40780279D01*
X77716654Y-41214321D01*
X77625000Y-41675098D01*
X63985000Y-41675098D01*
X63985000Y-37485000D01*
X149516450Y-37485000D01*
X149613547Y-83315000D01*
G37*
X149613547Y-83315000D02*
X119666353Y-83315000D01*
X119639533Y-83317642D01*
X119636807Y-83317613D01*
X119627285Y-83318513D01*
X119433119Y-83338236D01*
X119372260Y-83350507D01*
X119311234Y-83361928D01*
X119302068Y-83364660D01*
X119115430Y-83421721D01*
X119058108Y-83445582D01*
X119000470Y-83468636D01*
X118992009Y-83473096D01*
X118820009Y-83565321D01*
X118768388Y-83599879D01*
X118716349Y-83633673D01*
X118708916Y-83639692D01*
X118558103Y-83763570D01*
X118514181Y-83807492D01*
X118469692Y-83850756D01*
X118463569Y-83858104D01*
X118339693Y-84008915D01*
X118305174Y-84060478D01*
X118269902Y-84111608D01*
X118265324Y-84120005D01*
X118173098Y-84292006D01*
X118149239Y-84349323D01*
X118124582Y-84406303D01*
X118121721Y-84415429D01*
X118064660Y-84602067D01*
X118052385Y-84662946D01*
X118039269Y-84723609D01*
X118038236Y-84733118D01*
X118025312Y-84860352D01*
X118024752Y-84862198D01*
X118014840Y-84962834D01*
X118014841Y-89789000D01*
X112184840Y-89789000D01*
X112184840Y-86450079D01*
X112226063Y-86511774D01*
X112370226Y-86655937D01*
X112539744Y-86769205D01*
X112728102Y-86847226D01*
X112928061Y-86887000D01*
X113131939Y-86887000D01*
X113331898Y-86847226D01*
X113520256Y-86769205D01*
X113530362Y-86762453D01*
X113548341Y-86852842D01*
X113626362Y-87041200D01*
X113739630Y-87210718D01*
X113883793Y-87354881D01*
X114053311Y-87468149D01*
X114241669Y-87546170D01*
X114441628Y-87585944D01*
X114645506Y-87585944D01*
X114845465Y-87546170D01*
X115033823Y-87468149D01*
X115203341Y-87354881D01*
X115347504Y-87210718D01*
X115413226Y-87112358D01*
X115464805Y-87163937D01*
X115634323Y-87277205D01*
X115822681Y-87355226D01*
X116022640Y-87395000D01*
X116226518Y-87395000D01*
X116426477Y-87355226D01*
X116614835Y-87277205D01*
X116784353Y-87163937D01*
X116928516Y-87019774D01*
X117041784Y-86850256D01*
X117119805Y-86661898D01*
X117159579Y-86461939D01*
X117159579Y-86258061D01*
X117119805Y-86058102D01*
X117041784Y-85869744D01*
X116928516Y-85700226D01*
X116784353Y-85556063D01*
X116614835Y-85442795D01*
X116426477Y-85364774D01*
X116226518Y-85325000D01*
X116022640Y-85325000D01*
X115822681Y-85364774D01*
X115634323Y-85442795D01*
X115464805Y-85556063D01*
X115320642Y-85700226D01*
X115254920Y-85798586D01*
X115203341Y-85747007D01*
X115033823Y-85633739D01*
X114845465Y-85555718D01*
X114645506Y-85515944D01*
X114441628Y-85515944D01*
X114241669Y-85555718D01*
X114053311Y-85633739D01*
X114043205Y-85640491D01*
X114025226Y-85550102D01*
X113947205Y-85361744D01*
X113833937Y-85192226D01*
X113689774Y-85048063D01*
X113520256Y-84934795D01*
X113331898Y-84856774D01*
X113131939Y-84817000D01*
X112928061Y-84817000D01*
X112728102Y-84856774D01*
X112539744Y-84934795D01*
X112370226Y-85048063D01*
X112226063Y-85192226D01*
X112112795Y-85361744D01*
X112091327Y-85413572D01*
X112075955Y-85365114D01*
X112051507Y-85308072D01*
X112027838Y-85250647D01*
X112023289Y-85242233D01*
X111933968Y-85079759D01*
X111898877Y-85028511D01*
X111864533Y-84976819D01*
X111858437Y-84969450D01*
X111739259Y-84827420D01*
X111694902Y-84783982D01*
X111651155Y-84739929D01*
X111643743Y-84733884D01*
X111499249Y-84617708D01*
X111447339Y-84583739D01*
X111395828Y-84548995D01*
X111387384Y-84544505D01*
X111223075Y-84458606D01*
X111165520Y-84435352D01*
X111108275Y-84411289D01*
X111099123Y-84408526D01*
X111099117Y-84408524D01*
X110921255Y-84356177D01*
X110860248Y-84344539D01*
X110799454Y-84332060D01*
X110789936Y-84331126D01*
X110605292Y-84314322D01*
X110543202Y-84314756D01*
X110481123Y-84314323D01*
X110471604Y-84315256D01*
X110287212Y-84334637D01*
X110226409Y-84347118D01*
X110165414Y-84358753D01*
X110156258Y-84361518D01*
X110156253Y-84361519D01*
X110156248Y-84361521D01*
X109979142Y-84416344D01*
X109921897Y-84440407D01*
X109864342Y-84463661D01*
X109855903Y-84468148D01*
X109855899Y-84468150D01*
X109855898Y-84468151D01*
X109692805Y-84556335D01*
X109641348Y-84591043D01*
X109589382Y-84625049D01*
X109581970Y-84631094D01*
X109439111Y-84749278D01*
X109395366Y-84793330D01*
X109351008Y-84836768D01*
X109344912Y-84844137D01*
X109344909Y-84844140D01*
X109344907Y-84844144D01*
X109227729Y-84987817D01*
X109193375Y-85039524D01*
X109158296Y-85090755D01*
X109153747Y-85099168D01*
X109066703Y-85262874D01*
X109043053Y-85320252D01*
X109018585Y-85377342D01*
X109015757Y-85386478D01*
X108962169Y-85563972D01*
X108950114Y-85624853D01*
X108937202Y-85685599D01*
X108936202Y-85695111D01*
X108918109Y-85879634D01*
X108918109Y-85879639D01*
X108914840Y-85912834D01*
X108914841Y-89789000D01*
X99084840Y-89789000D01*
X99084840Y-86076881D01*
X102778180Y-86076881D01*
X102778180Y-86280759D01*
X102817954Y-86480718D01*
X102895975Y-86669076D01*
X103009243Y-86838594D01*
X103153406Y-86982757D01*
X103322924Y-87096025D01*
X103511282Y-87174046D01*
X103711241Y-87213820D01*
X103915119Y-87213820D01*
X104115078Y-87174046D01*
X104303436Y-87096025D01*
X104472954Y-86982757D01*
X104617117Y-86838594D01*
X104730385Y-86669076D01*
X104808406Y-86480718D01*
X104815413Y-86445493D01*
X104919744Y-86515205D01*
X105108102Y-86593226D01*
X105308061Y-86633000D01*
X105511939Y-86633000D01*
X105711898Y-86593226D01*
X105900256Y-86515205D01*
X106069774Y-86401937D01*
X106213937Y-86257774D01*
X106305165Y-86121241D01*
X106324061Y-86125000D01*
X106527939Y-86125000D01*
X106727898Y-86085226D01*
X106916256Y-86007205D01*
X107085774Y-85893937D01*
X107229937Y-85749774D01*
X107343205Y-85580256D01*
X107421226Y-85391898D01*
X107461000Y-85191939D01*
X107461000Y-84988061D01*
X107421226Y-84788102D01*
X107343205Y-84599744D01*
X107229937Y-84430226D01*
X107085774Y-84286063D01*
X106916256Y-84172795D01*
X106727898Y-84094774D01*
X106527939Y-84055000D01*
X106324061Y-84055000D01*
X106124102Y-84094774D01*
X105935744Y-84172795D01*
X105766226Y-84286063D01*
X105622063Y-84430226D01*
X105530835Y-84566759D01*
X105511939Y-84563000D01*
X105308061Y-84563000D01*
X105108102Y-84602774D01*
X104919744Y-84680795D01*
X104750226Y-84794063D01*
X104606063Y-84938226D01*
X104492795Y-85107744D01*
X104414774Y-85296102D01*
X104407767Y-85331327D01*
X104303436Y-85261615D01*
X104115078Y-85183594D01*
X103915119Y-85143820D01*
X103711241Y-85143820D01*
X103511282Y-85183594D01*
X103322924Y-85261615D01*
X103153406Y-85374883D01*
X103009243Y-85519046D01*
X102895975Y-85688564D01*
X102817954Y-85876922D01*
X102778180Y-86076881D01*
X99084840Y-86076881D01*
X99084840Y-85009364D01*
X99084948Y-85008386D01*
X99084999Y-84998822D01*
X99084993Y-84995332D01*
X99084840Y-84993799D01*
X99084840Y-84962833D01*
X99082376Y-84937820D01*
X99082387Y-84936807D01*
X99081487Y-84927285D01*
X99076605Y-84879221D01*
X99074928Y-84862197D01*
X99074849Y-84861937D01*
X99061764Y-84733119D01*
X99049493Y-84672260D01*
X99038072Y-84611234D01*
X99035340Y-84602068D01*
X98978279Y-84415430D01*
X98954418Y-84358108D01*
X98931364Y-84300470D01*
X98926904Y-84292009D01*
X98834679Y-84120009D01*
X98800121Y-84068388D01*
X98766327Y-84016349D01*
X98760308Y-84008916D01*
X98636430Y-83858103D01*
X98592508Y-83814181D01*
X98549244Y-83769692D01*
X98541896Y-83763569D01*
X98391085Y-83639693D01*
X98339522Y-83605174D01*
X98288392Y-83569902D01*
X98279995Y-83565324D01*
X98107994Y-83473098D01*
X98050677Y-83449239D01*
X97993697Y-83424582D01*
X97984571Y-83421721D01*
X97797933Y-83364660D01*
X97737054Y-83352385D01*
X97676391Y-83339269D01*
X97666882Y-83338236D01*
X97538783Y-83325224D01*
X97537774Y-83324918D01*
X97437138Y-83315006D01*
X63985000Y-83315006D01*
X63985000Y-78892061D01*
X72371000Y-78892061D01*
X72371000Y-79095939D01*
X72410774Y-79295898D01*
X72488795Y-79484256D01*
X72602063Y-79653774D01*
X72746226Y-79797937D01*
X72915744Y-79911205D01*
X73104102Y-79989226D01*
X73304061Y-80029000D01*
X73507939Y-80029000D01*
X73707898Y-79989226D01*
X73896256Y-79911205D01*
X74065774Y-79797937D01*
X74209937Y-79653774D01*
X74323205Y-79484256D01*
X74401226Y-79295898D01*
X74441000Y-79095939D01*
X74441000Y-78892061D01*
X74657000Y-78892061D01*
X74657000Y-79095939D01*
X74696774Y-79295898D01*
X74774795Y-79484256D01*
X74888063Y-79653774D01*
X75032226Y-79797937D01*
X75201744Y-79911205D01*
X75390102Y-79989226D01*
X75590061Y-80029000D01*
X75793939Y-80029000D01*
X75993898Y-79989226D01*
X76182256Y-79911205D01*
X76186961Y-79908061D01*
X114027000Y-79908061D01*
X114027000Y-80111939D01*
X114066774Y-80311898D01*
X114144795Y-80500256D01*
X114258063Y-80669774D01*
X114402226Y-80813937D01*
X114571744Y-80927205D01*
X114760102Y-81005226D01*
X114960061Y-81045000D01*
X115163939Y-81045000D01*
X115363898Y-81005226D01*
X115552256Y-80927205D01*
X115721774Y-80813937D01*
X115865937Y-80669774D01*
X115979205Y-80500256D01*
X116057226Y-80311898D01*
X116097000Y-80111939D01*
X116097000Y-79908061D01*
X116057226Y-79708102D01*
X115979205Y-79519744D01*
X115865937Y-79350226D01*
X115721774Y-79206063D01*
X115552256Y-79092795D01*
X115363898Y-79014774D01*
X115163939Y-78975000D01*
X114960061Y-78975000D01*
X114760102Y-79014774D01*
X114571744Y-79092795D01*
X114402226Y-79206063D01*
X114258063Y-79350226D01*
X114144795Y-79519744D01*
X114066774Y-79708102D01*
X114027000Y-79908061D01*
X76186961Y-79908061D01*
X76351774Y-79797937D01*
X76495937Y-79653774D01*
X76609205Y-79484256D01*
X76687226Y-79295898D01*
X76727000Y-79095939D01*
X76727000Y-78892061D01*
X76687226Y-78692102D01*
X76664842Y-78638061D01*
X97517000Y-78638061D01*
X97517000Y-78841939D01*
X97556774Y-79041898D01*
X97634795Y-79230256D01*
X97748063Y-79399774D01*
X97892226Y-79543937D01*
X98061744Y-79657205D01*
X98250102Y-79735226D01*
X98450061Y-79775000D01*
X98653939Y-79775000D01*
X98853898Y-79735226D01*
X99042256Y-79657205D01*
X99211774Y-79543937D01*
X99355937Y-79399774D01*
X99469205Y-79230256D01*
X99547226Y-79041898D01*
X99587000Y-78841939D01*
X99587000Y-78638061D01*
X99547226Y-78438102D01*
X99469205Y-78249744D01*
X99355937Y-78080226D01*
X99211774Y-77936063D01*
X99121975Y-77876061D01*
X127235000Y-77876061D01*
X127235000Y-78079939D01*
X127274774Y-78279898D01*
X127352795Y-78468256D01*
X127466063Y-78637774D01*
X127610226Y-78781937D01*
X127779744Y-78895205D01*
X127968102Y-78973226D01*
X128168061Y-79013000D01*
X128371939Y-79013000D01*
X128571898Y-78973226D01*
X128760256Y-78895205D01*
X128929774Y-78781937D01*
X129073937Y-78637774D01*
X129187205Y-78468256D01*
X129265226Y-78279898D01*
X129295030Y-78130061D01*
X129775000Y-78130061D01*
X129775000Y-78333939D01*
X129814774Y-78533898D01*
X129892795Y-78722256D01*
X130006063Y-78891774D01*
X130150226Y-79035937D01*
X130319744Y-79149205D01*
X130508102Y-79227226D01*
X130708061Y-79267000D01*
X130911939Y-79267000D01*
X131111898Y-79227226D01*
X131300256Y-79149205D01*
X131469774Y-79035937D01*
X131613937Y-78891774D01*
X131727205Y-78722256D01*
X131805226Y-78533898D01*
X131845000Y-78333939D01*
X131845000Y-78130061D01*
X132315000Y-78130061D01*
X132315000Y-78333939D01*
X132354774Y-78533898D01*
X132432795Y-78722256D01*
X132546063Y-78891774D01*
X132690226Y-79035937D01*
X132859744Y-79149205D01*
X133048102Y-79227226D01*
X133248061Y-79267000D01*
X133451939Y-79267000D01*
X133651898Y-79227226D01*
X133840256Y-79149205D01*
X134009774Y-79035937D01*
X134153937Y-78891774D01*
X134267205Y-78722256D01*
X134345226Y-78533898D01*
X134385000Y-78333939D01*
X134385000Y-78130061D01*
X134345226Y-77930102D01*
X134267205Y-77741744D01*
X134153937Y-77572226D01*
X134009774Y-77428063D01*
X133840256Y-77314795D01*
X133651898Y-77236774D01*
X133451939Y-77197000D01*
X133248061Y-77197000D01*
X133048102Y-77236774D01*
X132859744Y-77314795D01*
X132690226Y-77428063D01*
X132546063Y-77572226D01*
X132432795Y-77741744D01*
X132354774Y-77930102D01*
X132315000Y-78130061D01*
X131845000Y-78130061D01*
X131805226Y-77930102D01*
X131727205Y-77741744D01*
X131613937Y-77572226D01*
X131469774Y-77428063D01*
X131300256Y-77314795D01*
X131111898Y-77236774D01*
X130911939Y-77197000D01*
X130708061Y-77197000D01*
X130508102Y-77236774D01*
X130319744Y-77314795D01*
X130150226Y-77428063D01*
X130006063Y-77572226D01*
X129892795Y-77741744D01*
X129814774Y-77930102D01*
X129775000Y-78130061D01*
X129295030Y-78130061D01*
X129305000Y-78079939D01*
X129305000Y-77876061D01*
X129265226Y-77676102D01*
X129187205Y-77487744D01*
X129073937Y-77318226D01*
X128929774Y-77174063D01*
X128760256Y-77060795D01*
X128571898Y-76982774D01*
X128371939Y-76943000D01*
X128168061Y-76943000D01*
X127968102Y-76982774D01*
X127779744Y-77060795D01*
X127610226Y-77174063D01*
X127466063Y-77318226D01*
X127352795Y-77487744D01*
X127274774Y-77676102D01*
X127235000Y-77876061D01*
X99121975Y-77876061D01*
X99042256Y-77822795D01*
X98853898Y-77744774D01*
X98653939Y-77705000D01*
X98450061Y-77705000D01*
X98250102Y-77744774D01*
X98061744Y-77822795D01*
X97892226Y-77936063D01*
X97748063Y-78080226D01*
X97634795Y-78249744D01*
X97556774Y-78438102D01*
X97517000Y-78638061D01*
X76664842Y-78638061D01*
X76609205Y-78503744D01*
X76495937Y-78334226D01*
X76351774Y-78190063D01*
X76182256Y-78076795D01*
X75993898Y-77998774D01*
X75793939Y-77959000D01*
X75590061Y-77959000D01*
X75390102Y-77998774D01*
X75201744Y-78076795D01*
X75032226Y-78190063D01*
X74888063Y-78334226D01*
X74774795Y-78503744D01*
X74696774Y-78692102D01*
X74657000Y-78892061D01*
X74441000Y-78892061D01*
X74401226Y-78692102D01*
X74323205Y-78503744D01*
X74209937Y-78334226D01*
X74065774Y-78190063D01*
X73896256Y-78076795D01*
X73707898Y-77998774D01*
X73507939Y-77959000D01*
X73304061Y-77959000D01*
X73104102Y-77998774D01*
X72915744Y-78076795D01*
X72746226Y-78190063D01*
X72602063Y-78334226D01*
X72488795Y-78503744D01*
X72410774Y-78692102D01*
X72371000Y-78892061D01*
X63985000Y-78892061D01*
X63985000Y-76606061D01*
X71355000Y-76606061D01*
X71355000Y-76809939D01*
X71394774Y-77009898D01*
X71472795Y-77198256D01*
X71586063Y-77367774D01*
X71730226Y-77511937D01*
X71899744Y-77625205D01*
X72088102Y-77703226D01*
X72288061Y-77743000D01*
X72491939Y-77743000D01*
X72691898Y-77703226D01*
X72880256Y-77625205D01*
X73049774Y-77511937D01*
X73193937Y-77367774D01*
X73307205Y-77198256D01*
X73385226Y-77009898D01*
X73425000Y-76809939D01*
X73425000Y-76606061D01*
X73641000Y-76606061D01*
X73641000Y-76809939D01*
X73680774Y-77009898D01*
X73758795Y-77198256D01*
X73872063Y-77367774D01*
X74016226Y-77511937D01*
X74185744Y-77625205D01*
X74374102Y-77703226D01*
X74574061Y-77743000D01*
X74777939Y-77743000D01*
X74977898Y-77703226D01*
X75166256Y-77625205D01*
X75335774Y-77511937D01*
X75479937Y-77367774D01*
X75593205Y-77198256D01*
X75671226Y-77009898D01*
X75711000Y-76809939D01*
X75711000Y-76606061D01*
X75671226Y-76406102D01*
X75593205Y-76217744D01*
X75479937Y-76048226D01*
X75335774Y-75904063D01*
X75166256Y-75790795D01*
X74977898Y-75712774D01*
X74777939Y-75673000D01*
X74574061Y-75673000D01*
X74374102Y-75712774D01*
X74185744Y-75790795D01*
X74016226Y-75904063D01*
X73872063Y-76048226D01*
X73758795Y-76217744D01*
X73680774Y-76406102D01*
X73641000Y-76606061D01*
X73425000Y-76606061D01*
X73385226Y-76406102D01*
X73307205Y-76217744D01*
X73193937Y-76048226D01*
X73049774Y-75904063D01*
X72880256Y-75790795D01*
X72691898Y-75712774D01*
X72491939Y-75673000D01*
X72288061Y-75673000D01*
X72088102Y-75712774D01*
X71899744Y-75790795D01*
X71730226Y-75904063D01*
X71586063Y-76048226D01*
X71472795Y-76217744D01*
X71394774Y-76406102D01*
X71355000Y-76606061D01*
X63985000Y-76606061D01*
X63985000Y-74574061D01*
X69831000Y-74574061D01*
X69831000Y-74777939D01*
X69870774Y-74977898D01*
X69948795Y-75166256D01*
X70062063Y-75335774D01*
X70206226Y-75479937D01*
X70375744Y-75593205D01*
X70564102Y-75671226D01*
X70764061Y-75711000D01*
X70967939Y-75711000D01*
X71167898Y-75671226D01*
X71356256Y-75593205D01*
X71525774Y-75479937D01*
X71669937Y-75335774D01*
X71783205Y-75166256D01*
X71844818Y-75017509D01*
X77051000Y-75017509D01*
X77051000Y-75858492D01*
X77071764Y-76069309D01*
X77153818Y-76339808D01*
X77287068Y-76589101D01*
X77466393Y-76807608D01*
X77684900Y-76986932D01*
X77934193Y-77120182D01*
X78204692Y-77202236D01*
X78486000Y-77229943D01*
X78767309Y-77202236D01*
X79037808Y-77120182D01*
X79287101Y-76986932D01*
X79505608Y-76807608D01*
X79684932Y-76589101D01*
X79818182Y-76339808D01*
X79900236Y-76069308D01*
X79921000Y-75858491D01*
X79921000Y-75017509D01*
X87211000Y-75017509D01*
X87211000Y-75858492D01*
X87231764Y-76069309D01*
X87313818Y-76339808D01*
X87447068Y-76589101D01*
X87626393Y-76807608D01*
X87844900Y-76986932D01*
X88094193Y-77120182D01*
X88364692Y-77202236D01*
X88646000Y-77229943D01*
X88927309Y-77202236D01*
X89197808Y-77120182D01*
X89447101Y-76986932D01*
X89665608Y-76807608D01*
X89844932Y-76589101D01*
X89916000Y-76456142D01*
X89987068Y-76589101D01*
X90166393Y-76807608D01*
X90384900Y-76986932D01*
X90634193Y-77120182D01*
X90904692Y-77202236D01*
X91186000Y-77229943D01*
X91467309Y-77202236D01*
X91737808Y-77120182D01*
X91987101Y-76986932D01*
X92205608Y-76807608D01*
X92384932Y-76589101D01*
X92518182Y-76339808D01*
X92591514Y-76098061D01*
X107169000Y-76098061D01*
X107169000Y-76301939D01*
X107208774Y-76501898D01*
X107286795Y-76690256D01*
X107400063Y-76859774D01*
X107544226Y-77003937D01*
X107713744Y-77117205D01*
X107902102Y-77195226D01*
X108102061Y-77235000D01*
X108305939Y-77235000D01*
X108505898Y-77195226D01*
X108694256Y-77117205D01*
X108863774Y-77003937D01*
X109007937Y-76859774D01*
X109121205Y-76690256D01*
X109199226Y-76501898D01*
X109239000Y-76301939D01*
X109239000Y-76098061D01*
X109199226Y-75898102D01*
X109121205Y-75709744D01*
X109007937Y-75540226D01*
X108863774Y-75396063D01*
X108694256Y-75282795D01*
X108505898Y-75204774D01*
X108305939Y-75165000D01*
X108102061Y-75165000D01*
X107902102Y-75204774D01*
X107713744Y-75282795D01*
X107544226Y-75396063D01*
X107400063Y-75540226D01*
X107286795Y-75709744D01*
X107208774Y-75898102D01*
X107169000Y-76098061D01*
X92591514Y-76098061D01*
X92600236Y-76069308D01*
X92621000Y-75858491D01*
X92621000Y-75017508D01*
X92602341Y-74828061D01*
X109455000Y-74828061D01*
X109455000Y-75031939D01*
X109494774Y-75231898D01*
X109572795Y-75420256D01*
X109686063Y-75589774D01*
X109830226Y-75733937D01*
X109999744Y-75847205D01*
X110188102Y-75925226D01*
X110388061Y-75965000D01*
X110591939Y-75965000D01*
X110791898Y-75925226D01*
X110980256Y-75847205D01*
X111149774Y-75733937D01*
X111293937Y-75589774D01*
X111407205Y-75420256D01*
X111485226Y-75231898D01*
X111525000Y-75031939D01*
X111525000Y-74828061D01*
X111485226Y-74628102D01*
X111407205Y-74439744D01*
X111293937Y-74270226D01*
X111149774Y-74126063D01*
X110980256Y-74012795D01*
X110791898Y-73934774D01*
X110591939Y-73895000D01*
X110388061Y-73895000D01*
X110188102Y-73934774D01*
X109999744Y-74012795D01*
X109830226Y-74126063D01*
X109686063Y-74270226D01*
X109572795Y-74439744D01*
X109494774Y-74628102D01*
X109455000Y-74828061D01*
X92602341Y-74828061D01*
X92600236Y-74806691D01*
X92518182Y-74536192D01*
X92384932Y-74286899D01*
X92205607Y-74068392D01*
X91987100Y-73889068D01*
X91737807Y-73755818D01*
X91467308Y-73673764D01*
X91186000Y-73646057D01*
X90904691Y-73673764D01*
X90634192Y-73755818D01*
X90384899Y-73889068D01*
X90166392Y-74068393D01*
X89987068Y-74286900D01*
X89916000Y-74419858D01*
X89844932Y-74286899D01*
X89665607Y-74068392D01*
X89447100Y-73889068D01*
X89197807Y-73755818D01*
X88927308Y-73673764D01*
X88646000Y-73646057D01*
X88364691Y-73673764D01*
X88094192Y-73755818D01*
X87844899Y-73889068D01*
X87626392Y-74068393D01*
X87447068Y-74286900D01*
X87313818Y-74536193D01*
X87231764Y-74806692D01*
X87211000Y-75017509D01*
X79921000Y-75017509D01*
X79921000Y-75017508D01*
X79900236Y-74806691D01*
X79818182Y-74536192D01*
X79684932Y-74286899D01*
X79505607Y-74068392D01*
X79287100Y-73889068D01*
X79037807Y-73755818D01*
X78767308Y-73673764D01*
X78486000Y-73646057D01*
X78204691Y-73673764D01*
X77934192Y-73755818D01*
X77684899Y-73889068D01*
X77466392Y-74068393D01*
X77287068Y-74286900D01*
X77153818Y-74536193D01*
X77071764Y-74806692D01*
X77051000Y-75017509D01*
X71844818Y-75017509D01*
X71861226Y-74977898D01*
X71901000Y-74777939D01*
X71901000Y-74574061D01*
X71861226Y-74374102D01*
X71783205Y-74185744D01*
X71669937Y-74016226D01*
X71525774Y-73872063D01*
X71356256Y-73758795D01*
X71167898Y-73680774D01*
X70967939Y-73641000D01*
X70764061Y-73641000D01*
X70564102Y-73680774D01*
X70375744Y-73758795D01*
X70206226Y-73872063D01*
X70062063Y-74016226D01*
X69948795Y-74185744D01*
X69870774Y-74374102D01*
X69831000Y-74574061D01*
X63985000Y-74574061D01*
X63985000Y-73558061D01*
X107423000Y-73558061D01*
X107423000Y-73761939D01*
X107462774Y-73961898D01*
X107540795Y-74150256D01*
X107654063Y-74319774D01*
X107798226Y-74463937D01*
X107967744Y-74577205D01*
X108156102Y-74655226D01*
X108356061Y-74695000D01*
X108559939Y-74695000D01*
X108759898Y-74655226D01*
X108948256Y-74577205D01*
X109117774Y-74463937D01*
X109261937Y-74319774D01*
X109375205Y-74150256D01*
X109453226Y-73961898D01*
X109493000Y-73761939D01*
X109493000Y-73558061D01*
X109453226Y-73358102D01*
X109375205Y-73169744D01*
X109261937Y-73000226D01*
X109117774Y-72856063D01*
X108948256Y-72742795D01*
X108759898Y-72664774D01*
X108559939Y-72625000D01*
X108356061Y-72625000D01*
X108156102Y-72664774D01*
X107967744Y-72742795D01*
X107798226Y-72856063D01*
X107654063Y-73000226D01*
X107540795Y-73169744D01*
X107462774Y-73358102D01*
X107423000Y-73558061D01*
X63985000Y-73558061D01*
X63985000Y-72288061D01*
X109201000Y-72288061D01*
X109201000Y-72491939D01*
X109240774Y-72691898D01*
X109318795Y-72880256D01*
X109432063Y-73049774D01*
X109576226Y-73193937D01*
X109745744Y-73307205D01*
X109934102Y-73385226D01*
X110134061Y-73425000D01*
X110337939Y-73425000D01*
X110537898Y-73385226D01*
X110726256Y-73307205D01*
X110895774Y-73193937D01*
X111039937Y-73049774D01*
X111153205Y-72880256D01*
X111231226Y-72691898D01*
X111271000Y-72491939D01*
X111271000Y-72288061D01*
X111231226Y-72088102D01*
X111153205Y-71899744D01*
X111039937Y-71730226D01*
X110895774Y-71586063D01*
X110726256Y-71472795D01*
X110537898Y-71394774D01*
X110337939Y-71355000D01*
X110134061Y-71355000D01*
X109934102Y-71394774D01*
X109745744Y-71472795D01*
X109576226Y-71586063D01*
X109432063Y-71730226D01*
X109318795Y-71899744D01*
X109240774Y-72088102D01*
X109201000Y-72288061D01*
X63985000Y-72288061D01*
X63985000Y-70764061D01*
X96501000Y-70764061D01*
X96501000Y-70967939D01*
X96540774Y-71167898D01*
X96618795Y-71356256D01*
X96732063Y-71525774D01*
X96876226Y-71669937D01*
X97045744Y-71783205D01*
X97234102Y-71861226D01*
X97434061Y-71901000D01*
X97637939Y-71901000D01*
X97837898Y-71861226D01*
X98026256Y-71783205D01*
X98195774Y-71669937D01*
X98339937Y-71525774D01*
X98453205Y-71356256D01*
X98531226Y-71167898D01*
X98561030Y-71018061D01*
X107169000Y-71018061D01*
X107169000Y-71221939D01*
X107208774Y-71421898D01*
X107286795Y-71610256D01*
X107400063Y-71779774D01*
X107544226Y-71923937D01*
X107713744Y-72037205D01*
X107902102Y-72115226D01*
X108102061Y-72155000D01*
X108305939Y-72155000D01*
X108505898Y-72115226D01*
X108694256Y-72037205D01*
X108863774Y-71923937D01*
X109007937Y-71779774D01*
X109121205Y-71610256D01*
X109199226Y-71421898D01*
X109239000Y-71221939D01*
X109239000Y-71018061D01*
X109199226Y-70818102D01*
X109121205Y-70629744D01*
X109007937Y-70460226D01*
X108863774Y-70316063D01*
X108773975Y-70256061D01*
X113773000Y-70256061D01*
X113773000Y-70459939D01*
X113812774Y-70659898D01*
X113890795Y-70848256D01*
X114004063Y-71017774D01*
X114148226Y-71161937D01*
X114317744Y-71275205D01*
X114506102Y-71353226D01*
X114706061Y-71393000D01*
X114909939Y-71393000D01*
X115109898Y-71353226D01*
X115298256Y-71275205D01*
X115467774Y-71161937D01*
X115611937Y-71017774D01*
X115725205Y-70848256D01*
X115803226Y-70659898D01*
X115843000Y-70459939D01*
X115843000Y-70256061D01*
X115803226Y-70056102D01*
X115725205Y-69867744D01*
X115611937Y-69698226D01*
X115467774Y-69554063D01*
X115298256Y-69440795D01*
X115109898Y-69362774D01*
X114909939Y-69323000D01*
X114706061Y-69323000D01*
X114506102Y-69362774D01*
X114317744Y-69440795D01*
X114148226Y-69554063D01*
X114004063Y-69698226D01*
X113890795Y-69867744D01*
X113812774Y-70056102D01*
X113773000Y-70256061D01*
X108773975Y-70256061D01*
X108694256Y-70202795D01*
X108505898Y-70124774D01*
X108305939Y-70085000D01*
X108102061Y-70085000D01*
X107902102Y-70124774D01*
X107713744Y-70202795D01*
X107544226Y-70316063D01*
X107400063Y-70460226D01*
X107286795Y-70629744D01*
X107208774Y-70818102D01*
X107169000Y-71018061D01*
X98561030Y-71018061D01*
X98571000Y-70967939D01*
X98571000Y-70764061D01*
X98531226Y-70564102D01*
X98453205Y-70375744D01*
X98339937Y-70206226D01*
X98195774Y-70062063D01*
X98026256Y-69948795D01*
X97837898Y-69870774D01*
X97637939Y-69831000D01*
X97434061Y-69831000D01*
X97234102Y-69870774D01*
X97045744Y-69948795D01*
X96876226Y-70062063D01*
X96732063Y-70206226D01*
X96618795Y-70375744D01*
X96540774Y-70564102D01*
X96501000Y-70764061D01*
X63985000Y-70764061D01*
X63985000Y-68478061D01*
X64751000Y-68478061D01*
X64751000Y-68681939D01*
X64790774Y-68881898D01*
X64868795Y-69070256D01*
X64982063Y-69239774D01*
X65126226Y-69383937D01*
X65295744Y-69497205D01*
X65484102Y-69575226D01*
X65684061Y-69615000D01*
X65887939Y-69615000D01*
X66087898Y-69575226D01*
X66276256Y-69497205D01*
X66445774Y-69383937D01*
X66589937Y-69239774D01*
X66703205Y-69070256D01*
X66781226Y-68881898D01*
X66821000Y-68681939D01*
X66821000Y-68478061D01*
X66781226Y-68278102D01*
X66703205Y-68089744D01*
X66589937Y-67920226D01*
X66445774Y-67776063D01*
X66276256Y-67662795D01*
X66087898Y-67584774D01*
X65887939Y-67545000D01*
X65684061Y-67545000D01*
X65484102Y-67584774D01*
X65295744Y-67662795D01*
X65126226Y-67776063D01*
X64982063Y-67920226D01*
X64868795Y-68089744D01*
X64790774Y-68278102D01*
X64751000Y-68478061D01*
X63985000Y-68478061D01*
X63985000Y-67397509D01*
X77051000Y-67397509D01*
X77051000Y-68238492D01*
X77071764Y-68449309D01*
X77153818Y-68719808D01*
X77287068Y-68969101D01*
X77466393Y-69187608D01*
X77684900Y-69366932D01*
X77934193Y-69500182D01*
X78204692Y-69582236D01*
X78486000Y-69609943D01*
X78767309Y-69582236D01*
X79037808Y-69500182D01*
X79287101Y-69366932D01*
X79505608Y-69187608D01*
X79684932Y-68969101D01*
X79818182Y-68719808D01*
X79900236Y-68449308D01*
X79921000Y-68238491D01*
X79921000Y-67945000D01*
X87211000Y-67945000D01*
X87211000Y-68295000D01*
X87263350Y-68572514D01*
X87368834Y-68834483D01*
X87523399Y-69070839D01*
X87721105Y-69272500D01*
X87954354Y-69431715D01*
X88214182Y-69542367D01*
X88296961Y-69559904D01*
X88519000Y-69437915D01*
X88519000Y-67945000D01*
X87211000Y-67945000D01*
X79921000Y-67945000D01*
X79921000Y-67397508D01*
X79915435Y-67341000D01*
X87211000Y-67341000D01*
X87211000Y-67691000D01*
X88519000Y-67691000D01*
X88519000Y-66198085D01*
X88773000Y-66198085D01*
X88773000Y-67691000D01*
X88793000Y-67691000D01*
X88793000Y-67945000D01*
X88773000Y-67945000D01*
X88773000Y-69437915D01*
X88995039Y-69559904D01*
X89077818Y-69542367D01*
X89337646Y-69431715D01*
X89570895Y-69272500D01*
X89768601Y-69070839D01*
X89918735Y-68841259D01*
X89987068Y-68969101D01*
X90166393Y-69187608D01*
X90384900Y-69366932D01*
X90634193Y-69500182D01*
X90904692Y-69582236D01*
X91186000Y-69609943D01*
X91467309Y-69582236D01*
X91737808Y-69500182D01*
X91987101Y-69366932D01*
X92141693Y-69240061D01*
X94723000Y-69240061D01*
X94723000Y-69443939D01*
X94762774Y-69643898D01*
X94840795Y-69832256D01*
X94954063Y-70001774D01*
X95098226Y-70145937D01*
X95267744Y-70259205D01*
X95456102Y-70337226D01*
X95656061Y-70377000D01*
X95859939Y-70377000D01*
X96059898Y-70337226D01*
X96248256Y-70259205D01*
X96417774Y-70145937D01*
X96561937Y-70001774D01*
X96675205Y-69832256D01*
X96753226Y-69643898D01*
X96793000Y-69443939D01*
X96793000Y-69240061D01*
X96753226Y-69040102D01*
X96675205Y-68851744D01*
X96561937Y-68682226D01*
X96417774Y-68538063D01*
X96327975Y-68478061D01*
X112503000Y-68478061D01*
X112503000Y-68681939D01*
X112542774Y-68881898D01*
X112620795Y-69070256D01*
X112734063Y-69239774D01*
X112878226Y-69383937D01*
X113047744Y-69497205D01*
X113236102Y-69575226D01*
X113436061Y-69615000D01*
X113639939Y-69615000D01*
X113839898Y-69575226D01*
X114028256Y-69497205D01*
X114197774Y-69383937D01*
X114341937Y-69239774D01*
X114455205Y-69070256D01*
X114533226Y-68881898D01*
X114573000Y-68681939D01*
X114573000Y-68478061D01*
X114533226Y-68278102D01*
X114455205Y-68089744D01*
X114341937Y-67920226D01*
X114197774Y-67776063D01*
X114028256Y-67662795D01*
X113839898Y-67584774D01*
X113639939Y-67545000D01*
X113436061Y-67545000D01*
X113236102Y-67584774D01*
X113047744Y-67662795D01*
X112878226Y-67776063D01*
X112734063Y-67920226D01*
X112620795Y-68089744D01*
X112542774Y-68278102D01*
X112503000Y-68478061D01*
X96327975Y-68478061D01*
X96248256Y-68424795D01*
X96059898Y-68346774D01*
X95859939Y-68307000D01*
X95656061Y-68307000D01*
X95456102Y-68346774D01*
X95267744Y-68424795D01*
X95098226Y-68538063D01*
X94954063Y-68682226D01*
X94840795Y-68851744D01*
X94762774Y-69040102D01*
X94723000Y-69240061D01*
X92141693Y-69240061D01*
X92205608Y-69187608D01*
X92384932Y-68969101D01*
X92518182Y-68719808D01*
X92600236Y-68449308D01*
X92621000Y-68238491D01*
X92621000Y-67397508D01*
X92600236Y-67186691D01*
X92518182Y-66916192D01*
X92384932Y-66666899D01*
X92205607Y-66448392D01*
X91987100Y-66269068D01*
X91737807Y-66135818D01*
X91467308Y-66053764D01*
X91186000Y-66026057D01*
X90904691Y-66053764D01*
X90634192Y-66135818D01*
X90384899Y-66269068D01*
X90166392Y-66448393D01*
X89987068Y-66666900D01*
X89918735Y-66794742D01*
X89768601Y-66565161D01*
X89570895Y-66363500D01*
X89337646Y-66204285D01*
X89077818Y-66093633D01*
X88995039Y-66076096D01*
X88773000Y-66198085D01*
X88519000Y-66198085D01*
X88296961Y-66076096D01*
X88214182Y-66093633D01*
X87954354Y-66204285D01*
X87721105Y-66363500D01*
X87523399Y-66565161D01*
X87368834Y-66801517D01*
X87263350Y-67063486D01*
X87211000Y-67341000D01*
X79915435Y-67341000D01*
X79900236Y-67186691D01*
X79818182Y-66916192D01*
X79684932Y-66666899D01*
X79505607Y-66448392D01*
X79287100Y-66269068D01*
X79037807Y-66135818D01*
X78767308Y-66053764D01*
X78486000Y-66026057D01*
X78204691Y-66053764D01*
X77934192Y-66135818D01*
X77684899Y-66269068D01*
X77466392Y-66448393D01*
X77287068Y-66666900D01*
X77153818Y-66916193D01*
X77071764Y-67186692D01*
X77051000Y-67397509D01*
X63985000Y-67397509D01*
X63985000Y-63906061D01*
X86087000Y-63906061D01*
X86087000Y-64109939D01*
X86126774Y-64309898D01*
X86204795Y-64498256D01*
X86318063Y-64667774D01*
X86462226Y-64811937D01*
X86631744Y-64925205D01*
X86820102Y-65003226D01*
X87020061Y-65043000D01*
X87223939Y-65043000D01*
X87423898Y-65003226D01*
X87612256Y-64925205D01*
X87781774Y-64811937D01*
X87925937Y-64667774D01*
X88039205Y-64498256D01*
X88117226Y-64309898D01*
X88157000Y-64109939D01*
X88157000Y-63906061D01*
X88117226Y-63706102D01*
X88039205Y-63517744D01*
X87925937Y-63348226D01*
X87781774Y-63204063D01*
X87612256Y-63090795D01*
X87423898Y-63012774D01*
X87223939Y-62973000D01*
X87020061Y-62973000D01*
X86820102Y-63012774D01*
X86631744Y-63090795D01*
X86462226Y-63204063D01*
X86318063Y-63348226D01*
X86204795Y-63517744D01*
X86126774Y-63706102D01*
X86087000Y-63906061D01*
X63985000Y-63906061D01*
X63985000Y-62636061D01*
X118853000Y-62636061D01*
X118853000Y-62839939D01*
X118892774Y-63039898D01*
X118970795Y-63228256D01*
X119084063Y-63397774D01*
X119228226Y-63541937D01*
X119397744Y-63655205D01*
X119586102Y-63733226D01*
X119786061Y-63773000D01*
X119989939Y-63773000D01*
X120189898Y-63733226D01*
X120378256Y-63655205D01*
X120382961Y-63652061D01*
X125203000Y-63652061D01*
X125203000Y-63855939D01*
X125242774Y-64055898D01*
X125320795Y-64244256D01*
X125434063Y-64413774D01*
X125578226Y-64557937D01*
X125747744Y-64671205D01*
X125936102Y-64749226D01*
X126136061Y-64789000D01*
X126339939Y-64789000D01*
X126539898Y-64749226D01*
X126728256Y-64671205D01*
X126897774Y-64557937D01*
X127041937Y-64413774D01*
X127155205Y-64244256D01*
X127233226Y-64055898D01*
X127273000Y-63855939D01*
X127273000Y-63652061D01*
X127233226Y-63452102D01*
X127155205Y-63263744D01*
X127041937Y-63094226D01*
X126897774Y-62950063D01*
X126728256Y-62836795D01*
X126539898Y-62758774D01*
X126339939Y-62719000D01*
X126136061Y-62719000D01*
X125936102Y-62758774D01*
X125747744Y-62836795D01*
X125578226Y-62950063D01*
X125434063Y-63094226D01*
X125320795Y-63263744D01*
X125242774Y-63452102D01*
X125203000Y-63652061D01*
X120382961Y-63652061D01*
X120547774Y-63541937D01*
X120691937Y-63397774D01*
X120805205Y-63228256D01*
X120883226Y-63039898D01*
X120923000Y-62839939D01*
X120923000Y-62636061D01*
X120883226Y-62436102D01*
X120805205Y-62247744D01*
X120691937Y-62078226D01*
X120547774Y-61934063D01*
X120378256Y-61820795D01*
X120189898Y-61742774D01*
X119989939Y-61703000D01*
X119786061Y-61703000D01*
X119586102Y-61742774D01*
X119397744Y-61820795D01*
X119228226Y-61934063D01*
X119084063Y-62078226D01*
X118970795Y-62247744D01*
X118892774Y-62436102D01*
X118853000Y-62636061D01*
X63985000Y-62636061D01*
X63985000Y-57570000D01*
X75879428Y-57570000D01*
X75879428Y-59570000D01*
X75891688Y-59694482D01*
X75927998Y-59814180D01*
X75986963Y-59924494D01*
X76066315Y-60021185D01*
X76163006Y-60100537D01*
X76273320Y-60159502D01*
X76393018Y-60195812D01*
X76517500Y-60208072D01*
X78422500Y-60208072D01*
X78546982Y-60195812D01*
X78666680Y-60159502D01*
X78776994Y-60100537D01*
X78873685Y-60021185D01*
X78953037Y-59924494D01*
X78997905Y-59840553D01*
X79123766Y-59943845D01*
X79399552Y-60091255D01*
X79698797Y-60182030D01*
X80010000Y-60212681D01*
X80321204Y-60182030D01*
X80620449Y-60091255D01*
X80896235Y-59943845D01*
X81137963Y-59745463D01*
X81280000Y-59572391D01*
X81422037Y-59745463D01*
X81663766Y-59943845D01*
X81939552Y-60091255D01*
X82238797Y-60182030D01*
X82550000Y-60212681D01*
X82861204Y-60182030D01*
X83160449Y-60091255D01*
X83436235Y-59943845D01*
X83677963Y-59745463D01*
X83876345Y-59503734D01*
X84023755Y-59227948D01*
X84114530Y-58928703D01*
X84137500Y-58695485D01*
X84137500Y-58572061D01*
X90913000Y-58572061D01*
X90913000Y-58775939D01*
X90952774Y-58975898D01*
X91030795Y-59164256D01*
X91144063Y-59333774D01*
X91288226Y-59477937D01*
X91457744Y-59591205D01*
X91646102Y-59669226D01*
X91846061Y-59709000D01*
X92049939Y-59709000D01*
X92249898Y-59669226D01*
X92438256Y-59591205D01*
X92607774Y-59477937D01*
X92751937Y-59333774D01*
X92865205Y-59164256D01*
X92943226Y-58975898D01*
X92983000Y-58775939D01*
X92983000Y-58572061D01*
X92943226Y-58372102D01*
X92865205Y-58183744D01*
X92751937Y-58014226D01*
X92607774Y-57870063D01*
X92438256Y-57756795D01*
X92249898Y-57678774D01*
X92049939Y-57639000D01*
X91846061Y-57639000D01*
X91646102Y-57678774D01*
X91457744Y-57756795D01*
X91288226Y-57870063D01*
X91144063Y-58014226D01*
X91030795Y-58183744D01*
X90952774Y-58372102D01*
X90913000Y-58572061D01*
X84137500Y-58572061D01*
X84137500Y-58444514D01*
X84114530Y-58211296D01*
X84023755Y-57912051D01*
X83876345Y-57636265D01*
X83677963Y-57394537D01*
X83436234Y-57196155D01*
X83160448Y-57048745D01*
X82861203Y-56957970D01*
X82550000Y-56927319D01*
X82238796Y-56957970D01*
X81939551Y-57048745D01*
X81663765Y-57196155D01*
X81422037Y-57394537D01*
X81280000Y-57567609D01*
X81137963Y-57394537D01*
X80896234Y-57196155D01*
X80620448Y-57048745D01*
X80321203Y-56957970D01*
X80010000Y-56927319D01*
X79698796Y-56957970D01*
X79399551Y-57048745D01*
X79123765Y-57196155D01*
X78997905Y-57299446D01*
X78953037Y-57215506D01*
X78873685Y-57118815D01*
X78776994Y-57039463D01*
X78666680Y-56980498D01*
X78546982Y-56944188D01*
X78422500Y-56931928D01*
X76517500Y-56931928D01*
X76393018Y-56944188D01*
X76273320Y-56980498D01*
X76163006Y-57039463D01*
X76066315Y-57118815D01*
X75986963Y-57215506D01*
X75927998Y-57325820D01*
X75891688Y-57445518D01*
X75879428Y-57570000D01*
X63985000Y-57570000D01*
X63985000Y-56540061D01*
X85833000Y-56540061D01*
X85833000Y-56743939D01*
X85872774Y-56943898D01*
X85950795Y-57132256D01*
X86064063Y-57301774D01*
X86208226Y-57445937D01*
X86377744Y-57559205D01*
X86566102Y-57637226D01*
X86766061Y-57677000D01*
X86969939Y-57677000D01*
X87169898Y-57637226D01*
X87358256Y-57559205D01*
X87527774Y-57445937D01*
X87671937Y-57301774D01*
X87785205Y-57132256D01*
X87863226Y-56943898D01*
X87903000Y-56743939D01*
X87903000Y-56540061D01*
X87863226Y-56340102D01*
X87785205Y-56151744D01*
X87671937Y-55982226D01*
X87527774Y-55838063D01*
X87364274Y-55728816D01*
X92445000Y-55728816D01*
X92445000Y-56031184D01*
X92503989Y-56327743D01*
X92619701Y-56607095D01*
X92787688Y-56858505D01*
X93001495Y-57072312D01*
X93252905Y-57240299D01*
X93532257Y-57356011D01*
X93828816Y-57415000D01*
X94131184Y-57415000D01*
X94427743Y-57356011D01*
X94707095Y-57240299D01*
X94958505Y-57072312D01*
X95172312Y-56858505D01*
X95340299Y-56607095D01*
X95456011Y-56327743D01*
X95515000Y-56031184D01*
X95515000Y-55728816D01*
X98795000Y-55728816D01*
X98795000Y-56031184D01*
X98853989Y-56327743D01*
X98969701Y-56607095D01*
X99137688Y-56858505D01*
X99351495Y-57072312D01*
X99602905Y-57240299D01*
X99882257Y-57356011D01*
X100178816Y-57415000D01*
X100481184Y-57415000D01*
X100777743Y-57356011D01*
X101057095Y-57240299D01*
X101308505Y-57072312D01*
X101522312Y-56858505D01*
X101690299Y-56607095D01*
X101755370Y-56450000D01*
X106611928Y-56450000D01*
X106611928Y-57850000D01*
X106624188Y-57974482D01*
X106660498Y-58094180D01*
X106719463Y-58204494D01*
X106798815Y-58301185D01*
X106895506Y-58380537D01*
X107005820Y-58439502D01*
X107125518Y-58475812D01*
X107250000Y-58488072D01*
X108650000Y-58488072D01*
X108774482Y-58475812D01*
X108894180Y-58439502D01*
X109004494Y-58380537D01*
X109101185Y-58301185D01*
X109180537Y-58204494D01*
X109239502Y-58094180D01*
X109275812Y-57974482D01*
X109288072Y-57850000D01*
X109288072Y-56450000D01*
X112961928Y-56450000D01*
X112961928Y-57850000D01*
X112974188Y-57974482D01*
X113010498Y-58094180D01*
X113069463Y-58204494D01*
X113148815Y-58301185D01*
X113245506Y-58380537D01*
X113355820Y-58439502D01*
X113475518Y-58475812D01*
X113600000Y-58488072D01*
X115000000Y-58488072D01*
X115124482Y-58475812D01*
X115244180Y-58439502D01*
X115354494Y-58380537D01*
X115451185Y-58301185D01*
X115530537Y-58204494D01*
X115589502Y-58094180D01*
X115625812Y-57974482D01*
X115638072Y-57850000D01*
X115638072Y-56450000D01*
X119311928Y-56450000D01*
X119311928Y-57850000D01*
X119324188Y-57974482D01*
X119360498Y-58094180D01*
X119419463Y-58204494D01*
X119498815Y-58301185D01*
X119595506Y-58380537D01*
X119705820Y-58439502D01*
X119825518Y-58475812D01*
X119950000Y-58488072D01*
X121350000Y-58488072D01*
X121474482Y-58475812D01*
X121594180Y-58439502D01*
X121704494Y-58380537D01*
X121801185Y-58301185D01*
X121880537Y-58204494D01*
X121939502Y-58094180D01*
X121975812Y-57974482D01*
X121988072Y-57850000D01*
X121988072Y-56450000D01*
X125661928Y-56450000D01*
X125661928Y-57850000D01*
X125674188Y-57974482D01*
X125710498Y-58094180D01*
X125769463Y-58204494D01*
X125848815Y-58301185D01*
X125945506Y-58380537D01*
X126055820Y-58439502D01*
X126175518Y-58475812D01*
X126300000Y-58488072D01*
X127700000Y-58488072D01*
X127824482Y-58475812D01*
X127944180Y-58439502D01*
X128054494Y-58380537D01*
X128151185Y-58301185D01*
X128230537Y-58204494D01*
X128289502Y-58094180D01*
X128325812Y-57974482D01*
X128338072Y-57850000D01*
X128338072Y-56450000D01*
X132011928Y-56450000D01*
X132011928Y-57850000D01*
X132024188Y-57974482D01*
X132060498Y-58094180D01*
X132119463Y-58204494D01*
X132198815Y-58301185D01*
X132295506Y-58380537D01*
X132405820Y-58439502D01*
X132525518Y-58475812D01*
X132650000Y-58488072D01*
X134050000Y-58488072D01*
X134174482Y-58475812D01*
X134294180Y-58439502D01*
X134404494Y-58380537D01*
X134501185Y-58301185D01*
X134580537Y-58204494D01*
X134639502Y-58094180D01*
X134675812Y-57974482D01*
X134688072Y-57850000D01*
X134688072Y-56450000D01*
X138361928Y-56450000D01*
X138361928Y-57850000D01*
X138374188Y-57974482D01*
X138410498Y-58094180D01*
X138469463Y-58204494D01*
X138548815Y-58301185D01*
X138645506Y-58380537D01*
X138755820Y-58439502D01*
X138875518Y-58475812D01*
X139000000Y-58488072D01*
X140400000Y-58488072D01*
X140524482Y-58475812D01*
X140644180Y-58439502D01*
X140754494Y-58380537D01*
X140851185Y-58301185D01*
X140930537Y-58204494D01*
X140989502Y-58094180D01*
X141025812Y-57974482D01*
X141038072Y-57850000D01*
X141038072Y-56450000D01*
X144711928Y-56450000D01*
X144711928Y-57850000D01*
X144724188Y-57974482D01*
X144760498Y-58094180D01*
X144819463Y-58204494D01*
X144898815Y-58301185D01*
X144995506Y-58380537D01*
X145105820Y-58439502D01*
X145225518Y-58475812D01*
X145350000Y-58488072D01*
X146750000Y-58488072D01*
X146874482Y-58475812D01*
X146994180Y-58439502D01*
X147104494Y-58380537D01*
X147201185Y-58301185D01*
X147280537Y-58204494D01*
X147339502Y-58094180D01*
X147375812Y-57974482D01*
X147388072Y-57850000D01*
X147388072Y-56450000D01*
X147375812Y-56325518D01*
X147339502Y-56205820D01*
X147280537Y-56095506D01*
X147201185Y-55998815D01*
X147104494Y-55919463D01*
X146994180Y-55860498D01*
X146874482Y-55824188D01*
X146750000Y-55811928D01*
X145350000Y-55811928D01*
X145225518Y-55824188D01*
X145105820Y-55860498D01*
X144995506Y-55919463D01*
X144898815Y-55998815D01*
X144819463Y-56095506D01*
X144760498Y-56205820D01*
X144724188Y-56325518D01*
X144711928Y-56450000D01*
X141038072Y-56450000D01*
X141025812Y-56325518D01*
X140989502Y-56205820D01*
X140930537Y-56095506D01*
X140851185Y-55998815D01*
X140754494Y-55919463D01*
X140644180Y-55860498D01*
X140524482Y-55824188D01*
X140400000Y-55811928D01*
X139000000Y-55811928D01*
X138875518Y-55824188D01*
X138755820Y-55860498D01*
X138645506Y-55919463D01*
X138548815Y-55998815D01*
X138469463Y-56095506D01*
X138410498Y-56205820D01*
X138374188Y-56325518D01*
X138361928Y-56450000D01*
X134688072Y-56450000D01*
X134675812Y-56325518D01*
X134639502Y-56205820D01*
X134580537Y-56095506D01*
X134501185Y-55998815D01*
X134404494Y-55919463D01*
X134294180Y-55860498D01*
X134174482Y-55824188D01*
X134050000Y-55811928D01*
X132650000Y-55811928D01*
X132525518Y-55824188D01*
X132405820Y-55860498D01*
X132295506Y-55919463D01*
X132198815Y-55998815D01*
X132119463Y-56095506D01*
X132060498Y-56205820D01*
X132024188Y-56325518D01*
X132011928Y-56450000D01*
X128338072Y-56450000D01*
X128325812Y-56325518D01*
X128289502Y-56205820D01*
X128230537Y-56095506D01*
X128151185Y-55998815D01*
X128054494Y-55919463D01*
X127944180Y-55860498D01*
X127824482Y-55824188D01*
X127700000Y-55811928D01*
X126300000Y-55811928D01*
X126175518Y-55824188D01*
X126055820Y-55860498D01*
X125945506Y-55919463D01*
X125848815Y-55998815D01*
X125769463Y-56095506D01*
X125710498Y-56205820D01*
X125674188Y-56325518D01*
X125661928Y-56450000D01*
X121988072Y-56450000D01*
X121975812Y-56325518D01*
X121939502Y-56205820D01*
X121880537Y-56095506D01*
X121801185Y-55998815D01*
X121704494Y-55919463D01*
X121594180Y-55860498D01*
X121474482Y-55824188D01*
X121350000Y-55811928D01*
X119950000Y-55811928D01*
X119825518Y-55824188D01*
X119705820Y-55860498D01*
X119595506Y-55919463D01*
X119498815Y-55998815D01*
X119419463Y-56095506D01*
X119360498Y-56205820D01*
X119324188Y-56325518D01*
X119311928Y-56450000D01*
X115638072Y-56450000D01*
X115625812Y-56325518D01*
X115589502Y-56205820D01*
X115530537Y-56095506D01*
X115451185Y-55998815D01*
X115354494Y-55919463D01*
X115244180Y-55860498D01*
X115124482Y-55824188D01*
X115000000Y-55811928D01*
X113600000Y-55811928D01*
X113475518Y-55824188D01*
X113355820Y-55860498D01*
X113245506Y-55919463D01*
X113148815Y-55998815D01*
X113069463Y-56095506D01*
X113010498Y-56205820D01*
X112974188Y-56325518D01*
X112961928Y-56450000D01*
X109288072Y-56450000D01*
X109275812Y-56325518D01*
X109239502Y-56205820D01*
X109180537Y-56095506D01*
X109101185Y-55998815D01*
X109004494Y-55919463D01*
X108894180Y-55860498D01*
X108774482Y-55824188D01*
X108650000Y-55811928D01*
X107250000Y-55811928D01*
X107125518Y-55824188D01*
X107005820Y-55860498D01*
X106895506Y-55919463D01*
X106798815Y-55998815D01*
X106719463Y-56095506D01*
X106660498Y-56205820D01*
X106624188Y-56325518D01*
X106611928Y-56450000D01*
X101755370Y-56450000D01*
X101806011Y-56327743D01*
X101865000Y-56031184D01*
X101865000Y-55728816D01*
X101806011Y-55432257D01*
X101690299Y-55152905D01*
X101522312Y-54901495D01*
X101308505Y-54687688D01*
X101057095Y-54519701D01*
X100777743Y-54403989D01*
X100481184Y-54345000D01*
X100178816Y-54345000D01*
X99882257Y-54403989D01*
X99602905Y-54519701D01*
X99351495Y-54687688D01*
X99137688Y-54901495D01*
X98969701Y-55152905D01*
X98853989Y-55432257D01*
X98795000Y-55728816D01*
X95515000Y-55728816D01*
X95456011Y-55432257D01*
X95340299Y-55152905D01*
X95172312Y-54901495D01*
X94958505Y-54687688D01*
X94707095Y-54519701D01*
X94427743Y-54403989D01*
X94131184Y-54345000D01*
X93828816Y-54345000D01*
X93532257Y-54403989D01*
X93252905Y-54519701D01*
X93001495Y-54687688D01*
X92787688Y-54901495D01*
X92619701Y-55152905D01*
X92503989Y-55432257D01*
X92445000Y-55728816D01*
X87364274Y-55728816D01*
X87358256Y-55724795D01*
X87169898Y-55646774D01*
X86969939Y-55607000D01*
X86766061Y-55607000D01*
X86566102Y-55646774D01*
X86377744Y-55724795D01*
X86208226Y-55838063D01*
X86064063Y-55982226D01*
X85950795Y-56151744D01*
X85872774Y-56340102D01*
X85833000Y-56540061D01*
X63985000Y-56540061D01*
X63985000Y-52991269D01*
X107208336Y-52991269D01*
X107267797Y-53225037D01*
X107506242Y-53335934D01*
X107761740Y-53398183D01*
X108024473Y-53409390D01*
X108284344Y-53369125D01*
X108531366Y-53278935D01*
X108632203Y-53225037D01*
X108691664Y-52991269D01*
X113558336Y-52991269D01*
X113617797Y-53225037D01*
X113856242Y-53335934D01*
X114111740Y-53398183D01*
X114374473Y-53409390D01*
X114634344Y-53369125D01*
X114881366Y-53278935D01*
X114982203Y-53225037D01*
X115041664Y-52991269D01*
X119908336Y-52991269D01*
X119967797Y-53225037D01*
X120206242Y-53335934D01*
X120461740Y-53398183D01*
X120724473Y-53409390D01*
X120984344Y-53369125D01*
X121231366Y-53278935D01*
X121332203Y-53225037D01*
X121391664Y-52991269D01*
X126258336Y-52991269D01*
X126317797Y-53225037D01*
X126556242Y-53335934D01*
X126811740Y-53398183D01*
X127074473Y-53409390D01*
X127334344Y-53369125D01*
X127581366Y-53278935D01*
X127682203Y-53225037D01*
X127741664Y-52991269D01*
X132608336Y-52991269D01*
X132667797Y-53225037D01*
X132906242Y-53335934D01*
X133161740Y-53398183D01*
X133424473Y-53409390D01*
X133684344Y-53369125D01*
X133931366Y-53278935D01*
X134032203Y-53225037D01*
X134091664Y-52991269D01*
X138958336Y-52991269D01*
X139017797Y-53225037D01*
X139256242Y-53335934D01*
X139511740Y-53398183D01*
X139774473Y-53409390D01*
X140034344Y-53369125D01*
X140281366Y-53278935D01*
X140382203Y-53225037D01*
X140441664Y-52991269D01*
X145308336Y-52991269D01*
X145367797Y-53225037D01*
X145606242Y-53335934D01*
X145861740Y-53398183D01*
X146124473Y-53409390D01*
X146384344Y-53369125D01*
X146631366Y-53278935D01*
X146732203Y-53225037D01*
X146791664Y-52991269D01*
X146050000Y-52249605D01*
X145308336Y-52991269D01*
X140441664Y-52991269D01*
X139700000Y-52249605D01*
X138958336Y-52991269D01*
X134091664Y-52991269D01*
X133350000Y-52249605D01*
X132608336Y-52991269D01*
X127741664Y-52991269D01*
X127000000Y-52249605D01*
X126258336Y-52991269D01*
X121391664Y-52991269D01*
X120650000Y-52249605D01*
X119908336Y-52991269D01*
X115041664Y-52991269D01*
X114300000Y-52249605D01*
X113558336Y-52991269D01*
X108691664Y-52991269D01*
X107950000Y-52249605D01*
X107208336Y-52991269D01*
X63985000Y-52991269D01*
X63985000Y-52144473D01*
X106610610Y-52144473D01*
X106650875Y-52404344D01*
X106741065Y-52651366D01*
X106794963Y-52752203D01*
X107028731Y-52811664D01*
X107770395Y-52070000D01*
X108129605Y-52070000D01*
X108871269Y-52811664D01*
X109105037Y-52752203D01*
X109215934Y-52513758D01*
X109278183Y-52258260D01*
X109283036Y-52144473D01*
X112960610Y-52144473D01*
X113000875Y-52404344D01*
X113091065Y-52651366D01*
X113144963Y-52752203D01*
X113378731Y-52811664D01*
X114120395Y-52070000D01*
X114479605Y-52070000D01*
X115221269Y-52811664D01*
X115455037Y-52752203D01*
X115565934Y-52513758D01*
X115628183Y-52258260D01*
X115633036Y-52144473D01*
X119310610Y-52144473D01*
X119350875Y-52404344D01*
X119441065Y-52651366D01*
X119494963Y-52752203D01*
X119728731Y-52811664D01*
X120470395Y-52070000D01*
X120829605Y-52070000D01*
X121571269Y-52811664D01*
X121805037Y-52752203D01*
X121915934Y-52513758D01*
X121978183Y-52258260D01*
X121983036Y-52144473D01*
X125660610Y-52144473D01*
X125700875Y-52404344D01*
X125791065Y-52651366D01*
X125844963Y-52752203D01*
X126078731Y-52811664D01*
X126820395Y-52070000D01*
X127179605Y-52070000D01*
X127921269Y-52811664D01*
X128155037Y-52752203D01*
X128265934Y-52513758D01*
X128328183Y-52258260D01*
X128333036Y-52144473D01*
X132010610Y-52144473D01*
X132050875Y-52404344D01*
X132141065Y-52651366D01*
X132194963Y-52752203D01*
X132428731Y-52811664D01*
X133170395Y-52070000D01*
X133529605Y-52070000D01*
X134271269Y-52811664D01*
X134505037Y-52752203D01*
X134615934Y-52513758D01*
X134678183Y-52258260D01*
X134683036Y-52144473D01*
X138360610Y-52144473D01*
X138400875Y-52404344D01*
X138491065Y-52651366D01*
X138544963Y-52752203D01*
X138778731Y-52811664D01*
X139520395Y-52070000D01*
X139879605Y-52070000D01*
X140621269Y-52811664D01*
X140855037Y-52752203D01*
X140965934Y-52513758D01*
X141028183Y-52258260D01*
X141033036Y-52144473D01*
X144710610Y-52144473D01*
X144750875Y-52404344D01*
X144841065Y-52651366D01*
X144894963Y-52752203D01*
X145128731Y-52811664D01*
X145870395Y-52070000D01*
X146229605Y-52070000D01*
X146971269Y-52811664D01*
X147205037Y-52752203D01*
X147315934Y-52513758D01*
X147378183Y-52258260D01*
X147389390Y-51995527D01*
X147349125Y-51735656D01*
X147258935Y-51488634D01*
X147205037Y-51387797D01*
X146971269Y-51328336D01*
X146229605Y-52070000D01*
X145870395Y-52070000D01*
X145128731Y-51328336D01*
X144894963Y-51387797D01*
X144784066Y-51626242D01*
X144721817Y-51881740D01*
X144710610Y-52144473D01*
X141033036Y-52144473D01*
X141039390Y-51995527D01*
X140999125Y-51735656D01*
X140908935Y-51488634D01*
X140855037Y-51387797D01*
X140621269Y-51328336D01*
X139879605Y-52070000D01*
X139520395Y-52070000D01*
X138778731Y-51328336D01*
X138544963Y-51387797D01*
X138434066Y-51626242D01*
X138371817Y-51881740D01*
X138360610Y-52144473D01*
X134683036Y-52144473D01*
X134689390Y-51995527D01*
X134649125Y-51735656D01*
X134558935Y-51488634D01*
X134505037Y-51387797D01*
X134271269Y-51328336D01*
X133529605Y-52070000D01*
X133170395Y-52070000D01*
X132428731Y-51328336D01*
X132194963Y-51387797D01*
X132084066Y-51626242D01*
X132021817Y-51881740D01*
X132010610Y-52144473D01*
X128333036Y-52144473D01*
X128339390Y-51995527D01*
X128299125Y-51735656D01*
X128208935Y-51488634D01*
X128155037Y-51387797D01*
X127921269Y-51328336D01*
X127179605Y-52070000D01*
X126820395Y-52070000D01*
X126078731Y-51328336D01*
X125844963Y-51387797D01*
X125734066Y-51626242D01*
X125671817Y-51881740D01*
X125660610Y-52144473D01*
X121983036Y-52144473D01*
X121989390Y-51995527D01*
X121949125Y-51735656D01*
X121858935Y-51488634D01*
X121805037Y-51387797D01*
X121571269Y-51328336D01*
X120829605Y-52070000D01*
X120470395Y-52070000D01*
X119728731Y-51328336D01*
X119494963Y-51387797D01*
X119384066Y-51626242D01*
X119321817Y-51881740D01*
X119310610Y-52144473D01*
X115633036Y-52144473D01*
X115639390Y-51995527D01*
X115599125Y-51735656D01*
X115508935Y-51488634D01*
X115455037Y-51387797D01*
X115221269Y-51328336D01*
X114479605Y-52070000D01*
X114120395Y-52070000D01*
X113378731Y-51328336D01*
X113144963Y-51387797D01*
X113034066Y-51626242D01*
X112971817Y-51881740D01*
X112960610Y-52144473D01*
X109283036Y-52144473D01*
X109289390Y-51995527D01*
X109249125Y-51735656D01*
X109158935Y-51488634D01*
X109105037Y-51387797D01*
X108871269Y-51328336D01*
X108129605Y-52070000D01*
X107770395Y-52070000D01*
X107028731Y-51328336D01*
X106794963Y-51387797D01*
X106684066Y-51626242D01*
X106621817Y-51881740D01*
X106610610Y-52144473D01*
X63985000Y-52144473D01*
X63985000Y-51148731D01*
X107208336Y-51148731D01*
X107950000Y-51890395D01*
X108691664Y-51148731D01*
X113558336Y-51148731D01*
X114300000Y-51890395D01*
X115041664Y-51148731D01*
X119908336Y-51148731D01*
X120650000Y-51890395D01*
X121391664Y-51148731D01*
X126258336Y-51148731D01*
X127000000Y-51890395D01*
X127741664Y-51148731D01*
X132608336Y-51148731D01*
X133350000Y-51890395D01*
X134091664Y-51148731D01*
X138958336Y-51148731D01*
X139700000Y-51890395D01*
X140441664Y-51148731D01*
X145308336Y-51148731D01*
X146050000Y-51890395D01*
X146791664Y-51148731D01*
X146732203Y-50914963D01*
X146493758Y-50804066D01*
X146238260Y-50741817D01*
X145975527Y-50730610D01*
X145715656Y-50770875D01*
X145468634Y-50861065D01*
X145367797Y-50914963D01*
X145308336Y-51148731D01*
X140441664Y-51148731D01*
X140382203Y-50914963D01*
X140143758Y-50804066D01*
X139888260Y-50741817D01*
X139625527Y-50730610D01*
X139365656Y-50770875D01*
X139118634Y-50861065D01*
X139017797Y-50914963D01*
X138958336Y-51148731D01*
X134091664Y-51148731D01*
X134032203Y-50914963D01*
X133793758Y-50804066D01*
X133538260Y-50741817D01*
X133275527Y-50730610D01*
X133015656Y-50770875D01*
X132768634Y-50861065D01*
X132667797Y-50914963D01*
X132608336Y-51148731D01*
X127741664Y-51148731D01*
X127682203Y-50914963D01*
X127443758Y-50804066D01*
X127188260Y-50741817D01*
X126925527Y-50730610D01*
X126665656Y-50770875D01*
X126418634Y-50861065D01*
X126317797Y-50914963D01*
X126258336Y-51148731D01*
X121391664Y-51148731D01*
X121332203Y-50914963D01*
X121093758Y-50804066D01*
X120838260Y-50741817D01*
X120575527Y-50730610D01*
X120315656Y-50770875D01*
X120068634Y-50861065D01*
X119967797Y-50914963D01*
X119908336Y-51148731D01*
X115041664Y-51148731D01*
X114982203Y-50914963D01*
X114743758Y-50804066D01*
X114488260Y-50741817D01*
X114225527Y-50730610D01*
X113965656Y-50770875D01*
X113718634Y-50861065D01*
X113617797Y-50914963D01*
X113558336Y-51148731D01*
X108691664Y-51148731D01*
X108632203Y-50914963D01*
X108393758Y-50804066D01*
X108138260Y-50741817D01*
X107875527Y-50730610D01*
X107615656Y-50770875D01*
X107368634Y-50861065D01*
X107267797Y-50914963D01*
X107208336Y-51148731D01*
X63985000Y-51148731D01*
X63985000Y-48108816D01*
X94985000Y-48108816D01*
X94985000Y-48411184D01*
X95043989Y-48707743D01*
X95159701Y-48987095D01*
X95327688Y-49238505D01*
X95541495Y-49452312D01*
X95792905Y-49620299D01*
X96072257Y-49736011D01*
X96368816Y-49795000D01*
X96671184Y-49795000D01*
X96967743Y-49736011D01*
X97247095Y-49620299D01*
X97498505Y-49452312D01*
X97712312Y-49238505D01*
X97880299Y-48987095D01*
X97996011Y-48707743D01*
X98055000Y-48411184D01*
X98055000Y-48108816D01*
X101335000Y-48108816D01*
X101335000Y-48411184D01*
X101393989Y-48707743D01*
X101509701Y-48987095D01*
X101677688Y-49238505D01*
X101891495Y-49452312D01*
X102142905Y-49620299D01*
X102422257Y-49736011D01*
X102718816Y-49795000D01*
X103021184Y-49795000D01*
X103317743Y-49736011D01*
X103597095Y-49620299D01*
X103848505Y-49452312D01*
X104062312Y-49238505D01*
X104230299Y-48987095D01*
X104346011Y-48707743D01*
X104405000Y-48411184D01*
X104405000Y-48108816D01*
X104346011Y-47812257D01*
X104230299Y-47532905D01*
X104062312Y-47281495D01*
X103848505Y-47067688D01*
X103597095Y-46899701D01*
X103497662Y-46858514D01*
X106615000Y-46858514D01*
X106615000Y-47121486D01*
X106666304Y-47379405D01*
X106766939Y-47622359D01*
X106913038Y-47841013D01*
X107098987Y-48026962D01*
X107317641Y-48173061D01*
X107560595Y-48273696D01*
X107818514Y-48325000D01*
X108081486Y-48325000D01*
X108339405Y-48273696D01*
X108582359Y-48173061D01*
X108801013Y-48026962D01*
X108986962Y-47841013D01*
X109133061Y-47622359D01*
X109233696Y-47379405D01*
X109285000Y-47121486D01*
X109285000Y-46858514D01*
X112965000Y-46858514D01*
X112965000Y-47121486D01*
X113016304Y-47379405D01*
X113116939Y-47622359D01*
X113263038Y-47841013D01*
X113448987Y-48026962D01*
X113667641Y-48173061D01*
X113910595Y-48273696D01*
X114168514Y-48325000D01*
X114431486Y-48325000D01*
X114689405Y-48273696D01*
X114932359Y-48173061D01*
X115151013Y-48026962D01*
X115336962Y-47841013D01*
X115483061Y-47622359D01*
X115583696Y-47379405D01*
X115635000Y-47121486D01*
X115635000Y-46858514D01*
X119315000Y-46858514D01*
X119315000Y-47121486D01*
X119366304Y-47379405D01*
X119466939Y-47622359D01*
X119613038Y-47841013D01*
X119798987Y-48026962D01*
X120017641Y-48173061D01*
X120260595Y-48273696D01*
X120518514Y-48325000D01*
X120781486Y-48325000D01*
X121039405Y-48273696D01*
X121282359Y-48173061D01*
X121501013Y-48026962D01*
X121686962Y-47841013D01*
X121833061Y-47622359D01*
X121933696Y-47379405D01*
X121985000Y-47121486D01*
X121985000Y-46858514D01*
X125665000Y-46858514D01*
X125665000Y-47121486D01*
X125716304Y-47379405D01*
X125816939Y-47622359D01*
X125963038Y-47841013D01*
X126148987Y-48026962D01*
X126367641Y-48173061D01*
X126610595Y-48273696D01*
X126868514Y-48325000D01*
X127131486Y-48325000D01*
X127389405Y-48273696D01*
X127632359Y-48173061D01*
X127851013Y-48026962D01*
X128036962Y-47841013D01*
X128183061Y-47622359D01*
X128283696Y-47379405D01*
X128335000Y-47121486D01*
X128335000Y-46858514D01*
X132015000Y-46858514D01*
X132015000Y-47121486D01*
X132066304Y-47379405D01*
X132166939Y-47622359D01*
X132313038Y-47841013D01*
X132498987Y-48026962D01*
X132717641Y-48173061D01*
X132960595Y-48273696D01*
X133218514Y-48325000D01*
X133481486Y-48325000D01*
X133739405Y-48273696D01*
X133982359Y-48173061D01*
X134201013Y-48026962D01*
X134386962Y-47841013D01*
X134533061Y-47622359D01*
X134633696Y-47379405D01*
X134685000Y-47121486D01*
X134685000Y-46858514D01*
X138365000Y-46858514D01*
X138365000Y-47121486D01*
X138416304Y-47379405D01*
X138516939Y-47622359D01*
X138663038Y-47841013D01*
X138848987Y-48026962D01*
X139067641Y-48173061D01*
X139310595Y-48273696D01*
X139568514Y-48325000D01*
X139831486Y-48325000D01*
X140089405Y-48273696D01*
X140332359Y-48173061D01*
X140551013Y-48026962D01*
X140736962Y-47841013D01*
X140883061Y-47622359D01*
X140983696Y-47379405D01*
X141035000Y-47121486D01*
X141035000Y-46858514D01*
X144715000Y-46858514D01*
X144715000Y-47121486D01*
X144766304Y-47379405D01*
X144866939Y-47622359D01*
X145013038Y-47841013D01*
X145198987Y-48026962D01*
X145417641Y-48173061D01*
X145660595Y-48273696D01*
X145918514Y-48325000D01*
X146181486Y-48325000D01*
X146439405Y-48273696D01*
X146682359Y-48173061D01*
X146901013Y-48026962D01*
X147086962Y-47841013D01*
X147233061Y-47622359D01*
X147333696Y-47379405D01*
X147385000Y-47121486D01*
X147385000Y-46858514D01*
X147333696Y-46600595D01*
X147233061Y-46357641D01*
X147086962Y-46138987D01*
X146901013Y-45953038D01*
X146682359Y-45806939D01*
X146439405Y-45706304D01*
X146181486Y-45655000D01*
X145918514Y-45655000D01*
X145660595Y-45706304D01*
X145417641Y-45806939D01*
X145198987Y-45953038D01*
X145013038Y-46138987D01*
X144866939Y-46357641D01*
X144766304Y-46600595D01*
X144715000Y-46858514D01*
X141035000Y-46858514D01*
X140983696Y-46600595D01*
X140883061Y-46357641D01*
X140736962Y-46138987D01*
X140551013Y-45953038D01*
X140332359Y-45806939D01*
X140089405Y-45706304D01*
X139831486Y-45655000D01*
X139568514Y-45655000D01*
X139310595Y-45706304D01*
X139067641Y-45806939D01*
X138848987Y-45953038D01*
X138663038Y-46138987D01*
X138516939Y-46357641D01*
X138416304Y-46600595D01*
X138365000Y-46858514D01*
X134685000Y-46858514D01*
X134633696Y-46600595D01*
X134533061Y-46357641D01*
X134386962Y-46138987D01*
X134201013Y-45953038D01*
X133982359Y-45806939D01*
X133739405Y-45706304D01*
X133481486Y-45655000D01*
X133218514Y-45655000D01*
X132960595Y-45706304D01*
X132717641Y-45806939D01*
X132498987Y-45953038D01*
X132313038Y-46138987D01*
X132166939Y-46357641D01*
X132066304Y-46600595D01*
X132015000Y-46858514D01*
X128335000Y-46858514D01*
X128283696Y-46600595D01*
X128183061Y-46357641D01*
X128036962Y-46138987D01*
X127851013Y-45953038D01*
X127632359Y-45806939D01*
X127389405Y-45706304D01*
X127131486Y-45655000D01*
X126868514Y-45655000D01*
X126610595Y-45706304D01*
X126367641Y-45806939D01*
X126148987Y-45953038D01*
X125963038Y-46138987D01*
X125816939Y-46357641D01*
X125716304Y-46600595D01*
X125665000Y-46858514D01*
X121985000Y-46858514D01*
X121933696Y-46600595D01*
X121833061Y-46357641D01*
X121686962Y-46138987D01*
X121501013Y-45953038D01*
X121282359Y-45806939D01*
X121039405Y-45706304D01*
X120781486Y-45655000D01*
X120518514Y-45655000D01*
X120260595Y-45706304D01*
X120017641Y-45806939D01*
X119798987Y-45953038D01*
X119613038Y-46138987D01*
X119466939Y-46357641D01*
X119366304Y-46600595D01*
X119315000Y-46858514D01*
X115635000Y-46858514D01*
X115583696Y-46600595D01*
X115483061Y-46357641D01*
X115336962Y-46138987D01*
X115151013Y-45953038D01*
X114932359Y-45806939D01*
X114689405Y-45706304D01*
X114431486Y-45655000D01*
X114168514Y-45655000D01*
X113910595Y-45706304D01*
X113667641Y-45806939D01*
X113448987Y-45953038D01*
X113263038Y-46138987D01*
X113116939Y-46357641D01*
X113016304Y-46600595D01*
X112965000Y-46858514D01*
X109285000Y-46858514D01*
X109233696Y-46600595D01*
X109133061Y-46357641D01*
X108986962Y-46138987D01*
X108801013Y-45953038D01*
X108582359Y-45806939D01*
X108339405Y-45706304D01*
X108081486Y-45655000D01*
X107818514Y-45655000D01*
X107560595Y-45706304D01*
X107317641Y-45806939D01*
X107098987Y-45953038D01*
X106913038Y-46138987D01*
X106766939Y-46357641D01*
X106666304Y-46600595D01*
X106615000Y-46858514D01*
X103497662Y-46858514D01*
X103317743Y-46783989D01*
X103021184Y-46725000D01*
X102718816Y-46725000D01*
X102422257Y-46783989D01*
X102142905Y-46899701D01*
X101891495Y-47067688D01*
X101677688Y-47281495D01*
X101509701Y-47532905D01*
X101393989Y-47812257D01*
X101335000Y-48108816D01*
X98055000Y-48108816D01*
X97996011Y-47812257D01*
X97880299Y-47532905D01*
X97712312Y-47281495D01*
X97498505Y-47067688D01*
X97247095Y-46899701D01*
X96967743Y-46783989D01*
X96671184Y-46725000D01*
X96368816Y-46725000D01*
X96072257Y-46783989D01*
X95792905Y-46899701D01*
X95541495Y-47067688D01*
X95327688Y-47281495D01*
X95159701Y-47532905D01*
X95043989Y-47812257D01*
X94985000Y-48108816D01*
X63985000Y-48108816D01*
X63985000Y-41675098D01*
X77625000Y-41675098D01*
X77625000Y-42144902D01*
X77716654Y-42605679D01*
X77896440Y-43039721D01*
X78157450Y-43430349D01*
X78489651Y-43762550D01*
X78880279Y-44023560D01*
X79314321Y-44203346D01*
X79775098Y-44295000D01*
X80244902Y-44295000D01*
X80705679Y-44203346D01*
X81139721Y-44023560D01*
X81530349Y-43762550D01*
X81862550Y-43430349D01*
X82123560Y-43039721D01*
X82128076Y-43028816D01*
X92445000Y-43028816D01*
X92445000Y-43331184D01*
X92503989Y-43627743D01*
X92619701Y-43907095D01*
X92787688Y-44158505D01*
X93001495Y-44372312D01*
X93252905Y-44540299D01*
X93532257Y-44656011D01*
X93828816Y-44715000D01*
X94131184Y-44715000D01*
X94427743Y-44656011D01*
X94707095Y-44540299D01*
X94958505Y-44372312D01*
X95172312Y-44158505D01*
X95340299Y-43907095D01*
X95456011Y-43627743D01*
X95515000Y-43331184D01*
X95515000Y-43028816D01*
X98795000Y-43028816D01*
X98795000Y-43331184D01*
X98853989Y-43627743D01*
X98969701Y-43907095D01*
X99137688Y-44158505D01*
X99351495Y-44372312D01*
X99602905Y-44540299D01*
X99882257Y-44656011D01*
X100178816Y-44715000D01*
X100481184Y-44715000D01*
X100777743Y-44656011D01*
X101057095Y-44540299D01*
X101308505Y-44372312D01*
X101522312Y-44158505D01*
X101690299Y-43907095D01*
X101806011Y-43627743D01*
X101865000Y-43331184D01*
X101865000Y-43028816D01*
X101806011Y-42732257D01*
X101690299Y-42452905D01*
X101522312Y-42201495D01*
X101308505Y-41987688D01*
X101057095Y-41819701D01*
X100957662Y-41778514D01*
X106615000Y-41778514D01*
X106615000Y-42041486D01*
X106666304Y-42299405D01*
X106766939Y-42542359D01*
X106913038Y-42761013D01*
X107098987Y-42946962D01*
X107317641Y-43093061D01*
X107560595Y-43193696D01*
X107818514Y-43245000D01*
X108081486Y-43245000D01*
X108339405Y-43193696D01*
X108582359Y-43093061D01*
X108801013Y-42946962D01*
X108986962Y-42761013D01*
X109133061Y-42542359D01*
X109233696Y-42299405D01*
X109285000Y-42041486D01*
X109285000Y-41778514D01*
X112965000Y-41778514D01*
X112965000Y-42041486D01*
X113016304Y-42299405D01*
X113116939Y-42542359D01*
X113263038Y-42761013D01*
X113448987Y-42946962D01*
X113667641Y-43093061D01*
X113910595Y-43193696D01*
X114168514Y-43245000D01*
X114431486Y-43245000D01*
X114689405Y-43193696D01*
X114932359Y-43093061D01*
X115151013Y-42946962D01*
X115336962Y-42761013D01*
X115483061Y-42542359D01*
X115583696Y-42299405D01*
X115635000Y-42041486D01*
X115635000Y-41778514D01*
X119315000Y-41778514D01*
X119315000Y-42041486D01*
X119366304Y-42299405D01*
X119466939Y-42542359D01*
X119613038Y-42761013D01*
X119798987Y-42946962D01*
X120017641Y-43093061D01*
X120260595Y-43193696D01*
X120518514Y-43245000D01*
X120781486Y-43245000D01*
X121039405Y-43193696D01*
X121282359Y-43093061D01*
X121501013Y-42946962D01*
X121686962Y-42761013D01*
X121833061Y-42542359D01*
X121933696Y-42299405D01*
X121985000Y-42041486D01*
X121985000Y-41778514D01*
X125665000Y-41778514D01*
X125665000Y-42041486D01*
X125716304Y-42299405D01*
X125816939Y-42542359D01*
X125963038Y-42761013D01*
X126148987Y-42946962D01*
X126367641Y-43093061D01*
X126610595Y-43193696D01*
X126868514Y-43245000D01*
X127131486Y-43245000D01*
X127389405Y-43193696D01*
X127632359Y-43093061D01*
X127851013Y-42946962D01*
X128036962Y-42761013D01*
X128183061Y-42542359D01*
X128283696Y-42299405D01*
X128335000Y-42041486D01*
X128335000Y-41778514D01*
X132015000Y-41778514D01*
X132015000Y-42041486D01*
X132066304Y-42299405D01*
X132166939Y-42542359D01*
X132313038Y-42761013D01*
X132498987Y-42946962D01*
X132717641Y-43093061D01*
X132960595Y-43193696D01*
X133218514Y-43245000D01*
X133481486Y-43245000D01*
X133739405Y-43193696D01*
X133982359Y-43093061D01*
X134201013Y-42946962D01*
X134386962Y-42761013D01*
X134533061Y-42542359D01*
X134633696Y-42299405D01*
X134685000Y-42041486D01*
X134685000Y-41778514D01*
X138365000Y-41778514D01*
X138365000Y-42041486D01*
X138416304Y-42299405D01*
X138516939Y-42542359D01*
X138663038Y-42761013D01*
X138848987Y-42946962D01*
X139067641Y-43093061D01*
X139310595Y-43193696D01*
X139568514Y-43245000D01*
X139831486Y-43245000D01*
X140089405Y-43193696D01*
X140332359Y-43093061D01*
X140551013Y-42946962D01*
X140736962Y-42761013D01*
X140883061Y-42542359D01*
X140983696Y-42299405D01*
X141035000Y-42041486D01*
X141035000Y-41778514D01*
X144715000Y-41778514D01*
X144715000Y-42041486D01*
X144766304Y-42299405D01*
X144866939Y-42542359D01*
X145013038Y-42761013D01*
X145198987Y-42946962D01*
X145417641Y-43093061D01*
X145660595Y-43193696D01*
X145918514Y-43245000D01*
X146181486Y-43245000D01*
X146439405Y-43193696D01*
X146682359Y-43093061D01*
X146901013Y-42946962D01*
X147086962Y-42761013D01*
X147233061Y-42542359D01*
X147333696Y-42299405D01*
X147385000Y-42041486D01*
X147385000Y-41778514D01*
X147333696Y-41520595D01*
X147233061Y-41277641D01*
X147086962Y-41058987D01*
X146901013Y-40873038D01*
X146682359Y-40726939D01*
X146439405Y-40626304D01*
X146181486Y-40575000D01*
X145918514Y-40575000D01*
X145660595Y-40626304D01*
X145417641Y-40726939D01*
X145198987Y-40873038D01*
X145013038Y-41058987D01*
X144866939Y-41277641D01*
X144766304Y-41520595D01*
X144715000Y-41778514D01*
X141035000Y-41778514D01*
X140983696Y-41520595D01*
X140883061Y-41277641D01*
X140736962Y-41058987D01*
X140551013Y-40873038D01*
X140332359Y-40726939D01*
X140089405Y-40626304D01*
X139831486Y-40575000D01*
X139568514Y-40575000D01*
X139310595Y-40626304D01*
X139067641Y-40726939D01*
X138848987Y-40873038D01*
X138663038Y-41058987D01*
X138516939Y-41277641D01*
X138416304Y-41520595D01*
X138365000Y-41778514D01*
X134685000Y-41778514D01*
X134633696Y-41520595D01*
X134533061Y-41277641D01*
X134386962Y-41058987D01*
X134201013Y-40873038D01*
X133982359Y-40726939D01*
X133739405Y-40626304D01*
X133481486Y-40575000D01*
X133218514Y-40575000D01*
X132960595Y-40626304D01*
X132717641Y-40726939D01*
X132498987Y-40873038D01*
X132313038Y-41058987D01*
X132166939Y-41277641D01*
X132066304Y-41520595D01*
X132015000Y-41778514D01*
X128335000Y-41778514D01*
X128283696Y-41520595D01*
X128183061Y-41277641D01*
X128036962Y-41058987D01*
X127851013Y-40873038D01*
X127632359Y-40726939D01*
X127389405Y-40626304D01*
X127131486Y-40575000D01*
X126868514Y-40575000D01*
X126610595Y-40626304D01*
X126367641Y-40726939D01*
X126148987Y-40873038D01*
X125963038Y-41058987D01*
X125816939Y-41277641D01*
X125716304Y-41520595D01*
X125665000Y-41778514D01*
X121985000Y-41778514D01*
X121933696Y-41520595D01*
X121833061Y-41277641D01*
X121686962Y-41058987D01*
X121501013Y-40873038D01*
X121282359Y-40726939D01*
X121039405Y-40626304D01*
X120781486Y-40575000D01*
X120518514Y-40575000D01*
X120260595Y-40626304D01*
X120017641Y-40726939D01*
X119798987Y-40873038D01*
X119613038Y-41058987D01*
X119466939Y-41277641D01*
X119366304Y-41520595D01*
X119315000Y-41778514D01*
X115635000Y-41778514D01*
X115583696Y-41520595D01*
X115483061Y-41277641D01*
X115336962Y-41058987D01*
X115151013Y-40873038D01*
X114932359Y-40726939D01*
X114689405Y-40626304D01*
X114431486Y-40575000D01*
X114168514Y-40575000D01*
X113910595Y-40626304D01*
X113667641Y-40726939D01*
X113448987Y-40873038D01*
X113263038Y-41058987D01*
X113116939Y-41277641D01*
X113016304Y-41520595D01*
X112965000Y-41778514D01*
X109285000Y-41778514D01*
X109233696Y-41520595D01*
X109133061Y-41277641D01*
X108986962Y-41058987D01*
X108801013Y-40873038D01*
X108582359Y-40726939D01*
X108339405Y-40626304D01*
X108081486Y-40575000D01*
X107818514Y-40575000D01*
X107560595Y-40626304D01*
X107317641Y-40726939D01*
X107098987Y-40873038D01*
X106913038Y-41058987D01*
X106766939Y-41277641D01*
X106666304Y-41520595D01*
X106615000Y-41778514D01*
X100957662Y-41778514D01*
X100777743Y-41703989D01*
X100481184Y-41645000D01*
X100178816Y-41645000D01*
X99882257Y-41703989D01*
X99602905Y-41819701D01*
X99351495Y-41987688D01*
X99137688Y-42201495D01*
X98969701Y-42452905D01*
X98853989Y-42732257D01*
X98795000Y-43028816D01*
X95515000Y-43028816D01*
X95456011Y-42732257D01*
X95340299Y-42452905D01*
X95172312Y-42201495D01*
X94958505Y-41987688D01*
X94707095Y-41819701D01*
X94427743Y-41703989D01*
X94131184Y-41645000D01*
X93828816Y-41645000D01*
X93532257Y-41703989D01*
X93252905Y-41819701D01*
X93001495Y-41987688D01*
X92787688Y-42201495D01*
X92619701Y-42452905D01*
X92503989Y-42732257D01*
X92445000Y-43028816D01*
X82128076Y-43028816D01*
X82303346Y-42605679D01*
X82395000Y-42144902D01*
X82395000Y-41675098D01*
X82303346Y-41214321D01*
X82123560Y-40780279D01*
X81862550Y-40389651D01*
X81530349Y-40057450D01*
X81139721Y-39796440D01*
X80705679Y-39616654D01*
X80244902Y-39525000D01*
X79775098Y-39525000D01*
X79314321Y-39616654D01*
X78880279Y-39796440D01*
X78489651Y-40057450D01*
X78157450Y-40389651D01*
X77896440Y-40780279D01*
X77716654Y-41214321D01*
X77625000Y-41675098D01*
X63985000Y-41675098D01*
X63985000Y-37485000D01*
X149516450Y-37485000D01*
X149613547Y-83315000D01*
M02*
