G04 #@! TF.GenerationSoftware,KiCad,Pcbnew,(5.1.5)-3*
G04 #@! TF.CreationDate,2020-02-22T15:11:55-08:00*
G04 #@! TF.ProjectId,voltages,766f6c74-6167-4657-932e-6b696361645f,rev?*
G04 #@! TF.SameCoordinates,Original*
G04 #@! TF.FileFunction,Soldermask,Bot*
G04 #@! TF.FilePolarity,Negative*
%FSLAX46Y46*%
G04 Gerber Fmt 4.6, Leading zero omitted, Abs format (unit mm)*
G04 Created by KiCad (PCBNEW (5.1.5)-3) date 2020-02-22 15:11:55*
%MOMM*%
%LPD*%
G04 APERTURE LIST*
%ADD10C,0.100000*%
G04 APERTURE END LIST*
D10*
G36*
X118450840Y-92147480D02*
G01*
X111648840Y-92147480D01*
X111648840Y-87745480D01*
X118450840Y-87745480D01*
X118450840Y-92147480D01*
G37*
G36*
X109450840Y-92147480D02*
G01*
X99648840Y-92147480D01*
X99648840Y-91172479D01*
X99646438Y-91148093D01*
X99639325Y-91124644D01*
X99627774Y-91103033D01*
X99612229Y-91084091D01*
X99593287Y-91068546D01*
X99571676Y-91056995D01*
X99548227Y-91049882D01*
X99523841Y-91047480D01*
X98648840Y-91047480D01*
X98648840Y-87745480D01*
X109450840Y-87745480D01*
X109450840Y-92147480D01*
G37*
G36*
X88812822Y-74249313D02*
G01*
X88973241Y-74297976D01*
X89121077Y-74376995D01*
X89250659Y-74483341D01*
X89357004Y-74612922D01*
X89357005Y-74612924D01*
X89436024Y-74760758D01*
X89484687Y-74921177D01*
X89497000Y-75046196D01*
X89497000Y-75829803D01*
X89484687Y-75954822D01*
X89436024Y-76115242D01*
X89365114Y-76247906D01*
X89357004Y-76263078D01*
X89250659Y-76392659D01*
X89121078Y-76499004D01*
X89121076Y-76499005D01*
X88973242Y-76578024D01*
X88812823Y-76626687D01*
X88646000Y-76643117D01*
X88479178Y-76626687D01*
X88318759Y-76578024D01*
X88170925Y-76499005D01*
X88170923Y-76499004D01*
X88041342Y-76392659D01*
X87934997Y-76263078D01*
X87929894Y-76253532D01*
X87855975Y-76115239D01*
X87807313Y-75954826D01*
X87795000Y-75829804D01*
X87795000Y-75046197D01*
X87807313Y-74921178D01*
X87855976Y-74760759D01*
X87934995Y-74612923D01*
X88041341Y-74483341D01*
X88170922Y-74376996D01*
X88186094Y-74368886D01*
X88318758Y-74297976D01*
X88479177Y-74249313D01*
X88646000Y-74232883D01*
X88812822Y-74249313D01*
G37*
G36*
X91352822Y-74249313D02*
G01*
X91513241Y-74297976D01*
X91661077Y-74376995D01*
X91790659Y-74483341D01*
X91897004Y-74612922D01*
X91897005Y-74612924D01*
X91976024Y-74760758D01*
X92024687Y-74921177D01*
X92037000Y-75046196D01*
X92037000Y-75829803D01*
X92024687Y-75954822D01*
X91976024Y-76115242D01*
X91905114Y-76247906D01*
X91897004Y-76263078D01*
X91790659Y-76392659D01*
X91661078Y-76499004D01*
X91661076Y-76499005D01*
X91513242Y-76578024D01*
X91352823Y-76626687D01*
X91186000Y-76643117D01*
X91019178Y-76626687D01*
X90858759Y-76578024D01*
X90710925Y-76499005D01*
X90710923Y-76499004D01*
X90581342Y-76392659D01*
X90474997Y-76263078D01*
X90469894Y-76253532D01*
X90395975Y-76115239D01*
X90347313Y-75954826D01*
X90335000Y-75829804D01*
X90335000Y-75046197D01*
X90347313Y-74921178D01*
X90395976Y-74760759D01*
X90474995Y-74612923D01*
X90581341Y-74483341D01*
X90710922Y-74376996D01*
X90726094Y-74368886D01*
X90858758Y-74297976D01*
X91019177Y-74249313D01*
X91186000Y-74232883D01*
X91352822Y-74249313D01*
G37*
G36*
X78652822Y-74249313D02*
G01*
X78813241Y-74297976D01*
X78961077Y-74376995D01*
X79090659Y-74483341D01*
X79197004Y-74612922D01*
X79197005Y-74612924D01*
X79276024Y-74760758D01*
X79324687Y-74921177D01*
X79337000Y-75046196D01*
X79337000Y-75829803D01*
X79324687Y-75954822D01*
X79276024Y-76115242D01*
X79205114Y-76247906D01*
X79197004Y-76263078D01*
X79090659Y-76392659D01*
X78961078Y-76499004D01*
X78961076Y-76499005D01*
X78813242Y-76578024D01*
X78652823Y-76626687D01*
X78486000Y-76643117D01*
X78319178Y-76626687D01*
X78158759Y-76578024D01*
X78010925Y-76499005D01*
X78010923Y-76499004D01*
X77881342Y-76392659D01*
X77774997Y-76263078D01*
X77769894Y-76253532D01*
X77695975Y-76115239D01*
X77647313Y-75954826D01*
X77635000Y-75829804D01*
X77635000Y-75046197D01*
X77647313Y-74921178D01*
X77695976Y-74760759D01*
X77774995Y-74612923D01*
X77881341Y-74483341D01*
X78010922Y-74376996D01*
X78026094Y-74368886D01*
X78158758Y-74297976D01*
X78319177Y-74249313D01*
X78486000Y-74232883D01*
X78652822Y-74249313D01*
G37*
G36*
X78652822Y-66629313D02*
G01*
X78813241Y-66677976D01*
X78961077Y-66756995D01*
X79090659Y-66863341D01*
X79197004Y-66992922D01*
X79197005Y-66992924D01*
X79276024Y-67140758D01*
X79324687Y-67301177D01*
X79337000Y-67426196D01*
X79337000Y-68209803D01*
X79324687Y-68334822D01*
X79276024Y-68495242D01*
X79205114Y-68627906D01*
X79197004Y-68643078D01*
X79090659Y-68772659D01*
X78961078Y-68879004D01*
X78961076Y-68879005D01*
X78813242Y-68958024D01*
X78652823Y-69006687D01*
X78486000Y-69023117D01*
X78319178Y-69006687D01*
X78158759Y-68958024D01*
X78010925Y-68879005D01*
X78010923Y-68879004D01*
X77881342Y-68772659D01*
X77774997Y-68643078D01*
X77769894Y-68633532D01*
X77695975Y-68495239D01*
X77647313Y-68334826D01*
X77635000Y-68209804D01*
X77635000Y-67426197D01*
X77647313Y-67301178D01*
X77695976Y-67140759D01*
X77774995Y-66992923D01*
X77881341Y-66863341D01*
X78010922Y-66756996D01*
X78026094Y-66748886D01*
X78158758Y-66677976D01*
X78319177Y-66629313D01*
X78486000Y-66612883D01*
X78652822Y-66629313D01*
G37*
G36*
X88812822Y-66629313D02*
G01*
X88973241Y-66677976D01*
X89121077Y-66756995D01*
X89250659Y-66863341D01*
X89357004Y-66992922D01*
X89357005Y-66992924D01*
X89436024Y-67140758D01*
X89484687Y-67301177D01*
X89497000Y-67426196D01*
X89497000Y-68209803D01*
X89484687Y-68334822D01*
X89436024Y-68495242D01*
X89365114Y-68627906D01*
X89357004Y-68643078D01*
X89250659Y-68772659D01*
X89121078Y-68879004D01*
X89121076Y-68879005D01*
X88973242Y-68958024D01*
X88812823Y-69006687D01*
X88646000Y-69023117D01*
X88479178Y-69006687D01*
X88318759Y-68958024D01*
X88170925Y-68879005D01*
X88170923Y-68879004D01*
X88041342Y-68772659D01*
X87934997Y-68643078D01*
X87929894Y-68633532D01*
X87855975Y-68495239D01*
X87807313Y-68334826D01*
X87795000Y-68209804D01*
X87795000Y-67426197D01*
X87807313Y-67301178D01*
X87855976Y-67140759D01*
X87934995Y-66992923D01*
X88041341Y-66863341D01*
X88170922Y-66756996D01*
X88186094Y-66748886D01*
X88318758Y-66677976D01*
X88479177Y-66629313D01*
X88646000Y-66612883D01*
X88812822Y-66629313D01*
G37*
G36*
X91352822Y-66629313D02*
G01*
X91513241Y-66677976D01*
X91661077Y-66756995D01*
X91790659Y-66863341D01*
X91897004Y-66992922D01*
X91897005Y-66992924D01*
X91976024Y-67140758D01*
X92024687Y-67301177D01*
X92037000Y-67426196D01*
X92037000Y-68209803D01*
X92024687Y-68334822D01*
X91976024Y-68495242D01*
X91905114Y-68627906D01*
X91897004Y-68643078D01*
X91790659Y-68772659D01*
X91661078Y-68879004D01*
X91661076Y-68879005D01*
X91513242Y-68958024D01*
X91352823Y-69006687D01*
X91186000Y-69023117D01*
X91019178Y-69006687D01*
X90858759Y-68958024D01*
X90710925Y-68879005D01*
X90710923Y-68879004D01*
X90581342Y-68772659D01*
X90474997Y-68643078D01*
X90469894Y-68633532D01*
X90395975Y-68495239D01*
X90347313Y-68334826D01*
X90335000Y-68209804D01*
X90335000Y-67426197D01*
X90347313Y-67301178D01*
X90395976Y-67140759D01*
X90474995Y-66992923D01*
X90581341Y-66863341D01*
X90710922Y-66756996D01*
X90726094Y-66748886D01*
X90858758Y-66677976D01*
X91019177Y-66629313D01*
X91186000Y-66612883D01*
X91352822Y-66629313D01*
G37*
G36*
X80206719Y-57533520D02*
G01*
X80395880Y-57590901D01*
X80395883Y-57590902D01*
X80488333Y-57640318D01*
X80570212Y-57684083D01*
X80723015Y-57809485D01*
X80848417Y-57962288D01*
X80941599Y-58136619D01*
X80998980Y-58325780D01*
X81013500Y-58473206D01*
X81013500Y-58666793D01*
X80998980Y-58814219D01*
X80941599Y-59003380D01*
X80941598Y-59003383D01*
X80892182Y-59095833D01*
X80848417Y-59177712D01*
X80723015Y-59330515D01*
X80570212Y-59455917D01*
X80395881Y-59549099D01*
X80206720Y-59606480D01*
X80010000Y-59625855D01*
X79813281Y-59606480D01*
X79624120Y-59549099D01*
X79449788Y-59455917D01*
X79296985Y-59330515D01*
X79171583Y-59177712D01*
X79078401Y-59003381D01*
X79021020Y-58814220D01*
X79006500Y-58666794D01*
X79006500Y-58473207D01*
X79021020Y-58325781D01*
X79078401Y-58136620D01*
X79078402Y-58136617D01*
X79127818Y-58044167D01*
X79171583Y-57962288D01*
X79296985Y-57809485D01*
X79449788Y-57684083D01*
X79624119Y-57590901D01*
X79813280Y-57533520D01*
X80010000Y-57514145D01*
X80206719Y-57533520D01*
G37*
G36*
X82746719Y-57533520D02*
G01*
X82935880Y-57590901D01*
X82935883Y-57590902D01*
X83028333Y-57640318D01*
X83110212Y-57684083D01*
X83263015Y-57809485D01*
X83388417Y-57962288D01*
X83481599Y-58136619D01*
X83538980Y-58325780D01*
X83553500Y-58473206D01*
X83553500Y-58666793D01*
X83538980Y-58814219D01*
X83481599Y-59003380D01*
X83481598Y-59003383D01*
X83432182Y-59095833D01*
X83388417Y-59177712D01*
X83263015Y-59330515D01*
X83110212Y-59455917D01*
X82935881Y-59549099D01*
X82746720Y-59606480D01*
X82550000Y-59625855D01*
X82353281Y-59606480D01*
X82164120Y-59549099D01*
X81989788Y-59455917D01*
X81836985Y-59330515D01*
X81711583Y-59177712D01*
X81618401Y-59003381D01*
X81561020Y-58814220D01*
X81546500Y-58666794D01*
X81546500Y-58473207D01*
X81561020Y-58325781D01*
X81618401Y-58136620D01*
X81618402Y-58136617D01*
X81667818Y-58044167D01*
X81711583Y-57962288D01*
X81836985Y-57809485D01*
X81989788Y-57684083D01*
X82164119Y-57590901D01*
X82353280Y-57533520D01*
X82550000Y-57514145D01*
X82746719Y-57533520D01*
G37*
G36*
X78473500Y-59621000D02*
G01*
X76466500Y-59621000D01*
X76466500Y-57519000D01*
X78473500Y-57519000D01*
X78473500Y-59621000D01*
G37*
G36*
X127751000Y-57901000D02*
G01*
X126249000Y-57901000D01*
X126249000Y-56399000D01*
X127751000Y-56399000D01*
X127751000Y-57901000D01*
G37*
G36*
X108701000Y-57901000D02*
G01*
X107199000Y-57901000D01*
X107199000Y-56399000D01*
X108701000Y-56399000D01*
X108701000Y-57901000D01*
G37*
G36*
X115051000Y-57901000D02*
G01*
X113549000Y-57901000D01*
X113549000Y-56399000D01*
X115051000Y-56399000D01*
X115051000Y-57901000D01*
G37*
G36*
X140451000Y-57901000D02*
G01*
X138949000Y-57901000D01*
X138949000Y-56399000D01*
X140451000Y-56399000D01*
X140451000Y-57901000D01*
G37*
G36*
X134101000Y-57901000D02*
G01*
X132599000Y-57901000D01*
X132599000Y-56399000D01*
X134101000Y-56399000D01*
X134101000Y-57901000D01*
G37*
G36*
X121401000Y-57901000D02*
G01*
X119899000Y-57901000D01*
X119899000Y-56399000D01*
X121401000Y-56399000D01*
X121401000Y-57901000D01*
G37*
G36*
X146801000Y-57901000D02*
G01*
X145299000Y-57901000D01*
X145299000Y-56399000D01*
X146801000Y-56399000D01*
X146801000Y-57901000D01*
G37*
G36*
X100607395Y-54965546D02*
G01*
X100780466Y-55037234D01*
X100780467Y-55037235D01*
X100936227Y-55141310D01*
X101068690Y-55273773D01*
X101068691Y-55273775D01*
X101172766Y-55429534D01*
X101244454Y-55602605D01*
X101281000Y-55786333D01*
X101281000Y-55973667D01*
X101244454Y-56157395D01*
X101172766Y-56330466D01*
X101172765Y-56330467D01*
X101068690Y-56486227D01*
X100936227Y-56618690D01*
X100857818Y-56671081D01*
X100780466Y-56722766D01*
X100607395Y-56794454D01*
X100423667Y-56831000D01*
X100236333Y-56831000D01*
X100052605Y-56794454D01*
X99879534Y-56722766D01*
X99802182Y-56671081D01*
X99723773Y-56618690D01*
X99591310Y-56486227D01*
X99487235Y-56330467D01*
X99487234Y-56330466D01*
X99415546Y-56157395D01*
X99379000Y-55973667D01*
X99379000Y-55786333D01*
X99415546Y-55602605D01*
X99487234Y-55429534D01*
X99591309Y-55273775D01*
X99591310Y-55273773D01*
X99723773Y-55141310D01*
X99879533Y-55037235D01*
X99879534Y-55037234D01*
X100052605Y-54965546D01*
X100236333Y-54929000D01*
X100423667Y-54929000D01*
X100607395Y-54965546D01*
G37*
G36*
X94257395Y-54965546D02*
G01*
X94430466Y-55037234D01*
X94430467Y-55037235D01*
X94586227Y-55141310D01*
X94718690Y-55273773D01*
X94718691Y-55273775D01*
X94822766Y-55429534D01*
X94894454Y-55602605D01*
X94931000Y-55786333D01*
X94931000Y-55973667D01*
X94894454Y-56157395D01*
X94822766Y-56330466D01*
X94822765Y-56330467D01*
X94718690Y-56486227D01*
X94586227Y-56618690D01*
X94507818Y-56671081D01*
X94430466Y-56722766D01*
X94257395Y-56794454D01*
X94073667Y-56831000D01*
X93886333Y-56831000D01*
X93702605Y-56794454D01*
X93529534Y-56722766D01*
X93452182Y-56671081D01*
X93373773Y-56618690D01*
X93241310Y-56486227D01*
X93137235Y-56330467D01*
X93137234Y-56330466D01*
X93065546Y-56157395D01*
X93029000Y-55973667D01*
X93029000Y-55786333D01*
X93065546Y-55602605D01*
X93137234Y-55429534D01*
X93241309Y-55273775D01*
X93241310Y-55273773D01*
X93373773Y-55141310D01*
X93529533Y-55037235D01*
X93529534Y-55037234D01*
X93702605Y-54965546D01*
X93886333Y-54929000D01*
X94073667Y-54929000D01*
X94257395Y-54965546D01*
G37*
G36*
X146269059Y-51347860D02*
G01*
X146405732Y-51404472D01*
X146528735Y-51486660D01*
X146633340Y-51591265D01*
X146715528Y-51714268D01*
X146772140Y-51850941D01*
X146801000Y-51996033D01*
X146801000Y-52143967D01*
X146772140Y-52289059D01*
X146715528Y-52425732D01*
X146633340Y-52548735D01*
X146528735Y-52653340D01*
X146405732Y-52735528D01*
X146405731Y-52735529D01*
X146405730Y-52735529D01*
X146269059Y-52792140D01*
X146123968Y-52821000D01*
X145976032Y-52821000D01*
X145830941Y-52792140D01*
X145694270Y-52735529D01*
X145694269Y-52735529D01*
X145694268Y-52735528D01*
X145571265Y-52653340D01*
X145466660Y-52548735D01*
X145384472Y-52425732D01*
X145327860Y-52289059D01*
X145299000Y-52143967D01*
X145299000Y-51996033D01*
X145327860Y-51850941D01*
X145384472Y-51714268D01*
X145466660Y-51591265D01*
X145571265Y-51486660D01*
X145694268Y-51404472D01*
X145830941Y-51347860D01*
X145976032Y-51319000D01*
X146123968Y-51319000D01*
X146269059Y-51347860D01*
G37*
G36*
X120869059Y-51347860D02*
G01*
X121005732Y-51404472D01*
X121128735Y-51486660D01*
X121233340Y-51591265D01*
X121315528Y-51714268D01*
X121372140Y-51850941D01*
X121401000Y-51996033D01*
X121401000Y-52143967D01*
X121372140Y-52289059D01*
X121315528Y-52425732D01*
X121233340Y-52548735D01*
X121128735Y-52653340D01*
X121005732Y-52735528D01*
X121005731Y-52735529D01*
X121005730Y-52735529D01*
X120869059Y-52792140D01*
X120723968Y-52821000D01*
X120576032Y-52821000D01*
X120430941Y-52792140D01*
X120294270Y-52735529D01*
X120294269Y-52735529D01*
X120294268Y-52735528D01*
X120171265Y-52653340D01*
X120066660Y-52548735D01*
X119984472Y-52425732D01*
X119927860Y-52289059D01*
X119899000Y-52143967D01*
X119899000Y-51996033D01*
X119927860Y-51850941D01*
X119984472Y-51714268D01*
X120066660Y-51591265D01*
X120171265Y-51486660D01*
X120294268Y-51404472D01*
X120430941Y-51347860D01*
X120576032Y-51319000D01*
X120723968Y-51319000D01*
X120869059Y-51347860D01*
G37*
G36*
X139919059Y-51347860D02*
G01*
X140055732Y-51404472D01*
X140178735Y-51486660D01*
X140283340Y-51591265D01*
X140365528Y-51714268D01*
X140422140Y-51850941D01*
X140451000Y-51996033D01*
X140451000Y-52143967D01*
X140422140Y-52289059D01*
X140365528Y-52425732D01*
X140283340Y-52548735D01*
X140178735Y-52653340D01*
X140055732Y-52735528D01*
X140055731Y-52735529D01*
X140055730Y-52735529D01*
X139919059Y-52792140D01*
X139773968Y-52821000D01*
X139626032Y-52821000D01*
X139480941Y-52792140D01*
X139344270Y-52735529D01*
X139344269Y-52735529D01*
X139344268Y-52735528D01*
X139221265Y-52653340D01*
X139116660Y-52548735D01*
X139034472Y-52425732D01*
X138977860Y-52289059D01*
X138949000Y-52143967D01*
X138949000Y-51996033D01*
X138977860Y-51850941D01*
X139034472Y-51714268D01*
X139116660Y-51591265D01*
X139221265Y-51486660D01*
X139344268Y-51404472D01*
X139480941Y-51347860D01*
X139626032Y-51319000D01*
X139773968Y-51319000D01*
X139919059Y-51347860D01*
G37*
G36*
X127219059Y-51347860D02*
G01*
X127355732Y-51404472D01*
X127478735Y-51486660D01*
X127583340Y-51591265D01*
X127665528Y-51714268D01*
X127722140Y-51850941D01*
X127751000Y-51996033D01*
X127751000Y-52143967D01*
X127722140Y-52289059D01*
X127665528Y-52425732D01*
X127583340Y-52548735D01*
X127478735Y-52653340D01*
X127355732Y-52735528D01*
X127355731Y-52735529D01*
X127355730Y-52735529D01*
X127219059Y-52792140D01*
X127073968Y-52821000D01*
X126926032Y-52821000D01*
X126780941Y-52792140D01*
X126644270Y-52735529D01*
X126644269Y-52735529D01*
X126644268Y-52735528D01*
X126521265Y-52653340D01*
X126416660Y-52548735D01*
X126334472Y-52425732D01*
X126277860Y-52289059D01*
X126249000Y-52143967D01*
X126249000Y-51996033D01*
X126277860Y-51850941D01*
X126334472Y-51714268D01*
X126416660Y-51591265D01*
X126521265Y-51486660D01*
X126644268Y-51404472D01*
X126780941Y-51347860D01*
X126926032Y-51319000D01*
X127073968Y-51319000D01*
X127219059Y-51347860D01*
G37*
G36*
X114519059Y-51347860D02*
G01*
X114655732Y-51404472D01*
X114778735Y-51486660D01*
X114883340Y-51591265D01*
X114965528Y-51714268D01*
X115022140Y-51850941D01*
X115051000Y-51996033D01*
X115051000Y-52143967D01*
X115022140Y-52289059D01*
X114965528Y-52425732D01*
X114883340Y-52548735D01*
X114778735Y-52653340D01*
X114655732Y-52735528D01*
X114655731Y-52735529D01*
X114655730Y-52735529D01*
X114519059Y-52792140D01*
X114373968Y-52821000D01*
X114226032Y-52821000D01*
X114080941Y-52792140D01*
X113944270Y-52735529D01*
X113944269Y-52735529D01*
X113944268Y-52735528D01*
X113821265Y-52653340D01*
X113716660Y-52548735D01*
X113634472Y-52425732D01*
X113577860Y-52289059D01*
X113549000Y-52143967D01*
X113549000Y-51996033D01*
X113577860Y-51850941D01*
X113634472Y-51714268D01*
X113716660Y-51591265D01*
X113821265Y-51486660D01*
X113944268Y-51404472D01*
X114080941Y-51347860D01*
X114226032Y-51319000D01*
X114373968Y-51319000D01*
X114519059Y-51347860D01*
G37*
G36*
X108169059Y-51347860D02*
G01*
X108305732Y-51404472D01*
X108428735Y-51486660D01*
X108533340Y-51591265D01*
X108615528Y-51714268D01*
X108672140Y-51850941D01*
X108701000Y-51996033D01*
X108701000Y-52143967D01*
X108672140Y-52289059D01*
X108615528Y-52425732D01*
X108533340Y-52548735D01*
X108428735Y-52653340D01*
X108305732Y-52735528D01*
X108305731Y-52735529D01*
X108305730Y-52735529D01*
X108169059Y-52792140D01*
X108023968Y-52821000D01*
X107876032Y-52821000D01*
X107730941Y-52792140D01*
X107594270Y-52735529D01*
X107594269Y-52735529D01*
X107594268Y-52735528D01*
X107471265Y-52653340D01*
X107366660Y-52548735D01*
X107284472Y-52425732D01*
X107227860Y-52289059D01*
X107199000Y-52143967D01*
X107199000Y-51996033D01*
X107227860Y-51850941D01*
X107284472Y-51714268D01*
X107366660Y-51591265D01*
X107471265Y-51486660D01*
X107594268Y-51404472D01*
X107730941Y-51347860D01*
X107876032Y-51319000D01*
X108023968Y-51319000D01*
X108169059Y-51347860D01*
G37*
G36*
X133569059Y-51347860D02*
G01*
X133705732Y-51404472D01*
X133828735Y-51486660D01*
X133933340Y-51591265D01*
X134015528Y-51714268D01*
X134072140Y-51850941D01*
X134101000Y-51996033D01*
X134101000Y-52143967D01*
X134072140Y-52289059D01*
X134015528Y-52425732D01*
X133933340Y-52548735D01*
X133828735Y-52653340D01*
X133705732Y-52735528D01*
X133705731Y-52735529D01*
X133705730Y-52735529D01*
X133569059Y-52792140D01*
X133423968Y-52821000D01*
X133276032Y-52821000D01*
X133130941Y-52792140D01*
X132994270Y-52735529D01*
X132994269Y-52735529D01*
X132994268Y-52735528D01*
X132871265Y-52653340D01*
X132766660Y-52548735D01*
X132684472Y-52425732D01*
X132627860Y-52289059D01*
X132599000Y-52143967D01*
X132599000Y-51996033D01*
X132627860Y-51850941D01*
X132684472Y-51714268D01*
X132766660Y-51591265D01*
X132871265Y-51486660D01*
X132994268Y-51404472D01*
X133130941Y-51347860D01*
X133276032Y-51319000D01*
X133423968Y-51319000D01*
X133569059Y-51347860D01*
G37*
G36*
X96797395Y-47345546D02*
G01*
X96970466Y-47417234D01*
X96970467Y-47417235D01*
X97126227Y-47521310D01*
X97258690Y-47653773D01*
X97259863Y-47655529D01*
X97362766Y-47809534D01*
X97434454Y-47982605D01*
X97471000Y-48166333D01*
X97471000Y-48353667D01*
X97434454Y-48537395D01*
X97362766Y-48710466D01*
X97362765Y-48710467D01*
X97258690Y-48866227D01*
X97126227Y-48998690D01*
X97047818Y-49051081D01*
X96970466Y-49102766D01*
X96797395Y-49174454D01*
X96613667Y-49211000D01*
X96426333Y-49211000D01*
X96242605Y-49174454D01*
X96069534Y-49102766D01*
X95992182Y-49051081D01*
X95913773Y-48998690D01*
X95781310Y-48866227D01*
X95677235Y-48710467D01*
X95677234Y-48710466D01*
X95605546Y-48537395D01*
X95569000Y-48353667D01*
X95569000Y-48166333D01*
X95605546Y-47982605D01*
X95677234Y-47809534D01*
X95780137Y-47655529D01*
X95781310Y-47653773D01*
X95913773Y-47521310D01*
X96069533Y-47417235D01*
X96069534Y-47417234D01*
X96242605Y-47345546D01*
X96426333Y-47309000D01*
X96613667Y-47309000D01*
X96797395Y-47345546D01*
G37*
G36*
X103147395Y-47345546D02*
G01*
X103320466Y-47417234D01*
X103320467Y-47417235D01*
X103476227Y-47521310D01*
X103608690Y-47653773D01*
X103609863Y-47655529D01*
X103712766Y-47809534D01*
X103784454Y-47982605D01*
X103821000Y-48166333D01*
X103821000Y-48353667D01*
X103784454Y-48537395D01*
X103712766Y-48710466D01*
X103712765Y-48710467D01*
X103608690Y-48866227D01*
X103476227Y-48998690D01*
X103397818Y-49051081D01*
X103320466Y-49102766D01*
X103147395Y-49174454D01*
X102963667Y-49211000D01*
X102776333Y-49211000D01*
X102592605Y-49174454D01*
X102419534Y-49102766D01*
X102342182Y-49051081D01*
X102263773Y-48998690D01*
X102131310Y-48866227D01*
X102027235Y-48710467D01*
X102027234Y-48710466D01*
X101955546Y-48537395D01*
X101919000Y-48353667D01*
X101919000Y-48166333D01*
X101955546Y-47982605D01*
X102027234Y-47809534D01*
X102130137Y-47655529D01*
X102131310Y-47653773D01*
X102263773Y-47521310D01*
X102419533Y-47417235D01*
X102419534Y-47417234D01*
X102592605Y-47345546D01*
X102776333Y-47309000D01*
X102963667Y-47309000D01*
X103147395Y-47345546D01*
G37*
G36*
X108169059Y-46267860D02*
G01*
X108305732Y-46324472D01*
X108428735Y-46406660D01*
X108533340Y-46511265D01*
X108615528Y-46634268D01*
X108672140Y-46770941D01*
X108701000Y-46916033D01*
X108701000Y-47063967D01*
X108672140Y-47209059D01*
X108615528Y-47345732D01*
X108533340Y-47468735D01*
X108428735Y-47573340D01*
X108305732Y-47655528D01*
X108305731Y-47655529D01*
X108305730Y-47655529D01*
X108169059Y-47712140D01*
X108023968Y-47741000D01*
X107876032Y-47741000D01*
X107730941Y-47712140D01*
X107594270Y-47655529D01*
X107594269Y-47655529D01*
X107594268Y-47655528D01*
X107471265Y-47573340D01*
X107366660Y-47468735D01*
X107284472Y-47345732D01*
X107227860Y-47209059D01*
X107199000Y-47063967D01*
X107199000Y-46916033D01*
X107227860Y-46770941D01*
X107284472Y-46634268D01*
X107366660Y-46511265D01*
X107471265Y-46406660D01*
X107594268Y-46324472D01*
X107730941Y-46267860D01*
X107876032Y-46239000D01*
X108023968Y-46239000D01*
X108169059Y-46267860D01*
G37*
G36*
X114519059Y-46267860D02*
G01*
X114655732Y-46324472D01*
X114778735Y-46406660D01*
X114883340Y-46511265D01*
X114965528Y-46634268D01*
X115022140Y-46770941D01*
X115051000Y-46916033D01*
X115051000Y-47063967D01*
X115022140Y-47209059D01*
X114965528Y-47345732D01*
X114883340Y-47468735D01*
X114778735Y-47573340D01*
X114655732Y-47655528D01*
X114655731Y-47655529D01*
X114655730Y-47655529D01*
X114519059Y-47712140D01*
X114373968Y-47741000D01*
X114226032Y-47741000D01*
X114080941Y-47712140D01*
X113944270Y-47655529D01*
X113944269Y-47655529D01*
X113944268Y-47655528D01*
X113821265Y-47573340D01*
X113716660Y-47468735D01*
X113634472Y-47345732D01*
X113577860Y-47209059D01*
X113549000Y-47063967D01*
X113549000Y-46916033D01*
X113577860Y-46770941D01*
X113634472Y-46634268D01*
X113716660Y-46511265D01*
X113821265Y-46406660D01*
X113944268Y-46324472D01*
X114080941Y-46267860D01*
X114226032Y-46239000D01*
X114373968Y-46239000D01*
X114519059Y-46267860D01*
G37*
G36*
X120869059Y-46267860D02*
G01*
X121005732Y-46324472D01*
X121128735Y-46406660D01*
X121233340Y-46511265D01*
X121315528Y-46634268D01*
X121372140Y-46770941D01*
X121401000Y-46916033D01*
X121401000Y-47063967D01*
X121372140Y-47209059D01*
X121315528Y-47345732D01*
X121233340Y-47468735D01*
X121128735Y-47573340D01*
X121005732Y-47655528D01*
X121005731Y-47655529D01*
X121005730Y-47655529D01*
X120869059Y-47712140D01*
X120723968Y-47741000D01*
X120576032Y-47741000D01*
X120430941Y-47712140D01*
X120294270Y-47655529D01*
X120294269Y-47655529D01*
X120294268Y-47655528D01*
X120171265Y-47573340D01*
X120066660Y-47468735D01*
X119984472Y-47345732D01*
X119927860Y-47209059D01*
X119899000Y-47063967D01*
X119899000Y-46916033D01*
X119927860Y-46770941D01*
X119984472Y-46634268D01*
X120066660Y-46511265D01*
X120171265Y-46406660D01*
X120294268Y-46324472D01*
X120430941Y-46267860D01*
X120576032Y-46239000D01*
X120723968Y-46239000D01*
X120869059Y-46267860D01*
G37*
G36*
X127219059Y-46267860D02*
G01*
X127355732Y-46324472D01*
X127478735Y-46406660D01*
X127583340Y-46511265D01*
X127665528Y-46634268D01*
X127722140Y-46770941D01*
X127751000Y-46916033D01*
X127751000Y-47063967D01*
X127722140Y-47209059D01*
X127665528Y-47345732D01*
X127583340Y-47468735D01*
X127478735Y-47573340D01*
X127355732Y-47655528D01*
X127355731Y-47655529D01*
X127355730Y-47655529D01*
X127219059Y-47712140D01*
X127073968Y-47741000D01*
X126926032Y-47741000D01*
X126780941Y-47712140D01*
X126644270Y-47655529D01*
X126644269Y-47655529D01*
X126644268Y-47655528D01*
X126521265Y-47573340D01*
X126416660Y-47468735D01*
X126334472Y-47345732D01*
X126277860Y-47209059D01*
X126249000Y-47063967D01*
X126249000Y-46916033D01*
X126277860Y-46770941D01*
X126334472Y-46634268D01*
X126416660Y-46511265D01*
X126521265Y-46406660D01*
X126644268Y-46324472D01*
X126780941Y-46267860D01*
X126926032Y-46239000D01*
X127073968Y-46239000D01*
X127219059Y-46267860D01*
G37*
G36*
X133569059Y-46267860D02*
G01*
X133705732Y-46324472D01*
X133828735Y-46406660D01*
X133933340Y-46511265D01*
X134015528Y-46634268D01*
X134072140Y-46770941D01*
X134101000Y-46916033D01*
X134101000Y-47063967D01*
X134072140Y-47209059D01*
X134015528Y-47345732D01*
X133933340Y-47468735D01*
X133828735Y-47573340D01*
X133705732Y-47655528D01*
X133705731Y-47655529D01*
X133705730Y-47655529D01*
X133569059Y-47712140D01*
X133423968Y-47741000D01*
X133276032Y-47741000D01*
X133130941Y-47712140D01*
X132994270Y-47655529D01*
X132994269Y-47655529D01*
X132994268Y-47655528D01*
X132871265Y-47573340D01*
X132766660Y-47468735D01*
X132684472Y-47345732D01*
X132627860Y-47209059D01*
X132599000Y-47063967D01*
X132599000Y-46916033D01*
X132627860Y-46770941D01*
X132684472Y-46634268D01*
X132766660Y-46511265D01*
X132871265Y-46406660D01*
X132994268Y-46324472D01*
X133130941Y-46267860D01*
X133276032Y-46239000D01*
X133423968Y-46239000D01*
X133569059Y-46267860D01*
G37*
G36*
X139919059Y-46267860D02*
G01*
X140055732Y-46324472D01*
X140178735Y-46406660D01*
X140283340Y-46511265D01*
X140365528Y-46634268D01*
X140422140Y-46770941D01*
X140451000Y-46916033D01*
X140451000Y-47063967D01*
X140422140Y-47209059D01*
X140365528Y-47345732D01*
X140283340Y-47468735D01*
X140178735Y-47573340D01*
X140055732Y-47655528D01*
X140055731Y-47655529D01*
X140055730Y-47655529D01*
X139919059Y-47712140D01*
X139773968Y-47741000D01*
X139626032Y-47741000D01*
X139480941Y-47712140D01*
X139344270Y-47655529D01*
X139344269Y-47655529D01*
X139344268Y-47655528D01*
X139221265Y-47573340D01*
X139116660Y-47468735D01*
X139034472Y-47345732D01*
X138977860Y-47209059D01*
X138949000Y-47063967D01*
X138949000Y-46916033D01*
X138977860Y-46770941D01*
X139034472Y-46634268D01*
X139116660Y-46511265D01*
X139221265Y-46406660D01*
X139344268Y-46324472D01*
X139480941Y-46267860D01*
X139626032Y-46239000D01*
X139773968Y-46239000D01*
X139919059Y-46267860D01*
G37*
G36*
X146269059Y-46267860D02*
G01*
X146405732Y-46324472D01*
X146528735Y-46406660D01*
X146633340Y-46511265D01*
X146715528Y-46634268D01*
X146772140Y-46770941D01*
X146801000Y-46916033D01*
X146801000Y-47063967D01*
X146772140Y-47209059D01*
X146715528Y-47345732D01*
X146633340Y-47468735D01*
X146528735Y-47573340D01*
X146405732Y-47655528D01*
X146405731Y-47655529D01*
X146405730Y-47655529D01*
X146269059Y-47712140D01*
X146123968Y-47741000D01*
X145976032Y-47741000D01*
X145830941Y-47712140D01*
X145694270Y-47655529D01*
X145694269Y-47655529D01*
X145694268Y-47655528D01*
X145571265Y-47573340D01*
X145466660Y-47468735D01*
X145384472Y-47345732D01*
X145327860Y-47209059D01*
X145299000Y-47063967D01*
X145299000Y-46916033D01*
X145327860Y-46770941D01*
X145384472Y-46634268D01*
X145466660Y-46511265D01*
X145571265Y-46406660D01*
X145694268Y-46324472D01*
X145830941Y-46267860D01*
X145976032Y-46239000D01*
X146123968Y-46239000D01*
X146269059Y-46267860D01*
G37*
G36*
X94257395Y-42265546D02*
G01*
X94430466Y-42337234D01*
X94430467Y-42337235D01*
X94586227Y-42441310D01*
X94718690Y-42573773D01*
X94719863Y-42575529D01*
X94822766Y-42729534D01*
X94894454Y-42902605D01*
X94931000Y-43086333D01*
X94931000Y-43273667D01*
X94894454Y-43457395D01*
X94822766Y-43630466D01*
X94822765Y-43630467D01*
X94718690Y-43786227D01*
X94586227Y-43918690D01*
X94507818Y-43971081D01*
X94430466Y-44022766D01*
X94257395Y-44094454D01*
X94073667Y-44131000D01*
X93886333Y-44131000D01*
X93702605Y-44094454D01*
X93529534Y-44022766D01*
X93452182Y-43971081D01*
X93373773Y-43918690D01*
X93241310Y-43786227D01*
X93137235Y-43630467D01*
X93137234Y-43630466D01*
X93065546Y-43457395D01*
X93029000Y-43273667D01*
X93029000Y-43086333D01*
X93065546Y-42902605D01*
X93137234Y-42729534D01*
X93240137Y-42575529D01*
X93241310Y-42573773D01*
X93373773Y-42441310D01*
X93529533Y-42337235D01*
X93529534Y-42337234D01*
X93702605Y-42265546D01*
X93886333Y-42229000D01*
X94073667Y-42229000D01*
X94257395Y-42265546D01*
G37*
G36*
X100607395Y-42265546D02*
G01*
X100780466Y-42337234D01*
X100780467Y-42337235D01*
X100936227Y-42441310D01*
X101068690Y-42573773D01*
X101069863Y-42575529D01*
X101172766Y-42729534D01*
X101244454Y-42902605D01*
X101281000Y-43086333D01*
X101281000Y-43273667D01*
X101244454Y-43457395D01*
X101172766Y-43630466D01*
X101172765Y-43630467D01*
X101068690Y-43786227D01*
X100936227Y-43918690D01*
X100857818Y-43971081D01*
X100780466Y-44022766D01*
X100607395Y-44094454D01*
X100423667Y-44131000D01*
X100236333Y-44131000D01*
X100052605Y-44094454D01*
X99879534Y-44022766D01*
X99802182Y-43971081D01*
X99723773Y-43918690D01*
X99591310Y-43786227D01*
X99487235Y-43630467D01*
X99487234Y-43630466D01*
X99415546Y-43457395D01*
X99379000Y-43273667D01*
X99379000Y-43086333D01*
X99415546Y-42902605D01*
X99487234Y-42729534D01*
X99590137Y-42575529D01*
X99591310Y-42573773D01*
X99723773Y-42441310D01*
X99879533Y-42337235D01*
X99879534Y-42337234D01*
X100052605Y-42265546D01*
X100236333Y-42229000D01*
X100423667Y-42229000D01*
X100607395Y-42265546D01*
G37*
G36*
X80535331Y-40178211D02*
G01*
X80863092Y-40313974D01*
X81158070Y-40511072D01*
X81408928Y-40761930D01*
X81606026Y-41056908D01*
X81741789Y-41384669D01*
X81811000Y-41732616D01*
X81811000Y-42087384D01*
X81741789Y-42435331D01*
X81606026Y-42763092D01*
X81408928Y-43058070D01*
X81158070Y-43308928D01*
X80863092Y-43506026D01*
X80535331Y-43641789D01*
X80187384Y-43711000D01*
X79832616Y-43711000D01*
X79484669Y-43641789D01*
X79156908Y-43506026D01*
X78861930Y-43308928D01*
X78611072Y-43058070D01*
X78413974Y-42763092D01*
X78278211Y-42435331D01*
X78209000Y-42087384D01*
X78209000Y-41732616D01*
X78278211Y-41384669D01*
X78413974Y-41056908D01*
X78611072Y-40761930D01*
X78861930Y-40511072D01*
X79156908Y-40313974D01*
X79484669Y-40178211D01*
X79832616Y-40109000D01*
X80187384Y-40109000D01*
X80535331Y-40178211D01*
G37*
G36*
X114519059Y-41187860D02*
G01*
X114655732Y-41244472D01*
X114778735Y-41326660D01*
X114883340Y-41431265D01*
X114965528Y-41554268D01*
X115022140Y-41690941D01*
X115051000Y-41836033D01*
X115051000Y-41983967D01*
X115022140Y-42129059D01*
X114965528Y-42265732D01*
X114883340Y-42388735D01*
X114778735Y-42493340D01*
X114655732Y-42575528D01*
X114655731Y-42575529D01*
X114655730Y-42575529D01*
X114519059Y-42632140D01*
X114373968Y-42661000D01*
X114226032Y-42661000D01*
X114080941Y-42632140D01*
X113944270Y-42575529D01*
X113944269Y-42575529D01*
X113944268Y-42575528D01*
X113821265Y-42493340D01*
X113716660Y-42388735D01*
X113634472Y-42265732D01*
X113577860Y-42129059D01*
X113549000Y-41983967D01*
X113549000Y-41836033D01*
X113577860Y-41690941D01*
X113634472Y-41554268D01*
X113716660Y-41431265D01*
X113821265Y-41326660D01*
X113944268Y-41244472D01*
X114080941Y-41187860D01*
X114226032Y-41159000D01*
X114373968Y-41159000D01*
X114519059Y-41187860D01*
G37*
G36*
X146269059Y-41187860D02*
G01*
X146405732Y-41244472D01*
X146528735Y-41326660D01*
X146633340Y-41431265D01*
X146715528Y-41554268D01*
X146772140Y-41690941D01*
X146801000Y-41836033D01*
X146801000Y-41983967D01*
X146772140Y-42129059D01*
X146715528Y-42265732D01*
X146633340Y-42388735D01*
X146528735Y-42493340D01*
X146405732Y-42575528D01*
X146405731Y-42575529D01*
X146405730Y-42575529D01*
X146269059Y-42632140D01*
X146123968Y-42661000D01*
X145976032Y-42661000D01*
X145830941Y-42632140D01*
X145694270Y-42575529D01*
X145694269Y-42575529D01*
X145694268Y-42575528D01*
X145571265Y-42493340D01*
X145466660Y-42388735D01*
X145384472Y-42265732D01*
X145327860Y-42129059D01*
X145299000Y-41983967D01*
X145299000Y-41836033D01*
X145327860Y-41690941D01*
X145384472Y-41554268D01*
X145466660Y-41431265D01*
X145571265Y-41326660D01*
X145694268Y-41244472D01*
X145830941Y-41187860D01*
X145976032Y-41159000D01*
X146123968Y-41159000D01*
X146269059Y-41187860D01*
G37*
G36*
X139919059Y-41187860D02*
G01*
X140055732Y-41244472D01*
X140178735Y-41326660D01*
X140283340Y-41431265D01*
X140365528Y-41554268D01*
X140422140Y-41690941D01*
X140451000Y-41836033D01*
X140451000Y-41983967D01*
X140422140Y-42129059D01*
X140365528Y-42265732D01*
X140283340Y-42388735D01*
X140178735Y-42493340D01*
X140055732Y-42575528D01*
X140055731Y-42575529D01*
X140055730Y-42575529D01*
X139919059Y-42632140D01*
X139773968Y-42661000D01*
X139626032Y-42661000D01*
X139480941Y-42632140D01*
X139344270Y-42575529D01*
X139344269Y-42575529D01*
X139344268Y-42575528D01*
X139221265Y-42493340D01*
X139116660Y-42388735D01*
X139034472Y-42265732D01*
X138977860Y-42129059D01*
X138949000Y-41983967D01*
X138949000Y-41836033D01*
X138977860Y-41690941D01*
X139034472Y-41554268D01*
X139116660Y-41431265D01*
X139221265Y-41326660D01*
X139344268Y-41244472D01*
X139480941Y-41187860D01*
X139626032Y-41159000D01*
X139773968Y-41159000D01*
X139919059Y-41187860D01*
G37*
G36*
X133569059Y-41187860D02*
G01*
X133705732Y-41244472D01*
X133828735Y-41326660D01*
X133933340Y-41431265D01*
X134015528Y-41554268D01*
X134072140Y-41690941D01*
X134101000Y-41836033D01*
X134101000Y-41983967D01*
X134072140Y-42129059D01*
X134015528Y-42265732D01*
X133933340Y-42388735D01*
X133828735Y-42493340D01*
X133705732Y-42575528D01*
X133705731Y-42575529D01*
X133705730Y-42575529D01*
X133569059Y-42632140D01*
X133423968Y-42661000D01*
X133276032Y-42661000D01*
X133130941Y-42632140D01*
X132994270Y-42575529D01*
X132994269Y-42575529D01*
X132994268Y-42575528D01*
X132871265Y-42493340D01*
X132766660Y-42388735D01*
X132684472Y-42265732D01*
X132627860Y-42129059D01*
X132599000Y-41983967D01*
X132599000Y-41836033D01*
X132627860Y-41690941D01*
X132684472Y-41554268D01*
X132766660Y-41431265D01*
X132871265Y-41326660D01*
X132994268Y-41244472D01*
X133130941Y-41187860D01*
X133276032Y-41159000D01*
X133423968Y-41159000D01*
X133569059Y-41187860D01*
G37*
G36*
X108169059Y-41187860D02*
G01*
X108305732Y-41244472D01*
X108428735Y-41326660D01*
X108533340Y-41431265D01*
X108615528Y-41554268D01*
X108672140Y-41690941D01*
X108701000Y-41836033D01*
X108701000Y-41983967D01*
X108672140Y-42129059D01*
X108615528Y-42265732D01*
X108533340Y-42388735D01*
X108428735Y-42493340D01*
X108305732Y-42575528D01*
X108305731Y-42575529D01*
X108305730Y-42575529D01*
X108169059Y-42632140D01*
X108023968Y-42661000D01*
X107876032Y-42661000D01*
X107730941Y-42632140D01*
X107594270Y-42575529D01*
X107594269Y-42575529D01*
X107594268Y-42575528D01*
X107471265Y-42493340D01*
X107366660Y-42388735D01*
X107284472Y-42265732D01*
X107227860Y-42129059D01*
X107199000Y-41983967D01*
X107199000Y-41836033D01*
X107227860Y-41690941D01*
X107284472Y-41554268D01*
X107366660Y-41431265D01*
X107471265Y-41326660D01*
X107594268Y-41244472D01*
X107730941Y-41187860D01*
X107876032Y-41159000D01*
X108023968Y-41159000D01*
X108169059Y-41187860D01*
G37*
G36*
X127219059Y-41187860D02*
G01*
X127355732Y-41244472D01*
X127478735Y-41326660D01*
X127583340Y-41431265D01*
X127665528Y-41554268D01*
X127722140Y-41690941D01*
X127751000Y-41836033D01*
X127751000Y-41983967D01*
X127722140Y-42129059D01*
X127665528Y-42265732D01*
X127583340Y-42388735D01*
X127478735Y-42493340D01*
X127355732Y-42575528D01*
X127355731Y-42575529D01*
X127355730Y-42575529D01*
X127219059Y-42632140D01*
X127073968Y-42661000D01*
X126926032Y-42661000D01*
X126780941Y-42632140D01*
X126644270Y-42575529D01*
X126644269Y-42575529D01*
X126644268Y-42575528D01*
X126521265Y-42493340D01*
X126416660Y-42388735D01*
X126334472Y-42265732D01*
X126277860Y-42129059D01*
X126249000Y-41983967D01*
X126249000Y-41836033D01*
X126277860Y-41690941D01*
X126334472Y-41554268D01*
X126416660Y-41431265D01*
X126521265Y-41326660D01*
X126644268Y-41244472D01*
X126780941Y-41187860D01*
X126926032Y-41159000D01*
X127073968Y-41159000D01*
X127219059Y-41187860D01*
G37*
G36*
X120869059Y-41187860D02*
G01*
X121005732Y-41244472D01*
X121128735Y-41326660D01*
X121233340Y-41431265D01*
X121315528Y-41554268D01*
X121372140Y-41690941D01*
X121401000Y-41836033D01*
X121401000Y-41983967D01*
X121372140Y-42129059D01*
X121315528Y-42265732D01*
X121233340Y-42388735D01*
X121128735Y-42493340D01*
X121005732Y-42575528D01*
X121005731Y-42575529D01*
X121005730Y-42575529D01*
X120869059Y-42632140D01*
X120723968Y-42661000D01*
X120576032Y-42661000D01*
X120430941Y-42632140D01*
X120294270Y-42575529D01*
X120294269Y-42575529D01*
X120294268Y-42575528D01*
X120171265Y-42493340D01*
X120066660Y-42388735D01*
X119984472Y-42265732D01*
X119927860Y-42129059D01*
X119899000Y-41983967D01*
X119899000Y-41836033D01*
X119927860Y-41690941D01*
X119984472Y-41554268D01*
X120066660Y-41431265D01*
X120171265Y-41326660D01*
X120294268Y-41244472D01*
X120430941Y-41187860D01*
X120576032Y-41159000D01*
X120723968Y-41159000D01*
X120869059Y-41187860D01*
G37*
M02*
