G04 #@! TF.GenerationSoftware,KiCad,Pcbnew,(5.1.5)-3*
G04 #@! TF.CreationDate,2020-02-22T15:11:54-08:00*
G04 #@! TF.ProjectId,voltages,766f6c74-6167-4657-932e-6b696361645f,rev?*
G04 #@! TF.SameCoordinates,Original*
G04 #@! TF.FileFunction,Copper,L2,Inr*
G04 #@! TF.FilePolarity,Positive*
%FSLAX46Y46*%
G04 Gerber Fmt 4.6, Leading zero omitted, Abs format (unit mm)*
G04 Created by KiCad (PCBNEW (5.1.5)-3) date 2020-02-22 15:11:54*
%MOMM*%
%LPD*%
G04 APERTURE LIST*
%ADD10O,1.600000X2.300000*%
%ADD11O,1.905000X2.000000*%
%ADD12R,1.905000X2.000000*%
%ADD13C,3.200000*%
%ADD14C,1.800000*%
%ADD15R,1.400000X1.400000*%
%ADD16C,1.400000*%
%ADD17C,0.800000*%
%ADD18C,0.254000*%
G04 APERTURE END LIST*
D10*
X91186000Y-75438000D03*
X91186000Y-67818000D03*
X88646000Y-75438000D03*
X78486000Y-75438000D03*
X88646000Y-67818000D03*
X78486000Y-67818000D03*
D11*
X82550000Y-58570000D03*
X80010000Y-58570000D03*
D12*
X77470000Y-58570000D03*
D13*
X80010000Y-41910000D03*
D14*
X100330000Y-43180000D03*
X102870000Y-48260000D03*
X100330000Y-55880000D03*
X93980000Y-43180000D03*
X96520000Y-48260000D03*
X93980000Y-55880000D03*
D15*
X146050000Y-57150000D03*
D16*
X146050000Y-52070000D03*
X146050000Y-46990000D03*
X146050000Y-41910000D03*
D15*
X139700000Y-57150000D03*
D16*
X139700000Y-52070000D03*
X139700000Y-46990000D03*
X139700000Y-41910000D03*
D15*
X133350000Y-57150000D03*
D16*
X133350000Y-52070000D03*
X133350000Y-46990000D03*
X133350000Y-41910000D03*
D15*
X127000000Y-57150000D03*
D16*
X127000000Y-52070000D03*
X127000000Y-46990000D03*
X127000000Y-41910000D03*
D15*
X120650000Y-57150000D03*
D16*
X120650000Y-52070000D03*
X120650000Y-46990000D03*
X120650000Y-41910000D03*
D15*
X114300000Y-57150000D03*
D16*
X114300000Y-52070000D03*
X114300000Y-46990000D03*
X114300000Y-41910000D03*
D15*
X107950000Y-57150000D03*
D16*
X107950000Y-52070000D03*
X107950000Y-46990000D03*
X107950000Y-41910000D03*
D17*
X65786000Y-68580000D03*
X87122000Y-64008000D03*
X70866000Y-74676000D03*
X97536000Y-70866000D03*
X95758000Y-69342000D03*
X98552000Y-78740000D03*
X133350000Y-78232000D03*
X126238000Y-63754000D03*
X116124579Y-86360000D03*
X114543567Y-86550944D03*
X113030000Y-85852000D03*
X106426000Y-85090000D03*
X105410000Y-85598000D03*
X91948000Y-58674000D03*
X72390000Y-76708000D03*
X73406000Y-78994000D03*
X74676000Y-76708000D03*
X75692000Y-78994000D03*
X115062000Y-80010000D03*
X119888000Y-62738000D03*
X128270000Y-77978000D03*
X130810000Y-78232000D03*
X103813180Y-86178820D03*
X110236000Y-67310000D03*
X100330000Y-83820000D03*
X100584000Y-85090000D03*
X99822000Y-82804000D03*
X100584000Y-86106000D03*
X108204000Y-76200000D03*
X110490000Y-74930000D03*
X108458000Y-73660000D03*
X110236000Y-72390000D03*
X108204000Y-71120000D03*
X114808000Y-70358000D03*
X113538000Y-68580000D03*
X86868000Y-56642000D03*
D18*
G36*
X149613547Y-83315000D02*
G01*
X119666353Y-83315000D01*
X119639533Y-83317642D01*
X119636807Y-83317613D01*
X119627285Y-83318513D01*
X119433119Y-83338236D01*
X119372260Y-83350507D01*
X119311234Y-83361928D01*
X119302068Y-83364660D01*
X119115430Y-83421721D01*
X119058108Y-83445582D01*
X119000470Y-83468636D01*
X118992009Y-83473096D01*
X118820009Y-83565321D01*
X118768388Y-83599879D01*
X118716349Y-83633673D01*
X118708916Y-83639692D01*
X118558103Y-83763570D01*
X118514181Y-83807492D01*
X118469692Y-83850756D01*
X118463569Y-83858104D01*
X118339693Y-84008915D01*
X118305174Y-84060478D01*
X118269902Y-84111608D01*
X118265324Y-84120005D01*
X118173098Y-84292006D01*
X118149239Y-84349323D01*
X118124582Y-84406303D01*
X118121721Y-84415429D01*
X118064660Y-84602067D01*
X118052385Y-84662946D01*
X118039269Y-84723609D01*
X118038236Y-84733118D01*
X118025312Y-84860352D01*
X118024752Y-84862198D01*
X118014840Y-84962834D01*
X118014840Y-88682767D01*
X112184840Y-88666881D01*
X112184840Y-85912833D01*
X112181478Y-85878699D01*
X112181478Y-85866372D01*
X112180478Y-85856860D01*
X112159811Y-85672608D01*
X112146902Y-85611876D01*
X112134844Y-85550980D01*
X112132017Y-85541844D01*
X112075955Y-85365114D01*
X112051507Y-85308072D01*
X112027838Y-85250647D01*
X112023289Y-85242233D01*
X111933968Y-85079759D01*
X111898877Y-85028511D01*
X111864533Y-84976819D01*
X111858437Y-84969450D01*
X111739259Y-84827420D01*
X111694902Y-84783982D01*
X111651155Y-84739929D01*
X111643743Y-84733884D01*
X111499249Y-84617708D01*
X111447339Y-84583739D01*
X111395828Y-84548995D01*
X111387384Y-84544505D01*
X111223075Y-84458606D01*
X111165520Y-84435352D01*
X111108275Y-84411289D01*
X111099123Y-84408526D01*
X111099117Y-84408524D01*
X110921255Y-84356177D01*
X110860248Y-84344539D01*
X110799454Y-84332060D01*
X110789936Y-84331126D01*
X110605292Y-84314322D01*
X110543202Y-84314756D01*
X110481123Y-84314323D01*
X110471604Y-84315256D01*
X110287212Y-84334637D01*
X110226409Y-84347118D01*
X110165414Y-84358753D01*
X110156258Y-84361518D01*
X110156253Y-84361519D01*
X110156248Y-84361521D01*
X109979142Y-84416344D01*
X109921897Y-84440407D01*
X109864342Y-84463661D01*
X109855903Y-84468148D01*
X109855899Y-84468150D01*
X109855898Y-84468151D01*
X109692805Y-84556335D01*
X109641348Y-84591043D01*
X109589382Y-84625049D01*
X109581970Y-84631094D01*
X109439111Y-84749278D01*
X109395366Y-84793330D01*
X109351008Y-84836768D01*
X109344912Y-84844137D01*
X109344909Y-84844140D01*
X109344907Y-84844144D01*
X109227729Y-84987817D01*
X109193375Y-85039524D01*
X109158296Y-85090755D01*
X109153747Y-85099168D01*
X109066703Y-85262874D01*
X109043053Y-85320252D01*
X109018585Y-85377342D01*
X109015757Y-85386478D01*
X108962169Y-85563972D01*
X108950114Y-85624853D01*
X108937202Y-85685599D01*
X108936202Y-85695111D01*
X108918109Y-85879634D01*
X108918109Y-85879639D01*
X108914840Y-85912834D01*
X108914840Y-88657971D01*
X99084840Y-88631187D01*
X99084840Y-85009364D01*
X99084948Y-85008386D01*
X99084999Y-84998822D01*
X99084993Y-84995332D01*
X99084840Y-84993799D01*
X99084840Y-84962833D01*
X99082376Y-84937820D01*
X99082387Y-84936807D01*
X99081487Y-84927285D01*
X99076605Y-84879221D01*
X99074928Y-84862197D01*
X99074849Y-84861937D01*
X99061764Y-84733119D01*
X99049493Y-84672260D01*
X99038072Y-84611234D01*
X99035340Y-84602068D01*
X98978279Y-84415430D01*
X98954418Y-84358108D01*
X98931364Y-84300470D01*
X98926904Y-84292009D01*
X98834679Y-84120009D01*
X98800121Y-84068388D01*
X98766327Y-84016349D01*
X98760308Y-84008916D01*
X98636430Y-83858103D01*
X98592508Y-83814181D01*
X98549244Y-83769692D01*
X98541896Y-83763569D01*
X98391085Y-83639693D01*
X98339522Y-83605174D01*
X98288392Y-83569902D01*
X98279995Y-83565324D01*
X98107994Y-83473098D01*
X98050677Y-83449239D01*
X97993697Y-83424582D01*
X97984571Y-83421721D01*
X97797933Y-83364660D01*
X97737054Y-83352385D01*
X97676391Y-83339269D01*
X97666882Y-83338236D01*
X97538783Y-83325224D01*
X97537774Y-83324918D01*
X97437138Y-83315006D01*
X63985000Y-83315006D01*
X63985000Y-82702061D01*
X98787000Y-82702061D01*
X98787000Y-82905939D01*
X98826774Y-83105898D01*
X98904795Y-83294256D01*
X99018063Y-83463774D01*
X99162226Y-83607937D01*
X99298759Y-83699165D01*
X99295000Y-83718061D01*
X99295000Y-83921939D01*
X99334774Y-84121898D01*
X99412795Y-84310256D01*
X99526063Y-84479774D01*
X99660714Y-84614425D01*
X99588774Y-84788102D01*
X99549000Y-84988061D01*
X99549000Y-85191939D01*
X99588774Y-85391898D01*
X99666795Y-85580256D01*
X99678651Y-85598000D01*
X99666795Y-85615744D01*
X99588774Y-85804102D01*
X99549000Y-86004061D01*
X99549000Y-86207939D01*
X99588774Y-86407898D01*
X99666795Y-86596256D01*
X99780063Y-86765774D01*
X99924226Y-86909937D01*
X100093744Y-87023205D01*
X100282102Y-87101226D01*
X100482061Y-87141000D01*
X100685939Y-87141000D01*
X100885898Y-87101226D01*
X101074256Y-87023205D01*
X101243774Y-86909937D01*
X101387937Y-86765774D01*
X101501205Y-86596256D01*
X101579226Y-86407898D01*
X101619000Y-86207939D01*
X101619000Y-86076881D01*
X102778180Y-86076881D01*
X102778180Y-86280759D01*
X102817954Y-86480718D01*
X102895975Y-86669076D01*
X103009243Y-86838594D01*
X103153406Y-86982757D01*
X103322924Y-87096025D01*
X103511282Y-87174046D01*
X103711241Y-87213820D01*
X103915119Y-87213820D01*
X104115078Y-87174046D01*
X104303436Y-87096025D01*
X104472954Y-86982757D01*
X104617117Y-86838594D01*
X104730385Y-86669076D01*
X104808406Y-86480718D01*
X104848180Y-86280759D01*
X104848180Y-86076881D01*
X104808406Y-85876922D01*
X104730385Y-85688564D01*
X104617117Y-85519046D01*
X104472954Y-85374883D01*
X104303436Y-85261615D01*
X104115078Y-85183594D01*
X103915119Y-85143820D01*
X103711241Y-85143820D01*
X103511282Y-85183594D01*
X103322924Y-85261615D01*
X103153406Y-85374883D01*
X103009243Y-85519046D01*
X102895975Y-85688564D01*
X102817954Y-85876922D01*
X102778180Y-86076881D01*
X101619000Y-86076881D01*
X101619000Y-86004061D01*
X101579226Y-85804102D01*
X101501205Y-85615744D01*
X101489349Y-85598000D01*
X101501205Y-85580256D01*
X101579226Y-85391898D01*
X101619000Y-85191939D01*
X101619000Y-84988061D01*
X101579226Y-84788102D01*
X101501205Y-84599744D01*
X101387937Y-84430226D01*
X101253286Y-84295575D01*
X101325226Y-84121898D01*
X101365000Y-83921939D01*
X101365000Y-83718061D01*
X101325226Y-83518102D01*
X101247205Y-83329744D01*
X101133937Y-83160226D01*
X100989774Y-83016063D01*
X100853241Y-82924835D01*
X100857000Y-82905939D01*
X100857000Y-82702061D01*
X100817226Y-82502102D01*
X100739205Y-82313744D01*
X100625937Y-82144226D01*
X100481774Y-82000063D01*
X100312256Y-81886795D01*
X100123898Y-81808774D01*
X99923939Y-81769000D01*
X99720061Y-81769000D01*
X99520102Y-81808774D01*
X99331744Y-81886795D01*
X99162226Y-82000063D01*
X99018063Y-82144226D01*
X98904795Y-82313744D01*
X98826774Y-82502102D01*
X98787000Y-82702061D01*
X63985000Y-82702061D01*
X63985000Y-78892061D01*
X72371000Y-78892061D01*
X72371000Y-79095939D01*
X72410774Y-79295898D01*
X72488795Y-79484256D01*
X72602063Y-79653774D01*
X72746226Y-79797937D01*
X72915744Y-79911205D01*
X73104102Y-79989226D01*
X73304061Y-80029000D01*
X73507939Y-80029000D01*
X73707898Y-79989226D01*
X73896256Y-79911205D01*
X74065774Y-79797937D01*
X74209937Y-79653774D01*
X74323205Y-79484256D01*
X74401226Y-79295898D01*
X74441000Y-79095939D01*
X74441000Y-78892061D01*
X74657000Y-78892061D01*
X74657000Y-79095939D01*
X74696774Y-79295898D01*
X74774795Y-79484256D01*
X74888063Y-79653774D01*
X75032226Y-79797937D01*
X75201744Y-79911205D01*
X75390102Y-79989226D01*
X75590061Y-80029000D01*
X75793939Y-80029000D01*
X75993898Y-79989226D01*
X76182256Y-79911205D01*
X76186961Y-79908061D01*
X114027000Y-79908061D01*
X114027000Y-80111939D01*
X114066774Y-80311898D01*
X114144795Y-80500256D01*
X114258063Y-80669774D01*
X114402226Y-80813937D01*
X114571744Y-80927205D01*
X114760102Y-81005226D01*
X114960061Y-81045000D01*
X115163939Y-81045000D01*
X115363898Y-81005226D01*
X115552256Y-80927205D01*
X115721774Y-80813937D01*
X115865937Y-80669774D01*
X115979205Y-80500256D01*
X116057226Y-80311898D01*
X116097000Y-80111939D01*
X116097000Y-79908061D01*
X116057226Y-79708102D01*
X115979205Y-79519744D01*
X115865937Y-79350226D01*
X115721774Y-79206063D01*
X115552256Y-79092795D01*
X115363898Y-79014774D01*
X115163939Y-78975000D01*
X114960061Y-78975000D01*
X114760102Y-79014774D01*
X114571744Y-79092795D01*
X114402226Y-79206063D01*
X114258063Y-79350226D01*
X114144795Y-79519744D01*
X114066774Y-79708102D01*
X114027000Y-79908061D01*
X76186961Y-79908061D01*
X76351774Y-79797937D01*
X76495937Y-79653774D01*
X76609205Y-79484256D01*
X76687226Y-79295898D01*
X76727000Y-79095939D01*
X76727000Y-78892061D01*
X76687226Y-78692102D01*
X76609205Y-78503744D01*
X76495937Y-78334226D01*
X76351774Y-78190063D01*
X76182256Y-78076795D01*
X75993898Y-77998774D01*
X75793939Y-77959000D01*
X75590061Y-77959000D01*
X75390102Y-77998774D01*
X75201744Y-78076795D01*
X75032226Y-78190063D01*
X74888063Y-78334226D01*
X74774795Y-78503744D01*
X74696774Y-78692102D01*
X74657000Y-78892061D01*
X74441000Y-78892061D01*
X74401226Y-78692102D01*
X74323205Y-78503744D01*
X74209937Y-78334226D01*
X74065774Y-78190063D01*
X73896256Y-78076795D01*
X73707898Y-77998774D01*
X73507939Y-77959000D01*
X73304061Y-77959000D01*
X73104102Y-77998774D01*
X72915744Y-78076795D01*
X72746226Y-78190063D01*
X72602063Y-78334226D01*
X72488795Y-78503744D01*
X72410774Y-78692102D01*
X72371000Y-78892061D01*
X63985000Y-78892061D01*
X63985000Y-77876061D01*
X127235000Y-77876061D01*
X127235000Y-78079939D01*
X127274774Y-78279898D01*
X127352795Y-78468256D01*
X127466063Y-78637774D01*
X127610226Y-78781937D01*
X127779744Y-78895205D01*
X127968102Y-78973226D01*
X128168061Y-79013000D01*
X128371939Y-79013000D01*
X128571898Y-78973226D01*
X128760256Y-78895205D01*
X128929774Y-78781937D01*
X129073937Y-78637774D01*
X129187205Y-78468256D01*
X129265226Y-78279898D01*
X129295030Y-78130061D01*
X129775000Y-78130061D01*
X129775000Y-78333939D01*
X129814774Y-78533898D01*
X129892795Y-78722256D01*
X130006063Y-78891774D01*
X130150226Y-79035937D01*
X130319744Y-79149205D01*
X130508102Y-79227226D01*
X130708061Y-79267000D01*
X130911939Y-79267000D01*
X131111898Y-79227226D01*
X131300256Y-79149205D01*
X131469774Y-79035937D01*
X131613937Y-78891774D01*
X131727205Y-78722256D01*
X131805226Y-78533898D01*
X131845000Y-78333939D01*
X131845000Y-78130061D01*
X131805226Y-77930102D01*
X131727205Y-77741744D01*
X131613937Y-77572226D01*
X131469774Y-77428063D01*
X131300256Y-77314795D01*
X131111898Y-77236774D01*
X130911939Y-77197000D01*
X130708061Y-77197000D01*
X130508102Y-77236774D01*
X130319744Y-77314795D01*
X130150226Y-77428063D01*
X130006063Y-77572226D01*
X129892795Y-77741744D01*
X129814774Y-77930102D01*
X129775000Y-78130061D01*
X129295030Y-78130061D01*
X129305000Y-78079939D01*
X129305000Y-77876061D01*
X129265226Y-77676102D01*
X129187205Y-77487744D01*
X129073937Y-77318226D01*
X128929774Y-77174063D01*
X128760256Y-77060795D01*
X128571898Y-76982774D01*
X128371939Y-76943000D01*
X128168061Y-76943000D01*
X127968102Y-76982774D01*
X127779744Y-77060795D01*
X127610226Y-77174063D01*
X127466063Y-77318226D01*
X127352795Y-77487744D01*
X127274774Y-77676102D01*
X127235000Y-77876061D01*
X63985000Y-77876061D01*
X63985000Y-76606061D01*
X71355000Y-76606061D01*
X71355000Y-76809939D01*
X71394774Y-77009898D01*
X71472795Y-77198256D01*
X71586063Y-77367774D01*
X71730226Y-77511937D01*
X71899744Y-77625205D01*
X72088102Y-77703226D01*
X72288061Y-77743000D01*
X72491939Y-77743000D01*
X72691898Y-77703226D01*
X72880256Y-77625205D01*
X73049774Y-77511937D01*
X73193937Y-77367774D01*
X73307205Y-77198256D01*
X73385226Y-77009898D01*
X73425000Y-76809939D01*
X73425000Y-76606061D01*
X73641000Y-76606061D01*
X73641000Y-76809939D01*
X73680774Y-77009898D01*
X73758795Y-77198256D01*
X73872063Y-77367774D01*
X74016226Y-77511937D01*
X74185744Y-77625205D01*
X74374102Y-77703226D01*
X74574061Y-77743000D01*
X74777939Y-77743000D01*
X74977898Y-77703226D01*
X75166256Y-77625205D01*
X75335774Y-77511937D01*
X75479937Y-77367774D01*
X75593205Y-77198256D01*
X75671226Y-77009898D01*
X75711000Y-76809939D01*
X75711000Y-76606061D01*
X75671226Y-76406102D01*
X75593205Y-76217744D01*
X75479937Y-76048226D01*
X75335774Y-75904063D01*
X75166256Y-75790795D01*
X74977898Y-75712774D01*
X74777939Y-75673000D01*
X74574061Y-75673000D01*
X74374102Y-75712774D01*
X74185744Y-75790795D01*
X74016226Y-75904063D01*
X73872063Y-76048226D01*
X73758795Y-76217744D01*
X73680774Y-76406102D01*
X73641000Y-76606061D01*
X73425000Y-76606061D01*
X73385226Y-76406102D01*
X73307205Y-76217744D01*
X73193937Y-76048226D01*
X73049774Y-75904063D01*
X72880256Y-75790795D01*
X72691898Y-75712774D01*
X72491939Y-75673000D01*
X72288061Y-75673000D01*
X72088102Y-75712774D01*
X71899744Y-75790795D01*
X71730226Y-75904063D01*
X71586063Y-76048226D01*
X71472795Y-76217744D01*
X71394774Y-76406102D01*
X71355000Y-76606061D01*
X63985000Y-76606061D01*
X63985000Y-75017509D01*
X77051000Y-75017509D01*
X77051000Y-75858492D01*
X77071764Y-76069309D01*
X77153818Y-76339808D01*
X77287068Y-76589101D01*
X77466393Y-76807608D01*
X77684900Y-76986932D01*
X77934193Y-77120182D01*
X78204692Y-77202236D01*
X78486000Y-77229943D01*
X78767309Y-77202236D01*
X79037808Y-77120182D01*
X79287101Y-76986932D01*
X79505608Y-76807608D01*
X79684932Y-76589101D01*
X79818182Y-76339808D01*
X79900236Y-76069308D01*
X79921000Y-75858491D01*
X79921000Y-75017509D01*
X87211000Y-75017509D01*
X87211000Y-75858492D01*
X87231764Y-76069309D01*
X87313818Y-76339808D01*
X87447068Y-76589101D01*
X87626393Y-76807608D01*
X87844900Y-76986932D01*
X88094193Y-77120182D01*
X88364692Y-77202236D01*
X88646000Y-77229943D01*
X88927309Y-77202236D01*
X89197808Y-77120182D01*
X89447101Y-76986932D01*
X89665608Y-76807608D01*
X89844932Y-76589101D01*
X89916000Y-76456142D01*
X89987068Y-76589101D01*
X90166393Y-76807608D01*
X90384900Y-76986932D01*
X90634193Y-77120182D01*
X90904692Y-77202236D01*
X91186000Y-77229943D01*
X91467309Y-77202236D01*
X91737808Y-77120182D01*
X91987101Y-76986932D01*
X92205608Y-76807608D01*
X92384932Y-76589101D01*
X92518182Y-76339808D01*
X92591514Y-76098061D01*
X107169000Y-76098061D01*
X107169000Y-76301939D01*
X107208774Y-76501898D01*
X107286795Y-76690256D01*
X107400063Y-76859774D01*
X107544226Y-77003937D01*
X107713744Y-77117205D01*
X107902102Y-77195226D01*
X108102061Y-77235000D01*
X108305939Y-77235000D01*
X108505898Y-77195226D01*
X108694256Y-77117205D01*
X108863774Y-77003937D01*
X109007937Y-76859774D01*
X109121205Y-76690256D01*
X109199226Y-76501898D01*
X109239000Y-76301939D01*
X109239000Y-76098061D01*
X109199226Y-75898102D01*
X109121205Y-75709744D01*
X109007937Y-75540226D01*
X108863774Y-75396063D01*
X108694256Y-75282795D01*
X108505898Y-75204774D01*
X108305939Y-75165000D01*
X108102061Y-75165000D01*
X107902102Y-75204774D01*
X107713744Y-75282795D01*
X107544226Y-75396063D01*
X107400063Y-75540226D01*
X107286795Y-75709744D01*
X107208774Y-75898102D01*
X107169000Y-76098061D01*
X92591514Y-76098061D01*
X92600236Y-76069308D01*
X92621000Y-75858491D01*
X92621000Y-75017508D01*
X92602341Y-74828061D01*
X109455000Y-74828061D01*
X109455000Y-75031939D01*
X109494774Y-75231898D01*
X109572795Y-75420256D01*
X109686063Y-75589774D01*
X109830226Y-75733937D01*
X109999744Y-75847205D01*
X110188102Y-75925226D01*
X110388061Y-75965000D01*
X110591939Y-75965000D01*
X110791898Y-75925226D01*
X110980256Y-75847205D01*
X111149774Y-75733937D01*
X111293937Y-75589774D01*
X111407205Y-75420256D01*
X111485226Y-75231898D01*
X111525000Y-75031939D01*
X111525000Y-74828061D01*
X111485226Y-74628102D01*
X111407205Y-74439744D01*
X111293937Y-74270226D01*
X111149774Y-74126063D01*
X110980256Y-74012795D01*
X110791898Y-73934774D01*
X110591939Y-73895000D01*
X110388061Y-73895000D01*
X110188102Y-73934774D01*
X109999744Y-74012795D01*
X109830226Y-74126063D01*
X109686063Y-74270226D01*
X109572795Y-74439744D01*
X109494774Y-74628102D01*
X109455000Y-74828061D01*
X92602341Y-74828061D01*
X92600236Y-74806691D01*
X92518182Y-74536192D01*
X92384932Y-74286899D01*
X92205607Y-74068392D01*
X91987100Y-73889068D01*
X91737807Y-73755818D01*
X91467308Y-73673764D01*
X91186000Y-73646057D01*
X90904691Y-73673764D01*
X90634192Y-73755818D01*
X90384899Y-73889068D01*
X90166392Y-74068393D01*
X89987068Y-74286900D01*
X89916000Y-74419858D01*
X89844932Y-74286899D01*
X89665607Y-74068392D01*
X89447100Y-73889068D01*
X89197807Y-73755818D01*
X88927308Y-73673764D01*
X88646000Y-73646057D01*
X88364691Y-73673764D01*
X88094192Y-73755818D01*
X87844899Y-73889068D01*
X87626392Y-74068393D01*
X87447068Y-74286900D01*
X87313818Y-74536193D01*
X87231764Y-74806692D01*
X87211000Y-75017509D01*
X79921000Y-75017509D01*
X79921000Y-75017508D01*
X79900236Y-74806691D01*
X79818182Y-74536192D01*
X79684932Y-74286899D01*
X79505607Y-74068392D01*
X79287100Y-73889068D01*
X79037807Y-73755818D01*
X78767308Y-73673764D01*
X78486000Y-73646057D01*
X78204691Y-73673764D01*
X77934192Y-73755818D01*
X77684899Y-73889068D01*
X77466392Y-74068393D01*
X77287068Y-74286900D01*
X77153818Y-74536193D01*
X77071764Y-74806692D01*
X77051000Y-75017509D01*
X63985000Y-75017509D01*
X63985000Y-73558061D01*
X107423000Y-73558061D01*
X107423000Y-73761939D01*
X107462774Y-73961898D01*
X107540795Y-74150256D01*
X107654063Y-74319774D01*
X107798226Y-74463937D01*
X107967744Y-74577205D01*
X108156102Y-74655226D01*
X108356061Y-74695000D01*
X108559939Y-74695000D01*
X108759898Y-74655226D01*
X108948256Y-74577205D01*
X109117774Y-74463937D01*
X109261937Y-74319774D01*
X109375205Y-74150256D01*
X109453226Y-73961898D01*
X109493000Y-73761939D01*
X109493000Y-73558061D01*
X109453226Y-73358102D01*
X109375205Y-73169744D01*
X109261937Y-73000226D01*
X109117774Y-72856063D01*
X108948256Y-72742795D01*
X108759898Y-72664774D01*
X108559939Y-72625000D01*
X108356061Y-72625000D01*
X108156102Y-72664774D01*
X107967744Y-72742795D01*
X107798226Y-72856063D01*
X107654063Y-73000226D01*
X107540795Y-73169744D01*
X107462774Y-73358102D01*
X107423000Y-73558061D01*
X63985000Y-73558061D01*
X63985000Y-72288061D01*
X109201000Y-72288061D01*
X109201000Y-72491939D01*
X109240774Y-72691898D01*
X109318795Y-72880256D01*
X109432063Y-73049774D01*
X109576226Y-73193937D01*
X109745744Y-73307205D01*
X109934102Y-73385226D01*
X110134061Y-73425000D01*
X110337939Y-73425000D01*
X110537898Y-73385226D01*
X110726256Y-73307205D01*
X110895774Y-73193937D01*
X111039937Y-73049774D01*
X111153205Y-72880256D01*
X111231226Y-72691898D01*
X111271000Y-72491939D01*
X111271000Y-72288061D01*
X111231226Y-72088102D01*
X111153205Y-71899744D01*
X111039937Y-71730226D01*
X110895774Y-71586063D01*
X110726256Y-71472795D01*
X110537898Y-71394774D01*
X110337939Y-71355000D01*
X110134061Y-71355000D01*
X109934102Y-71394774D01*
X109745744Y-71472795D01*
X109576226Y-71586063D01*
X109432063Y-71730226D01*
X109318795Y-71899744D01*
X109240774Y-72088102D01*
X109201000Y-72288061D01*
X63985000Y-72288061D01*
X63985000Y-71018061D01*
X107169000Y-71018061D01*
X107169000Y-71221939D01*
X107208774Y-71421898D01*
X107286795Y-71610256D01*
X107400063Y-71779774D01*
X107544226Y-71923937D01*
X107713744Y-72037205D01*
X107902102Y-72115226D01*
X108102061Y-72155000D01*
X108305939Y-72155000D01*
X108505898Y-72115226D01*
X108694256Y-72037205D01*
X108863774Y-71923937D01*
X109007937Y-71779774D01*
X109121205Y-71610256D01*
X109199226Y-71421898D01*
X109239000Y-71221939D01*
X109239000Y-71018061D01*
X109199226Y-70818102D01*
X109121205Y-70629744D01*
X109007937Y-70460226D01*
X108863774Y-70316063D01*
X108773975Y-70256061D01*
X113773000Y-70256061D01*
X113773000Y-70459939D01*
X113812774Y-70659898D01*
X113890795Y-70848256D01*
X114004063Y-71017774D01*
X114148226Y-71161937D01*
X114317744Y-71275205D01*
X114506102Y-71353226D01*
X114706061Y-71393000D01*
X114909939Y-71393000D01*
X115109898Y-71353226D01*
X115298256Y-71275205D01*
X115467774Y-71161937D01*
X115611937Y-71017774D01*
X115725205Y-70848256D01*
X115803226Y-70659898D01*
X115843000Y-70459939D01*
X115843000Y-70256061D01*
X115803226Y-70056102D01*
X115725205Y-69867744D01*
X115611937Y-69698226D01*
X115467774Y-69554063D01*
X115298256Y-69440795D01*
X115109898Y-69362774D01*
X114909939Y-69323000D01*
X114706061Y-69323000D01*
X114506102Y-69362774D01*
X114317744Y-69440795D01*
X114148226Y-69554063D01*
X114004063Y-69698226D01*
X113890795Y-69867744D01*
X113812774Y-70056102D01*
X113773000Y-70256061D01*
X108773975Y-70256061D01*
X108694256Y-70202795D01*
X108505898Y-70124774D01*
X108305939Y-70085000D01*
X108102061Y-70085000D01*
X107902102Y-70124774D01*
X107713744Y-70202795D01*
X107544226Y-70316063D01*
X107400063Y-70460226D01*
X107286795Y-70629744D01*
X107208774Y-70818102D01*
X107169000Y-71018061D01*
X63985000Y-71018061D01*
X63985000Y-67397509D01*
X77051000Y-67397509D01*
X77051000Y-68238492D01*
X77071764Y-68449309D01*
X77153818Y-68719808D01*
X77287068Y-68969101D01*
X77466393Y-69187608D01*
X77684900Y-69366932D01*
X77934193Y-69500182D01*
X78204692Y-69582236D01*
X78486000Y-69609943D01*
X78767309Y-69582236D01*
X79037808Y-69500182D01*
X79287101Y-69366932D01*
X79505608Y-69187608D01*
X79684932Y-68969101D01*
X79818182Y-68719808D01*
X79900236Y-68449308D01*
X79921000Y-68238491D01*
X79921000Y-67397509D01*
X87211000Y-67397509D01*
X87211000Y-68238492D01*
X87231764Y-68449309D01*
X87313818Y-68719808D01*
X87447068Y-68969101D01*
X87626393Y-69187608D01*
X87844900Y-69366932D01*
X88094193Y-69500182D01*
X88364692Y-69582236D01*
X88646000Y-69609943D01*
X88927309Y-69582236D01*
X89197808Y-69500182D01*
X89447101Y-69366932D01*
X89665608Y-69187608D01*
X89844932Y-68969101D01*
X89913265Y-68841259D01*
X90063399Y-69070839D01*
X90261105Y-69272500D01*
X90494354Y-69431715D01*
X90754182Y-69542367D01*
X90836961Y-69559904D01*
X91059000Y-69437915D01*
X91059000Y-67945000D01*
X91313000Y-67945000D01*
X91313000Y-69437915D01*
X91535039Y-69559904D01*
X91617818Y-69542367D01*
X91877646Y-69431715D01*
X92110895Y-69272500D01*
X92308601Y-69070839D01*
X92463166Y-68834483D01*
X92568650Y-68572514D01*
X92586467Y-68478061D01*
X112503000Y-68478061D01*
X112503000Y-68681939D01*
X112542774Y-68881898D01*
X112620795Y-69070256D01*
X112734063Y-69239774D01*
X112878226Y-69383937D01*
X113047744Y-69497205D01*
X113236102Y-69575226D01*
X113436061Y-69615000D01*
X113639939Y-69615000D01*
X113839898Y-69575226D01*
X114028256Y-69497205D01*
X114197774Y-69383937D01*
X114341937Y-69239774D01*
X114455205Y-69070256D01*
X114533226Y-68881898D01*
X114573000Y-68681939D01*
X114573000Y-68478061D01*
X114533226Y-68278102D01*
X114455205Y-68089744D01*
X114341937Y-67920226D01*
X114197774Y-67776063D01*
X114028256Y-67662795D01*
X113839898Y-67584774D01*
X113639939Y-67545000D01*
X113436061Y-67545000D01*
X113236102Y-67584774D01*
X113047744Y-67662795D01*
X112878226Y-67776063D01*
X112734063Y-67920226D01*
X112620795Y-68089744D01*
X112542774Y-68278102D01*
X112503000Y-68478061D01*
X92586467Y-68478061D01*
X92621000Y-68295000D01*
X92621000Y-67945000D01*
X91313000Y-67945000D01*
X91059000Y-67945000D01*
X91039000Y-67945000D01*
X91039000Y-67691000D01*
X91059000Y-67691000D01*
X91059000Y-66198085D01*
X91313000Y-66198085D01*
X91313000Y-67691000D01*
X92621000Y-67691000D01*
X92621000Y-67341000D01*
X92595923Y-67208061D01*
X109201000Y-67208061D01*
X109201000Y-67411939D01*
X109240774Y-67611898D01*
X109318795Y-67800256D01*
X109432063Y-67969774D01*
X109576226Y-68113937D01*
X109745744Y-68227205D01*
X109934102Y-68305226D01*
X110134061Y-68345000D01*
X110337939Y-68345000D01*
X110537898Y-68305226D01*
X110726256Y-68227205D01*
X110895774Y-68113937D01*
X111039937Y-67969774D01*
X111153205Y-67800256D01*
X111231226Y-67611898D01*
X111271000Y-67411939D01*
X111271000Y-67208061D01*
X111231226Y-67008102D01*
X111153205Y-66819744D01*
X111039937Y-66650226D01*
X110895774Y-66506063D01*
X110726256Y-66392795D01*
X110537898Y-66314774D01*
X110337939Y-66275000D01*
X110134061Y-66275000D01*
X109934102Y-66314774D01*
X109745744Y-66392795D01*
X109576226Y-66506063D01*
X109432063Y-66650226D01*
X109318795Y-66819744D01*
X109240774Y-67008102D01*
X109201000Y-67208061D01*
X92595923Y-67208061D01*
X92568650Y-67063486D01*
X92463166Y-66801517D01*
X92308601Y-66565161D01*
X92110895Y-66363500D01*
X91877646Y-66204285D01*
X91617818Y-66093633D01*
X91535039Y-66076096D01*
X91313000Y-66198085D01*
X91059000Y-66198085D01*
X90836961Y-66076096D01*
X90754182Y-66093633D01*
X90494354Y-66204285D01*
X90261105Y-66363500D01*
X90063399Y-66565161D01*
X89913265Y-66794741D01*
X89844932Y-66666899D01*
X89665607Y-66448392D01*
X89447100Y-66269068D01*
X89197807Y-66135818D01*
X88927308Y-66053764D01*
X88646000Y-66026057D01*
X88364691Y-66053764D01*
X88094192Y-66135818D01*
X87844899Y-66269068D01*
X87626392Y-66448393D01*
X87447068Y-66666900D01*
X87313818Y-66916193D01*
X87231764Y-67186692D01*
X87211000Y-67397509D01*
X79921000Y-67397509D01*
X79921000Y-67397508D01*
X79900236Y-67186691D01*
X79818182Y-66916192D01*
X79684932Y-66666899D01*
X79505607Y-66448392D01*
X79287100Y-66269068D01*
X79037807Y-66135818D01*
X78767308Y-66053764D01*
X78486000Y-66026057D01*
X78204691Y-66053764D01*
X77934192Y-66135818D01*
X77684899Y-66269068D01*
X77466392Y-66448393D01*
X77287068Y-66666900D01*
X77153818Y-66916193D01*
X77071764Y-67186692D01*
X77051000Y-67397509D01*
X63985000Y-67397509D01*
X63985000Y-62636061D01*
X118853000Y-62636061D01*
X118853000Y-62839939D01*
X118892774Y-63039898D01*
X118970795Y-63228256D01*
X119084063Y-63397774D01*
X119228226Y-63541937D01*
X119397744Y-63655205D01*
X119586102Y-63733226D01*
X119786061Y-63773000D01*
X119989939Y-63773000D01*
X120189898Y-63733226D01*
X120378256Y-63655205D01*
X120547774Y-63541937D01*
X120691937Y-63397774D01*
X120805205Y-63228256D01*
X120883226Y-63039898D01*
X120923000Y-62839939D01*
X120923000Y-62636061D01*
X120883226Y-62436102D01*
X120805205Y-62247744D01*
X120691937Y-62078226D01*
X120547774Y-61934063D01*
X120378256Y-61820795D01*
X120189898Y-61742774D01*
X119989939Y-61703000D01*
X119786061Y-61703000D01*
X119586102Y-61742774D01*
X119397744Y-61820795D01*
X119228226Y-61934063D01*
X119084063Y-62078226D01*
X118970795Y-62247744D01*
X118892774Y-62436102D01*
X118853000Y-62636061D01*
X63985000Y-62636061D01*
X63985000Y-57570000D01*
X75879428Y-57570000D01*
X75879428Y-59570000D01*
X75891688Y-59694482D01*
X75927998Y-59814180D01*
X75986963Y-59924494D01*
X76066315Y-60021185D01*
X76163006Y-60100537D01*
X76273320Y-60159502D01*
X76393018Y-60195812D01*
X76517500Y-60208072D01*
X78422500Y-60208072D01*
X78546982Y-60195812D01*
X78666680Y-60159502D01*
X78776994Y-60100537D01*
X78873685Y-60021185D01*
X78953037Y-59924494D01*
X78997905Y-59840553D01*
X79123766Y-59943845D01*
X79399552Y-60091255D01*
X79698797Y-60182030D01*
X80010000Y-60212681D01*
X80321204Y-60182030D01*
X80620449Y-60091255D01*
X80896235Y-59943845D01*
X81137963Y-59745463D01*
X81280000Y-59572391D01*
X81422037Y-59745463D01*
X81663766Y-59943845D01*
X81939552Y-60091255D01*
X82238797Y-60182030D01*
X82550000Y-60212681D01*
X82861204Y-60182030D01*
X83160449Y-60091255D01*
X83436235Y-59943845D01*
X83677963Y-59745463D01*
X83876345Y-59503734D01*
X84023755Y-59227948D01*
X84114530Y-58928703D01*
X84137500Y-58695485D01*
X84137500Y-58444514D01*
X84114530Y-58211296D01*
X84023755Y-57912051D01*
X83876345Y-57636265D01*
X83677963Y-57394537D01*
X83436234Y-57196155D01*
X83160448Y-57048745D01*
X82861203Y-56957970D01*
X82550000Y-56927319D01*
X82238796Y-56957970D01*
X81939551Y-57048745D01*
X81663765Y-57196155D01*
X81422037Y-57394537D01*
X81280000Y-57567609D01*
X81137963Y-57394537D01*
X80896234Y-57196155D01*
X80620448Y-57048745D01*
X80321203Y-56957970D01*
X80010000Y-56927319D01*
X79698796Y-56957970D01*
X79399551Y-57048745D01*
X79123765Y-57196155D01*
X78997905Y-57299446D01*
X78953037Y-57215506D01*
X78873685Y-57118815D01*
X78776994Y-57039463D01*
X78666680Y-56980498D01*
X78546982Y-56944188D01*
X78422500Y-56931928D01*
X76517500Y-56931928D01*
X76393018Y-56944188D01*
X76273320Y-56980498D01*
X76163006Y-57039463D01*
X76066315Y-57118815D01*
X75986963Y-57215506D01*
X75927998Y-57325820D01*
X75891688Y-57445518D01*
X75879428Y-57570000D01*
X63985000Y-57570000D01*
X63985000Y-56540061D01*
X85833000Y-56540061D01*
X85833000Y-56743939D01*
X85872774Y-56943898D01*
X85950795Y-57132256D01*
X86064063Y-57301774D01*
X86208226Y-57445937D01*
X86377744Y-57559205D01*
X86566102Y-57637226D01*
X86766061Y-57677000D01*
X86969939Y-57677000D01*
X87169898Y-57637226D01*
X87358256Y-57559205D01*
X87527774Y-57445937D01*
X87671937Y-57301774D01*
X87785205Y-57132256D01*
X87863226Y-56943898D01*
X87903000Y-56743939D01*
X87903000Y-56540061D01*
X87863226Y-56340102D01*
X87785205Y-56151744D01*
X87671937Y-55982226D01*
X87527774Y-55838063D01*
X87364274Y-55728816D01*
X92445000Y-55728816D01*
X92445000Y-56031184D01*
X92503989Y-56327743D01*
X92619701Y-56607095D01*
X92787688Y-56858505D01*
X93001495Y-57072312D01*
X93252905Y-57240299D01*
X93532257Y-57356011D01*
X93828816Y-57415000D01*
X94131184Y-57415000D01*
X94427743Y-57356011D01*
X94707095Y-57240299D01*
X94958505Y-57072312D01*
X95172312Y-56858505D01*
X95340299Y-56607095D01*
X95456011Y-56327743D01*
X95515000Y-56031184D01*
X95515000Y-55728816D01*
X98795000Y-55728816D01*
X98795000Y-56031184D01*
X98853989Y-56327743D01*
X98969701Y-56607095D01*
X99137688Y-56858505D01*
X99351495Y-57072312D01*
X99602905Y-57240299D01*
X99882257Y-57356011D01*
X100178816Y-57415000D01*
X100481184Y-57415000D01*
X100777743Y-57356011D01*
X101057095Y-57240299D01*
X101308505Y-57072312D01*
X101522312Y-56858505D01*
X101690299Y-56607095D01*
X101755370Y-56450000D01*
X106611928Y-56450000D01*
X106611928Y-57850000D01*
X106624188Y-57974482D01*
X106660498Y-58094180D01*
X106719463Y-58204494D01*
X106798815Y-58301185D01*
X106895506Y-58380537D01*
X107005820Y-58439502D01*
X107125518Y-58475812D01*
X107250000Y-58488072D01*
X108650000Y-58488072D01*
X108774482Y-58475812D01*
X108894180Y-58439502D01*
X109004494Y-58380537D01*
X109101185Y-58301185D01*
X109180537Y-58204494D01*
X109239502Y-58094180D01*
X109275812Y-57974482D01*
X109288072Y-57850000D01*
X109288072Y-56450000D01*
X112961928Y-56450000D01*
X112961928Y-57850000D01*
X112974188Y-57974482D01*
X113010498Y-58094180D01*
X113069463Y-58204494D01*
X113148815Y-58301185D01*
X113245506Y-58380537D01*
X113355820Y-58439502D01*
X113475518Y-58475812D01*
X113600000Y-58488072D01*
X115000000Y-58488072D01*
X115124482Y-58475812D01*
X115244180Y-58439502D01*
X115354494Y-58380537D01*
X115451185Y-58301185D01*
X115530537Y-58204494D01*
X115589502Y-58094180D01*
X115625812Y-57974482D01*
X115638072Y-57850000D01*
X115638072Y-56450000D01*
X119311928Y-56450000D01*
X119311928Y-57850000D01*
X119324188Y-57974482D01*
X119360498Y-58094180D01*
X119419463Y-58204494D01*
X119498815Y-58301185D01*
X119595506Y-58380537D01*
X119705820Y-58439502D01*
X119825518Y-58475812D01*
X119950000Y-58488072D01*
X121350000Y-58488072D01*
X121474482Y-58475812D01*
X121594180Y-58439502D01*
X121704494Y-58380537D01*
X121801185Y-58301185D01*
X121880537Y-58204494D01*
X121939502Y-58094180D01*
X121975812Y-57974482D01*
X121988072Y-57850000D01*
X121988072Y-56450000D01*
X125661928Y-56450000D01*
X125661928Y-57850000D01*
X125674188Y-57974482D01*
X125710498Y-58094180D01*
X125769463Y-58204494D01*
X125848815Y-58301185D01*
X125945506Y-58380537D01*
X126055820Y-58439502D01*
X126175518Y-58475812D01*
X126300000Y-58488072D01*
X127700000Y-58488072D01*
X127824482Y-58475812D01*
X127944180Y-58439502D01*
X128054494Y-58380537D01*
X128151185Y-58301185D01*
X128230537Y-58204494D01*
X128289502Y-58094180D01*
X128325812Y-57974482D01*
X128338072Y-57850000D01*
X128338072Y-56450000D01*
X132011928Y-56450000D01*
X132011928Y-57850000D01*
X132024188Y-57974482D01*
X132060498Y-58094180D01*
X132119463Y-58204494D01*
X132198815Y-58301185D01*
X132295506Y-58380537D01*
X132405820Y-58439502D01*
X132525518Y-58475812D01*
X132650000Y-58488072D01*
X134050000Y-58488072D01*
X134174482Y-58475812D01*
X134294180Y-58439502D01*
X134404494Y-58380537D01*
X134501185Y-58301185D01*
X134580537Y-58204494D01*
X134639502Y-58094180D01*
X134675812Y-57974482D01*
X134688072Y-57850000D01*
X134688072Y-56450000D01*
X138361928Y-56450000D01*
X138361928Y-57850000D01*
X138374188Y-57974482D01*
X138410498Y-58094180D01*
X138469463Y-58204494D01*
X138548815Y-58301185D01*
X138645506Y-58380537D01*
X138755820Y-58439502D01*
X138875518Y-58475812D01*
X139000000Y-58488072D01*
X140400000Y-58488072D01*
X140524482Y-58475812D01*
X140644180Y-58439502D01*
X140754494Y-58380537D01*
X140851185Y-58301185D01*
X140930537Y-58204494D01*
X140989502Y-58094180D01*
X141025812Y-57974482D01*
X141038072Y-57850000D01*
X144711928Y-57850000D01*
X144724188Y-57974482D01*
X144760498Y-58094180D01*
X144819463Y-58204494D01*
X144898815Y-58301185D01*
X144995506Y-58380537D01*
X145105820Y-58439502D01*
X145225518Y-58475812D01*
X145350000Y-58488072D01*
X145764250Y-58485000D01*
X145923000Y-58326250D01*
X145923000Y-57277000D01*
X146177000Y-57277000D01*
X146177000Y-58326250D01*
X146335750Y-58485000D01*
X146750000Y-58488072D01*
X146874482Y-58475812D01*
X146994180Y-58439502D01*
X147104494Y-58380537D01*
X147201185Y-58301185D01*
X147280537Y-58204494D01*
X147339502Y-58094180D01*
X147375812Y-57974482D01*
X147388072Y-57850000D01*
X147385000Y-57435750D01*
X147226250Y-57277000D01*
X146177000Y-57277000D01*
X145923000Y-57277000D01*
X144873750Y-57277000D01*
X144715000Y-57435750D01*
X144711928Y-57850000D01*
X141038072Y-57850000D01*
X141038072Y-56450000D01*
X144711928Y-56450000D01*
X144715000Y-56864250D01*
X144873750Y-57023000D01*
X145923000Y-57023000D01*
X145923000Y-55973750D01*
X146177000Y-55973750D01*
X146177000Y-57023000D01*
X147226250Y-57023000D01*
X147385000Y-56864250D01*
X147388072Y-56450000D01*
X147375812Y-56325518D01*
X147339502Y-56205820D01*
X147280537Y-56095506D01*
X147201185Y-55998815D01*
X147104494Y-55919463D01*
X146994180Y-55860498D01*
X146874482Y-55824188D01*
X146750000Y-55811928D01*
X146335750Y-55815000D01*
X146177000Y-55973750D01*
X145923000Y-55973750D01*
X145764250Y-55815000D01*
X145350000Y-55811928D01*
X145225518Y-55824188D01*
X145105820Y-55860498D01*
X144995506Y-55919463D01*
X144898815Y-55998815D01*
X144819463Y-56095506D01*
X144760498Y-56205820D01*
X144724188Y-56325518D01*
X144711928Y-56450000D01*
X141038072Y-56450000D01*
X141025812Y-56325518D01*
X140989502Y-56205820D01*
X140930537Y-56095506D01*
X140851185Y-55998815D01*
X140754494Y-55919463D01*
X140644180Y-55860498D01*
X140524482Y-55824188D01*
X140400000Y-55811928D01*
X139000000Y-55811928D01*
X138875518Y-55824188D01*
X138755820Y-55860498D01*
X138645506Y-55919463D01*
X138548815Y-55998815D01*
X138469463Y-56095506D01*
X138410498Y-56205820D01*
X138374188Y-56325518D01*
X138361928Y-56450000D01*
X134688072Y-56450000D01*
X134675812Y-56325518D01*
X134639502Y-56205820D01*
X134580537Y-56095506D01*
X134501185Y-55998815D01*
X134404494Y-55919463D01*
X134294180Y-55860498D01*
X134174482Y-55824188D01*
X134050000Y-55811928D01*
X132650000Y-55811928D01*
X132525518Y-55824188D01*
X132405820Y-55860498D01*
X132295506Y-55919463D01*
X132198815Y-55998815D01*
X132119463Y-56095506D01*
X132060498Y-56205820D01*
X132024188Y-56325518D01*
X132011928Y-56450000D01*
X128338072Y-56450000D01*
X128325812Y-56325518D01*
X128289502Y-56205820D01*
X128230537Y-56095506D01*
X128151185Y-55998815D01*
X128054494Y-55919463D01*
X127944180Y-55860498D01*
X127824482Y-55824188D01*
X127700000Y-55811928D01*
X126300000Y-55811928D01*
X126175518Y-55824188D01*
X126055820Y-55860498D01*
X125945506Y-55919463D01*
X125848815Y-55998815D01*
X125769463Y-56095506D01*
X125710498Y-56205820D01*
X125674188Y-56325518D01*
X125661928Y-56450000D01*
X121988072Y-56450000D01*
X121975812Y-56325518D01*
X121939502Y-56205820D01*
X121880537Y-56095506D01*
X121801185Y-55998815D01*
X121704494Y-55919463D01*
X121594180Y-55860498D01*
X121474482Y-55824188D01*
X121350000Y-55811928D01*
X119950000Y-55811928D01*
X119825518Y-55824188D01*
X119705820Y-55860498D01*
X119595506Y-55919463D01*
X119498815Y-55998815D01*
X119419463Y-56095506D01*
X119360498Y-56205820D01*
X119324188Y-56325518D01*
X119311928Y-56450000D01*
X115638072Y-56450000D01*
X115625812Y-56325518D01*
X115589502Y-56205820D01*
X115530537Y-56095506D01*
X115451185Y-55998815D01*
X115354494Y-55919463D01*
X115244180Y-55860498D01*
X115124482Y-55824188D01*
X115000000Y-55811928D01*
X113600000Y-55811928D01*
X113475518Y-55824188D01*
X113355820Y-55860498D01*
X113245506Y-55919463D01*
X113148815Y-55998815D01*
X113069463Y-56095506D01*
X113010498Y-56205820D01*
X112974188Y-56325518D01*
X112961928Y-56450000D01*
X109288072Y-56450000D01*
X109275812Y-56325518D01*
X109239502Y-56205820D01*
X109180537Y-56095506D01*
X109101185Y-55998815D01*
X109004494Y-55919463D01*
X108894180Y-55860498D01*
X108774482Y-55824188D01*
X108650000Y-55811928D01*
X107250000Y-55811928D01*
X107125518Y-55824188D01*
X107005820Y-55860498D01*
X106895506Y-55919463D01*
X106798815Y-55998815D01*
X106719463Y-56095506D01*
X106660498Y-56205820D01*
X106624188Y-56325518D01*
X106611928Y-56450000D01*
X101755370Y-56450000D01*
X101806011Y-56327743D01*
X101865000Y-56031184D01*
X101865000Y-55728816D01*
X101806011Y-55432257D01*
X101690299Y-55152905D01*
X101522312Y-54901495D01*
X101308505Y-54687688D01*
X101057095Y-54519701D01*
X100777743Y-54403989D01*
X100481184Y-54345000D01*
X100178816Y-54345000D01*
X99882257Y-54403989D01*
X99602905Y-54519701D01*
X99351495Y-54687688D01*
X99137688Y-54901495D01*
X98969701Y-55152905D01*
X98853989Y-55432257D01*
X98795000Y-55728816D01*
X95515000Y-55728816D01*
X95456011Y-55432257D01*
X95340299Y-55152905D01*
X95172312Y-54901495D01*
X94958505Y-54687688D01*
X94707095Y-54519701D01*
X94427743Y-54403989D01*
X94131184Y-54345000D01*
X93828816Y-54345000D01*
X93532257Y-54403989D01*
X93252905Y-54519701D01*
X93001495Y-54687688D01*
X92787688Y-54901495D01*
X92619701Y-55152905D01*
X92503989Y-55432257D01*
X92445000Y-55728816D01*
X87364274Y-55728816D01*
X87358256Y-55724795D01*
X87169898Y-55646774D01*
X86969939Y-55607000D01*
X86766061Y-55607000D01*
X86566102Y-55646774D01*
X86377744Y-55724795D01*
X86208226Y-55838063D01*
X86064063Y-55982226D01*
X85950795Y-56151744D01*
X85872774Y-56340102D01*
X85833000Y-56540061D01*
X63985000Y-56540061D01*
X63985000Y-51938514D01*
X106615000Y-51938514D01*
X106615000Y-52201486D01*
X106666304Y-52459405D01*
X106766939Y-52702359D01*
X106913038Y-52921013D01*
X107098987Y-53106962D01*
X107317641Y-53253061D01*
X107560595Y-53353696D01*
X107818514Y-53405000D01*
X108081486Y-53405000D01*
X108339405Y-53353696D01*
X108582359Y-53253061D01*
X108801013Y-53106962D01*
X108986962Y-52921013D01*
X109133061Y-52702359D01*
X109233696Y-52459405D01*
X109285000Y-52201486D01*
X109285000Y-51938514D01*
X112965000Y-51938514D01*
X112965000Y-52201486D01*
X113016304Y-52459405D01*
X113116939Y-52702359D01*
X113263038Y-52921013D01*
X113448987Y-53106962D01*
X113667641Y-53253061D01*
X113910595Y-53353696D01*
X114168514Y-53405000D01*
X114431486Y-53405000D01*
X114689405Y-53353696D01*
X114932359Y-53253061D01*
X115151013Y-53106962D01*
X115336962Y-52921013D01*
X115483061Y-52702359D01*
X115583696Y-52459405D01*
X115635000Y-52201486D01*
X115635000Y-51938514D01*
X119315000Y-51938514D01*
X119315000Y-52201486D01*
X119366304Y-52459405D01*
X119466939Y-52702359D01*
X119613038Y-52921013D01*
X119798987Y-53106962D01*
X120017641Y-53253061D01*
X120260595Y-53353696D01*
X120518514Y-53405000D01*
X120781486Y-53405000D01*
X121039405Y-53353696D01*
X121282359Y-53253061D01*
X121501013Y-53106962D01*
X121686962Y-52921013D01*
X121833061Y-52702359D01*
X121933696Y-52459405D01*
X121985000Y-52201486D01*
X121985000Y-51938514D01*
X125665000Y-51938514D01*
X125665000Y-52201486D01*
X125716304Y-52459405D01*
X125816939Y-52702359D01*
X125963038Y-52921013D01*
X126148987Y-53106962D01*
X126367641Y-53253061D01*
X126610595Y-53353696D01*
X126868514Y-53405000D01*
X127131486Y-53405000D01*
X127389405Y-53353696D01*
X127632359Y-53253061D01*
X127851013Y-53106962D01*
X128036962Y-52921013D01*
X128183061Y-52702359D01*
X128283696Y-52459405D01*
X128335000Y-52201486D01*
X128335000Y-51938514D01*
X132015000Y-51938514D01*
X132015000Y-52201486D01*
X132066304Y-52459405D01*
X132166939Y-52702359D01*
X132313038Y-52921013D01*
X132498987Y-53106962D01*
X132717641Y-53253061D01*
X132960595Y-53353696D01*
X133218514Y-53405000D01*
X133481486Y-53405000D01*
X133739405Y-53353696D01*
X133982359Y-53253061D01*
X134201013Y-53106962D01*
X134386962Y-52921013D01*
X134533061Y-52702359D01*
X134633696Y-52459405D01*
X134685000Y-52201486D01*
X134685000Y-51938514D01*
X138365000Y-51938514D01*
X138365000Y-52201486D01*
X138416304Y-52459405D01*
X138516939Y-52702359D01*
X138663038Y-52921013D01*
X138848987Y-53106962D01*
X139067641Y-53253061D01*
X139310595Y-53353696D01*
X139568514Y-53405000D01*
X139831486Y-53405000D01*
X140089405Y-53353696D01*
X140332359Y-53253061D01*
X140551013Y-53106962D01*
X140736962Y-52921013D01*
X140883061Y-52702359D01*
X140983696Y-52459405D01*
X141035000Y-52201486D01*
X141035000Y-51938514D01*
X144715000Y-51938514D01*
X144715000Y-52201486D01*
X144766304Y-52459405D01*
X144866939Y-52702359D01*
X145013038Y-52921013D01*
X145198987Y-53106962D01*
X145417641Y-53253061D01*
X145660595Y-53353696D01*
X145918514Y-53405000D01*
X146181486Y-53405000D01*
X146439405Y-53353696D01*
X146682359Y-53253061D01*
X146901013Y-53106962D01*
X147086962Y-52921013D01*
X147233061Y-52702359D01*
X147333696Y-52459405D01*
X147385000Y-52201486D01*
X147385000Y-51938514D01*
X147333696Y-51680595D01*
X147233061Y-51437641D01*
X147086962Y-51218987D01*
X146901013Y-51033038D01*
X146682359Y-50886939D01*
X146439405Y-50786304D01*
X146181486Y-50735000D01*
X145918514Y-50735000D01*
X145660595Y-50786304D01*
X145417641Y-50886939D01*
X145198987Y-51033038D01*
X145013038Y-51218987D01*
X144866939Y-51437641D01*
X144766304Y-51680595D01*
X144715000Y-51938514D01*
X141035000Y-51938514D01*
X140983696Y-51680595D01*
X140883061Y-51437641D01*
X140736962Y-51218987D01*
X140551013Y-51033038D01*
X140332359Y-50886939D01*
X140089405Y-50786304D01*
X139831486Y-50735000D01*
X139568514Y-50735000D01*
X139310595Y-50786304D01*
X139067641Y-50886939D01*
X138848987Y-51033038D01*
X138663038Y-51218987D01*
X138516939Y-51437641D01*
X138416304Y-51680595D01*
X138365000Y-51938514D01*
X134685000Y-51938514D01*
X134633696Y-51680595D01*
X134533061Y-51437641D01*
X134386962Y-51218987D01*
X134201013Y-51033038D01*
X133982359Y-50886939D01*
X133739405Y-50786304D01*
X133481486Y-50735000D01*
X133218514Y-50735000D01*
X132960595Y-50786304D01*
X132717641Y-50886939D01*
X132498987Y-51033038D01*
X132313038Y-51218987D01*
X132166939Y-51437641D01*
X132066304Y-51680595D01*
X132015000Y-51938514D01*
X128335000Y-51938514D01*
X128283696Y-51680595D01*
X128183061Y-51437641D01*
X128036962Y-51218987D01*
X127851013Y-51033038D01*
X127632359Y-50886939D01*
X127389405Y-50786304D01*
X127131486Y-50735000D01*
X126868514Y-50735000D01*
X126610595Y-50786304D01*
X126367641Y-50886939D01*
X126148987Y-51033038D01*
X125963038Y-51218987D01*
X125816939Y-51437641D01*
X125716304Y-51680595D01*
X125665000Y-51938514D01*
X121985000Y-51938514D01*
X121933696Y-51680595D01*
X121833061Y-51437641D01*
X121686962Y-51218987D01*
X121501013Y-51033038D01*
X121282359Y-50886939D01*
X121039405Y-50786304D01*
X120781486Y-50735000D01*
X120518514Y-50735000D01*
X120260595Y-50786304D01*
X120017641Y-50886939D01*
X119798987Y-51033038D01*
X119613038Y-51218987D01*
X119466939Y-51437641D01*
X119366304Y-51680595D01*
X119315000Y-51938514D01*
X115635000Y-51938514D01*
X115583696Y-51680595D01*
X115483061Y-51437641D01*
X115336962Y-51218987D01*
X115151013Y-51033038D01*
X114932359Y-50886939D01*
X114689405Y-50786304D01*
X114431486Y-50735000D01*
X114168514Y-50735000D01*
X113910595Y-50786304D01*
X113667641Y-50886939D01*
X113448987Y-51033038D01*
X113263038Y-51218987D01*
X113116939Y-51437641D01*
X113016304Y-51680595D01*
X112965000Y-51938514D01*
X109285000Y-51938514D01*
X109233696Y-51680595D01*
X109133061Y-51437641D01*
X108986962Y-51218987D01*
X108801013Y-51033038D01*
X108582359Y-50886939D01*
X108339405Y-50786304D01*
X108081486Y-50735000D01*
X107818514Y-50735000D01*
X107560595Y-50786304D01*
X107317641Y-50886939D01*
X107098987Y-51033038D01*
X106913038Y-51218987D01*
X106766939Y-51437641D01*
X106666304Y-51680595D01*
X106615000Y-51938514D01*
X63985000Y-51938514D01*
X63985000Y-48108816D01*
X94985000Y-48108816D01*
X94985000Y-48411184D01*
X95043989Y-48707743D01*
X95159701Y-48987095D01*
X95327688Y-49238505D01*
X95541495Y-49452312D01*
X95792905Y-49620299D01*
X96072257Y-49736011D01*
X96368816Y-49795000D01*
X96671184Y-49795000D01*
X96967743Y-49736011D01*
X97247095Y-49620299D01*
X97498505Y-49452312D01*
X97712312Y-49238505D01*
X97880299Y-48987095D01*
X97996011Y-48707743D01*
X98055000Y-48411184D01*
X98055000Y-48108816D01*
X101335000Y-48108816D01*
X101335000Y-48411184D01*
X101393989Y-48707743D01*
X101509701Y-48987095D01*
X101677688Y-49238505D01*
X101891495Y-49452312D01*
X102142905Y-49620299D01*
X102422257Y-49736011D01*
X102718816Y-49795000D01*
X103021184Y-49795000D01*
X103317743Y-49736011D01*
X103597095Y-49620299D01*
X103848505Y-49452312D01*
X104062312Y-49238505D01*
X104230299Y-48987095D01*
X104346011Y-48707743D01*
X104405000Y-48411184D01*
X104405000Y-48108816D01*
X104346011Y-47812257D01*
X104230299Y-47532905D01*
X104062312Y-47281495D01*
X103848505Y-47067688D01*
X103597095Y-46899701D01*
X103497662Y-46858514D01*
X106615000Y-46858514D01*
X106615000Y-47121486D01*
X106666304Y-47379405D01*
X106766939Y-47622359D01*
X106913038Y-47841013D01*
X107098987Y-48026962D01*
X107317641Y-48173061D01*
X107560595Y-48273696D01*
X107818514Y-48325000D01*
X108081486Y-48325000D01*
X108339405Y-48273696D01*
X108582359Y-48173061D01*
X108801013Y-48026962D01*
X108986962Y-47841013D01*
X109133061Y-47622359D01*
X109233696Y-47379405D01*
X109285000Y-47121486D01*
X109285000Y-46858514D01*
X112965000Y-46858514D01*
X112965000Y-47121486D01*
X113016304Y-47379405D01*
X113116939Y-47622359D01*
X113263038Y-47841013D01*
X113448987Y-48026962D01*
X113667641Y-48173061D01*
X113910595Y-48273696D01*
X114168514Y-48325000D01*
X114431486Y-48325000D01*
X114689405Y-48273696D01*
X114932359Y-48173061D01*
X115151013Y-48026962D01*
X115336962Y-47841013D01*
X115483061Y-47622359D01*
X115583696Y-47379405D01*
X115635000Y-47121486D01*
X115635000Y-46858514D01*
X119315000Y-46858514D01*
X119315000Y-47121486D01*
X119366304Y-47379405D01*
X119466939Y-47622359D01*
X119613038Y-47841013D01*
X119798987Y-48026962D01*
X120017641Y-48173061D01*
X120260595Y-48273696D01*
X120518514Y-48325000D01*
X120781486Y-48325000D01*
X121039405Y-48273696D01*
X121282359Y-48173061D01*
X121501013Y-48026962D01*
X121686962Y-47841013D01*
X121833061Y-47622359D01*
X121933696Y-47379405D01*
X121985000Y-47121486D01*
X121985000Y-46858514D01*
X125665000Y-46858514D01*
X125665000Y-47121486D01*
X125716304Y-47379405D01*
X125816939Y-47622359D01*
X125963038Y-47841013D01*
X126148987Y-48026962D01*
X126367641Y-48173061D01*
X126610595Y-48273696D01*
X126868514Y-48325000D01*
X127131486Y-48325000D01*
X127389405Y-48273696D01*
X127632359Y-48173061D01*
X127851013Y-48026962D01*
X128036962Y-47841013D01*
X128183061Y-47622359D01*
X128283696Y-47379405D01*
X128335000Y-47121486D01*
X128335000Y-46858514D01*
X132015000Y-46858514D01*
X132015000Y-47121486D01*
X132066304Y-47379405D01*
X132166939Y-47622359D01*
X132313038Y-47841013D01*
X132498987Y-48026962D01*
X132717641Y-48173061D01*
X132960595Y-48273696D01*
X133218514Y-48325000D01*
X133481486Y-48325000D01*
X133739405Y-48273696D01*
X133982359Y-48173061D01*
X134201013Y-48026962D01*
X134386962Y-47841013D01*
X134533061Y-47622359D01*
X134633696Y-47379405D01*
X134685000Y-47121486D01*
X134685000Y-46858514D01*
X138365000Y-46858514D01*
X138365000Y-47121486D01*
X138416304Y-47379405D01*
X138516939Y-47622359D01*
X138663038Y-47841013D01*
X138848987Y-48026962D01*
X139067641Y-48173061D01*
X139310595Y-48273696D01*
X139568514Y-48325000D01*
X139831486Y-48325000D01*
X140089405Y-48273696D01*
X140332359Y-48173061D01*
X140551013Y-48026962D01*
X140736962Y-47841013D01*
X140883061Y-47622359D01*
X140983696Y-47379405D01*
X141035000Y-47121486D01*
X141035000Y-46858514D01*
X144715000Y-46858514D01*
X144715000Y-47121486D01*
X144766304Y-47379405D01*
X144866939Y-47622359D01*
X145013038Y-47841013D01*
X145198987Y-48026962D01*
X145417641Y-48173061D01*
X145660595Y-48273696D01*
X145918514Y-48325000D01*
X146181486Y-48325000D01*
X146439405Y-48273696D01*
X146682359Y-48173061D01*
X146901013Y-48026962D01*
X147086962Y-47841013D01*
X147233061Y-47622359D01*
X147333696Y-47379405D01*
X147385000Y-47121486D01*
X147385000Y-46858514D01*
X147333696Y-46600595D01*
X147233061Y-46357641D01*
X147086962Y-46138987D01*
X146901013Y-45953038D01*
X146682359Y-45806939D01*
X146439405Y-45706304D01*
X146181486Y-45655000D01*
X145918514Y-45655000D01*
X145660595Y-45706304D01*
X145417641Y-45806939D01*
X145198987Y-45953038D01*
X145013038Y-46138987D01*
X144866939Y-46357641D01*
X144766304Y-46600595D01*
X144715000Y-46858514D01*
X141035000Y-46858514D01*
X140983696Y-46600595D01*
X140883061Y-46357641D01*
X140736962Y-46138987D01*
X140551013Y-45953038D01*
X140332359Y-45806939D01*
X140089405Y-45706304D01*
X139831486Y-45655000D01*
X139568514Y-45655000D01*
X139310595Y-45706304D01*
X139067641Y-45806939D01*
X138848987Y-45953038D01*
X138663038Y-46138987D01*
X138516939Y-46357641D01*
X138416304Y-46600595D01*
X138365000Y-46858514D01*
X134685000Y-46858514D01*
X134633696Y-46600595D01*
X134533061Y-46357641D01*
X134386962Y-46138987D01*
X134201013Y-45953038D01*
X133982359Y-45806939D01*
X133739405Y-45706304D01*
X133481486Y-45655000D01*
X133218514Y-45655000D01*
X132960595Y-45706304D01*
X132717641Y-45806939D01*
X132498987Y-45953038D01*
X132313038Y-46138987D01*
X132166939Y-46357641D01*
X132066304Y-46600595D01*
X132015000Y-46858514D01*
X128335000Y-46858514D01*
X128283696Y-46600595D01*
X128183061Y-46357641D01*
X128036962Y-46138987D01*
X127851013Y-45953038D01*
X127632359Y-45806939D01*
X127389405Y-45706304D01*
X127131486Y-45655000D01*
X126868514Y-45655000D01*
X126610595Y-45706304D01*
X126367641Y-45806939D01*
X126148987Y-45953038D01*
X125963038Y-46138987D01*
X125816939Y-46357641D01*
X125716304Y-46600595D01*
X125665000Y-46858514D01*
X121985000Y-46858514D01*
X121933696Y-46600595D01*
X121833061Y-46357641D01*
X121686962Y-46138987D01*
X121501013Y-45953038D01*
X121282359Y-45806939D01*
X121039405Y-45706304D01*
X120781486Y-45655000D01*
X120518514Y-45655000D01*
X120260595Y-45706304D01*
X120017641Y-45806939D01*
X119798987Y-45953038D01*
X119613038Y-46138987D01*
X119466939Y-46357641D01*
X119366304Y-46600595D01*
X119315000Y-46858514D01*
X115635000Y-46858514D01*
X115583696Y-46600595D01*
X115483061Y-46357641D01*
X115336962Y-46138987D01*
X115151013Y-45953038D01*
X114932359Y-45806939D01*
X114689405Y-45706304D01*
X114431486Y-45655000D01*
X114168514Y-45655000D01*
X113910595Y-45706304D01*
X113667641Y-45806939D01*
X113448987Y-45953038D01*
X113263038Y-46138987D01*
X113116939Y-46357641D01*
X113016304Y-46600595D01*
X112965000Y-46858514D01*
X109285000Y-46858514D01*
X109233696Y-46600595D01*
X109133061Y-46357641D01*
X108986962Y-46138987D01*
X108801013Y-45953038D01*
X108582359Y-45806939D01*
X108339405Y-45706304D01*
X108081486Y-45655000D01*
X107818514Y-45655000D01*
X107560595Y-45706304D01*
X107317641Y-45806939D01*
X107098987Y-45953038D01*
X106913038Y-46138987D01*
X106766939Y-46357641D01*
X106666304Y-46600595D01*
X106615000Y-46858514D01*
X103497662Y-46858514D01*
X103317743Y-46783989D01*
X103021184Y-46725000D01*
X102718816Y-46725000D01*
X102422257Y-46783989D01*
X102142905Y-46899701D01*
X101891495Y-47067688D01*
X101677688Y-47281495D01*
X101509701Y-47532905D01*
X101393989Y-47812257D01*
X101335000Y-48108816D01*
X98055000Y-48108816D01*
X97996011Y-47812257D01*
X97880299Y-47532905D01*
X97712312Y-47281495D01*
X97498505Y-47067688D01*
X97247095Y-46899701D01*
X96967743Y-46783989D01*
X96671184Y-46725000D01*
X96368816Y-46725000D01*
X96072257Y-46783989D01*
X95792905Y-46899701D01*
X95541495Y-47067688D01*
X95327688Y-47281495D01*
X95159701Y-47532905D01*
X95043989Y-47812257D01*
X94985000Y-48108816D01*
X63985000Y-48108816D01*
X63985000Y-41675098D01*
X77625000Y-41675098D01*
X77625000Y-42144902D01*
X77716654Y-42605679D01*
X77896440Y-43039721D01*
X78157450Y-43430349D01*
X78489651Y-43762550D01*
X78880279Y-44023560D01*
X79314321Y-44203346D01*
X79775098Y-44295000D01*
X80244902Y-44295000D01*
X80705679Y-44203346D01*
X81139721Y-44023560D01*
X81530349Y-43762550D01*
X81862550Y-43430349D01*
X82123560Y-43039721D01*
X82128076Y-43028816D01*
X92445000Y-43028816D01*
X92445000Y-43331184D01*
X92503989Y-43627743D01*
X92619701Y-43907095D01*
X92787688Y-44158505D01*
X93001495Y-44372312D01*
X93252905Y-44540299D01*
X93532257Y-44656011D01*
X93828816Y-44715000D01*
X94131184Y-44715000D01*
X94427743Y-44656011D01*
X94707095Y-44540299D01*
X94958505Y-44372312D01*
X95172312Y-44158505D01*
X95340299Y-43907095D01*
X95456011Y-43627743D01*
X95515000Y-43331184D01*
X95515000Y-43028816D01*
X98795000Y-43028816D01*
X98795000Y-43331184D01*
X98853989Y-43627743D01*
X98969701Y-43907095D01*
X99137688Y-44158505D01*
X99351495Y-44372312D01*
X99602905Y-44540299D01*
X99882257Y-44656011D01*
X100178816Y-44715000D01*
X100481184Y-44715000D01*
X100777743Y-44656011D01*
X101057095Y-44540299D01*
X101308505Y-44372312D01*
X101522312Y-44158505D01*
X101690299Y-43907095D01*
X101806011Y-43627743D01*
X101865000Y-43331184D01*
X101865000Y-43028816D01*
X101806011Y-42732257D01*
X101690299Y-42452905D01*
X101522312Y-42201495D01*
X101308505Y-41987688D01*
X101057095Y-41819701D01*
X100957662Y-41778514D01*
X106615000Y-41778514D01*
X106615000Y-42041486D01*
X106666304Y-42299405D01*
X106766939Y-42542359D01*
X106913038Y-42761013D01*
X107098987Y-42946962D01*
X107317641Y-43093061D01*
X107560595Y-43193696D01*
X107818514Y-43245000D01*
X108081486Y-43245000D01*
X108339405Y-43193696D01*
X108582359Y-43093061D01*
X108801013Y-42946962D01*
X108986962Y-42761013D01*
X109133061Y-42542359D01*
X109233696Y-42299405D01*
X109285000Y-42041486D01*
X109285000Y-41778514D01*
X112965000Y-41778514D01*
X112965000Y-42041486D01*
X113016304Y-42299405D01*
X113116939Y-42542359D01*
X113263038Y-42761013D01*
X113448987Y-42946962D01*
X113667641Y-43093061D01*
X113910595Y-43193696D01*
X114168514Y-43245000D01*
X114431486Y-43245000D01*
X114689405Y-43193696D01*
X114932359Y-43093061D01*
X115151013Y-42946962D01*
X115336962Y-42761013D01*
X115483061Y-42542359D01*
X115583696Y-42299405D01*
X115635000Y-42041486D01*
X115635000Y-41778514D01*
X119315000Y-41778514D01*
X119315000Y-42041486D01*
X119366304Y-42299405D01*
X119466939Y-42542359D01*
X119613038Y-42761013D01*
X119798987Y-42946962D01*
X120017641Y-43093061D01*
X120260595Y-43193696D01*
X120518514Y-43245000D01*
X120781486Y-43245000D01*
X121039405Y-43193696D01*
X121282359Y-43093061D01*
X121501013Y-42946962D01*
X121686962Y-42761013D01*
X121833061Y-42542359D01*
X121933696Y-42299405D01*
X121985000Y-42041486D01*
X121985000Y-41778514D01*
X125665000Y-41778514D01*
X125665000Y-42041486D01*
X125716304Y-42299405D01*
X125816939Y-42542359D01*
X125963038Y-42761013D01*
X126148987Y-42946962D01*
X126367641Y-43093061D01*
X126610595Y-43193696D01*
X126868514Y-43245000D01*
X127131486Y-43245000D01*
X127389405Y-43193696D01*
X127632359Y-43093061D01*
X127851013Y-42946962D01*
X128036962Y-42761013D01*
X128183061Y-42542359D01*
X128283696Y-42299405D01*
X128335000Y-42041486D01*
X128335000Y-41778514D01*
X132015000Y-41778514D01*
X132015000Y-42041486D01*
X132066304Y-42299405D01*
X132166939Y-42542359D01*
X132313038Y-42761013D01*
X132498987Y-42946962D01*
X132717641Y-43093061D01*
X132960595Y-43193696D01*
X133218514Y-43245000D01*
X133481486Y-43245000D01*
X133739405Y-43193696D01*
X133982359Y-43093061D01*
X134201013Y-42946962D01*
X134386962Y-42761013D01*
X134533061Y-42542359D01*
X134633696Y-42299405D01*
X134685000Y-42041486D01*
X134685000Y-41778514D01*
X138365000Y-41778514D01*
X138365000Y-42041486D01*
X138416304Y-42299405D01*
X138516939Y-42542359D01*
X138663038Y-42761013D01*
X138848987Y-42946962D01*
X139067641Y-43093061D01*
X139310595Y-43193696D01*
X139568514Y-43245000D01*
X139831486Y-43245000D01*
X140089405Y-43193696D01*
X140332359Y-43093061D01*
X140551013Y-42946962D01*
X140736962Y-42761013D01*
X140883061Y-42542359D01*
X140983696Y-42299405D01*
X141035000Y-42041486D01*
X141035000Y-41778514D01*
X144715000Y-41778514D01*
X144715000Y-42041486D01*
X144766304Y-42299405D01*
X144866939Y-42542359D01*
X145013038Y-42761013D01*
X145198987Y-42946962D01*
X145417641Y-43093061D01*
X145660595Y-43193696D01*
X145918514Y-43245000D01*
X146181486Y-43245000D01*
X146439405Y-43193696D01*
X146682359Y-43093061D01*
X146901013Y-42946962D01*
X147086962Y-42761013D01*
X147233061Y-42542359D01*
X147333696Y-42299405D01*
X147385000Y-42041486D01*
X147385000Y-41778514D01*
X147333696Y-41520595D01*
X147233061Y-41277641D01*
X147086962Y-41058987D01*
X146901013Y-40873038D01*
X146682359Y-40726939D01*
X146439405Y-40626304D01*
X146181486Y-40575000D01*
X145918514Y-40575000D01*
X145660595Y-40626304D01*
X145417641Y-40726939D01*
X145198987Y-40873038D01*
X145013038Y-41058987D01*
X144866939Y-41277641D01*
X144766304Y-41520595D01*
X144715000Y-41778514D01*
X141035000Y-41778514D01*
X140983696Y-41520595D01*
X140883061Y-41277641D01*
X140736962Y-41058987D01*
X140551013Y-40873038D01*
X140332359Y-40726939D01*
X140089405Y-40626304D01*
X139831486Y-40575000D01*
X139568514Y-40575000D01*
X139310595Y-40626304D01*
X139067641Y-40726939D01*
X138848987Y-40873038D01*
X138663038Y-41058987D01*
X138516939Y-41277641D01*
X138416304Y-41520595D01*
X138365000Y-41778514D01*
X134685000Y-41778514D01*
X134633696Y-41520595D01*
X134533061Y-41277641D01*
X134386962Y-41058987D01*
X134201013Y-40873038D01*
X133982359Y-40726939D01*
X133739405Y-40626304D01*
X133481486Y-40575000D01*
X133218514Y-40575000D01*
X132960595Y-40626304D01*
X132717641Y-40726939D01*
X132498987Y-40873038D01*
X132313038Y-41058987D01*
X132166939Y-41277641D01*
X132066304Y-41520595D01*
X132015000Y-41778514D01*
X128335000Y-41778514D01*
X128283696Y-41520595D01*
X128183061Y-41277641D01*
X128036962Y-41058987D01*
X127851013Y-40873038D01*
X127632359Y-40726939D01*
X127389405Y-40626304D01*
X127131486Y-40575000D01*
X126868514Y-40575000D01*
X126610595Y-40626304D01*
X126367641Y-40726939D01*
X126148987Y-40873038D01*
X125963038Y-41058987D01*
X125816939Y-41277641D01*
X125716304Y-41520595D01*
X125665000Y-41778514D01*
X121985000Y-41778514D01*
X121933696Y-41520595D01*
X121833061Y-41277641D01*
X121686962Y-41058987D01*
X121501013Y-40873038D01*
X121282359Y-40726939D01*
X121039405Y-40626304D01*
X120781486Y-40575000D01*
X120518514Y-40575000D01*
X120260595Y-40626304D01*
X120017641Y-40726939D01*
X119798987Y-40873038D01*
X119613038Y-41058987D01*
X119466939Y-41277641D01*
X119366304Y-41520595D01*
X119315000Y-41778514D01*
X115635000Y-41778514D01*
X115583696Y-41520595D01*
X115483061Y-41277641D01*
X115336962Y-41058987D01*
X115151013Y-40873038D01*
X114932359Y-40726939D01*
X114689405Y-40626304D01*
X114431486Y-40575000D01*
X114168514Y-40575000D01*
X113910595Y-40626304D01*
X113667641Y-40726939D01*
X113448987Y-40873038D01*
X113263038Y-41058987D01*
X113116939Y-41277641D01*
X113016304Y-41520595D01*
X112965000Y-41778514D01*
X109285000Y-41778514D01*
X109233696Y-41520595D01*
X109133061Y-41277641D01*
X108986962Y-41058987D01*
X108801013Y-40873038D01*
X108582359Y-40726939D01*
X108339405Y-40626304D01*
X108081486Y-40575000D01*
X107818514Y-40575000D01*
X107560595Y-40626304D01*
X107317641Y-40726939D01*
X107098987Y-40873038D01*
X106913038Y-41058987D01*
X106766939Y-41277641D01*
X106666304Y-41520595D01*
X106615000Y-41778514D01*
X100957662Y-41778514D01*
X100777743Y-41703989D01*
X100481184Y-41645000D01*
X100178816Y-41645000D01*
X99882257Y-41703989D01*
X99602905Y-41819701D01*
X99351495Y-41987688D01*
X99137688Y-42201495D01*
X98969701Y-42452905D01*
X98853989Y-42732257D01*
X98795000Y-43028816D01*
X95515000Y-43028816D01*
X95456011Y-42732257D01*
X95340299Y-42452905D01*
X95172312Y-42201495D01*
X94958505Y-41987688D01*
X94707095Y-41819701D01*
X94427743Y-41703989D01*
X94131184Y-41645000D01*
X93828816Y-41645000D01*
X93532257Y-41703989D01*
X93252905Y-41819701D01*
X93001495Y-41987688D01*
X92787688Y-42201495D01*
X92619701Y-42452905D01*
X92503989Y-42732257D01*
X92445000Y-43028816D01*
X82128076Y-43028816D01*
X82303346Y-42605679D01*
X82395000Y-42144902D01*
X82395000Y-41675098D01*
X82303346Y-41214321D01*
X82123560Y-40780279D01*
X81862550Y-40389651D01*
X81530349Y-40057450D01*
X81139721Y-39796440D01*
X80705679Y-39616654D01*
X80244902Y-39525000D01*
X79775098Y-39525000D01*
X79314321Y-39616654D01*
X78880279Y-39796440D01*
X78489651Y-40057450D01*
X78157450Y-40389651D01*
X77896440Y-40780279D01*
X77716654Y-41214321D01*
X77625000Y-41675098D01*
X63985000Y-41675098D01*
X63985000Y-37485000D01*
X149516450Y-37485000D01*
X149613547Y-83315000D01*
G37*
X149613547Y-83315000D02*
X119666353Y-83315000D01*
X119639533Y-83317642D01*
X119636807Y-83317613D01*
X119627285Y-83318513D01*
X119433119Y-83338236D01*
X119372260Y-83350507D01*
X119311234Y-83361928D01*
X119302068Y-83364660D01*
X119115430Y-83421721D01*
X119058108Y-83445582D01*
X119000470Y-83468636D01*
X118992009Y-83473096D01*
X118820009Y-83565321D01*
X118768388Y-83599879D01*
X118716349Y-83633673D01*
X118708916Y-83639692D01*
X118558103Y-83763570D01*
X118514181Y-83807492D01*
X118469692Y-83850756D01*
X118463569Y-83858104D01*
X118339693Y-84008915D01*
X118305174Y-84060478D01*
X118269902Y-84111608D01*
X118265324Y-84120005D01*
X118173098Y-84292006D01*
X118149239Y-84349323D01*
X118124582Y-84406303D01*
X118121721Y-84415429D01*
X118064660Y-84602067D01*
X118052385Y-84662946D01*
X118039269Y-84723609D01*
X118038236Y-84733118D01*
X118025312Y-84860352D01*
X118024752Y-84862198D01*
X118014840Y-84962834D01*
X118014840Y-88682767D01*
X112184840Y-88666881D01*
X112184840Y-85912833D01*
X112181478Y-85878699D01*
X112181478Y-85866372D01*
X112180478Y-85856860D01*
X112159811Y-85672608D01*
X112146902Y-85611876D01*
X112134844Y-85550980D01*
X112132017Y-85541844D01*
X112075955Y-85365114D01*
X112051507Y-85308072D01*
X112027838Y-85250647D01*
X112023289Y-85242233D01*
X111933968Y-85079759D01*
X111898877Y-85028511D01*
X111864533Y-84976819D01*
X111858437Y-84969450D01*
X111739259Y-84827420D01*
X111694902Y-84783982D01*
X111651155Y-84739929D01*
X111643743Y-84733884D01*
X111499249Y-84617708D01*
X111447339Y-84583739D01*
X111395828Y-84548995D01*
X111387384Y-84544505D01*
X111223075Y-84458606D01*
X111165520Y-84435352D01*
X111108275Y-84411289D01*
X111099123Y-84408526D01*
X111099117Y-84408524D01*
X110921255Y-84356177D01*
X110860248Y-84344539D01*
X110799454Y-84332060D01*
X110789936Y-84331126D01*
X110605292Y-84314322D01*
X110543202Y-84314756D01*
X110481123Y-84314323D01*
X110471604Y-84315256D01*
X110287212Y-84334637D01*
X110226409Y-84347118D01*
X110165414Y-84358753D01*
X110156258Y-84361518D01*
X110156253Y-84361519D01*
X110156248Y-84361521D01*
X109979142Y-84416344D01*
X109921897Y-84440407D01*
X109864342Y-84463661D01*
X109855903Y-84468148D01*
X109855899Y-84468150D01*
X109855898Y-84468151D01*
X109692805Y-84556335D01*
X109641348Y-84591043D01*
X109589382Y-84625049D01*
X109581970Y-84631094D01*
X109439111Y-84749278D01*
X109395366Y-84793330D01*
X109351008Y-84836768D01*
X109344912Y-84844137D01*
X109344909Y-84844140D01*
X109344907Y-84844144D01*
X109227729Y-84987817D01*
X109193375Y-85039524D01*
X109158296Y-85090755D01*
X109153747Y-85099168D01*
X109066703Y-85262874D01*
X109043053Y-85320252D01*
X109018585Y-85377342D01*
X109015757Y-85386478D01*
X108962169Y-85563972D01*
X108950114Y-85624853D01*
X108937202Y-85685599D01*
X108936202Y-85695111D01*
X108918109Y-85879634D01*
X108918109Y-85879639D01*
X108914840Y-85912834D01*
X108914840Y-88657971D01*
X99084840Y-88631187D01*
X99084840Y-85009364D01*
X99084948Y-85008386D01*
X99084999Y-84998822D01*
X99084993Y-84995332D01*
X99084840Y-84993799D01*
X99084840Y-84962833D01*
X99082376Y-84937820D01*
X99082387Y-84936807D01*
X99081487Y-84927285D01*
X99076605Y-84879221D01*
X99074928Y-84862197D01*
X99074849Y-84861937D01*
X99061764Y-84733119D01*
X99049493Y-84672260D01*
X99038072Y-84611234D01*
X99035340Y-84602068D01*
X98978279Y-84415430D01*
X98954418Y-84358108D01*
X98931364Y-84300470D01*
X98926904Y-84292009D01*
X98834679Y-84120009D01*
X98800121Y-84068388D01*
X98766327Y-84016349D01*
X98760308Y-84008916D01*
X98636430Y-83858103D01*
X98592508Y-83814181D01*
X98549244Y-83769692D01*
X98541896Y-83763569D01*
X98391085Y-83639693D01*
X98339522Y-83605174D01*
X98288392Y-83569902D01*
X98279995Y-83565324D01*
X98107994Y-83473098D01*
X98050677Y-83449239D01*
X97993697Y-83424582D01*
X97984571Y-83421721D01*
X97797933Y-83364660D01*
X97737054Y-83352385D01*
X97676391Y-83339269D01*
X97666882Y-83338236D01*
X97538783Y-83325224D01*
X97537774Y-83324918D01*
X97437138Y-83315006D01*
X63985000Y-83315006D01*
X63985000Y-82702061D01*
X98787000Y-82702061D01*
X98787000Y-82905939D01*
X98826774Y-83105898D01*
X98904795Y-83294256D01*
X99018063Y-83463774D01*
X99162226Y-83607937D01*
X99298759Y-83699165D01*
X99295000Y-83718061D01*
X99295000Y-83921939D01*
X99334774Y-84121898D01*
X99412795Y-84310256D01*
X99526063Y-84479774D01*
X99660714Y-84614425D01*
X99588774Y-84788102D01*
X99549000Y-84988061D01*
X99549000Y-85191939D01*
X99588774Y-85391898D01*
X99666795Y-85580256D01*
X99678651Y-85598000D01*
X99666795Y-85615744D01*
X99588774Y-85804102D01*
X99549000Y-86004061D01*
X99549000Y-86207939D01*
X99588774Y-86407898D01*
X99666795Y-86596256D01*
X99780063Y-86765774D01*
X99924226Y-86909937D01*
X100093744Y-87023205D01*
X100282102Y-87101226D01*
X100482061Y-87141000D01*
X100685939Y-87141000D01*
X100885898Y-87101226D01*
X101074256Y-87023205D01*
X101243774Y-86909937D01*
X101387937Y-86765774D01*
X101501205Y-86596256D01*
X101579226Y-86407898D01*
X101619000Y-86207939D01*
X101619000Y-86076881D01*
X102778180Y-86076881D01*
X102778180Y-86280759D01*
X102817954Y-86480718D01*
X102895975Y-86669076D01*
X103009243Y-86838594D01*
X103153406Y-86982757D01*
X103322924Y-87096025D01*
X103511282Y-87174046D01*
X103711241Y-87213820D01*
X103915119Y-87213820D01*
X104115078Y-87174046D01*
X104303436Y-87096025D01*
X104472954Y-86982757D01*
X104617117Y-86838594D01*
X104730385Y-86669076D01*
X104808406Y-86480718D01*
X104848180Y-86280759D01*
X104848180Y-86076881D01*
X104808406Y-85876922D01*
X104730385Y-85688564D01*
X104617117Y-85519046D01*
X104472954Y-85374883D01*
X104303436Y-85261615D01*
X104115078Y-85183594D01*
X103915119Y-85143820D01*
X103711241Y-85143820D01*
X103511282Y-85183594D01*
X103322924Y-85261615D01*
X103153406Y-85374883D01*
X103009243Y-85519046D01*
X102895975Y-85688564D01*
X102817954Y-85876922D01*
X102778180Y-86076881D01*
X101619000Y-86076881D01*
X101619000Y-86004061D01*
X101579226Y-85804102D01*
X101501205Y-85615744D01*
X101489349Y-85598000D01*
X101501205Y-85580256D01*
X101579226Y-85391898D01*
X101619000Y-85191939D01*
X101619000Y-84988061D01*
X101579226Y-84788102D01*
X101501205Y-84599744D01*
X101387937Y-84430226D01*
X101253286Y-84295575D01*
X101325226Y-84121898D01*
X101365000Y-83921939D01*
X101365000Y-83718061D01*
X101325226Y-83518102D01*
X101247205Y-83329744D01*
X101133937Y-83160226D01*
X100989774Y-83016063D01*
X100853241Y-82924835D01*
X100857000Y-82905939D01*
X100857000Y-82702061D01*
X100817226Y-82502102D01*
X100739205Y-82313744D01*
X100625937Y-82144226D01*
X100481774Y-82000063D01*
X100312256Y-81886795D01*
X100123898Y-81808774D01*
X99923939Y-81769000D01*
X99720061Y-81769000D01*
X99520102Y-81808774D01*
X99331744Y-81886795D01*
X99162226Y-82000063D01*
X99018063Y-82144226D01*
X98904795Y-82313744D01*
X98826774Y-82502102D01*
X98787000Y-82702061D01*
X63985000Y-82702061D01*
X63985000Y-78892061D01*
X72371000Y-78892061D01*
X72371000Y-79095939D01*
X72410774Y-79295898D01*
X72488795Y-79484256D01*
X72602063Y-79653774D01*
X72746226Y-79797937D01*
X72915744Y-79911205D01*
X73104102Y-79989226D01*
X73304061Y-80029000D01*
X73507939Y-80029000D01*
X73707898Y-79989226D01*
X73896256Y-79911205D01*
X74065774Y-79797937D01*
X74209937Y-79653774D01*
X74323205Y-79484256D01*
X74401226Y-79295898D01*
X74441000Y-79095939D01*
X74441000Y-78892061D01*
X74657000Y-78892061D01*
X74657000Y-79095939D01*
X74696774Y-79295898D01*
X74774795Y-79484256D01*
X74888063Y-79653774D01*
X75032226Y-79797937D01*
X75201744Y-79911205D01*
X75390102Y-79989226D01*
X75590061Y-80029000D01*
X75793939Y-80029000D01*
X75993898Y-79989226D01*
X76182256Y-79911205D01*
X76186961Y-79908061D01*
X114027000Y-79908061D01*
X114027000Y-80111939D01*
X114066774Y-80311898D01*
X114144795Y-80500256D01*
X114258063Y-80669774D01*
X114402226Y-80813937D01*
X114571744Y-80927205D01*
X114760102Y-81005226D01*
X114960061Y-81045000D01*
X115163939Y-81045000D01*
X115363898Y-81005226D01*
X115552256Y-80927205D01*
X115721774Y-80813937D01*
X115865937Y-80669774D01*
X115979205Y-80500256D01*
X116057226Y-80311898D01*
X116097000Y-80111939D01*
X116097000Y-79908061D01*
X116057226Y-79708102D01*
X115979205Y-79519744D01*
X115865937Y-79350226D01*
X115721774Y-79206063D01*
X115552256Y-79092795D01*
X115363898Y-79014774D01*
X115163939Y-78975000D01*
X114960061Y-78975000D01*
X114760102Y-79014774D01*
X114571744Y-79092795D01*
X114402226Y-79206063D01*
X114258063Y-79350226D01*
X114144795Y-79519744D01*
X114066774Y-79708102D01*
X114027000Y-79908061D01*
X76186961Y-79908061D01*
X76351774Y-79797937D01*
X76495937Y-79653774D01*
X76609205Y-79484256D01*
X76687226Y-79295898D01*
X76727000Y-79095939D01*
X76727000Y-78892061D01*
X76687226Y-78692102D01*
X76609205Y-78503744D01*
X76495937Y-78334226D01*
X76351774Y-78190063D01*
X76182256Y-78076795D01*
X75993898Y-77998774D01*
X75793939Y-77959000D01*
X75590061Y-77959000D01*
X75390102Y-77998774D01*
X75201744Y-78076795D01*
X75032226Y-78190063D01*
X74888063Y-78334226D01*
X74774795Y-78503744D01*
X74696774Y-78692102D01*
X74657000Y-78892061D01*
X74441000Y-78892061D01*
X74401226Y-78692102D01*
X74323205Y-78503744D01*
X74209937Y-78334226D01*
X74065774Y-78190063D01*
X73896256Y-78076795D01*
X73707898Y-77998774D01*
X73507939Y-77959000D01*
X73304061Y-77959000D01*
X73104102Y-77998774D01*
X72915744Y-78076795D01*
X72746226Y-78190063D01*
X72602063Y-78334226D01*
X72488795Y-78503744D01*
X72410774Y-78692102D01*
X72371000Y-78892061D01*
X63985000Y-78892061D01*
X63985000Y-77876061D01*
X127235000Y-77876061D01*
X127235000Y-78079939D01*
X127274774Y-78279898D01*
X127352795Y-78468256D01*
X127466063Y-78637774D01*
X127610226Y-78781937D01*
X127779744Y-78895205D01*
X127968102Y-78973226D01*
X128168061Y-79013000D01*
X128371939Y-79013000D01*
X128571898Y-78973226D01*
X128760256Y-78895205D01*
X128929774Y-78781937D01*
X129073937Y-78637774D01*
X129187205Y-78468256D01*
X129265226Y-78279898D01*
X129295030Y-78130061D01*
X129775000Y-78130061D01*
X129775000Y-78333939D01*
X129814774Y-78533898D01*
X129892795Y-78722256D01*
X130006063Y-78891774D01*
X130150226Y-79035937D01*
X130319744Y-79149205D01*
X130508102Y-79227226D01*
X130708061Y-79267000D01*
X130911939Y-79267000D01*
X131111898Y-79227226D01*
X131300256Y-79149205D01*
X131469774Y-79035937D01*
X131613937Y-78891774D01*
X131727205Y-78722256D01*
X131805226Y-78533898D01*
X131845000Y-78333939D01*
X131845000Y-78130061D01*
X131805226Y-77930102D01*
X131727205Y-77741744D01*
X131613937Y-77572226D01*
X131469774Y-77428063D01*
X131300256Y-77314795D01*
X131111898Y-77236774D01*
X130911939Y-77197000D01*
X130708061Y-77197000D01*
X130508102Y-77236774D01*
X130319744Y-77314795D01*
X130150226Y-77428063D01*
X130006063Y-77572226D01*
X129892795Y-77741744D01*
X129814774Y-77930102D01*
X129775000Y-78130061D01*
X129295030Y-78130061D01*
X129305000Y-78079939D01*
X129305000Y-77876061D01*
X129265226Y-77676102D01*
X129187205Y-77487744D01*
X129073937Y-77318226D01*
X128929774Y-77174063D01*
X128760256Y-77060795D01*
X128571898Y-76982774D01*
X128371939Y-76943000D01*
X128168061Y-76943000D01*
X127968102Y-76982774D01*
X127779744Y-77060795D01*
X127610226Y-77174063D01*
X127466063Y-77318226D01*
X127352795Y-77487744D01*
X127274774Y-77676102D01*
X127235000Y-77876061D01*
X63985000Y-77876061D01*
X63985000Y-76606061D01*
X71355000Y-76606061D01*
X71355000Y-76809939D01*
X71394774Y-77009898D01*
X71472795Y-77198256D01*
X71586063Y-77367774D01*
X71730226Y-77511937D01*
X71899744Y-77625205D01*
X72088102Y-77703226D01*
X72288061Y-77743000D01*
X72491939Y-77743000D01*
X72691898Y-77703226D01*
X72880256Y-77625205D01*
X73049774Y-77511937D01*
X73193937Y-77367774D01*
X73307205Y-77198256D01*
X73385226Y-77009898D01*
X73425000Y-76809939D01*
X73425000Y-76606061D01*
X73641000Y-76606061D01*
X73641000Y-76809939D01*
X73680774Y-77009898D01*
X73758795Y-77198256D01*
X73872063Y-77367774D01*
X74016226Y-77511937D01*
X74185744Y-77625205D01*
X74374102Y-77703226D01*
X74574061Y-77743000D01*
X74777939Y-77743000D01*
X74977898Y-77703226D01*
X75166256Y-77625205D01*
X75335774Y-77511937D01*
X75479937Y-77367774D01*
X75593205Y-77198256D01*
X75671226Y-77009898D01*
X75711000Y-76809939D01*
X75711000Y-76606061D01*
X75671226Y-76406102D01*
X75593205Y-76217744D01*
X75479937Y-76048226D01*
X75335774Y-75904063D01*
X75166256Y-75790795D01*
X74977898Y-75712774D01*
X74777939Y-75673000D01*
X74574061Y-75673000D01*
X74374102Y-75712774D01*
X74185744Y-75790795D01*
X74016226Y-75904063D01*
X73872063Y-76048226D01*
X73758795Y-76217744D01*
X73680774Y-76406102D01*
X73641000Y-76606061D01*
X73425000Y-76606061D01*
X73385226Y-76406102D01*
X73307205Y-76217744D01*
X73193937Y-76048226D01*
X73049774Y-75904063D01*
X72880256Y-75790795D01*
X72691898Y-75712774D01*
X72491939Y-75673000D01*
X72288061Y-75673000D01*
X72088102Y-75712774D01*
X71899744Y-75790795D01*
X71730226Y-75904063D01*
X71586063Y-76048226D01*
X71472795Y-76217744D01*
X71394774Y-76406102D01*
X71355000Y-76606061D01*
X63985000Y-76606061D01*
X63985000Y-75017509D01*
X77051000Y-75017509D01*
X77051000Y-75858492D01*
X77071764Y-76069309D01*
X77153818Y-76339808D01*
X77287068Y-76589101D01*
X77466393Y-76807608D01*
X77684900Y-76986932D01*
X77934193Y-77120182D01*
X78204692Y-77202236D01*
X78486000Y-77229943D01*
X78767309Y-77202236D01*
X79037808Y-77120182D01*
X79287101Y-76986932D01*
X79505608Y-76807608D01*
X79684932Y-76589101D01*
X79818182Y-76339808D01*
X79900236Y-76069308D01*
X79921000Y-75858491D01*
X79921000Y-75017509D01*
X87211000Y-75017509D01*
X87211000Y-75858492D01*
X87231764Y-76069309D01*
X87313818Y-76339808D01*
X87447068Y-76589101D01*
X87626393Y-76807608D01*
X87844900Y-76986932D01*
X88094193Y-77120182D01*
X88364692Y-77202236D01*
X88646000Y-77229943D01*
X88927309Y-77202236D01*
X89197808Y-77120182D01*
X89447101Y-76986932D01*
X89665608Y-76807608D01*
X89844932Y-76589101D01*
X89916000Y-76456142D01*
X89987068Y-76589101D01*
X90166393Y-76807608D01*
X90384900Y-76986932D01*
X90634193Y-77120182D01*
X90904692Y-77202236D01*
X91186000Y-77229943D01*
X91467309Y-77202236D01*
X91737808Y-77120182D01*
X91987101Y-76986932D01*
X92205608Y-76807608D01*
X92384932Y-76589101D01*
X92518182Y-76339808D01*
X92591514Y-76098061D01*
X107169000Y-76098061D01*
X107169000Y-76301939D01*
X107208774Y-76501898D01*
X107286795Y-76690256D01*
X107400063Y-76859774D01*
X107544226Y-77003937D01*
X107713744Y-77117205D01*
X107902102Y-77195226D01*
X108102061Y-77235000D01*
X108305939Y-77235000D01*
X108505898Y-77195226D01*
X108694256Y-77117205D01*
X108863774Y-77003937D01*
X109007937Y-76859774D01*
X109121205Y-76690256D01*
X109199226Y-76501898D01*
X109239000Y-76301939D01*
X109239000Y-76098061D01*
X109199226Y-75898102D01*
X109121205Y-75709744D01*
X109007937Y-75540226D01*
X108863774Y-75396063D01*
X108694256Y-75282795D01*
X108505898Y-75204774D01*
X108305939Y-75165000D01*
X108102061Y-75165000D01*
X107902102Y-75204774D01*
X107713744Y-75282795D01*
X107544226Y-75396063D01*
X107400063Y-75540226D01*
X107286795Y-75709744D01*
X107208774Y-75898102D01*
X107169000Y-76098061D01*
X92591514Y-76098061D01*
X92600236Y-76069308D01*
X92621000Y-75858491D01*
X92621000Y-75017508D01*
X92602341Y-74828061D01*
X109455000Y-74828061D01*
X109455000Y-75031939D01*
X109494774Y-75231898D01*
X109572795Y-75420256D01*
X109686063Y-75589774D01*
X109830226Y-75733937D01*
X109999744Y-75847205D01*
X110188102Y-75925226D01*
X110388061Y-75965000D01*
X110591939Y-75965000D01*
X110791898Y-75925226D01*
X110980256Y-75847205D01*
X111149774Y-75733937D01*
X111293937Y-75589774D01*
X111407205Y-75420256D01*
X111485226Y-75231898D01*
X111525000Y-75031939D01*
X111525000Y-74828061D01*
X111485226Y-74628102D01*
X111407205Y-74439744D01*
X111293937Y-74270226D01*
X111149774Y-74126063D01*
X110980256Y-74012795D01*
X110791898Y-73934774D01*
X110591939Y-73895000D01*
X110388061Y-73895000D01*
X110188102Y-73934774D01*
X109999744Y-74012795D01*
X109830226Y-74126063D01*
X109686063Y-74270226D01*
X109572795Y-74439744D01*
X109494774Y-74628102D01*
X109455000Y-74828061D01*
X92602341Y-74828061D01*
X92600236Y-74806691D01*
X92518182Y-74536192D01*
X92384932Y-74286899D01*
X92205607Y-74068392D01*
X91987100Y-73889068D01*
X91737807Y-73755818D01*
X91467308Y-73673764D01*
X91186000Y-73646057D01*
X90904691Y-73673764D01*
X90634192Y-73755818D01*
X90384899Y-73889068D01*
X90166392Y-74068393D01*
X89987068Y-74286900D01*
X89916000Y-74419858D01*
X89844932Y-74286899D01*
X89665607Y-74068392D01*
X89447100Y-73889068D01*
X89197807Y-73755818D01*
X88927308Y-73673764D01*
X88646000Y-73646057D01*
X88364691Y-73673764D01*
X88094192Y-73755818D01*
X87844899Y-73889068D01*
X87626392Y-74068393D01*
X87447068Y-74286900D01*
X87313818Y-74536193D01*
X87231764Y-74806692D01*
X87211000Y-75017509D01*
X79921000Y-75017509D01*
X79921000Y-75017508D01*
X79900236Y-74806691D01*
X79818182Y-74536192D01*
X79684932Y-74286899D01*
X79505607Y-74068392D01*
X79287100Y-73889068D01*
X79037807Y-73755818D01*
X78767308Y-73673764D01*
X78486000Y-73646057D01*
X78204691Y-73673764D01*
X77934192Y-73755818D01*
X77684899Y-73889068D01*
X77466392Y-74068393D01*
X77287068Y-74286900D01*
X77153818Y-74536193D01*
X77071764Y-74806692D01*
X77051000Y-75017509D01*
X63985000Y-75017509D01*
X63985000Y-73558061D01*
X107423000Y-73558061D01*
X107423000Y-73761939D01*
X107462774Y-73961898D01*
X107540795Y-74150256D01*
X107654063Y-74319774D01*
X107798226Y-74463937D01*
X107967744Y-74577205D01*
X108156102Y-74655226D01*
X108356061Y-74695000D01*
X108559939Y-74695000D01*
X108759898Y-74655226D01*
X108948256Y-74577205D01*
X109117774Y-74463937D01*
X109261937Y-74319774D01*
X109375205Y-74150256D01*
X109453226Y-73961898D01*
X109493000Y-73761939D01*
X109493000Y-73558061D01*
X109453226Y-73358102D01*
X109375205Y-73169744D01*
X109261937Y-73000226D01*
X109117774Y-72856063D01*
X108948256Y-72742795D01*
X108759898Y-72664774D01*
X108559939Y-72625000D01*
X108356061Y-72625000D01*
X108156102Y-72664774D01*
X107967744Y-72742795D01*
X107798226Y-72856063D01*
X107654063Y-73000226D01*
X107540795Y-73169744D01*
X107462774Y-73358102D01*
X107423000Y-73558061D01*
X63985000Y-73558061D01*
X63985000Y-72288061D01*
X109201000Y-72288061D01*
X109201000Y-72491939D01*
X109240774Y-72691898D01*
X109318795Y-72880256D01*
X109432063Y-73049774D01*
X109576226Y-73193937D01*
X109745744Y-73307205D01*
X109934102Y-73385226D01*
X110134061Y-73425000D01*
X110337939Y-73425000D01*
X110537898Y-73385226D01*
X110726256Y-73307205D01*
X110895774Y-73193937D01*
X111039937Y-73049774D01*
X111153205Y-72880256D01*
X111231226Y-72691898D01*
X111271000Y-72491939D01*
X111271000Y-72288061D01*
X111231226Y-72088102D01*
X111153205Y-71899744D01*
X111039937Y-71730226D01*
X110895774Y-71586063D01*
X110726256Y-71472795D01*
X110537898Y-71394774D01*
X110337939Y-71355000D01*
X110134061Y-71355000D01*
X109934102Y-71394774D01*
X109745744Y-71472795D01*
X109576226Y-71586063D01*
X109432063Y-71730226D01*
X109318795Y-71899744D01*
X109240774Y-72088102D01*
X109201000Y-72288061D01*
X63985000Y-72288061D01*
X63985000Y-71018061D01*
X107169000Y-71018061D01*
X107169000Y-71221939D01*
X107208774Y-71421898D01*
X107286795Y-71610256D01*
X107400063Y-71779774D01*
X107544226Y-71923937D01*
X107713744Y-72037205D01*
X107902102Y-72115226D01*
X108102061Y-72155000D01*
X108305939Y-72155000D01*
X108505898Y-72115226D01*
X108694256Y-72037205D01*
X108863774Y-71923937D01*
X109007937Y-71779774D01*
X109121205Y-71610256D01*
X109199226Y-71421898D01*
X109239000Y-71221939D01*
X109239000Y-71018061D01*
X109199226Y-70818102D01*
X109121205Y-70629744D01*
X109007937Y-70460226D01*
X108863774Y-70316063D01*
X108773975Y-70256061D01*
X113773000Y-70256061D01*
X113773000Y-70459939D01*
X113812774Y-70659898D01*
X113890795Y-70848256D01*
X114004063Y-71017774D01*
X114148226Y-71161937D01*
X114317744Y-71275205D01*
X114506102Y-71353226D01*
X114706061Y-71393000D01*
X114909939Y-71393000D01*
X115109898Y-71353226D01*
X115298256Y-71275205D01*
X115467774Y-71161937D01*
X115611937Y-71017774D01*
X115725205Y-70848256D01*
X115803226Y-70659898D01*
X115843000Y-70459939D01*
X115843000Y-70256061D01*
X115803226Y-70056102D01*
X115725205Y-69867744D01*
X115611937Y-69698226D01*
X115467774Y-69554063D01*
X115298256Y-69440795D01*
X115109898Y-69362774D01*
X114909939Y-69323000D01*
X114706061Y-69323000D01*
X114506102Y-69362774D01*
X114317744Y-69440795D01*
X114148226Y-69554063D01*
X114004063Y-69698226D01*
X113890795Y-69867744D01*
X113812774Y-70056102D01*
X113773000Y-70256061D01*
X108773975Y-70256061D01*
X108694256Y-70202795D01*
X108505898Y-70124774D01*
X108305939Y-70085000D01*
X108102061Y-70085000D01*
X107902102Y-70124774D01*
X107713744Y-70202795D01*
X107544226Y-70316063D01*
X107400063Y-70460226D01*
X107286795Y-70629744D01*
X107208774Y-70818102D01*
X107169000Y-71018061D01*
X63985000Y-71018061D01*
X63985000Y-67397509D01*
X77051000Y-67397509D01*
X77051000Y-68238492D01*
X77071764Y-68449309D01*
X77153818Y-68719808D01*
X77287068Y-68969101D01*
X77466393Y-69187608D01*
X77684900Y-69366932D01*
X77934193Y-69500182D01*
X78204692Y-69582236D01*
X78486000Y-69609943D01*
X78767309Y-69582236D01*
X79037808Y-69500182D01*
X79287101Y-69366932D01*
X79505608Y-69187608D01*
X79684932Y-68969101D01*
X79818182Y-68719808D01*
X79900236Y-68449308D01*
X79921000Y-68238491D01*
X79921000Y-67397509D01*
X87211000Y-67397509D01*
X87211000Y-68238492D01*
X87231764Y-68449309D01*
X87313818Y-68719808D01*
X87447068Y-68969101D01*
X87626393Y-69187608D01*
X87844900Y-69366932D01*
X88094193Y-69500182D01*
X88364692Y-69582236D01*
X88646000Y-69609943D01*
X88927309Y-69582236D01*
X89197808Y-69500182D01*
X89447101Y-69366932D01*
X89665608Y-69187608D01*
X89844932Y-68969101D01*
X89913265Y-68841259D01*
X90063399Y-69070839D01*
X90261105Y-69272500D01*
X90494354Y-69431715D01*
X90754182Y-69542367D01*
X90836961Y-69559904D01*
X91059000Y-69437915D01*
X91059000Y-67945000D01*
X91313000Y-67945000D01*
X91313000Y-69437915D01*
X91535039Y-69559904D01*
X91617818Y-69542367D01*
X91877646Y-69431715D01*
X92110895Y-69272500D01*
X92308601Y-69070839D01*
X92463166Y-68834483D01*
X92568650Y-68572514D01*
X92586467Y-68478061D01*
X112503000Y-68478061D01*
X112503000Y-68681939D01*
X112542774Y-68881898D01*
X112620795Y-69070256D01*
X112734063Y-69239774D01*
X112878226Y-69383937D01*
X113047744Y-69497205D01*
X113236102Y-69575226D01*
X113436061Y-69615000D01*
X113639939Y-69615000D01*
X113839898Y-69575226D01*
X114028256Y-69497205D01*
X114197774Y-69383937D01*
X114341937Y-69239774D01*
X114455205Y-69070256D01*
X114533226Y-68881898D01*
X114573000Y-68681939D01*
X114573000Y-68478061D01*
X114533226Y-68278102D01*
X114455205Y-68089744D01*
X114341937Y-67920226D01*
X114197774Y-67776063D01*
X114028256Y-67662795D01*
X113839898Y-67584774D01*
X113639939Y-67545000D01*
X113436061Y-67545000D01*
X113236102Y-67584774D01*
X113047744Y-67662795D01*
X112878226Y-67776063D01*
X112734063Y-67920226D01*
X112620795Y-68089744D01*
X112542774Y-68278102D01*
X112503000Y-68478061D01*
X92586467Y-68478061D01*
X92621000Y-68295000D01*
X92621000Y-67945000D01*
X91313000Y-67945000D01*
X91059000Y-67945000D01*
X91039000Y-67945000D01*
X91039000Y-67691000D01*
X91059000Y-67691000D01*
X91059000Y-66198085D01*
X91313000Y-66198085D01*
X91313000Y-67691000D01*
X92621000Y-67691000D01*
X92621000Y-67341000D01*
X92595923Y-67208061D01*
X109201000Y-67208061D01*
X109201000Y-67411939D01*
X109240774Y-67611898D01*
X109318795Y-67800256D01*
X109432063Y-67969774D01*
X109576226Y-68113937D01*
X109745744Y-68227205D01*
X109934102Y-68305226D01*
X110134061Y-68345000D01*
X110337939Y-68345000D01*
X110537898Y-68305226D01*
X110726256Y-68227205D01*
X110895774Y-68113937D01*
X111039937Y-67969774D01*
X111153205Y-67800256D01*
X111231226Y-67611898D01*
X111271000Y-67411939D01*
X111271000Y-67208061D01*
X111231226Y-67008102D01*
X111153205Y-66819744D01*
X111039937Y-66650226D01*
X110895774Y-66506063D01*
X110726256Y-66392795D01*
X110537898Y-66314774D01*
X110337939Y-66275000D01*
X110134061Y-66275000D01*
X109934102Y-66314774D01*
X109745744Y-66392795D01*
X109576226Y-66506063D01*
X109432063Y-66650226D01*
X109318795Y-66819744D01*
X109240774Y-67008102D01*
X109201000Y-67208061D01*
X92595923Y-67208061D01*
X92568650Y-67063486D01*
X92463166Y-66801517D01*
X92308601Y-66565161D01*
X92110895Y-66363500D01*
X91877646Y-66204285D01*
X91617818Y-66093633D01*
X91535039Y-66076096D01*
X91313000Y-66198085D01*
X91059000Y-66198085D01*
X90836961Y-66076096D01*
X90754182Y-66093633D01*
X90494354Y-66204285D01*
X90261105Y-66363500D01*
X90063399Y-66565161D01*
X89913265Y-66794741D01*
X89844932Y-66666899D01*
X89665607Y-66448392D01*
X89447100Y-66269068D01*
X89197807Y-66135818D01*
X88927308Y-66053764D01*
X88646000Y-66026057D01*
X88364691Y-66053764D01*
X88094192Y-66135818D01*
X87844899Y-66269068D01*
X87626392Y-66448393D01*
X87447068Y-66666900D01*
X87313818Y-66916193D01*
X87231764Y-67186692D01*
X87211000Y-67397509D01*
X79921000Y-67397509D01*
X79921000Y-67397508D01*
X79900236Y-67186691D01*
X79818182Y-66916192D01*
X79684932Y-66666899D01*
X79505607Y-66448392D01*
X79287100Y-66269068D01*
X79037807Y-66135818D01*
X78767308Y-66053764D01*
X78486000Y-66026057D01*
X78204691Y-66053764D01*
X77934192Y-66135818D01*
X77684899Y-66269068D01*
X77466392Y-66448393D01*
X77287068Y-66666900D01*
X77153818Y-66916193D01*
X77071764Y-67186692D01*
X77051000Y-67397509D01*
X63985000Y-67397509D01*
X63985000Y-62636061D01*
X118853000Y-62636061D01*
X118853000Y-62839939D01*
X118892774Y-63039898D01*
X118970795Y-63228256D01*
X119084063Y-63397774D01*
X119228226Y-63541937D01*
X119397744Y-63655205D01*
X119586102Y-63733226D01*
X119786061Y-63773000D01*
X119989939Y-63773000D01*
X120189898Y-63733226D01*
X120378256Y-63655205D01*
X120547774Y-63541937D01*
X120691937Y-63397774D01*
X120805205Y-63228256D01*
X120883226Y-63039898D01*
X120923000Y-62839939D01*
X120923000Y-62636061D01*
X120883226Y-62436102D01*
X120805205Y-62247744D01*
X120691937Y-62078226D01*
X120547774Y-61934063D01*
X120378256Y-61820795D01*
X120189898Y-61742774D01*
X119989939Y-61703000D01*
X119786061Y-61703000D01*
X119586102Y-61742774D01*
X119397744Y-61820795D01*
X119228226Y-61934063D01*
X119084063Y-62078226D01*
X118970795Y-62247744D01*
X118892774Y-62436102D01*
X118853000Y-62636061D01*
X63985000Y-62636061D01*
X63985000Y-57570000D01*
X75879428Y-57570000D01*
X75879428Y-59570000D01*
X75891688Y-59694482D01*
X75927998Y-59814180D01*
X75986963Y-59924494D01*
X76066315Y-60021185D01*
X76163006Y-60100537D01*
X76273320Y-60159502D01*
X76393018Y-60195812D01*
X76517500Y-60208072D01*
X78422500Y-60208072D01*
X78546982Y-60195812D01*
X78666680Y-60159502D01*
X78776994Y-60100537D01*
X78873685Y-60021185D01*
X78953037Y-59924494D01*
X78997905Y-59840553D01*
X79123766Y-59943845D01*
X79399552Y-60091255D01*
X79698797Y-60182030D01*
X80010000Y-60212681D01*
X80321204Y-60182030D01*
X80620449Y-60091255D01*
X80896235Y-59943845D01*
X81137963Y-59745463D01*
X81280000Y-59572391D01*
X81422037Y-59745463D01*
X81663766Y-59943845D01*
X81939552Y-60091255D01*
X82238797Y-60182030D01*
X82550000Y-60212681D01*
X82861204Y-60182030D01*
X83160449Y-60091255D01*
X83436235Y-59943845D01*
X83677963Y-59745463D01*
X83876345Y-59503734D01*
X84023755Y-59227948D01*
X84114530Y-58928703D01*
X84137500Y-58695485D01*
X84137500Y-58444514D01*
X84114530Y-58211296D01*
X84023755Y-57912051D01*
X83876345Y-57636265D01*
X83677963Y-57394537D01*
X83436234Y-57196155D01*
X83160448Y-57048745D01*
X82861203Y-56957970D01*
X82550000Y-56927319D01*
X82238796Y-56957970D01*
X81939551Y-57048745D01*
X81663765Y-57196155D01*
X81422037Y-57394537D01*
X81280000Y-57567609D01*
X81137963Y-57394537D01*
X80896234Y-57196155D01*
X80620448Y-57048745D01*
X80321203Y-56957970D01*
X80010000Y-56927319D01*
X79698796Y-56957970D01*
X79399551Y-57048745D01*
X79123765Y-57196155D01*
X78997905Y-57299446D01*
X78953037Y-57215506D01*
X78873685Y-57118815D01*
X78776994Y-57039463D01*
X78666680Y-56980498D01*
X78546982Y-56944188D01*
X78422500Y-56931928D01*
X76517500Y-56931928D01*
X76393018Y-56944188D01*
X76273320Y-56980498D01*
X76163006Y-57039463D01*
X76066315Y-57118815D01*
X75986963Y-57215506D01*
X75927998Y-57325820D01*
X75891688Y-57445518D01*
X75879428Y-57570000D01*
X63985000Y-57570000D01*
X63985000Y-56540061D01*
X85833000Y-56540061D01*
X85833000Y-56743939D01*
X85872774Y-56943898D01*
X85950795Y-57132256D01*
X86064063Y-57301774D01*
X86208226Y-57445937D01*
X86377744Y-57559205D01*
X86566102Y-57637226D01*
X86766061Y-57677000D01*
X86969939Y-57677000D01*
X87169898Y-57637226D01*
X87358256Y-57559205D01*
X87527774Y-57445937D01*
X87671937Y-57301774D01*
X87785205Y-57132256D01*
X87863226Y-56943898D01*
X87903000Y-56743939D01*
X87903000Y-56540061D01*
X87863226Y-56340102D01*
X87785205Y-56151744D01*
X87671937Y-55982226D01*
X87527774Y-55838063D01*
X87364274Y-55728816D01*
X92445000Y-55728816D01*
X92445000Y-56031184D01*
X92503989Y-56327743D01*
X92619701Y-56607095D01*
X92787688Y-56858505D01*
X93001495Y-57072312D01*
X93252905Y-57240299D01*
X93532257Y-57356011D01*
X93828816Y-57415000D01*
X94131184Y-57415000D01*
X94427743Y-57356011D01*
X94707095Y-57240299D01*
X94958505Y-57072312D01*
X95172312Y-56858505D01*
X95340299Y-56607095D01*
X95456011Y-56327743D01*
X95515000Y-56031184D01*
X95515000Y-55728816D01*
X98795000Y-55728816D01*
X98795000Y-56031184D01*
X98853989Y-56327743D01*
X98969701Y-56607095D01*
X99137688Y-56858505D01*
X99351495Y-57072312D01*
X99602905Y-57240299D01*
X99882257Y-57356011D01*
X100178816Y-57415000D01*
X100481184Y-57415000D01*
X100777743Y-57356011D01*
X101057095Y-57240299D01*
X101308505Y-57072312D01*
X101522312Y-56858505D01*
X101690299Y-56607095D01*
X101755370Y-56450000D01*
X106611928Y-56450000D01*
X106611928Y-57850000D01*
X106624188Y-57974482D01*
X106660498Y-58094180D01*
X106719463Y-58204494D01*
X106798815Y-58301185D01*
X106895506Y-58380537D01*
X107005820Y-58439502D01*
X107125518Y-58475812D01*
X107250000Y-58488072D01*
X108650000Y-58488072D01*
X108774482Y-58475812D01*
X108894180Y-58439502D01*
X109004494Y-58380537D01*
X109101185Y-58301185D01*
X109180537Y-58204494D01*
X109239502Y-58094180D01*
X109275812Y-57974482D01*
X109288072Y-57850000D01*
X109288072Y-56450000D01*
X112961928Y-56450000D01*
X112961928Y-57850000D01*
X112974188Y-57974482D01*
X113010498Y-58094180D01*
X113069463Y-58204494D01*
X113148815Y-58301185D01*
X113245506Y-58380537D01*
X113355820Y-58439502D01*
X113475518Y-58475812D01*
X113600000Y-58488072D01*
X115000000Y-58488072D01*
X115124482Y-58475812D01*
X115244180Y-58439502D01*
X115354494Y-58380537D01*
X115451185Y-58301185D01*
X115530537Y-58204494D01*
X115589502Y-58094180D01*
X115625812Y-57974482D01*
X115638072Y-57850000D01*
X115638072Y-56450000D01*
X119311928Y-56450000D01*
X119311928Y-57850000D01*
X119324188Y-57974482D01*
X119360498Y-58094180D01*
X119419463Y-58204494D01*
X119498815Y-58301185D01*
X119595506Y-58380537D01*
X119705820Y-58439502D01*
X119825518Y-58475812D01*
X119950000Y-58488072D01*
X121350000Y-58488072D01*
X121474482Y-58475812D01*
X121594180Y-58439502D01*
X121704494Y-58380537D01*
X121801185Y-58301185D01*
X121880537Y-58204494D01*
X121939502Y-58094180D01*
X121975812Y-57974482D01*
X121988072Y-57850000D01*
X121988072Y-56450000D01*
X125661928Y-56450000D01*
X125661928Y-57850000D01*
X125674188Y-57974482D01*
X125710498Y-58094180D01*
X125769463Y-58204494D01*
X125848815Y-58301185D01*
X125945506Y-58380537D01*
X126055820Y-58439502D01*
X126175518Y-58475812D01*
X126300000Y-58488072D01*
X127700000Y-58488072D01*
X127824482Y-58475812D01*
X127944180Y-58439502D01*
X128054494Y-58380537D01*
X128151185Y-58301185D01*
X128230537Y-58204494D01*
X128289502Y-58094180D01*
X128325812Y-57974482D01*
X128338072Y-57850000D01*
X128338072Y-56450000D01*
X132011928Y-56450000D01*
X132011928Y-57850000D01*
X132024188Y-57974482D01*
X132060498Y-58094180D01*
X132119463Y-58204494D01*
X132198815Y-58301185D01*
X132295506Y-58380537D01*
X132405820Y-58439502D01*
X132525518Y-58475812D01*
X132650000Y-58488072D01*
X134050000Y-58488072D01*
X134174482Y-58475812D01*
X134294180Y-58439502D01*
X134404494Y-58380537D01*
X134501185Y-58301185D01*
X134580537Y-58204494D01*
X134639502Y-58094180D01*
X134675812Y-57974482D01*
X134688072Y-57850000D01*
X134688072Y-56450000D01*
X138361928Y-56450000D01*
X138361928Y-57850000D01*
X138374188Y-57974482D01*
X138410498Y-58094180D01*
X138469463Y-58204494D01*
X138548815Y-58301185D01*
X138645506Y-58380537D01*
X138755820Y-58439502D01*
X138875518Y-58475812D01*
X139000000Y-58488072D01*
X140400000Y-58488072D01*
X140524482Y-58475812D01*
X140644180Y-58439502D01*
X140754494Y-58380537D01*
X140851185Y-58301185D01*
X140930537Y-58204494D01*
X140989502Y-58094180D01*
X141025812Y-57974482D01*
X141038072Y-57850000D01*
X144711928Y-57850000D01*
X144724188Y-57974482D01*
X144760498Y-58094180D01*
X144819463Y-58204494D01*
X144898815Y-58301185D01*
X144995506Y-58380537D01*
X145105820Y-58439502D01*
X145225518Y-58475812D01*
X145350000Y-58488072D01*
X145764250Y-58485000D01*
X145923000Y-58326250D01*
X145923000Y-57277000D01*
X146177000Y-57277000D01*
X146177000Y-58326250D01*
X146335750Y-58485000D01*
X146750000Y-58488072D01*
X146874482Y-58475812D01*
X146994180Y-58439502D01*
X147104494Y-58380537D01*
X147201185Y-58301185D01*
X147280537Y-58204494D01*
X147339502Y-58094180D01*
X147375812Y-57974482D01*
X147388072Y-57850000D01*
X147385000Y-57435750D01*
X147226250Y-57277000D01*
X146177000Y-57277000D01*
X145923000Y-57277000D01*
X144873750Y-57277000D01*
X144715000Y-57435750D01*
X144711928Y-57850000D01*
X141038072Y-57850000D01*
X141038072Y-56450000D01*
X144711928Y-56450000D01*
X144715000Y-56864250D01*
X144873750Y-57023000D01*
X145923000Y-57023000D01*
X145923000Y-55973750D01*
X146177000Y-55973750D01*
X146177000Y-57023000D01*
X147226250Y-57023000D01*
X147385000Y-56864250D01*
X147388072Y-56450000D01*
X147375812Y-56325518D01*
X147339502Y-56205820D01*
X147280537Y-56095506D01*
X147201185Y-55998815D01*
X147104494Y-55919463D01*
X146994180Y-55860498D01*
X146874482Y-55824188D01*
X146750000Y-55811928D01*
X146335750Y-55815000D01*
X146177000Y-55973750D01*
X145923000Y-55973750D01*
X145764250Y-55815000D01*
X145350000Y-55811928D01*
X145225518Y-55824188D01*
X145105820Y-55860498D01*
X144995506Y-55919463D01*
X144898815Y-55998815D01*
X144819463Y-56095506D01*
X144760498Y-56205820D01*
X144724188Y-56325518D01*
X144711928Y-56450000D01*
X141038072Y-56450000D01*
X141025812Y-56325518D01*
X140989502Y-56205820D01*
X140930537Y-56095506D01*
X140851185Y-55998815D01*
X140754494Y-55919463D01*
X140644180Y-55860498D01*
X140524482Y-55824188D01*
X140400000Y-55811928D01*
X139000000Y-55811928D01*
X138875518Y-55824188D01*
X138755820Y-55860498D01*
X138645506Y-55919463D01*
X138548815Y-55998815D01*
X138469463Y-56095506D01*
X138410498Y-56205820D01*
X138374188Y-56325518D01*
X138361928Y-56450000D01*
X134688072Y-56450000D01*
X134675812Y-56325518D01*
X134639502Y-56205820D01*
X134580537Y-56095506D01*
X134501185Y-55998815D01*
X134404494Y-55919463D01*
X134294180Y-55860498D01*
X134174482Y-55824188D01*
X134050000Y-55811928D01*
X132650000Y-55811928D01*
X132525518Y-55824188D01*
X132405820Y-55860498D01*
X132295506Y-55919463D01*
X132198815Y-55998815D01*
X132119463Y-56095506D01*
X132060498Y-56205820D01*
X132024188Y-56325518D01*
X132011928Y-56450000D01*
X128338072Y-56450000D01*
X128325812Y-56325518D01*
X128289502Y-56205820D01*
X128230537Y-56095506D01*
X128151185Y-55998815D01*
X128054494Y-55919463D01*
X127944180Y-55860498D01*
X127824482Y-55824188D01*
X127700000Y-55811928D01*
X126300000Y-55811928D01*
X126175518Y-55824188D01*
X126055820Y-55860498D01*
X125945506Y-55919463D01*
X125848815Y-55998815D01*
X125769463Y-56095506D01*
X125710498Y-56205820D01*
X125674188Y-56325518D01*
X125661928Y-56450000D01*
X121988072Y-56450000D01*
X121975812Y-56325518D01*
X121939502Y-56205820D01*
X121880537Y-56095506D01*
X121801185Y-55998815D01*
X121704494Y-55919463D01*
X121594180Y-55860498D01*
X121474482Y-55824188D01*
X121350000Y-55811928D01*
X119950000Y-55811928D01*
X119825518Y-55824188D01*
X119705820Y-55860498D01*
X119595506Y-55919463D01*
X119498815Y-55998815D01*
X119419463Y-56095506D01*
X119360498Y-56205820D01*
X119324188Y-56325518D01*
X119311928Y-56450000D01*
X115638072Y-56450000D01*
X115625812Y-56325518D01*
X115589502Y-56205820D01*
X115530537Y-56095506D01*
X115451185Y-55998815D01*
X115354494Y-55919463D01*
X115244180Y-55860498D01*
X115124482Y-55824188D01*
X115000000Y-55811928D01*
X113600000Y-55811928D01*
X113475518Y-55824188D01*
X113355820Y-55860498D01*
X113245506Y-55919463D01*
X113148815Y-55998815D01*
X113069463Y-56095506D01*
X113010498Y-56205820D01*
X112974188Y-56325518D01*
X112961928Y-56450000D01*
X109288072Y-56450000D01*
X109275812Y-56325518D01*
X109239502Y-56205820D01*
X109180537Y-56095506D01*
X109101185Y-55998815D01*
X109004494Y-55919463D01*
X108894180Y-55860498D01*
X108774482Y-55824188D01*
X108650000Y-55811928D01*
X107250000Y-55811928D01*
X107125518Y-55824188D01*
X107005820Y-55860498D01*
X106895506Y-55919463D01*
X106798815Y-55998815D01*
X106719463Y-56095506D01*
X106660498Y-56205820D01*
X106624188Y-56325518D01*
X106611928Y-56450000D01*
X101755370Y-56450000D01*
X101806011Y-56327743D01*
X101865000Y-56031184D01*
X101865000Y-55728816D01*
X101806011Y-55432257D01*
X101690299Y-55152905D01*
X101522312Y-54901495D01*
X101308505Y-54687688D01*
X101057095Y-54519701D01*
X100777743Y-54403989D01*
X100481184Y-54345000D01*
X100178816Y-54345000D01*
X99882257Y-54403989D01*
X99602905Y-54519701D01*
X99351495Y-54687688D01*
X99137688Y-54901495D01*
X98969701Y-55152905D01*
X98853989Y-55432257D01*
X98795000Y-55728816D01*
X95515000Y-55728816D01*
X95456011Y-55432257D01*
X95340299Y-55152905D01*
X95172312Y-54901495D01*
X94958505Y-54687688D01*
X94707095Y-54519701D01*
X94427743Y-54403989D01*
X94131184Y-54345000D01*
X93828816Y-54345000D01*
X93532257Y-54403989D01*
X93252905Y-54519701D01*
X93001495Y-54687688D01*
X92787688Y-54901495D01*
X92619701Y-55152905D01*
X92503989Y-55432257D01*
X92445000Y-55728816D01*
X87364274Y-55728816D01*
X87358256Y-55724795D01*
X87169898Y-55646774D01*
X86969939Y-55607000D01*
X86766061Y-55607000D01*
X86566102Y-55646774D01*
X86377744Y-55724795D01*
X86208226Y-55838063D01*
X86064063Y-55982226D01*
X85950795Y-56151744D01*
X85872774Y-56340102D01*
X85833000Y-56540061D01*
X63985000Y-56540061D01*
X63985000Y-51938514D01*
X106615000Y-51938514D01*
X106615000Y-52201486D01*
X106666304Y-52459405D01*
X106766939Y-52702359D01*
X106913038Y-52921013D01*
X107098987Y-53106962D01*
X107317641Y-53253061D01*
X107560595Y-53353696D01*
X107818514Y-53405000D01*
X108081486Y-53405000D01*
X108339405Y-53353696D01*
X108582359Y-53253061D01*
X108801013Y-53106962D01*
X108986962Y-52921013D01*
X109133061Y-52702359D01*
X109233696Y-52459405D01*
X109285000Y-52201486D01*
X109285000Y-51938514D01*
X112965000Y-51938514D01*
X112965000Y-52201486D01*
X113016304Y-52459405D01*
X113116939Y-52702359D01*
X113263038Y-52921013D01*
X113448987Y-53106962D01*
X113667641Y-53253061D01*
X113910595Y-53353696D01*
X114168514Y-53405000D01*
X114431486Y-53405000D01*
X114689405Y-53353696D01*
X114932359Y-53253061D01*
X115151013Y-53106962D01*
X115336962Y-52921013D01*
X115483061Y-52702359D01*
X115583696Y-52459405D01*
X115635000Y-52201486D01*
X115635000Y-51938514D01*
X119315000Y-51938514D01*
X119315000Y-52201486D01*
X119366304Y-52459405D01*
X119466939Y-52702359D01*
X119613038Y-52921013D01*
X119798987Y-53106962D01*
X120017641Y-53253061D01*
X120260595Y-53353696D01*
X120518514Y-53405000D01*
X120781486Y-53405000D01*
X121039405Y-53353696D01*
X121282359Y-53253061D01*
X121501013Y-53106962D01*
X121686962Y-52921013D01*
X121833061Y-52702359D01*
X121933696Y-52459405D01*
X121985000Y-52201486D01*
X121985000Y-51938514D01*
X125665000Y-51938514D01*
X125665000Y-52201486D01*
X125716304Y-52459405D01*
X125816939Y-52702359D01*
X125963038Y-52921013D01*
X126148987Y-53106962D01*
X126367641Y-53253061D01*
X126610595Y-53353696D01*
X126868514Y-53405000D01*
X127131486Y-53405000D01*
X127389405Y-53353696D01*
X127632359Y-53253061D01*
X127851013Y-53106962D01*
X128036962Y-52921013D01*
X128183061Y-52702359D01*
X128283696Y-52459405D01*
X128335000Y-52201486D01*
X128335000Y-51938514D01*
X132015000Y-51938514D01*
X132015000Y-52201486D01*
X132066304Y-52459405D01*
X132166939Y-52702359D01*
X132313038Y-52921013D01*
X132498987Y-53106962D01*
X132717641Y-53253061D01*
X132960595Y-53353696D01*
X133218514Y-53405000D01*
X133481486Y-53405000D01*
X133739405Y-53353696D01*
X133982359Y-53253061D01*
X134201013Y-53106962D01*
X134386962Y-52921013D01*
X134533061Y-52702359D01*
X134633696Y-52459405D01*
X134685000Y-52201486D01*
X134685000Y-51938514D01*
X138365000Y-51938514D01*
X138365000Y-52201486D01*
X138416304Y-52459405D01*
X138516939Y-52702359D01*
X138663038Y-52921013D01*
X138848987Y-53106962D01*
X139067641Y-53253061D01*
X139310595Y-53353696D01*
X139568514Y-53405000D01*
X139831486Y-53405000D01*
X140089405Y-53353696D01*
X140332359Y-53253061D01*
X140551013Y-53106962D01*
X140736962Y-52921013D01*
X140883061Y-52702359D01*
X140983696Y-52459405D01*
X141035000Y-52201486D01*
X141035000Y-51938514D01*
X144715000Y-51938514D01*
X144715000Y-52201486D01*
X144766304Y-52459405D01*
X144866939Y-52702359D01*
X145013038Y-52921013D01*
X145198987Y-53106962D01*
X145417641Y-53253061D01*
X145660595Y-53353696D01*
X145918514Y-53405000D01*
X146181486Y-53405000D01*
X146439405Y-53353696D01*
X146682359Y-53253061D01*
X146901013Y-53106962D01*
X147086962Y-52921013D01*
X147233061Y-52702359D01*
X147333696Y-52459405D01*
X147385000Y-52201486D01*
X147385000Y-51938514D01*
X147333696Y-51680595D01*
X147233061Y-51437641D01*
X147086962Y-51218987D01*
X146901013Y-51033038D01*
X146682359Y-50886939D01*
X146439405Y-50786304D01*
X146181486Y-50735000D01*
X145918514Y-50735000D01*
X145660595Y-50786304D01*
X145417641Y-50886939D01*
X145198987Y-51033038D01*
X145013038Y-51218987D01*
X144866939Y-51437641D01*
X144766304Y-51680595D01*
X144715000Y-51938514D01*
X141035000Y-51938514D01*
X140983696Y-51680595D01*
X140883061Y-51437641D01*
X140736962Y-51218987D01*
X140551013Y-51033038D01*
X140332359Y-50886939D01*
X140089405Y-50786304D01*
X139831486Y-50735000D01*
X139568514Y-50735000D01*
X139310595Y-50786304D01*
X139067641Y-50886939D01*
X138848987Y-51033038D01*
X138663038Y-51218987D01*
X138516939Y-51437641D01*
X138416304Y-51680595D01*
X138365000Y-51938514D01*
X134685000Y-51938514D01*
X134633696Y-51680595D01*
X134533061Y-51437641D01*
X134386962Y-51218987D01*
X134201013Y-51033038D01*
X133982359Y-50886939D01*
X133739405Y-50786304D01*
X133481486Y-50735000D01*
X133218514Y-50735000D01*
X132960595Y-50786304D01*
X132717641Y-50886939D01*
X132498987Y-51033038D01*
X132313038Y-51218987D01*
X132166939Y-51437641D01*
X132066304Y-51680595D01*
X132015000Y-51938514D01*
X128335000Y-51938514D01*
X128283696Y-51680595D01*
X128183061Y-51437641D01*
X128036962Y-51218987D01*
X127851013Y-51033038D01*
X127632359Y-50886939D01*
X127389405Y-50786304D01*
X127131486Y-50735000D01*
X126868514Y-50735000D01*
X126610595Y-50786304D01*
X126367641Y-50886939D01*
X126148987Y-51033038D01*
X125963038Y-51218987D01*
X125816939Y-51437641D01*
X125716304Y-51680595D01*
X125665000Y-51938514D01*
X121985000Y-51938514D01*
X121933696Y-51680595D01*
X121833061Y-51437641D01*
X121686962Y-51218987D01*
X121501013Y-51033038D01*
X121282359Y-50886939D01*
X121039405Y-50786304D01*
X120781486Y-50735000D01*
X120518514Y-50735000D01*
X120260595Y-50786304D01*
X120017641Y-50886939D01*
X119798987Y-51033038D01*
X119613038Y-51218987D01*
X119466939Y-51437641D01*
X119366304Y-51680595D01*
X119315000Y-51938514D01*
X115635000Y-51938514D01*
X115583696Y-51680595D01*
X115483061Y-51437641D01*
X115336962Y-51218987D01*
X115151013Y-51033038D01*
X114932359Y-50886939D01*
X114689405Y-50786304D01*
X114431486Y-50735000D01*
X114168514Y-50735000D01*
X113910595Y-50786304D01*
X113667641Y-50886939D01*
X113448987Y-51033038D01*
X113263038Y-51218987D01*
X113116939Y-51437641D01*
X113016304Y-51680595D01*
X112965000Y-51938514D01*
X109285000Y-51938514D01*
X109233696Y-51680595D01*
X109133061Y-51437641D01*
X108986962Y-51218987D01*
X108801013Y-51033038D01*
X108582359Y-50886939D01*
X108339405Y-50786304D01*
X108081486Y-50735000D01*
X107818514Y-50735000D01*
X107560595Y-50786304D01*
X107317641Y-50886939D01*
X107098987Y-51033038D01*
X106913038Y-51218987D01*
X106766939Y-51437641D01*
X106666304Y-51680595D01*
X106615000Y-51938514D01*
X63985000Y-51938514D01*
X63985000Y-48108816D01*
X94985000Y-48108816D01*
X94985000Y-48411184D01*
X95043989Y-48707743D01*
X95159701Y-48987095D01*
X95327688Y-49238505D01*
X95541495Y-49452312D01*
X95792905Y-49620299D01*
X96072257Y-49736011D01*
X96368816Y-49795000D01*
X96671184Y-49795000D01*
X96967743Y-49736011D01*
X97247095Y-49620299D01*
X97498505Y-49452312D01*
X97712312Y-49238505D01*
X97880299Y-48987095D01*
X97996011Y-48707743D01*
X98055000Y-48411184D01*
X98055000Y-48108816D01*
X101335000Y-48108816D01*
X101335000Y-48411184D01*
X101393989Y-48707743D01*
X101509701Y-48987095D01*
X101677688Y-49238505D01*
X101891495Y-49452312D01*
X102142905Y-49620299D01*
X102422257Y-49736011D01*
X102718816Y-49795000D01*
X103021184Y-49795000D01*
X103317743Y-49736011D01*
X103597095Y-49620299D01*
X103848505Y-49452312D01*
X104062312Y-49238505D01*
X104230299Y-48987095D01*
X104346011Y-48707743D01*
X104405000Y-48411184D01*
X104405000Y-48108816D01*
X104346011Y-47812257D01*
X104230299Y-47532905D01*
X104062312Y-47281495D01*
X103848505Y-47067688D01*
X103597095Y-46899701D01*
X103497662Y-46858514D01*
X106615000Y-46858514D01*
X106615000Y-47121486D01*
X106666304Y-47379405D01*
X106766939Y-47622359D01*
X106913038Y-47841013D01*
X107098987Y-48026962D01*
X107317641Y-48173061D01*
X107560595Y-48273696D01*
X107818514Y-48325000D01*
X108081486Y-48325000D01*
X108339405Y-48273696D01*
X108582359Y-48173061D01*
X108801013Y-48026962D01*
X108986962Y-47841013D01*
X109133061Y-47622359D01*
X109233696Y-47379405D01*
X109285000Y-47121486D01*
X109285000Y-46858514D01*
X112965000Y-46858514D01*
X112965000Y-47121486D01*
X113016304Y-47379405D01*
X113116939Y-47622359D01*
X113263038Y-47841013D01*
X113448987Y-48026962D01*
X113667641Y-48173061D01*
X113910595Y-48273696D01*
X114168514Y-48325000D01*
X114431486Y-48325000D01*
X114689405Y-48273696D01*
X114932359Y-48173061D01*
X115151013Y-48026962D01*
X115336962Y-47841013D01*
X115483061Y-47622359D01*
X115583696Y-47379405D01*
X115635000Y-47121486D01*
X115635000Y-46858514D01*
X119315000Y-46858514D01*
X119315000Y-47121486D01*
X119366304Y-47379405D01*
X119466939Y-47622359D01*
X119613038Y-47841013D01*
X119798987Y-48026962D01*
X120017641Y-48173061D01*
X120260595Y-48273696D01*
X120518514Y-48325000D01*
X120781486Y-48325000D01*
X121039405Y-48273696D01*
X121282359Y-48173061D01*
X121501013Y-48026962D01*
X121686962Y-47841013D01*
X121833061Y-47622359D01*
X121933696Y-47379405D01*
X121985000Y-47121486D01*
X121985000Y-46858514D01*
X125665000Y-46858514D01*
X125665000Y-47121486D01*
X125716304Y-47379405D01*
X125816939Y-47622359D01*
X125963038Y-47841013D01*
X126148987Y-48026962D01*
X126367641Y-48173061D01*
X126610595Y-48273696D01*
X126868514Y-48325000D01*
X127131486Y-48325000D01*
X127389405Y-48273696D01*
X127632359Y-48173061D01*
X127851013Y-48026962D01*
X128036962Y-47841013D01*
X128183061Y-47622359D01*
X128283696Y-47379405D01*
X128335000Y-47121486D01*
X128335000Y-46858514D01*
X132015000Y-46858514D01*
X132015000Y-47121486D01*
X132066304Y-47379405D01*
X132166939Y-47622359D01*
X132313038Y-47841013D01*
X132498987Y-48026962D01*
X132717641Y-48173061D01*
X132960595Y-48273696D01*
X133218514Y-48325000D01*
X133481486Y-48325000D01*
X133739405Y-48273696D01*
X133982359Y-48173061D01*
X134201013Y-48026962D01*
X134386962Y-47841013D01*
X134533061Y-47622359D01*
X134633696Y-47379405D01*
X134685000Y-47121486D01*
X134685000Y-46858514D01*
X138365000Y-46858514D01*
X138365000Y-47121486D01*
X138416304Y-47379405D01*
X138516939Y-47622359D01*
X138663038Y-47841013D01*
X138848987Y-48026962D01*
X139067641Y-48173061D01*
X139310595Y-48273696D01*
X139568514Y-48325000D01*
X139831486Y-48325000D01*
X140089405Y-48273696D01*
X140332359Y-48173061D01*
X140551013Y-48026962D01*
X140736962Y-47841013D01*
X140883061Y-47622359D01*
X140983696Y-47379405D01*
X141035000Y-47121486D01*
X141035000Y-46858514D01*
X144715000Y-46858514D01*
X144715000Y-47121486D01*
X144766304Y-47379405D01*
X144866939Y-47622359D01*
X145013038Y-47841013D01*
X145198987Y-48026962D01*
X145417641Y-48173061D01*
X145660595Y-48273696D01*
X145918514Y-48325000D01*
X146181486Y-48325000D01*
X146439405Y-48273696D01*
X146682359Y-48173061D01*
X146901013Y-48026962D01*
X147086962Y-47841013D01*
X147233061Y-47622359D01*
X147333696Y-47379405D01*
X147385000Y-47121486D01*
X147385000Y-46858514D01*
X147333696Y-46600595D01*
X147233061Y-46357641D01*
X147086962Y-46138987D01*
X146901013Y-45953038D01*
X146682359Y-45806939D01*
X146439405Y-45706304D01*
X146181486Y-45655000D01*
X145918514Y-45655000D01*
X145660595Y-45706304D01*
X145417641Y-45806939D01*
X145198987Y-45953038D01*
X145013038Y-46138987D01*
X144866939Y-46357641D01*
X144766304Y-46600595D01*
X144715000Y-46858514D01*
X141035000Y-46858514D01*
X140983696Y-46600595D01*
X140883061Y-46357641D01*
X140736962Y-46138987D01*
X140551013Y-45953038D01*
X140332359Y-45806939D01*
X140089405Y-45706304D01*
X139831486Y-45655000D01*
X139568514Y-45655000D01*
X139310595Y-45706304D01*
X139067641Y-45806939D01*
X138848987Y-45953038D01*
X138663038Y-46138987D01*
X138516939Y-46357641D01*
X138416304Y-46600595D01*
X138365000Y-46858514D01*
X134685000Y-46858514D01*
X134633696Y-46600595D01*
X134533061Y-46357641D01*
X134386962Y-46138987D01*
X134201013Y-45953038D01*
X133982359Y-45806939D01*
X133739405Y-45706304D01*
X133481486Y-45655000D01*
X133218514Y-45655000D01*
X132960595Y-45706304D01*
X132717641Y-45806939D01*
X132498987Y-45953038D01*
X132313038Y-46138987D01*
X132166939Y-46357641D01*
X132066304Y-46600595D01*
X132015000Y-46858514D01*
X128335000Y-46858514D01*
X128283696Y-46600595D01*
X128183061Y-46357641D01*
X128036962Y-46138987D01*
X127851013Y-45953038D01*
X127632359Y-45806939D01*
X127389405Y-45706304D01*
X127131486Y-45655000D01*
X126868514Y-45655000D01*
X126610595Y-45706304D01*
X126367641Y-45806939D01*
X126148987Y-45953038D01*
X125963038Y-46138987D01*
X125816939Y-46357641D01*
X125716304Y-46600595D01*
X125665000Y-46858514D01*
X121985000Y-46858514D01*
X121933696Y-46600595D01*
X121833061Y-46357641D01*
X121686962Y-46138987D01*
X121501013Y-45953038D01*
X121282359Y-45806939D01*
X121039405Y-45706304D01*
X120781486Y-45655000D01*
X120518514Y-45655000D01*
X120260595Y-45706304D01*
X120017641Y-45806939D01*
X119798987Y-45953038D01*
X119613038Y-46138987D01*
X119466939Y-46357641D01*
X119366304Y-46600595D01*
X119315000Y-46858514D01*
X115635000Y-46858514D01*
X115583696Y-46600595D01*
X115483061Y-46357641D01*
X115336962Y-46138987D01*
X115151013Y-45953038D01*
X114932359Y-45806939D01*
X114689405Y-45706304D01*
X114431486Y-45655000D01*
X114168514Y-45655000D01*
X113910595Y-45706304D01*
X113667641Y-45806939D01*
X113448987Y-45953038D01*
X113263038Y-46138987D01*
X113116939Y-46357641D01*
X113016304Y-46600595D01*
X112965000Y-46858514D01*
X109285000Y-46858514D01*
X109233696Y-46600595D01*
X109133061Y-46357641D01*
X108986962Y-46138987D01*
X108801013Y-45953038D01*
X108582359Y-45806939D01*
X108339405Y-45706304D01*
X108081486Y-45655000D01*
X107818514Y-45655000D01*
X107560595Y-45706304D01*
X107317641Y-45806939D01*
X107098987Y-45953038D01*
X106913038Y-46138987D01*
X106766939Y-46357641D01*
X106666304Y-46600595D01*
X106615000Y-46858514D01*
X103497662Y-46858514D01*
X103317743Y-46783989D01*
X103021184Y-46725000D01*
X102718816Y-46725000D01*
X102422257Y-46783989D01*
X102142905Y-46899701D01*
X101891495Y-47067688D01*
X101677688Y-47281495D01*
X101509701Y-47532905D01*
X101393989Y-47812257D01*
X101335000Y-48108816D01*
X98055000Y-48108816D01*
X97996011Y-47812257D01*
X97880299Y-47532905D01*
X97712312Y-47281495D01*
X97498505Y-47067688D01*
X97247095Y-46899701D01*
X96967743Y-46783989D01*
X96671184Y-46725000D01*
X96368816Y-46725000D01*
X96072257Y-46783989D01*
X95792905Y-46899701D01*
X95541495Y-47067688D01*
X95327688Y-47281495D01*
X95159701Y-47532905D01*
X95043989Y-47812257D01*
X94985000Y-48108816D01*
X63985000Y-48108816D01*
X63985000Y-41675098D01*
X77625000Y-41675098D01*
X77625000Y-42144902D01*
X77716654Y-42605679D01*
X77896440Y-43039721D01*
X78157450Y-43430349D01*
X78489651Y-43762550D01*
X78880279Y-44023560D01*
X79314321Y-44203346D01*
X79775098Y-44295000D01*
X80244902Y-44295000D01*
X80705679Y-44203346D01*
X81139721Y-44023560D01*
X81530349Y-43762550D01*
X81862550Y-43430349D01*
X82123560Y-43039721D01*
X82128076Y-43028816D01*
X92445000Y-43028816D01*
X92445000Y-43331184D01*
X92503989Y-43627743D01*
X92619701Y-43907095D01*
X92787688Y-44158505D01*
X93001495Y-44372312D01*
X93252905Y-44540299D01*
X93532257Y-44656011D01*
X93828816Y-44715000D01*
X94131184Y-44715000D01*
X94427743Y-44656011D01*
X94707095Y-44540299D01*
X94958505Y-44372312D01*
X95172312Y-44158505D01*
X95340299Y-43907095D01*
X95456011Y-43627743D01*
X95515000Y-43331184D01*
X95515000Y-43028816D01*
X98795000Y-43028816D01*
X98795000Y-43331184D01*
X98853989Y-43627743D01*
X98969701Y-43907095D01*
X99137688Y-44158505D01*
X99351495Y-44372312D01*
X99602905Y-44540299D01*
X99882257Y-44656011D01*
X100178816Y-44715000D01*
X100481184Y-44715000D01*
X100777743Y-44656011D01*
X101057095Y-44540299D01*
X101308505Y-44372312D01*
X101522312Y-44158505D01*
X101690299Y-43907095D01*
X101806011Y-43627743D01*
X101865000Y-43331184D01*
X101865000Y-43028816D01*
X101806011Y-42732257D01*
X101690299Y-42452905D01*
X101522312Y-42201495D01*
X101308505Y-41987688D01*
X101057095Y-41819701D01*
X100957662Y-41778514D01*
X106615000Y-41778514D01*
X106615000Y-42041486D01*
X106666304Y-42299405D01*
X106766939Y-42542359D01*
X106913038Y-42761013D01*
X107098987Y-42946962D01*
X107317641Y-43093061D01*
X107560595Y-43193696D01*
X107818514Y-43245000D01*
X108081486Y-43245000D01*
X108339405Y-43193696D01*
X108582359Y-43093061D01*
X108801013Y-42946962D01*
X108986962Y-42761013D01*
X109133061Y-42542359D01*
X109233696Y-42299405D01*
X109285000Y-42041486D01*
X109285000Y-41778514D01*
X112965000Y-41778514D01*
X112965000Y-42041486D01*
X113016304Y-42299405D01*
X113116939Y-42542359D01*
X113263038Y-42761013D01*
X113448987Y-42946962D01*
X113667641Y-43093061D01*
X113910595Y-43193696D01*
X114168514Y-43245000D01*
X114431486Y-43245000D01*
X114689405Y-43193696D01*
X114932359Y-43093061D01*
X115151013Y-42946962D01*
X115336962Y-42761013D01*
X115483061Y-42542359D01*
X115583696Y-42299405D01*
X115635000Y-42041486D01*
X115635000Y-41778514D01*
X119315000Y-41778514D01*
X119315000Y-42041486D01*
X119366304Y-42299405D01*
X119466939Y-42542359D01*
X119613038Y-42761013D01*
X119798987Y-42946962D01*
X120017641Y-43093061D01*
X120260595Y-43193696D01*
X120518514Y-43245000D01*
X120781486Y-43245000D01*
X121039405Y-43193696D01*
X121282359Y-43093061D01*
X121501013Y-42946962D01*
X121686962Y-42761013D01*
X121833061Y-42542359D01*
X121933696Y-42299405D01*
X121985000Y-42041486D01*
X121985000Y-41778514D01*
X125665000Y-41778514D01*
X125665000Y-42041486D01*
X125716304Y-42299405D01*
X125816939Y-42542359D01*
X125963038Y-42761013D01*
X126148987Y-42946962D01*
X126367641Y-43093061D01*
X126610595Y-43193696D01*
X126868514Y-43245000D01*
X127131486Y-43245000D01*
X127389405Y-43193696D01*
X127632359Y-43093061D01*
X127851013Y-42946962D01*
X128036962Y-42761013D01*
X128183061Y-42542359D01*
X128283696Y-42299405D01*
X128335000Y-42041486D01*
X128335000Y-41778514D01*
X132015000Y-41778514D01*
X132015000Y-42041486D01*
X132066304Y-42299405D01*
X132166939Y-42542359D01*
X132313038Y-42761013D01*
X132498987Y-42946962D01*
X132717641Y-43093061D01*
X132960595Y-43193696D01*
X133218514Y-43245000D01*
X133481486Y-43245000D01*
X133739405Y-43193696D01*
X133982359Y-43093061D01*
X134201013Y-42946962D01*
X134386962Y-42761013D01*
X134533061Y-42542359D01*
X134633696Y-42299405D01*
X134685000Y-42041486D01*
X134685000Y-41778514D01*
X138365000Y-41778514D01*
X138365000Y-42041486D01*
X138416304Y-42299405D01*
X138516939Y-42542359D01*
X138663038Y-42761013D01*
X138848987Y-42946962D01*
X139067641Y-43093061D01*
X139310595Y-43193696D01*
X139568514Y-43245000D01*
X139831486Y-43245000D01*
X140089405Y-43193696D01*
X140332359Y-43093061D01*
X140551013Y-42946962D01*
X140736962Y-42761013D01*
X140883061Y-42542359D01*
X140983696Y-42299405D01*
X141035000Y-42041486D01*
X141035000Y-41778514D01*
X144715000Y-41778514D01*
X144715000Y-42041486D01*
X144766304Y-42299405D01*
X144866939Y-42542359D01*
X145013038Y-42761013D01*
X145198987Y-42946962D01*
X145417641Y-43093061D01*
X145660595Y-43193696D01*
X145918514Y-43245000D01*
X146181486Y-43245000D01*
X146439405Y-43193696D01*
X146682359Y-43093061D01*
X146901013Y-42946962D01*
X147086962Y-42761013D01*
X147233061Y-42542359D01*
X147333696Y-42299405D01*
X147385000Y-42041486D01*
X147385000Y-41778514D01*
X147333696Y-41520595D01*
X147233061Y-41277641D01*
X147086962Y-41058987D01*
X146901013Y-40873038D01*
X146682359Y-40726939D01*
X146439405Y-40626304D01*
X146181486Y-40575000D01*
X145918514Y-40575000D01*
X145660595Y-40626304D01*
X145417641Y-40726939D01*
X145198987Y-40873038D01*
X145013038Y-41058987D01*
X144866939Y-41277641D01*
X144766304Y-41520595D01*
X144715000Y-41778514D01*
X141035000Y-41778514D01*
X140983696Y-41520595D01*
X140883061Y-41277641D01*
X140736962Y-41058987D01*
X140551013Y-40873038D01*
X140332359Y-40726939D01*
X140089405Y-40626304D01*
X139831486Y-40575000D01*
X139568514Y-40575000D01*
X139310595Y-40626304D01*
X139067641Y-40726939D01*
X138848987Y-40873038D01*
X138663038Y-41058987D01*
X138516939Y-41277641D01*
X138416304Y-41520595D01*
X138365000Y-41778514D01*
X134685000Y-41778514D01*
X134633696Y-41520595D01*
X134533061Y-41277641D01*
X134386962Y-41058987D01*
X134201013Y-40873038D01*
X133982359Y-40726939D01*
X133739405Y-40626304D01*
X133481486Y-40575000D01*
X133218514Y-40575000D01*
X132960595Y-40626304D01*
X132717641Y-40726939D01*
X132498987Y-40873038D01*
X132313038Y-41058987D01*
X132166939Y-41277641D01*
X132066304Y-41520595D01*
X132015000Y-41778514D01*
X128335000Y-41778514D01*
X128283696Y-41520595D01*
X128183061Y-41277641D01*
X128036962Y-41058987D01*
X127851013Y-40873038D01*
X127632359Y-40726939D01*
X127389405Y-40626304D01*
X127131486Y-40575000D01*
X126868514Y-40575000D01*
X126610595Y-40626304D01*
X126367641Y-40726939D01*
X126148987Y-40873038D01*
X125963038Y-41058987D01*
X125816939Y-41277641D01*
X125716304Y-41520595D01*
X125665000Y-41778514D01*
X121985000Y-41778514D01*
X121933696Y-41520595D01*
X121833061Y-41277641D01*
X121686962Y-41058987D01*
X121501013Y-40873038D01*
X121282359Y-40726939D01*
X121039405Y-40626304D01*
X120781486Y-40575000D01*
X120518514Y-40575000D01*
X120260595Y-40626304D01*
X120017641Y-40726939D01*
X119798987Y-40873038D01*
X119613038Y-41058987D01*
X119466939Y-41277641D01*
X119366304Y-41520595D01*
X119315000Y-41778514D01*
X115635000Y-41778514D01*
X115583696Y-41520595D01*
X115483061Y-41277641D01*
X115336962Y-41058987D01*
X115151013Y-40873038D01*
X114932359Y-40726939D01*
X114689405Y-40626304D01*
X114431486Y-40575000D01*
X114168514Y-40575000D01*
X113910595Y-40626304D01*
X113667641Y-40726939D01*
X113448987Y-40873038D01*
X113263038Y-41058987D01*
X113116939Y-41277641D01*
X113016304Y-41520595D01*
X112965000Y-41778514D01*
X109285000Y-41778514D01*
X109233696Y-41520595D01*
X109133061Y-41277641D01*
X108986962Y-41058987D01*
X108801013Y-40873038D01*
X108582359Y-40726939D01*
X108339405Y-40626304D01*
X108081486Y-40575000D01*
X107818514Y-40575000D01*
X107560595Y-40626304D01*
X107317641Y-40726939D01*
X107098987Y-40873038D01*
X106913038Y-41058987D01*
X106766939Y-41277641D01*
X106666304Y-41520595D01*
X106615000Y-41778514D01*
X100957662Y-41778514D01*
X100777743Y-41703989D01*
X100481184Y-41645000D01*
X100178816Y-41645000D01*
X99882257Y-41703989D01*
X99602905Y-41819701D01*
X99351495Y-41987688D01*
X99137688Y-42201495D01*
X98969701Y-42452905D01*
X98853989Y-42732257D01*
X98795000Y-43028816D01*
X95515000Y-43028816D01*
X95456011Y-42732257D01*
X95340299Y-42452905D01*
X95172312Y-42201495D01*
X94958505Y-41987688D01*
X94707095Y-41819701D01*
X94427743Y-41703989D01*
X94131184Y-41645000D01*
X93828816Y-41645000D01*
X93532257Y-41703989D01*
X93252905Y-41819701D01*
X93001495Y-41987688D01*
X92787688Y-42201495D01*
X92619701Y-42452905D01*
X92503989Y-42732257D01*
X92445000Y-43028816D01*
X82128076Y-43028816D01*
X82303346Y-42605679D01*
X82395000Y-42144902D01*
X82395000Y-41675098D01*
X82303346Y-41214321D01*
X82123560Y-40780279D01*
X81862550Y-40389651D01*
X81530349Y-40057450D01*
X81139721Y-39796440D01*
X80705679Y-39616654D01*
X80244902Y-39525000D01*
X79775098Y-39525000D01*
X79314321Y-39616654D01*
X78880279Y-39796440D01*
X78489651Y-40057450D01*
X78157450Y-40389651D01*
X77896440Y-40780279D01*
X77716654Y-41214321D01*
X77625000Y-41675098D01*
X63985000Y-41675098D01*
X63985000Y-37485000D01*
X149516450Y-37485000D01*
X149613547Y-83315000D01*
M02*
