M48
; DRILL file {KiCad (5.1.5)-3} date 2/22/2020 3:11:58 PM
; FORMAT={-:-/ absolute / inch / decimal}
; #@! TF.CreationDate,2020-02-22T15:11:58-08:00
; #@! TF.GenerationSoftware,Kicad,Pcbnew,(5.1.5)-3
FMAT,2
INCH
T1C0.0157
T2C0.0276
T3C0.0394
T4C0.0433
T5C0.1260
T6C0.1378
%
G90
G05
T1
X2.59Y-2.7
X2.79Y-2.94
X2.85Y-3.02
X2.89Y-3.11
X2.94Y-3.02
X2.98Y-3.11
X3.42Y-2.23
X3.43Y-2.52
X3.62Y-2.31
X3.77Y-2.73
X3.84Y-2.79
X3.88Y-3.1
X3.93Y-3.26
X3.95Y-3.3
X3.96Y-3.35
X3.96Y-3.39
X4.0871Y-3.3929
X4.15Y-3.37
X4.19Y-3.35
X4.26Y-2.8
X4.26Y-3.0
X4.27Y-2.9
X4.34Y-2.65
X4.34Y-2.85
X4.35Y-2.95
X4.45Y-3.38
X4.47Y-2.7
X4.5096Y-3.4075
X4.52Y-2.77
X4.53Y-3.15
X4.5718Y-3.4
X4.72Y-2.47
X4.97Y-2.51
X5.05Y-3.07
X5.15Y-3.08
X5.25Y-3.08
T2
X4.75Y-1.65
X4.75Y-1.85
X4.75Y-2.05
X4.75Y-2.25
X5.0Y-1.65
X5.0Y-1.85
X5.0Y-2.05
X5.0Y-2.25
X4.25Y-1.65
X4.25Y-1.85
X4.25Y-2.05
X4.25Y-2.25
X5.25Y-1.65
X5.25Y-1.85
X5.25Y-2.05
X5.25Y-2.25
X5.5Y-1.65
X5.5Y-1.85
X5.5Y-2.05
X5.5Y-2.25
X5.75Y-1.65
X5.75Y-1.85
X5.75Y-2.05
X5.75Y-2.25
X4.5Y-1.65
X4.5Y-1.85
X4.5Y-2.05
X4.5Y-2.25
T3
X3.7Y-1.7
X3.7Y-2.2
X3.8Y-1.9
X3.95Y-1.7
X3.95Y-2.2
X4.05Y-1.9
X3.09Y-2.67
X3.09Y-2.97
X3.49Y-2.67
X3.49Y-2.97
X3.59Y-2.67
X3.59Y-2.97
T4
X3.05Y-2.3059
X3.15Y-2.3059
X3.25Y-2.3059
T5
X3.15Y-1.65
T6
X3.15Y-1.65
T0
M30
