M48
; DRILL file {KiCad (5.1.5)-3} date 1/31/2020 9:50:32 AM
; FORMAT={-:-/ absolute / inch / decimal}
; #@! TF.CreationDate,2020-01-31T09:50:32-08:00
; #@! TF.GenerationSoftware,Kicad,Pcbnew,(5.1.5)-3
FMAT,2
INCH
T1C0.0157
T2C0.0236
T3C0.0276
T4C0.0394
%
G90
G05
T1
X2.091Y-5.069
X2.15Y-4.78
X2.676Y-5.274
X2.703Y-5.628
X2.885Y-5.259
X2.934Y-5.809
X2.966Y-5.363
X3.02Y-5.501
X3.026Y-5.806
X3.061Y-4.844
X3.078Y-5.292
X3.252Y-5.544
X3.283Y-5.408
X3.325Y-4.885
X3.385Y-5.939
X3.405Y-5.509
X3.41Y-5.564
X3.523Y-5.617
X3.54Y-5.256
X3.548Y-6.046
X3.551Y-5.445
X3.556Y-4.885
X3.558Y-5.879
X3.715Y-5.295
X3.784Y-4.813
X3.785Y-5.435
X3.81Y-5.88
X3.817Y-5.545
X3.827Y-5.613
X3.837Y-6.233
X3.886Y-6.161
X3.898Y-6.282
X3.919Y-5.789
X3.933Y-5.357
X3.958Y-6.213
X3.966Y-4.805
X3.978Y-6.281
X3.9857Y-5.8657
X4.015Y-5.679
X4.02Y-5.914
X4.021Y-5.756
X4.036Y-5.41
X4.038Y-6.232
X4.066Y-5.913
X4.072Y-6.185
X4.099Y-4.734
X4.109Y-5.888
X4.129Y-6.224
X4.138Y-6.083
X4.1442Y-6.2748
X4.181Y-5.969
X4.202Y-4.777
X4.2088Y-6.2318
X4.217Y-5.8823
X4.264Y-5.675
X4.269Y-6.005
X4.272Y-5.433
X4.291Y-5.574
X4.312Y-6.071
X4.314Y-5.502
X4.3415Y-5.8652
X4.348Y-5.277
X4.3546Y-6.0019
X4.383Y-6.267
X4.388Y-4.775
X4.391Y-5.081
X4.392Y-4.975
X4.393Y-5.66
X4.395Y-5.917
X4.408Y-6.009
X4.41Y-5.831
X4.4219Y-6.1475
X4.45Y-5.77
X4.477Y-5.546
X4.4773Y-6.203
X4.518Y-6.133
X4.584Y-4.777
X4.624Y-6.006
X4.638Y-5.616
X4.669Y-5.931
X4.673Y-6.141
X4.845Y-5.777
X4.959Y-5.629
X4.991Y-5.934
X5.0Y-5.291
X5.007Y-5.521
X5.058Y-5.664
X5.173Y-5.587
X5.201Y-5.265
X5.29Y-5.682
X5.436Y-5.245
X5.544Y-5.555
X5.672Y-5.976
X5.683Y-5.224
X5.712Y-5.778
X5.72Y-5.567
X5.756Y-5.37
X5.765Y-5.619
X5.7856Y-5.6862
X5.804Y-6.057
X5.8135Y-5.9384
X5.815Y-4.871
X5.831Y-5.858
X5.848Y-5.538
X5.872Y-5.216
X5.928Y-6.06
X5.932Y-5.546
X5.948Y-5.816
X6.044Y-5.273
X6.112Y-5.908
X6.179Y-5.58
X6.272Y-4.779
X6.283Y-6.01
X6.284Y-5.894
X6.321Y-5.676
X6.334Y-4.784
X6.343Y-4.865
X6.354Y-4.733
X6.383Y-5.676
X6.409Y-4.964
X6.507Y-4.963
X6.512Y-4.844
X6.58Y-4.898
T2
X3.475Y-5.887
X4.595Y-6.092
X4.68Y-6.0606
T3
X2.75Y-4.83
X2.75Y-5.03
X2.75Y-5.23
X2.75Y-5.43
X5.98Y-4.83
X5.98Y-5.03
X5.98Y-5.23
X5.98Y-5.43
X5.06Y-4.83
X5.06Y-5.03
X5.06Y-5.23
X5.06Y-5.43
X5.29Y-4.83
X5.29Y-5.03
X5.29Y-5.23
X5.29Y-5.43
X2.52Y-4.83
X2.52Y-5.03
X2.52Y-5.23
X2.52Y-5.43
X6.21Y-4.83
X6.21Y-5.03
X6.21Y-5.23
X6.21Y-5.43
X3.44Y-4.83
X3.44Y-5.03
X3.44Y-5.23
X3.44Y-5.43
X5.52Y-4.83
X5.52Y-5.03
X5.52Y-5.23
X5.52Y-5.43
X5.75Y-4.83
X5.75Y-5.03
X5.75Y-5.23
X5.75Y-5.43
X3.67Y-4.83
X3.67Y-5.03
X3.67Y-5.23
X3.67Y-5.43
X3.21Y-4.83
X3.21Y-5.03
X3.21Y-5.23
X3.21Y-5.43
X4.83Y-4.83
X4.83Y-5.03
X4.83Y-5.23
X4.83Y-5.43
X3.9Y-4.83
X3.9Y-5.03
X3.9Y-5.23
X3.9Y-5.43
X2.98Y-4.83
X2.98Y-5.03
X2.98Y-5.23
X2.98Y-5.43
T4
X4.29Y-4.8
X4.49Y-4.8
X6.7Y-4.83
X6.8Y-4.83
T0
M30
