G04 #@! TF.GenerationSoftware,KiCad,Pcbnew,(5.1.5)-3*
G04 #@! TF.CreationDate,2020-01-31T09:50:25-08:00*
G04 #@! TF.ProjectId,pin_driver,70696e5f-6472-4697-9665-722e6b696361,rev?*
G04 #@! TF.SameCoordinates,Original*
G04 #@! TF.FileFunction,Copper,L4,Bot*
G04 #@! TF.FilePolarity,Positive*
%FSLAX46Y46*%
G04 Gerber Fmt 4.6, Leading zero omitted, Abs format (unit mm)*
G04 Created by KiCad (PCBNEW (5.1.5)-3) date 2020-01-31 09:50:25*
%MOMM*%
%LPD*%
G04 APERTURE LIST*
%ADD10O,1.700000X1.700000*%
%ADD11R,1.700000X1.700000*%
%ADD12R,1.400000X1.400000*%
%ADD13C,1.400000*%
%ADD14R,0.700000X4.300000*%
%ADD15R,0.700000X3.200000*%
%ADD16C,0.800000*%
%ADD17C,1.000000*%
%ADD18C,0.250000*%
%ADD19C,0.400000*%
%ADD20C,0.254000*%
G04 APERTURE END LIST*
D10*
X170180000Y-122682000D03*
D11*
X172720000Y-122682000D03*
X114046000Y-121920000D03*
X108966000Y-121920000D03*
D12*
X99060000Y-137922000D03*
D13*
X99060000Y-132842000D03*
X99060000Y-127762000D03*
X99060000Y-122682000D03*
D12*
X93218000Y-137922000D03*
D13*
X93218000Y-132842000D03*
X93218000Y-127762000D03*
X93218000Y-122682000D03*
D12*
X87376000Y-137922000D03*
D13*
X87376000Y-132842000D03*
X87376000Y-127762000D03*
X87376000Y-122682000D03*
D12*
X81534000Y-137922000D03*
D13*
X81534000Y-132842000D03*
X81534000Y-127762000D03*
X81534000Y-122682000D03*
D12*
X75692000Y-137922000D03*
D13*
X75692000Y-132842000D03*
X75692000Y-127762000D03*
X75692000Y-122682000D03*
D12*
X69850000Y-137922000D03*
D13*
X69850000Y-132842000D03*
X69850000Y-127762000D03*
X69850000Y-122682000D03*
D12*
X64008000Y-137922000D03*
D13*
X64008000Y-132842000D03*
X64008000Y-127762000D03*
X64008000Y-122682000D03*
D12*
X157734000Y-137922000D03*
D13*
X157734000Y-132842000D03*
X157734000Y-127762000D03*
X157734000Y-122682000D03*
D12*
X151892000Y-137922000D03*
D13*
X151892000Y-132842000D03*
X151892000Y-127762000D03*
X151892000Y-122682000D03*
D12*
X146050000Y-137922000D03*
D13*
X146050000Y-132842000D03*
X146050000Y-127762000D03*
X146050000Y-122682000D03*
D12*
X140208000Y-137922000D03*
D13*
X140208000Y-132842000D03*
X140208000Y-127762000D03*
X140208000Y-122682000D03*
D12*
X134366000Y-137922000D03*
D13*
X134366000Y-132842000D03*
X134366000Y-127762000D03*
X134366000Y-122682000D03*
D12*
X128524000Y-137922000D03*
D13*
X128524000Y-132842000D03*
X128524000Y-127762000D03*
X128524000Y-122682000D03*
D12*
X122682000Y-137922000D03*
D13*
X122682000Y-132842000D03*
X122682000Y-127762000D03*
X122682000Y-122682000D03*
D14*
X111000000Y-162900000D03*
X110000000Y-162900000D03*
X116000000Y-162900000D03*
X115000000Y-162900000D03*
X114000000Y-162900000D03*
X113000000Y-162900000D03*
X112000000Y-162900000D03*
X107000000Y-162900000D03*
X106000000Y-162900000D03*
X105000000Y-162900000D03*
X104000000Y-162900000D03*
X103000000Y-162900000D03*
X102000000Y-162900000D03*
X101000000Y-162900000D03*
X100000000Y-162900000D03*
X99000000Y-162900000D03*
X98000000Y-162900000D03*
D15*
X97000000Y-162350000D03*
D16*
X99009200Y-159562800D03*
X101041200Y-159537400D03*
X103428800Y-157099000D03*
X105262260Y-159380340D03*
X106904765Y-158288113D03*
X111328200Y-159181800D03*
X54610000Y-121412000D03*
X126771400Y-150723600D03*
X147421600Y-153847800D03*
X148107400Y-148793200D03*
X162128200Y-144170400D03*
X159588200Y-152654000D03*
X102133400Y-146202400D03*
X97459800Y-158318200D03*
X90119200Y-153568400D03*
X85979000Y-150850600D03*
X102514400Y-137414000D03*
X90373200Y-149326600D03*
X96774000Y-149352000D03*
X99542600Y-147040600D03*
X86487000Y-139928600D03*
X96951800Y-140843000D03*
X146431000Y-142722600D03*
X111556800Y-126365000D03*
X111531400Y-129057400D03*
X110439200Y-134035800D03*
X111582200Y-143764000D03*
X104368600Y-149555200D03*
X102108000Y-150215600D03*
X106197400Y-151612600D03*
X111963200Y-152628600D03*
X117805200Y-142646400D03*
X123063000Y-146735800D03*
X118694200Y-155981400D03*
X144068800Y-151790400D03*
X159613600Y-149707600D03*
X145084800Y-146761200D03*
X140817600Y-141097000D03*
X148539200Y-140665200D03*
X150672800Y-140868400D03*
X146202400Y-136398000D03*
X159308800Y-121386600D03*
X161391600Y-120218200D03*
X165277800Y-126060200D03*
X162788600Y-126085600D03*
X165404800Y-123037600D03*
X74523600Y-147548600D03*
X76860400Y-147472400D03*
X68656200Y-142951200D03*
X76708000Y-139725400D03*
X75336400Y-136220200D03*
X82600800Y-140817600D03*
X94361000Y-134493000D03*
X89916000Y-133502400D03*
X78181200Y-134416800D03*
X73279000Y-133578600D03*
X67970400Y-133959600D03*
X127000000Y-134391400D03*
X132105400Y-133731000D03*
X138074400Y-133223000D03*
X153517600Y-133934200D03*
X147701000Y-123723400D03*
X161112200Y-123571000D03*
X156946600Y-141732000D03*
X127177800Y-140233400D03*
X131394200Y-141909800D03*
X97205800Y-142570200D03*
X89484200Y-142671800D03*
X105105200Y-154508200D03*
X149148800Y-132486400D03*
X111455200Y-121285000D03*
X106730800Y-121335800D03*
X116433600Y-121335800D03*
X113715800Y-140868400D03*
X108508800Y-137998200D03*
X99898200Y-136067800D03*
X104114600Y-120243600D03*
X77749400Y-123037600D03*
X96139000Y-138049000D03*
X90195400Y-138303000D03*
X117449600Y-152552400D03*
X96113600Y-122250200D03*
X84455000Y-124079000D03*
X90322400Y-124079000D03*
X144348200Y-132689600D03*
X83388200Y-137363200D03*
X100736400Y-122047000D03*
X104876600Y-158089600D03*
X53111400Y-128752600D03*
X118592600Y-150647400D03*
X150571200Y-153924000D03*
X151079200Y-147726400D03*
X160553400Y-144170400D03*
X101981000Y-144246600D03*
X147664010Y-150835500D03*
D17*
X118872719Y-153938390D03*
X116713000Y-154736800D03*
D16*
X109575600Y-139750800D03*
X110606607Y-152447431D03*
X108991400Y-141579600D03*
X109524800Y-154203400D03*
X108305600Y-144145000D03*
X108432600Y-152527000D03*
X146954630Y-144430711D03*
X107112232Y-149411687D03*
X103276400Y-150190202D03*
X101236368Y-148988911D03*
X113030000Y-146558000D03*
X86614000Y-141325600D03*
X145288000Y-141401800D03*
D17*
X88265000Y-149529800D03*
D16*
X134366000Y-144322800D03*
X114757200Y-155778200D03*
X128473200Y-143865600D03*
X113724473Y-157555554D03*
X125958600Y-142976600D03*
X112316463Y-156147543D03*
X111633000Y-150291800D03*
X102565200Y-158292800D03*
X110275210Y-148976077D03*
X100533202Y-157810200D03*
X98704400Y-156489400D03*
X112014000Y-148107400D03*
X155244800Y-150063200D03*
X160883600Y-121513600D03*
X167132000Y-124409200D03*
D18*
X99009200Y-162890800D02*
X99000000Y-162900000D01*
X99009200Y-159562800D02*
X99009200Y-162890800D01*
X101000000Y-162900000D02*
X101000000Y-159578600D01*
X101000000Y-159578600D02*
X101041200Y-159537400D01*
X107000000Y-158383348D02*
X106904765Y-158288113D01*
X105000000Y-159642600D02*
X105262260Y-159380340D01*
X105000000Y-162900000D02*
X105000000Y-159642600D01*
X107000000Y-162900000D02*
X107000000Y-158383348D01*
X111000000Y-159510000D02*
X111328200Y-159181800D01*
X111000000Y-162900000D02*
X111000000Y-159510000D01*
X97000000Y-162350000D02*
X97000000Y-158778000D01*
X97000000Y-158778000D02*
X97459800Y-158318200D01*
X103000000Y-159058002D02*
X103428800Y-158629202D01*
X103428800Y-158629202D02*
X103428800Y-157664685D01*
X103000000Y-162900000D02*
X103000000Y-159058002D01*
X103428800Y-157664685D02*
X103428800Y-157099000D01*
X89484200Y-148437600D02*
X89484200Y-142671800D01*
X90373200Y-149326600D02*
X89484200Y-148437600D01*
X99060000Y-136972000D02*
X95707200Y-133619200D01*
X99060000Y-137922000D02*
X99060000Y-136972000D01*
X95707200Y-133619200D02*
X95707200Y-132537200D01*
X95707200Y-132537200D02*
X88519000Y-125349000D01*
X78359000Y-125349000D02*
X75692000Y-122682000D01*
X88519000Y-125349000D02*
X78359000Y-125349000D01*
X76391999Y-121982001D02*
X78855799Y-121982001D01*
X75692000Y-122682000D02*
X76391999Y-121982001D01*
X78855799Y-121982001D02*
X79908400Y-120929400D01*
X79908400Y-120929400D02*
X101244400Y-120929400D01*
X101244400Y-120929400D02*
X105460800Y-125145800D01*
X105460800Y-125145800D02*
X128219200Y-125145800D01*
X128219200Y-125145800D02*
X132486400Y-120878600D01*
X132486400Y-120878600D02*
X141401800Y-120878600D01*
X150942000Y-137922000D02*
X151892000Y-137922000D01*
X150190200Y-137170200D02*
X150942000Y-137922000D01*
X150190200Y-129667000D02*
X150190200Y-137170200D01*
X148971000Y-128447800D02*
X148920200Y-128447800D01*
X141401800Y-120878600D02*
X148920200Y-128447800D01*
X148920200Y-128447800D02*
X150190200Y-129667000D01*
X140208000Y-137922000D02*
X146050000Y-137922000D01*
X140208000Y-136972000D02*
X137312400Y-134076400D01*
X140208000Y-137922000D02*
X140208000Y-136972000D01*
X137312400Y-134076400D02*
X137312400Y-131699000D01*
X137312400Y-131699000D02*
X135839200Y-130225800D01*
X135839200Y-130225800D02*
X97663000Y-130225800D01*
X97663000Y-130225800D02*
X95808800Y-128371600D01*
X95808800Y-125272800D02*
X93218000Y-122682000D01*
X95808800Y-128371600D02*
X95808800Y-125272800D01*
X107703189Y-152183409D02*
X108164168Y-151722430D01*
X110000000Y-157499410D02*
X107703189Y-155202599D01*
X128104207Y-143161589D02*
X128125198Y-143140598D01*
X123767011Y-141916989D02*
X125971993Y-141916989D01*
X107703189Y-155202599D02*
X107703189Y-152183409D01*
X127216593Y-143161589D02*
X128104207Y-143161589D01*
X147264011Y-150435501D02*
X147664010Y-150835500D01*
X140426308Y-143597798D02*
X147264011Y-150435501D01*
X113961570Y-151722430D02*
X123767011Y-141916989D01*
X128125198Y-143140598D02*
X128821202Y-143140598D01*
X125971993Y-141916989D02*
X127216593Y-143161589D01*
X128821202Y-143140598D02*
X129278402Y-143597798D01*
X110000000Y-162900000D02*
X110000000Y-157499410D01*
X108164168Y-151722430D02*
X113961570Y-151722430D01*
X129278402Y-143597798D02*
X140426308Y-143597798D01*
D19*
X116000000Y-160350000D02*
X116001800Y-160348200D01*
X116000000Y-162900000D02*
X116000000Y-160350000D01*
X116001800Y-160348200D02*
X116001800Y-156768800D01*
X115000000Y-160350000D02*
X116001800Y-159348200D01*
X116001800Y-159348200D02*
X116001800Y-156768800D01*
X115000000Y-162900000D02*
X115000000Y-160350000D01*
X118372720Y-154438389D02*
X118872719Y-153938390D01*
X116001800Y-156768800D02*
X116042309Y-156768800D01*
X117212999Y-155312999D02*
X117322600Y-155422600D01*
X116713000Y-154736800D02*
X117212999Y-155236799D01*
X116042309Y-156768800D02*
X117322600Y-155422600D01*
X117212999Y-155236799D02*
X117212999Y-155312999D01*
X117322600Y-155422600D02*
X118372720Y-154438389D01*
D18*
X110606607Y-153013116D02*
X110606607Y-152447431D01*
X114000000Y-162900000D02*
X114000000Y-158856400D01*
X114000000Y-158856400D02*
X110606607Y-155463007D01*
X110606607Y-155463007D02*
X110606607Y-153013116D01*
X109575600Y-139750800D02*
X109005778Y-139180978D01*
X93218000Y-138872000D02*
X93218000Y-137922000D01*
X109005778Y-139180978D02*
X93526978Y-139180978D01*
X93526978Y-139180978D02*
X93218000Y-138872000D01*
X109524800Y-155047232D02*
X109524800Y-154769085D01*
X109524800Y-154769085D02*
X109524800Y-154203400D01*
X113000000Y-162900000D02*
X113000000Y-158522432D01*
X113000000Y-158522432D02*
X109524800Y-155047232D01*
X87376000Y-138872000D02*
X87376000Y-137922000D01*
X108991400Y-141579600D02*
X107042789Y-139630989D01*
X107042789Y-139630989D02*
X88134989Y-139630989D01*
X88134989Y-139630989D02*
X87376000Y-138872000D01*
X112053202Y-160446798D02*
X112000000Y-160500000D01*
X108432600Y-152527000D02*
X108432600Y-155213196D01*
X112000000Y-160500000D02*
X112000000Y-162900000D01*
X112053202Y-158833798D02*
X112053202Y-160446798D01*
X108432600Y-155213196D02*
X112053202Y-158833798D01*
X108305600Y-142468600D02*
X108305600Y-144145000D01*
X105918000Y-140081000D02*
X108305600Y-142468600D01*
X87212001Y-139580599D02*
X87212001Y-139739201D01*
X86099798Y-139242800D02*
X86138999Y-139203599D01*
X82484000Y-137922000D02*
X83804800Y-139242800D01*
X86835001Y-139203599D02*
X87212001Y-139580599D01*
X87212001Y-139739201D02*
X87553800Y-140081000D01*
X86138999Y-139203599D02*
X86835001Y-139203599D01*
X83804800Y-139242800D02*
X86099798Y-139242800D01*
X87553800Y-140081000D02*
X105918000Y-140081000D01*
X81534000Y-137922000D02*
X82484000Y-137922000D01*
X129464802Y-143147787D02*
X145671706Y-143147787D01*
X127938798Y-142690587D02*
X129007602Y-142690587D01*
X106000000Y-153250187D02*
X107977768Y-151272419D01*
X113773759Y-151272419D02*
X123680800Y-141365378D01*
X129007602Y-142690587D02*
X129464802Y-143147787D01*
X107977768Y-151272419D02*
X113773759Y-151272419D01*
X127917807Y-142711578D02*
X127938798Y-142690587D01*
X106000000Y-162900000D02*
X106000000Y-153250187D01*
X126571607Y-141365378D02*
X127917807Y-142711578D01*
X145671706Y-143147787D02*
X146954630Y-144430711D01*
X123680800Y-141365378D02*
X126571607Y-141365378D01*
X104000000Y-162900000D02*
X104000000Y-160500000D01*
X106712233Y-149811686D02*
X107112232Y-149411687D01*
X104000000Y-160500000D02*
X103922998Y-160422998D01*
X104153802Y-152370117D02*
X106712233Y-149811686D01*
X103922998Y-157677806D02*
X104153802Y-157447002D01*
X103922998Y-160422998D02*
X103922998Y-157677806D01*
X104153802Y-157447002D02*
X104153802Y-152370117D01*
X102000000Y-159029202D02*
X101549988Y-158579190D01*
X102876401Y-150590201D02*
X103276400Y-150190202D01*
X101549988Y-158579190D02*
X101549988Y-151916614D01*
X102000000Y-162900000D02*
X102000000Y-159029202D01*
X101549988Y-151916614D02*
X102876401Y-150590201D01*
X100000000Y-162900000D02*
X100000000Y-158832602D01*
X100836369Y-149388910D02*
X101236368Y-148988911D01*
X99630399Y-158463001D02*
X99630399Y-150594880D01*
X99630399Y-150594880D02*
X100836369Y-149388910D01*
X100000000Y-158832602D02*
X99630399Y-158463001D01*
X97942400Y-157727796D02*
X97942400Y-150391989D01*
X102901602Y-146558000D02*
X112464315Y-146558000D01*
X112464315Y-146558000D02*
X113030000Y-146558000D01*
X98000000Y-162900000D02*
X98000000Y-158952604D01*
X102532201Y-146927401D02*
X102901602Y-146558000D01*
X98184802Y-158767802D02*
X98184802Y-157970198D01*
X101406988Y-146927401D02*
X102532201Y-146927401D01*
X98184802Y-157970198D02*
X97942400Y-157727796D01*
X98000000Y-158952604D02*
X98184802Y-158767802D01*
X97942400Y-150391989D02*
X101406988Y-146927401D01*
D19*
X88265000Y-148822694D02*
X88214200Y-148771894D01*
X88265000Y-149529800D02*
X88265000Y-148822694D01*
X88214200Y-142925800D02*
X86614000Y-141325600D01*
X88214200Y-148771894D02*
X88214200Y-142925800D01*
X100049949Y-127762000D02*
X122682000Y-127762000D01*
X99060000Y-127762000D02*
X100049949Y-127762000D01*
X142519400Y-133223000D02*
X144830800Y-135534400D01*
X140208000Y-127762000D02*
X142519400Y-130073400D01*
X142519400Y-130073400D02*
X142519400Y-133223000D01*
D18*
X144729200Y-135534400D02*
X144830800Y-135534400D01*
D19*
X146659600Y-135534400D02*
X147802600Y-136677400D01*
X144729200Y-135534400D02*
X146659600Y-135534400D01*
X147802600Y-138887200D02*
X145288000Y-141401800D01*
X147802600Y-136677400D02*
X147802600Y-138887200D01*
D18*
X133966001Y-144722799D02*
X123221801Y-144722799D01*
X114757200Y-155212515D02*
X114757200Y-155778200D01*
X134366000Y-144322800D02*
X133966001Y-144722799D01*
X114757200Y-153187400D02*
X114757200Y-155212515D01*
X123221801Y-144722799D02*
X114757200Y-153187400D01*
X113715800Y-153592389D02*
X113715800Y-157546881D01*
X128473200Y-143865600D02*
X123442589Y-143865600D01*
X113715800Y-157546881D02*
X113724473Y-157555554D01*
X123442589Y-143865600D02*
X113715800Y-153592389D01*
X125958600Y-142976600D02*
X123695178Y-142976600D01*
X123695178Y-142976600D02*
X112316463Y-154355315D01*
X112316463Y-154355315D02*
X112316463Y-155581858D01*
X112316463Y-155581858D02*
X112316463Y-156147543D01*
X107365814Y-148592257D02*
X106906343Y-148592257D01*
X106906343Y-148592257D02*
X102565200Y-152933400D01*
X109065357Y-150291800D02*
X107365814Y-148592257D01*
X111633000Y-150291800D02*
X109065357Y-150291800D01*
X102565200Y-157727115D02*
X102565200Y-158292800D01*
X102565200Y-152933400D02*
X102565200Y-157727115D01*
X100533202Y-150717396D02*
X100533202Y-157244515D01*
X100533202Y-157244515D02*
X100533202Y-157810200D01*
X110275210Y-148976077D02*
X108974733Y-147675600D01*
X108974733Y-147675600D02*
X103574998Y-147675600D01*
X103574998Y-147675600D02*
X100533202Y-150717396D01*
X101593388Y-147377412D02*
X102718601Y-147377412D01*
X102718601Y-147377412D02*
X102871001Y-147225012D01*
X111131612Y-147225012D02*
X111614001Y-147707401D01*
X98704400Y-156489400D02*
X98704400Y-150266400D01*
X111614001Y-147707401D02*
X112014000Y-148107400D01*
X102871001Y-147225012D02*
X111131612Y-147225012D01*
X98704400Y-150266400D02*
X101593388Y-147377412D01*
X135065999Y-123381999D02*
X138520399Y-123381999D01*
X134366000Y-122682000D02*
X135065999Y-123381999D01*
X138520399Y-123381999D02*
X148920200Y-133781800D01*
X148920200Y-133781800D02*
X148920200Y-138074400D01*
X148920200Y-138074400D02*
X155244800Y-144399000D01*
X155244800Y-144399000D02*
X155244800Y-150063200D01*
X160883600Y-121513600D02*
X163779200Y-124409200D01*
X163779200Y-124409200D02*
X167132000Y-124409200D01*
D20*
G36*
X98978399Y-158430979D02*
G01*
X98975245Y-158463001D01*
X98987834Y-158590815D01*
X99015048Y-158680528D01*
X99025116Y-158713717D01*
X99085658Y-158826984D01*
X99167135Y-158926265D01*
X99192018Y-158946686D01*
X99348001Y-159102669D01*
X99348001Y-160112024D01*
X99285750Y-160115000D01*
X99127000Y-160273750D01*
X99127000Y-160683506D01*
X99120451Y-160750000D01*
X99120451Y-163047000D01*
X98879549Y-163047000D01*
X98879549Y-160750000D01*
X98873000Y-160683506D01*
X98873000Y-160273750D01*
X98714250Y-160115000D01*
X98652000Y-160112024D01*
X98652000Y-159226272D01*
X98729543Y-159131786D01*
X98790085Y-159018519D01*
X98824821Y-158904010D01*
X98827367Y-158895617D01*
X98828724Y-158881835D01*
X98836802Y-158799824D01*
X98836802Y-158799817D01*
X98839955Y-158767803D01*
X98836802Y-158735788D01*
X98836802Y-158002219D01*
X98839956Y-157970197D01*
X98827367Y-157842383D01*
X98805887Y-157771573D01*
X98790085Y-157719481D01*
X98729543Y-157606214D01*
X98648066Y-157506934D01*
X98623183Y-157486513D01*
X98594400Y-157457730D01*
X98594400Y-157412681D01*
X98613099Y-157416400D01*
X98795701Y-157416400D01*
X98974796Y-157380776D01*
X98978399Y-157379284D01*
X98978399Y-158430979D01*
G37*
X98978399Y-158430979D02*
X98975245Y-158463001D01*
X98987834Y-158590815D01*
X99015048Y-158680528D01*
X99025116Y-158713717D01*
X99085658Y-158826984D01*
X99167135Y-158926265D01*
X99192018Y-158946686D01*
X99348001Y-159102669D01*
X99348001Y-160112024D01*
X99285750Y-160115000D01*
X99127000Y-160273750D01*
X99127000Y-160683506D01*
X99120451Y-160750000D01*
X99120451Y-163047000D01*
X98879549Y-163047000D01*
X98879549Y-160750000D01*
X98873000Y-160683506D01*
X98873000Y-160273750D01*
X98714250Y-160115000D01*
X98652000Y-160112024D01*
X98652000Y-159226272D01*
X98729543Y-159131786D01*
X98790085Y-159018519D01*
X98824821Y-158904010D01*
X98827367Y-158895617D01*
X98828724Y-158881835D01*
X98836802Y-158799824D01*
X98836802Y-158799817D01*
X98839955Y-158767803D01*
X98836802Y-158735788D01*
X98836802Y-158002219D01*
X98839956Y-157970197D01*
X98827367Y-157842383D01*
X98805887Y-157771573D01*
X98790085Y-157719481D01*
X98729543Y-157606214D01*
X98648066Y-157506934D01*
X98623183Y-157486513D01*
X98594400Y-157457730D01*
X98594400Y-157412681D01*
X98613099Y-157416400D01*
X98795701Y-157416400D01*
X98974796Y-157380776D01*
X98978399Y-157379284D01*
X98978399Y-158430979D01*
G36*
X100907423Y-158707004D02*
G01*
X100938328Y-158808885D01*
X100944705Y-158829906D01*
X101005247Y-158943173D01*
X101086724Y-159042454D01*
X101111606Y-159062874D01*
X101348001Y-159299269D01*
X101348001Y-160112024D01*
X101285750Y-160115000D01*
X101127000Y-160273750D01*
X101127000Y-160683506D01*
X101120451Y-160750000D01*
X101120451Y-163047000D01*
X100879549Y-163047000D01*
X100879549Y-160750000D01*
X100873000Y-160683506D01*
X100873000Y-160273750D01*
X100714250Y-160115000D01*
X100652000Y-160112024D01*
X100652000Y-158864624D01*
X100655154Y-158832602D01*
X100645349Y-158733053D01*
X100803598Y-158701576D01*
X100902839Y-158660468D01*
X100907423Y-158707004D01*
G37*
X100907423Y-158707004D02*
X100938328Y-158808885D01*
X100944705Y-158829906D01*
X101005247Y-158943173D01*
X101086724Y-159042454D01*
X101111606Y-159062874D01*
X101348001Y-159299269D01*
X101348001Y-160112024D01*
X101285750Y-160115000D01*
X101127000Y-160273750D01*
X101127000Y-160683506D01*
X101120451Y-160750000D01*
X101120451Y-163047000D01*
X100879549Y-163047000D01*
X100879549Y-160750000D01*
X100873000Y-160683506D01*
X100873000Y-160273750D01*
X100714250Y-160115000D01*
X100652000Y-160112024D01*
X100652000Y-158864624D01*
X100655154Y-158832602D01*
X100645349Y-158733053D01*
X100803598Y-158701576D01*
X100902839Y-158660468D01*
X100907423Y-158707004D01*
G36*
X103270998Y-160129752D02*
G01*
X103127000Y-160273750D01*
X103127000Y-160683506D01*
X103120451Y-160750000D01*
X103120451Y-163047000D01*
X102879549Y-163047000D01*
X102879549Y-160750000D01*
X102873000Y-160683506D01*
X102873000Y-160273750D01*
X102714250Y-160115000D01*
X102652000Y-160112024D01*
X102652000Y-159219800D01*
X102656501Y-159219800D01*
X102835596Y-159184176D01*
X103004299Y-159114296D01*
X103156128Y-159012848D01*
X103270999Y-158897977D01*
X103270998Y-160129752D01*
G37*
X103270998Y-160129752D02*
X103127000Y-160273750D01*
X103127000Y-160683506D01*
X103120451Y-160750000D01*
X103120451Y-163047000D01*
X102879549Y-163047000D01*
X102879549Y-160750000D01*
X102873000Y-160683506D01*
X102873000Y-160273750D01*
X102714250Y-160115000D01*
X102652000Y-160112024D01*
X102652000Y-159219800D01*
X102656501Y-159219800D01*
X102835596Y-159184176D01*
X103004299Y-159114296D01*
X103156128Y-159012848D01*
X103270999Y-158897977D01*
X103270998Y-160129752D01*
G36*
X105348000Y-160112024D02*
G01*
X105285750Y-160115000D01*
X105127000Y-160273750D01*
X105127000Y-160683506D01*
X105120451Y-160750000D01*
X105120451Y-163047000D01*
X104879549Y-163047000D01*
X104879549Y-160750000D01*
X104873000Y-160683506D01*
X104873000Y-160273750D01*
X104714250Y-160115000D01*
X104650000Y-160111928D01*
X104574998Y-160119315D01*
X104574998Y-158968050D01*
X104606204Y-158980976D01*
X104785299Y-159016600D01*
X104967901Y-159016600D01*
X105146996Y-158980976D01*
X105315699Y-158911096D01*
X105348000Y-158889513D01*
X105348000Y-160112024D01*
G37*
X105348000Y-160112024D02*
X105285750Y-160115000D01*
X105127000Y-160273750D01*
X105127000Y-160683506D01*
X105120451Y-160750000D01*
X105120451Y-163047000D01*
X104879549Y-163047000D01*
X104879549Y-160750000D01*
X104873000Y-160683506D01*
X104873000Y-160273750D01*
X104714250Y-160115000D01*
X104650000Y-160111928D01*
X104574998Y-160119315D01*
X104574998Y-158968050D01*
X104606204Y-158980976D01*
X104785299Y-159016600D01*
X104967901Y-159016600D01*
X105146996Y-158980976D01*
X105315699Y-158911096D01*
X105348000Y-158889513D01*
X105348000Y-160112024D01*
G36*
X111401202Y-159103865D02*
G01*
X111401203Y-160116971D01*
X111350000Y-160111928D01*
X111285750Y-160115000D01*
X111127000Y-160273750D01*
X111127000Y-160683506D01*
X111120451Y-160750000D01*
X111120451Y-163047000D01*
X110879549Y-163047000D01*
X110879549Y-160750000D01*
X110873000Y-160683506D01*
X110873000Y-160273750D01*
X110714250Y-160115000D01*
X110652000Y-160112024D01*
X110652000Y-158354663D01*
X111401202Y-159103865D01*
G37*
X111401202Y-159103865D02*
X111401203Y-160116971D01*
X111350000Y-160111928D01*
X111285750Y-160115000D01*
X111127000Y-160273750D01*
X111127000Y-160683506D01*
X111120451Y-160750000D01*
X111120451Y-163047000D01*
X110879549Y-163047000D01*
X110879549Y-160750000D01*
X110873000Y-160683506D01*
X110873000Y-160273750D01*
X110714250Y-160115000D01*
X110652000Y-160112024D01*
X110652000Y-158354663D01*
X111401202Y-159103865D01*
G36*
X106973001Y-163047000D02*
G01*
X106879549Y-163047000D01*
X106879549Y-162753000D01*
X106973001Y-162753000D01*
X106973001Y-163047000D01*
G37*
X106973001Y-163047000D02*
X106879549Y-163047000D01*
X106879549Y-162753000D01*
X106973001Y-162753000D01*
X106973001Y-163047000D01*
G36*
X174423001Y-125026000D02*
G01*
X167826176Y-125026000D01*
X167852048Y-125000128D01*
X167953496Y-124848299D01*
X168023376Y-124679596D01*
X168059000Y-124500501D01*
X168059000Y-124317899D01*
X168023376Y-124138804D01*
X167953496Y-123970101D01*
X167852048Y-123818272D01*
X167722928Y-123689152D01*
X167571099Y-123587704D01*
X167402396Y-123517824D01*
X167223301Y-123482200D01*
X167040699Y-123482200D01*
X166861604Y-123517824D01*
X166692901Y-123587704D01*
X166541072Y-123689152D01*
X166473024Y-123757200D01*
X164049267Y-123757200D01*
X163330958Y-123038891D01*
X168738519Y-123038891D01*
X168835843Y-123313252D01*
X168984822Y-123563355D01*
X169179731Y-123779588D01*
X169413080Y-123953641D01*
X169675901Y-124078825D01*
X169823110Y-124123476D01*
X170053000Y-124002155D01*
X170053000Y-122809000D01*
X168859186Y-122809000D01*
X168738519Y-123038891D01*
X163330958Y-123038891D01*
X162617176Y-122325109D01*
X168738519Y-122325109D01*
X168859186Y-122555000D01*
X170053000Y-122555000D01*
X170053000Y-121361845D01*
X170307000Y-121361845D01*
X170307000Y-122555000D01*
X170327000Y-122555000D01*
X170327000Y-122809000D01*
X170307000Y-122809000D01*
X170307000Y-124002155D01*
X170536890Y-124123476D01*
X170684099Y-124078825D01*
X170946920Y-123953641D01*
X171180269Y-123779588D01*
X171346656Y-123594998D01*
X171350626Y-123635310D01*
X171380761Y-123734650D01*
X171429696Y-123826202D01*
X171495552Y-123906448D01*
X171575798Y-123972304D01*
X171667350Y-124021239D01*
X171766690Y-124051374D01*
X171870000Y-124061549D01*
X173570000Y-124061549D01*
X173673310Y-124051374D01*
X173772650Y-124021239D01*
X173864202Y-123972304D01*
X173944448Y-123906448D01*
X174010304Y-123826202D01*
X174059239Y-123734650D01*
X174089374Y-123635310D01*
X174099549Y-123532000D01*
X174099549Y-121832000D01*
X174089374Y-121728690D01*
X174059239Y-121629350D01*
X174010304Y-121537798D01*
X173944448Y-121457552D01*
X173864202Y-121391696D01*
X173772650Y-121342761D01*
X173673310Y-121312626D01*
X173570000Y-121302451D01*
X171870000Y-121302451D01*
X171766690Y-121312626D01*
X171667350Y-121342761D01*
X171575798Y-121391696D01*
X171495552Y-121457552D01*
X171429696Y-121537798D01*
X171380761Y-121629350D01*
X171350626Y-121728690D01*
X171346656Y-121769002D01*
X171180269Y-121584412D01*
X170946920Y-121410359D01*
X170684099Y-121285175D01*
X170536890Y-121240524D01*
X170307000Y-121361845D01*
X170053000Y-121361845D01*
X169823110Y-121240524D01*
X169675901Y-121285175D01*
X169413080Y-121410359D01*
X169179731Y-121584412D01*
X168984822Y-121800645D01*
X168835843Y-122050748D01*
X168738519Y-122325109D01*
X162617176Y-122325109D01*
X161810600Y-121518534D01*
X161810600Y-121422299D01*
X161774976Y-121243204D01*
X161705096Y-121074501D01*
X161603648Y-120922672D01*
X161474528Y-120793552D01*
X161322699Y-120692104D01*
X161153996Y-120622224D01*
X160974901Y-120586600D01*
X160792299Y-120586600D01*
X160613204Y-120622224D01*
X160444501Y-120692104D01*
X160292672Y-120793552D01*
X160163552Y-120922672D01*
X160062104Y-121074501D01*
X159992224Y-121243204D01*
X159956600Y-121422299D01*
X159956600Y-121604901D01*
X159992224Y-121783996D01*
X160062104Y-121952699D01*
X160163552Y-122104528D01*
X160292672Y-122233648D01*
X160444501Y-122335096D01*
X160613204Y-122404976D01*
X160792299Y-122440600D01*
X160888534Y-122440600D01*
X163295520Y-124847587D01*
X163315936Y-124872464D01*
X163415216Y-124953941D01*
X163528483Y-125014483D01*
X163651385Y-125051765D01*
X163779200Y-125064354D01*
X163811222Y-125061200D01*
X166473024Y-125061200D01*
X166541072Y-125129248D01*
X166692901Y-125230696D01*
X166757395Y-125257411D01*
X166655391Y-125312564D01*
X166612033Y-125341809D01*
X166568273Y-125370445D01*
X166562030Y-125375537D01*
X166371051Y-125533530D01*
X166334239Y-125570600D01*
X166296837Y-125607227D01*
X166291702Y-125613434D01*
X166135047Y-125805512D01*
X166106088Y-125849098D01*
X166076560Y-125892223D01*
X166072732Y-125899304D01*
X166072729Y-125899308D01*
X166072729Y-125899309D01*
X165956366Y-126118157D01*
X165936455Y-126166466D01*
X165915836Y-126214572D01*
X165913454Y-126222268D01*
X165841814Y-126459549D01*
X165831655Y-126510857D01*
X165820783Y-126562004D01*
X165819941Y-126570017D01*
X165795754Y-126816695D01*
X165795754Y-126816704D01*
X165793000Y-126844665D01*
X165793001Y-156323000D01*
X117671664Y-156323000D01*
X117646839Y-156325445D01*
X117640377Y-156325400D01*
X117632359Y-156326187D01*
X117448116Y-156345551D01*
X117818492Y-155956109D01*
X117839153Y-155939153D01*
X117854422Y-155920547D01*
X118852432Y-154985176D01*
X118861537Y-154977704D01*
X118873851Y-154965390D01*
X118973870Y-154965390D01*
X119172284Y-154925923D01*
X119359186Y-154848505D01*
X119527393Y-154736113D01*
X119670442Y-154593064D01*
X119782834Y-154424857D01*
X119860252Y-154237955D01*
X119899719Y-154039541D01*
X119899719Y-153837239D01*
X119898816Y-153832699D01*
X149644200Y-153832699D01*
X149644200Y-154015301D01*
X149679824Y-154194396D01*
X149749704Y-154363099D01*
X149851152Y-154514928D01*
X149980272Y-154644048D01*
X150132101Y-154745496D01*
X150300804Y-154815376D01*
X150479899Y-154851000D01*
X150662501Y-154851000D01*
X150841596Y-154815376D01*
X151010299Y-154745496D01*
X151162128Y-154644048D01*
X151291248Y-154514928D01*
X151392696Y-154363099D01*
X151462576Y-154194396D01*
X151498200Y-154015301D01*
X151498200Y-153832699D01*
X151462576Y-153653604D01*
X151392696Y-153484901D01*
X151291248Y-153333072D01*
X151162128Y-153203952D01*
X151010299Y-153102504D01*
X150841596Y-153032624D01*
X150662501Y-152997000D01*
X150479899Y-152997000D01*
X150300804Y-153032624D01*
X150132101Y-153102504D01*
X149980272Y-153203952D01*
X149851152Y-153333072D01*
X149749704Y-153484901D01*
X149679824Y-153653604D01*
X149644200Y-153832699D01*
X119898816Y-153832699D01*
X119860252Y-153638825D01*
X119782834Y-153451923D01*
X119670442Y-153283716D01*
X119527393Y-153140667D01*
X119359186Y-153028275D01*
X119172284Y-152950857D01*
X118973870Y-152911390D01*
X118771568Y-152911390D01*
X118573154Y-152950857D01*
X118386252Y-153028275D01*
X118218045Y-153140667D01*
X118074996Y-153283716D01*
X117962604Y-153451923D01*
X117885186Y-153638825D01*
X117845719Y-153837239D01*
X117845719Y-153935922D01*
X117579654Y-154185289D01*
X117510723Y-154082126D01*
X117367674Y-153939077D01*
X117199467Y-153826685D01*
X117012565Y-153749267D01*
X116814151Y-153709800D01*
X116611849Y-153709800D01*
X116413435Y-153749267D01*
X116226533Y-153826685D01*
X116058326Y-153939077D01*
X115915277Y-154082126D01*
X115802885Y-154250333D01*
X115725467Y-154437235D01*
X115686000Y-154635649D01*
X115686000Y-154837951D01*
X115725467Y-155036365D01*
X115802885Y-155223267D01*
X115915277Y-155391474D01*
X116058326Y-155534523D01*
X116152826Y-155597665D01*
X115638146Y-156138841D01*
X115603531Y-156157343D01*
X115648576Y-156048596D01*
X115684200Y-155869501D01*
X115684200Y-155686899D01*
X115648576Y-155507804D01*
X115578696Y-155339101D01*
X115477248Y-155187272D01*
X115409200Y-155119224D01*
X115409200Y-153457466D01*
X117774734Y-151091932D01*
X117872552Y-151238328D01*
X118001672Y-151367448D01*
X118153501Y-151468896D01*
X118322204Y-151538776D01*
X118501299Y-151574400D01*
X118683901Y-151574400D01*
X118862996Y-151538776D01*
X119031699Y-151468896D01*
X119183528Y-151367448D01*
X119312648Y-151238328D01*
X119414096Y-151086499D01*
X119483976Y-150917796D01*
X119519600Y-150738701D01*
X119519600Y-150556099D01*
X119483976Y-150377004D01*
X119414096Y-150208301D01*
X119312648Y-150056472D01*
X119183528Y-149927352D01*
X119037132Y-149829534D01*
X123491868Y-145374799D01*
X133933979Y-145374799D01*
X133966001Y-145377953D01*
X133998023Y-145374799D01*
X134093815Y-145365364D01*
X134216718Y-145328082D01*
X134329985Y-145267540D01*
X134351601Y-145249800D01*
X134457301Y-145249800D01*
X134636396Y-145214176D01*
X134805099Y-145144296D01*
X134956928Y-145042848D01*
X135086048Y-144913728D01*
X135187496Y-144761899D01*
X135257376Y-144593196D01*
X135293000Y-144414101D01*
X135293000Y-144249798D01*
X140156242Y-144249798D01*
X146737010Y-150830567D01*
X146737010Y-150926801D01*
X146772634Y-151105896D01*
X146842514Y-151274599D01*
X146943962Y-151426428D01*
X147073082Y-151555548D01*
X147224911Y-151656996D01*
X147393614Y-151726876D01*
X147572709Y-151762500D01*
X147755311Y-151762500D01*
X147934406Y-151726876D01*
X148103109Y-151656996D01*
X148254938Y-151555548D01*
X148384058Y-151426428D01*
X148485506Y-151274599D01*
X148555386Y-151105896D01*
X148591010Y-150926801D01*
X148591010Y-150744199D01*
X148555386Y-150565104D01*
X148485506Y-150396401D01*
X148384058Y-150244572D01*
X148254938Y-150115452D01*
X148103109Y-150014004D01*
X147934406Y-149944124D01*
X147755311Y-149908500D01*
X147659077Y-149908500D01*
X145385676Y-147635099D01*
X150152200Y-147635099D01*
X150152200Y-147817701D01*
X150187824Y-147996796D01*
X150257704Y-148165499D01*
X150359152Y-148317328D01*
X150488272Y-148446448D01*
X150640101Y-148547896D01*
X150808804Y-148617776D01*
X150987899Y-148653400D01*
X151170501Y-148653400D01*
X151349596Y-148617776D01*
X151518299Y-148547896D01*
X151670128Y-148446448D01*
X151799248Y-148317328D01*
X151900696Y-148165499D01*
X151970576Y-147996796D01*
X152006200Y-147817701D01*
X152006200Y-147635099D01*
X151970576Y-147456004D01*
X151900696Y-147287301D01*
X151799248Y-147135472D01*
X151670128Y-147006352D01*
X151518299Y-146904904D01*
X151349596Y-146835024D01*
X151170501Y-146799400D01*
X150987899Y-146799400D01*
X150808804Y-146835024D01*
X150640101Y-146904904D01*
X150488272Y-147006352D01*
X150359152Y-147135472D01*
X150257704Y-147287301D01*
X150187824Y-147456004D01*
X150152200Y-147635099D01*
X145385676Y-147635099D01*
X141550363Y-143799787D01*
X145401640Y-143799787D01*
X146027630Y-144425778D01*
X146027630Y-144522012D01*
X146063254Y-144701107D01*
X146133134Y-144869810D01*
X146234582Y-145021639D01*
X146363702Y-145150759D01*
X146515531Y-145252207D01*
X146684234Y-145322087D01*
X146863329Y-145357711D01*
X147045931Y-145357711D01*
X147225026Y-145322087D01*
X147393729Y-145252207D01*
X147545558Y-145150759D01*
X147674678Y-145021639D01*
X147776126Y-144869810D01*
X147846006Y-144701107D01*
X147881630Y-144522012D01*
X147881630Y-144339410D01*
X147846006Y-144160315D01*
X147776126Y-143991612D01*
X147674678Y-143839783D01*
X147545558Y-143710663D01*
X147393729Y-143609215D01*
X147225026Y-143539335D01*
X147045931Y-143503711D01*
X146949697Y-143503711D01*
X146155391Y-142709406D01*
X146134970Y-142684523D01*
X146035690Y-142603046D01*
X145922423Y-142542504D01*
X145799520Y-142505222D01*
X145703728Y-142495787D01*
X145671706Y-142492633D01*
X145639684Y-142495787D01*
X129734869Y-142495787D01*
X129491286Y-142252205D01*
X129470866Y-142227323D01*
X129371586Y-142145846D01*
X129258319Y-142085304D01*
X129135416Y-142048022D01*
X129039624Y-142038587D01*
X129007602Y-142035433D01*
X128975580Y-142038587D01*
X128166883Y-142038587D01*
X127055292Y-140926997D01*
X127034871Y-140902114D01*
X126935591Y-140820637D01*
X126822324Y-140760095D01*
X126699421Y-140722813D01*
X126603629Y-140713378D01*
X126571607Y-140710224D01*
X126539585Y-140713378D01*
X123712822Y-140713378D01*
X123680800Y-140710224D01*
X123552985Y-140722813D01*
X123513892Y-140734672D01*
X123430083Y-140760095D01*
X123316816Y-140820637D01*
X123217536Y-140902114D01*
X123197120Y-140926991D01*
X113503693Y-150620419D01*
X112500259Y-150620419D01*
X112524376Y-150562196D01*
X112560000Y-150383101D01*
X112560000Y-150200499D01*
X112524376Y-150021404D01*
X112454496Y-149852701D01*
X112353048Y-149700872D01*
X112223928Y-149571752D01*
X112072099Y-149470304D01*
X111903396Y-149400424D01*
X111724301Y-149364800D01*
X111541699Y-149364800D01*
X111362604Y-149400424D01*
X111193901Y-149470304D01*
X111042072Y-149571752D01*
X110974024Y-149639800D01*
X110922463Y-149639800D01*
X110995258Y-149567005D01*
X111096706Y-149415176D01*
X111166586Y-149246473D01*
X111202210Y-149067378D01*
X111202210Y-148884776D01*
X111166586Y-148705681D01*
X111096706Y-148536978D01*
X110995258Y-148385149D01*
X110866138Y-148256029D01*
X110714309Y-148154581D01*
X110545606Y-148084701D01*
X110366511Y-148049077D01*
X110270277Y-148049077D01*
X110098212Y-147877012D01*
X110861546Y-147877012D01*
X111087000Y-148102467D01*
X111087000Y-148198701D01*
X111122624Y-148377796D01*
X111192504Y-148546499D01*
X111293952Y-148698328D01*
X111423072Y-148827448D01*
X111574901Y-148928896D01*
X111743604Y-148998776D01*
X111922699Y-149034400D01*
X112105301Y-149034400D01*
X112284396Y-148998776D01*
X112453099Y-148928896D01*
X112604928Y-148827448D01*
X112734048Y-148698328D01*
X112835496Y-148546499D01*
X112905376Y-148377796D01*
X112941000Y-148198701D01*
X112941000Y-148016099D01*
X112905376Y-147837004D01*
X112835496Y-147668301D01*
X112734048Y-147516472D01*
X112604928Y-147387352D01*
X112596872Y-147381969D01*
X112759604Y-147449376D01*
X112938699Y-147485000D01*
X113121301Y-147485000D01*
X113300396Y-147449376D01*
X113469099Y-147379496D01*
X113620928Y-147278048D01*
X113750048Y-147148928D01*
X113851496Y-146997099D01*
X113921376Y-146828396D01*
X113957000Y-146649301D01*
X113957000Y-146466699D01*
X113921376Y-146287604D01*
X113851496Y-146118901D01*
X113750048Y-145967072D01*
X113620928Y-145837952D01*
X113469099Y-145736504D01*
X113300396Y-145666624D01*
X113121301Y-145631000D01*
X112938699Y-145631000D01*
X112759604Y-145666624D01*
X112590901Y-145736504D01*
X112439072Y-145837952D01*
X112371024Y-145906000D01*
X102933624Y-145906000D01*
X102901602Y-145902846D01*
X102773787Y-145915435D01*
X102712337Y-145934076D01*
X102650885Y-145952717D01*
X102537618Y-146013259D01*
X102438338Y-146094736D01*
X102417917Y-146119619D01*
X102262135Y-146275401D01*
X101439002Y-146275401D01*
X101406987Y-146272248D01*
X101374973Y-146275401D01*
X101374966Y-146275401D01*
X101291815Y-146283591D01*
X101279173Y-146284836D01*
X101205172Y-146307284D01*
X101156271Y-146322118D01*
X101043004Y-146382660D01*
X100943724Y-146464137D01*
X100923308Y-146489014D01*
X97504014Y-149908309D01*
X97479137Y-149928725D01*
X97397660Y-150028005D01*
X97382444Y-150056472D01*
X97337117Y-150141273D01*
X97299835Y-150264175D01*
X97287246Y-150391989D01*
X97290401Y-150424021D01*
X97290400Y-157695774D01*
X97287246Y-157727796D01*
X97299835Y-157855610D01*
X97326277Y-157942778D01*
X97337117Y-157978512D01*
X97397659Y-158091779D01*
X97479136Y-158191060D01*
X97504019Y-158211481D01*
X97532802Y-158240264D01*
X97532802Y-158494135D01*
X97455260Y-158588620D01*
X97427127Y-158641253D01*
X97394717Y-158701888D01*
X97357435Y-158824790D01*
X97344846Y-158952604D01*
X97348001Y-158984636D01*
X97348001Y-160112024D01*
X97285750Y-160115000D01*
X97127000Y-160273750D01*
X97127000Y-160683506D01*
X97120451Y-160750000D01*
X97120451Y-162497000D01*
X96927000Y-162497000D01*
X96927000Y-157921664D01*
X96924555Y-157896839D01*
X96924600Y-157890377D01*
X96923813Y-157882359D01*
X96902393Y-157678556D01*
X96891879Y-157627334D01*
X96882078Y-157575956D01*
X96879749Y-157568244D01*
X96819151Y-157372484D01*
X96798881Y-157324262D01*
X96779296Y-157275788D01*
X96775514Y-157268675D01*
X96678047Y-157088412D01*
X96648786Y-157045031D01*
X96620167Y-157001296D01*
X96615075Y-156995053D01*
X96484452Y-156837157D01*
X96447329Y-156800292D01*
X96410754Y-156762943D01*
X96404552Y-156757813D01*
X96404547Y-156757808D01*
X96404542Y-156757804D01*
X96245742Y-156628290D01*
X96202174Y-156599344D01*
X96159033Y-156569804D01*
X96151946Y-156565972D01*
X95971009Y-156469766D01*
X95922637Y-156449828D01*
X95874592Y-156429236D01*
X95866896Y-156426854D01*
X95670718Y-156367624D01*
X95619410Y-156357465D01*
X95568263Y-156346593D01*
X95560255Y-156345751D01*
X95560251Y-156345751D01*
X95356305Y-156325754D01*
X95356297Y-156325754D01*
X95328336Y-156323000D01*
X51377000Y-156323000D01*
X51377000Y-137222000D01*
X62778451Y-137222000D01*
X62778451Y-138622000D01*
X62788626Y-138725310D01*
X62818761Y-138824650D01*
X62867696Y-138916202D01*
X62933552Y-138996448D01*
X63013798Y-139062304D01*
X63105350Y-139111239D01*
X63204690Y-139141374D01*
X63308000Y-139151549D01*
X64708000Y-139151549D01*
X64811310Y-139141374D01*
X64910650Y-139111239D01*
X65002202Y-139062304D01*
X65082448Y-138996448D01*
X65148304Y-138916202D01*
X65197239Y-138824650D01*
X65227374Y-138725310D01*
X65237549Y-138622000D01*
X65237549Y-137222000D01*
X68620451Y-137222000D01*
X68620451Y-138622000D01*
X68630626Y-138725310D01*
X68660761Y-138824650D01*
X68709696Y-138916202D01*
X68775552Y-138996448D01*
X68855798Y-139062304D01*
X68947350Y-139111239D01*
X69046690Y-139141374D01*
X69150000Y-139151549D01*
X70550000Y-139151549D01*
X70653310Y-139141374D01*
X70752650Y-139111239D01*
X70844202Y-139062304D01*
X70924448Y-138996448D01*
X70990304Y-138916202D01*
X71039239Y-138824650D01*
X71069374Y-138725310D01*
X71079549Y-138622000D01*
X71079549Y-137222000D01*
X74462451Y-137222000D01*
X74462451Y-138622000D01*
X74472626Y-138725310D01*
X74502761Y-138824650D01*
X74551696Y-138916202D01*
X74617552Y-138996448D01*
X74697798Y-139062304D01*
X74789350Y-139111239D01*
X74888690Y-139141374D01*
X74992000Y-139151549D01*
X76392000Y-139151549D01*
X76495310Y-139141374D01*
X76594650Y-139111239D01*
X76686202Y-139062304D01*
X76766448Y-138996448D01*
X76832304Y-138916202D01*
X76881239Y-138824650D01*
X76911374Y-138725310D01*
X76921549Y-138622000D01*
X76921549Y-137222000D01*
X76911374Y-137118690D01*
X76881239Y-137019350D01*
X76832304Y-136927798D01*
X76766448Y-136847552D01*
X76686202Y-136781696D01*
X76594650Y-136732761D01*
X76495310Y-136702626D01*
X76392000Y-136692451D01*
X74992000Y-136692451D01*
X74888690Y-136702626D01*
X74789350Y-136732761D01*
X74697798Y-136781696D01*
X74617552Y-136847552D01*
X74551696Y-136927798D01*
X74502761Y-137019350D01*
X74472626Y-137118690D01*
X74462451Y-137222000D01*
X71079549Y-137222000D01*
X71069374Y-137118690D01*
X71039239Y-137019350D01*
X70990304Y-136927798D01*
X70924448Y-136847552D01*
X70844202Y-136781696D01*
X70752650Y-136732761D01*
X70653310Y-136702626D01*
X70550000Y-136692451D01*
X69150000Y-136692451D01*
X69046690Y-136702626D01*
X68947350Y-136732761D01*
X68855798Y-136781696D01*
X68775552Y-136847552D01*
X68709696Y-136927798D01*
X68660761Y-137019350D01*
X68630626Y-137118690D01*
X68620451Y-137222000D01*
X65237549Y-137222000D01*
X65227374Y-137118690D01*
X65197239Y-137019350D01*
X65148304Y-136927798D01*
X65082448Y-136847552D01*
X65002202Y-136781696D01*
X64910650Y-136732761D01*
X64811310Y-136702626D01*
X64708000Y-136692451D01*
X63308000Y-136692451D01*
X63204690Y-136702626D01*
X63105350Y-136732761D01*
X63013798Y-136781696D01*
X62933552Y-136847552D01*
X62867696Y-136927798D01*
X62818761Y-137019350D01*
X62788626Y-137118690D01*
X62778451Y-137222000D01*
X51377000Y-137222000D01*
X51377000Y-132721151D01*
X62781000Y-132721151D01*
X62781000Y-132962849D01*
X62828153Y-133199903D01*
X62920647Y-133423202D01*
X63054927Y-133624167D01*
X63225833Y-133795073D01*
X63426798Y-133929353D01*
X63650097Y-134021847D01*
X63887151Y-134069000D01*
X64128849Y-134069000D01*
X64365903Y-134021847D01*
X64589202Y-133929353D01*
X64790167Y-133795073D01*
X64961073Y-133624167D01*
X65095353Y-133423202D01*
X65187847Y-133199903D01*
X65235000Y-132962849D01*
X65235000Y-132721151D01*
X68623000Y-132721151D01*
X68623000Y-132962849D01*
X68670153Y-133199903D01*
X68762647Y-133423202D01*
X68896927Y-133624167D01*
X69067833Y-133795073D01*
X69268798Y-133929353D01*
X69492097Y-134021847D01*
X69729151Y-134069000D01*
X69970849Y-134069000D01*
X70207903Y-134021847D01*
X70431202Y-133929353D01*
X70632167Y-133795073D01*
X70803073Y-133624167D01*
X70937353Y-133423202D01*
X71029847Y-133199903D01*
X71077000Y-132962849D01*
X71077000Y-132721151D01*
X74465000Y-132721151D01*
X74465000Y-132962849D01*
X74512153Y-133199903D01*
X74604647Y-133423202D01*
X74738927Y-133624167D01*
X74909833Y-133795073D01*
X75110798Y-133929353D01*
X75334097Y-134021847D01*
X75571151Y-134069000D01*
X75812849Y-134069000D01*
X76049903Y-134021847D01*
X76273202Y-133929353D01*
X76474167Y-133795073D01*
X76645073Y-133624167D01*
X76779353Y-133423202D01*
X76871847Y-133199903D01*
X76919000Y-132962849D01*
X76919000Y-132721151D01*
X80307000Y-132721151D01*
X80307000Y-132962849D01*
X80354153Y-133199903D01*
X80446647Y-133423202D01*
X80580927Y-133624167D01*
X80751833Y-133795073D01*
X80952798Y-133929353D01*
X81176097Y-134021847D01*
X81413151Y-134069000D01*
X81654849Y-134069000D01*
X81891903Y-134021847D01*
X82115202Y-133929353D01*
X82316167Y-133795073D01*
X82487073Y-133624167D01*
X82621353Y-133423202D01*
X82713847Y-133199903D01*
X82761000Y-132962849D01*
X82761000Y-132721151D01*
X86149000Y-132721151D01*
X86149000Y-132962849D01*
X86196153Y-133199903D01*
X86288647Y-133423202D01*
X86422927Y-133624167D01*
X86593833Y-133795073D01*
X86794798Y-133929353D01*
X87018097Y-134021847D01*
X87255151Y-134069000D01*
X87496849Y-134069000D01*
X87733903Y-134021847D01*
X87957202Y-133929353D01*
X88158167Y-133795073D01*
X88329073Y-133624167D01*
X88463353Y-133423202D01*
X88555847Y-133199903D01*
X88603000Y-132962849D01*
X88603000Y-132721151D01*
X91991000Y-132721151D01*
X91991000Y-132962849D01*
X92038153Y-133199903D01*
X92130647Y-133423202D01*
X92264927Y-133624167D01*
X92435833Y-133795073D01*
X92636798Y-133929353D01*
X92860097Y-134021847D01*
X93097151Y-134069000D01*
X93338849Y-134069000D01*
X93575903Y-134021847D01*
X93799202Y-133929353D01*
X94000167Y-133795073D01*
X94171073Y-133624167D01*
X94305353Y-133423202D01*
X94397847Y-133199903D01*
X94445000Y-132962849D01*
X94445000Y-132721151D01*
X94397847Y-132484097D01*
X94305353Y-132260798D01*
X94171073Y-132059833D01*
X94000167Y-131888927D01*
X93799202Y-131754647D01*
X93575903Y-131662153D01*
X93338849Y-131615000D01*
X93097151Y-131615000D01*
X92860097Y-131662153D01*
X92636798Y-131754647D01*
X92435833Y-131888927D01*
X92264927Y-132059833D01*
X92130647Y-132260798D01*
X92038153Y-132484097D01*
X91991000Y-132721151D01*
X88603000Y-132721151D01*
X88555847Y-132484097D01*
X88463353Y-132260798D01*
X88329073Y-132059833D01*
X88158167Y-131888927D01*
X87957202Y-131754647D01*
X87733903Y-131662153D01*
X87496849Y-131615000D01*
X87255151Y-131615000D01*
X87018097Y-131662153D01*
X86794798Y-131754647D01*
X86593833Y-131888927D01*
X86422927Y-132059833D01*
X86288647Y-132260798D01*
X86196153Y-132484097D01*
X86149000Y-132721151D01*
X82761000Y-132721151D01*
X82713847Y-132484097D01*
X82621353Y-132260798D01*
X82487073Y-132059833D01*
X82316167Y-131888927D01*
X82115202Y-131754647D01*
X81891903Y-131662153D01*
X81654849Y-131615000D01*
X81413151Y-131615000D01*
X81176097Y-131662153D01*
X80952798Y-131754647D01*
X80751833Y-131888927D01*
X80580927Y-132059833D01*
X80446647Y-132260798D01*
X80354153Y-132484097D01*
X80307000Y-132721151D01*
X76919000Y-132721151D01*
X76871847Y-132484097D01*
X76779353Y-132260798D01*
X76645073Y-132059833D01*
X76474167Y-131888927D01*
X76273202Y-131754647D01*
X76049903Y-131662153D01*
X75812849Y-131615000D01*
X75571151Y-131615000D01*
X75334097Y-131662153D01*
X75110798Y-131754647D01*
X74909833Y-131888927D01*
X74738927Y-132059833D01*
X74604647Y-132260798D01*
X74512153Y-132484097D01*
X74465000Y-132721151D01*
X71077000Y-132721151D01*
X71029847Y-132484097D01*
X70937353Y-132260798D01*
X70803073Y-132059833D01*
X70632167Y-131888927D01*
X70431202Y-131754647D01*
X70207903Y-131662153D01*
X69970849Y-131615000D01*
X69729151Y-131615000D01*
X69492097Y-131662153D01*
X69268798Y-131754647D01*
X69067833Y-131888927D01*
X68896927Y-132059833D01*
X68762647Y-132260798D01*
X68670153Y-132484097D01*
X68623000Y-132721151D01*
X65235000Y-132721151D01*
X65187847Y-132484097D01*
X65095353Y-132260798D01*
X64961073Y-132059833D01*
X64790167Y-131888927D01*
X64589202Y-131754647D01*
X64365903Y-131662153D01*
X64128849Y-131615000D01*
X63887151Y-131615000D01*
X63650097Y-131662153D01*
X63426798Y-131754647D01*
X63225833Y-131888927D01*
X63054927Y-132059833D01*
X62920647Y-132260798D01*
X62828153Y-132484097D01*
X62781000Y-132721151D01*
X51377000Y-132721151D01*
X51377000Y-128661299D01*
X52184400Y-128661299D01*
X52184400Y-128843901D01*
X52220024Y-129022996D01*
X52289904Y-129191699D01*
X52391352Y-129343528D01*
X52520472Y-129472648D01*
X52672301Y-129574096D01*
X52841004Y-129643976D01*
X53020099Y-129679600D01*
X53202701Y-129679600D01*
X53381796Y-129643976D01*
X53550499Y-129574096D01*
X53702328Y-129472648D01*
X53831448Y-129343528D01*
X53932896Y-129191699D01*
X54002776Y-129022996D01*
X54038400Y-128843901D01*
X54038400Y-128661299D01*
X54002776Y-128482204D01*
X53932896Y-128313501D01*
X53831448Y-128161672D01*
X53702328Y-128032552D01*
X53550499Y-127931104D01*
X53381796Y-127861224D01*
X53202701Y-127825600D01*
X53020099Y-127825600D01*
X52841004Y-127861224D01*
X52672301Y-127931104D01*
X52520472Y-128032552D01*
X52391352Y-128161672D01*
X52289904Y-128313501D01*
X52220024Y-128482204D01*
X52184400Y-128661299D01*
X51377000Y-128661299D01*
X51377000Y-127641151D01*
X62781000Y-127641151D01*
X62781000Y-127882849D01*
X62828153Y-128119903D01*
X62920647Y-128343202D01*
X63054927Y-128544167D01*
X63225833Y-128715073D01*
X63426798Y-128849353D01*
X63650097Y-128941847D01*
X63887151Y-128989000D01*
X64128849Y-128989000D01*
X64365903Y-128941847D01*
X64589202Y-128849353D01*
X64790167Y-128715073D01*
X64961073Y-128544167D01*
X65095353Y-128343202D01*
X65187847Y-128119903D01*
X65235000Y-127882849D01*
X65235000Y-127641151D01*
X68623000Y-127641151D01*
X68623000Y-127882849D01*
X68670153Y-128119903D01*
X68762647Y-128343202D01*
X68896927Y-128544167D01*
X69067833Y-128715073D01*
X69268798Y-128849353D01*
X69492097Y-128941847D01*
X69729151Y-128989000D01*
X69970849Y-128989000D01*
X70207903Y-128941847D01*
X70431202Y-128849353D01*
X70632167Y-128715073D01*
X70803073Y-128544167D01*
X70937353Y-128343202D01*
X71029847Y-128119903D01*
X71077000Y-127882849D01*
X71077000Y-127641151D01*
X74465000Y-127641151D01*
X74465000Y-127882849D01*
X74512153Y-128119903D01*
X74604647Y-128343202D01*
X74738927Y-128544167D01*
X74909833Y-128715073D01*
X75110798Y-128849353D01*
X75334097Y-128941847D01*
X75571151Y-128989000D01*
X75812849Y-128989000D01*
X76049903Y-128941847D01*
X76273202Y-128849353D01*
X76474167Y-128715073D01*
X76645073Y-128544167D01*
X76779353Y-128343202D01*
X76871847Y-128119903D01*
X76919000Y-127882849D01*
X76919000Y-127641151D01*
X80307000Y-127641151D01*
X80307000Y-127882849D01*
X80354153Y-128119903D01*
X80446647Y-128343202D01*
X80580927Y-128544167D01*
X80751833Y-128715073D01*
X80952798Y-128849353D01*
X81176097Y-128941847D01*
X81413151Y-128989000D01*
X81654849Y-128989000D01*
X81891903Y-128941847D01*
X82115202Y-128849353D01*
X82316167Y-128715073D01*
X82487073Y-128544167D01*
X82621353Y-128343202D01*
X82713847Y-128119903D01*
X82761000Y-127882849D01*
X82761000Y-127641151D01*
X86149000Y-127641151D01*
X86149000Y-127882849D01*
X86196153Y-128119903D01*
X86288647Y-128343202D01*
X86422927Y-128544167D01*
X86593833Y-128715073D01*
X86794798Y-128849353D01*
X87018097Y-128941847D01*
X87255151Y-128989000D01*
X87496849Y-128989000D01*
X87733903Y-128941847D01*
X87957202Y-128849353D01*
X88158167Y-128715073D01*
X88329073Y-128544167D01*
X88463353Y-128343202D01*
X88555847Y-128119903D01*
X88603000Y-127882849D01*
X88603000Y-127641151D01*
X88555847Y-127404097D01*
X88463353Y-127180798D01*
X88329073Y-126979833D01*
X88158167Y-126808927D01*
X87957202Y-126674647D01*
X87733903Y-126582153D01*
X87496849Y-126535000D01*
X87255151Y-126535000D01*
X87018097Y-126582153D01*
X86794798Y-126674647D01*
X86593833Y-126808927D01*
X86422927Y-126979833D01*
X86288647Y-127180798D01*
X86196153Y-127404097D01*
X86149000Y-127641151D01*
X82761000Y-127641151D01*
X82713847Y-127404097D01*
X82621353Y-127180798D01*
X82487073Y-126979833D01*
X82316167Y-126808927D01*
X82115202Y-126674647D01*
X81891903Y-126582153D01*
X81654849Y-126535000D01*
X81413151Y-126535000D01*
X81176097Y-126582153D01*
X80952798Y-126674647D01*
X80751833Y-126808927D01*
X80580927Y-126979833D01*
X80446647Y-127180798D01*
X80354153Y-127404097D01*
X80307000Y-127641151D01*
X76919000Y-127641151D01*
X76871847Y-127404097D01*
X76779353Y-127180798D01*
X76645073Y-126979833D01*
X76474167Y-126808927D01*
X76273202Y-126674647D01*
X76049903Y-126582153D01*
X75812849Y-126535000D01*
X75571151Y-126535000D01*
X75334097Y-126582153D01*
X75110798Y-126674647D01*
X74909833Y-126808927D01*
X74738927Y-126979833D01*
X74604647Y-127180798D01*
X74512153Y-127404097D01*
X74465000Y-127641151D01*
X71077000Y-127641151D01*
X71029847Y-127404097D01*
X70937353Y-127180798D01*
X70803073Y-126979833D01*
X70632167Y-126808927D01*
X70431202Y-126674647D01*
X70207903Y-126582153D01*
X69970849Y-126535000D01*
X69729151Y-126535000D01*
X69492097Y-126582153D01*
X69268798Y-126674647D01*
X69067833Y-126808927D01*
X68896927Y-126979833D01*
X68762647Y-127180798D01*
X68670153Y-127404097D01*
X68623000Y-127641151D01*
X65235000Y-127641151D01*
X65187847Y-127404097D01*
X65095353Y-127180798D01*
X64961073Y-126979833D01*
X64790167Y-126808927D01*
X64589202Y-126674647D01*
X64365903Y-126582153D01*
X64128849Y-126535000D01*
X63887151Y-126535000D01*
X63650097Y-126582153D01*
X63426798Y-126674647D01*
X63225833Y-126808927D01*
X63054927Y-126979833D01*
X62920647Y-127180798D01*
X62828153Y-127404097D01*
X62781000Y-127641151D01*
X51377000Y-127641151D01*
X51377000Y-122561151D01*
X62781000Y-122561151D01*
X62781000Y-122802849D01*
X62828153Y-123039903D01*
X62920647Y-123263202D01*
X63054927Y-123464167D01*
X63225833Y-123635073D01*
X63426798Y-123769353D01*
X63650097Y-123861847D01*
X63887151Y-123909000D01*
X64128849Y-123909000D01*
X64365903Y-123861847D01*
X64589202Y-123769353D01*
X64790167Y-123635073D01*
X64961073Y-123464167D01*
X65095353Y-123263202D01*
X65187847Y-123039903D01*
X65235000Y-122802849D01*
X65235000Y-122561151D01*
X68623000Y-122561151D01*
X68623000Y-122802849D01*
X68670153Y-123039903D01*
X68762647Y-123263202D01*
X68896927Y-123464167D01*
X69067833Y-123635073D01*
X69268798Y-123769353D01*
X69492097Y-123861847D01*
X69729151Y-123909000D01*
X69970849Y-123909000D01*
X70207903Y-123861847D01*
X70431202Y-123769353D01*
X70632167Y-123635073D01*
X70803073Y-123464167D01*
X70937353Y-123263202D01*
X71029847Y-123039903D01*
X71077000Y-122802849D01*
X71077000Y-122561151D01*
X74465000Y-122561151D01*
X74465000Y-122802849D01*
X74512153Y-123039903D01*
X74604647Y-123263202D01*
X74738927Y-123464167D01*
X74909833Y-123635073D01*
X75110798Y-123769353D01*
X75334097Y-123861847D01*
X75571151Y-123909000D01*
X75812849Y-123909000D01*
X75966392Y-123878458D01*
X77875320Y-125787387D01*
X77895736Y-125812264D01*
X77995016Y-125893741D01*
X78108283Y-125954283D01*
X78152553Y-125967712D01*
X78231185Y-125991565D01*
X78359000Y-126004154D01*
X78391022Y-126001000D01*
X88248934Y-126001000D01*
X95055201Y-132807268D01*
X95055200Y-133587177D01*
X95052046Y-133619200D01*
X95064635Y-133747014D01*
X95065474Y-133749779D01*
X95101917Y-133869916D01*
X95162459Y-133983183D01*
X95243936Y-134082464D01*
X95268819Y-134102885D01*
X98000894Y-136834961D01*
X97985552Y-136847552D01*
X97919696Y-136927798D01*
X97870761Y-137019350D01*
X97840626Y-137118690D01*
X97830451Y-137222000D01*
X97830451Y-138528978D01*
X94447549Y-138528978D01*
X94447549Y-137222000D01*
X94437374Y-137118690D01*
X94407239Y-137019350D01*
X94358304Y-136927798D01*
X94292448Y-136847552D01*
X94212202Y-136781696D01*
X94120650Y-136732761D01*
X94021310Y-136702626D01*
X93918000Y-136692451D01*
X92518000Y-136692451D01*
X92414690Y-136702626D01*
X92315350Y-136732761D01*
X92223798Y-136781696D01*
X92143552Y-136847552D01*
X92077696Y-136927798D01*
X92028761Y-137019350D01*
X91998626Y-137118690D01*
X91988451Y-137222000D01*
X91988451Y-138622000D01*
X91998626Y-138725310D01*
X92028761Y-138824650D01*
X92077696Y-138916202D01*
X92129224Y-138978989D01*
X88464776Y-138978989D01*
X88516304Y-138916202D01*
X88565239Y-138824650D01*
X88595374Y-138725310D01*
X88605549Y-138622000D01*
X88605549Y-137222000D01*
X88595374Y-137118690D01*
X88565239Y-137019350D01*
X88516304Y-136927798D01*
X88450448Y-136847552D01*
X88370202Y-136781696D01*
X88278650Y-136732761D01*
X88179310Y-136702626D01*
X88076000Y-136692451D01*
X86676000Y-136692451D01*
X86572690Y-136702626D01*
X86473350Y-136732761D01*
X86381798Y-136781696D01*
X86301552Y-136847552D01*
X86235696Y-136927798D01*
X86186761Y-137019350D01*
X86156626Y-137118690D01*
X86146451Y-137222000D01*
X86146451Y-138549179D01*
X86138999Y-138548445D01*
X86106977Y-138551599D01*
X86011185Y-138561034D01*
X85913059Y-138590800D01*
X84074867Y-138590800D01*
X82967685Y-137483619D01*
X82947264Y-137458736D01*
X82847984Y-137377259D01*
X82763549Y-137332128D01*
X82763549Y-137222000D01*
X82753374Y-137118690D01*
X82723239Y-137019350D01*
X82674304Y-136927798D01*
X82608448Y-136847552D01*
X82528202Y-136781696D01*
X82436650Y-136732761D01*
X82337310Y-136702626D01*
X82234000Y-136692451D01*
X80834000Y-136692451D01*
X80730690Y-136702626D01*
X80631350Y-136732761D01*
X80539798Y-136781696D01*
X80459552Y-136847552D01*
X80393696Y-136927798D01*
X80344761Y-137019350D01*
X80314626Y-137118690D01*
X80304451Y-137222000D01*
X80304451Y-138622000D01*
X80314626Y-138725310D01*
X80344761Y-138824650D01*
X80393696Y-138916202D01*
X80459552Y-138996448D01*
X80539798Y-139062304D01*
X80631350Y-139111239D01*
X80730690Y-139141374D01*
X80834000Y-139151549D01*
X82234000Y-139151549D01*
X82337310Y-139141374D01*
X82436650Y-139111239D01*
X82528202Y-139062304D01*
X82608448Y-138996448D01*
X82621039Y-138981106D01*
X83321120Y-139681187D01*
X83341536Y-139706064D01*
X83440816Y-139787541D01*
X83531724Y-139836132D01*
X83554083Y-139848083D01*
X83676985Y-139885365D01*
X83804799Y-139897954D01*
X83836821Y-139894800D01*
X86067776Y-139894800D01*
X86099798Y-139897954D01*
X86131820Y-139894800D01*
X86227612Y-139885365D01*
X86325738Y-139855599D01*
X86564935Y-139855599D01*
X86568680Y-139859344D01*
X86569436Y-139867015D01*
X86606718Y-139989918D01*
X86667260Y-140103185D01*
X86748738Y-140202465D01*
X86773615Y-140222881D01*
X87058340Y-140507606D01*
X87053099Y-140504104D01*
X86884396Y-140434224D01*
X86705301Y-140398600D01*
X86522699Y-140398600D01*
X86343604Y-140434224D01*
X86174901Y-140504104D01*
X86023072Y-140605552D01*
X85893952Y-140734672D01*
X85792504Y-140886501D01*
X85722624Y-141055204D01*
X85687000Y-141234299D01*
X85687000Y-141416901D01*
X85722624Y-141595996D01*
X85792504Y-141764699D01*
X85893952Y-141916528D01*
X86023072Y-142045648D01*
X86174901Y-142147096D01*
X86343604Y-142216976D01*
X86510427Y-142250159D01*
X87487201Y-143226934D01*
X87487200Y-148736186D01*
X87483683Y-148771894D01*
X87491468Y-148850935D01*
X87467277Y-148875126D01*
X87354885Y-149043333D01*
X87277467Y-149230235D01*
X87238000Y-149428649D01*
X87238000Y-149630951D01*
X87277467Y-149829365D01*
X87354885Y-150016267D01*
X87467277Y-150184474D01*
X87610326Y-150327523D01*
X87778533Y-150439915D01*
X87965435Y-150517333D01*
X88163849Y-150556800D01*
X88366151Y-150556800D01*
X88564565Y-150517333D01*
X88751467Y-150439915D01*
X88919674Y-150327523D01*
X89062723Y-150184474D01*
X89175115Y-150016267D01*
X89252533Y-149829365D01*
X89292000Y-149630951D01*
X89292000Y-149428649D01*
X89252533Y-149230235D01*
X89175115Y-149043333D01*
X89062723Y-148875126D01*
X88993903Y-148806306D01*
X88981480Y-148680177D01*
X88941935Y-148549812D01*
X88941200Y-148547390D01*
X88941200Y-144155299D01*
X101054000Y-144155299D01*
X101054000Y-144337901D01*
X101089624Y-144516996D01*
X101159504Y-144685699D01*
X101260952Y-144837528D01*
X101390072Y-144966648D01*
X101541901Y-145068096D01*
X101710604Y-145137976D01*
X101889699Y-145173600D01*
X102072301Y-145173600D01*
X102251396Y-145137976D01*
X102420099Y-145068096D01*
X102571928Y-144966648D01*
X102701048Y-144837528D01*
X102802496Y-144685699D01*
X102872376Y-144516996D01*
X102908000Y-144337901D01*
X102908000Y-144155299D01*
X102872376Y-143976204D01*
X102802496Y-143807501D01*
X102701048Y-143655672D01*
X102571928Y-143526552D01*
X102420099Y-143425104D01*
X102251396Y-143355224D01*
X102072301Y-143319600D01*
X101889699Y-143319600D01*
X101710604Y-143355224D01*
X101541901Y-143425104D01*
X101390072Y-143526552D01*
X101260952Y-143655672D01*
X101159504Y-143807501D01*
X101089624Y-143976204D01*
X101054000Y-144155299D01*
X88941200Y-144155299D01*
X88941200Y-142961508D01*
X88944717Y-142925800D01*
X88930680Y-142783282D01*
X88889110Y-142646243D01*
X88866021Y-142603047D01*
X88821603Y-142519947D01*
X88730754Y-142409246D01*
X88703012Y-142386479D01*
X87538559Y-141222027D01*
X87505376Y-141055204D01*
X87435496Y-140886501D01*
X87334048Y-140734672D01*
X87265652Y-140666276D01*
X87303083Y-140686283D01*
X87425985Y-140723565D01*
X87553800Y-140736154D01*
X87585822Y-140733000D01*
X105647934Y-140733000D01*
X107653600Y-142738667D01*
X107653601Y-143486023D01*
X107585552Y-143554072D01*
X107484104Y-143705901D01*
X107414224Y-143874604D01*
X107378600Y-144053699D01*
X107378600Y-144236301D01*
X107414224Y-144415396D01*
X107484104Y-144584099D01*
X107585552Y-144735928D01*
X107714672Y-144865048D01*
X107866501Y-144966496D01*
X108035204Y-145036376D01*
X108214299Y-145072000D01*
X108396901Y-145072000D01*
X108575996Y-145036376D01*
X108744699Y-144966496D01*
X108896528Y-144865048D01*
X109025648Y-144735928D01*
X109127096Y-144584099D01*
X109196976Y-144415396D01*
X109232600Y-144236301D01*
X109232600Y-144053699D01*
X109196976Y-143874604D01*
X109127096Y-143705901D01*
X109025648Y-143554072D01*
X108957600Y-143486024D01*
X108957600Y-142506600D01*
X109082701Y-142506600D01*
X109261796Y-142470976D01*
X109430499Y-142401096D01*
X109582328Y-142299648D01*
X109711448Y-142170528D01*
X109812896Y-142018699D01*
X109882776Y-141849996D01*
X109918400Y-141670901D01*
X109918400Y-141488299D01*
X109882776Y-141309204D01*
X109812896Y-141140501D01*
X109711448Y-140988672D01*
X109582328Y-140859552D01*
X109430499Y-140758104D01*
X109261796Y-140688224D01*
X109082701Y-140652600D01*
X108986467Y-140652600D01*
X108166844Y-139832978D01*
X108648600Y-139832978D01*
X108648600Y-139842101D01*
X108684224Y-140021196D01*
X108754104Y-140189899D01*
X108855552Y-140341728D01*
X108984672Y-140470848D01*
X109136501Y-140572296D01*
X109305204Y-140642176D01*
X109484299Y-140677800D01*
X109666901Y-140677800D01*
X109845996Y-140642176D01*
X110014699Y-140572296D01*
X110166528Y-140470848D01*
X110295648Y-140341728D01*
X110397096Y-140189899D01*
X110466976Y-140021196D01*
X110502600Y-139842101D01*
X110502600Y-139659499D01*
X110466976Y-139480404D01*
X110397096Y-139311701D01*
X110295648Y-139159872D01*
X110166528Y-139030752D01*
X110014699Y-138929304D01*
X109845996Y-138859424D01*
X109666901Y-138823800D01*
X109570666Y-138823800D01*
X109489462Y-138742596D01*
X109469042Y-138717714D01*
X109369762Y-138636237D01*
X109256495Y-138575695D01*
X109133592Y-138538413D01*
X109037800Y-138528978D01*
X109005778Y-138525824D01*
X108973756Y-138528978D01*
X100289549Y-138528978D01*
X100289549Y-137222000D01*
X121452451Y-137222000D01*
X121452451Y-138622000D01*
X121462626Y-138725310D01*
X121492761Y-138824650D01*
X121541696Y-138916202D01*
X121607552Y-138996448D01*
X121687798Y-139062304D01*
X121779350Y-139111239D01*
X121878690Y-139141374D01*
X121982000Y-139151549D01*
X123382000Y-139151549D01*
X123485310Y-139141374D01*
X123584650Y-139111239D01*
X123676202Y-139062304D01*
X123756448Y-138996448D01*
X123822304Y-138916202D01*
X123871239Y-138824650D01*
X123901374Y-138725310D01*
X123911549Y-138622000D01*
X123911549Y-137222000D01*
X127294451Y-137222000D01*
X127294451Y-138622000D01*
X127304626Y-138725310D01*
X127334761Y-138824650D01*
X127383696Y-138916202D01*
X127449552Y-138996448D01*
X127529798Y-139062304D01*
X127621350Y-139111239D01*
X127720690Y-139141374D01*
X127824000Y-139151549D01*
X129224000Y-139151549D01*
X129327310Y-139141374D01*
X129426650Y-139111239D01*
X129518202Y-139062304D01*
X129598448Y-138996448D01*
X129664304Y-138916202D01*
X129713239Y-138824650D01*
X129743374Y-138725310D01*
X129753549Y-138622000D01*
X129753549Y-137222000D01*
X133136451Y-137222000D01*
X133136451Y-138622000D01*
X133146626Y-138725310D01*
X133176761Y-138824650D01*
X133225696Y-138916202D01*
X133291552Y-138996448D01*
X133371798Y-139062304D01*
X133463350Y-139111239D01*
X133562690Y-139141374D01*
X133666000Y-139151549D01*
X135066000Y-139151549D01*
X135169310Y-139141374D01*
X135268650Y-139111239D01*
X135360202Y-139062304D01*
X135440448Y-138996448D01*
X135506304Y-138916202D01*
X135555239Y-138824650D01*
X135585374Y-138725310D01*
X135595549Y-138622000D01*
X135595549Y-137222000D01*
X135585374Y-137118690D01*
X135555239Y-137019350D01*
X135506304Y-136927798D01*
X135440448Y-136847552D01*
X135360202Y-136781696D01*
X135268650Y-136732761D01*
X135169310Y-136702626D01*
X135066000Y-136692451D01*
X133666000Y-136692451D01*
X133562690Y-136702626D01*
X133463350Y-136732761D01*
X133371798Y-136781696D01*
X133291552Y-136847552D01*
X133225696Y-136927798D01*
X133176761Y-137019350D01*
X133146626Y-137118690D01*
X133136451Y-137222000D01*
X129753549Y-137222000D01*
X129743374Y-137118690D01*
X129713239Y-137019350D01*
X129664304Y-136927798D01*
X129598448Y-136847552D01*
X129518202Y-136781696D01*
X129426650Y-136732761D01*
X129327310Y-136702626D01*
X129224000Y-136692451D01*
X127824000Y-136692451D01*
X127720690Y-136702626D01*
X127621350Y-136732761D01*
X127529798Y-136781696D01*
X127449552Y-136847552D01*
X127383696Y-136927798D01*
X127334761Y-137019350D01*
X127304626Y-137118690D01*
X127294451Y-137222000D01*
X123911549Y-137222000D01*
X123901374Y-137118690D01*
X123871239Y-137019350D01*
X123822304Y-136927798D01*
X123756448Y-136847552D01*
X123676202Y-136781696D01*
X123584650Y-136732761D01*
X123485310Y-136702626D01*
X123382000Y-136692451D01*
X121982000Y-136692451D01*
X121878690Y-136702626D01*
X121779350Y-136732761D01*
X121687798Y-136781696D01*
X121607552Y-136847552D01*
X121541696Y-136927798D01*
X121492761Y-137019350D01*
X121462626Y-137118690D01*
X121452451Y-137222000D01*
X100289549Y-137222000D01*
X100279374Y-137118690D01*
X100249239Y-137019350D01*
X100200304Y-136927798D01*
X100134448Y-136847552D01*
X100054202Y-136781696D01*
X99962650Y-136732761D01*
X99863310Y-136702626D01*
X99760000Y-136692451D01*
X99649872Y-136692451D01*
X99641827Y-136677399D01*
X99604741Y-136608016D01*
X99523264Y-136508736D01*
X99498387Y-136488320D01*
X96359200Y-133349134D01*
X96359200Y-132721151D01*
X97833000Y-132721151D01*
X97833000Y-132962849D01*
X97880153Y-133199903D01*
X97972647Y-133423202D01*
X98106927Y-133624167D01*
X98277833Y-133795073D01*
X98478798Y-133929353D01*
X98702097Y-134021847D01*
X98939151Y-134069000D01*
X99180849Y-134069000D01*
X99417903Y-134021847D01*
X99641202Y-133929353D01*
X99842167Y-133795073D01*
X100013073Y-133624167D01*
X100147353Y-133423202D01*
X100239847Y-133199903D01*
X100287000Y-132962849D01*
X100287000Y-132721151D01*
X121455000Y-132721151D01*
X121455000Y-132962849D01*
X121502153Y-133199903D01*
X121594647Y-133423202D01*
X121728927Y-133624167D01*
X121899833Y-133795073D01*
X122100798Y-133929353D01*
X122324097Y-134021847D01*
X122561151Y-134069000D01*
X122802849Y-134069000D01*
X123039903Y-134021847D01*
X123263202Y-133929353D01*
X123464167Y-133795073D01*
X123635073Y-133624167D01*
X123769353Y-133423202D01*
X123861847Y-133199903D01*
X123909000Y-132962849D01*
X123909000Y-132721151D01*
X127297000Y-132721151D01*
X127297000Y-132962849D01*
X127344153Y-133199903D01*
X127436647Y-133423202D01*
X127570927Y-133624167D01*
X127741833Y-133795073D01*
X127942798Y-133929353D01*
X128166097Y-134021847D01*
X128403151Y-134069000D01*
X128644849Y-134069000D01*
X128881903Y-134021847D01*
X129105202Y-133929353D01*
X129306167Y-133795073D01*
X129477073Y-133624167D01*
X129611353Y-133423202D01*
X129703847Y-133199903D01*
X129751000Y-132962849D01*
X129751000Y-132721151D01*
X133139000Y-132721151D01*
X133139000Y-132962849D01*
X133186153Y-133199903D01*
X133278647Y-133423202D01*
X133412927Y-133624167D01*
X133583833Y-133795073D01*
X133784798Y-133929353D01*
X134008097Y-134021847D01*
X134245151Y-134069000D01*
X134486849Y-134069000D01*
X134723903Y-134021847D01*
X134947202Y-133929353D01*
X135148167Y-133795073D01*
X135319073Y-133624167D01*
X135453353Y-133423202D01*
X135545847Y-133199903D01*
X135593000Y-132962849D01*
X135593000Y-132721151D01*
X135545847Y-132484097D01*
X135453353Y-132260798D01*
X135319073Y-132059833D01*
X135148167Y-131888927D01*
X134947202Y-131754647D01*
X134723903Y-131662153D01*
X134486849Y-131615000D01*
X134245151Y-131615000D01*
X134008097Y-131662153D01*
X133784798Y-131754647D01*
X133583833Y-131888927D01*
X133412927Y-132059833D01*
X133278647Y-132260798D01*
X133186153Y-132484097D01*
X133139000Y-132721151D01*
X129751000Y-132721151D01*
X129703847Y-132484097D01*
X129611353Y-132260798D01*
X129477073Y-132059833D01*
X129306167Y-131888927D01*
X129105202Y-131754647D01*
X128881903Y-131662153D01*
X128644849Y-131615000D01*
X128403151Y-131615000D01*
X128166097Y-131662153D01*
X127942798Y-131754647D01*
X127741833Y-131888927D01*
X127570927Y-132059833D01*
X127436647Y-132260798D01*
X127344153Y-132484097D01*
X127297000Y-132721151D01*
X123909000Y-132721151D01*
X123861847Y-132484097D01*
X123769353Y-132260798D01*
X123635073Y-132059833D01*
X123464167Y-131888927D01*
X123263202Y-131754647D01*
X123039903Y-131662153D01*
X122802849Y-131615000D01*
X122561151Y-131615000D01*
X122324097Y-131662153D01*
X122100798Y-131754647D01*
X121899833Y-131888927D01*
X121728927Y-132059833D01*
X121594647Y-132260798D01*
X121502153Y-132484097D01*
X121455000Y-132721151D01*
X100287000Y-132721151D01*
X100239847Y-132484097D01*
X100147353Y-132260798D01*
X100013073Y-132059833D01*
X99842167Y-131888927D01*
X99641202Y-131754647D01*
X99417903Y-131662153D01*
X99180849Y-131615000D01*
X98939151Y-131615000D01*
X98702097Y-131662153D01*
X98478798Y-131754647D01*
X98277833Y-131888927D01*
X98106927Y-132059833D01*
X97972647Y-132260798D01*
X97880153Y-132484097D01*
X97833000Y-132721151D01*
X96359200Y-132721151D01*
X96359200Y-132569222D01*
X96362354Y-132537200D01*
X96349765Y-132409385D01*
X96329192Y-132341565D01*
X96312483Y-132286483D01*
X96251941Y-132173216D01*
X96170464Y-132073936D01*
X96145587Y-132053520D01*
X93077073Y-128985006D01*
X93097151Y-128989000D01*
X93338849Y-128989000D01*
X93575903Y-128941847D01*
X93799202Y-128849353D01*
X94000167Y-128715073D01*
X94171073Y-128544167D01*
X94305353Y-128343202D01*
X94397847Y-128119903D01*
X94445000Y-127882849D01*
X94445000Y-127641151D01*
X94397847Y-127404097D01*
X94305353Y-127180798D01*
X94171073Y-126979833D01*
X94000167Y-126808927D01*
X93799202Y-126674647D01*
X93575903Y-126582153D01*
X93338849Y-126535000D01*
X93097151Y-126535000D01*
X92860097Y-126582153D01*
X92636798Y-126674647D01*
X92435833Y-126808927D01*
X92264927Y-126979833D01*
X92130647Y-127180798D01*
X92038153Y-127404097D01*
X91991000Y-127641151D01*
X91991000Y-127882849D01*
X91994994Y-127902927D01*
X89002685Y-124910619D01*
X88982264Y-124885736D01*
X88882984Y-124804259D01*
X88769717Y-124743717D01*
X88646814Y-124706435D01*
X88551022Y-124697000D01*
X88519000Y-124693846D01*
X88486978Y-124697000D01*
X78629067Y-124697000D01*
X76888458Y-122956392D01*
X76919000Y-122802849D01*
X76919000Y-122634001D01*
X78823777Y-122634001D01*
X78855799Y-122637155D01*
X78887821Y-122634001D01*
X78983613Y-122624566D01*
X79106516Y-122587284D01*
X79219783Y-122526742D01*
X79319063Y-122445265D01*
X79339484Y-122420382D01*
X80178467Y-121581400D01*
X80984779Y-121581400D01*
X80952798Y-121594647D01*
X80751833Y-121728927D01*
X80580927Y-121899833D01*
X80446647Y-122100798D01*
X80354153Y-122324097D01*
X80307000Y-122561151D01*
X80307000Y-122802849D01*
X80354153Y-123039903D01*
X80446647Y-123263202D01*
X80580927Y-123464167D01*
X80751833Y-123635073D01*
X80952798Y-123769353D01*
X81176097Y-123861847D01*
X81413151Y-123909000D01*
X81654849Y-123909000D01*
X81891903Y-123861847D01*
X82115202Y-123769353D01*
X82316167Y-123635073D01*
X82487073Y-123464167D01*
X82621353Y-123263202D01*
X82713847Y-123039903D01*
X82761000Y-122802849D01*
X82761000Y-122561151D01*
X82713847Y-122324097D01*
X82621353Y-122100798D01*
X82487073Y-121899833D01*
X82316167Y-121728927D01*
X82115202Y-121594647D01*
X82083221Y-121581400D01*
X86826779Y-121581400D01*
X86794798Y-121594647D01*
X86593833Y-121728927D01*
X86422927Y-121899833D01*
X86288647Y-122100798D01*
X86196153Y-122324097D01*
X86149000Y-122561151D01*
X86149000Y-122802849D01*
X86196153Y-123039903D01*
X86288647Y-123263202D01*
X86422927Y-123464167D01*
X86593833Y-123635073D01*
X86794798Y-123769353D01*
X87018097Y-123861847D01*
X87255151Y-123909000D01*
X87496849Y-123909000D01*
X87733903Y-123861847D01*
X87957202Y-123769353D01*
X88158167Y-123635073D01*
X88329073Y-123464167D01*
X88463353Y-123263202D01*
X88555847Y-123039903D01*
X88603000Y-122802849D01*
X88603000Y-122561151D01*
X88555847Y-122324097D01*
X88463353Y-122100798D01*
X88329073Y-121899833D01*
X88158167Y-121728927D01*
X87957202Y-121594647D01*
X87925221Y-121581400D01*
X92668779Y-121581400D01*
X92636798Y-121594647D01*
X92435833Y-121728927D01*
X92264927Y-121899833D01*
X92130647Y-122100798D01*
X92038153Y-122324097D01*
X91991000Y-122561151D01*
X91991000Y-122802849D01*
X92038153Y-123039903D01*
X92130647Y-123263202D01*
X92264927Y-123464167D01*
X92435833Y-123635073D01*
X92636798Y-123769353D01*
X92860097Y-123861847D01*
X93097151Y-123909000D01*
X93338849Y-123909000D01*
X93492392Y-123878458D01*
X95156801Y-125542868D01*
X95156800Y-128339578D01*
X95153646Y-128371600D01*
X95156800Y-128403621D01*
X95166235Y-128499413D01*
X95203517Y-128622316D01*
X95264059Y-128735583D01*
X95345536Y-128834864D01*
X95370419Y-128855285D01*
X97179320Y-130664187D01*
X97199736Y-130689064D01*
X97299016Y-130770541D01*
X97412283Y-130831083D01*
X97473735Y-130849724D01*
X97535185Y-130868365D01*
X97663000Y-130880954D01*
X97695022Y-130877800D01*
X135569134Y-130877800D01*
X136660401Y-131969068D01*
X136660400Y-134044378D01*
X136657246Y-134076400D01*
X136660400Y-134108421D01*
X136669835Y-134204213D01*
X136707117Y-134327116D01*
X136767659Y-134440383D01*
X136849136Y-134539664D01*
X136874019Y-134560085D01*
X139148894Y-136834961D01*
X139133552Y-136847552D01*
X139067696Y-136927798D01*
X139018761Y-137019350D01*
X138988626Y-137118690D01*
X138978451Y-137222000D01*
X138978451Y-138622000D01*
X138988626Y-138725310D01*
X139018761Y-138824650D01*
X139067696Y-138916202D01*
X139133552Y-138996448D01*
X139213798Y-139062304D01*
X139305350Y-139111239D01*
X139404690Y-139141374D01*
X139508000Y-139151549D01*
X140908000Y-139151549D01*
X141011310Y-139141374D01*
X141110650Y-139111239D01*
X141202202Y-139062304D01*
X141282448Y-138996448D01*
X141348304Y-138916202D01*
X141397239Y-138824650D01*
X141427374Y-138725310D01*
X141437549Y-138622000D01*
X141437549Y-138574000D01*
X144820451Y-138574000D01*
X144820451Y-138622000D01*
X144830626Y-138725310D01*
X144860761Y-138824650D01*
X144909696Y-138916202D01*
X144975552Y-138996448D01*
X145055798Y-139062304D01*
X145147350Y-139111239D01*
X145246690Y-139141374D01*
X145350000Y-139151549D01*
X146510118Y-139151549D01*
X145184427Y-140477241D01*
X145017604Y-140510424D01*
X144848901Y-140580304D01*
X144697072Y-140681752D01*
X144567952Y-140810872D01*
X144466504Y-140962701D01*
X144396624Y-141131404D01*
X144361000Y-141310499D01*
X144361000Y-141493101D01*
X144396624Y-141672196D01*
X144466504Y-141840899D01*
X144567952Y-141992728D01*
X144697072Y-142121848D01*
X144848901Y-142223296D01*
X145017604Y-142293176D01*
X145196699Y-142328800D01*
X145379301Y-142328800D01*
X145558396Y-142293176D01*
X145727099Y-142223296D01*
X145878928Y-142121848D01*
X146008048Y-141992728D01*
X146109496Y-141840899D01*
X146179376Y-141672196D01*
X146212559Y-141505373D01*
X148291412Y-139426521D01*
X148319154Y-139403754D01*
X148410003Y-139293053D01*
X148477510Y-139166757D01*
X148519080Y-139029717D01*
X148529600Y-138922908D01*
X148529600Y-138922906D01*
X148533117Y-138887201D01*
X148529600Y-138851495D01*
X148529600Y-138605866D01*
X154592800Y-144669067D01*
X154592801Y-149404223D01*
X154524752Y-149472272D01*
X154423304Y-149624101D01*
X154353424Y-149792804D01*
X154317800Y-149971899D01*
X154317800Y-150154501D01*
X154353424Y-150333596D01*
X154423304Y-150502299D01*
X154524752Y-150654128D01*
X154653872Y-150783248D01*
X154805701Y-150884696D01*
X154974404Y-150954576D01*
X155153499Y-150990200D01*
X155336101Y-150990200D01*
X155515196Y-150954576D01*
X155683899Y-150884696D01*
X155835728Y-150783248D01*
X155964848Y-150654128D01*
X156066296Y-150502299D01*
X156136176Y-150333596D01*
X156171800Y-150154501D01*
X156171800Y-149971899D01*
X156136176Y-149792804D01*
X156066296Y-149624101D01*
X155964848Y-149472272D01*
X155896800Y-149404224D01*
X155896800Y-144431021D01*
X155899954Y-144398999D01*
X155887365Y-144271185D01*
X155850083Y-144148283D01*
X155847012Y-144142537D01*
X155813104Y-144079099D01*
X159626400Y-144079099D01*
X159626400Y-144261701D01*
X159662024Y-144440796D01*
X159731904Y-144609499D01*
X159833352Y-144761328D01*
X159962472Y-144890448D01*
X160114301Y-144991896D01*
X160283004Y-145061776D01*
X160462099Y-145097400D01*
X160644701Y-145097400D01*
X160823796Y-145061776D01*
X160992499Y-144991896D01*
X161144328Y-144890448D01*
X161273448Y-144761328D01*
X161374896Y-144609499D01*
X161444776Y-144440796D01*
X161480400Y-144261701D01*
X161480400Y-144079099D01*
X161444776Y-143900004D01*
X161374896Y-143731301D01*
X161273448Y-143579472D01*
X161144328Y-143450352D01*
X160992499Y-143348904D01*
X160823796Y-143279024D01*
X160644701Y-143243400D01*
X160462099Y-143243400D01*
X160283004Y-143279024D01*
X160114301Y-143348904D01*
X159962472Y-143450352D01*
X159833352Y-143579472D01*
X159731904Y-143731301D01*
X159662024Y-143900004D01*
X159626400Y-144079099D01*
X155813104Y-144079099D01*
X155789541Y-144035016D01*
X155708064Y-143935736D01*
X155683188Y-143915321D01*
X149572200Y-137804334D01*
X149572200Y-137378994D01*
X149584917Y-137420916D01*
X149605133Y-137458737D01*
X149645460Y-137534184D01*
X149726937Y-137633464D01*
X149751814Y-137653880D01*
X150458320Y-138360387D01*
X150478736Y-138385264D01*
X150578016Y-138466741D01*
X150662451Y-138511872D01*
X150662451Y-138622000D01*
X150672626Y-138725310D01*
X150702761Y-138824650D01*
X150751696Y-138916202D01*
X150817552Y-138996448D01*
X150897798Y-139062304D01*
X150989350Y-139111239D01*
X151088690Y-139141374D01*
X151192000Y-139151549D01*
X152592000Y-139151549D01*
X152695310Y-139141374D01*
X152794650Y-139111239D01*
X152886202Y-139062304D01*
X152966448Y-138996448D01*
X153032304Y-138916202D01*
X153081239Y-138824650D01*
X153111374Y-138725310D01*
X153121549Y-138622000D01*
X153121549Y-137222000D01*
X156504451Y-137222000D01*
X156504451Y-138622000D01*
X156514626Y-138725310D01*
X156544761Y-138824650D01*
X156593696Y-138916202D01*
X156659552Y-138996448D01*
X156739798Y-139062304D01*
X156831350Y-139111239D01*
X156930690Y-139141374D01*
X157034000Y-139151549D01*
X158434000Y-139151549D01*
X158537310Y-139141374D01*
X158636650Y-139111239D01*
X158728202Y-139062304D01*
X158808448Y-138996448D01*
X158874304Y-138916202D01*
X158923239Y-138824650D01*
X158953374Y-138725310D01*
X158963549Y-138622000D01*
X158963549Y-137222000D01*
X158953374Y-137118690D01*
X158923239Y-137019350D01*
X158874304Y-136927798D01*
X158808448Y-136847552D01*
X158728202Y-136781696D01*
X158636650Y-136732761D01*
X158537310Y-136702626D01*
X158434000Y-136692451D01*
X157034000Y-136692451D01*
X156930690Y-136702626D01*
X156831350Y-136732761D01*
X156739798Y-136781696D01*
X156659552Y-136847552D01*
X156593696Y-136927798D01*
X156544761Y-137019350D01*
X156514626Y-137118690D01*
X156504451Y-137222000D01*
X153121549Y-137222000D01*
X153111374Y-137118690D01*
X153081239Y-137019350D01*
X153032304Y-136927798D01*
X152966448Y-136847552D01*
X152886202Y-136781696D01*
X152794650Y-136732761D01*
X152695310Y-136702626D01*
X152592000Y-136692451D01*
X151192000Y-136692451D01*
X151088690Y-136702626D01*
X150989350Y-136732761D01*
X150897798Y-136781696D01*
X150842200Y-136827324D01*
X150842200Y-133479404D01*
X150938927Y-133624167D01*
X151109833Y-133795073D01*
X151310798Y-133929353D01*
X151534097Y-134021847D01*
X151771151Y-134069000D01*
X152012849Y-134069000D01*
X152249903Y-134021847D01*
X152473202Y-133929353D01*
X152674167Y-133795073D01*
X152845073Y-133624167D01*
X152979353Y-133423202D01*
X153071847Y-133199903D01*
X153119000Y-132962849D01*
X153119000Y-132721151D01*
X156507000Y-132721151D01*
X156507000Y-132962849D01*
X156554153Y-133199903D01*
X156646647Y-133423202D01*
X156780927Y-133624167D01*
X156951833Y-133795073D01*
X157152798Y-133929353D01*
X157376097Y-134021847D01*
X157613151Y-134069000D01*
X157854849Y-134069000D01*
X158091903Y-134021847D01*
X158315202Y-133929353D01*
X158516167Y-133795073D01*
X158687073Y-133624167D01*
X158821353Y-133423202D01*
X158913847Y-133199903D01*
X158961000Y-132962849D01*
X158961000Y-132721151D01*
X158913847Y-132484097D01*
X158821353Y-132260798D01*
X158687073Y-132059833D01*
X158516167Y-131888927D01*
X158315202Y-131754647D01*
X158091903Y-131662153D01*
X157854849Y-131615000D01*
X157613151Y-131615000D01*
X157376097Y-131662153D01*
X157152798Y-131754647D01*
X156951833Y-131888927D01*
X156780927Y-132059833D01*
X156646647Y-132260798D01*
X156554153Y-132484097D01*
X156507000Y-132721151D01*
X153119000Y-132721151D01*
X153071847Y-132484097D01*
X152979353Y-132260798D01*
X152845073Y-132059833D01*
X152674167Y-131888927D01*
X152473202Y-131754647D01*
X152249903Y-131662153D01*
X152012849Y-131615000D01*
X151771151Y-131615000D01*
X151534097Y-131662153D01*
X151310798Y-131754647D01*
X151109833Y-131888927D01*
X150938927Y-132059833D01*
X150842200Y-132204596D01*
X150842200Y-129692357D01*
X150845218Y-129653632D01*
X150838404Y-129596442D01*
X150832765Y-129539186D01*
X150830818Y-129532769D01*
X150830024Y-129526101D01*
X150812185Y-129471341D01*
X150795483Y-129416283D01*
X150792321Y-129410367D01*
X150790242Y-129403986D01*
X150762085Y-129353799D01*
X150734941Y-129303016D01*
X150730681Y-129297826D01*
X150727400Y-129291977D01*
X150689989Y-129248242D01*
X150653464Y-129203736D01*
X150623443Y-129179099D01*
X149550751Y-128149316D01*
X149515741Y-128083816D01*
X149434264Y-127984536D01*
X149334984Y-127903059D01*
X149256340Y-127861023D01*
X149037944Y-127641151D01*
X150665000Y-127641151D01*
X150665000Y-127882849D01*
X150712153Y-128119903D01*
X150804647Y-128343202D01*
X150938927Y-128544167D01*
X151109833Y-128715073D01*
X151310798Y-128849353D01*
X151534097Y-128941847D01*
X151771151Y-128989000D01*
X152012849Y-128989000D01*
X152249903Y-128941847D01*
X152473202Y-128849353D01*
X152674167Y-128715073D01*
X152845073Y-128544167D01*
X152979353Y-128343202D01*
X153071847Y-128119903D01*
X153119000Y-127882849D01*
X153119000Y-127641151D01*
X156507000Y-127641151D01*
X156507000Y-127882849D01*
X156554153Y-128119903D01*
X156646647Y-128343202D01*
X156780927Y-128544167D01*
X156951833Y-128715073D01*
X157152798Y-128849353D01*
X157376097Y-128941847D01*
X157613151Y-128989000D01*
X157854849Y-128989000D01*
X158091903Y-128941847D01*
X158315202Y-128849353D01*
X158516167Y-128715073D01*
X158687073Y-128544167D01*
X158821353Y-128343202D01*
X158913847Y-128119903D01*
X158961000Y-127882849D01*
X158961000Y-127641151D01*
X158913847Y-127404097D01*
X158821353Y-127180798D01*
X158687073Y-126979833D01*
X158516167Y-126808927D01*
X158315202Y-126674647D01*
X158091903Y-126582153D01*
X157854849Y-126535000D01*
X157613151Y-126535000D01*
X157376097Y-126582153D01*
X157152798Y-126674647D01*
X156951833Y-126808927D01*
X156780927Y-126979833D01*
X156646647Y-127180798D01*
X156554153Y-127404097D01*
X156507000Y-127641151D01*
X153119000Y-127641151D01*
X153071847Y-127404097D01*
X152979353Y-127180798D01*
X152845073Y-126979833D01*
X152674167Y-126808927D01*
X152473202Y-126674647D01*
X152249903Y-126582153D01*
X152012849Y-126535000D01*
X151771151Y-126535000D01*
X151534097Y-126582153D01*
X151310798Y-126674647D01*
X151109833Y-126808927D01*
X150938927Y-126979833D01*
X150804647Y-127180798D01*
X150712153Y-127404097D01*
X150665000Y-127641151D01*
X149037944Y-127641151D01*
X143992036Y-122561151D01*
X144823000Y-122561151D01*
X144823000Y-122802849D01*
X144870153Y-123039903D01*
X144962647Y-123263202D01*
X145096927Y-123464167D01*
X145267833Y-123635073D01*
X145468798Y-123769353D01*
X145692097Y-123861847D01*
X145929151Y-123909000D01*
X146170849Y-123909000D01*
X146407903Y-123861847D01*
X146631202Y-123769353D01*
X146832167Y-123635073D01*
X147003073Y-123464167D01*
X147137353Y-123263202D01*
X147229847Y-123039903D01*
X147277000Y-122802849D01*
X147277000Y-122561151D01*
X150665000Y-122561151D01*
X150665000Y-122802849D01*
X150712153Y-123039903D01*
X150804647Y-123263202D01*
X150938927Y-123464167D01*
X151109833Y-123635073D01*
X151310798Y-123769353D01*
X151534097Y-123861847D01*
X151771151Y-123909000D01*
X152012849Y-123909000D01*
X152249903Y-123861847D01*
X152473202Y-123769353D01*
X152674167Y-123635073D01*
X152845073Y-123464167D01*
X152979353Y-123263202D01*
X153071847Y-123039903D01*
X153119000Y-122802849D01*
X153119000Y-122561151D01*
X156507000Y-122561151D01*
X156507000Y-122802849D01*
X156554153Y-123039903D01*
X156646647Y-123263202D01*
X156780927Y-123464167D01*
X156951833Y-123635073D01*
X157152798Y-123769353D01*
X157376097Y-123861847D01*
X157613151Y-123909000D01*
X157854849Y-123909000D01*
X158091903Y-123861847D01*
X158315202Y-123769353D01*
X158516167Y-123635073D01*
X158687073Y-123464167D01*
X158821353Y-123263202D01*
X158913847Y-123039903D01*
X158961000Y-122802849D01*
X158961000Y-122561151D01*
X158913847Y-122324097D01*
X158821353Y-122100798D01*
X158687073Y-121899833D01*
X158516167Y-121728927D01*
X158315202Y-121594647D01*
X158091903Y-121502153D01*
X157854849Y-121455000D01*
X157613151Y-121455000D01*
X157376097Y-121502153D01*
X157152798Y-121594647D01*
X156951833Y-121728927D01*
X156780927Y-121899833D01*
X156646647Y-122100798D01*
X156554153Y-122324097D01*
X156507000Y-122561151D01*
X153119000Y-122561151D01*
X153071847Y-122324097D01*
X152979353Y-122100798D01*
X152845073Y-121899833D01*
X152674167Y-121728927D01*
X152473202Y-121594647D01*
X152249903Y-121502153D01*
X152012849Y-121455000D01*
X151771151Y-121455000D01*
X151534097Y-121502153D01*
X151310798Y-121594647D01*
X151109833Y-121728927D01*
X150938927Y-121899833D01*
X150804647Y-122100798D01*
X150712153Y-122324097D01*
X150665000Y-122561151D01*
X147277000Y-122561151D01*
X147229847Y-122324097D01*
X147137353Y-122100798D01*
X147003073Y-121899833D01*
X146832167Y-121728927D01*
X146631202Y-121594647D01*
X146407903Y-121502153D01*
X146170849Y-121455000D01*
X145929151Y-121455000D01*
X145692097Y-121502153D01*
X145468798Y-121594647D01*
X145267833Y-121728927D01*
X145096927Y-121899833D01*
X144962647Y-122100798D01*
X144870153Y-122324097D01*
X144823000Y-122561151D01*
X143992036Y-122561151D01*
X141886184Y-120441071D01*
X141865064Y-120415336D01*
X141815923Y-120375007D01*
X141767615Y-120335089D01*
X141766648Y-120334568D01*
X141765784Y-120333859D01*
X141709748Y-120303908D01*
X141654552Y-120274165D01*
X141653498Y-120273841D01*
X141652517Y-120273317D01*
X141592004Y-120254961D01*
X141531777Y-120236469D01*
X141530674Y-120236357D01*
X141529614Y-120236035D01*
X141466747Y-120229843D01*
X141404005Y-120223450D01*
X141370879Y-120226600D01*
X132518421Y-120226600D01*
X132486399Y-120223446D01*
X132358585Y-120236035D01*
X132238455Y-120272476D01*
X132235683Y-120273317D01*
X132122416Y-120333859D01*
X132023136Y-120415336D01*
X132002720Y-120440213D01*
X129751000Y-122691934D01*
X129751000Y-122561151D01*
X129703847Y-122324097D01*
X129611353Y-122100798D01*
X129477073Y-121899833D01*
X129306167Y-121728927D01*
X129105202Y-121594647D01*
X128881903Y-121502153D01*
X128644849Y-121455000D01*
X128403151Y-121455000D01*
X128166097Y-121502153D01*
X127942798Y-121594647D01*
X127741833Y-121728927D01*
X127570927Y-121899833D01*
X127436647Y-122100798D01*
X127344153Y-122324097D01*
X127297000Y-122561151D01*
X127297000Y-122802849D01*
X127344153Y-123039903D01*
X127436647Y-123263202D01*
X127570927Y-123464167D01*
X127741833Y-123635073D01*
X127942798Y-123769353D01*
X128166097Y-123861847D01*
X128403151Y-123909000D01*
X128533934Y-123909000D01*
X127949134Y-124493800D01*
X105730867Y-124493800D01*
X102307067Y-121070000D01*
X107586451Y-121070000D01*
X107586451Y-122770000D01*
X107596626Y-122873310D01*
X107626761Y-122972650D01*
X107675696Y-123064202D01*
X107741552Y-123144448D01*
X107821798Y-123210304D01*
X107913350Y-123259239D01*
X108012690Y-123289374D01*
X108116000Y-123299549D01*
X109816000Y-123299549D01*
X109919310Y-123289374D01*
X110018650Y-123259239D01*
X110110202Y-123210304D01*
X110190448Y-123144448D01*
X110256304Y-123064202D01*
X110305239Y-122972650D01*
X110335374Y-122873310D01*
X110345549Y-122770000D01*
X110345549Y-121070000D01*
X112666451Y-121070000D01*
X112666451Y-122770000D01*
X112676626Y-122873310D01*
X112706761Y-122972650D01*
X112755696Y-123064202D01*
X112821552Y-123144448D01*
X112901798Y-123210304D01*
X112993350Y-123259239D01*
X113092690Y-123289374D01*
X113196000Y-123299549D01*
X114896000Y-123299549D01*
X114999310Y-123289374D01*
X115098650Y-123259239D01*
X115190202Y-123210304D01*
X115270448Y-123144448D01*
X115336304Y-123064202D01*
X115385239Y-122972650D01*
X115415374Y-122873310D01*
X115425549Y-122770000D01*
X115425549Y-122561151D01*
X121455000Y-122561151D01*
X121455000Y-122802849D01*
X121502153Y-123039903D01*
X121594647Y-123263202D01*
X121728927Y-123464167D01*
X121899833Y-123635073D01*
X122100798Y-123769353D01*
X122324097Y-123861847D01*
X122561151Y-123909000D01*
X122802849Y-123909000D01*
X123039903Y-123861847D01*
X123263202Y-123769353D01*
X123464167Y-123635073D01*
X123635073Y-123464167D01*
X123769353Y-123263202D01*
X123861847Y-123039903D01*
X123909000Y-122802849D01*
X123909000Y-122561151D01*
X123861847Y-122324097D01*
X123769353Y-122100798D01*
X123635073Y-121899833D01*
X123464167Y-121728927D01*
X123263202Y-121594647D01*
X123039903Y-121502153D01*
X122802849Y-121455000D01*
X122561151Y-121455000D01*
X122324097Y-121502153D01*
X122100798Y-121594647D01*
X121899833Y-121728927D01*
X121728927Y-121899833D01*
X121594647Y-122100798D01*
X121502153Y-122324097D01*
X121455000Y-122561151D01*
X115425549Y-122561151D01*
X115425549Y-121070000D01*
X115415374Y-120966690D01*
X115385239Y-120867350D01*
X115336304Y-120775798D01*
X115270448Y-120695552D01*
X115190202Y-120629696D01*
X115098650Y-120580761D01*
X114999310Y-120550626D01*
X114896000Y-120540451D01*
X113196000Y-120540451D01*
X113092690Y-120550626D01*
X112993350Y-120580761D01*
X112901798Y-120629696D01*
X112821552Y-120695552D01*
X112755696Y-120775798D01*
X112706761Y-120867350D01*
X112676626Y-120966690D01*
X112666451Y-121070000D01*
X110345549Y-121070000D01*
X110335374Y-120966690D01*
X110305239Y-120867350D01*
X110256304Y-120775798D01*
X110190448Y-120695552D01*
X110110202Y-120629696D01*
X110018650Y-120580761D01*
X109919310Y-120550626D01*
X109816000Y-120540451D01*
X108116000Y-120540451D01*
X108012690Y-120550626D01*
X107913350Y-120580761D01*
X107821798Y-120629696D01*
X107741552Y-120695552D01*
X107675696Y-120775798D01*
X107626761Y-120867350D01*
X107596626Y-120966690D01*
X107586451Y-121070000D01*
X102307067Y-121070000D01*
X101728085Y-120491019D01*
X101707664Y-120466136D01*
X101608384Y-120384659D01*
X101495117Y-120324117D01*
X101372214Y-120286835D01*
X101276422Y-120277400D01*
X101244400Y-120274246D01*
X101212378Y-120277400D01*
X79940422Y-120277400D01*
X79908400Y-120274246D01*
X79780585Y-120286835D01*
X79719135Y-120305476D01*
X79657683Y-120324117D01*
X79544416Y-120384659D01*
X79445136Y-120466136D01*
X79424720Y-120491013D01*
X78585733Y-121330001D01*
X76424020Y-121330001D01*
X76391998Y-121326847D01*
X76264184Y-121339436D01*
X76141282Y-121376718D01*
X76028015Y-121437260D01*
X75968639Y-121485989D01*
X75812849Y-121455000D01*
X75571151Y-121455000D01*
X75334097Y-121502153D01*
X75110798Y-121594647D01*
X74909833Y-121728927D01*
X74738927Y-121899833D01*
X74604647Y-122100798D01*
X74512153Y-122324097D01*
X74465000Y-122561151D01*
X71077000Y-122561151D01*
X71029847Y-122324097D01*
X70937353Y-122100798D01*
X70803073Y-121899833D01*
X70632167Y-121728927D01*
X70431202Y-121594647D01*
X70207903Y-121502153D01*
X69970849Y-121455000D01*
X69729151Y-121455000D01*
X69492097Y-121502153D01*
X69268798Y-121594647D01*
X69067833Y-121728927D01*
X68896927Y-121899833D01*
X68762647Y-122100798D01*
X68670153Y-122324097D01*
X68623000Y-122561151D01*
X65235000Y-122561151D01*
X65187847Y-122324097D01*
X65095353Y-122100798D01*
X64961073Y-121899833D01*
X64790167Y-121728927D01*
X64589202Y-121594647D01*
X64365903Y-121502153D01*
X64128849Y-121455000D01*
X63887151Y-121455000D01*
X63650097Y-121502153D01*
X63426798Y-121594647D01*
X63225833Y-121728927D01*
X63054927Y-121899833D01*
X62920647Y-122100798D01*
X62828153Y-122324097D01*
X62781000Y-122561151D01*
X51377000Y-122561151D01*
X51377000Y-119703000D01*
X174423000Y-119703000D01*
X174423001Y-125026000D01*
G37*
X174423001Y-125026000D02*
X167826176Y-125026000D01*
X167852048Y-125000128D01*
X167953496Y-124848299D01*
X168023376Y-124679596D01*
X168059000Y-124500501D01*
X168059000Y-124317899D01*
X168023376Y-124138804D01*
X167953496Y-123970101D01*
X167852048Y-123818272D01*
X167722928Y-123689152D01*
X167571099Y-123587704D01*
X167402396Y-123517824D01*
X167223301Y-123482200D01*
X167040699Y-123482200D01*
X166861604Y-123517824D01*
X166692901Y-123587704D01*
X166541072Y-123689152D01*
X166473024Y-123757200D01*
X164049267Y-123757200D01*
X163330958Y-123038891D01*
X168738519Y-123038891D01*
X168835843Y-123313252D01*
X168984822Y-123563355D01*
X169179731Y-123779588D01*
X169413080Y-123953641D01*
X169675901Y-124078825D01*
X169823110Y-124123476D01*
X170053000Y-124002155D01*
X170053000Y-122809000D01*
X168859186Y-122809000D01*
X168738519Y-123038891D01*
X163330958Y-123038891D01*
X162617176Y-122325109D01*
X168738519Y-122325109D01*
X168859186Y-122555000D01*
X170053000Y-122555000D01*
X170053000Y-121361845D01*
X170307000Y-121361845D01*
X170307000Y-122555000D01*
X170327000Y-122555000D01*
X170327000Y-122809000D01*
X170307000Y-122809000D01*
X170307000Y-124002155D01*
X170536890Y-124123476D01*
X170684099Y-124078825D01*
X170946920Y-123953641D01*
X171180269Y-123779588D01*
X171346656Y-123594998D01*
X171350626Y-123635310D01*
X171380761Y-123734650D01*
X171429696Y-123826202D01*
X171495552Y-123906448D01*
X171575798Y-123972304D01*
X171667350Y-124021239D01*
X171766690Y-124051374D01*
X171870000Y-124061549D01*
X173570000Y-124061549D01*
X173673310Y-124051374D01*
X173772650Y-124021239D01*
X173864202Y-123972304D01*
X173944448Y-123906448D01*
X174010304Y-123826202D01*
X174059239Y-123734650D01*
X174089374Y-123635310D01*
X174099549Y-123532000D01*
X174099549Y-121832000D01*
X174089374Y-121728690D01*
X174059239Y-121629350D01*
X174010304Y-121537798D01*
X173944448Y-121457552D01*
X173864202Y-121391696D01*
X173772650Y-121342761D01*
X173673310Y-121312626D01*
X173570000Y-121302451D01*
X171870000Y-121302451D01*
X171766690Y-121312626D01*
X171667350Y-121342761D01*
X171575798Y-121391696D01*
X171495552Y-121457552D01*
X171429696Y-121537798D01*
X171380761Y-121629350D01*
X171350626Y-121728690D01*
X171346656Y-121769002D01*
X171180269Y-121584412D01*
X170946920Y-121410359D01*
X170684099Y-121285175D01*
X170536890Y-121240524D01*
X170307000Y-121361845D01*
X170053000Y-121361845D01*
X169823110Y-121240524D01*
X169675901Y-121285175D01*
X169413080Y-121410359D01*
X169179731Y-121584412D01*
X168984822Y-121800645D01*
X168835843Y-122050748D01*
X168738519Y-122325109D01*
X162617176Y-122325109D01*
X161810600Y-121518534D01*
X161810600Y-121422299D01*
X161774976Y-121243204D01*
X161705096Y-121074501D01*
X161603648Y-120922672D01*
X161474528Y-120793552D01*
X161322699Y-120692104D01*
X161153996Y-120622224D01*
X160974901Y-120586600D01*
X160792299Y-120586600D01*
X160613204Y-120622224D01*
X160444501Y-120692104D01*
X160292672Y-120793552D01*
X160163552Y-120922672D01*
X160062104Y-121074501D01*
X159992224Y-121243204D01*
X159956600Y-121422299D01*
X159956600Y-121604901D01*
X159992224Y-121783996D01*
X160062104Y-121952699D01*
X160163552Y-122104528D01*
X160292672Y-122233648D01*
X160444501Y-122335096D01*
X160613204Y-122404976D01*
X160792299Y-122440600D01*
X160888534Y-122440600D01*
X163295520Y-124847587D01*
X163315936Y-124872464D01*
X163415216Y-124953941D01*
X163528483Y-125014483D01*
X163651385Y-125051765D01*
X163779200Y-125064354D01*
X163811222Y-125061200D01*
X166473024Y-125061200D01*
X166541072Y-125129248D01*
X166692901Y-125230696D01*
X166757395Y-125257411D01*
X166655391Y-125312564D01*
X166612033Y-125341809D01*
X166568273Y-125370445D01*
X166562030Y-125375537D01*
X166371051Y-125533530D01*
X166334239Y-125570600D01*
X166296837Y-125607227D01*
X166291702Y-125613434D01*
X166135047Y-125805512D01*
X166106088Y-125849098D01*
X166076560Y-125892223D01*
X166072732Y-125899304D01*
X166072729Y-125899308D01*
X166072729Y-125899309D01*
X165956366Y-126118157D01*
X165936455Y-126166466D01*
X165915836Y-126214572D01*
X165913454Y-126222268D01*
X165841814Y-126459549D01*
X165831655Y-126510857D01*
X165820783Y-126562004D01*
X165819941Y-126570017D01*
X165795754Y-126816695D01*
X165795754Y-126816704D01*
X165793000Y-126844665D01*
X165793001Y-156323000D01*
X117671664Y-156323000D01*
X117646839Y-156325445D01*
X117640377Y-156325400D01*
X117632359Y-156326187D01*
X117448116Y-156345551D01*
X117818492Y-155956109D01*
X117839153Y-155939153D01*
X117854422Y-155920547D01*
X118852432Y-154985176D01*
X118861537Y-154977704D01*
X118873851Y-154965390D01*
X118973870Y-154965390D01*
X119172284Y-154925923D01*
X119359186Y-154848505D01*
X119527393Y-154736113D01*
X119670442Y-154593064D01*
X119782834Y-154424857D01*
X119860252Y-154237955D01*
X119899719Y-154039541D01*
X119899719Y-153837239D01*
X119898816Y-153832699D01*
X149644200Y-153832699D01*
X149644200Y-154015301D01*
X149679824Y-154194396D01*
X149749704Y-154363099D01*
X149851152Y-154514928D01*
X149980272Y-154644048D01*
X150132101Y-154745496D01*
X150300804Y-154815376D01*
X150479899Y-154851000D01*
X150662501Y-154851000D01*
X150841596Y-154815376D01*
X151010299Y-154745496D01*
X151162128Y-154644048D01*
X151291248Y-154514928D01*
X151392696Y-154363099D01*
X151462576Y-154194396D01*
X151498200Y-154015301D01*
X151498200Y-153832699D01*
X151462576Y-153653604D01*
X151392696Y-153484901D01*
X151291248Y-153333072D01*
X151162128Y-153203952D01*
X151010299Y-153102504D01*
X150841596Y-153032624D01*
X150662501Y-152997000D01*
X150479899Y-152997000D01*
X150300804Y-153032624D01*
X150132101Y-153102504D01*
X149980272Y-153203952D01*
X149851152Y-153333072D01*
X149749704Y-153484901D01*
X149679824Y-153653604D01*
X149644200Y-153832699D01*
X119898816Y-153832699D01*
X119860252Y-153638825D01*
X119782834Y-153451923D01*
X119670442Y-153283716D01*
X119527393Y-153140667D01*
X119359186Y-153028275D01*
X119172284Y-152950857D01*
X118973870Y-152911390D01*
X118771568Y-152911390D01*
X118573154Y-152950857D01*
X118386252Y-153028275D01*
X118218045Y-153140667D01*
X118074996Y-153283716D01*
X117962604Y-153451923D01*
X117885186Y-153638825D01*
X117845719Y-153837239D01*
X117845719Y-153935922D01*
X117579654Y-154185289D01*
X117510723Y-154082126D01*
X117367674Y-153939077D01*
X117199467Y-153826685D01*
X117012565Y-153749267D01*
X116814151Y-153709800D01*
X116611849Y-153709800D01*
X116413435Y-153749267D01*
X116226533Y-153826685D01*
X116058326Y-153939077D01*
X115915277Y-154082126D01*
X115802885Y-154250333D01*
X115725467Y-154437235D01*
X115686000Y-154635649D01*
X115686000Y-154837951D01*
X115725467Y-155036365D01*
X115802885Y-155223267D01*
X115915277Y-155391474D01*
X116058326Y-155534523D01*
X116152826Y-155597665D01*
X115638146Y-156138841D01*
X115603531Y-156157343D01*
X115648576Y-156048596D01*
X115684200Y-155869501D01*
X115684200Y-155686899D01*
X115648576Y-155507804D01*
X115578696Y-155339101D01*
X115477248Y-155187272D01*
X115409200Y-155119224D01*
X115409200Y-153457466D01*
X117774734Y-151091932D01*
X117872552Y-151238328D01*
X118001672Y-151367448D01*
X118153501Y-151468896D01*
X118322204Y-151538776D01*
X118501299Y-151574400D01*
X118683901Y-151574400D01*
X118862996Y-151538776D01*
X119031699Y-151468896D01*
X119183528Y-151367448D01*
X119312648Y-151238328D01*
X119414096Y-151086499D01*
X119483976Y-150917796D01*
X119519600Y-150738701D01*
X119519600Y-150556099D01*
X119483976Y-150377004D01*
X119414096Y-150208301D01*
X119312648Y-150056472D01*
X119183528Y-149927352D01*
X119037132Y-149829534D01*
X123491868Y-145374799D01*
X133933979Y-145374799D01*
X133966001Y-145377953D01*
X133998023Y-145374799D01*
X134093815Y-145365364D01*
X134216718Y-145328082D01*
X134329985Y-145267540D01*
X134351601Y-145249800D01*
X134457301Y-145249800D01*
X134636396Y-145214176D01*
X134805099Y-145144296D01*
X134956928Y-145042848D01*
X135086048Y-144913728D01*
X135187496Y-144761899D01*
X135257376Y-144593196D01*
X135293000Y-144414101D01*
X135293000Y-144249798D01*
X140156242Y-144249798D01*
X146737010Y-150830567D01*
X146737010Y-150926801D01*
X146772634Y-151105896D01*
X146842514Y-151274599D01*
X146943962Y-151426428D01*
X147073082Y-151555548D01*
X147224911Y-151656996D01*
X147393614Y-151726876D01*
X147572709Y-151762500D01*
X147755311Y-151762500D01*
X147934406Y-151726876D01*
X148103109Y-151656996D01*
X148254938Y-151555548D01*
X148384058Y-151426428D01*
X148485506Y-151274599D01*
X148555386Y-151105896D01*
X148591010Y-150926801D01*
X148591010Y-150744199D01*
X148555386Y-150565104D01*
X148485506Y-150396401D01*
X148384058Y-150244572D01*
X148254938Y-150115452D01*
X148103109Y-150014004D01*
X147934406Y-149944124D01*
X147755311Y-149908500D01*
X147659077Y-149908500D01*
X145385676Y-147635099D01*
X150152200Y-147635099D01*
X150152200Y-147817701D01*
X150187824Y-147996796D01*
X150257704Y-148165499D01*
X150359152Y-148317328D01*
X150488272Y-148446448D01*
X150640101Y-148547896D01*
X150808804Y-148617776D01*
X150987899Y-148653400D01*
X151170501Y-148653400D01*
X151349596Y-148617776D01*
X151518299Y-148547896D01*
X151670128Y-148446448D01*
X151799248Y-148317328D01*
X151900696Y-148165499D01*
X151970576Y-147996796D01*
X152006200Y-147817701D01*
X152006200Y-147635099D01*
X151970576Y-147456004D01*
X151900696Y-147287301D01*
X151799248Y-147135472D01*
X151670128Y-147006352D01*
X151518299Y-146904904D01*
X151349596Y-146835024D01*
X151170501Y-146799400D01*
X150987899Y-146799400D01*
X150808804Y-146835024D01*
X150640101Y-146904904D01*
X150488272Y-147006352D01*
X150359152Y-147135472D01*
X150257704Y-147287301D01*
X150187824Y-147456004D01*
X150152200Y-147635099D01*
X145385676Y-147635099D01*
X141550363Y-143799787D01*
X145401640Y-143799787D01*
X146027630Y-144425778D01*
X146027630Y-144522012D01*
X146063254Y-144701107D01*
X146133134Y-144869810D01*
X146234582Y-145021639D01*
X146363702Y-145150759D01*
X146515531Y-145252207D01*
X146684234Y-145322087D01*
X146863329Y-145357711D01*
X147045931Y-145357711D01*
X147225026Y-145322087D01*
X147393729Y-145252207D01*
X147545558Y-145150759D01*
X147674678Y-145021639D01*
X147776126Y-144869810D01*
X147846006Y-144701107D01*
X147881630Y-144522012D01*
X147881630Y-144339410D01*
X147846006Y-144160315D01*
X147776126Y-143991612D01*
X147674678Y-143839783D01*
X147545558Y-143710663D01*
X147393729Y-143609215D01*
X147225026Y-143539335D01*
X147045931Y-143503711D01*
X146949697Y-143503711D01*
X146155391Y-142709406D01*
X146134970Y-142684523D01*
X146035690Y-142603046D01*
X145922423Y-142542504D01*
X145799520Y-142505222D01*
X145703728Y-142495787D01*
X145671706Y-142492633D01*
X145639684Y-142495787D01*
X129734869Y-142495787D01*
X129491286Y-142252205D01*
X129470866Y-142227323D01*
X129371586Y-142145846D01*
X129258319Y-142085304D01*
X129135416Y-142048022D01*
X129039624Y-142038587D01*
X129007602Y-142035433D01*
X128975580Y-142038587D01*
X128166883Y-142038587D01*
X127055292Y-140926997D01*
X127034871Y-140902114D01*
X126935591Y-140820637D01*
X126822324Y-140760095D01*
X126699421Y-140722813D01*
X126603629Y-140713378D01*
X126571607Y-140710224D01*
X126539585Y-140713378D01*
X123712822Y-140713378D01*
X123680800Y-140710224D01*
X123552985Y-140722813D01*
X123513892Y-140734672D01*
X123430083Y-140760095D01*
X123316816Y-140820637D01*
X123217536Y-140902114D01*
X123197120Y-140926991D01*
X113503693Y-150620419D01*
X112500259Y-150620419D01*
X112524376Y-150562196D01*
X112560000Y-150383101D01*
X112560000Y-150200499D01*
X112524376Y-150021404D01*
X112454496Y-149852701D01*
X112353048Y-149700872D01*
X112223928Y-149571752D01*
X112072099Y-149470304D01*
X111903396Y-149400424D01*
X111724301Y-149364800D01*
X111541699Y-149364800D01*
X111362604Y-149400424D01*
X111193901Y-149470304D01*
X111042072Y-149571752D01*
X110974024Y-149639800D01*
X110922463Y-149639800D01*
X110995258Y-149567005D01*
X111096706Y-149415176D01*
X111166586Y-149246473D01*
X111202210Y-149067378D01*
X111202210Y-148884776D01*
X111166586Y-148705681D01*
X111096706Y-148536978D01*
X110995258Y-148385149D01*
X110866138Y-148256029D01*
X110714309Y-148154581D01*
X110545606Y-148084701D01*
X110366511Y-148049077D01*
X110270277Y-148049077D01*
X110098212Y-147877012D01*
X110861546Y-147877012D01*
X111087000Y-148102467D01*
X111087000Y-148198701D01*
X111122624Y-148377796D01*
X111192504Y-148546499D01*
X111293952Y-148698328D01*
X111423072Y-148827448D01*
X111574901Y-148928896D01*
X111743604Y-148998776D01*
X111922699Y-149034400D01*
X112105301Y-149034400D01*
X112284396Y-148998776D01*
X112453099Y-148928896D01*
X112604928Y-148827448D01*
X112734048Y-148698328D01*
X112835496Y-148546499D01*
X112905376Y-148377796D01*
X112941000Y-148198701D01*
X112941000Y-148016099D01*
X112905376Y-147837004D01*
X112835496Y-147668301D01*
X112734048Y-147516472D01*
X112604928Y-147387352D01*
X112596872Y-147381969D01*
X112759604Y-147449376D01*
X112938699Y-147485000D01*
X113121301Y-147485000D01*
X113300396Y-147449376D01*
X113469099Y-147379496D01*
X113620928Y-147278048D01*
X113750048Y-147148928D01*
X113851496Y-146997099D01*
X113921376Y-146828396D01*
X113957000Y-146649301D01*
X113957000Y-146466699D01*
X113921376Y-146287604D01*
X113851496Y-146118901D01*
X113750048Y-145967072D01*
X113620928Y-145837952D01*
X113469099Y-145736504D01*
X113300396Y-145666624D01*
X113121301Y-145631000D01*
X112938699Y-145631000D01*
X112759604Y-145666624D01*
X112590901Y-145736504D01*
X112439072Y-145837952D01*
X112371024Y-145906000D01*
X102933624Y-145906000D01*
X102901602Y-145902846D01*
X102773787Y-145915435D01*
X102712337Y-145934076D01*
X102650885Y-145952717D01*
X102537618Y-146013259D01*
X102438338Y-146094736D01*
X102417917Y-146119619D01*
X102262135Y-146275401D01*
X101439002Y-146275401D01*
X101406987Y-146272248D01*
X101374973Y-146275401D01*
X101374966Y-146275401D01*
X101291815Y-146283591D01*
X101279173Y-146284836D01*
X101205172Y-146307284D01*
X101156271Y-146322118D01*
X101043004Y-146382660D01*
X100943724Y-146464137D01*
X100923308Y-146489014D01*
X97504014Y-149908309D01*
X97479137Y-149928725D01*
X97397660Y-150028005D01*
X97382444Y-150056472D01*
X97337117Y-150141273D01*
X97299835Y-150264175D01*
X97287246Y-150391989D01*
X97290401Y-150424021D01*
X97290400Y-157695774D01*
X97287246Y-157727796D01*
X97299835Y-157855610D01*
X97326277Y-157942778D01*
X97337117Y-157978512D01*
X97397659Y-158091779D01*
X97479136Y-158191060D01*
X97504019Y-158211481D01*
X97532802Y-158240264D01*
X97532802Y-158494135D01*
X97455260Y-158588620D01*
X97427127Y-158641253D01*
X97394717Y-158701888D01*
X97357435Y-158824790D01*
X97344846Y-158952604D01*
X97348001Y-158984636D01*
X97348001Y-160112024D01*
X97285750Y-160115000D01*
X97127000Y-160273750D01*
X97127000Y-160683506D01*
X97120451Y-160750000D01*
X97120451Y-162497000D01*
X96927000Y-162497000D01*
X96927000Y-157921664D01*
X96924555Y-157896839D01*
X96924600Y-157890377D01*
X96923813Y-157882359D01*
X96902393Y-157678556D01*
X96891879Y-157627334D01*
X96882078Y-157575956D01*
X96879749Y-157568244D01*
X96819151Y-157372484D01*
X96798881Y-157324262D01*
X96779296Y-157275788D01*
X96775514Y-157268675D01*
X96678047Y-157088412D01*
X96648786Y-157045031D01*
X96620167Y-157001296D01*
X96615075Y-156995053D01*
X96484452Y-156837157D01*
X96447329Y-156800292D01*
X96410754Y-156762943D01*
X96404552Y-156757813D01*
X96404547Y-156757808D01*
X96404542Y-156757804D01*
X96245742Y-156628290D01*
X96202174Y-156599344D01*
X96159033Y-156569804D01*
X96151946Y-156565972D01*
X95971009Y-156469766D01*
X95922637Y-156449828D01*
X95874592Y-156429236D01*
X95866896Y-156426854D01*
X95670718Y-156367624D01*
X95619410Y-156357465D01*
X95568263Y-156346593D01*
X95560255Y-156345751D01*
X95560251Y-156345751D01*
X95356305Y-156325754D01*
X95356297Y-156325754D01*
X95328336Y-156323000D01*
X51377000Y-156323000D01*
X51377000Y-137222000D01*
X62778451Y-137222000D01*
X62778451Y-138622000D01*
X62788626Y-138725310D01*
X62818761Y-138824650D01*
X62867696Y-138916202D01*
X62933552Y-138996448D01*
X63013798Y-139062304D01*
X63105350Y-139111239D01*
X63204690Y-139141374D01*
X63308000Y-139151549D01*
X64708000Y-139151549D01*
X64811310Y-139141374D01*
X64910650Y-139111239D01*
X65002202Y-139062304D01*
X65082448Y-138996448D01*
X65148304Y-138916202D01*
X65197239Y-138824650D01*
X65227374Y-138725310D01*
X65237549Y-138622000D01*
X65237549Y-137222000D01*
X68620451Y-137222000D01*
X68620451Y-138622000D01*
X68630626Y-138725310D01*
X68660761Y-138824650D01*
X68709696Y-138916202D01*
X68775552Y-138996448D01*
X68855798Y-139062304D01*
X68947350Y-139111239D01*
X69046690Y-139141374D01*
X69150000Y-139151549D01*
X70550000Y-139151549D01*
X70653310Y-139141374D01*
X70752650Y-139111239D01*
X70844202Y-139062304D01*
X70924448Y-138996448D01*
X70990304Y-138916202D01*
X71039239Y-138824650D01*
X71069374Y-138725310D01*
X71079549Y-138622000D01*
X71079549Y-137222000D01*
X74462451Y-137222000D01*
X74462451Y-138622000D01*
X74472626Y-138725310D01*
X74502761Y-138824650D01*
X74551696Y-138916202D01*
X74617552Y-138996448D01*
X74697798Y-139062304D01*
X74789350Y-139111239D01*
X74888690Y-139141374D01*
X74992000Y-139151549D01*
X76392000Y-139151549D01*
X76495310Y-139141374D01*
X76594650Y-139111239D01*
X76686202Y-139062304D01*
X76766448Y-138996448D01*
X76832304Y-138916202D01*
X76881239Y-138824650D01*
X76911374Y-138725310D01*
X76921549Y-138622000D01*
X76921549Y-137222000D01*
X76911374Y-137118690D01*
X76881239Y-137019350D01*
X76832304Y-136927798D01*
X76766448Y-136847552D01*
X76686202Y-136781696D01*
X76594650Y-136732761D01*
X76495310Y-136702626D01*
X76392000Y-136692451D01*
X74992000Y-136692451D01*
X74888690Y-136702626D01*
X74789350Y-136732761D01*
X74697798Y-136781696D01*
X74617552Y-136847552D01*
X74551696Y-136927798D01*
X74502761Y-137019350D01*
X74472626Y-137118690D01*
X74462451Y-137222000D01*
X71079549Y-137222000D01*
X71069374Y-137118690D01*
X71039239Y-137019350D01*
X70990304Y-136927798D01*
X70924448Y-136847552D01*
X70844202Y-136781696D01*
X70752650Y-136732761D01*
X70653310Y-136702626D01*
X70550000Y-136692451D01*
X69150000Y-136692451D01*
X69046690Y-136702626D01*
X68947350Y-136732761D01*
X68855798Y-136781696D01*
X68775552Y-136847552D01*
X68709696Y-136927798D01*
X68660761Y-137019350D01*
X68630626Y-137118690D01*
X68620451Y-137222000D01*
X65237549Y-137222000D01*
X65227374Y-137118690D01*
X65197239Y-137019350D01*
X65148304Y-136927798D01*
X65082448Y-136847552D01*
X65002202Y-136781696D01*
X64910650Y-136732761D01*
X64811310Y-136702626D01*
X64708000Y-136692451D01*
X63308000Y-136692451D01*
X63204690Y-136702626D01*
X63105350Y-136732761D01*
X63013798Y-136781696D01*
X62933552Y-136847552D01*
X62867696Y-136927798D01*
X62818761Y-137019350D01*
X62788626Y-137118690D01*
X62778451Y-137222000D01*
X51377000Y-137222000D01*
X51377000Y-132721151D01*
X62781000Y-132721151D01*
X62781000Y-132962849D01*
X62828153Y-133199903D01*
X62920647Y-133423202D01*
X63054927Y-133624167D01*
X63225833Y-133795073D01*
X63426798Y-133929353D01*
X63650097Y-134021847D01*
X63887151Y-134069000D01*
X64128849Y-134069000D01*
X64365903Y-134021847D01*
X64589202Y-133929353D01*
X64790167Y-133795073D01*
X64961073Y-133624167D01*
X65095353Y-133423202D01*
X65187847Y-133199903D01*
X65235000Y-132962849D01*
X65235000Y-132721151D01*
X68623000Y-132721151D01*
X68623000Y-132962849D01*
X68670153Y-133199903D01*
X68762647Y-133423202D01*
X68896927Y-133624167D01*
X69067833Y-133795073D01*
X69268798Y-133929353D01*
X69492097Y-134021847D01*
X69729151Y-134069000D01*
X69970849Y-134069000D01*
X70207903Y-134021847D01*
X70431202Y-133929353D01*
X70632167Y-133795073D01*
X70803073Y-133624167D01*
X70937353Y-133423202D01*
X71029847Y-133199903D01*
X71077000Y-132962849D01*
X71077000Y-132721151D01*
X74465000Y-132721151D01*
X74465000Y-132962849D01*
X74512153Y-133199903D01*
X74604647Y-133423202D01*
X74738927Y-133624167D01*
X74909833Y-133795073D01*
X75110798Y-133929353D01*
X75334097Y-134021847D01*
X75571151Y-134069000D01*
X75812849Y-134069000D01*
X76049903Y-134021847D01*
X76273202Y-133929353D01*
X76474167Y-133795073D01*
X76645073Y-133624167D01*
X76779353Y-133423202D01*
X76871847Y-133199903D01*
X76919000Y-132962849D01*
X76919000Y-132721151D01*
X80307000Y-132721151D01*
X80307000Y-132962849D01*
X80354153Y-133199903D01*
X80446647Y-133423202D01*
X80580927Y-133624167D01*
X80751833Y-133795073D01*
X80952798Y-133929353D01*
X81176097Y-134021847D01*
X81413151Y-134069000D01*
X81654849Y-134069000D01*
X81891903Y-134021847D01*
X82115202Y-133929353D01*
X82316167Y-133795073D01*
X82487073Y-133624167D01*
X82621353Y-133423202D01*
X82713847Y-133199903D01*
X82761000Y-132962849D01*
X82761000Y-132721151D01*
X86149000Y-132721151D01*
X86149000Y-132962849D01*
X86196153Y-133199903D01*
X86288647Y-133423202D01*
X86422927Y-133624167D01*
X86593833Y-133795073D01*
X86794798Y-133929353D01*
X87018097Y-134021847D01*
X87255151Y-134069000D01*
X87496849Y-134069000D01*
X87733903Y-134021847D01*
X87957202Y-133929353D01*
X88158167Y-133795073D01*
X88329073Y-133624167D01*
X88463353Y-133423202D01*
X88555847Y-133199903D01*
X88603000Y-132962849D01*
X88603000Y-132721151D01*
X91991000Y-132721151D01*
X91991000Y-132962849D01*
X92038153Y-133199903D01*
X92130647Y-133423202D01*
X92264927Y-133624167D01*
X92435833Y-133795073D01*
X92636798Y-133929353D01*
X92860097Y-134021847D01*
X93097151Y-134069000D01*
X93338849Y-134069000D01*
X93575903Y-134021847D01*
X93799202Y-133929353D01*
X94000167Y-133795073D01*
X94171073Y-133624167D01*
X94305353Y-133423202D01*
X94397847Y-133199903D01*
X94445000Y-132962849D01*
X94445000Y-132721151D01*
X94397847Y-132484097D01*
X94305353Y-132260798D01*
X94171073Y-132059833D01*
X94000167Y-131888927D01*
X93799202Y-131754647D01*
X93575903Y-131662153D01*
X93338849Y-131615000D01*
X93097151Y-131615000D01*
X92860097Y-131662153D01*
X92636798Y-131754647D01*
X92435833Y-131888927D01*
X92264927Y-132059833D01*
X92130647Y-132260798D01*
X92038153Y-132484097D01*
X91991000Y-132721151D01*
X88603000Y-132721151D01*
X88555847Y-132484097D01*
X88463353Y-132260798D01*
X88329073Y-132059833D01*
X88158167Y-131888927D01*
X87957202Y-131754647D01*
X87733903Y-131662153D01*
X87496849Y-131615000D01*
X87255151Y-131615000D01*
X87018097Y-131662153D01*
X86794798Y-131754647D01*
X86593833Y-131888927D01*
X86422927Y-132059833D01*
X86288647Y-132260798D01*
X86196153Y-132484097D01*
X86149000Y-132721151D01*
X82761000Y-132721151D01*
X82713847Y-132484097D01*
X82621353Y-132260798D01*
X82487073Y-132059833D01*
X82316167Y-131888927D01*
X82115202Y-131754647D01*
X81891903Y-131662153D01*
X81654849Y-131615000D01*
X81413151Y-131615000D01*
X81176097Y-131662153D01*
X80952798Y-131754647D01*
X80751833Y-131888927D01*
X80580927Y-132059833D01*
X80446647Y-132260798D01*
X80354153Y-132484097D01*
X80307000Y-132721151D01*
X76919000Y-132721151D01*
X76871847Y-132484097D01*
X76779353Y-132260798D01*
X76645073Y-132059833D01*
X76474167Y-131888927D01*
X76273202Y-131754647D01*
X76049903Y-131662153D01*
X75812849Y-131615000D01*
X75571151Y-131615000D01*
X75334097Y-131662153D01*
X75110798Y-131754647D01*
X74909833Y-131888927D01*
X74738927Y-132059833D01*
X74604647Y-132260798D01*
X74512153Y-132484097D01*
X74465000Y-132721151D01*
X71077000Y-132721151D01*
X71029847Y-132484097D01*
X70937353Y-132260798D01*
X70803073Y-132059833D01*
X70632167Y-131888927D01*
X70431202Y-131754647D01*
X70207903Y-131662153D01*
X69970849Y-131615000D01*
X69729151Y-131615000D01*
X69492097Y-131662153D01*
X69268798Y-131754647D01*
X69067833Y-131888927D01*
X68896927Y-132059833D01*
X68762647Y-132260798D01*
X68670153Y-132484097D01*
X68623000Y-132721151D01*
X65235000Y-132721151D01*
X65187847Y-132484097D01*
X65095353Y-132260798D01*
X64961073Y-132059833D01*
X64790167Y-131888927D01*
X64589202Y-131754647D01*
X64365903Y-131662153D01*
X64128849Y-131615000D01*
X63887151Y-131615000D01*
X63650097Y-131662153D01*
X63426798Y-131754647D01*
X63225833Y-131888927D01*
X63054927Y-132059833D01*
X62920647Y-132260798D01*
X62828153Y-132484097D01*
X62781000Y-132721151D01*
X51377000Y-132721151D01*
X51377000Y-128661299D01*
X52184400Y-128661299D01*
X52184400Y-128843901D01*
X52220024Y-129022996D01*
X52289904Y-129191699D01*
X52391352Y-129343528D01*
X52520472Y-129472648D01*
X52672301Y-129574096D01*
X52841004Y-129643976D01*
X53020099Y-129679600D01*
X53202701Y-129679600D01*
X53381796Y-129643976D01*
X53550499Y-129574096D01*
X53702328Y-129472648D01*
X53831448Y-129343528D01*
X53932896Y-129191699D01*
X54002776Y-129022996D01*
X54038400Y-128843901D01*
X54038400Y-128661299D01*
X54002776Y-128482204D01*
X53932896Y-128313501D01*
X53831448Y-128161672D01*
X53702328Y-128032552D01*
X53550499Y-127931104D01*
X53381796Y-127861224D01*
X53202701Y-127825600D01*
X53020099Y-127825600D01*
X52841004Y-127861224D01*
X52672301Y-127931104D01*
X52520472Y-128032552D01*
X52391352Y-128161672D01*
X52289904Y-128313501D01*
X52220024Y-128482204D01*
X52184400Y-128661299D01*
X51377000Y-128661299D01*
X51377000Y-127641151D01*
X62781000Y-127641151D01*
X62781000Y-127882849D01*
X62828153Y-128119903D01*
X62920647Y-128343202D01*
X63054927Y-128544167D01*
X63225833Y-128715073D01*
X63426798Y-128849353D01*
X63650097Y-128941847D01*
X63887151Y-128989000D01*
X64128849Y-128989000D01*
X64365903Y-128941847D01*
X64589202Y-128849353D01*
X64790167Y-128715073D01*
X64961073Y-128544167D01*
X65095353Y-128343202D01*
X65187847Y-128119903D01*
X65235000Y-127882849D01*
X65235000Y-127641151D01*
X68623000Y-127641151D01*
X68623000Y-127882849D01*
X68670153Y-128119903D01*
X68762647Y-128343202D01*
X68896927Y-128544167D01*
X69067833Y-128715073D01*
X69268798Y-128849353D01*
X69492097Y-128941847D01*
X69729151Y-128989000D01*
X69970849Y-128989000D01*
X70207903Y-128941847D01*
X70431202Y-128849353D01*
X70632167Y-128715073D01*
X70803073Y-128544167D01*
X70937353Y-128343202D01*
X71029847Y-128119903D01*
X71077000Y-127882849D01*
X71077000Y-127641151D01*
X74465000Y-127641151D01*
X74465000Y-127882849D01*
X74512153Y-128119903D01*
X74604647Y-128343202D01*
X74738927Y-128544167D01*
X74909833Y-128715073D01*
X75110798Y-128849353D01*
X75334097Y-128941847D01*
X75571151Y-128989000D01*
X75812849Y-128989000D01*
X76049903Y-128941847D01*
X76273202Y-128849353D01*
X76474167Y-128715073D01*
X76645073Y-128544167D01*
X76779353Y-128343202D01*
X76871847Y-128119903D01*
X76919000Y-127882849D01*
X76919000Y-127641151D01*
X80307000Y-127641151D01*
X80307000Y-127882849D01*
X80354153Y-128119903D01*
X80446647Y-128343202D01*
X80580927Y-128544167D01*
X80751833Y-128715073D01*
X80952798Y-128849353D01*
X81176097Y-128941847D01*
X81413151Y-128989000D01*
X81654849Y-128989000D01*
X81891903Y-128941847D01*
X82115202Y-128849353D01*
X82316167Y-128715073D01*
X82487073Y-128544167D01*
X82621353Y-128343202D01*
X82713847Y-128119903D01*
X82761000Y-127882849D01*
X82761000Y-127641151D01*
X86149000Y-127641151D01*
X86149000Y-127882849D01*
X86196153Y-128119903D01*
X86288647Y-128343202D01*
X86422927Y-128544167D01*
X86593833Y-128715073D01*
X86794798Y-128849353D01*
X87018097Y-128941847D01*
X87255151Y-128989000D01*
X87496849Y-128989000D01*
X87733903Y-128941847D01*
X87957202Y-128849353D01*
X88158167Y-128715073D01*
X88329073Y-128544167D01*
X88463353Y-128343202D01*
X88555847Y-128119903D01*
X88603000Y-127882849D01*
X88603000Y-127641151D01*
X88555847Y-127404097D01*
X88463353Y-127180798D01*
X88329073Y-126979833D01*
X88158167Y-126808927D01*
X87957202Y-126674647D01*
X87733903Y-126582153D01*
X87496849Y-126535000D01*
X87255151Y-126535000D01*
X87018097Y-126582153D01*
X86794798Y-126674647D01*
X86593833Y-126808927D01*
X86422927Y-126979833D01*
X86288647Y-127180798D01*
X86196153Y-127404097D01*
X86149000Y-127641151D01*
X82761000Y-127641151D01*
X82713847Y-127404097D01*
X82621353Y-127180798D01*
X82487073Y-126979833D01*
X82316167Y-126808927D01*
X82115202Y-126674647D01*
X81891903Y-126582153D01*
X81654849Y-126535000D01*
X81413151Y-126535000D01*
X81176097Y-126582153D01*
X80952798Y-126674647D01*
X80751833Y-126808927D01*
X80580927Y-126979833D01*
X80446647Y-127180798D01*
X80354153Y-127404097D01*
X80307000Y-127641151D01*
X76919000Y-127641151D01*
X76871847Y-127404097D01*
X76779353Y-127180798D01*
X76645073Y-126979833D01*
X76474167Y-126808927D01*
X76273202Y-126674647D01*
X76049903Y-126582153D01*
X75812849Y-126535000D01*
X75571151Y-126535000D01*
X75334097Y-126582153D01*
X75110798Y-126674647D01*
X74909833Y-126808927D01*
X74738927Y-126979833D01*
X74604647Y-127180798D01*
X74512153Y-127404097D01*
X74465000Y-127641151D01*
X71077000Y-127641151D01*
X71029847Y-127404097D01*
X70937353Y-127180798D01*
X70803073Y-126979833D01*
X70632167Y-126808927D01*
X70431202Y-126674647D01*
X70207903Y-126582153D01*
X69970849Y-126535000D01*
X69729151Y-126535000D01*
X69492097Y-126582153D01*
X69268798Y-126674647D01*
X69067833Y-126808927D01*
X68896927Y-126979833D01*
X68762647Y-127180798D01*
X68670153Y-127404097D01*
X68623000Y-127641151D01*
X65235000Y-127641151D01*
X65187847Y-127404097D01*
X65095353Y-127180798D01*
X64961073Y-126979833D01*
X64790167Y-126808927D01*
X64589202Y-126674647D01*
X64365903Y-126582153D01*
X64128849Y-126535000D01*
X63887151Y-126535000D01*
X63650097Y-126582153D01*
X63426798Y-126674647D01*
X63225833Y-126808927D01*
X63054927Y-126979833D01*
X62920647Y-127180798D01*
X62828153Y-127404097D01*
X62781000Y-127641151D01*
X51377000Y-127641151D01*
X51377000Y-122561151D01*
X62781000Y-122561151D01*
X62781000Y-122802849D01*
X62828153Y-123039903D01*
X62920647Y-123263202D01*
X63054927Y-123464167D01*
X63225833Y-123635073D01*
X63426798Y-123769353D01*
X63650097Y-123861847D01*
X63887151Y-123909000D01*
X64128849Y-123909000D01*
X64365903Y-123861847D01*
X64589202Y-123769353D01*
X64790167Y-123635073D01*
X64961073Y-123464167D01*
X65095353Y-123263202D01*
X65187847Y-123039903D01*
X65235000Y-122802849D01*
X65235000Y-122561151D01*
X68623000Y-122561151D01*
X68623000Y-122802849D01*
X68670153Y-123039903D01*
X68762647Y-123263202D01*
X68896927Y-123464167D01*
X69067833Y-123635073D01*
X69268798Y-123769353D01*
X69492097Y-123861847D01*
X69729151Y-123909000D01*
X69970849Y-123909000D01*
X70207903Y-123861847D01*
X70431202Y-123769353D01*
X70632167Y-123635073D01*
X70803073Y-123464167D01*
X70937353Y-123263202D01*
X71029847Y-123039903D01*
X71077000Y-122802849D01*
X71077000Y-122561151D01*
X74465000Y-122561151D01*
X74465000Y-122802849D01*
X74512153Y-123039903D01*
X74604647Y-123263202D01*
X74738927Y-123464167D01*
X74909833Y-123635073D01*
X75110798Y-123769353D01*
X75334097Y-123861847D01*
X75571151Y-123909000D01*
X75812849Y-123909000D01*
X75966392Y-123878458D01*
X77875320Y-125787387D01*
X77895736Y-125812264D01*
X77995016Y-125893741D01*
X78108283Y-125954283D01*
X78152553Y-125967712D01*
X78231185Y-125991565D01*
X78359000Y-126004154D01*
X78391022Y-126001000D01*
X88248934Y-126001000D01*
X95055201Y-132807268D01*
X95055200Y-133587177D01*
X95052046Y-133619200D01*
X95064635Y-133747014D01*
X95065474Y-133749779D01*
X95101917Y-133869916D01*
X95162459Y-133983183D01*
X95243936Y-134082464D01*
X95268819Y-134102885D01*
X98000894Y-136834961D01*
X97985552Y-136847552D01*
X97919696Y-136927798D01*
X97870761Y-137019350D01*
X97840626Y-137118690D01*
X97830451Y-137222000D01*
X97830451Y-138528978D01*
X94447549Y-138528978D01*
X94447549Y-137222000D01*
X94437374Y-137118690D01*
X94407239Y-137019350D01*
X94358304Y-136927798D01*
X94292448Y-136847552D01*
X94212202Y-136781696D01*
X94120650Y-136732761D01*
X94021310Y-136702626D01*
X93918000Y-136692451D01*
X92518000Y-136692451D01*
X92414690Y-136702626D01*
X92315350Y-136732761D01*
X92223798Y-136781696D01*
X92143552Y-136847552D01*
X92077696Y-136927798D01*
X92028761Y-137019350D01*
X91998626Y-137118690D01*
X91988451Y-137222000D01*
X91988451Y-138622000D01*
X91998626Y-138725310D01*
X92028761Y-138824650D01*
X92077696Y-138916202D01*
X92129224Y-138978989D01*
X88464776Y-138978989D01*
X88516304Y-138916202D01*
X88565239Y-138824650D01*
X88595374Y-138725310D01*
X88605549Y-138622000D01*
X88605549Y-137222000D01*
X88595374Y-137118690D01*
X88565239Y-137019350D01*
X88516304Y-136927798D01*
X88450448Y-136847552D01*
X88370202Y-136781696D01*
X88278650Y-136732761D01*
X88179310Y-136702626D01*
X88076000Y-136692451D01*
X86676000Y-136692451D01*
X86572690Y-136702626D01*
X86473350Y-136732761D01*
X86381798Y-136781696D01*
X86301552Y-136847552D01*
X86235696Y-136927798D01*
X86186761Y-137019350D01*
X86156626Y-137118690D01*
X86146451Y-137222000D01*
X86146451Y-138549179D01*
X86138999Y-138548445D01*
X86106977Y-138551599D01*
X86011185Y-138561034D01*
X85913059Y-138590800D01*
X84074867Y-138590800D01*
X82967685Y-137483619D01*
X82947264Y-137458736D01*
X82847984Y-137377259D01*
X82763549Y-137332128D01*
X82763549Y-137222000D01*
X82753374Y-137118690D01*
X82723239Y-137019350D01*
X82674304Y-136927798D01*
X82608448Y-136847552D01*
X82528202Y-136781696D01*
X82436650Y-136732761D01*
X82337310Y-136702626D01*
X82234000Y-136692451D01*
X80834000Y-136692451D01*
X80730690Y-136702626D01*
X80631350Y-136732761D01*
X80539798Y-136781696D01*
X80459552Y-136847552D01*
X80393696Y-136927798D01*
X80344761Y-137019350D01*
X80314626Y-137118690D01*
X80304451Y-137222000D01*
X80304451Y-138622000D01*
X80314626Y-138725310D01*
X80344761Y-138824650D01*
X80393696Y-138916202D01*
X80459552Y-138996448D01*
X80539798Y-139062304D01*
X80631350Y-139111239D01*
X80730690Y-139141374D01*
X80834000Y-139151549D01*
X82234000Y-139151549D01*
X82337310Y-139141374D01*
X82436650Y-139111239D01*
X82528202Y-139062304D01*
X82608448Y-138996448D01*
X82621039Y-138981106D01*
X83321120Y-139681187D01*
X83341536Y-139706064D01*
X83440816Y-139787541D01*
X83531724Y-139836132D01*
X83554083Y-139848083D01*
X83676985Y-139885365D01*
X83804799Y-139897954D01*
X83836821Y-139894800D01*
X86067776Y-139894800D01*
X86099798Y-139897954D01*
X86131820Y-139894800D01*
X86227612Y-139885365D01*
X86325738Y-139855599D01*
X86564935Y-139855599D01*
X86568680Y-139859344D01*
X86569436Y-139867015D01*
X86606718Y-139989918D01*
X86667260Y-140103185D01*
X86748738Y-140202465D01*
X86773615Y-140222881D01*
X87058340Y-140507606D01*
X87053099Y-140504104D01*
X86884396Y-140434224D01*
X86705301Y-140398600D01*
X86522699Y-140398600D01*
X86343604Y-140434224D01*
X86174901Y-140504104D01*
X86023072Y-140605552D01*
X85893952Y-140734672D01*
X85792504Y-140886501D01*
X85722624Y-141055204D01*
X85687000Y-141234299D01*
X85687000Y-141416901D01*
X85722624Y-141595996D01*
X85792504Y-141764699D01*
X85893952Y-141916528D01*
X86023072Y-142045648D01*
X86174901Y-142147096D01*
X86343604Y-142216976D01*
X86510427Y-142250159D01*
X87487201Y-143226934D01*
X87487200Y-148736186D01*
X87483683Y-148771894D01*
X87491468Y-148850935D01*
X87467277Y-148875126D01*
X87354885Y-149043333D01*
X87277467Y-149230235D01*
X87238000Y-149428649D01*
X87238000Y-149630951D01*
X87277467Y-149829365D01*
X87354885Y-150016267D01*
X87467277Y-150184474D01*
X87610326Y-150327523D01*
X87778533Y-150439915D01*
X87965435Y-150517333D01*
X88163849Y-150556800D01*
X88366151Y-150556800D01*
X88564565Y-150517333D01*
X88751467Y-150439915D01*
X88919674Y-150327523D01*
X89062723Y-150184474D01*
X89175115Y-150016267D01*
X89252533Y-149829365D01*
X89292000Y-149630951D01*
X89292000Y-149428649D01*
X89252533Y-149230235D01*
X89175115Y-149043333D01*
X89062723Y-148875126D01*
X88993903Y-148806306D01*
X88981480Y-148680177D01*
X88941935Y-148549812D01*
X88941200Y-148547390D01*
X88941200Y-144155299D01*
X101054000Y-144155299D01*
X101054000Y-144337901D01*
X101089624Y-144516996D01*
X101159504Y-144685699D01*
X101260952Y-144837528D01*
X101390072Y-144966648D01*
X101541901Y-145068096D01*
X101710604Y-145137976D01*
X101889699Y-145173600D01*
X102072301Y-145173600D01*
X102251396Y-145137976D01*
X102420099Y-145068096D01*
X102571928Y-144966648D01*
X102701048Y-144837528D01*
X102802496Y-144685699D01*
X102872376Y-144516996D01*
X102908000Y-144337901D01*
X102908000Y-144155299D01*
X102872376Y-143976204D01*
X102802496Y-143807501D01*
X102701048Y-143655672D01*
X102571928Y-143526552D01*
X102420099Y-143425104D01*
X102251396Y-143355224D01*
X102072301Y-143319600D01*
X101889699Y-143319600D01*
X101710604Y-143355224D01*
X101541901Y-143425104D01*
X101390072Y-143526552D01*
X101260952Y-143655672D01*
X101159504Y-143807501D01*
X101089624Y-143976204D01*
X101054000Y-144155299D01*
X88941200Y-144155299D01*
X88941200Y-142961508D01*
X88944717Y-142925800D01*
X88930680Y-142783282D01*
X88889110Y-142646243D01*
X88866021Y-142603047D01*
X88821603Y-142519947D01*
X88730754Y-142409246D01*
X88703012Y-142386479D01*
X87538559Y-141222027D01*
X87505376Y-141055204D01*
X87435496Y-140886501D01*
X87334048Y-140734672D01*
X87265652Y-140666276D01*
X87303083Y-140686283D01*
X87425985Y-140723565D01*
X87553800Y-140736154D01*
X87585822Y-140733000D01*
X105647934Y-140733000D01*
X107653600Y-142738667D01*
X107653601Y-143486023D01*
X107585552Y-143554072D01*
X107484104Y-143705901D01*
X107414224Y-143874604D01*
X107378600Y-144053699D01*
X107378600Y-144236301D01*
X107414224Y-144415396D01*
X107484104Y-144584099D01*
X107585552Y-144735928D01*
X107714672Y-144865048D01*
X107866501Y-144966496D01*
X108035204Y-145036376D01*
X108214299Y-145072000D01*
X108396901Y-145072000D01*
X108575996Y-145036376D01*
X108744699Y-144966496D01*
X108896528Y-144865048D01*
X109025648Y-144735928D01*
X109127096Y-144584099D01*
X109196976Y-144415396D01*
X109232600Y-144236301D01*
X109232600Y-144053699D01*
X109196976Y-143874604D01*
X109127096Y-143705901D01*
X109025648Y-143554072D01*
X108957600Y-143486024D01*
X108957600Y-142506600D01*
X109082701Y-142506600D01*
X109261796Y-142470976D01*
X109430499Y-142401096D01*
X109582328Y-142299648D01*
X109711448Y-142170528D01*
X109812896Y-142018699D01*
X109882776Y-141849996D01*
X109918400Y-141670901D01*
X109918400Y-141488299D01*
X109882776Y-141309204D01*
X109812896Y-141140501D01*
X109711448Y-140988672D01*
X109582328Y-140859552D01*
X109430499Y-140758104D01*
X109261796Y-140688224D01*
X109082701Y-140652600D01*
X108986467Y-140652600D01*
X108166844Y-139832978D01*
X108648600Y-139832978D01*
X108648600Y-139842101D01*
X108684224Y-140021196D01*
X108754104Y-140189899D01*
X108855552Y-140341728D01*
X108984672Y-140470848D01*
X109136501Y-140572296D01*
X109305204Y-140642176D01*
X109484299Y-140677800D01*
X109666901Y-140677800D01*
X109845996Y-140642176D01*
X110014699Y-140572296D01*
X110166528Y-140470848D01*
X110295648Y-140341728D01*
X110397096Y-140189899D01*
X110466976Y-140021196D01*
X110502600Y-139842101D01*
X110502600Y-139659499D01*
X110466976Y-139480404D01*
X110397096Y-139311701D01*
X110295648Y-139159872D01*
X110166528Y-139030752D01*
X110014699Y-138929304D01*
X109845996Y-138859424D01*
X109666901Y-138823800D01*
X109570666Y-138823800D01*
X109489462Y-138742596D01*
X109469042Y-138717714D01*
X109369762Y-138636237D01*
X109256495Y-138575695D01*
X109133592Y-138538413D01*
X109037800Y-138528978D01*
X109005778Y-138525824D01*
X108973756Y-138528978D01*
X100289549Y-138528978D01*
X100289549Y-137222000D01*
X121452451Y-137222000D01*
X121452451Y-138622000D01*
X121462626Y-138725310D01*
X121492761Y-138824650D01*
X121541696Y-138916202D01*
X121607552Y-138996448D01*
X121687798Y-139062304D01*
X121779350Y-139111239D01*
X121878690Y-139141374D01*
X121982000Y-139151549D01*
X123382000Y-139151549D01*
X123485310Y-139141374D01*
X123584650Y-139111239D01*
X123676202Y-139062304D01*
X123756448Y-138996448D01*
X123822304Y-138916202D01*
X123871239Y-138824650D01*
X123901374Y-138725310D01*
X123911549Y-138622000D01*
X123911549Y-137222000D01*
X127294451Y-137222000D01*
X127294451Y-138622000D01*
X127304626Y-138725310D01*
X127334761Y-138824650D01*
X127383696Y-138916202D01*
X127449552Y-138996448D01*
X127529798Y-139062304D01*
X127621350Y-139111239D01*
X127720690Y-139141374D01*
X127824000Y-139151549D01*
X129224000Y-139151549D01*
X129327310Y-139141374D01*
X129426650Y-139111239D01*
X129518202Y-139062304D01*
X129598448Y-138996448D01*
X129664304Y-138916202D01*
X129713239Y-138824650D01*
X129743374Y-138725310D01*
X129753549Y-138622000D01*
X129753549Y-137222000D01*
X133136451Y-137222000D01*
X133136451Y-138622000D01*
X133146626Y-138725310D01*
X133176761Y-138824650D01*
X133225696Y-138916202D01*
X133291552Y-138996448D01*
X133371798Y-139062304D01*
X133463350Y-139111239D01*
X133562690Y-139141374D01*
X133666000Y-139151549D01*
X135066000Y-139151549D01*
X135169310Y-139141374D01*
X135268650Y-139111239D01*
X135360202Y-139062304D01*
X135440448Y-138996448D01*
X135506304Y-138916202D01*
X135555239Y-138824650D01*
X135585374Y-138725310D01*
X135595549Y-138622000D01*
X135595549Y-137222000D01*
X135585374Y-137118690D01*
X135555239Y-137019350D01*
X135506304Y-136927798D01*
X135440448Y-136847552D01*
X135360202Y-136781696D01*
X135268650Y-136732761D01*
X135169310Y-136702626D01*
X135066000Y-136692451D01*
X133666000Y-136692451D01*
X133562690Y-136702626D01*
X133463350Y-136732761D01*
X133371798Y-136781696D01*
X133291552Y-136847552D01*
X133225696Y-136927798D01*
X133176761Y-137019350D01*
X133146626Y-137118690D01*
X133136451Y-137222000D01*
X129753549Y-137222000D01*
X129743374Y-137118690D01*
X129713239Y-137019350D01*
X129664304Y-136927798D01*
X129598448Y-136847552D01*
X129518202Y-136781696D01*
X129426650Y-136732761D01*
X129327310Y-136702626D01*
X129224000Y-136692451D01*
X127824000Y-136692451D01*
X127720690Y-136702626D01*
X127621350Y-136732761D01*
X127529798Y-136781696D01*
X127449552Y-136847552D01*
X127383696Y-136927798D01*
X127334761Y-137019350D01*
X127304626Y-137118690D01*
X127294451Y-137222000D01*
X123911549Y-137222000D01*
X123901374Y-137118690D01*
X123871239Y-137019350D01*
X123822304Y-136927798D01*
X123756448Y-136847552D01*
X123676202Y-136781696D01*
X123584650Y-136732761D01*
X123485310Y-136702626D01*
X123382000Y-136692451D01*
X121982000Y-136692451D01*
X121878690Y-136702626D01*
X121779350Y-136732761D01*
X121687798Y-136781696D01*
X121607552Y-136847552D01*
X121541696Y-136927798D01*
X121492761Y-137019350D01*
X121462626Y-137118690D01*
X121452451Y-137222000D01*
X100289549Y-137222000D01*
X100279374Y-137118690D01*
X100249239Y-137019350D01*
X100200304Y-136927798D01*
X100134448Y-136847552D01*
X100054202Y-136781696D01*
X99962650Y-136732761D01*
X99863310Y-136702626D01*
X99760000Y-136692451D01*
X99649872Y-136692451D01*
X99641827Y-136677399D01*
X99604741Y-136608016D01*
X99523264Y-136508736D01*
X99498387Y-136488320D01*
X96359200Y-133349134D01*
X96359200Y-132721151D01*
X97833000Y-132721151D01*
X97833000Y-132962849D01*
X97880153Y-133199903D01*
X97972647Y-133423202D01*
X98106927Y-133624167D01*
X98277833Y-133795073D01*
X98478798Y-133929353D01*
X98702097Y-134021847D01*
X98939151Y-134069000D01*
X99180849Y-134069000D01*
X99417903Y-134021847D01*
X99641202Y-133929353D01*
X99842167Y-133795073D01*
X100013073Y-133624167D01*
X100147353Y-133423202D01*
X100239847Y-133199903D01*
X100287000Y-132962849D01*
X100287000Y-132721151D01*
X121455000Y-132721151D01*
X121455000Y-132962849D01*
X121502153Y-133199903D01*
X121594647Y-133423202D01*
X121728927Y-133624167D01*
X121899833Y-133795073D01*
X122100798Y-133929353D01*
X122324097Y-134021847D01*
X122561151Y-134069000D01*
X122802849Y-134069000D01*
X123039903Y-134021847D01*
X123263202Y-133929353D01*
X123464167Y-133795073D01*
X123635073Y-133624167D01*
X123769353Y-133423202D01*
X123861847Y-133199903D01*
X123909000Y-132962849D01*
X123909000Y-132721151D01*
X127297000Y-132721151D01*
X127297000Y-132962849D01*
X127344153Y-133199903D01*
X127436647Y-133423202D01*
X127570927Y-133624167D01*
X127741833Y-133795073D01*
X127942798Y-133929353D01*
X128166097Y-134021847D01*
X128403151Y-134069000D01*
X128644849Y-134069000D01*
X128881903Y-134021847D01*
X129105202Y-133929353D01*
X129306167Y-133795073D01*
X129477073Y-133624167D01*
X129611353Y-133423202D01*
X129703847Y-133199903D01*
X129751000Y-132962849D01*
X129751000Y-132721151D01*
X133139000Y-132721151D01*
X133139000Y-132962849D01*
X133186153Y-133199903D01*
X133278647Y-133423202D01*
X133412927Y-133624167D01*
X133583833Y-133795073D01*
X133784798Y-133929353D01*
X134008097Y-134021847D01*
X134245151Y-134069000D01*
X134486849Y-134069000D01*
X134723903Y-134021847D01*
X134947202Y-133929353D01*
X135148167Y-133795073D01*
X135319073Y-133624167D01*
X135453353Y-133423202D01*
X135545847Y-133199903D01*
X135593000Y-132962849D01*
X135593000Y-132721151D01*
X135545847Y-132484097D01*
X135453353Y-132260798D01*
X135319073Y-132059833D01*
X135148167Y-131888927D01*
X134947202Y-131754647D01*
X134723903Y-131662153D01*
X134486849Y-131615000D01*
X134245151Y-131615000D01*
X134008097Y-131662153D01*
X133784798Y-131754647D01*
X133583833Y-131888927D01*
X133412927Y-132059833D01*
X133278647Y-132260798D01*
X133186153Y-132484097D01*
X133139000Y-132721151D01*
X129751000Y-132721151D01*
X129703847Y-132484097D01*
X129611353Y-132260798D01*
X129477073Y-132059833D01*
X129306167Y-131888927D01*
X129105202Y-131754647D01*
X128881903Y-131662153D01*
X128644849Y-131615000D01*
X128403151Y-131615000D01*
X128166097Y-131662153D01*
X127942798Y-131754647D01*
X127741833Y-131888927D01*
X127570927Y-132059833D01*
X127436647Y-132260798D01*
X127344153Y-132484097D01*
X127297000Y-132721151D01*
X123909000Y-132721151D01*
X123861847Y-132484097D01*
X123769353Y-132260798D01*
X123635073Y-132059833D01*
X123464167Y-131888927D01*
X123263202Y-131754647D01*
X123039903Y-131662153D01*
X122802849Y-131615000D01*
X122561151Y-131615000D01*
X122324097Y-131662153D01*
X122100798Y-131754647D01*
X121899833Y-131888927D01*
X121728927Y-132059833D01*
X121594647Y-132260798D01*
X121502153Y-132484097D01*
X121455000Y-132721151D01*
X100287000Y-132721151D01*
X100239847Y-132484097D01*
X100147353Y-132260798D01*
X100013073Y-132059833D01*
X99842167Y-131888927D01*
X99641202Y-131754647D01*
X99417903Y-131662153D01*
X99180849Y-131615000D01*
X98939151Y-131615000D01*
X98702097Y-131662153D01*
X98478798Y-131754647D01*
X98277833Y-131888927D01*
X98106927Y-132059833D01*
X97972647Y-132260798D01*
X97880153Y-132484097D01*
X97833000Y-132721151D01*
X96359200Y-132721151D01*
X96359200Y-132569222D01*
X96362354Y-132537200D01*
X96349765Y-132409385D01*
X96329192Y-132341565D01*
X96312483Y-132286483D01*
X96251941Y-132173216D01*
X96170464Y-132073936D01*
X96145587Y-132053520D01*
X93077073Y-128985006D01*
X93097151Y-128989000D01*
X93338849Y-128989000D01*
X93575903Y-128941847D01*
X93799202Y-128849353D01*
X94000167Y-128715073D01*
X94171073Y-128544167D01*
X94305353Y-128343202D01*
X94397847Y-128119903D01*
X94445000Y-127882849D01*
X94445000Y-127641151D01*
X94397847Y-127404097D01*
X94305353Y-127180798D01*
X94171073Y-126979833D01*
X94000167Y-126808927D01*
X93799202Y-126674647D01*
X93575903Y-126582153D01*
X93338849Y-126535000D01*
X93097151Y-126535000D01*
X92860097Y-126582153D01*
X92636798Y-126674647D01*
X92435833Y-126808927D01*
X92264927Y-126979833D01*
X92130647Y-127180798D01*
X92038153Y-127404097D01*
X91991000Y-127641151D01*
X91991000Y-127882849D01*
X91994994Y-127902927D01*
X89002685Y-124910619D01*
X88982264Y-124885736D01*
X88882984Y-124804259D01*
X88769717Y-124743717D01*
X88646814Y-124706435D01*
X88551022Y-124697000D01*
X88519000Y-124693846D01*
X88486978Y-124697000D01*
X78629067Y-124697000D01*
X76888458Y-122956392D01*
X76919000Y-122802849D01*
X76919000Y-122634001D01*
X78823777Y-122634001D01*
X78855799Y-122637155D01*
X78887821Y-122634001D01*
X78983613Y-122624566D01*
X79106516Y-122587284D01*
X79219783Y-122526742D01*
X79319063Y-122445265D01*
X79339484Y-122420382D01*
X80178467Y-121581400D01*
X80984779Y-121581400D01*
X80952798Y-121594647D01*
X80751833Y-121728927D01*
X80580927Y-121899833D01*
X80446647Y-122100798D01*
X80354153Y-122324097D01*
X80307000Y-122561151D01*
X80307000Y-122802849D01*
X80354153Y-123039903D01*
X80446647Y-123263202D01*
X80580927Y-123464167D01*
X80751833Y-123635073D01*
X80952798Y-123769353D01*
X81176097Y-123861847D01*
X81413151Y-123909000D01*
X81654849Y-123909000D01*
X81891903Y-123861847D01*
X82115202Y-123769353D01*
X82316167Y-123635073D01*
X82487073Y-123464167D01*
X82621353Y-123263202D01*
X82713847Y-123039903D01*
X82761000Y-122802849D01*
X82761000Y-122561151D01*
X82713847Y-122324097D01*
X82621353Y-122100798D01*
X82487073Y-121899833D01*
X82316167Y-121728927D01*
X82115202Y-121594647D01*
X82083221Y-121581400D01*
X86826779Y-121581400D01*
X86794798Y-121594647D01*
X86593833Y-121728927D01*
X86422927Y-121899833D01*
X86288647Y-122100798D01*
X86196153Y-122324097D01*
X86149000Y-122561151D01*
X86149000Y-122802849D01*
X86196153Y-123039903D01*
X86288647Y-123263202D01*
X86422927Y-123464167D01*
X86593833Y-123635073D01*
X86794798Y-123769353D01*
X87018097Y-123861847D01*
X87255151Y-123909000D01*
X87496849Y-123909000D01*
X87733903Y-123861847D01*
X87957202Y-123769353D01*
X88158167Y-123635073D01*
X88329073Y-123464167D01*
X88463353Y-123263202D01*
X88555847Y-123039903D01*
X88603000Y-122802849D01*
X88603000Y-122561151D01*
X88555847Y-122324097D01*
X88463353Y-122100798D01*
X88329073Y-121899833D01*
X88158167Y-121728927D01*
X87957202Y-121594647D01*
X87925221Y-121581400D01*
X92668779Y-121581400D01*
X92636798Y-121594647D01*
X92435833Y-121728927D01*
X92264927Y-121899833D01*
X92130647Y-122100798D01*
X92038153Y-122324097D01*
X91991000Y-122561151D01*
X91991000Y-122802849D01*
X92038153Y-123039903D01*
X92130647Y-123263202D01*
X92264927Y-123464167D01*
X92435833Y-123635073D01*
X92636798Y-123769353D01*
X92860097Y-123861847D01*
X93097151Y-123909000D01*
X93338849Y-123909000D01*
X93492392Y-123878458D01*
X95156801Y-125542868D01*
X95156800Y-128339578D01*
X95153646Y-128371600D01*
X95156800Y-128403621D01*
X95166235Y-128499413D01*
X95203517Y-128622316D01*
X95264059Y-128735583D01*
X95345536Y-128834864D01*
X95370419Y-128855285D01*
X97179320Y-130664187D01*
X97199736Y-130689064D01*
X97299016Y-130770541D01*
X97412283Y-130831083D01*
X97473735Y-130849724D01*
X97535185Y-130868365D01*
X97663000Y-130880954D01*
X97695022Y-130877800D01*
X135569134Y-130877800D01*
X136660401Y-131969068D01*
X136660400Y-134044378D01*
X136657246Y-134076400D01*
X136660400Y-134108421D01*
X136669835Y-134204213D01*
X136707117Y-134327116D01*
X136767659Y-134440383D01*
X136849136Y-134539664D01*
X136874019Y-134560085D01*
X139148894Y-136834961D01*
X139133552Y-136847552D01*
X139067696Y-136927798D01*
X139018761Y-137019350D01*
X138988626Y-137118690D01*
X138978451Y-137222000D01*
X138978451Y-138622000D01*
X138988626Y-138725310D01*
X139018761Y-138824650D01*
X139067696Y-138916202D01*
X139133552Y-138996448D01*
X139213798Y-139062304D01*
X139305350Y-139111239D01*
X139404690Y-139141374D01*
X139508000Y-139151549D01*
X140908000Y-139151549D01*
X141011310Y-139141374D01*
X141110650Y-139111239D01*
X141202202Y-139062304D01*
X141282448Y-138996448D01*
X141348304Y-138916202D01*
X141397239Y-138824650D01*
X141427374Y-138725310D01*
X141437549Y-138622000D01*
X141437549Y-138574000D01*
X144820451Y-138574000D01*
X144820451Y-138622000D01*
X144830626Y-138725310D01*
X144860761Y-138824650D01*
X144909696Y-138916202D01*
X144975552Y-138996448D01*
X145055798Y-139062304D01*
X145147350Y-139111239D01*
X145246690Y-139141374D01*
X145350000Y-139151549D01*
X146510118Y-139151549D01*
X145184427Y-140477241D01*
X145017604Y-140510424D01*
X144848901Y-140580304D01*
X144697072Y-140681752D01*
X144567952Y-140810872D01*
X144466504Y-140962701D01*
X144396624Y-141131404D01*
X144361000Y-141310499D01*
X144361000Y-141493101D01*
X144396624Y-141672196D01*
X144466504Y-141840899D01*
X144567952Y-141992728D01*
X144697072Y-142121848D01*
X144848901Y-142223296D01*
X145017604Y-142293176D01*
X145196699Y-142328800D01*
X145379301Y-142328800D01*
X145558396Y-142293176D01*
X145727099Y-142223296D01*
X145878928Y-142121848D01*
X146008048Y-141992728D01*
X146109496Y-141840899D01*
X146179376Y-141672196D01*
X146212559Y-141505373D01*
X148291412Y-139426521D01*
X148319154Y-139403754D01*
X148410003Y-139293053D01*
X148477510Y-139166757D01*
X148519080Y-139029717D01*
X148529600Y-138922908D01*
X148529600Y-138922906D01*
X148533117Y-138887201D01*
X148529600Y-138851495D01*
X148529600Y-138605866D01*
X154592800Y-144669067D01*
X154592801Y-149404223D01*
X154524752Y-149472272D01*
X154423304Y-149624101D01*
X154353424Y-149792804D01*
X154317800Y-149971899D01*
X154317800Y-150154501D01*
X154353424Y-150333596D01*
X154423304Y-150502299D01*
X154524752Y-150654128D01*
X154653872Y-150783248D01*
X154805701Y-150884696D01*
X154974404Y-150954576D01*
X155153499Y-150990200D01*
X155336101Y-150990200D01*
X155515196Y-150954576D01*
X155683899Y-150884696D01*
X155835728Y-150783248D01*
X155964848Y-150654128D01*
X156066296Y-150502299D01*
X156136176Y-150333596D01*
X156171800Y-150154501D01*
X156171800Y-149971899D01*
X156136176Y-149792804D01*
X156066296Y-149624101D01*
X155964848Y-149472272D01*
X155896800Y-149404224D01*
X155896800Y-144431021D01*
X155899954Y-144398999D01*
X155887365Y-144271185D01*
X155850083Y-144148283D01*
X155847012Y-144142537D01*
X155813104Y-144079099D01*
X159626400Y-144079099D01*
X159626400Y-144261701D01*
X159662024Y-144440796D01*
X159731904Y-144609499D01*
X159833352Y-144761328D01*
X159962472Y-144890448D01*
X160114301Y-144991896D01*
X160283004Y-145061776D01*
X160462099Y-145097400D01*
X160644701Y-145097400D01*
X160823796Y-145061776D01*
X160992499Y-144991896D01*
X161144328Y-144890448D01*
X161273448Y-144761328D01*
X161374896Y-144609499D01*
X161444776Y-144440796D01*
X161480400Y-144261701D01*
X161480400Y-144079099D01*
X161444776Y-143900004D01*
X161374896Y-143731301D01*
X161273448Y-143579472D01*
X161144328Y-143450352D01*
X160992499Y-143348904D01*
X160823796Y-143279024D01*
X160644701Y-143243400D01*
X160462099Y-143243400D01*
X160283004Y-143279024D01*
X160114301Y-143348904D01*
X159962472Y-143450352D01*
X159833352Y-143579472D01*
X159731904Y-143731301D01*
X159662024Y-143900004D01*
X159626400Y-144079099D01*
X155813104Y-144079099D01*
X155789541Y-144035016D01*
X155708064Y-143935736D01*
X155683188Y-143915321D01*
X149572200Y-137804334D01*
X149572200Y-137378994D01*
X149584917Y-137420916D01*
X149605133Y-137458737D01*
X149645460Y-137534184D01*
X149726937Y-137633464D01*
X149751814Y-137653880D01*
X150458320Y-138360387D01*
X150478736Y-138385264D01*
X150578016Y-138466741D01*
X150662451Y-138511872D01*
X150662451Y-138622000D01*
X150672626Y-138725310D01*
X150702761Y-138824650D01*
X150751696Y-138916202D01*
X150817552Y-138996448D01*
X150897798Y-139062304D01*
X150989350Y-139111239D01*
X151088690Y-139141374D01*
X151192000Y-139151549D01*
X152592000Y-139151549D01*
X152695310Y-139141374D01*
X152794650Y-139111239D01*
X152886202Y-139062304D01*
X152966448Y-138996448D01*
X153032304Y-138916202D01*
X153081239Y-138824650D01*
X153111374Y-138725310D01*
X153121549Y-138622000D01*
X153121549Y-137222000D01*
X156504451Y-137222000D01*
X156504451Y-138622000D01*
X156514626Y-138725310D01*
X156544761Y-138824650D01*
X156593696Y-138916202D01*
X156659552Y-138996448D01*
X156739798Y-139062304D01*
X156831350Y-139111239D01*
X156930690Y-139141374D01*
X157034000Y-139151549D01*
X158434000Y-139151549D01*
X158537310Y-139141374D01*
X158636650Y-139111239D01*
X158728202Y-139062304D01*
X158808448Y-138996448D01*
X158874304Y-138916202D01*
X158923239Y-138824650D01*
X158953374Y-138725310D01*
X158963549Y-138622000D01*
X158963549Y-137222000D01*
X158953374Y-137118690D01*
X158923239Y-137019350D01*
X158874304Y-136927798D01*
X158808448Y-136847552D01*
X158728202Y-136781696D01*
X158636650Y-136732761D01*
X158537310Y-136702626D01*
X158434000Y-136692451D01*
X157034000Y-136692451D01*
X156930690Y-136702626D01*
X156831350Y-136732761D01*
X156739798Y-136781696D01*
X156659552Y-136847552D01*
X156593696Y-136927798D01*
X156544761Y-137019350D01*
X156514626Y-137118690D01*
X156504451Y-137222000D01*
X153121549Y-137222000D01*
X153111374Y-137118690D01*
X153081239Y-137019350D01*
X153032304Y-136927798D01*
X152966448Y-136847552D01*
X152886202Y-136781696D01*
X152794650Y-136732761D01*
X152695310Y-136702626D01*
X152592000Y-136692451D01*
X151192000Y-136692451D01*
X151088690Y-136702626D01*
X150989350Y-136732761D01*
X150897798Y-136781696D01*
X150842200Y-136827324D01*
X150842200Y-133479404D01*
X150938927Y-133624167D01*
X151109833Y-133795073D01*
X151310798Y-133929353D01*
X151534097Y-134021847D01*
X151771151Y-134069000D01*
X152012849Y-134069000D01*
X152249903Y-134021847D01*
X152473202Y-133929353D01*
X152674167Y-133795073D01*
X152845073Y-133624167D01*
X152979353Y-133423202D01*
X153071847Y-133199903D01*
X153119000Y-132962849D01*
X153119000Y-132721151D01*
X156507000Y-132721151D01*
X156507000Y-132962849D01*
X156554153Y-133199903D01*
X156646647Y-133423202D01*
X156780927Y-133624167D01*
X156951833Y-133795073D01*
X157152798Y-133929353D01*
X157376097Y-134021847D01*
X157613151Y-134069000D01*
X157854849Y-134069000D01*
X158091903Y-134021847D01*
X158315202Y-133929353D01*
X158516167Y-133795073D01*
X158687073Y-133624167D01*
X158821353Y-133423202D01*
X158913847Y-133199903D01*
X158961000Y-132962849D01*
X158961000Y-132721151D01*
X158913847Y-132484097D01*
X158821353Y-132260798D01*
X158687073Y-132059833D01*
X158516167Y-131888927D01*
X158315202Y-131754647D01*
X158091903Y-131662153D01*
X157854849Y-131615000D01*
X157613151Y-131615000D01*
X157376097Y-131662153D01*
X157152798Y-131754647D01*
X156951833Y-131888927D01*
X156780927Y-132059833D01*
X156646647Y-132260798D01*
X156554153Y-132484097D01*
X156507000Y-132721151D01*
X153119000Y-132721151D01*
X153071847Y-132484097D01*
X152979353Y-132260798D01*
X152845073Y-132059833D01*
X152674167Y-131888927D01*
X152473202Y-131754647D01*
X152249903Y-131662153D01*
X152012849Y-131615000D01*
X151771151Y-131615000D01*
X151534097Y-131662153D01*
X151310798Y-131754647D01*
X151109833Y-131888927D01*
X150938927Y-132059833D01*
X150842200Y-132204596D01*
X150842200Y-129692357D01*
X150845218Y-129653632D01*
X150838404Y-129596442D01*
X150832765Y-129539186D01*
X150830818Y-129532769D01*
X150830024Y-129526101D01*
X150812185Y-129471341D01*
X150795483Y-129416283D01*
X150792321Y-129410367D01*
X150790242Y-129403986D01*
X150762085Y-129353799D01*
X150734941Y-129303016D01*
X150730681Y-129297826D01*
X150727400Y-129291977D01*
X150689989Y-129248242D01*
X150653464Y-129203736D01*
X150623443Y-129179099D01*
X149550751Y-128149316D01*
X149515741Y-128083816D01*
X149434264Y-127984536D01*
X149334984Y-127903059D01*
X149256340Y-127861023D01*
X149037944Y-127641151D01*
X150665000Y-127641151D01*
X150665000Y-127882849D01*
X150712153Y-128119903D01*
X150804647Y-128343202D01*
X150938927Y-128544167D01*
X151109833Y-128715073D01*
X151310798Y-128849353D01*
X151534097Y-128941847D01*
X151771151Y-128989000D01*
X152012849Y-128989000D01*
X152249903Y-128941847D01*
X152473202Y-128849353D01*
X152674167Y-128715073D01*
X152845073Y-128544167D01*
X152979353Y-128343202D01*
X153071847Y-128119903D01*
X153119000Y-127882849D01*
X153119000Y-127641151D01*
X156507000Y-127641151D01*
X156507000Y-127882849D01*
X156554153Y-128119903D01*
X156646647Y-128343202D01*
X156780927Y-128544167D01*
X156951833Y-128715073D01*
X157152798Y-128849353D01*
X157376097Y-128941847D01*
X157613151Y-128989000D01*
X157854849Y-128989000D01*
X158091903Y-128941847D01*
X158315202Y-128849353D01*
X158516167Y-128715073D01*
X158687073Y-128544167D01*
X158821353Y-128343202D01*
X158913847Y-128119903D01*
X158961000Y-127882849D01*
X158961000Y-127641151D01*
X158913847Y-127404097D01*
X158821353Y-127180798D01*
X158687073Y-126979833D01*
X158516167Y-126808927D01*
X158315202Y-126674647D01*
X158091903Y-126582153D01*
X157854849Y-126535000D01*
X157613151Y-126535000D01*
X157376097Y-126582153D01*
X157152798Y-126674647D01*
X156951833Y-126808927D01*
X156780927Y-126979833D01*
X156646647Y-127180798D01*
X156554153Y-127404097D01*
X156507000Y-127641151D01*
X153119000Y-127641151D01*
X153071847Y-127404097D01*
X152979353Y-127180798D01*
X152845073Y-126979833D01*
X152674167Y-126808927D01*
X152473202Y-126674647D01*
X152249903Y-126582153D01*
X152012849Y-126535000D01*
X151771151Y-126535000D01*
X151534097Y-126582153D01*
X151310798Y-126674647D01*
X151109833Y-126808927D01*
X150938927Y-126979833D01*
X150804647Y-127180798D01*
X150712153Y-127404097D01*
X150665000Y-127641151D01*
X149037944Y-127641151D01*
X143992036Y-122561151D01*
X144823000Y-122561151D01*
X144823000Y-122802849D01*
X144870153Y-123039903D01*
X144962647Y-123263202D01*
X145096927Y-123464167D01*
X145267833Y-123635073D01*
X145468798Y-123769353D01*
X145692097Y-123861847D01*
X145929151Y-123909000D01*
X146170849Y-123909000D01*
X146407903Y-123861847D01*
X146631202Y-123769353D01*
X146832167Y-123635073D01*
X147003073Y-123464167D01*
X147137353Y-123263202D01*
X147229847Y-123039903D01*
X147277000Y-122802849D01*
X147277000Y-122561151D01*
X150665000Y-122561151D01*
X150665000Y-122802849D01*
X150712153Y-123039903D01*
X150804647Y-123263202D01*
X150938927Y-123464167D01*
X151109833Y-123635073D01*
X151310798Y-123769353D01*
X151534097Y-123861847D01*
X151771151Y-123909000D01*
X152012849Y-123909000D01*
X152249903Y-123861847D01*
X152473202Y-123769353D01*
X152674167Y-123635073D01*
X152845073Y-123464167D01*
X152979353Y-123263202D01*
X153071847Y-123039903D01*
X153119000Y-122802849D01*
X153119000Y-122561151D01*
X156507000Y-122561151D01*
X156507000Y-122802849D01*
X156554153Y-123039903D01*
X156646647Y-123263202D01*
X156780927Y-123464167D01*
X156951833Y-123635073D01*
X157152798Y-123769353D01*
X157376097Y-123861847D01*
X157613151Y-123909000D01*
X157854849Y-123909000D01*
X158091903Y-123861847D01*
X158315202Y-123769353D01*
X158516167Y-123635073D01*
X158687073Y-123464167D01*
X158821353Y-123263202D01*
X158913847Y-123039903D01*
X158961000Y-122802849D01*
X158961000Y-122561151D01*
X158913847Y-122324097D01*
X158821353Y-122100798D01*
X158687073Y-121899833D01*
X158516167Y-121728927D01*
X158315202Y-121594647D01*
X158091903Y-121502153D01*
X157854849Y-121455000D01*
X157613151Y-121455000D01*
X157376097Y-121502153D01*
X157152798Y-121594647D01*
X156951833Y-121728927D01*
X156780927Y-121899833D01*
X156646647Y-122100798D01*
X156554153Y-122324097D01*
X156507000Y-122561151D01*
X153119000Y-122561151D01*
X153071847Y-122324097D01*
X152979353Y-122100798D01*
X152845073Y-121899833D01*
X152674167Y-121728927D01*
X152473202Y-121594647D01*
X152249903Y-121502153D01*
X152012849Y-121455000D01*
X151771151Y-121455000D01*
X151534097Y-121502153D01*
X151310798Y-121594647D01*
X151109833Y-121728927D01*
X150938927Y-121899833D01*
X150804647Y-122100798D01*
X150712153Y-122324097D01*
X150665000Y-122561151D01*
X147277000Y-122561151D01*
X147229847Y-122324097D01*
X147137353Y-122100798D01*
X147003073Y-121899833D01*
X146832167Y-121728927D01*
X146631202Y-121594647D01*
X146407903Y-121502153D01*
X146170849Y-121455000D01*
X145929151Y-121455000D01*
X145692097Y-121502153D01*
X145468798Y-121594647D01*
X145267833Y-121728927D01*
X145096927Y-121899833D01*
X144962647Y-122100798D01*
X144870153Y-122324097D01*
X144823000Y-122561151D01*
X143992036Y-122561151D01*
X141886184Y-120441071D01*
X141865064Y-120415336D01*
X141815923Y-120375007D01*
X141767615Y-120335089D01*
X141766648Y-120334568D01*
X141765784Y-120333859D01*
X141709748Y-120303908D01*
X141654552Y-120274165D01*
X141653498Y-120273841D01*
X141652517Y-120273317D01*
X141592004Y-120254961D01*
X141531777Y-120236469D01*
X141530674Y-120236357D01*
X141529614Y-120236035D01*
X141466747Y-120229843D01*
X141404005Y-120223450D01*
X141370879Y-120226600D01*
X132518421Y-120226600D01*
X132486399Y-120223446D01*
X132358585Y-120236035D01*
X132238455Y-120272476D01*
X132235683Y-120273317D01*
X132122416Y-120333859D01*
X132023136Y-120415336D01*
X132002720Y-120440213D01*
X129751000Y-122691934D01*
X129751000Y-122561151D01*
X129703847Y-122324097D01*
X129611353Y-122100798D01*
X129477073Y-121899833D01*
X129306167Y-121728927D01*
X129105202Y-121594647D01*
X128881903Y-121502153D01*
X128644849Y-121455000D01*
X128403151Y-121455000D01*
X128166097Y-121502153D01*
X127942798Y-121594647D01*
X127741833Y-121728927D01*
X127570927Y-121899833D01*
X127436647Y-122100798D01*
X127344153Y-122324097D01*
X127297000Y-122561151D01*
X127297000Y-122802849D01*
X127344153Y-123039903D01*
X127436647Y-123263202D01*
X127570927Y-123464167D01*
X127741833Y-123635073D01*
X127942798Y-123769353D01*
X128166097Y-123861847D01*
X128403151Y-123909000D01*
X128533934Y-123909000D01*
X127949134Y-124493800D01*
X105730867Y-124493800D01*
X102307067Y-121070000D01*
X107586451Y-121070000D01*
X107586451Y-122770000D01*
X107596626Y-122873310D01*
X107626761Y-122972650D01*
X107675696Y-123064202D01*
X107741552Y-123144448D01*
X107821798Y-123210304D01*
X107913350Y-123259239D01*
X108012690Y-123289374D01*
X108116000Y-123299549D01*
X109816000Y-123299549D01*
X109919310Y-123289374D01*
X110018650Y-123259239D01*
X110110202Y-123210304D01*
X110190448Y-123144448D01*
X110256304Y-123064202D01*
X110305239Y-122972650D01*
X110335374Y-122873310D01*
X110345549Y-122770000D01*
X110345549Y-121070000D01*
X112666451Y-121070000D01*
X112666451Y-122770000D01*
X112676626Y-122873310D01*
X112706761Y-122972650D01*
X112755696Y-123064202D01*
X112821552Y-123144448D01*
X112901798Y-123210304D01*
X112993350Y-123259239D01*
X113092690Y-123289374D01*
X113196000Y-123299549D01*
X114896000Y-123299549D01*
X114999310Y-123289374D01*
X115098650Y-123259239D01*
X115190202Y-123210304D01*
X115270448Y-123144448D01*
X115336304Y-123064202D01*
X115385239Y-122972650D01*
X115415374Y-122873310D01*
X115425549Y-122770000D01*
X115425549Y-122561151D01*
X121455000Y-122561151D01*
X121455000Y-122802849D01*
X121502153Y-123039903D01*
X121594647Y-123263202D01*
X121728927Y-123464167D01*
X121899833Y-123635073D01*
X122100798Y-123769353D01*
X122324097Y-123861847D01*
X122561151Y-123909000D01*
X122802849Y-123909000D01*
X123039903Y-123861847D01*
X123263202Y-123769353D01*
X123464167Y-123635073D01*
X123635073Y-123464167D01*
X123769353Y-123263202D01*
X123861847Y-123039903D01*
X123909000Y-122802849D01*
X123909000Y-122561151D01*
X123861847Y-122324097D01*
X123769353Y-122100798D01*
X123635073Y-121899833D01*
X123464167Y-121728927D01*
X123263202Y-121594647D01*
X123039903Y-121502153D01*
X122802849Y-121455000D01*
X122561151Y-121455000D01*
X122324097Y-121502153D01*
X122100798Y-121594647D01*
X121899833Y-121728927D01*
X121728927Y-121899833D01*
X121594647Y-122100798D01*
X121502153Y-122324097D01*
X121455000Y-122561151D01*
X115425549Y-122561151D01*
X115425549Y-121070000D01*
X115415374Y-120966690D01*
X115385239Y-120867350D01*
X115336304Y-120775798D01*
X115270448Y-120695552D01*
X115190202Y-120629696D01*
X115098650Y-120580761D01*
X114999310Y-120550626D01*
X114896000Y-120540451D01*
X113196000Y-120540451D01*
X113092690Y-120550626D01*
X112993350Y-120580761D01*
X112901798Y-120629696D01*
X112821552Y-120695552D01*
X112755696Y-120775798D01*
X112706761Y-120867350D01*
X112676626Y-120966690D01*
X112666451Y-121070000D01*
X110345549Y-121070000D01*
X110335374Y-120966690D01*
X110305239Y-120867350D01*
X110256304Y-120775798D01*
X110190448Y-120695552D01*
X110110202Y-120629696D01*
X110018650Y-120580761D01*
X109919310Y-120550626D01*
X109816000Y-120540451D01*
X108116000Y-120540451D01*
X108012690Y-120550626D01*
X107913350Y-120580761D01*
X107821798Y-120629696D01*
X107741552Y-120695552D01*
X107675696Y-120775798D01*
X107626761Y-120867350D01*
X107596626Y-120966690D01*
X107586451Y-121070000D01*
X102307067Y-121070000D01*
X101728085Y-120491019D01*
X101707664Y-120466136D01*
X101608384Y-120384659D01*
X101495117Y-120324117D01*
X101372214Y-120286835D01*
X101276422Y-120277400D01*
X101244400Y-120274246D01*
X101212378Y-120277400D01*
X79940422Y-120277400D01*
X79908400Y-120274246D01*
X79780585Y-120286835D01*
X79719135Y-120305476D01*
X79657683Y-120324117D01*
X79544416Y-120384659D01*
X79445136Y-120466136D01*
X79424720Y-120491013D01*
X78585733Y-121330001D01*
X76424020Y-121330001D01*
X76391998Y-121326847D01*
X76264184Y-121339436D01*
X76141282Y-121376718D01*
X76028015Y-121437260D01*
X75968639Y-121485989D01*
X75812849Y-121455000D01*
X75571151Y-121455000D01*
X75334097Y-121502153D01*
X75110798Y-121594647D01*
X74909833Y-121728927D01*
X74738927Y-121899833D01*
X74604647Y-122100798D01*
X74512153Y-122324097D01*
X74465000Y-122561151D01*
X71077000Y-122561151D01*
X71029847Y-122324097D01*
X70937353Y-122100798D01*
X70803073Y-121899833D01*
X70632167Y-121728927D01*
X70431202Y-121594647D01*
X70207903Y-121502153D01*
X69970849Y-121455000D01*
X69729151Y-121455000D01*
X69492097Y-121502153D01*
X69268798Y-121594647D01*
X69067833Y-121728927D01*
X68896927Y-121899833D01*
X68762647Y-122100798D01*
X68670153Y-122324097D01*
X68623000Y-122561151D01*
X65235000Y-122561151D01*
X65187847Y-122324097D01*
X65095353Y-122100798D01*
X64961073Y-121899833D01*
X64790167Y-121728927D01*
X64589202Y-121594647D01*
X64365903Y-121502153D01*
X64128849Y-121455000D01*
X63887151Y-121455000D01*
X63650097Y-121502153D01*
X63426798Y-121594647D01*
X63225833Y-121728927D01*
X63054927Y-121899833D01*
X62920647Y-122100798D01*
X62828153Y-122324097D01*
X62781000Y-122561151D01*
X51377000Y-122561151D01*
X51377000Y-119703000D01*
X174423000Y-119703000D01*
X174423001Y-125026000D01*
G36*
X133784798Y-121594647D02*
G01*
X133583833Y-121728927D01*
X133412927Y-121899833D01*
X133278647Y-122100798D01*
X133186153Y-122324097D01*
X133139000Y-122561151D01*
X133139000Y-122802849D01*
X133186153Y-123039903D01*
X133278647Y-123263202D01*
X133412927Y-123464167D01*
X133583833Y-123635073D01*
X133784798Y-123769353D01*
X134008097Y-123861847D01*
X134245151Y-123909000D01*
X134486849Y-123909000D01*
X134642639Y-123878011D01*
X134702015Y-123926740D01*
X134784463Y-123970809D01*
X134815282Y-123987282D01*
X134938184Y-124024564D01*
X135065998Y-124037153D01*
X135098020Y-124033999D01*
X138250333Y-124033999D01*
X145847562Y-131631229D01*
X145692097Y-131662153D01*
X145468798Y-131754647D01*
X145267833Y-131888927D01*
X145096927Y-132059833D01*
X144962647Y-132260798D01*
X144870153Y-132484097D01*
X144823000Y-132721151D01*
X144823000Y-132962849D01*
X144870153Y-133199903D01*
X144962647Y-133423202D01*
X145096927Y-133624167D01*
X145267833Y-133795073D01*
X145468798Y-133929353D01*
X145692097Y-134021847D01*
X145929151Y-134069000D01*
X146170849Y-134069000D01*
X146407903Y-134021847D01*
X146631202Y-133929353D01*
X146832167Y-133795073D01*
X147003073Y-133624167D01*
X147137353Y-133423202D01*
X147229847Y-133199903D01*
X147260771Y-133044438D01*
X148268200Y-134051867D01*
X148268201Y-136114868D01*
X147198926Y-135045594D01*
X147176154Y-135017846D01*
X147065453Y-134926997D01*
X146939157Y-134859490D01*
X146802117Y-134817920D01*
X146695308Y-134807400D01*
X146659600Y-134803883D01*
X146623892Y-134807400D01*
X145131933Y-134807400D01*
X143246400Y-132921868D01*
X143246400Y-130109107D01*
X143249917Y-130073399D01*
X143235880Y-129930882D01*
X143214929Y-129861816D01*
X143194310Y-129793843D01*
X143126803Y-129667547D01*
X143035953Y-129556846D01*
X143008216Y-129534083D01*
X141422056Y-127947924D01*
X141435000Y-127882849D01*
X141435000Y-127641151D01*
X141387847Y-127404097D01*
X141295353Y-127180798D01*
X141161073Y-126979833D01*
X140990167Y-126808927D01*
X140789202Y-126674647D01*
X140565903Y-126582153D01*
X140328849Y-126535000D01*
X140087151Y-126535000D01*
X139850097Y-126582153D01*
X139626798Y-126674647D01*
X139425833Y-126808927D01*
X139254927Y-126979833D01*
X139120647Y-127180798D01*
X139028153Y-127404097D01*
X138981000Y-127641151D01*
X138981000Y-127882849D01*
X139028153Y-128119903D01*
X139120647Y-128343202D01*
X139254927Y-128544167D01*
X139425833Y-128715073D01*
X139626798Y-128849353D01*
X139850097Y-128941847D01*
X140087151Y-128989000D01*
X140328849Y-128989000D01*
X140393924Y-128976056D01*
X141792400Y-130374533D01*
X141792401Y-133187282D01*
X141788883Y-133223000D01*
X141802920Y-133365517D01*
X141844490Y-133502556D01*
X141903598Y-133613137D01*
X141911998Y-133628853D01*
X142002847Y-133739554D01*
X142030589Y-133762321D01*
X144042127Y-135773860D01*
X144054290Y-135813957D01*
X144121797Y-135940253D01*
X144212646Y-136050954D01*
X144323347Y-136141803D01*
X144449643Y-136209310D01*
X144586683Y-136250880D01*
X144693492Y-136261400D01*
X144795091Y-136261400D01*
X144830799Y-136264917D01*
X144866507Y-136261400D01*
X146358468Y-136261400D01*
X146793836Y-136696768D01*
X146750000Y-136692451D01*
X145350000Y-136692451D01*
X145246690Y-136702626D01*
X145147350Y-136732761D01*
X145055798Y-136781696D01*
X144975552Y-136847552D01*
X144909696Y-136927798D01*
X144860761Y-137019350D01*
X144830626Y-137118690D01*
X144820451Y-137222000D01*
X144820451Y-137270000D01*
X141437549Y-137270000D01*
X141437549Y-137222000D01*
X141427374Y-137118690D01*
X141397239Y-137019350D01*
X141348304Y-136927798D01*
X141282448Y-136847552D01*
X141202202Y-136781696D01*
X141110650Y-136732761D01*
X141011310Y-136702626D01*
X140908000Y-136692451D01*
X140797872Y-136692451D01*
X140752741Y-136608016D01*
X140671264Y-136508736D01*
X140646387Y-136488320D01*
X137964400Y-133806334D01*
X137964400Y-132721151D01*
X138981000Y-132721151D01*
X138981000Y-132962849D01*
X139028153Y-133199903D01*
X139120647Y-133423202D01*
X139254927Y-133624167D01*
X139425833Y-133795073D01*
X139626798Y-133929353D01*
X139850097Y-134021847D01*
X140087151Y-134069000D01*
X140328849Y-134069000D01*
X140565903Y-134021847D01*
X140789202Y-133929353D01*
X140990167Y-133795073D01*
X141161073Y-133624167D01*
X141295353Y-133423202D01*
X141387847Y-133199903D01*
X141435000Y-132962849D01*
X141435000Y-132721151D01*
X141387847Y-132484097D01*
X141295353Y-132260798D01*
X141161073Y-132059833D01*
X140990167Y-131888927D01*
X140789202Y-131754647D01*
X140565903Y-131662153D01*
X140328849Y-131615000D01*
X140087151Y-131615000D01*
X139850097Y-131662153D01*
X139626798Y-131754647D01*
X139425833Y-131888927D01*
X139254927Y-132059833D01*
X139120647Y-132260798D01*
X139028153Y-132484097D01*
X138981000Y-132721151D01*
X137964400Y-132721151D01*
X137964400Y-131731014D01*
X137967553Y-131698999D01*
X137964400Y-131666985D01*
X137964400Y-131666978D01*
X137954965Y-131571186D01*
X137917683Y-131448283D01*
X137857141Y-131335016D01*
X137775664Y-131235736D01*
X137750787Y-131215320D01*
X136322885Y-129787419D01*
X136302464Y-129762536D01*
X136203184Y-129681059D01*
X136089917Y-129620517D01*
X135967014Y-129583235D01*
X135871222Y-129573800D01*
X135839200Y-129570646D01*
X135807178Y-129573800D01*
X97933067Y-129573800D01*
X96460800Y-128101534D01*
X96460800Y-127641151D01*
X97833000Y-127641151D01*
X97833000Y-127882849D01*
X97880153Y-128119903D01*
X97972647Y-128343202D01*
X98106927Y-128544167D01*
X98277833Y-128715073D01*
X98478798Y-128849353D01*
X98702097Y-128941847D01*
X98939151Y-128989000D01*
X99180849Y-128989000D01*
X99417903Y-128941847D01*
X99641202Y-128849353D01*
X99842167Y-128715073D01*
X100013073Y-128544167D01*
X100049934Y-128489000D01*
X121692066Y-128489000D01*
X121728927Y-128544167D01*
X121899833Y-128715073D01*
X122100798Y-128849353D01*
X122324097Y-128941847D01*
X122561151Y-128989000D01*
X122802849Y-128989000D01*
X123039903Y-128941847D01*
X123263202Y-128849353D01*
X123464167Y-128715073D01*
X123635073Y-128544167D01*
X123769353Y-128343202D01*
X123861847Y-128119903D01*
X123909000Y-127882849D01*
X123909000Y-127641151D01*
X127297000Y-127641151D01*
X127297000Y-127882849D01*
X127344153Y-128119903D01*
X127436647Y-128343202D01*
X127570927Y-128544167D01*
X127741833Y-128715073D01*
X127942798Y-128849353D01*
X128166097Y-128941847D01*
X128403151Y-128989000D01*
X128644849Y-128989000D01*
X128881903Y-128941847D01*
X129105202Y-128849353D01*
X129306167Y-128715073D01*
X129477073Y-128544167D01*
X129611353Y-128343202D01*
X129703847Y-128119903D01*
X129751000Y-127882849D01*
X129751000Y-127641151D01*
X133139000Y-127641151D01*
X133139000Y-127882849D01*
X133186153Y-128119903D01*
X133278647Y-128343202D01*
X133412927Y-128544167D01*
X133583833Y-128715073D01*
X133784798Y-128849353D01*
X134008097Y-128941847D01*
X134245151Y-128989000D01*
X134486849Y-128989000D01*
X134723903Y-128941847D01*
X134947202Y-128849353D01*
X135148167Y-128715073D01*
X135319073Y-128544167D01*
X135453353Y-128343202D01*
X135545847Y-128119903D01*
X135593000Y-127882849D01*
X135593000Y-127641151D01*
X135545847Y-127404097D01*
X135453353Y-127180798D01*
X135319073Y-126979833D01*
X135148167Y-126808927D01*
X134947202Y-126674647D01*
X134723903Y-126582153D01*
X134486849Y-126535000D01*
X134245151Y-126535000D01*
X134008097Y-126582153D01*
X133784798Y-126674647D01*
X133583833Y-126808927D01*
X133412927Y-126979833D01*
X133278647Y-127180798D01*
X133186153Y-127404097D01*
X133139000Y-127641151D01*
X129751000Y-127641151D01*
X129703847Y-127404097D01*
X129611353Y-127180798D01*
X129477073Y-126979833D01*
X129306167Y-126808927D01*
X129105202Y-126674647D01*
X128881903Y-126582153D01*
X128644849Y-126535000D01*
X128403151Y-126535000D01*
X128166097Y-126582153D01*
X127942798Y-126674647D01*
X127741833Y-126808927D01*
X127570927Y-126979833D01*
X127436647Y-127180798D01*
X127344153Y-127404097D01*
X127297000Y-127641151D01*
X123909000Y-127641151D01*
X123861847Y-127404097D01*
X123769353Y-127180798D01*
X123635073Y-126979833D01*
X123464167Y-126808927D01*
X123263202Y-126674647D01*
X123039903Y-126582153D01*
X122802849Y-126535000D01*
X122561151Y-126535000D01*
X122324097Y-126582153D01*
X122100798Y-126674647D01*
X121899833Y-126808927D01*
X121728927Y-126979833D01*
X121692066Y-127035000D01*
X100049934Y-127035000D01*
X100013073Y-126979833D01*
X99842167Y-126808927D01*
X99641202Y-126674647D01*
X99417903Y-126582153D01*
X99180849Y-126535000D01*
X98939151Y-126535000D01*
X98702097Y-126582153D01*
X98478798Y-126674647D01*
X98277833Y-126808927D01*
X98106927Y-126979833D01*
X97972647Y-127180798D01*
X97880153Y-127404097D01*
X97833000Y-127641151D01*
X96460800Y-127641151D01*
X96460800Y-125304814D01*
X96463953Y-125272799D01*
X96460800Y-125240785D01*
X96460800Y-125240778D01*
X96451365Y-125144986D01*
X96430968Y-125077744D01*
X96414083Y-125022083D01*
X96402348Y-125000128D01*
X96353541Y-124908816D01*
X96272064Y-124809536D01*
X96247187Y-124789120D01*
X94414458Y-122956392D01*
X94445000Y-122802849D01*
X94445000Y-122561151D01*
X94397847Y-122324097D01*
X94305353Y-122100798D01*
X94171073Y-121899833D01*
X94000167Y-121728927D01*
X93799202Y-121594647D01*
X93767221Y-121581400D01*
X98510779Y-121581400D01*
X98478798Y-121594647D01*
X98277833Y-121728927D01*
X98106927Y-121899833D01*
X97972647Y-122100798D01*
X97880153Y-122324097D01*
X97833000Y-122561151D01*
X97833000Y-122802849D01*
X97880153Y-123039903D01*
X97972647Y-123263202D01*
X98106927Y-123464167D01*
X98277833Y-123635073D01*
X98478798Y-123769353D01*
X98702097Y-123861847D01*
X98939151Y-123909000D01*
X99180849Y-123909000D01*
X99417903Y-123861847D01*
X99641202Y-123769353D01*
X99842167Y-123635073D01*
X100013073Y-123464167D01*
X100147353Y-123263202D01*
X100239847Y-123039903D01*
X100276682Y-122854719D01*
X100297301Y-122868496D01*
X100466004Y-122938376D01*
X100645099Y-122974000D01*
X100827701Y-122974000D01*
X101006796Y-122938376D01*
X101175499Y-122868496D01*
X101327328Y-122767048D01*
X101456448Y-122637928D01*
X101557896Y-122486099D01*
X101627776Y-122317396D01*
X101641472Y-122248539D01*
X104977120Y-125584187D01*
X104997536Y-125609064D01*
X105096816Y-125690541D01*
X105210083Y-125751083D01*
X105332985Y-125788365D01*
X105460799Y-125800954D01*
X105492821Y-125797800D01*
X128187178Y-125797800D01*
X128219200Y-125800954D01*
X128251222Y-125797800D01*
X128347014Y-125788365D01*
X128469917Y-125751083D01*
X128583184Y-125690541D01*
X128682464Y-125609064D01*
X128702885Y-125584181D01*
X132756467Y-121530600D01*
X133939420Y-121530600D01*
X133784798Y-121594647D01*
G37*
X133784798Y-121594647D02*
X133583833Y-121728927D01*
X133412927Y-121899833D01*
X133278647Y-122100798D01*
X133186153Y-122324097D01*
X133139000Y-122561151D01*
X133139000Y-122802849D01*
X133186153Y-123039903D01*
X133278647Y-123263202D01*
X133412927Y-123464167D01*
X133583833Y-123635073D01*
X133784798Y-123769353D01*
X134008097Y-123861847D01*
X134245151Y-123909000D01*
X134486849Y-123909000D01*
X134642639Y-123878011D01*
X134702015Y-123926740D01*
X134784463Y-123970809D01*
X134815282Y-123987282D01*
X134938184Y-124024564D01*
X135065998Y-124037153D01*
X135098020Y-124033999D01*
X138250333Y-124033999D01*
X145847562Y-131631229D01*
X145692097Y-131662153D01*
X145468798Y-131754647D01*
X145267833Y-131888927D01*
X145096927Y-132059833D01*
X144962647Y-132260798D01*
X144870153Y-132484097D01*
X144823000Y-132721151D01*
X144823000Y-132962849D01*
X144870153Y-133199903D01*
X144962647Y-133423202D01*
X145096927Y-133624167D01*
X145267833Y-133795073D01*
X145468798Y-133929353D01*
X145692097Y-134021847D01*
X145929151Y-134069000D01*
X146170849Y-134069000D01*
X146407903Y-134021847D01*
X146631202Y-133929353D01*
X146832167Y-133795073D01*
X147003073Y-133624167D01*
X147137353Y-133423202D01*
X147229847Y-133199903D01*
X147260771Y-133044438D01*
X148268200Y-134051867D01*
X148268201Y-136114868D01*
X147198926Y-135045594D01*
X147176154Y-135017846D01*
X147065453Y-134926997D01*
X146939157Y-134859490D01*
X146802117Y-134817920D01*
X146695308Y-134807400D01*
X146659600Y-134803883D01*
X146623892Y-134807400D01*
X145131933Y-134807400D01*
X143246400Y-132921868D01*
X143246400Y-130109107D01*
X143249917Y-130073399D01*
X143235880Y-129930882D01*
X143214929Y-129861816D01*
X143194310Y-129793843D01*
X143126803Y-129667547D01*
X143035953Y-129556846D01*
X143008216Y-129534083D01*
X141422056Y-127947924D01*
X141435000Y-127882849D01*
X141435000Y-127641151D01*
X141387847Y-127404097D01*
X141295353Y-127180798D01*
X141161073Y-126979833D01*
X140990167Y-126808927D01*
X140789202Y-126674647D01*
X140565903Y-126582153D01*
X140328849Y-126535000D01*
X140087151Y-126535000D01*
X139850097Y-126582153D01*
X139626798Y-126674647D01*
X139425833Y-126808927D01*
X139254927Y-126979833D01*
X139120647Y-127180798D01*
X139028153Y-127404097D01*
X138981000Y-127641151D01*
X138981000Y-127882849D01*
X139028153Y-128119903D01*
X139120647Y-128343202D01*
X139254927Y-128544167D01*
X139425833Y-128715073D01*
X139626798Y-128849353D01*
X139850097Y-128941847D01*
X140087151Y-128989000D01*
X140328849Y-128989000D01*
X140393924Y-128976056D01*
X141792400Y-130374533D01*
X141792401Y-133187282D01*
X141788883Y-133223000D01*
X141802920Y-133365517D01*
X141844490Y-133502556D01*
X141903598Y-133613137D01*
X141911998Y-133628853D01*
X142002847Y-133739554D01*
X142030589Y-133762321D01*
X144042127Y-135773860D01*
X144054290Y-135813957D01*
X144121797Y-135940253D01*
X144212646Y-136050954D01*
X144323347Y-136141803D01*
X144449643Y-136209310D01*
X144586683Y-136250880D01*
X144693492Y-136261400D01*
X144795091Y-136261400D01*
X144830799Y-136264917D01*
X144866507Y-136261400D01*
X146358468Y-136261400D01*
X146793836Y-136696768D01*
X146750000Y-136692451D01*
X145350000Y-136692451D01*
X145246690Y-136702626D01*
X145147350Y-136732761D01*
X145055798Y-136781696D01*
X144975552Y-136847552D01*
X144909696Y-136927798D01*
X144860761Y-137019350D01*
X144830626Y-137118690D01*
X144820451Y-137222000D01*
X144820451Y-137270000D01*
X141437549Y-137270000D01*
X141437549Y-137222000D01*
X141427374Y-137118690D01*
X141397239Y-137019350D01*
X141348304Y-136927798D01*
X141282448Y-136847552D01*
X141202202Y-136781696D01*
X141110650Y-136732761D01*
X141011310Y-136702626D01*
X140908000Y-136692451D01*
X140797872Y-136692451D01*
X140752741Y-136608016D01*
X140671264Y-136508736D01*
X140646387Y-136488320D01*
X137964400Y-133806334D01*
X137964400Y-132721151D01*
X138981000Y-132721151D01*
X138981000Y-132962849D01*
X139028153Y-133199903D01*
X139120647Y-133423202D01*
X139254927Y-133624167D01*
X139425833Y-133795073D01*
X139626798Y-133929353D01*
X139850097Y-134021847D01*
X140087151Y-134069000D01*
X140328849Y-134069000D01*
X140565903Y-134021847D01*
X140789202Y-133929353D01*
X140990167Y-133795073D01*
X141161073Y-133624167D01*
X141295353Y-133423202D01*
X141387847Y-133199903D01*
X141435000Y-132962849D01*
X141435000Y-132721151D01*
X141387847Y-132484097D01*
X141295353Y-132260798D01*
X141161073Y-132059833D01*
X140990167Y-131888927D01*
X140789202Y-131754647D01*
X140565903Y-131662153D01*
X140328849Y-131615000D01*
X140087151Y-131615000D01*
X139850097Y-131662153D01*
X139626798Y-131754647D01*
X139425833Y-131888927D01*
X139254927Y-132059833D01*
X139120647Y-132260798D01*
X139028153Y-132484097D01*
X138981000Y-132721151D01*
X137964400Y-132721151D01*
X137964400Y-131731014D01*
X137967553Y-131698999D01*
X137964400Y-131666985D01*
X137964400Y-131666978D01*
X137954965Y-131571186D01*
X137917683Y-131448283D01*
X137857141Y-131335016D01*
X137775664Y-131235736D01*
X137750787Y-131215320D01*
X136322885Y-129787419D01*
X136302464Y-129762536D01*
X136203184Y-129681059D01*
X136089917Y-129620517D01*
X135967014Y-129583235D01*
X135871222Y-129573800D01*
X135839200Y-129570646D01*
X135807178Y-129573800D01*
X97933067Y-129573800D01*
X96460800Y-128101534D01*
X96460800Y-127641151D01*
X97833000Y-127641151D01*
X97833000Y-127882849D01*
X97880153Y-128119903D01*
X97972647Y-128343202D01*
X98106927Y-128544167D01*
X98277833Y-128715073D01*
X98478798Y-128849353D01*
X98702097Y-128941847D01*
X98939151Y-128989000D01*
X99180849Y-128989000D01*
X99417903Y-128941847D01*
X99641202Y-128849353D01*
X99842167Y-128715073D01*
X100013073Y-128544167D01*
X100049934Y-128489000D01*
X121692066Y-128489000D01*
X121728927Y-128544167D01*
X121899833Y-128715073D01*
X122100798Y-128849353D01*
X122324097Y-128941847D01*
X122561151Y-128989000D01*
X122802849Y-128989000D01*
X123039903Y-128941847D01*
X123263202Y-128849353D01*
X123464167Y-128715073D01*
X123635073Y-128544167D01*
X123769353Y-128343202D01*
X123861847Y-128119903D01*
X123909000Y-127882849D01*
X123909000Y-127641151D01*
X127297000Y-127641151D01*
X127297000Y-127882849D01*
X127344153Y-128119903D01*
X127436647Y-128343202D01*
X127570927Y-128544167D01*
X127741833Y-128715073D01*
X127942798Y-128849353D01*
X128166097Y-128941847D01*
X128403151Y-128989000D01*
X128644849Y-128989000D01*
X128881903Y-128941847D01*
X129105202Y-128849353D01*
X129306167Y-128715073D01*
X129477073Y-128544167D01*
X129611353Y-128343202D01*
X129703847Y-128119903D01*
X129751000Y-127882849D01*
X129751000Y-127641151D01*
X133139000Y-127641151D01*
X133139000Y-127882849D01*
X133186153Y-128119903D01*
X133278647Y-128343202D01*
X133412927Y-128544167D01*
X133583833Y-128715073D01*
X133784798Y-128849353D01*
X134008097Y-128941847D01*
X134245151Y-128989000D01*
X134486849Y-128989000D01*
X134723903Y-128941847D01*
X134947202Y-128849353D01*
X135148167Y-128715073D01*
X135319073Y-128544167D01*
X135453353Y-128343202D01*
X135545847Y-128119903D01*
X135593000Y-127882849D01*
X135593000Y-127641151D01*
X135545847Y-127404097D01*
X135453353Y-127180798D01*
X135319073Y-126979833D01*
X135148167Y-126808927D01*
X134947202Y-126674647D01*
X134723903Y-126582153D01*
X134486849Y-126535000D01*
X134245151Y-126535000D01*
X134008097Y-126582153D01*
X133784798Y-126674647D01*
X133583833Y-126808927D01*
X133412927Y-126979833D01*
X133278647Y-127180798D01*
X133186153Y-127404097D01*
X133139000Y-127641151D01*
X129751000Y-127641151D01*
X129703847Y-127404097D01*
X129611353Y-127180798D01*
X129477073Y-126979833D01*
X129306167Y-126808927D01*
X129105202Y-126674647D01*
X128881903Y-126582153D01*
X128644849Y-126535000D01*
X128403151Y-126535000D01*
X128166097Y-126582153D01*
X127942798Y-126674647D01*
X127741833Y-126808927D01*
X127570927Y-126979833D01*
X127436647Y-127180798D01*
X127344153Y-127404097D01*
X127297000Y-127641151D01*
X123909000Y-127641151D01*
X123861847Y-127404097D01*
X123769353Y-127180798D01*
X123635073Y-126979833D01*
X123464167Y-126808927D01*
X123263202Y-126674647D01*
X123039903Y-126582153D01*
X122802849Y-126535000D01*
X122561151Y-126535000D01*
X122324097Y-126582153D01*
X122100798Y-126674647D01*
X121899833Y-126808927D01*
X121728927Y-126979833D01*
X121692066Y-127035000D01*
X100049934Y-127035000D01*
X100013073Y-126979833D01*
X99842167Y-126808927D01*
X99641202Y-126674647D01*
X99417903Y-126582153D01*
X99180849Y-126535000D01*
X98939151Y-126535000D01*
X98702097Y-126582153D01*
X98478798Y-126674647D01*
X98277833Y-126808927D01*
X98106927Y-126979833D01*
X97972647Y-127180798D01*
X97880153Y-127404097D01*
X97833000Y-127641151D01*
X96460800Y-127641151D01*
X96460800Y-125304814D01*
X96463953Y-125272799D01*
X96460800Y-125240785D01*
X96460800Y-125240778D01*
X96451365Y-125144986D01*
X96430968Y-125077744D01*
X96414083Y-125022083D01*
X96402348Y-125000128D01*
X96353541Y-124908816D01*
X96272064Y-124809536D01*
X96247187Y-124789120D01*
X94414458Y-122956392D01*
X94445000Y-122802849D01*
X94445000Y-122561151D01*
X94397847Y-122324097D01*
X94305353Y-122100798D01*
X94171073Y-121899833D01*
X94000167Y-121728927D01*
X93799202Y-121594647D01*
X93767221Y-121581400D01*
X98510779Y-121581400D01*
X98478798Y-121594647D01*
X98277833Y-121728927D01*
X98106927Y-121899833D01*
X97972647Y-122100798D01*
X97880153Y-122324097D01*
X97833000Y-122561151D01*
X97833000Y-122802849D01*
X97880153Y-123039903D01*
X97972647Y-123263202D01*
X98106927Y-123464167D01*
X98277833Y-123635073D01*
X98478798Y-123769353D01*
X98702097Y-123861847D01*
X98939151Y-123909000D01*
X99180849Y-123909000D01*
X99417903Y-123861847D01*
X99641202Y-123769353D01*
X99842167Y-123635073D01*
X100013073Y-123464167D01*
X100147353Y-123263202D01*
X100239847Y-123039903D01*
X100276682Y-122854719D01*
X100297301Y-122868496D01*
X100466004Y-122938376D01*
X100645099Y-122974000D01*
X100827701Y-122974000D01*
X101006796Y-122938376D01*
X101175499Y-122868496D01*
X101327328Y-122767048D01*
X101456448Y-122637928D01*
X101557896Y-122486099D01*
X101627776Y-122317396D01*
X101641472Y-122248539D01*
X104977120Y-125584187D01*
X104997536Y-125609064D01*
X105096816Y-125690541D01*
X105210083Y-125751083D01*
X105332985Y-125788365D01*
X105460799Y-125800954D01*
X105492821Y-125797800D01*
X128187178Y-125797800D01*
X128219200Y-125800954D01*
X128251222Y-125797800D01*
X128347014Y-125788365D01*
X128469917Y-125751083D01*
X128583184Y-125690541D01*
X128682464Y-125609064D01*
X128702885Y-125584181D01*
X132756467Y-121530600D01*
X133939420Y-121530600D01*
X133784798Y-121594647D01*
G36*
X146101260Y-126535000D02*
G01*
X145929151Y-126535000D01*
X145692097Y-126582153D01*
X145468798Y-126674647D01*
X145267833Y-126808927D01*
X145096927Y-126979833D01*
X144962647Y-127180798D01*
X144870153Y-127404097D01*
X144823000Y-127641151D01*
X144823000Y-127882849D01*
X144870153Y-128119903D01*
X144962647Y-128343202D01*
X145096927Y-128544167D01*
X145267833Y-128715073D01*
X145468798Y-128849353D01*
X145692097Y-128941847D01*
X145929151Y-128989000D01*
X146170849Y-128989000D01*
X146407903Y-128941847D01*
X146631202Y-128849353D01*
X146832167Y-128715073D01*
X147003073Y-128544167D01*
X147137353Y-128343202D01*
X147229847Y-128119903D01*
X147277000Y-127882849D01*
X147277000Y-127718684D01*
X148435821Y-128885335D01*
X148456936Y-128911064D01*
X148486965Y-128935708D01*
X149538200Y-129944894D01*
X149538201Y-133573008D01*
X149525483Y-133531084D01*
X149525483Y-133531083D01*
X149464941Y-133417816D01*
X149383464Y-133318536D01*
X149358588Y-133298121D01*
X139940245Y-123879778D01*
X140087151Y-123909000D01*
X140328849Y-123909000D01*
X140565903Y-123861847D01*
X140789202Y-123769353D01*
X140990167Y-123635073D01*
X141161073Y-123464167D01*
X141295353Y-123263202D01*
X141387847Y-123039903D01*
X141435000Y-122802849D01*
X141435000Y-122561151D01*
X141387847Y-122324097D01*
X141295353Y-122100798D01*
X141161073Y-121899833D01*
X140990167Y-121728927D01*
X140789202Y-121594647D01*
X140634580Y-121530600D01*
X141130447Y-121530600D01*
X146101260Y-126535000D01*
G37*
X146101260Y-126535000D02*
X145929151Y-126535000D01*
X145692097Y-126582153D01*
X145468798Y-126674647D01*
X145267833Y-126808927D01*
X145096927Y-126979833D01*
X144962647Y-127180798D01*
X144870153Y-127404097D01*
X144823000Y-127641151D01*
X144823000Y-127882849D01*
X144870153Y-128119903D01*
X144962647Y-128343202D01*
X145096927Y-128544167D01*
X145267833Y-128715073D01*
X145468798Y-128849353D01*
X145692097Y-128941847D01*
X145929151Y-128989000D01*
X146170849Y-128989000D01*
X146407903Y-128941847D01*
X146631202Y-128849353D01*
X146832167Y-128715073D01*
X147003073Y-128544167D01*
X147137353Y-128343202D01*
X147229847Y-128119903D01*
X147277000Y-127882849D01*
X147277000Y-127718684D01*
X148435821Y-128885335D01*
X148456936Y-128911064D01*
X148486965Y-128935708D01*
X149538200Y-129944894D01*
X149538201Y-133573008D01*
X149525483Y-133531084D01*
X149525483Y-133531083D01*
X149464941Y-133417816D01*
X149383464Y-133318536D01*
X149358588Y-133298121D01*
X139940245Y-123879778D01*
X140087151Y-123909000D01*
X140328849Y-123909000D01*
X140565903Y-123861847D01*
X140789202Y-123769353D01*
X140990167Y-123635073D01*
X141161073Y-123464167D01*
X141295353Y-123263202D01*
X141387847Y-123039903D01*
X141435000Y-122802849D01*
X141435000Y-122561151D01*
X141387847Y-122324097D01*
X141295353Y-122100798D01*
X141161073Y-121899833D01*
X140990167Y-121728927D01*
X140789202Y-121594647D01*
X140634580Y-121530600D01*
X141130447Y-121530600D01*
X146101260Y-126535000D01*
G36*
X107051189Y-155170577D02*
G01*
X107048035Y-155202599D01*
X107060624Y-155330413D01*
X107073958Y-155374368D01*
X107097906Y-155453315D01*
X107158448Y-155566582D01*
X107239925Y-155665863D01*
X107264808Y-155686284D01*
X109061009Y-157482486D01*
X109026498Y-157467979D01*
X109018794Y-157465653D01*
X109018788Y-157465651D01*
X109018782Y-157465650D01*
X108840922Y-157413303D01*
X108789555Y-157403504D01*
X108738325Y-157392988D01*
X108730307Y-157392202D01*
X108545663Y-157375398D01*
X108493367Y-157375763D01*
X108441071Y-157375398D01*
X108433053Y-157376184D01*
X108248661Y-157395565D01*
X108197429Y-157406082D01*
X108146067Y-157415879D01*
X108138354Y-157418208D01*
X107961238Y-157473034D01*
X107913054Y-157493289D01*
X107864538Y-157512890D01*
X107857425Y-157516673D01*
X107694332Y-157604857D01*
X107650984Y-157634096D01*
X107607215Y-157662737D01*
X107600972Y-157667829D01*
X107458113Y-157786013D01*
X107421250Y-157823134D01*
X107383901Y-157859709D01*
X107378766Y-157865916D01*
X107261583Y-158009596D01*
X107232637Y-158053164D01*
X107203097Y-158096305D01*
X107199265Y-158103391D01*
X107112221Y-158267097D01*
X107092301Y-158315426D01*
X107071689Y-158363517D01*
X107069307Y-158371213D01*
X107015719Y-158548707D01*
X107005566Y-158599987D01*
X106994689Y-158651158D01*
X106993847Y-158659170D01*
X106975754Y-158843694D01*
X106975754Y-158843704D01*
X106973000Y-158871665D01*
X106973000Y-160115000D01*
X106872998Y-160115000D01*
X106872998Y-160273748D01*
X106714250Y-160115000D01*
X106652000Y-160112024D01*
X106652000Y-153520253D01*
X107051190Y-153121064D01*
X107051189Y-155170577D01*
G37*
X107051189Y-155170577D02*
X107048035Y-155202599D01*
X107060624Y-155330413D01*
X107073958Y-155374368D01*
X107097906Y-155453315D01*
X107158448Y-155566582D01*
X107239925Y-155665863D01*
X107264808Y-155686284D01*
X109061009Y-157482486D01*
X109026498Y-157467979D01*
X109018794Y-157465653D01*
X109018788Y-157465651D01*
X109018782Y-157465650D01*
X108840922Y-157413303D01*
X108789555Y-157403504D01*
X108738325Y-157392988D01*
X108730307Y-157392202D01*
X108545663Y-157375398D01*
X108493367Y-157375763D01*
X108441071Y-157375398D01*
X108433053Y-157376184D01*
X108248661Y-157395565D01*
X108197429Y-157406082D01*
X108146067Y-157415879D01*
X108138354Y-157418208D01*
X107961238Y-157473034D01*
X107913054Y-157493289D01*
X107864538Y-157512890D01*
X107857425Y-157516673D01*
X107694332Y-157604857D01*
X107650984Y-157634096D01*
X107607215Y-157662737D01*
X107600972Y-157667829D01*
X107458113Y-157786013D01*
X107421250Y-157823134D01*
X107383901Y-157859709D01*
X107378766Y-157865916D01*
X107261583Y-158009596D01*
X107232637Y-158053164D01*
X107203097Y-158096305D01*
X107199265Y-158103391D01*
X107112221Y-158267097D01*
X107092301Y-158315426D01*
X107071689Y-158363517D01*
X107069307Y-158371213D01*
X107015719Y-158548707D01*
X107005566Y-158599987D01*
X106994689Y-158651158D01*
X106993847Y-158659170D01*
X106975754Y-158843694D01*
X106975754Y-158843704D01*
X106973000Y-158871665D01*
X106973000Y-160115000D01*
X106872998Y-160115000D01*
X106872998Y-160273748D01*
X106714250Y-160115000D01*
X106652000Y-160112024D01*
X106652000Y-153520253D01*
X107051190Y-153121064D01*
X107051189Y-155170577D01*
G36*
X103501802Y-157176936D02*
G01*
X103484612Y-157194126D01*
X103459735Y-157214542D01*
X103378258Y-157313822D01*
X103350543Y-157365673D01*
X103317715Y-157427090D01*
X103280433Y-157549992D01*
X103267844Y-157677806D01*
X103268572Y-157685196D01*
X103217200Y-157633824D01*
X103217200Y-153203466D01*
X103501803Y-152918863D01*
X103501802Y-157176936D01*
G37*
X103501802Y-157176936D02*
X103484612Y-157194126D01*
X103459735Y-157214542D01*
X103378258Y-157313822D01*
X103350543Y-157365673D01*
X103317715Y-157427090D01*
X103280433Y-157549992D01*
X103267844Y-157677806D01*
X103268572Y-157685196D01*
X103217200Y-157633824D01*
X103217200Y-153203466D01*
X103501803Y-152918863D01*
X103501802Y-157176936D01*
G36*
X108471909Y-150620419D02*
G01*
X108009782Y-150620419D01*
X107977767Y-150617266D01*
X107945753Y-150620419D01*
X107945746Y-150620419D01*
X107862767Y-150628592D01*
X107849953Y-150629854D01*
X107727051Y-150667136D01*
X107613784Y-150727678D01*
X107514504Y-150809155D01*
X107494088Y-150834032D01*
X105561614Y-152766507D01*
X105536737Y-152786923D01*
X105455260Y-152886203D01*
X105430033Y-152933400D01*
X105394717Y-152999471D01*
X105357435Y-153122373D01*
X105344846Y-153250187D01*
X105348001Y-153282219D01*
X105348001Y-157289687D01*
X105315699Y-157268104D01*
X105146996Y-157198224D01*
X104967901Y-157162600D01*
X104805802Y-157162600D01*
X104805802Y-152640183D01*
X107107299Y-150338687D01*
X107203533Y-150338687D01*
X107382628Y-150303063D01*
X107551331Y-150233183D01*
X107703160Y-150131735D01*
X107832280Y-150002615D01*
X107841022Y-149989532D01*
X108471909Y-150620419D01*
G37*
X108471909Y-150620419D02*
X108009782Y-150620419D01*
X107977767Y-150617266D01*
X107945753Y-150620419D01*
X107945746Y-150620419D01*
X107862767Y-150628592D01*
X107849953Y-150629854D01*
X107727051Y-150667136D01*
X107613784Y-150727678D01*
X107514504Y-150809155D01*
X107494088Y-150834032D01*
X105561614Y-152766507D01*
X105536737Y-152786923D01*
X105455260Y-152886203D01*
X105430033Y-152933400D01*
X105394717Y-152999471D01*
X105357435Y-153122373D01*
X105344846Y-153250187D01*
X105348001Y-153282219D01*
X105348001Y-157289687D01*
X105315699Y-157268104D01*
X105146996Y-157198224D01*
X104967901Y-157162600D01*
X104805802Y-157162600D01*
X104805802Y-152640183D01*
X107107299Y-150338687D01*
X107203533Y-150338687D01*
X107382628Y-150303063D01*
X107551331Y-150233183D01*
X107703160Y-150131735D01*
X107832280Y-150002615D01*
X107841022Y-149989532D01*
X108471909Y-150620419D01*
G36*
X111878082Y-153871630D02*
G01*
X111853199Y-153892051D01*
X111771722Y-153991332D01*
X111726688Y-154075586D01*
X111711180Y-154104599D01*
X111673898Y-154227501D01*
X111661309Y-154355315D01*
X111664463Y-154387338D01*
X111664464Y-155488566D01*
X111609348Y-155543682D01*
X111258607Y-155192941D01*
X111258607Y-153106407D01*
X111326655Y-153038359D01*
X111428103Y-152886530D01*
X111497983Y-152717827D01*
X111533607Y-152538732D01*
X111533607Y-152374430D01*
X113375282Y-152374430D01*
X111878082Y-153871630D01*
G37*
X111878082Y-153871630D02*
X111853199Y-153892051D01*
X111771722Y-153991332D01*
X111726688Y-154075586D01*
X111711180Y-154104599D01*
X111673898Y-154227501D01*
X111661309Y-154355315D01*
X111664463Y-154387338D01*
X111664464Y-155488566D01*
X111609348Y-155543682D01*
X111258607Y-155192941D01*
X111258607Y-153106407D01*
X111326655Y-153038359D01*
X111428103Y-152886530D01*
X111497983Y-152717827D01*
X111533607Y-152538732D01*
X111533607Y-152374430D01*
X113375282Y-152374430D01*
X111878082Y-153871630D01*
G36*
X102454904Y-149751103D02*
G01*
X102385024Y-149919806D01*
X102349400Y-150098901D01*
X102349400Y-150195135D01*
X101185202Y-151359334D01*
X101185202Y-150987462D01*
X102522043Y-149650622D01*
X102454904Y-149751103D01*
G37*
X102454904Y-149751103D02*
X102385024Y-149919806D01*
X102349400Y-150098901D01*
X102349400Y-150195135D01*
X101185202Y-151359334D01*
X101185202Y-150987462D01*
X102522043Y-149650622D01*
X102454904Y-149751103D01*
G36*
X104180648Y-150395885D02*
G01*
X104203400Y-150281503D01*
X104203400Y-150098901D01*
X104167776Y-149919806D01*
X104097896Y-149751103D01*
X103996448Y-149599274D01*
X103867328Y-149470154D01*
X103715499Y-149368706D01*
X103546796Y-149298826D01*
X103367701Y-149263202D01*
X103185099Y-149263202D01*
X103006004Y-149298826D01*
X102837301Y-149368706D01*
X102736820Y-149435845D01*
X103845065Y-148327600D01*
X106248933Y-148327600D01*
X104180648Y-150395885D01*
G37*
X104180648Y-150395885D02*
X104203400Y-150281503D01*
X104203400Y-150098901D01*
X104167776Y-149919806D01*
X104097896Y-149751103D01*
X103996448Y-149599274D01*
X103867328Y-149470154D01*
X103715499Y-149368706D01*
X103546796Y-149298826D01*
X103367701Y-149263202D01*
X103185099Y-149263202D01*
X103006004Y-149298826D01*
X102837301Y-149368706D01*
X102736820Y-149435845D01*
X103845065Y-148327600D01*
X106248933Y-148327600D01*
X104180648Y-150395885D01*
M02*
