G04 #@! TF.GenerationSoftware,KiCad,Pcbnew,(5.1.5)-3*
G04 #@! TF.CreationDate,2020-01-12T10:36:32-08:00*
G04 #@! TF.ProjectId,pin_driver,70696e5f-6472-4697-9665-722e6b696361,rev?*
G04 #@! TF.SameCoordinates,Original*
G04 #@! TF.FileFunction,Profile,NP*
%FSLAX46Y46*%
G04 Gerber Fmt 4.6, Leading zero omitted, Abs format (unit mm)*
G04 Created by KiCad (PCBNEW (5.1.5)-3) date 2020-01-12 10:36:32*
%MOMM*%
%LPD*%
G04 APERTURE LIST*
%ADD10C,0.100000*%
G04 APERTURE END LIST*
D10*
X90250000Y-165100000D02*
X90250000Y-157950000D01*
X90250000Y-157950000D02*
G75*
G02X91300000Y-156900000I1050000J0D01*
G01*
X122750000Y-165100000D02*
X166370000Y-165100000D01*
X122750000Y-157950000D02*
G75*
G03X121700000Y-156900000I-1050000J0D01*
G01*
X117700000Y-156900000D02*
X121700000Y-156900000D01*
X117700000Y-156900000D02*
G75*
G03X116650000Y-157950000I0J-1050000D01*
G01*
X122750000Y-165100000D02*
X122750000Y-157950000D01*
X50800000Y-165100000D02*
X90250000Y-165100000D01*
X95300000Y-156900000D02*
X91300000Y-156900000D01*
X95300000Y-156900000D02*
G75*
G02X96350000Y-157950000I0J-1050000D01*
G01*
X166370000Y-126873000D02*
G75*
G02X167640000Y-125603000I1270000J0D01*
G01*
X175000000Y-125603000D02*
X167640000Y-125603000D01*
X175000000Y-119126000D02*
X175000000Y-125603000D01*
X166370000Y-119126000D02*
X175000000Y-119126000D01*
X50800000Y-119126000D02*
X166370000Y-119126000D01*
X50800000Y-165100000D02*
X50800000Y-119126000D01*
X166370000Y-126873000D02*
X166370000Y-165100000D01*
X107550000Y-158900000D02*
G75*
G02X109450000Y-158900000I950000J0D01*
G01*
X116650000Y-165850000D02*
X116150000Y-166350000D01*
X109450000Y-165850000D02*
X109950000Y-166350000D01*
X107550000Y-165850000D02*
X107050000Y-166350000D01*
X96350000Y-165850000D02*
X96850000Y-166350000D01*
X109950000Y-166350000D02*
X116150000Y-166350000D01*
X116650000Y-157950000D02*
X116650000Y-165850000D01*
X96850000Y-166350000D02*
X107050000Y-166350000D01*
X96350000Y-157950000D02*
X96350000Y-165850000D01*
X109450000Y-158900000D02*
X109450000Y-165850000D01*
X107550000Y-158900000D02*
X107550000Y-165850000D01*
M02*
