M48
; DRILL file {KiCad (5.1.5)-3} date 1/12/2020 10:36:37 AM
; FORMAT={-:-/ absolute / inch / decimal}
; #@! TF.CreationDate,2020-01-12T10:36:37-08:00
; #@! TF.GenerationSoftware,Kicad,Pcbnew,(5.1.5)-3
FMAT,2
INCH
T1C0.0157
T2C0.0236
T3C0.0276
T4C0.0315
T5C0.0394
%
G90
G05
T1
X2.053Y-5.897
X2.151Y-5.958
X2.4921Y-6.0059
X2.4941Y-6.0965
X2.495Y-5.494
X2.505Y-5.926
X2.519Y-6.417
X2.575Y-5.81
X2.691Y-6.42
X2.731Y-5.813
X2.733Y-6.066
X2.74Y-4.835
X2.74Y-5.515
X2.943Y-5.815
X2.99Y-4.835
X2.99Y-5.515
X3.011Y-6.326
X3.0886Y-6.0965
X3.0886Y-6.1909
X3.0886Y-6.2776
X3.0945Y-6.0098
X3.151Y-5.67
X3.1547Y-6.33
X3.1594Y-6.2343
X3.1614Y-6.0551
X3.1614Y-6.1417
X3.1725Y-5.9576
X3.24Y-4.835
X3.24Y-5.515
X3.49Y-4.835
X3.49Y-5.515
X3.532Y-5.626
X3.7362Y-6.1142
X3.74Y-4.835
X3.74Y-5.515
X3.7815Y-6.0354
X3.8209Y-6.1161
X3.8248Y-6.2402
X3.8622Y-6.0394
X3.9134Y-6.1161
X3.9173Y-6.2598
X3.9528Y-6.0354
X3.99Y-4.835
X3.99Y-5.515
X4.0118Y-6.1181
X4.0728Y-6.2461
X4.0965Y-6.0728
X4.1063Y-6.1772
X4.15Y-5.663
X4.225Y-5.9478
X4.24Y-4.835
X4.24Y-5.515
X4.2441Y-5.7795
X4.3003Y-5.9405
X4.3717Y-5.893
X4.372Y-6.252
X4.4194Y-6.1644
X4.4803Y-6.2244
X4.49Y-4.835
X4.49Y-5.515
X4.5217Y-6.2657
X4.5335Y-6.1604
X4.536Y-5.625
X4.689Y-5.888
X4.74Y-4.835
X4.74Y-5.515
X4.923Y-5.771
X4.9385Y-5.928
X4.9865Y-5.5147
X4.99Y-4.835
X5.195Y-5.584
X5.24Y-4.835
X5.24Y-5.515
X5.252Y-5.835
X5.313Y-5.699
X5.49Y-4.835
X5.49Y-5.515
X5.529Y-5.624
X5.693Y-5.653
X5.695Y-5.711
X5.74Y-4.835
X5.74Y-5.515
X5.99Y-4.835
X5.99Y-5.515
X6.27Y-6.095
X6.42Y-4.805
T2
X2.359Y-5.375
X2.414Y-5.376
X4.924Y-6.23
X5.026Y-5.075
X5.0604Y-5.355
X6.053Y-5.024
X6.195Y-5.025
T3
X3.42Y-4.875
X3.42Y-5.075
X3.42Y-5.275
X3.42Y-5.475
X5.92Y-4.875
X5.92Y-5.075
X5.92Y-5.275
X5.92Y-5.475
X3.67Y-4.875
X3.67Y-5.075
X3.67Y-5.275
X3.67Y-5.475
X2.92Y-4.875
X2.92Y-5.075
X2.92Y-5.275
X2.92Y-5.475
X5.42Y-4.875
X5.42Y-5.075
X5.42Y-5.275
X5.42Y-5.475
X5.67Y-4.875
X5.67Y-5.075
X5.67Y-5.275
X5.67Y-5.475
X3.92Y-4.875
X3.92Y-5.075
X3.92Y-5.275
X3.92Y-5.475
X4.92Y-4.875
X4.92Y-5.075
X4.92Y-5.275
X4.92Y-5.475
X4.67Y-4.875
X4.67Y-5.075
X4.67Y-5.275
X4.67Y-5.475
X4.17Y-4.875
X4.17Y-5.075
X4.17Y-5.275
X4.17Y-5.475
X4.42Y-4.875
X4.42Y-5.075
X4.42Y-5.275
X4.42Y-5.475
X3.17Y-4.875
X3.17Y-5.075
X3.17Y-5.275
X3.17Y-5.475
X5.17Y-4.875
X5.17Y-5.075
X5.17Y-5.275
X5.17Y-5.475
X2.67Y-4.875
X2.67Y-5.075
X2.67Y-5.275
X2.67Y-5.475
T4
X4.57Y-5.725
X5.07Y-5.725
X2.57Y-5.725
X3.07Y-5.725
X3.57Y-5.725
X4.07Y-5.725
X5.22Y-5.91
X5.32Y-5.91
X5.42Y-5.91
X3.07Y-5.875
X3.57Y-5.875
X5.07Y-5.875
X5.57Y-5.875
X4.07Y-5.875
X4.57Y-5.875
X3.715Y-5.695
X3.815Y-5.695
X3.915Y-5.695
X2.715Y-5.695
X2.815Y-5.695
X2.915Y-5.695
X4.225Y-5.845
X4.325Y-5.845
X4.425Y-5.845
X3.225Y-5.845
X3.325Y-5.845
X3.425Y-5.845
X5.4231Y-5.725
X5.62Y-5.725
X4.715Y-5.695
X4.815Y-5.695
X4.915Y-5.695
T5
X6.7091Y-4.7972
X6.8091Y-4.7972
X6.397Y-5.847
X2.32Y-5.975
X2.32Y-6.075
X2.32Y-6.175
X2.32Y-6.275
T0
M30
