G04 #@! TF.GenerationSoftware,KiCad,Pcbnew,(5.1.5)-3*
G04 #@! TF.CreationDate,2020-01-12T10:36:32-08:00*
G04 #@! TF.ProjectId,pin_driver,70696e5f-6472-4697-9665-722e6b696361,rev?*
G04 #@! TF.SameCoordinates,Original*
G04 #@! TF.FileFunction,Soldermask,Bot*
G04 #@! TF.FilePolarity,Negative*
%FSLAX46Y46*%
G04 Gerber Fmt 4.6, Leading zero omitted, Abs format (unit mm)*
G04 Created by KiCad (PCBNEW (5.1.5)-3) date 2020-01-12 10:36:32*
%MOMM*%
%LPD*%
G04 APERTURE LIST*
%ADD10C,0.100000*%
G04 APERTURE END LIST*
D10*
G36*
X116401000Y-165101000D02*
G01*
X109599000Y-165101000D01*
X109599000Y-160699000D01*
X116401000Y-160699000D01*
X116401000Y-165101000D01*
G37*
G36*
X107401000Y-165101000D02*
G01*
X97599000Y-165101000D01*
X97599000Y-164125999D01*
X97596598Y-164101613D01*
X97589485Y-164078164D01*
X97577934Y-164056553D01*
X97562389Y-164037611D01*
X97543447Y-164022066D01*
X97521836Y-164010515D01*
X97498387Y-164003402D01*
X97474001Y-164001000D01*
X96599000Y-164001000D01*
X96599000Y-160699000D01*
X107401000Y-160699000D01*
X107401000Y-165101000D01*
G37*
G36*
X59829000Y-160286000D02*
G01*
X58027000Y-160286000D01*
X58027000Y-158484000D01*
X59829000Y-158484000D01*
X59829000Y-160286000D01*
G37*
G36*
X59041512Y-155948927D02*
G01*
X59190812Y-155978624D01*
X59354784Y-156046544D01*
X59502354Y-156145147D01*
X59627853Y-156270646D01*
X59726456Y-156418216D01*
X59794376Y-156582188D01*
X59829000Y-156756259D01*
X59829000Y-156933741D01*
X59794376Y-157107812D01*
X59726456Y-157271784D01*
X59627853Y-157419354D01*
X59502354Y-157544853D01*
X59354784Y-157643456D01*
X59190812Y-157711376D01*
X59041512Y-157741073D01*
X59016742Y-157746000D01*
X58839258Y-157746000D01*
X58814488Y-157741073D01*
X58665188Y-157711376D01*
X58501216Y-157643456D01*
X58353646Y-157544853D01*
X58228147Y-157419354D01*
X58129544Y-157271784D01*
X58061624Y-157107812D01*
X58027000Y-156933741D01*
X58027000Y-156756259D01*
X58061624Y-156582188D01*
X58129544Y-156418216D01*
X58228147Y-156270646D01*
X58353646Y-156145147D01*
X58501216Y-156046544D01*
X58665188Y-155978624D01*
X58814488Y-155948927D01*
X58839258Y-155944000D01*
X59016742Y-155944000D01*
X59041512Y-155948927D01*
G37*
G36*
X59041512Y-153408927D02*
G01*
X59190812Y-153438624D01*
X59354784Y-153506544D01*
X59502354Y-153605147D01*
X59627853Y-153730646D01*
X59726456Y-153878216D01*
X59794376Y-154042188D01*
X59829000Y-154216259D01*
X59829000Y-154393741D01*
X59794376Y-154567812D01*
X59726456Y-154731784D01*
X59627853Y-154879354D01*
X59502354Y-155004853D01*
X59354784Y-155103456D01*
X59190812Y-155171376D01*
X59041512Y-155201073D01*
X59016742Y-155206000D01*
X58839258Y-155206000D01*
X58814488Y-155201073D01*
X58665188Y-155171376D01*
X58501216Y-155103456D01*
X58353646Y-155004853D01*
X58228147Y-154879354D01*
X58129544Y-154731784D01*
X58061624Y-154567812D01*
X58027000Y-154393741D01*
X58027000Y-154216259D01*
X58061624Y-154042188D01*
X58129544Y-153878216D01*
X58228147Y-153730646D01*
X58353646Y-153605147D01*
X58501216Y-153506544D01*
X58665188Y-153438624D01*
X58814488Y-153408927D01*
X58839258Y-153404000D01*
X59016742Y-153404000D01*
X59041512Y-153408927D01*
G37*
G36*
X59041512Y-150868927D02*
G01*
X59190812Y-150898624D01*
X59354784Y-150966544D01*
X59502354Y-151065147D01*
X59627853Y-151190646D01*
X59726456Y-151338216D01*
X59794376Y-151502188D01*
X59829000Y-151676259D01*
X59829000Y-151853741D01*
X59794376Y-152027812D01*
X59726456Y-152191784D01*
X59627853Y-152339354D01*
X59502354Y-152464853D01*
X59354784Y-152563456D01*
X59190812Y-152631376D01*
X59041512Y-152661073D01*
X59016742Y-152666000D01*
X58839258Y-152666000D01*
X58814488Y-152661073D01*
X58665188Y-152631376D01*
X58501216Y-152563456D01*
X58353646Y-152464853D01*
X58228147Y-152339354D01*
X58129544Y-152191784D01*
X58061624Y-152027812D01*
X58027000Y-151853741D01*
X58027000Y-151676259D01*
X58061624Y-151502188D01*
X58129544Y-151338216D01*
X58228147Y-151190646D01*
X58353646Y-151065147D01*
X58501216Y-150966544D01*
X58665188Y-150898624D01*
X58814488Y-150868927D01*
X58839258Y-150864000D01*
X59016742Y-150864000D01*
X59041512Y-150868927D01*
G37*
G36*
X135253589Y-149352876D02*
G01*
X135352893Y-149372629D01*
X135493206Y-149430748D01*
X135619484Y-149515125D01*
X135726875Y-149622516D01*
X135811252Y-149748794D01*
X135869371Y-149889107D01*
X135899000Y-150038063D01*
X135899000Y-150189937D01*
X135869371Y-150338893D01*
X135811252Y-150479206D01*
X135726875Y-150605484D01*
X135619484Y-150712875D01*
X135493206Y-150797252D01*
X135352893Y-150855371D01*
X135253589Y-150875124D01*
X135203938Y-150885000D01*
X135052062Y-150885000D01*
X135002411Y-150875124D01*
X134903107Y-150855371D01*
X134762794Y-150797252D01*
X134636516Y-150712875D01*
X134529125Y-150605484D01*
X134444748Y-150479206D01*
X134386629Y-150338893D01*
X134357000Y-150189937D01*
X134357000Y-150038063D01*
X134386629Y-149889107D01*
X134444748Y-149748794D01*
X134529125Y-149622516D01*
X134636516Y-149515125D01*
X134762794Y-149430748D01*
X134903107Y-149372629D01*
X135002411Y-149352876D01*
X135052062Y-149343000D01*
X135203938Y-149343000D01*
X135253589Y-149352876D01*
G37*
G36*
X137793589Y-149352876D02*
G01*
X137892893Y-149372629D01*
X138033206Y-149430748D01*
X138159484Y-149515125D01*
X138266875Y-149622516D01*
X138351252Y-149748794D01*
X138409371Y-149889107D01*
X138439000Y-150038063D01*
X138439000Y-150189937D01*
X138409371Y-150338893D01*
X138351252Y-150479206D01*
X138266875Y-150605484D01*
X138159484Y-150712875D01*
X138033206Y-150797252D01*
X137892893Y-150855371D01*
X137793589Y-150875124D01*
X137743938Y-150885000D01*
X137592062Y-150885000D01*
X137542411Y-150875124D01*
X137443107Y-150855371D01*
X137302794Y-150797252D01*
X137176516Y-150712875D01*
X137069125Y-150605484D01*
X136984748Y-150479206D01*
X136926629Y-150338893D01*
X136897000Y-150189937D01*
X136897000Y-150038063D01*
X136926629Y-149889107D01*
X136984748Y-149748794D01*
X137069125Y-149622516D01*
X137176516Y-149515125D01*
X137302794Y-149430748D01*
X137443107Y-149372629D01*
X137542411Y-149352876D01*
X137592062Y-149343000D01*
X137743938Y-149343000D01*
X137793589Y-149352876D01*
G37*
G36*
X132713589Y-149352876D02*
G01*
X132812893Y-149372629D01*
X132953206Y-149430748D01*
X133079484Y-149515125D01*
X133186875Y-149622516D01*
X133271252Y-149748794D01*
X133329371Y-149889107D01*
X133359000Y-150038063D01*
X133359000Y-150189937D01*
X133329371Y-150338893D01*
X133271252Y-150479206D01*
X133186875Y-150605484D01*
X133079484Y-150712875D01*
X132953206Y-150797252D01*
X132812893Y-150855371D01*
X132713589Y-150875124D01*
X132663938Y-150885000D01*
X132512062Y-150885000D01*
X132462411Y-150875124D01*
X132363107Y-150855371D01*
X132222794Y-150797252D01*
X132096516Y-150712875D01*
X131989125Y-150605484D01*
X131904748Y-150479206D01*
X131846629Y-150338893D01*
X131817000Y-150189937D01*
X131817000Y-150038063D01*
X131846629Y-149889107D01*
X131904748Y-149748794D01*
X131989125Y-149622516D01*
X132096516Y-149515125D01*
X132222794Y-149430748D01*
X132363107Y-149372629D01*
X132462411Y-149352876D01*
X132512062Y-149343000D01*
X132663938Y-149343000D01*
X132713589Y-149352876D01*
G37*
G36*
X129026228Y-148406703D02*
G01*
X129181100Y-148470853D01*
X129320481Y-148563985D01*
X129439015Y-148682519D01*
X129532147Y-148821900D01*
X129596297Y-148976772D01*
X129629000Y-149141184D01*
X129629000Y-149308816D01*
X129596297Y-149473228D01*
X129532147Y-149628100D01*
X129439015Y-149767481D01*
X129320481Y-149886015D01*
X129181100Y-149979147D01*
X129026228Y-150043297D01*
X128861816Y-150076000D01*
X128694184Y-150076000D01*
X128529772Y-150043297D01*
X128374900Y-149979147D01*
X128235519Y-149886015D01*
X128116985Y-149767481D01*
X128023853Y-149628100D01*
X127959703Y-149473228D01*
X127927000Y-149308816D01*
X127927000Y-149141184D01*
X127959703Y-148976772D01*
X128023853Y-148821900D01*
X128116985Y-148682519D01*
X128235519Y-148563985D01*
X128374900Y-148470853D01*
X128529772Y-148406703D01*
X128694184Y-148374000D01*
X128861816Y-148374000D01*
X129026228Y-148406703D01*
G37*
G36*
X141726228Y-148406703D02*
G01*
X141881100Y-148470853D01*
X142020481Y-148563985D01*
X142139015Y-148682519D01*
X142232147Y-148821900D01*
X142296297Y-148976772D01*
X142329000Y-149141184D01*
X142329000Y-149308816D01*
X142296297Y-149473228D01*
X142232147Y-149628100D01*
X142139015Y-149767481D01*
X142020481Y-149886015D01*
X141881100Y-149979147D01*
X141726228Y-150043297D01*
X141561816Y-150076000D01*
X141394184Y-150076000D01*
X141229772Y-150043297D01*
X141074900Y-149979147D01*
X140935519Y-149886015D01*
X140816985Y-149767481D01*
X140723853Y-149628100D01*
X140659703Y-149473228D01*
X140627000Y-149308816D01*
X140627000Y-149141184D01*
X140659703Y-148976772D01*
X140723853Y-148821900D01*
X140816985Y-148682519D01*
X140935519Y-148563985D01*
X141074900Y-148470853D01*
X141229772Y-148406703D01*
X141394184Y-148374000D01*
X141561816Y-148374000D01*
X141726228Y-148406703D01*
G37*
G36*
X103626228Y-148406703D02*
G01*
X103781100Y-148470853D01*
X103920481Y-148563985D01*
X104039015Y-148682519D01*
X104132147Y-148821900D01*
X104196297Y-148976772D01*
X104229000Y-149141184D01*
X104229000Y-149308816D01*
X104196297Y-149473228D01*
X104132147Y-149628100D01*
X104039015Y-149767481D01*
X103920481Y-149886015D01*
X103781100Y-149979147D01*
X103626228Y-150043297D01*
X103461816Y-150076000D01*
X103294184Y-150076000D01*
X103129772Y-150043297D01*
X102974900Y-149979147D01*
X102835519Y-149886015D01*
X102716985Y-149767481D01*
X102623853Y-149628100D01*
X102559703Y-149473228D01*
X102527000Y-149308816D01*
X102527000Y-149141184D01*
X102559703Y-148976772D01*
X102623853Y-148821900D01*
X102716985Y-148682519D01*
X102835519Y-148563985D01*
X102974900Y-148470853D01*
X103129772Y-148406703D01*
X103294184Y-148374000D01*
X103461816Y-148374000D01*
X103626228Y-148406703D01*
G37*
G36*
X78226228Y-148406703D02*
G01*
X78381100Y-148470853D01*
X78520481Y-148563985D01*
X78639015Y-148682519D01*
X78732147Y-148821900D01*
X78796297Y-148976772D01*
X78829000Y-149141184D01*
X78829000Y-149308816D01*
X78796297Y-149473228D01*
X78732147Y-149628100D01*
X78639015Y-149767481D01*
X78520481Y-149886015D01*
X78381100Y-149979147D01*
X78226228Y-150043297D01*
X78061816Y-150076000D01*
X77894184Y-150076000D01*
X77729772Y-150043297D01*
X77574900Y-149979147D01*
X77435519Y-149886015D01*
X77316985Y-149767481D01*
X77223853Y-149628100D01*
X77159703Y-149473228D01*
X77127000Y-149308816D01*
X77127000Y-149141184D01*
X77159703Y-148976772D01*
X77223853Y-148821900D01*
X77316985Y-148682519D01*
X77435519Y-148563985D01*
X77574900Y-148470853D01*
X77729772Y-148406703D01*
X77894184Y-148374000D01*
X78061816Y-148374000D01*
X78226228Y-148406703D01*
G37*
G36*
X90926228Y-148406703D02*
G01*
X91081100Y-148470853D01*
X91220481Y-148563985D01*
X91339015Y-148682519D01*
X91432147Y-148821900D01*
X91496297Y-148976772D01*
X91529000Y-149141184D01*
X91529000Y-149308816D01*
X91496297Y-149473228D01*
X91432147Y-149628100D01*
X91339015Y-149767481D01*
X91220481Y-149886015D01*
X91081100Y-149979147D01*
X90926228Y-150043297D01*
X90761816Y-150076000D01*
X90594184Y-150076000D01*
X90429772Y-150043297D01*
X90274900Y-149979147D01*
X90135519Y-149886015D01*
X90016985Y-149767481D01*
X89923853Y-149628100D01*
X89859703Y-149473228D01*
X89827000Y-149308816D01*
X89827000Y-149141184D01*
X89859703Y-148976772D01*
X89923853Y-148821900D01*
X90016985Y-148682519D01*
X90135519Y-148563985D01*
X90274900Y-148470853D01*
X90429772Y-148406703D01*
X90594184Y-148374000D01*
X90761816Y-148374000D01*
X90926228Y-148406703D01*
G37*
G36*
X116326228Y-148406703D02*
G01*
X116481100Y-148470853D01*
X116620481Y-148563985D01*
X116739015Y-148682519D01*
X116832147Y-148821900D01*
X116896297Y-148976772D01*
X116929000Y-149141184D01*
X116929000Y-149308816D01*
X116896297Y-149473228D01*
X116832147Y-149628100D01*
X116739015Y-149767481D01*
X116620481Y-149886015D01*
X116481100Y-149979147D01*
X116326228Y-150043297D01*
X116161816Y-150076000D01*
X115994184Y-150076000D01*
X115829772Y-150043297D01*
X115674900Y-149979147D01*
X115535519Y-149886015D01*
X115416985Y-149767481D01*
X115323853Y-149628100D01*
X115259703Y-149473228D01*
X115227000Y-149308816D01*
X115227000Y-149141184D01*
X115259703Y-148976772D01*
X115323853Y-148821900D01*
X115416985Y-148682519D01*
X115535519Y-148563985D01*
X115674900Y-148470853D01*
X115829772Y-148406703D01*
X115994184Y-148374000D01*
X116161816Y-148374000D01*
X116326228Y-148406703D01*
G37*
G36*
X163384800Y-149414800D02*
G01*
X161582800Y-149414800D01*
X161582800Y-147612800D01*
X163384800Y-147612800D01*
X163384800Y-149414800D01*
G37*
G36*
X107440589Y-147701876D02*
G01*
X107539893Y-147721629D01*
X107680206Y-147779748D01*
X107806484Y-147864125D01*
X107913875Y-147971516D01*
X107998252Y-148097794D01*
X108056371Y-148238107D01*
X108086000Y-148387063D01*
X108086000Y-148538937D01*
X108056371Y-148687893D01*
X107998252Y-148828206D01*
X107913875Y-148954484D01*
X107806484Y-149061875D01*
X107680206Y-149146252D01*
X107539893Y-149204371D01*
X107440589Y-149224124D01*
X107390938Y-149234000D01*
X107239062Y-149234000D01*
X107189411Y-149224124D01*
X107090107Y-149204371D01*
X106949794Y-149146252D01*
X106823516Y-149061875D01*
X106716125Y-148954484D01*
X106631748Y-148828206D01*
X106573629Y-148687893D01*
X106544000Y-148538937D01*
X106544000Y-148387063D01*
X106573629Y-148238107D01*
X106631748Y-148097794D01*
X106716125Y-147971516D01*
X106823516Y-147864125D01*
X106949794Y-147779748D01*
X107090107Y-147721629D01*
X107189411Y-147701876D01*
X107239062Y-147692000D01*
X107390938Y-147692000D01*
X107440589Y-147701876D01*
G37*
G36*
X109980589Y-147701876D02*
G01*
X110079893Y-147721629D01*
X110220206Y-147779748D01*
X110346484Y-147864125D01*
X110453875Y-147971516D01*
X110538252Y-148097794D01*
X110596371Y-148238107D01*
X110626000Y-148387063D01*
X110626000Y-148538937D01*
X110596371Y-148687893D01*
X110538252Y-148828206D01*
X110453875Y-148954484D01*
X110346484Y-149061875D01*
X110220206Y-149146252D01*
X110079893Y-149204371D01*
X109980589Y-149224124D01*
X109930938Y-149234000D01*
X109779062Y-149234000D01*
X109729411Y-149224124D01*
X109630107Y-149204371D01*
X109489794Y-149146252D01*
X109363516Y-149061875D01*
X109256125Y-148954484D01*
X109171748Y-148828206D01*
X109113629Y-148687893D01*
X109084000Y-148538937D01*
X109084000Y-148387063D01*
X109113629Y-148238107D01*
X109171748Y-148097794D01*
X109256125Y-147971516D01*
X109363516Y-147864125D01*
X109489794Y-147779748D01*
X109630107Y-147721629D01*
X109729411Y-147701876D01*
X109779062Y-147692000D01*
X109930938Y-147692000D01*
X109980589Y-147701876D01*
G37*
G36*
X112520589Y-147701876D02*
G01*
X112619893Y-147721629D01*
X112760206Y-147779748D01*
X112886484Y-147864125D01*
X112993875Y-147971516D01*
X113078252Y-148097794D01*
X113136371Y-148238107D01*
X113166000Y-148387063D01*
X113166000Y-148538937D01*
X113136371Y-148687893D01*
X113078252Y-148828206D01*
X112993875Y-148954484D01*
X112886484Y-149061875D01*
X112760206Y-149146252D01*
X112619893Y-149204371D01*
X112520589Y-149224124D01*
X112470938Y-149234000D01*
X112319062Y-149234000D01*
X112269411Y-149224124D01*
X112170107Y-149204371D01*
X112029794Y-149146252D01*
X111903516Y-149061875D01*
X111796125Y-148954484D01*
X111711748Y-148828206D01*
X111653629Y-148687893D01*
X111624000Y-148538937D01*
X111624000Y-148387063D01*
X111653629Y-148238107D01*
X111711748Y-148097794D01*
X111796125Y-147971516D01*
X111903516Y-147864125D01*
X112029794Y-147779748D01*
X112170107Y-147721629D01*
X112269411Y-147701876D01*
X112319062Y-147692000D01*
X112470938Y-147692000D01*
X112520589Y-147701876D01*
G37*
G36*
X82040589Y-147701876D02*
G01*
X82139893Y-147721629D01*
X82280206Y-147779748D01*
X82406484Y-147864125D01*
X82513875Y-147971516D01*
X82598252Y-148097794D01*
X82656371Y-148238107D01*
X82686000Y-148387063D01*
X82686000Y-148538937D01*
X82656371Y-148687893D01*
X82598252Y-148828206D01*
X82513875Y-148954484D01*
X82406484Y-149061875D01*
X82280206Y-149146252D01*
X82139893Y-149204371D01*
X82040589Y-149224124D01*
X81990938Y-149234000D01*
X81839062Y-149234000D01*
X81789411Y-149224124D01*
X81690107Y-149204371D01*
X81549794Y-149146252D01*
X81423516Y-149061875D01*
X81316125Y-148954484D01*
X81231748Y-148828206D01*
X81173629Y-148687893D01*
X81144000Y-148538937D01*
X81144000Y-148387063D01*
X81173629Y-148238107D01*
X81231748Y-148097794D01*
X81316125Y-147971516D01*
X81423516Y-147864125D01*
X81549794Y-147779748D01*
X81690107Y-147721629D01*
X81789411Y-147701876D01*
X81839062Y-147692000D01*
X81990938Y-147692000D01*
X82040589Y-147701876D01*
G37*
G36*
X84580589Y-147701876D02*
G01*
X84679893Y-147721629D01*
X84820206Y-147779748D01*
X84946484Y-147864125D01*
X85053875Y-147971516D01*
X85138252Y-148097794D01*
X85196371Y-148238107D01*
X85226000Y-148387063D01*
X85226000Y-148538937D01*
X85196371Y-148687893D01*
X85138252Y-148828206D01*
X85053875Y-148954484D01*
X84946484Y-149061875D01*
X84820206Y-149146252D01*
X84679893Y-149204371D01*
X84580589Y-149224124D01*
X84530938Y-149234000D01*
X84379062Y-149234000D01*
X84329411Y-149224124D01*
X84230107Y-149204371D01*
X84089794Y-149146252D01*
X83963516Y-149061875D01*
X83856125Y-148954484D01*
X83771748Y-148828206D01*
X83713629Y-148687893D01*
X83684000Y-148538937D01*
X83684000Y-148387063D01*
X83713629Y-148238107D01*
X83771748Y-148097794D01*
X83856125Y-147971516D01*
X83963516Y-147864125D01*
X84089794Y-147779748D01*
X84230107Y-147721629D01*
X84329411Y-147701876D01*
X84379062Y-147692000D01*
X84530938Y-147692000D01*
X84580589Y-147701876D01*
G37*
G36*
X87120589Y-147701876D02*
G01*
X87219893Y-147721629D01*
X87360206Y-147779748D01*
X87486484Y-147864125D01*
X87593875Y-147971516D01*
X87678252Y-148097794D01*
X87736371Y-148238107D01*
X87766000Y-148387063D01*
X87766000Y-148538937D01*
X87736371Y-148687893D01*
X87678252Y-148828206D01*
X87593875Y-148954484D01*
X87486484Y-149061875D01*
X87360206Y-149146252D01*
X87219893Y-149204371D01*
X87120589Y-149224124D01*
X87070938Y-149234000D01*
X86919062Y-149234000D01*
X86869411Y-149224124D01*
X86770107Y-149204371D01*
X86629794Y-149146252D01*
X86503516Y-149061875D01*
X86396125Y-148954484D01*
X86311748Y-148828206D01*
X86253629Y-148687893D01*
X86224000Y-148538937D01*
X86224000Y-148387063D01*
X86253629Y-148238107D01*
X86311748Y-148097794D01*
X86396125Y-147971516D01*
X86503516Y-147864125D01*
X86629794Y-147779748D01*
X86770107Y-147721629D01*
X86869411Y-147701876D01*
X86919062Y-147692000D01*
X87070938Y-147692000D01*
X87120589Y-147701876D01*
G37*
G36*
X137996228Y-144596703D02*
G01*
X138151100Y-144660853D01*
X138290481Y-144753985D01*
X138409015Y-144872519D01*
X138502147Y-145011900D01*
X138566297Y-145166772D01*
X138599000Y-145331184D01*
X138599000Y-145498816D01*
X138566297Y-145663228D01*
X138502147Y-145818100D01*
X138409015Y-145957481D01*
X138290481Y-146076015D01*
X138151100Y-146169147D01*
X137996228Y-146233297D01*
X137831816Y-146266000D01*
X137664184Y-146266000D01*
X137499772Y-146233297D01*
X137344900Y-146169147D01*
X137205519Y-146076015D01*
X137086985Y-145957481D01*
X136993853Y-145818100D01*
X136929703Y-145663228D01*
X136897000Y-145498816D01*
X136897000Y-145331184D01*
X136929703Y-145166772D01*
X136993853Y-145011900D01*
X137086985Y-144872519D01*
X137205519Y-144753985D01*
X137344900Y-144660853D01*
X137499772Y-144596703D01*
X137664184Y-144564000D01*
X137831816Y-144564000D01*
X137996228Y-144596703D01*
G37*
G36*
X90926228Y-144596703D02*
G01*
X91081100Y-144660853D01*
X91220481Y-144753985D01*
X91339015Y-144872519D01*
X91432147Y-145011900D01*
X91496297Y-145166772D01*
X91529000Y-145331184D01*
X91529000Y-145498816D01*
X91496297Y-145663228D01*
X91432147Y-145818100D01*
X91339015Y-145957481D01*
X91220481Y-146076015D01*
X91081100Y-146169147D01*
X90926228Y-146233297D01*
X90761816Y-146266000D01*
X90594184Y-146266000D01*
X90429772Y-146233297D01*
X90274900Y-146169147D01*
X90135519Y-146076015D01*
X90016985Y-145957481D01*
X89923853Y-145818100D01*
X89859703Y-145663228D01*
X89827000Y-145498816D01*
X89827000Y-145331184D01*
X89859703Y-145166772D01*
X89923853Y-145011900D01*
X90016985Y-144872519D01*
X90135519Y-144753985D01*
X90274900Y-144660853D01*
X90429772Y-144596703D01*
X90594184Y-144564000D01*
X90761816Y-144564000D01*
X90926228Y-144596703D01*
G37*
G36*
X65526228Y-144596703D02*
G01*
X65681100Y-144660853D01*
X65820481Y-144753985D01*
X65939015Y-144872519D01*
X66032147Y-145011900D01*
X66096297Y-145166772D01*
X66129000Y-145331184D01*
X66129000Y-145498816D01*
X66096297Y-145663228D01*
X66032147Y-145818100D01*
X65939015Y-145957481D01*
X65820481Y-146076015D01*
X65681100Y-146169147D01*
X65526228Y-146233297D01*
X65361816Y-146266000D01*
X65194184Y-146266000D01*
X65029772Y-146233297D01*
X64874900Y-146169147D01*
X64735519Y-146076015D01*
X64616985Y-145957481D01*
X64523853Y-145818100D01*
X64459703Y-145663228D01*
X64427000Y-145498816D01*
X64427000Y-145331184D01*
X64459703Y-145166772D01*
X64523853Y-145011900D01*
X64616985Y-144872519D01*
X64735519Y-144753985D01*
X64874900Y-144660853D01*
X65029772Y-144596703D01*
X65194184Y-144564000D01*
X65361816Y-144564000D01*
X65526228Y-144596703D01*
G37*
G36*
X78226228Y-144596703D02*
G01*
X78381100Y-144660853D01*
X78520481Y-144753985D01*
X78639015Y-144872519D01*
X78732147Y-145011900D01*
X78796297Y-145166772D01*
X78829000Y-145331184D01*
X78829000Y-145498816D01*
X78796297Y-145663228D01*
X78732147Y-145818100D01*
X78639015Y-145957481D01*
X78520481Y-146076015D01*
X78381100Y-146169147D01*
X78226228Y-146233297D01*
X78061816Y-146266000D01*
X77894184Y-146266000D01*
X77729772Y-146233297D01*
X77574900Y-146169147D01*
X77435519Y-146076015D01*
X77316985Y-145957481D01*
X77223853Y-145818100D01*
X77159703Y-145663228D01*
X77127000Y-145498816D01*
X77127000Y-145331184D01*
X77159703Y-145166772D01*
X77223853Y-145011900D01*
X77316985Y-144872519D01*
X77435519Y-144753985D01*
X77574900Y-144660853D01*
X77729772Y-144596703D01*
X77894184Y-144564000D01*
X78061816Y-144564000D01*
X78226228Y-144596703D01*
G37*
G36*
X129026228Y-144596703D02*
G01*
X129181100Y-144660853D01*
X129320481Y-144753985D01*
X129439015Y-144872519D01*
X129532147Y-145011900D01*
X129596297Y-145166772D01*
X129629000Y-145331184D01*
X129629000Y-145498816D01*
X129596297Y-145663228D01*
X129532147Y-145818100D01*
X129439015Y-145957481D01*
X129320481Y-146076015D01*
X129181100Y-146169147D01*
X129026228Y-146233297D01*
X128861816Y-146266000D01*
X128694184Y-146266000D01*
X128529772Y-146233297D01*
X128374900Y-146169147D01*
X128235519Y-146076015D01*
X128116985Y-145957481D01*
X128023853Y-145818100D01*
X127959703Y-145663228D01*
X127927000Y-145498816D01*
X127927000Y-145331184D01*
X127959703Y-145166772D01*
X128023853Y-145011900D01*
X128116985Y-144872519D01*
X128235519Y-144753985D01*
X128374900Y-144660853D01*
X128529772Y-144596703D01*
X128694184Y-144564000D01*
X128861816Y-144564000D01*
X129026228Y-144596703D01*
G37*
G36*
X116326228Y-144596703D02*
G01*
X116481100Y-144660853D01*
X116620481Y-144753985D01*
X116739015Y-144872519D01*
X116832147Y-145011900D01*
X116896297Y-145166772D01*
X116929000Y-145331184D01*
X116929000Y-145498816D01*
X116896297Y-145663228D01*
X116832147Y-145818100D01*
X116739015Y-145957481D01*
X116620481Y-146076015D01*
X116481100Y-146169147D01*
X116326228Y-146233297D01*
X116161816Y-146266000D01*
X115994184Y-146266000D01*
X115829772Y-146233297D01*
X115674900Y-146169147D01*
X115535519Y-146076015D01*
X115416985Y-145957481D01*
X115323853Y-145818100D01*
X115259703Y-145663228D01*
X115227000Y-145498816D01*
X115227000Y-145331184D01*
X115259703Y-145166772D01*
X115323853Y-145011900D01*
X115416985Y-144872519D01*
X115535519Y-144753985D01*
X115674900Y-144660853D01*
X115829772Y-144596703D01*
X115994184Y-144564000D01*
X116161816Y-144564000D01*
X116326228Y-144596703D01*
G37*
G36*
X103626228Y-144596703D02*
G01*
X103781100Y-144660853D01*
X103920481Y-144753985D01*
X104039015Y-144872519D01*
X104132147Y-145011900D01*
X104196297Y-145166772D01*
X104229000Y-145331184D01*
X104229000Y-145498816D01*
X104196297Y-145663228D01*
X104132147Y-145818100D01*
X104039015Y-145957481D01*
X103920481Y-146076015D01*
X103781100Y-146169147D01*
X103626228Y-146233297D01*
X103461816Y-146266000D01*
X103294184Y-146266000D01*
X103129772Y-146233297D01*
X102974900Y-146169147D01*
X102835519Y-146076015D01*
X102716985Y-145957481D01*
X102623853Y-145818100D01*
X102559703Y-145663228D01*
X102527000Y-145498816D01*
X102527000Y-145331184D01*
X102559703Y-145166772D01*
X102623853Y-145011900D01*
X102716985Y-144872519D01*
X102835519Y-144753985D01*
X102974900Y-144660853D01*
X103129772Y-144596703D01*
X103294184Y-144564000D01*
X103461816Y-144564000D01*
X103626228Y-144596703D01*
G37*
G36*
X142996228Y-144596703D02*
G01*
X143151100Y-144660853D01*
X143290481Y-144753985D01*
X143409015Y-144872519D01*
X143502147Y-145011900D01*
X143566297Y-145166772D01*
X143599000Y-145331184D01*
X143599000Y-145498816D01*
X143566297Y-145663228D01*
X143502147Y-145818100D01*
X143409015Y-145957481D01*
X143290481Y-146076015D01*
X143151100Y-146169147D01*
X142996228Y-146233297D01*
X142831816Y-146266000D01*
X142664184Y-146266000D01*
X142499772Y-146233297D01*
X142344900Y-146169147D01*
X142205519Y-146076015D01*
X142086985Y-145957481D01*
X141993853Y-145818100D01*
X141929703Y-145663228D01*
X141897000Y-145498816D01*
X141897000Y-145331184D01*
X141929703Y-145166772D01*
X141993853Y-145011900D01*
X142086985Y-144872519D01*
X142205519Y-144753985D01*
X142344900Y-144660853D01*
X142499772Y-144596703D01*
X142664184Y-144564000D01*
X142831816Y-144564000D01*
X142996228Y-144596703D01*
G37*
G36*
X124966589Y-143891876D02*
G01*
X125065893Y-143911629D01*
X125206206Y-143969748D01*
X125332484Y-144054125D01*
X125439875Y-144161516D01*
X125524252Y-144287794D01*
X125582371Y-144428107D01*
X125612000Y-144577063D01*
X125612000Y-144728937D01*
X125582371Y-144877893D01*
X125524252Y-145018206D01*
X125439875Y-145144484D01*
X125332484Y-145251875D01*
X125206206Y-145336252D01*
X125065893Y-145394371D01*
X124966589Y-145414124D01*
X124916938Y-145424000D01*
X124765062Y-145424000D01*
X124715411Y-145414124D01*
X124616107Y-145394371D01*
X124475794Y-145336252D01*
X124349516Y-145251875D01*
X124242125Y-145144484D01*
X124157748Y-145018206D01*
X124099629Y-144877893D01*
X124070000Y-144728937D01*
X124070000Y-144577063D01*
X124099629Y-144428107D01*
X124157748Y-144287794D01*
X124242125Y-144161516D01*
X124349516Y-144054125D01*
X124475794Y-143969748D01*
X124616107Y-143911629D01*
X124715411Y-143891876D01*
X124765062Y-143882000D01*
X124916938Y-143882000D01*
X124966589Y-143891876D01*
G37*
G36*
X119886589Y-143891876D02*
G01*
X119985893Y-143911629D01*
X120126206Y-143969748D01*
X120252484Y-144054125D01*
X120359875Y-144161516D01*
X120444252Y-144287794D01*
X120502371Y-144428107D01*
X120532000Y-144577063D01*
X120532000Y-144728937D01*
X120502371Y-144877893D01*
X120444252Y-145018206D01*
X120359875Y-145144484D01*
X120252484Y-145251875D01*
X120126206Y-145336252D01*
X119985893Y-145394371D01*
X119886589Y-145414124D01*
X119836938Y-145424000D01*
X119685062Y-145424000D01*
X119635411Y-145414124D01*
X119536107Y-145394371D01*
X119395794Y-145336252D01*
X119269516Y-145251875D01*
X119162125Y-145144484D01*
X119077748Y-145018206D01*
X119019629Y-144877893D01*
X118990000Y-144728937D01*
X118990000Y-144577063D01*
X119019629Y-144428107D01*
X119077748Y-144287794D01*
X119162125Y-144161516D01*
X119269516Y-144054125D01*
X119395794Y-143969748D01*
X119536107Y-143911629D01*
X119635411Y-143891876D01*
X119685062Y-143882000D01*
X119836938Y-143882000D01*
X119886589Y-143891876D01*
G37*
G36*
X122426589Y-143891876D02*
G01*
X122525893Y-143911629D01*
X122666206Y-143969748D01*
X122792484Y-144054125D01*
X122899875Y-144161516D01*
X122984252Y-144287794D01*
X123042371Y-144428107D01*
X123072000Y-144577063D01*
X123072000Y-144728937D01*
X123042371Y-144877893D01*
X122984252Y-145018206D01*
X122899875Y-145144484D01*
X122792484Y-145251875D01*
X122666206Y-145336252D01*
X122525893Y-145394371D01*
X122426589Y-145414124D01*
X122376938Y-145424000D01*
X122225062Y-145424000D01*
X122175411Y-145414124D01*
X122076107Y-145394371D01*
X121935794Y-145336252D01*
X121809516Y-145251875D01*
X121702125Y-145144484D01*
X121617748Y-145018206D01*
X121559629Y-144877893D01*
X121530000Y-144728937D01*
X121530000Y-144577063D01*
X121559629Y-144428107D01*
X121617748Y-144287794D01*
X121702125Y-144161516D01*
X121809516Y-144054125D01*
X121935794Y-143969748D01*
X122076107Y-143911629D01*
X122175411Y-143891876D01*
X122225062Y-143882000D01*
X122376938Y-143882000D01*
X122426589Y-143891876D01*
G37*
G36*
X94486589Y-143891876D02*
G01*
X94585893Y-143911629D01*
X94726206Y-143969748D01*
X94852484Y-144054125D01*
X94959875Y-144161516D01*
X95044252Y-144287794D01*
X95102371Y-144428107D01*
X95132000Y-144577063D01*
X95132000Y-144728937D01*
X95102371Y-144877893D01*
X95044252Y-145018206D01*
X94959875Y-145144484D01*
X94852484Y-145251875D01*
X94726206Y-145336252D01*
X94585893Y-145394371D01*
X94486589Y-145414124D01*
X94436938Y-145424000D01*
X94285062Y-145424000D01*
X94235411Y-145414124D01*
X94136107Y-145394371D01*
X93995794Y-145336252D01*
X93869516Y-145251875D01*
X93762125Y-145144484D01*
X93677748Y-145018206D01*
X93619629Y-144877893D01*
X93590000Y-144728937D01*
X93590000Y-144577063D01*
X93619629Y-144428107D01*
X93677748Y-144287794D01*
X93762125Y-144161516D01*
X93869516Y-144054125D01*
X93995794Y-143969748D01*
X94136107Y-143911629D01*
X94235411Y-143891876D01*
X94285062Y-143882000D01*
X94436938Y-143882000D01*
X94486589Y-143891876D01*
G37*
G36*
X97026589Y-143891876D02*
G01*
X97125893Y-143911629D01*
X97266206Y-143969748D01*
X97392484Y-144054125D01*
X97499875Y-144161516D01*
X97584252Y-144287794D01*
X97642371Y-144428107D01*
X97672000Y-144577063D01*
X97672000Y-144728937D01*
X97642371Y-144877893D01*
X97584252Y-145018206D01*
X97499875Y-145144484D01*
X97392484Y-145251875D01*
X97266206Y-145336252D01*
X97125893Y-145394371D01*
X97026589Y-145414124D01*
X96976938Y-145424000D01*
X96825062Y-145424000D01*
X96775411Y-145414124D01*
X96676107Y-145394371D01*
X96535794Y-145336252D01*
X96409516Y-145251875D01*
X96302125Y-145144484D01*
X96217748Y-145018206D01*
X96159629Y-144877893D01*
X96130000Y-144728937D01*
X96130000Y-144577063D01*
X96159629Y-144428107D01*
X96217748Y-144287794D01*
X96302125Y-144161516D01*
X96409516Y-144054125D01*
X96535794Y-143969748D01*
X96676107Y-143911629D01*
X96775411Y-143891876D01*
X96825062Y-143882000D01*
X96976938Y-143882000D01*
X97026589Y-143891876D01*
G37*
G36*
X99566589Y-143891876D02*
G01*
X99665893Y-143911629D01*
X99806206Y-143969748D01*
X99932484Y-144054125D01*
X100039875Y-144161516D01*
X100124252Y-144287794D01*
X100182371Y-144428107D01*
X100212000Y-144577063D01*
X100212000Y-144728937D01*
X100182371Y-144877893D01*
X100124252Y-145018206D01*
X100039875Y-145144484D01*
X99932484Y-145251875D01*
X99806206Y-145336252D01*
X99665893Y-145394371D01*
X99566589Y-145414124D01*
X99516938Y-145424000D01*
X99365062Y-145424000D01*
X99315411Y-145414124D01*
X99216107Y-145394371D01*
X99075794Y-145336252D01*
X98949516Y-145251875D01*
X98842125Y-145144484D01*
X98757748Y-145018206D01*
X98699629Y-144877893D01*
X98670000Y-144728937D01*
X98670000Y-144577063D01*
X98699629Y-144428107D01*
X98757748Y-144287794D01*
X98842125Y-144161516D01*
X98949516Y-144054125D01*
X99075794Y-143969748D01*
X99216107Y-143911629D01*
X99315411Y-143891876D01*
X99365062Y-143882000D01*
X99516938Y-143882000D01*
X99566589Y-143891876D01*
G37*
G36*
X69086589Y-143891876D02*
G01*
X69185893Y-143911629D01*
X69326206Y-143969748D01*
X69452484Y-144054125D01*
X69559875Y-144161516D01*
X69644252Y-144287794D01*
X69702371Y-144428107D01*
X69732000Y-144577063D01*
X69732000Y-144728937D01*
X69702371Y-144877893D01*
X69644252Y-145018206D01*
X69559875Y-145144484D01*
X69452484Y-145251875D01*
X69326206Y-145336252D01*
X69185893Y-145394371D01*
X69086589Y-145414124D01*
X69036938Y-145424000D01*
X68885062Y-145424000D01*
X68835411Y-145414124D01*
X68736107Y-145394371D01*
X68595794Y-145336252D01*
X68469516Y-145251875D01*
X68362125Y-145144484D01*
X68277748Y-145018206D01*
X68219629Y-144877893D01*
X68190000Y-144728937D01*
X68190000Y-144577063D01*
X68219629Y-144428107D01*
X68277748Y-144287794D01*
X68362125Y-144161516D01*
X68469516Y-144054125D01*
X68595794Y-143969748D01*
X68736107Y-143911629D01*
X68835411Y-143891876D01*
X68885062Y-143882000D01*
X69036938Y-143882000D01*
X69086589Y-143891876D01*
G37*
G36*
X71626589Y-143891876D02*
G01*
X71725893Y-143911629D01*
X71866206Y-143969748D01*
X71992484Y-144054125D01*
X72099875Y-144161516D01*
X72184252Y-144287794D01*
X72242371Y-144428107D01*
X72272000Y-144577063D01*
X72272000Y-144728937D01*
X72242371Y-144877893D01*
X72184252Y-145018206D01*
X72099875Y-145144484D01*
X71992484Y-145251875D01*
X71866206Y-145336252D01*
X71725893Y-145394371D01*
X71626589Y-145414124D01*
X71576938Y-145424000D01*
X71425062Y-145424000D01*
X71375411Y-145414124D01*
X71276107Y-145394371D01*
X71135794Y-145336252D01*
X71009516Y-145251875D01*
X70902125Y-145144484D01*
X70817748Y-145018206D01*
X70759629Y-144877893D01*
X70730000Y-144728937D01*
X70730000Y-144577063D01*
X70759629Y-144428107D01*
X70817748Y-144287794D01*
X70902125Y-144161516D01*
X71009516Y-144054125D01*
X71135794Y-143969748D01*
X71276107Y-143911629D01*
X71375411Y-143891876D01*
X71425062Y-143882000D01*
X71576938Y-143882000D01*
X71626589Y-143891876D01*
G37*
G36*
X74166589Y-143891876D02*
G01*
X74265893Y-143911629D01*
X74406206Y-143969748D01*
X74532484Y-144054125D01*
X74639875Y-144161516D01*
X74724252Y-144287794D01*
X74782371Y-144428107D01*
X74812000Y-144577063D01*
X74812000Y-144728937D01*
X74782371Y-144877893D01*
X74724252Y-145018206D01*
X74639875Y-145144484D01*
X74532484Y-145251875D01*
X74406206Y-145336252D01*
X74265893Y-145394371D01*
X74166589Y-145414124D01*
X74116938Y-145424000D01*
X73965062Y-145424000D01*
X73915411Y-145414124D01*
X73816107Y-145394371D01*
X73675794Y-145336252D01*
X73549516Y-145251875D01*
X73442125Y-145144484D01*
X73357748Y-145018206D01*
X73299629Y-144877893D01*
X73270000Y-144728937D01*
X73270000Y-144577063D01*
X73299629Y-144428107D01*
X73357748Y-144287794D01*
X73442125Y-144161516D01*
X73549516Y-144054125D01*
X73675794Y-143969748D01*
X73816107Y-143911629D01*
X73915411Y-143891876D01*
X73965062Y-143882000D01*
X74116938Y-143882000D01*
X74166589Y-143891876D01*
G37*
G36*
X113019000Y-139816000D02*
G01*
X111517000Y-139816000D01*
X111517000Y-138314000D01*
X113019000Y-138314000D01*
X113019000Y-139816000D01*
G37*
G36*
X144769000Y-139816000D02*
G01*
X143267000Y-139816000D01*
X143267000Y-138314000D01*
X144769000Y-138314000D01*
X144769000Y-139816000D01*
G37*
G36*
X138419000Y-139816000D02*
G01*
X136917000Y-139816000D01*
X136917000Y-138314000D01*
X138419000Y-138314000D01*
X138419000Y-139816000D01*
G37*
G36*
X132069000Y-139816000D02*
G01*
X130567000Y-139816000D01*
X130567000Y-138314000D01*
X132069000Y-138314000D01*
X132069000Y-139816000D01*
G37*
G36*
X125719000Y-139816000D02*
G01*
X124217000Y-139816000D01*
X124217000Y-138314000D01*
X125719000Y-138314000D01*
X125719000Y-139816000D01*
G37*
G36*
X119369000Y-139816000D02*
G01*
X117867000Y-139816000D01*
X117867000Y-138314000D01*
X119369000Y-138314000D01*
X119369000Y-139816000D01*
G37*
G36*
X106669000Y-139816000D02*
G01*
X105167000Y-139816000D01*
X105167000Y-138314000D01*
X106669000Y-138314000D01*
X106669000Y-139816000D01*
G37*
G36*
X93969000Y-139816000D02*
G01*
X92467000Y-139816000D01*
X92467000Y-138314000D01*
X93969000Y-138314000D01*
X93969000Y-139816000D01*
G37*
G36*
X87619000Y-139816000D02*
G01*
X86117000Y-139816000D01*
X86117000Y-138314000D01*
X87619000Y-138314000D01*
X87619000Y-139816000D01*
G37*
G36*
X81269000Y-139816000D02*
G01*
X79767000Y-139816000D01*
X79767000Y-138314000D01*
X81269000Y-138314000D01*
X81269000Y-139816000D01*
G37*
G36*
X74919000Y-139816000D02*
G01*
X73417000Y-139816000D01*
X73417000Y-138314000D01*
X74919000Y-138314000D01*
X74919000Y-139816000D01*
G37*
G36*
X68569000Y-139816000D02*
G01*
X67067000Y-139816000D01*
X67067000Y-138314000D01*
X68569000Y-138314000D01*
X68569000Y-139816000D01*
G37*
G36*
X151119000Y-139816000D02*
G01*
X149617000Y-139816000D01*
X149617000Y-138314000D01*
X151119000Y-138314000D01*
X151119000Y-139816000D01*
G37*
G36*
X100319000Y-139816000D02*
G01*
X98817000Y-139816000D01*
X98817000Y-138314000D01*
X100319000Y-138314000D01*
X100319000Y-139816000D01*
G37*
G36*
X80737059Y-133262860D02*
G01*
X80873732Y-133319472D01*
X80996735Y-133401660D01*
X81101340Y-133506265D01*
X81183528Y-133629268D01*
X81240140Y-133765941D01*
X81269000Y-133911033D01*
X81269000Y-134058967D01*
X81240140Y-134204059D01*
X81183528Y-134340732D01*
X81101340Y-134463735D01*
X80996735Y-134568340D01*
X80873732Y-134650528D01*
X80873731Y-134650529D01*
X80873730Y-134650529D01*
X80737059Y-134707140D01*
X80591968Y-134736000D01*
X80444032Y-134736000D01*
X80298941Y-134707140D01*
X80162270Y-134650529D01*
X80162269Y-134650529D01*
X80162268Y-134650528D01*
X80039265Y-134568340D01*
X79934660Y-134463735D01*
X79852472Y-134340732D01*
X79795860Y-134204059D01*
X79767000Y-134058967D01*
X79767000Y-133911033D01*
X79795860Y-133765941D01*
X79852472Y-133629268D01*
X79934660Y-133506265D01*
X80039265Y-133401660D01*
X80162268Y-133319472D01*
X80298941Y-133262860D01*
X80444032Y-133234000D01*
X80591968Y-133234000D01*
X80737059Y-133262860D01*
G37*
G36*
X112487059Y-133262860D02*
G01*
X112623732Y-133319472D01*
X112746735Y-133401660D01*
X112851340Y-133506265D01*
X112933528Y-133629268D01*
X112990140Y-133765941D01*
X113019000Y-133911033D01*
X113019000Y-134058967D01*
X112990140Y-134204059D01*
X112933528Y-134340732D01*
X112851340Y-134463735D01*
X112746735Y-134568340D01*
X112623732Y-134650528D01*
X112623731Y-134650529D01*
X112623730Y-134650529D01*
X112487059Y-134707140D01*
X112341968Y-134736000D01*
X112194032Y-134736000D01*
X112048941Y-134707140D01*
X111912270Y-134650529D01*
X111912269Y-134650529D01*
X111912268Y-134650528D01*
X111789265Y-134568340D01*
X111684660Y-134463735D01*
X111602472Y-134340732D01*
X111545860Y-134204059D01*
X111517000Y-134058967D01*
X111517000Y-133911033D01*
X111545860Y-133765941D01*
X111602472Y-133629268D01*
X111684660Y-133506265D01*
X111789265Y-133401660D01*
X111912268Y-133319472D01*
X112048941Y-133262860D01*
X112194032Y-133234000D01*
X112341968Y-133234000D01*
X112487059Y-133262860D01*
G37*
G36*
X125187059Y-133262860D02*
G01*
X125323732Y-133319472D01*
X125446735Y-133401660D01*
X125551340Y-133506265D01*
X125633528Y-133629268D01*
X125690140Y-133765941D01*
X125719000Y-133911033D01*
X125719000Y-134058967D01*
X125690140Y-134204059D01*
X125633528Y-134340732D01*
X125551340Y-134463735D01*
X125446735Y-134568340D01*
X125323732Y-134650528D01*
X125323731Y-134650529D01*
X125323730Y-134650529D01*
X125187059Y-134707140D01*
X125041968Y-134736000D01*
X124894032Y-134736000D01*
X124748941Y-134707140D01*
X124612270Y-134650529D01*
X124612269Y-134650529D01*
X124612268Y-134650528D01*
X124489265Y-134568340D01*
X124384660Y-134463735D01*
X124302472Y-134340732D01*
X124245860Y-134204059D01*
X124217000Y-134058967D01*
X124217000Y-133911033D01*
X124245860Y-133765941D01*
X124302472Y-133629268D01*
X124384660Y-133506265D01*
X124489265Y-133401660D01*
X124612268Y-133319472D01*
X124748941Y-133262860D01*
X124894032Y-133234000D01*
X125041968Y-133234000D01*
X125187059Y-133262860D01*
G37*
G36*
X106137059Y-133262860D02*
G01*
X106273732Y-133319472D01*
X106396735Y-133401660D01*
X106501340Y-133506265D01*
X106583528Y-133629268D01*
X106640140Y-133765941D01*
X106669000Y-133911033D01*
X106669000Y-134058967D01*
X106640140Y-134204059D01*
X106583528Y-134340732D01*
X106501340Y-134463735D01*
X106396735Y-134568340D01*
X106273732Y-134650528D01*
X106273731Y-134650529D01*
X106273730Y-134650529D01*
X106137059Y-134707140D01*
X105991968Y-134736000D01*
X105844032Y-134736000D01*
X105698941Y-134707140D01*
X105562270Y-134650529D01*
X105562269Y-134650529D01*
X105562268Y-134650528D01*
X105439265Y-134568340D01*
X105334660Y-134463735D01*
X105252472Y-134340732D01*
X105195860Y-134204059D01*
X105167000Y-134058967D01*
X105167000Y-133911033D01*
X105195860Y-133765941D01*
X105252472Y-133629268D01*
X105334660Y-133506265D01*
X105439265Y-133401660D01*
X105562268Y-133319472D01*
X105698941Y-133262860D01*
X105844032Y-133234000D01*
X105991968Y-133234000D01*
X106137059Y-133262860D01*
G37*
G36*
X118837059Y-133262860D02*
G01*
X118973732Y-133319472D01*
X119096735Y-133401660D01*
X119201340Y-133506265D01*
X119283528Y-133629268D01*
X119340140Y-133765941D01*
X119369000Y-133911033D01*
X119369000Y-134058967D01*
X119340140Y-134204059D01*
X119283528Y-134340732D01*
X119201340Y-134463735D01*
X119096735Y-134568340D01*
X118973732Y-134650528D01*
X118973731Y-134650529D01*
X118973730Y-134650529D01*
X118837059Y-134707140D01*
X118691968Y-134736000D01*
X118544032Y-134736000D01*
X118398941Y-134707140D01*
X118262270Y-134650529D01*
X118262269Y-134650529D01*
X118262268Y-134650528D01*
X118139265Y-134568340D01*
X118034660Y-134463735D01*
X117952472Y-134340732D01*
X117895860Y-134204059D01*
X117867000Y-134058967D01*
X117867000Y-133911033D01*
X117895860Y-133765941D01*
X117952472Y-133629268D01*
X118034660Y-133506265D01*
X118139265Y-133401660D01*
X118262268Y-133319472D01*
X118398941Y-133262860D01*
X118544032Y-133234000D01*
X118691968Y-133234000D01*
X118837059Y-133262860D01*
G37*
G36*
X93437059Y-133262860D02*
G01*
X93573732Y-133319472D01*
X93696735Y-133401660D01*
X93801340Y-133506265D01*
X93883528Y-133629268D01*
X93940140Y-133765941D01*
X93969000Y-133911033D01*
X93969000Y-134058967D01*
X93940140Y-134204059D01*
X93883528Y-134340732D01*
X93801340Y-134463735D01*
X93696735Y-134568340D01*
X93573732Y-134650528D01*
X93573731Y-134650529D01*
X93573730Y-134650529D01*
X93437059Y-134707140D01*
X93291968Y-134736000D01*
X93144032Y-134736000D01*
X92998941Y-134707140D01*
X92862270Y-134650529D01*
X92862269Y-134650529D01*
X92862268Y-134650528D01*
X92739265Y-134568340D01*
X92634660Y-134463735D01*
X92552472Y-134340732D01*
X92495860Y-134204059D01*
X92467000Y-134058967D01*
X92467000Y-133911033D01*
X92495860Y-133765941D01*
X92552472Y-133629268D01*
X92634660Y-133506265D01*
X92739265Y-133401660D01*
X92862268Y-133319472D01*
X92998941Y-133262860D01*
X93144032Y-133234000D01*
X93291968Y-133234000D01*
X93437059Y-133262860D01*
G37*
G36*
X131537059Y-133262860D02*
G01*
X131673732Y-133319472D01*
X131796735Y-133401660D01*
X131901340Y-133506265D01*
X131983528Y-133629268D01*
X132040140Y-133765941D01*
X132069000Y-133911033D01*
X132069000Y-134058967D01*
X132040140Y-134204059D01*
X131983528Y-134340732D01*
X131901340Y-134463735D01*
X131796735Y-134568340D01*
X131673732Y-134650528D01*
X131673731Y-134650529D01*
X131673730Y-134650529D01*
X131537059Y-134707140D01*
X131391968Y-134736000D01*
X131244032Y-134736000D01*
X131098941Y-134707140D01*
X130962270Y-134650529D01*
X130962269Y-134650529D01*
X130962268Y-134650528D01*
X130839265Y-134568340D01*
X130734660Y-134463735D01*
X130652472Y-134340732D01*
X130595860Y-134204059D01*
X130567000Y-134058967D01*
X130567000Y-133911033D01*
X130595860Y-133765941D01*
X130652472Y-133629268D01*
X130734660Y-133506265D01*
X130839265Y-133401660D01*
X130962268Y-133319472D01*
X131098941Y-133262860D01*
X131244032Y-133234000D01*
X131391968Y-133234000D01*
X131537059Y-133262860D01*
G37*
G36*
X68037059Y-133262860D02*
G01*
X68173732Y-133319472D01*
X68296735Y-133401660D01*
X68401340Y-133506265D01*
X68483528Y-133629268D01*
X68540140Y-133765941D01*
X68569000Y-133911033D01*
X68569000Y-134058967D01*
X68540140Y-134204059D01*
X68483528Y-134340732D01*
X68401340Y-134463735D01*
X68296735Y-134568340D01*
X68173732Y-134650528D01*
X68173731Y-134650529D01*
X68173730Y-134650529D01*
X68037059Y-134707140D01*
X67891968Y-134736000D01*
X67744032Y-134736000D01*
X67598941Y-134707140D01*
X67462270Y-134650529D01*
X67462269Y-134650529D01*
X67462268Y-134650528D01*
X67339265Y-134568340D01*
X67234660Y-134463735D01*
X67152472Y-134340732D01*
X67095860Y-134204059D01*
X67067000Y-134058967D01*
X67067000Y-133911033D01*
X67095860Y-133765941D01*
X67152472Y-133629268D01*
X67234660Y-133506265D01*
X67339265Y-133401660D01*
X67462268Y-133319472D01*
X67598941Y-133262860D01*
X67744032Y-133234000D01*
X67891968Y-133234000D01*
X68037059Y-133262860D01*
G37*
G36*
X144237059Y-133262860D02*
G01*
X144373732Y-133319472D01*
X144496735Y-133401660D01*
X144601340Y-133506265D01*
X144683528Y-133629268D01*
X144740140Y-133765941D01*
X144769000Y-133911033D01*
X144769000Y-134058967D01*
X144740140Y-134204059D01*
X144683528Y-134340732D01*
X144601340Y-134463735D01*
X144496735Y-134568340D01*
X144373732Y-134650528D01*
X144373731Y-134650529D01*
X144373730Y-134650529D01*
X144237059Y-134707140D01*
X144091968Y-134736000D01*
X143944032Y-134736000D01*
X143798941Y-134707140D01*
X143662270Y-134650529D01*
X143662269Y-134650529D01*
X143662268Y-134650528D01*
X143539265Y-134568340D01*
X143434660Y-134463735D01*
X143352472Y-134340732D01*
X143295860Y-134204059D01*
X143267000Y-134058967D01*
X143267000Y-133911033D01*
X143295860Y-133765941D01*
X143352472Y-133629268D01*
X143434660Y-133506265D01*
X143539265Y-133401660D01*
X143662268Y-133319472D01*
X143798941Y-133262860D01*
X143944032Y-133234000D01*
X144091968Y-133234000D01*
X144237059Y-133262860D01*
G37*
G36*
X74387059Y-133262860D02*
G01*
X74523732Y-133319472D01*
X74646735Y-133401660D01*
X74751340Y-133506265D01*
X74833528Y-133629268D01*
X74890140Y-133765941D01*
X74919000Y-133911033D01*
X74919000Y-134058967D01*
X74890140Y-134204059D01*
X74833528Y-134340732D01*
X74751340Y-134463735D01*
X74646735Y-134568340D01*
X74523732Y-134650528D01*
X74523731Y-134650529D01*
X74523730Y-134650529D01*
X74387059Y-134707140D01*
X74241968Y-134736000D01*
X74094032Y-134736000D01*
X73948941Y-134707140D01*
X73812270Y-134650529D01*
X73812269Y-134650529D01*
X73812268Y-134650528D01*
X73689265Y-134568340D01*
X73584660Y-134463735D01*
X73502472Y-134340732D01*
X73445860Y-134204059D01*
X73417000Y-134058967D01*
X73417000Y-133911033D01*
X73445860Y-133765941D01*
X73502472Y-133629268D01*
X73584660Y-133506265D01*
X73689265Y-133401660D01*
X73812268Y-133319472D01*
X73948941Y-133262860D01*
X74094032Y-133234000D01*
X74241968Y-133234000D01*
X74387059Y-133262860D01*
G37*
G36*
X137887059Y-133262860D02*
G01*
X138023732Y-133319472D01*
X138146735Y-133401660D01*
X138251340Y-133506265D01*
X138333528Y-133629268D01*
X138390140Y-133765941D01*
X138419000Y-133911033D01*
X138419000Y-134058967D01*
X138390140Y-134204059D01*
X138333528Y-134340732D01*
X138251340Y-134463735D01*
X138146735Y-134568340D01*
X138023732Y-134650528D01*
X138023731Y-134650529D01*
X138023730Y-134650529D01*
X137887059Y-134707140D01*
X137741968Y-134736000D01*
X137594032Y-134736000D01*
X137448941Y-134707140D01*
X137312270Y-134650529D01*
X137312269Y-134650529D01*
X137312268Y-134650528D01*
X137189265Y-134568340D01*
X137084660Y-134463735D01*
X137002472Y-134340732D01*
X136945860Y-134204059D01*
X136917000Y-134058967D01*
X136917000Y-133911033D01*
X136945860Y-133765941D01*
X137002472Y-133629268D01*
X137084660Y-133506265D01*
X137189265Y-133401660D01*
X137312268Y-133319472D01*
X137448941Y-133262860D01*
X137594032Y-133234000D01*
X137741968Y-133234000D01*
X137887059Y-133262860D01*
G37*
G36*
X87087059Y-133262860D02*
G01*
X87223732Y-133319472D01*
X87346735Y-133401660D01*
X87451340Y-133506265D01*
X87533528Y-133629268D01*
X87590140Y-133765941D01*
X87619000Y-133911033D01*
X87619000Y-134058967D01*
X87590140Y-134204059D01*
X87533528Y-134340732D01*
X87451340Y-134463735D01*
X87346735Y-134568340D01*
X87223732Y-134650528D01*
X87223731Y-134650529D01*
X87223730Y-134650529D01*
X87087059Y-134707140D01*
X86941968Y-134736000D01*
X86794032Y-134736000D01*
X86648941Y-134707140D01*
X86512270Y-134650529D01*
X86512269Y-134650529D01*
X86512268Y-134650528D01*
X86389265Y-134568340D01*
X86284660Y-134463735D01*
X86202472Y-134340732D01*
X86145860Y-134204059D01*
X86117000Y-134058967D01*
X86117000Y-133911033D01*
X86145860Y-133765941D01*
X86202472Y-133629268D01*
X86284660Y-133506265D01*
X86389265Y-133401660D01*
X86512268Y-133319472D01*
X86648941Y-133262860D01*
X86794032Y-133234000D01*
X86941968Y-133234000D01*
X87087059Y-133262860D01*
G37*
G36*
X99787059Y-133262860D02*
G01*
X99923732Y-133319472D01*
X100046735Y-133401660D01*
X100151340Y-133506265D01*
X100233528Y-133629268D01*
X100290140Y-133765941D01*
X100319000Y-133911033D01*
X100319000Y-134058967D01*
X100290140Y-134204059D01*
X100233528Y-134340732D01*
X100151340Y-134463735D01*
X100046735Y-134568340D01*
X99923732Y-134650528D01*
X99923731Y-134650529D01*
X99923730Y-134650529D01*
X99787059Y-134707140D01*
X99641968Y-134736000D01*
X99494032Y-134736000D01*
X99348941Y-134707140D01*
X99212270Y-134650529D01*
X99212269Y-134650529D01*
X99212268Y-134650528D01*
X99089265Y-134568340D01*
X98984660Y-134463735D01*
X98902472Y-134340732D01*
X98845860Y-134204059D01*
X98817000Y-134058967D01*
X98817000Y-133911033D01*
X98845860Y-133765941D01*
X98902472Y-133629268D01*
X98984660Y-133506265D01*
X99089265Y-133401660D01*
X99212268Y-133319472D01*
X99348941Y-133262860D01*
X99494032Y-133234000D01*
X99641968Y-133234000D01*
X99787059Y-133262860D01*
G37*
G36*
X150587059Y-133262860D02*
G01*
X150723732Y-133319472D01*
X150846735Y-133401660D01*
X150951340Y-133506265D01*
X151033528Y-133629268D01*
X151090140Y-133765941D01*
X151119000Y-133911033D01*
X151119000Y-134058967D01*
X151090140Y-134204059D01*
X151033528Y-134340732D01*
X150951340Y-134463735D01*
X150846735Y-134568340D01*
X150723732Y-134650528D01*
X150723731Y-134650529D01*
X150723730Y-134650529D01*
X150587059Y-134707140D01*
X150441968Y-134736000D01*
X150294032Y-134736000D01*
X150148941Y-134707140D01*
X150012270Y-134650529D01*
X150012269Y-134650529D01*
X150012268Y-134650528D01*
X149889265Y-134568340D01*
X149784660Y-134463735D01*
X149702472Y-134340732D01*
X149645860Y-134204059D01*
X149617000Y-134058967D01*
X149617000Y-133911033D01*
X149645860Y-133765941D01*
X149702472Y-133629268D01*
X149784660Y-133506265D01*
X149889265Y-133401660D01*
X150012268Y-133319472D01*
X150148941Y-133262860D01*
X150294032Y-133234000D01*
X150441968Y-133234000D01*
X150587059Y-133262860D01*
G37*
G36*
X106137059Y-128182860D02*
G01*
X106273732Y-128239472D01*
X106396735Y-128321660D01*
X106501340Y-128426265D01*
X106583528Y-128549268D01*
X106640140Y-128685941D01*
X106669000Y-128831033D01*
X106669000Y-128978967D01*
X106640140Y-129124059D01*
X106583528Y-129260732D01*
X106501340Y-129383735D01*
X106396735Y-129488340D01*
X106273732Y-129570528D01*
X106273731Y-129570529D01*
X106273730Y-129570529D01*
X106137059Y-129627140D01*
X105991968Y-129656000D01*
X105844032Y-129656000D01*
X105698941Y-129627140D01*
X105562270Y-129570529D01*
X105562269Y-129570529D01*
X105562268Y-129570528D01*
X105439265Y-129488340D01*
X105334660Y-129383735D01*
X105252472Y-129260732D01*
X105195860Y-129124059D01*
X105167000Y-128978967D01*
X105167000Y-128831033D01*
X105195860Y-128685941D01*
X105252472Y-128549268D01*
X105334660Y-128426265D01*
X105439265Y-128321660D01*
X105562268Y-128239472D01*
X105698941Y-128182860D01*
X105844032Y-128154000D01*
X105991968Y-128154000D01*
X106137059Y-128182860D01*
G37*
G36*
X93437059Y-128182860D02*
G01*
X93573732Y-128239472D01*
X93696735Y-128321660D01*
X93801340Y-128426265D01*
X93883528Y-128549268D01*
X93940140Y-128685941D01*
X93969000Y-128831033D01*
X93969000Y-128978967D01*
X93940140Y-129124059D01*
X93883528Y-129260732D01*
X93801340Y-129383735D01*
X93696735Y-129488340D01*
X93573732Y-129570528D01*
X93573731Y-129570529D01*
X93573730Y-129570529D01*
X93437059Y-129627140D01*
X93291968Y-129656000D01*
X93144032Y-129656000D01*
X92998941Y-129627140D01*
X92862270Y-129570529D01*
X92862269Y-129570529D01*
X92862268Y-129570528D01*
X92739265Y-129488340D01*
X92634660Y-129383735D01*
X92552472Y-129260732D01*
X92495860Y-129124059D01*
X92467000Y-128978967D01*
X92467000Y-128831033D01*
X92495860Y-128685941D01*
X92552472Y-128549268D01*
X92634660Y-128426265D01*
X92739265Y-128321660D01*
X92862268Y-128239472D01*
X92998941Y-128182860D01*
X93144032Y-128154000D01*
X93291968Y-128154000D01*
X93437059Y-128182860D01*
G37*
G36*
X80737059Y-128182860D02*
G01*
X80873732Y-128239472D01*
X80996735Y-128321660D01*
X81101340Y-128426265D01*
X81183528Y-128549268D01*
X81240140Y-128685941D01*
X81269000Y-128831033D01*
X81269000Y-128978967D01*
X81240140Y-129124059D01*
X81183528Y-129260732D01*
X81101340Y-129383735D01*
X80996735Y-129488340D01*
X80873732Y-129570528D01*
X80873731Y-129570529D01*
X80873730Y-129570529D01*
X80737059Y-129627140D01*
X80591968Y-129656000D01*
X80444032Y-129656000D01*
X80298941Y-129627140D01*
X80162270Y-129570529D01*
X80162269Y-129570529D01*
X80162268Y-129570528D01*
X80039265Y-129488340D01*
X79934660Y-129383735D01*
X79852472Y-129260732D01*
X79795860Y-129124059D01*
X79767000Y-128978967D01*
X79767000Y-128831033D01*
X79795860Y-128685941D01*
X79852472Y-128549268D01*
X79934660Y-128426265D01*
X80039265Y-128321660D01*
X80162268Y-128239472D01*
X80298941Y-128182860D01*
X80444032Y-128154000D01*
X80591968Y-128154000D01*
X80737059Y-128182860D01*
G37*
G36*
X68037059Y-128182860D02*
G01*
X68173732Y-128239472D01*
X68296735Y-128321660D01*
X68401340Y-128426265D01*
X68483528Y-128549268D01*
X68540140Y-128685941D01*
X68569000Y-128831033D01*
X68569000Y-128978967D01*
X68540140Y-129124059D01*
X68483528Y-129260732D01*
X68401340Y-129383735D01*
X68296735Y-129488340D01*
X68173732Y-129570528D01*
X68173731Y-129570529D01*
X68173730Y-129570529D01*
X68037059Y-129627140D01*
X67891968Y-129656000D01*
X67744032Y-129656000D01*
X67598941Y-129627140D01*
X67462270Y-129570529D01*
X67462269Y-129570529D01*
X67462268Y-129570528D01*
X67339265Y-129488340D01*
X67234660Y-129383735D01*
X67152472Y-129260732D01*
X67095860Y-129124059D01*
X67067000Y-128978967D01*
X67067000Y-128831033D01*
X67095860Y-128685941D01*
X67152472Y-128549268D01*
X67234660Y-128426265D01*
X67339265Y-128321660D01*
X67462268Y-128239472D01*
X67598941Y-128182860D01*
X67744032Y-128154000D01*
X67891968Y-128154000D01*
X68037059Y-128182860D01*
G37*
G36*
X144237059Y-128182860D02*
G01*
X144373732Y-128239472D01*
X144496735Y-128321660D01*
X144601340Y-128426265D01*
X144683528Y-128549268D01*
X144740140Y-128685941D01*
X144769000Y-128831033D01*
X144769000Y-128978967D01*
X144740140Y-129124059D01*
X144683528Y-129260732D01*
X144601340Y-129383735D01*
X144496735Y-129488340D01*
X144373732Y-129570528D01*
X144373731Y-129570529D01*
X144373730Y-129570529D01*
X144237059Y-129627140D01*
X144091968Y-129656000D01*
X143944032Y-129656000D01*
X143798941Y-129627140D01*
X143662270Y-129570529D01*
X143662269Y-129570529D01*
X143662268Y-129570528D01*
X143539265Y-129488340D01*
X143434660Y-129383735D01*
X143352472Y-129260732D01*
X143295860Y-129124059D01*
X143267000Y-128978967D01*
X143267000Y-128831033D01*
X143295860Y-128685941D01*
X143352472Y-128549268D01*
X143434660Y-128426265D01*
X143539265Y-128321660D01*
X143662268Y-128239472D01*
X143798941Y-128182860D01*
X143944032Y-128154000D01*
X144091968Y-128154000D01*
X144237059Y-128182860D01*
G37*
G36*
X87087059Y-128182860D02*
G01*
X87223732Y-128239472D01*
X87346735Y-128321660D01*
X87451340Y-128426265D01*
X87533528Y-128549268D01*
X87590140Y-128685941D01*
X87619000Y-128831033D01*
X87619000Y-128978967D01*
X87590140Y-129124059D01*
X87533528Y-129260732D01*
X87451340Y-129383735D01*
X87346735Y-129488340D01*
X87223732Y-129570528D01*
X87223731Y-129570529D01*
X87223730Y-129570529D01*
X87087059Y-129627140D01*
X86941968Y-129656000D01*
X86794032Y-129656000D01*
X86648941Y-129627140D01*
X86512270Y-129570529D01*
X86512269Y-129570529D01*
X86512268Y-129570528D01*
X86389265Y-129488340D01*
X86284660Y-129383735D01*
X86202472Y-129260732D01*
X86145860Y-129124059D01*
X86117000Y-128978967D01*
X86117000Y-128831033D01*
X86145860Y-128685941D01*
X86202472Y-128549268D01*
X86284660Y-128426265D01*
X86389265Y-128321660D01*
X86512268Y-128239472D01*
X86648941Y-128182860D01*
X86794032Y-128154000D01*
X86941968Y-128154000D01*
X87087059Y-128182860D01*
G37*
G36*
X74387059Y-128182860D02*
G01*
X74523732Y-128239472D01*
X74646735Y-128321660D01*
X74751340Y-128426265D01*
X74833528Y-128549268D01*
X74890140Y-128685941D01*
X74919000Y-128831033D01*
X74919000Y-128978967D01*
X74890140Y-129124059D01*
X74833528Y-129260732D01*
X74751340Y-129383735D01*
X74646735Y-129488340D01*
X74523732Y-129570528D01*
X74523731Y-129570529D01*
X74523730Y-129570529D01*
X74387059Y-129627140D01*
X74241968Y-129656000D01*
X74094032Y-129656000D01*
X73948941Y-129627140D01*
X73812270Y-129570529D01*
X73812269Y-129570529D01*
X73812268Y-129570528D01*
X73689265Y-129488340D01*
X73584660Y-129383735D01*
X73502472Y-129260732D01*
X73445860Y-129124059D01*
X73417000Y-128978967D01*
X73417000Y-128831033D01*
X73445860Y-128685941D01*
X73502472Y-128549268D01*
X73584660Y-128426265D01*
X73689265Y-128321660D01*
X73812268Y-128239472D01*
X73948941Y-128182860D01*
X74094032Y-128154000D01*
X74241968Y-128154000D01*
X74387059Y-128182860D01*
G37*
G36*
X150587059Y-128182860D02*
G01*
X150723732Y-128239472D01*
X150846735Y-128321660D01*
X150951340Y-128426265D01*
X151033528Y-128549268D01*
X151090140Y-128685941D01*
X151119000Y-128831033D01*
X151119000Y-128978967D01*
X151090140Y-129124059D01*
X151033528Y-129260732D01*
X150951340Y-129383735D01*
X150846735Y-129488340D01*
X150723732Y-129570528D01*
X150723731Y-129570529D01*
X150723730Y-129570529D01*
X150587059Y-129627140D01*
X150441968Y-129656000D01*
X150294032Y-129656000D01*
X150148941Y-129627140D01*
X150012270Y-129570529D01*
X150012269Y-129570529D01*
X150012268Y-129570528D01*
X149889265Y-129488340D01*
X149784660Y-129383735D01*
X149702472Y-129260732D01*
X149645860Y-129124059D01*
X149617000Y-128978967D01*
X149617000Y-128831033D01*
X149645860Y-128685941D01*
X149702472Y-128549268D01*
X149784660Y-128426265D01*
X149889265Y-128321660D01*
X150012268Y-128239472D01*
X150148941Y-128182860D01*
X150294032Y-128154000D01*
X150441968Y-128154000D01*
X150587059Y-128182860D01*
G37*
G36*
X99787059Y-128182860D02*
G01*
X99923732Y-128239472D01*
X100046735Y-128321660D01*
X100151340Y-128426265D01*
X100233528Y-128549268D01*
X100290140Y-128685941D01*
X100319000Y-128831033D01*
X100319000Y-128978967D01*
X100290140Y-129124059D01*
X100233528Y-129260732D01*
X100151340Y-129383735D01*
X100046735Y-129488340D01*
X99923732Y-129570528D01*
X99923731Y-129570529D01*
X99923730Y-129570529D01*
X99787059Y-129627140D01*
X99641968Y-129656000D01*
X99494032Y-129656000D01*
X99348941Y-129627140D01*
X99212270Y-129570529D01*
X99212269Y-129570529D01*
X99212268Y-129570528D01*
X99089265Y-129488340D01*
X98984660Y-129383735D01*
X98902472Y-129260732D01*
X98845860Y-129124059D01*
X98817000Y-128978967D01*
X98817000Y-128831033D01*
X98845860Y-128685941D01*
X98902472Y-128549268D01*
X98984660Y-128426265D01*
X99089265Y-128321660D01*
X99212268Y-128239472D01*
X99348941Y-128182860D01*
X99494032Y-128154000D01*
X99641968Y-128154000D01*
X99787059Y-128182860D01*
G37*
G36*
X131537059Y-128182860D02*
G01*
X131673732Y-128239472D01*
X131796735Y-128321660D01*
X131901340Y-128426265D01*
X131983528Y-128549268D01*
X132040140Y-128685941D01*
X132069000Y-128831033D01*
X132069000Y-128978967D01*
X132040140Y-129124059D01*
X131983528Y-129260732D01*
X131901340Y-129383735D01*
X131796735Y-129488340D01*
X131673732Y-129570528D01*
X131673731Y-129570529D01*
X131673730Y-129570529D01*
X131537059Y-129627140D01*
X131391968Y-129656000D01*
X131244032Y-129656000D01*
X131098941Y-129627140D01*
X130962270Y-129570529D01*
X130962269Y-129570529D01*
X130962268Y-129570528D01*
X130839265Y-129488340D01*
X130734660Y-129383735D01*
X130652472Y-129260732D01*
X130595860Y-129124059D01*
X130567000Y-128978967D01*
X130567000Y-128831033D01*
X130595860Y-128685941D01*
X130652472Y-128549268D01*
X130734660Y-128426265D01*
X130839265Y-128321660D01*
X130962268Y-128239472D01*
X131098941Y-128182860D01*
X131244032Y-128154000D01*
X131391968Y-128154000D01*
X131537059Y-128182860D01*
G37*
G36*
X125187059Y-128182860D02*
G01*
X125323732Y-128239472D01*
X125446735Y-128321660D01*
X125551340Y-128426265D01*
X125633528Y-128549268D01*
X125690140Y-128685941D01*
X125719000Y-128831033D01*
X125719000Y-128978967D01*
X125690140Y-129124059D01*
X125633528Y-129260732D01*
X125551340Y-129383735D01*
X125446735Y-129488340D01*
X125323732Y-129570528D01*
X125323731Y-129570529D01*
X125323730Y-129570529D01*
X125187059Y-129627140D01*
X125041968Y-129656000D01*
X124894032Y-129656000D01*
X124748941Y-129627140D01*
X124612270Y-129570529D01*
X124612269Y-129570529D01*
X124612268Y-129570528D01*
X124489265Y-129488340D01*
X124384660Y-129383735D01*
X124302472Y-129260732D01*
X124245860Y-129124059D01*
X124217000Y-128978967D01*
X124217000Y-128831033D01*
X124245860Y-128685941D01*
X124302472Y-128549268D01*
X124384660Y-128426265D01*
X124489265Y-128321660D01*
X124612268Y-128239472D01*
X124748941Y-128182860D01*
X124894032Y-128154000D01*
X125041968Y-128154000D01*
X125187059Y-128182860D01*
G37*
G36*
X112487059Y-128182860D02*
G01*
X112623732Y-128239472D01*
X112746735Y-128321660D01*
X112851340Y-128426265D01*
X112933528Y-128549268D01*
X112990140Y-128685941D01*
X113019000Y-128831033D01*
X113019000Y-128978967D01*
X112990140Y-129124059D01*
X112933528Y-129260732D01*
X112851340Y-129383735D01*
X112746735Y-129488340D01*
X112623732Y-129570528D01*
X112623731Y-129570529D01*
X112623730Y-129570529D01*
X112487059Y-129627140D01*
X112341968Y-129656000D01*
X112194032Y-129656000D01*
X112048941Y-129627140D01*
X111912270Y-129570529D01*
X111912269Y-129570529D01*
X111912268Y-129570528D01*
X111789265Y-129488340D01*
X111684660Y-129383735D01*
X111602472Y-129260732D01*
X111545860Y-129124059D01*
X111517000Y-128978967D01*
X111517000Y-128831033D01*
X111545860Y-128685941D01*
X111602472Y-128549268D01*
X111684660Y-128426265D01*
X111789265Y-128321660D01*
X111912268Y-128239472D01*
X112048941Y-128182860D01*
X112194032Y-128154000D01*
X112341968Y-128154000D01*
X112487059Y-128182860D01*
G37*
G36*
X118837059Y-128182860D02*
G01*
X118973732Y-128239472D01*
X119096735Y-128321660D01*
X119201340Y-128426265D01*
X119283528Y-128549268D01*
X119340140Y-128685941D01*
X119369000Y-128831033D01*
X119369000Y-128978967D01*
X119340140Y-129124059D01*
X119283528Y-129260732D01*
X119201340Y-129383735D01*
X119096735Y-129488340D01*
X118973732Y-129570528D01*
X118973731Y-129570529D01*
X118973730Y-129570529D01*
X118837059Y-129627140D01*
X118691968Y-129656000D01*
X118544032Y-129656000D01*
X118398941Y-129627140D01*
X118262270Y-129570529D01*
X118262269Y-129570529D01*
X118262268Y-129570528D01*
X118139265Y-129488340D01*
X118034660Y-129383735D01*
X117952472Y-129260732D01*
X117895860Y-129124059D01*
X117867000Y-128978967D01*
X117867000Y-128831033D01*
X117895860Y-128685941D01*
X117952472Y-128549268D01*
X118034660Y-128426265D01*
X118139265Y-128321660D01*
X118262268Y-128239472D01*
X118398941Y-128182860D01*
X118544032Y-128154000D01*
X118691968Y-128154000D01*
X118837059Y-128182860D01*
G37*
G36*
X137887059Y-128182860D02*
G01*
X138023732Y-128239472D01*
X138146735Y-128321660D01*
X138251340Y-128426265D01*
X138333528Y-128549268D01*
X138390140Y-128685941D01*
X138419000Y-128831033D01*
X138419000Y-128978967D01*
X138390140Y-129124059D01*
X138333528Y-129260732D01*
X138251340Y-129383735D01*
X138146735Y-129488340D01*
X138023732Y-129570528D01*
X138023731Y-129570529D01*
X138023730Y-129570529D01*
X137887059Y-129627140D01*
X137741968Y-129656000D01*
X137594032Y-129656000D01*
X137448941Y-129627140D01*
X137312270Y-129570529D01*
X137312269Y-129570529D01*
X137312268Y-129570528D01*
X137189265Y-129488340D01*
X137084660Y-129383735D01*
X137002472Y-129260732D01*
X136945860Y-129124059D01*
X136917000Y-128978967D01*
X136917000Y-128831033D01*
X136945860Y-128685941D01*
X137002472Y-128549268D01*
X137084660Y-128426265D01*
X137189265Y-128321660D01*
X137312268Y-128239472D01*
X137448941Y-128182860D01*
X137594032Y-128154000D01*
X137741968Y-128154000D01*
X137887059Y-128182860D01*
G37*
G36*
X106137059Y-123102860D02*
G01*
X106273732Y-123159472D01*
X106396735Y-123241660D01*
X106501340Y-123346265D01*
X106583528Y-123469268D01*
X106640140Y-123605941D01*
X106669000Y-123751033D01*
X106669000Y-123898967D01*
X106640140Y-124044059D01*
X106583528Y-124180732D01*
X106501340Y-124303735D01*
X106396735Y-124408340D01*
X106273732Y-124490528D01*
X106273731Y-124490529D01*
X106273730Y-124490529D01*
X106137059Y-124547140D01*
X105991968Y-124576000D01*
X105844032Y-124576000D01*
X105698941Y-124547140D01*
X105562270Y-124490529D01*
X105562269Y-124490529D01*
X105562268Y-124490528D01*
X105439265Y-124408340D01*
X105334660Y-124303735D01*
X105252472Y-124180732D01*
X105195860Y-124044059D01*
X105167000Y-123898967D01*
X105167000Y-123751033D01*
X105195860Y-123605941D01*
X105252472Y-123469268D01*
X105334660Y-123346265D01*
X105439265Y-123241660D01*
X105562268Y-123159472D01*
X105698941Y-123102860D01*
X105844032Y-123074000D01*
X105991968Y-123074000D01*
X106137059Y-123102860D01*
G37*
G36*
X131537059Y-123102860D02*
G01*
X131673732Y-123159472D01*
X131796735Y-123241660D01*
X131901340Y-123346265D01*
X131983528Y-123469268D01*
X132040140Y-123605941D01*
X132069000Y-123751033D01*
X132069000Y-123898967D01*
X132040140Y-124044059D01*
X131983528Y-124180732D01*
X131901340Y-124303735D01*
X131796735Y-124408340D01*
X131673732Y-124490528D01*
X131673731Y-124490529D01*
X131673730Y-124490529D01*
X131537059Y-124547140D01*
X131391968Y-124576000D01*
X131244032Y-124576000D01*
X131098941Y-124547140D01*
X130962270Y-124490529D01*
X130962269Y-124490529D01*
X130962268Y-124490528D01*
X130839265Y-124408340D01*
X130734660Y-124303735D01*
X130652472Y-124180732D01*
X130595860Y-124044059D01*
X130567000Y-123898967D01*
X130567000Y-123751033D01*
X130595860Y-123605941D01*
X130652472Y-123469268D01*
X130734660Y-123346265D01*
X130839265Y-123241660D01*
X130962268Y-123159472D01*
X131098941Y-123102860D01*
X131244032Y-123074000D01*
X131391968Y-123074000D01*
X131537059Y-123102860D01*
G37*
G36*
X150587059Y-123102860D02*
G01*
X150723732Y-123159472D01*
X150846735Y-123241660D01*
X150951340Y-123346265D01*
X151033528Y-123469268D01*
X151090140Y-123605941D01*
X151119000Y-123751033D01*
X151119000Y-123898967D01*
X151090140Y-124044059D01*
X151033528Y-124180732D01*
X150951340Y-124303735D01*
X150846735Y-124408340D01*
X150723732Y-124490528D01*
X150723731Y-124490529D01*
X150723730Y-124490529D01*
X150587059Y-124547140D01*
X150441968Y-124576000D01*
X150294032Y-124576000D01*
X150148941Y-124547140D01*
X150012270Y-124490529D01*
X150012269Y-124490529D01*
X150012268Y-124490528D01*
X149889265Y-124408340D01*
X149784660Y-124303735D01*
X149702472Y-124180732D01*
X149645860Y-124044059D01*
X149617000Y-123898967D01*
X149617000Y-123751033D01*
X149645860Y-123605941D01*
X149702472Y-123469268D01*
X149784660Y-123346265D01*
X149889265Y-123241660D01*
X150012268Y-123159472D01*
X150148941Y-123102860D01*
X150294032Y-123074000D01*
X150441968Y-123074000D01*
X150587059Y-123102860D01*
G37*
G36*
X118837059Y-123102860D02*
G01*
X118973732Y-123159472D01*
X119096735Y-123241660D01*
X119201340Y-123346265D01*
X119283528Y-123469268D01*
X119340140Y-123605941D01*
X119369000Y-123751033D01*
X119369000Y-123898967D01*
X119340140Y-124044059D01*
X119283528Y-124180732D01*
X119201340Y-124303735D01*
X119096735Y-124408340D01*
X118973732Y-124490528D01*
X118973731Y-124490529D01*
X118973730Y-124490529D01*
X118837059Y-124547140D01*
X118691968Y-124576000D01*
X118544032Y-124576000D01*
X118398941Y-124547140D01*
X118262270Y-124490529D01*
X118262269Y-124490529D01*
X118262268Y-124490528D01*
X118139265Y-124408340D01*
X118034660Y-124303735D01*
X117952472Y-124180732D01*
X117895860Y-124044059D01*
X117867000Y-123898967D01*
X117867000Y-123751033D01*
X117895860Y-123605941D01*
X117952472Y-123469268D01*
X118034660Y-123346265D01*
X118139265Y-123241660D01*
X118262268Y-123159472D01*
X118398941Y-123102860D01*
X118544032Y-123074000D01*
X118691968Y-123074000D01*
X118837059Y-123102860D01*
G37*
G36*
X112487059Y-123102860D02*
G01*
X112623732Y-123159472D01*
X112746735Y-123241660D01*
X112851340Y-123346265D01*
X112933528Y-123469268D01*
X112990140Y-123605941D01*
X113019000Y-123751033D01*
X113019000Y-123898967D01*
X112990140Y-124044059D01*
X112933528Y-124180732D01*
X112851340Y-124303735D01*
X112746735Y-124408340D01*
X112623732Y-124490528D01*
X112623731Y-124490529D01*
X112623730Y-124490529D01*
X112487059Y-124547140D01*
X112341968Y-124576000D01*
X112194032Y-124576000D01*
X112048941Y-124547140D01*
X111912270Y-124490529D01*
X111912269Y-124490529D01*
X111912268Y-124490528D01*
X111789265Y-124408340D01*
X111684660Y-124303735D01*
X111602472Y-124180732D01*
X111545860Y-124044059D01*
X111517000Y-123898967D01*
X111517000Y-123751033D01*
X111545860Y-123605941D01*
X111602472Y-123469268D01*
X111684660Y-123346265D01*
X111789265Y-123241660D01*
X111912268Y-123159472D01*
X112048941Y-123102860D01*
X112194032Y-123074000D01*
X112341968Y-123074000D01*
X112487059Y-123102860D01*
G37*
G36*
X125187059Y-123102860D02*
G01*
X125323732Y-123159472D01*
X125446735Y-123241660D01*
X125551340Y-123346265D01*
X125633528Y-123469268D01*
X125690140Y-123605941D01*
X125719000Y-123751033D01*
X125719000Y-123898967D01*
X125690140Y-124044059D01*
X125633528Y-124180732D01*
X125551340Y-124303735D01*
X125446735Y-124408340D01*
X125323732Y-124490528D01*
X125323731Y-124490529D01*
X125323730Y-124490529D01*
X125187059Y-124547140D01*
X125041968Y-124576000D01*
X124894032Y-124576000D01*
X124748941Y-124547140D01*
X124612270Y-124490529D01*
X124612269Y-124490529D01*
X124612268Y-124490528D01*
X124489265Y-124408340D01*
X124384660Y-124303735D01*
X124302472Y-124180732D01*
X124245860Y-124044059D01*
X124217000Y-123898967D01*
X124217000Y-123751033D01*
X124245860Y-123605941D01*
X124302472Y-123469268D01*
X124384660Y-123346265D01*
X124489265Y-123241660D01*
X124612268Y-123159472D01*
X124748941Y-123102860D01*
X124894032Y-123074000D01*
X125041968Y-123074000D01*
X125187059Y-123102860D01*
G37*
G36*
X99787059Y-123102860D02*
G01*
X99923732Y-123159472D01*
X100046735Y-123241660D01*
X100151340Y-123346265D01*
X100233528Y-123469268D01*
X100290140Y-123605941D01*
X100319000Y-123751033D01*
X100319000Y-123898967D01*
X100290140Y-124044059D01*
X100233528Y-124180732D01*
X100151340Y-124303735D01*
X100046735Y-124408340D01*
X99923732Y-124490528D01*
X99923731Y-124490529D01*
X99923730Y-124490529D01*
X99787059Y-124547140D01*
X99641968Y-124576000D01*
X99494032Y-124576000D01*
X99348941Y-124547140D01*
X99212270Y-124490529D01*
X99212269Y-124490529D01*
X99212268Y-124490528D01*
X99089265Y-124408340D01*
X98984660Y-124303735D01*
X98902472Y-124180732D01*
X98845860Y-124044059D01*
X98817000Y-123898967D01*
X98817000Y-123751033D01*
X98845860Y-123605941D01*
X98902472Y-123469268D01*
X98984660Y-123346265D01*
X99089265Y-123241660D01*
X99212268Y-123159472D01*
X99348941Y-123102860D01*
X99494032Y-123074000D01*
X99641968Y-123074000D01*
X99787059Y-123102860D01*
G37*
G36*
X93437059Y-123102860D02*
G01*
X93573732Y-123159472D01*
X93696735Y-123241660D01*
X93801340Y-123346265D01*
X93883528Y-123469268D01*
X93940140Y-123605941D01*
X93969000Y-123751033D01*
X93969000Y-123898967D01*
X93940140Y-124044059D01*
X93883528Y-124180732D01*
X93801340Y-124303735D01*
X93696735Y-124408340D01*
X93573732Y-124490528D01*
X93573731Y-124490529D01*
X93573730Y-124490529D01*
X93437059Y-124547140D01*
X93291968Y-124576000D01*
X93144032Y-124576000D01*
X92998941Y-124547140D01*
X92862270Y-124490529D01*
X92862269Y-124490529D01*
X92862268Y-124490528D01*
X92739265Y-124408340D01*
X92634660Y-124303735D01*
X92552472Y-124180732D01*
X92495860Y-124044059D01*
X92467000Y-123898967D01*
X92467000Y-123751033D01*
X92495860Y-123605941D01*
X92552472Y-123469268D01*
X92634660Y-123346265D01*
X92739265Y-123241660D01*
X92862268Y-123159472D01*
X92998941Y-123102860D01*
X93144032Y-123074000D01*
X93291968Y-123074000D01*
X93437059Y-123102860D01*
G37*
G36*
X144237059Y-123102860D02*
G01*
X144373732Y-123159472D01*
X144496735Y-123241660D01*
X144601340Y-123346265D01*
X144683528Y-123469268D01*
X144740140Y-123605941D01*
X144769000Y-123751033D01*
X144769000Y-123898967D01*
X144740140Y-124044059D01*
X144683528Y-124180732D01*
X144601340Y-124303735D01*
X144496735Y-124408340D01*
X144373732Y-124490528D01*
X144373731Y-124490529D01*
X144373730Y-124490529D01*
X144237059Y-124547140D01*
X144091968Y-124576000D01*
X143944032Y-124576000D01*
X143798941Y-124547140D01*
X143662270Y-124490529D01*
X143662269Y-124490529D01*
X143662268Y-124490528D01*
X143539265Y-124408340D01*
X143434660Y-124303735D01*
X143352472Y-124180732D01*
X143295860Y-124044059D01*
X143267000Y-123898967D01*
X143267000Y-123751033D01*
X143295860Y-123605941D01*
X143352472Y-123469268D01*
X143434660Y-123346265D01*
X143539265Y-123241660D01*
X143662268Y-123159472D01*
X143798941Y-123102860D01*
X143944032Y-123074000D01*
X144091968Y-123074000D01*
X144237059Y-123102860D01*
G37*
G36*
X137887059Y-123102860D02*
G01*
X138023732Y-123159472D01*
X138146735Y-123241660D01*
X138251340Y-123346265D01*
X138333528Y-123469268D01*
X138390140Y-123605941D01*
X138419000Y-123751033D01*
X138419000Y-123898967D01*
X138390140Y-124044059D01*
X138333528Y-124180732D01*
X138251340Y-124303735D01*
X138146735Y-124408340D01*
X138023732Y-124490528D01*
X138023731Y-124490529D01*
X138023730Y-124490529D01*
X137887059Y-124547140D01*
X137741968Y-124576000D01*
X137594032Y-124576000D01*
X137448941Y-124547140D01*
X137312270Y-124490529D01*
X137312269Y-124490529D01*
X137312268Y-124490528D01*
X137189265Y-124408340D01*
X137084660Y-124303735D01*
X137002472Y-124180732D01*
X136945860Y-124044059D01*
X136917000Y-123898967D01*
X136917000Y-123751033D01*
X136945860Y-123605941D01*
X137002472Y-123469268D01*
X137084660Y-123346265D01*
X137189265Y-123241660D01*
X137312268Y-123159472D01*
X137448941Y-123102860D01*
X137594032Y-123074000D01*
X137741968Y-123074000D01*
X137887059Y-123102860D01*
G37*
G36*
X87087059Y-123102860D02*
G01*
X87223732Y-123159472D01*
X87346735Y-123241660D01*
X87451340Y-123346265D01*
X87533528Y-123469268D01*
X87590140Y-123605941D01*
X87619000Y-123751033D01*
X87619000Y-123898967D01*
X87590140Y-124044059D01*
X87533528Y-124180732D01*
X87451340Y-124303735D01*
X87346735Y-124408340D01*
X87223732Y-124490528D01*
X87223731Y-124490529D01*
X87223730Y-124490529D01*
X87087059Y-124547140D01*
X86941968Y-124576000D01*
X86794032Y-124576000D01*
X86648941Y-124547140D01*
X86512270Y-124490529D01*
X86512269Y-124490529D01*
X86512268Y-124490528D01*
X86389265Y-124408340D01*
X86284660Y-124303735D01*
X86202472Y-124180732D01*
X86145860Y-124044059D01*
X86117000Y-123898967D01*
X86117000Y-123751033D01*
X86145860Y-123605941D01*
X86202472Y-123469268D01*
X86284660Y-123346265D01*
X86389265Y-123241660D01*
X86512268Y-123159472D01*
X86648941Y-123102860D01*
X86794032Y-123074000D01*
X86941968Y-123074000D01*
X87087059Y-123102860D01*
G37*
G36*
X68037059Y-123102860D02*
G01*
X68173732Y-123159472D01*
X68296735Y-123241660D01*
X68401340Y-123346265D01*
X68483528Y-123469268D01*
X68540140Y-123605941D01*
X68569000Y-123751033D01*
X68569000Y-123898967D01*
X68540140Y-124044059D01*
X68483528Y-124180732D01*
X68401340Y-124303735D01*
X68296735Y-124408340D01*
X68173732Y-124490528D01*
X68173731Y-124490529D01*
X68173730Y-124490529D01*
X68037059Y-124547140D01*
X67891968Y-124576000D01*
X67744032Y-124576000D01*
X67598941Y-124547140D01*
X67462270Y-124490529D01*
X67462269Y-124490529D01*
X67462268Y-124490528D01*
X67339265Y-124408340D01*
X67234660Y-124303735D01*
X67152472Y-124180732D01*
X67095860Y-124044059D01*
X67067000Y-123898967D01*
X67067000Y-123751033D01*
X67095860Y-123605941D01*
X67152472Y-123469268D01*
X67234660Y-123346265D01*
X67339265Y-123241660D01*
X67462268Y-123159472D01*
X67598941Y-123102860D01*
X67744032Y-123074000D01*
X67891968Y-123074000D01*
X68037059Y-123102860D01*
G37*
G36*
X80737059Y-123102860D02*
G01*
X80873732Y-123159472D01*
X80996735Y-123241660D01*
X81101340Y-123346265D01*
X81183528Y-123469268D01*
X81240140Y-123605941D01*
X81269000Y-123751033D01*
X81269000Y-123898967D01*
X81240140Y-124044059D01*
X81183528Y-124180732D01*
X81101340Y-124303735D01*
X80996735Y-124408340D01*
X80873732Y-124490528D01*
X80873731Y-124490529D01*
X80873730Y-124490529D01*
X80737059Y-124547140D01*
X80591968Y-124576000D01*
X80444032Y-124576000D01*
X80298941Y-124547140D01*
X80162270Y-124490529D01*
X80162269Y-124490529D01*
X80162268Y-124490528D01*
X80039265Y-124408340D01*
X79934660Y-124303735D01*
X79852472Y-124180732D01*
X79795860Y-124044059D01*
X79767000Y-123898967D01*
X79767000Y-123751033D01*
X79795860Y-123605941D01*
X79852472Y-123469268D01*
X79934660Y-123346265D01*
X80039265Y-123241660D01*
X80162268Y-123159472D01*
X80298941Y-123102860D01*
X80444032Y-123074000D01*
X80591968Y-123074000D01*
X80737059Y-123102860D01*
G37*
G36*
X74387059Y-123102860D02*
G01*
X74523732Y-123159472D01*
X74646735Y-123241660D01*
X74751340Y-123346265D01*
X74833528Y-123469268D01*
X74890140Y-123605941D01*
X74919000Y-123751033D01*
X74919000Y-123898967D01*
X74890140Y-124044059D01*
X74833528Y-124180732D01*
X74751340Y-124303735D01*
X74646735Y-124408340D01*
X74523732Y-124490528D01*
X74523731Y-124490529D01*
X74523730Y-124490529D01*
X74387059Y-124547140D01*
X74241968Y-124576000D01*
X74094032Y-124576000D01*
X73948941Y-124547140D01*
X73812270Y-124490529D01*
X73812269Y-124490529D01*
X73812268Y-124490528D01*
X73689265Y-124408340D01*
X73584660Y-124303735D01*
X73502472Y-124180732D01*
X73445860Y-124044059D01*
X73417000Y-123898967D01*
X73417000Y-123751033D01*
X73445860Y-123605941D01*
X73502472Y-123469268D01*
X73584660Y-123346265D01*
X73689265Y-123241660D01*
X73812268Y-123159472D01*
X73948941Y-123102860D01*
X74094032Y-123074000D01*
X74241968Y-123074000D01*
X74387059Y-123102860D01*
G37*
G36*
X170523512Y-120953927D02*
G01*
X170672812Y-120983624D01*
X170836784Y-121051544D01*
X170984354Y-121150147D01*
X171109853Y-121275646D01*
X171208456Y-121423216D01*
X171276376Y-121587188D01*
X171311000Y-121761259D01*
X171311000Y-121938741D01*
X171276376Y-122112812D01*
X171208456Y-122276784D01*
X171109853Y-122424354D01*
X170984354Y-122549853D01*
X170836784Y-122648456D01*
X170672812Y-122716376D01*
X170523512Y-122746073D01*
X170498742Y-122751000D01*
X170321258Y-122751000D01*
X170296488Y-122746073D01*
X170147188Y-122716376D01*
X169983216Y-122648456D01*
X169835646Y-122549853D01*
X169710147Y-122424354D01*
X169611544Y-122276784D01*
X169543624Y-122112812D01*
X169509000Y-121938741D01*
X169509000Y-121761259D01*
X169543624Y-121587188D01*
X169611544Y-121423216D01*
X169710147Y-121275646D01*
X169835646Y-121150147D01*
X169983216Y-121051544D01*
X170147188Y-120983624D01*
X170296488Y-120953927D01*
X170321258Y-120949000D01*
X170498742Y-120949000D01*
X170523512Y-120953927D01*
G37*
G36*
X173851000Y-122751000D02*
G01*
X172049000Y-122751000D01*
X172049000Y-120949000D01*
X173851000Y-120949000D01*
X173851000Y-122751000D01*
G37*
M02*
